<svg width="32" height="28" viewBox="0 0 32 28" fill="none" xmlns="http://www.w3.org/2000/svg">
<path fill-rule="evenodd" clip-rule="evenodd" d="M28.2801 6.26665C27.5626 6.42213 26.9243 6.82878 26.4801 7.41331C26.4398 7.44746 26.4067 7.4892 26.3826 7.53615C26.3584 7.58311 26.3438 7.63436 26.3394 7.68698C26.3307 7.79325 26.3645 7.89865 26.4335 7.97998C26.5024 8.06131 26.6009 8.11192 26.7071 8.12067C26.8134 8.12943 26.9188 8.0956 27.0001 8.02665C27.6935 7.54665 27.7868 7.46665 28.4268 7.45331C29.0668 7.43998 30.5868 8.45331 30.6135 9.15998C30.6795 9.90594 30.4603 10.6492 30.0001 11.24C29.1068 10.5466 26.9068 8.98665 26.3335 8.57331C26.2485 8.48864 26.1334 8.44109 26.0135 8.44109C25.8935 8.44109 25.7784 8.48864 25.6935 8.57331C25.1735 9.15998 26.2001 9.46665 29.2401 12.0666C28.8401 12.7466 28.6801 12.8533 24.2401 18.0266C23.9302 17.4238 23.5027 16.8891 22.9829 16.454C22.4631 16.0189 21.8615 15.6923 21.2135 15.4933C25.0268 10.16 25.7068 10.0133 25.2135 9.58665C24.7201 9.15998 24.5468 9.78664 24.0801 10.32C20.7735 14.1733 18.9468 16.28 18.9068 16.9866C18.7601 19.9066 18.6268 21.32 19.0668 21.7333C19.9335 22.56 23.0668 21.3733 23.7868 20.9066C26.6189 17.7469 29.2253 14.392 31.5868 10.8666C31.9129 10.3521 32.0777 9.75186 32.0599 9.14297C32.0422 8.53408 31.8427 7.94441 31.4871 7.44979C31.1316 6.95518 30.6362 6.57821 30.0647 6.36737C29.4932 6.15653 28.8717 6.12145 28.2801 6.26665ZM22.8535 19.6C22.0205 20.0362 21.1183 20.3249 20.1868 20.4533C20.0001 16.36 20.0801 17.12 20.6268 16.32C21.5104 17.2469 22.4891 18.0781 23.5468 18.8C23.1735 19.2533 22.9201 19.5466 22.8535 19.6Z" fill="#1D1C19"/>
<path fill-rule="evenodd" clip-rule="evenodd" d="M22.8935 23.76C22.5601 25.2 22.1601 25.68 20.4001 25.96C15.5638 26.3895 10.6951 26.2912 5.88012 25.6666C4.97345 25.5066 4.12012 25.4666 3.21345 25.3333C2.30679 25.2 2.48012 25.16 1.52012 24.9466C1.34679 24.1333 2.33345 22.1333 2.54679 21.1866C2.54679 21.1866 5.45345 7.35998 5.66679 6.10665C5.94748 4.55149 6.12122 2.97891 6.18679 1.39998C7.82679 1.39998 10.3468 1.71998 11.8668 1.89331C16.6268 2.42665 21.7735 1.06665 25.0135 2.91998C25.2091 3.61306 25.2724 4.33679 25.2001 5.05331C25.2001 5.1594 25.2423 5.26114 25.3173 5.33616C25.3923 5.41117 25.494 5.45331 25.6001 5.45331C25.7062 5.45331 25.8079 5.41117 25.883 5.33616C25.958 5.26114 26.0001 5.1594 26.0001 5.05331C26.1068 4.15998 26.2535 2.67998 25.6268 2.02665C24.1868 0.55998 20.0001 0.333313 17.8135 0.333313C15.8668 0.413313 13.9201 0.653313 12.0001 0.546646C11.1468 0.546646 6.66679 0.35998 5.81345 0.413313C5.18679 0.413313 5.42679 1.30665 5.40012 1.42665C4.94679 5.42665 5.25345 3.43998 1.09345 20.7866C0.800119 22.0666 -0.426548 24.1066 0.146786 25.6666C0.453452 26.4666 1.37345 26.4933 1.81345 26.6266C3.07179 26.889 4.34543 27.0715 5.62678 27.1733C9.61016 27.652 13.6338 27.6967 17.6268 27.3066C19.1601 27.2 21.2801 27.1866 22.6001 26.28C23.27 25.6976 23.6941 24.8828 23.7868 24C23.8025 23.9413 23.8066 23.8801 23.7987 23.8199C23.7908 23.7597 23.7711 23.7016 23.7408 23.649C23.7105 23.5964 23.6701 23.5502 23.6219 23.5132C23.5738 23.4762 23.5188 23.4491 23.4601 23.4333C23.4015 23.4176 23.3403 23.4135 23.2801 23.4214C23.2198 23.4293 23.1617 23.4489 23.1091 23.4793C23.0565 23.5096 23.0104 23.55 22.9734 23.5982C22.9364 23.6463 22.9092 23.7013 22.8935 23.76Z" fill="#1D1C19"/>
<path fill-rule="evenodd" clip-rule="evenodd" d="M20.8401 6.99998C19.3601 6.99998 17.2401 6.79998 15.2268 6.71998C11.6535 6.57331 12.6535 6.99998 9.48012 6.61331C9.18679 6.61331 8.05345 6.18665 7.84012 6.82665C7.62679 7.46665 8.54679 7.22665 9.30679 7.55998C10.0668 7.89331 11.2801 8.33331 16.1468 8.23998C17.8935 8.23998 19.6268 8.05331 20.8935 7.91998C20.9539 7.91648 21.013 7.90111 21.0675 7.87476C21.1219 7.84841 21.1707 7.81158 21.2109 7.76639C21.2512 7.7212 21.2821 7.66853 21.302 7.61138C21.3219 7.55423 21.3303 7.49372 21.3268 7.43331C21.3233 7.3729 21.3079 7.31378 21.2816 7.25931C21.2552 7.20484 21.2184 7.15609 21.1732 7.11585C21.128 7.07562 21.0753 7.04467 21.0182 7.02479C20.961 7.00491 20.9005 6.99648 20.8401 6.99998Z" fill="#1D1C19"/>
<path fill-rule="evenodd" clip-rule="evenodd" d="M17.3335 12.5733C9.78679 12.1466 8.56012 12.0266 7.38679 11.4133C7.29661 11.3567 7.18766 11.3383 7.08389 11.362C6.98011 11.3858 6.89003 11.4498 6.83345 11.54C6.77687 11.6302 6.75843 11.7391 6.78219 11.8429C6.80594 11.9467 6.86994 12.0367 6.96012 12.0933C8.17784 12.9493 9.58885 13.4899 11.0668 13.6666C13.1562 13.8348 15.2578 13.7722 17.3335 13.48C17.4537 13.48 17.569 13.4322 17.654 13.3472C17.739 13.2622 17.7868 13.1469 17.7868 13.0266C17.7868 12.9064 17.739 12.7911 17.654 12.7061C17.569 12.6211 17.4537 12.5733 17.3335 12.5733Z" fill="#1D1C19"/>
<path fill-rule="evenodd" clip-rule="evenodd" d="M13.1068 18.8266C10.1468 18.6666 7.34679 18.48 5.84012 17.2666C5.42679 16.9333 4.68012 17.6133 5.56012 18.36C6.2074 18.8167 6.90538 19.1971 7.64012 19.4933C10.6935 20.5733 13.3068 20.24 16.6801 19.8666C16.8004 19.8666 16.9157 19.8189 17.0007 19.7339C17.0857 19.6489 17.1335 19.5335 17.1335 19.4133C17.1335 19.2931 17.0857 19.1778 17.0007 19.0928C16.9157 19.0077 16.8004 18.96 16.6801 18.96C15.4935 19 14.3068 18.8933 13.1068 18.8266Z" fill="#1D1C19"/>
</svg>
