<svg width="32" height="32" viewBox="0 0 32 32" fill="none" xmlns="http://www.w3.org/2000/svg">
<path fill-rule="evenodd" clip-rule="evenodd" d="M4.6813 0.314675C-0.922702 0.496009 0.0759652 4.61868 0.0586319 23.3973C0.0586319 26.34 -0.245368 29.536 2.4133 31.0347C3.9973 31.9213 5.7253 31.8693 18.0093 31.7907C26.6666 31.7467 30.0573 32.544 31.476 27.568C32.0493 24.6613 32.1533 21.68 31.7826 18.7413C31.4626 3.56801 32.268 2.07601 28.7773 0.928008C25.5546 -0.149325 8.0653 0.200009 4.6813 0.313342V0.314675ZM18.5933 1.58534C11.9586 1.67201 3.65597 2.00134 3.34397 2.05201C1.4133 2.43868 1.8213 8.66268 1.85863 23.3973C1.88263 31.6747 1.0453 29.964 24.1746 30.0587C25.6493 30.0587 27.764 30.2053 28.876 29.2107C30.1143 27.4652 30.6952 25.3379 30.516 23.2053C29.7986 5.30801 32.2666 2.52134 27.5506 1.83201C24.6133 1.40268 21.568 1.54534 18.5933 1.58534Z" fill="#1D1C19"/>
<path fill-rule="evenodd" clip-rule="evenodd" d="M13.6466 12.5533C9.8333 13.2107 11.268 13.348 9.71863 11.7493C7.0933 9.08801 2.95063 11.452 6.2693 16.044C4.81197 17.6107 3.89463 19.3973 5.5853 20.728C6.1286 21.1253 6.79856 21.3099 7.46869 21.2471C8.13882 21.1842 8.76273 20.8781 9.22263 20.3867C11.96 18.3333 9.97197 18.5493 14.1226 19.048C13.4 20.5547 11.936 23.312 12.6373 25.1733C12.8298 25.6807 13.208 26.0959 13.6952 26.3348C14.1825 26.5737 14.7423 26.6185 15.2613 26.46C18.3573 25.84 20.052 21.98 21.492 19.616C22.8574 19.7482 24.2355 19.604 25.544 19.192C28.684 17.7827 28.78 11.48 20.7293 11.6853C19.8371 9.64362 18.7691 7.68334 17.5373 5.82667C14.8813 2.75067 9.97197 4.83468 13.6466 12.5533ZM20.3186 13.3533C19.412 13.5053 19.4733 12.7627 18.292 10.58C17.5186 9.11868 15.956 5.53201 14.5533 6.33334C12.948 7.25334 15.436 12.26 15.6546 12.9093C15.7015 13.0305 15.7214 13.1604 15.7129 13.2901C15.7044 13.4197 15.6679 13.546 15.6057 13.66C15.5435 13.7741 15.4572 13.8733 15.3529 13.9506C15.2485 14.028 15.1285 14.0817 15.0013 14.108C10.3133 14.9147 10.0906 15.0787 9.68397 14.5453C9.06797 13.7413 8.47597 12.7413 7.63063 12.3933C7.54155 12.3561 7.44481 12.341 7.34861 12.3491C7.25241 12.3573 7.15961 12.3886 7.07808 12.4402C6.99654 12.4919 6.92869 12.5625 6.88027 12.6461C6.83185 12.7296 6.8043 12.8236 6.79996 12.92C6.96979 13.9128 7.42792 14.8337 8.1173 15.568C8.99996 16.7627 5.54397 18.4387 6.69063 19.332C7.8373 20.2253 9.8653 16.776 10.9706 16.8987C17.588 17.7067 16.9933 17.1013 14.8706 21.536C12.7666 25.7587 15.5186 25.6867 17.9133 22.2547C19.9666 19.26 20.048 17.8813 21.02 17.888C23.528 17.912 25.6733 18.3547 25.8106 15.8827C26.0706 12.9027 23.2773 12.888 20.3186 13.3533Z" fill="#1D1C19"/>
</svg>
