<svg width="32" height="32" viewBox="0 0 32 32" fill="none" xmlns="http://www.w3.org/2000/svg">
<path fill-rule="evenodd" clip-rule="evenodd" d="M4.33348 19.7867C4.21325 19.7867 4.09794 19.8344 4.01292 19.9194C3.92791 20.0045 3.88014 20.1198 3.88014 20.24C3.88014 20.3602 3.92791 20.4755 4.01292 20.5605C4.09794 20.6456 4.21325 20.6933 4.33348 20.6933C10.7868 20.7867 22.1201 19.28 24.5601 20.56C24.6401 20.56 24.7735 20.8267 24.9068 20.8933C24.0001 22.1333 20.8268 21.72 19.1868 21.8667C16.4135 22.1333 13.6001 21.96 10.8135 22.0933C7.28014 22.24 4.36014 23.0933 1.48014 22.5733C0.480144 22.3867 0.773477 21.24 1.72014 21.08C1.72014 21.08 3.34681 20.6667 3.36014 20.6133C3.37596 20.5418 3.37421 20.4675 3.35502 20.3968C3.33584 20.326 3.2998 20.261 3.24999 20.2073C3.20018 20.1535 3.13809 20.1127 3.06904 20.0882C2.99998 20.0637 2.92601 20.0563 2.85348 20.0667C2.53348 20.0667 1.70681 20.2267 1.52014 20.2533C-0.346522 20.6 -0.759856 23.0533 1.26681 23.5067C2.22675 23.708 3.20611 23.8019 4.18681 23.7867C4.18681 23.92 2.85348 28.0267 2.53348 29.8C2.10681 32.1733 5.42681 32.5867 6.32014 30.4933C6.68595 29.5338 6.99755 28.5545 7.25348 27.56C7.61156 27.6125 7.97539 27.6125 8.33348 27.56C10.3673 27.8165 12.4201 27.8879 14.4668 27.7733C18.4668 27.56 17.4668 27.7733 18.4668 27.6667C19.4668 27.56 18.7201 26.7733 20.1468 30.4667C21.0268 32.5467 24.3468 32.1467 23.9201 29.76C23.6535 28.5067 22.3468 23.76 22.0668 23.2667C22.7938 23.2607 23.5164 23.153 24.2135 22.9467C25.4668 22.56 26.8135 21.3333 26.2668 20.2133C24.8801 17.08 12.7201 19.6667 4.33348 19.7867ZM5.01348 29.9067C4.80014 30.4 4.01348 30.4933 4.08014 30.04C4.85348 25.3067 5.00014 24.2533 5.14681 23.76C5.85348 23.76 6.56014 23.68 7.25348 23.6133C6.68089 25.7691 5.93169 27.874 5.01348 29.9067ZM18.3468 26.7067C14.9735 26.4133 17.3468 26.0533 7.53348 26.7067C7.77348 25.7067 8.00014 24.6667 8.20014 23.5733C12.2001 23.2267 14.5601 23.6533 18.3868 23.4533C18.6001 24.5867 18.8268 25.6667 19.0935 26.7067C18.8539 26.754 18.6063 26.7403 18.3735 26.6667L18.3468 26.7067ZM22.5601 30.04C22.5601 30.4933 21.8401 30.3867 21.6268 29.9067C20.6782 27.792 19.9067 25.6022 19.3201 23.36H21.3735C21.3335 23.4533 21.3335 22.0267 22.5868 30.04H22.5601Z" fill="#1D1C19"/>
<path fill-rule="evenodd" clip-rule="evenodd" d="M2.10681 19.5467C2.12449 19.6492 2.18219 19.7405 2.2672 19.8005C2.35222 19.8606 2.45759 19.8843 2.56014 19.8667C2.66269 19.849 2.75402 19.7913 2.81403 19.7063C2.87404 19.6213 2.89783 19.5159 2.88014 19.4133C2.79659 17.8884 2.83226 16.3593 2.98681 14.84C2.91565 13.0852 2.99595 11.3276 3.22681 9.58666C3.54681 8.25333 3.36014 8.50666 6.18681 8.09333C8.58475 7.6457 11.0148 7.39154 13.4535 7.33333C13.5737 7.33333 13.689 7.28556 13.774 7.20055C13.859 7.11553 13.9068 7.00022 13.9068 6.87999C13.9068 6.75976 13.859 6.64445 13.774 6.55944C13.689 6.47442 13.5737 6.42666 13.4535 6.42666H12.9201C12.9856 6.38889 13.0398 6.33442 13.0773 6.26883C13.1148 6.20324 13.1342 6.12887 13.1335 6.05333C13.2047 5.36625 13.1596 4.67208 13.0001 3.99999C12.1335 0.999993 9.25348 2.49333 9.68014 6.43999C8.86681 6.43999 4.26681 6.77333 3.48014 6.98666C1.57348 7.49333 1.89348 8.58666 1.74681 9.23999C1.48542 11.0975 1.48542 12.9825 1.74681 14.84C1.74965 16.4156 1.86998 17.9889 2.10681 19.5467ZM11.5735 3.99999C12.3735 6.57333 12.3068 6.38666 12.4268 6.46666H10.7735C10.8252 5.58963 11.1006 4.74046 11.5735 3.99999Z" fill="#1D1C19"/>
<path fill-rule="evenodd" clip-rule="evenodd" d="M24.2268 14.92C24.2268 14.8139 24.1847 14.7122 24.1097 14.6371C24.0346 14.5621 23.9329 14.52 23.8268 14.52C23.7207 14.52 23.619 14.5621 23.544 14.6371C23.469 14.7122 23.4268 14.8139 23.4268 14.92C23.1397 15.443 22.9892 16.03 22.9892 16.6267C22.9892 17.2233 23.1397 17.8103 23.4268 18.3333C23.7468 19.08 24.4268 18.6 24.3735 18.3333C24.3468 16.2933 24.7601 16.9867 24.2268 14.92Z" fill="#1D1C19"/>
<path fill-rule="evenodd" clip-rule="evenodd" d="M31.7868 3.77333C31.3868 3.11999 30.7335 2.87999 28.9601 1.95999C24.3868 0.213326 24.1601 -7.39098e-06 23.8268 0.279993C23.7853 0.320929 23.7523 0.369709 23.7298 0.4235C23.7073 0.47729 23.6957 0.535017 23.6957 0.593326C23.6957 0.651635 23.7073 0.709362 23.7298 0.763152C23.7523 0.816942 23.7853 0.865723 23.8268 0.906659C25.349 1.70895 26.9211 2.41262 28.5335 3.01333C28.6401 3.09333 30.4935 4.43999 30.6001 4.46666C30.7068 4.49333 25.8935 6.73333 25.6401 6.83999C25.2499 7.12682 24.789 7.30197 24.3068 7.34666C24.1868 7.34666 17.7735 5.07999 17.2135 4.67999C17.7068 4.42666 15.4001 5.86666 22.1735 1.57333C22.2624 1.52123 22.3277 1.43684 22.3559 1.33774C22.3841 1.23864 22.373 1.13248 22.3249 1.04138C22.2768 0.950282 22.1953 0.881267 22.0976 0.848717C21.9998 0.816167 21.8933 0.822594 21.8001 0.866659L17.7201 2.91999C16.5601 3.45333 15.0535 4.17333 15.9201 5.17333C15.719 7.05074 15.6699 8.94134 15.7735 10.8267C15.4234 10.9259 15.1057 11.1159 14.8525 11.3773C14.5993 11.6387 14.4197 11.9624 14.3318 12.3155C14.2438 12.6687 14.2507 13.0388 14.3517 13.3884C14.4526 13.738 14.6441 14.0548 14.9068 14.3067C15.9735 15.48 18.1601 15.4 18.6001 13.7733C18.6946 13.4731 18.7258 13.1565 18.6919 12.8436C18.658 12.5307 18.5597 12.2282 18.4031 11.9551C18.2465 11.6821 18.0351 11.4444 17.7822 11.2571C17.5293 11.0698 17.2403 10.9368 16.9335 10.8667C17.191 9.28896 17.2448 7.68472 17.0935 6.09333C17.8135 6.49333 19.1068 6.97333 22.0668 8.14666C22.6935 8.35999 23.8001 9.18666 24.6268 8.90666C27.087 7.91207 29.4484 6.68893 31.6801 5.25333C31.8635 5.05548 31.9739 4.80108 31.9933 4.53205C32.0127 4.26302 31.9399 3.99541 31.7868 3.77333ZM17.2135 12C17.5735 12.44 17.4268 13.84 16.8135 13.8667C16.2001 13.8933 15.4801 12.8133 15.6268 12.2533C15.9068 11.2667 17.1201 11.8933 17.2135 12Z" fill="#1D1C19"/>
<path fill-rule="evenodd" clip-rule="evenodd" d="M29.0001 7.78666C28.3735 7.78666 28.5468 8.45333 28.4001 9.11999C28.2535 9.78666 27.4668 9.77333 26.5868 10.1733C25.7068 10.5733 24.8001 11.2 24.0001 11.5067C22.6707 11.1899 21.3756 10.7433 20.1335 10.1733C19.9468 9.23999 20.1335 8.73333 19.5868 8.73333C19.4807 8.73333 19.379 8.77547 19.304 8.85048C19.229 8.9255 19.1868 9.02724 19.1868 9.13333C19.1868 9.13333 19.1868 10.08 19.1868 10.4667C19.1919 10.6276 19.2588 10.7804 19.3735 10.8933C20.0668 11.6 23.3735 13.3333 24.2268 13.1067C25.292 12.7097 26.2902 12.1521 27.1868 11.4533C27.8658 11.1586 28.4884 10.748 29.0268 10.24C29.4668 9.67999 29.3735 9.17333 29.3868 8.45333C29.4274 8.38587 29.4491 8.30876 29.4497 8.23005C29.4504 8.15133 29.4299 8.07389 29.3904 8.0058C29.3509 7.93771 29.2938 7.88145 29.2252 7.84291C29.1566 7.80437 29.0788 7.78494 29.0001 7.78666Z" fill="#1D1C19"/>
</svg>
