<svg width="32" height="32" viewBox="0 0 32 32" fill="none" xmlns="http://www.w3.org/2000/svg">
<path d="M31.9999 19.48C32.1297 15.59 31.929 11.696 31.3999 7.84001C31.4208 7.56485 31.4208 7.2885 31.3999 7.01334C31.2133 6.12001 28.5333 5.68001 27.3999 5.57334C27.2958 5.56201 27.1914 5.59198 27.1091 5.6568C27.0269 5.72162 26.9733 5.81612 26.9599 5.92001C26.8933 6.80001 28.2933 5.92001 30.4399 7.25334C30.4134 8.20098 30.4894 9.14871 30.6666 10.08C30.9866 13.0667 30.8133 15.1333 30.6666 23.0667C29.0823 22.7219 27.4594 22.5874 25.8399 22.6667C22.8203 22.6457 19.8711 23.579 17.4133 25.3333C18.3199 21.8133 20.5333 20.8667 23.6533 19.7467C24.0067 19.6359 24.3765 19.5863 24.7466 19.6C24.8189 19.7636 24.9465 19.8965 25.1071 19.9752C25.2677 20.054 25.4509 20.0736 25.6245 20.0306C25.7981 19.9876 25.951 19.8847 26.0562 19.7401C26.1615 19.5955 26.2124 19.4184 26.1999 19.24C25.6933 5.76001 26.1999 3.86667 25.9866 2.61334C25.7733 1.36001 24.8666 1.21334 23.5999 1.02667C22.044 0.86351 20.4728 1.12 19.0495 1.76949C17.6263 2.41899 16.4029 3.43778 15.5066 4.72001C15.3999 4.94667 14.7733 6.33334 14.7199 6.48001C13.81 5.78487 12.7586 5.29786 11.6399 5.05334C8.76784 4.41609 5.76093 4.89262 3.2266 6.38667C2.73267 6.70753 2.30981 7.12629 1.98415 7.61707C1.65849 8.10785 1.43697 8.66021 1.33327 9.24001C0.159936 13.9867 -0.546731 15.3867 0.546603 25.48C0.546603 25.8933 0.546603 26.5333 0.946603 26.92C1.03625 26.9948 1.1412 27.0491 1.25406 27.0791C1.36693 27.109 1.48498 27.1139 1.59994 27.0933V28.12C1.77327 30.52 4.95994 29.0533 8.4666 28.76C11.3733 28.5333 11.6933 29.16 14.2666 30.6533C15.3259 31.0517 16.4739 31.1531 17.5866 30.9467C18.4986 30.8097 19.3635 30.4528 20.1066 29.9067C28.8933 23.44 28.5866 31 30.6399 25.5733C30.735 25.3254 30.7934 25.0648 30.8133 24.8C30.9167 24.868 31.0362 24.9076 31.1598 24.9149C31.2833 24.9221 31.4066 24.8968 31.5173 24.8415C31.628 24.7861 31.7223 24.7027 31.7906 24.5994C31.8589 24.4962 31.8989 24.3769 31.9066 24.2533C32.0291 22.6653 32.0603 21.0716 31.9999 19.48ZM15.8399 7.18667C19.8399 -0.333326 24.7999 2.97334 25.0133 3.18667C25.1199 3.58667 24.5199 12.6267 24.4933 13.4533L24.6133 18.0533C23.1342 18.212 21.7046 18.6783 20.4164 19.4223C19.1282 20.1663 18.0099 21.1715 17.1333 22.3733C16.4666 23.52 16.6933 23.64 16.5733 22.88C16.5466 22.7467 15.7866 7.29334 15.8399 7.18667ZM1.43994 12.9733C1.8266 11.4933 2.3066 7.73334 3.5866 7.30667C7.31994 6.05334 11.0533 5.74667 14.5199 7.64001C14.9313 8.78462 15.1169 9.9981 15.0666 11.2133C15.0666 13.9467 15.1466 22.2 15.4666 24.68C13.3441 23.7122 11.0242 23.2555 8.69327 23.3467C6.84948 23.5105 5.04647 23.9838 3.35994 24.7467C3.19994 24.7467 2.45327 25.5067 1.91994 25.8C1.91994 25.6133 1.77327 25.4 1.75994 25.2933C1.33327 21.6667 0.706603 16.8933 1.43994 12.9733ZM28.8533 26.08C25.0133 24.5467 21.9599 26.72 19.2399 28.6667C18.6586 29.0556 18.0038 29.3214 17.3159 29.4475C16.6279 29.5736 15.9214 29.5575 15.2399 29.4C10.0799 25.7467 8.07994 27.4933 3.41327 28.2C3.17327 28.2 2.9866 28.32 2.8666 28.2C2.7466 28.08 2.61327 27.3067 2.3066 26.8667C2.87994 26.5733 3.63994 26.1067 3.8266 26.0533C5.7866 25.44 7.99994 24 12.7999 25.3333C16.3466 26.2533 16.1599 27.8 17.3599 27.1467C19.1466 26.1867 21.7199 23.3067 29.7733 24.28C29.6925 24.3771 29.6498 24.5004 29.6533 24.6267C28.8666 26.04 28.9066 25.9467 28.8533 26.08Z" fill="#1D1C19"/>
<path d="M4.8666 12C6.19994 11.8133 6.09327 11.16 7.85327 11.16C8.83446 11.2312 9.80241 11.4284 10.7333 11.7467C10.9866 11.6533 11.1733 11.5467 11.1733 11.2933C11.1733 10.72 10.3733 10.1333 9.15993 9.96001C5.65327 9.30667 5.31994 10.9867 4.65327 11.2933C4.59236 11.3435 4.54765 11.4106 4.52476 11.4861C4.50187 11.5616 4.50182 11.6422 4.52462 11.7177C4.54743 11.7932 4.59206 11.8604 4.65291 11.9106C4.71377 11.9608 4.78811 11.9919 4.8666 12Z" fill="#1D1C19"/>
<path d="M4.8666 16.7067C6.19994 16.52 6.09327 15.8667 7.85327 15.8667C8.83446 15.9379 9.80241 16.1351 10.7333 16.4533C10.9866 16.3733 11.1733 16.2533 11.1733 16C11.1733 15.4267 10.3733 14.8533 9.15993 14.6667C5.65327 14.0133 5.31994 15.68 4.65327 16C4.58773 15.9933 4.52154 16.0028 4.46058 16.0278C4.39962 16.0528 4.34578 16.0925 4.30384 16.1433C4.2619 16.1941 4.23315 16.2545 4.22017 16.319C4.20718 16.3836 4.21034 16.4504 4.22938 16.5135C4.24843 16.5766 4.28275 16.634 4.32931 16.6806C4.37587 16.7272 4.43322 16.7616 4.49627 16.7807C4.55932 16.7998 4.62612 16.8031 4.69072 16.7901C4.75533 16.7772 4.81575 16.7486 4.8666 16.7067Z" fill="#1D1C19"/>
<path d="M4.8666 21.4667C6.19994 21.28 6.09327 20.6267 7.85327 20.6267C8.83342 20.7053 9.80045 20.9023 10.7333 21.2133C10.9866 21.1333 11.1733 21.0133 11.1733 20.7733C11.1733 20.1867 10.3733 19.6133 9.15993 19.44C5.65327 18.7867 5.31994 20.4667 4.65327 20.7733C4.58668 20.7642 4.51885 20.7719 4.45605 20.7959C4.39325 20.8199 4.33751 20.8593 4.29397 20.9105C4.25043 20.9618 4.22051 21.0231 4.20695 21.089C4.1934 21.1548 4.19666 21.223 4.21643 21.2872C4.2362 21.3515 4.27184 21.4097 4.32006 21.4566C4.36828 21.5034 4.42753 21.5373 4.49233 21.5552C4.55712 21.5731 4.62538 21.5743 4.6908 21.5589C4.75622 21.5434 4.81668 21.5117 4.8666 21.4667Z" fill="#1D1C19"/>
</svg>
