<svg width="32" height="32" viewBox="0 0 32 32" fill="none" xmlns="http://www.w3.org/2000/svg">
<path d="M11.4802 14.32C11.9155 14.0728 12.296 13.7396 12.5985 13.3408C12.9011 12.942 13.1194 12.4858 13.2402 12C13.363 11.5366 13.391 11.0532 13.3224 10.5787C13.2538 10.1042 13.09 9.64848 12.841 9.23883C12.592 8.82917 12.2628 8.47404 11.8731 8.19472C11.4835 7.9154 11.0415 7.71766 10.5735 7.61336C10.0151 7.45886 9.42528 7.45886 8.86688 7.61336C8.27835 7.76576 7.7323 8.05031 7.27023 8.44538C6.80816 8.84046 6.44222 9.33566 6.20021 9.89336C5.9377 10.495 5.85716 11.1603 5.96853 11.8072C6.07989 12.4541 6.3783 13.0542 6.82688 13.5334C7.42911 14.1274 8.18724 14.5389 9.01355 14.72C9.85711 14.8879 10.7329 14.7459 11.4802 14.32ZM7.48021 10.32C7.61576 9.92701 7.83673 9.56892 8.12722 9.27152C8.41771 8.97411 8.7705 8.74478 9.16021 8.60003C9.6211 8.43297 10.126 8.43297 10.5869 8.60003C10.9137 8.65627 11.223 8.78747 11.4906 8.98333C11.7583 9.17919 11.9768 9.43439 12.1293 9.72891C12.2817 10.0234 12.3638 10.3493 12.3692 10.6808C12.3745 11.0124 12.303 11.3407 12.1602 11.64C12.0594 11.9706 11.8879 12.2754 11.6577 12.5333C11.4275 12.7911 11.144 12.9958 10.8269 13.1334C10.3442 13.3023 9.81919 13.307 9.33355 13.1467C8.79835 13.0138 8.30965 12.7371 7.92021 12.3467C7.66474 12.0809 7.49117 11.7473 7.42024 11.3855C7.34931 11.0238 7.38401 10.6492 7.52021 10.3067L7.48021 10.32Z" fill="#1D1C19"/>
<path d="M10.2402 22.8934C10.5707 22.9515 10.9049 22.9871 11.2402 23C11.447 23.0138 11.6546 22.9912 11.8535 22.9334C12.1296 22.8573 12.376 22.6992 12.5602 22.48C12.8229 22.1399 13.0135 21.7497 13.1202 21.3334C13.2802 20.8 13.2802 20.2134 13.4402 19.6934C13.4832 19.4918 13.5967 19.3122 13.7602 19.1867C13.8337 19.1205 13.9205 19.0708 14.0148 19.0409C14.1091 19.011 14.2087 19.0016 14.3069 19.0134C14.9243 19.2763 15.5679 19.473 16.2269 19.6C16.5981 19.5897 16.9588 19.4741 17.2669 19.2667C17.7202 18.9253 18.1399 18.5413 18.5202 18.12C18.7794 17.8856 19.0201 17.6315 19.2402 17.36C19.398 17.1527 19.5032 16.9102 19.5469 16.6534C19.583 16.4093 19.5507 16.1601 19.4535 15.9334C19.3088 15.5971 19.1107 15.2864 18.8669 15.0134C18.5667 14.6556 18.299 14.2719 18.0669 13.8667C17.9805 13.7495 17.9223 13.6139 17.8969 13.4705C17.8715 13.3271 17.8794 13.1798 17.9202 13.04C18.0479 12.782 18.2299 12.5546 18.4535 12.3734C18.7062 12.166 18.9839 11.9913 19.2802 11.8534C19.4935 11.7467 19.7869 11.6934 20.0269 11.5734C20.2308 11.4851 20.4062 11.342 20.5335 11.16C20.7011 10.9232 20.8065 10.6482 20.8402 10.36C20.8805 10.0413 20.8805 9.71876 20.8402 9.40003L20.6535 8.26669C20.6535 8.00002 20.5735 7.66669 20.5069 7.37336C20.4734 7.19711 20.415 7.02652 20.3335 6.86669C20.194 6.60023 19.9685 6.38878 19.6935 6.26669C19.2962 6.11904 18.8773 6.03795 18.4535 6.02669C18.1554 5.99812 17.8656 5.91209 17.6002 5.77336C17.36 5.68442 17.1481 5.53243 16.9869 5.33336C16.9006 5.1342 16.8688 4.91572 16.8945 4.70021C16.9203 4.48471 17.0028 4.2799 17.1335 4.10669C17.3983 3.70073 17.5838 3.24832 17.6802 2.77336C17.7177 2.43823 17.6474 2.09987 17.4796 1.80737C17.3118 1.51488 17.0551 1.28346 16.7469 1.14669C16.2415 0.841756 15.7052 0.591458 15.1469 0.400025C14.8287 0.276782 14.4824 0.244467 14.1469 0.306691C13.1735 0.600025 12.6935 1.64002 11.8935 2.12002C11.6505 2.2697 11.3632 2.33092 11.0802 2.29336C10.8555 2.27044 10.6423 2.18239 10.4669 2.04002C10.2804 1.87781 10.1304 1.67785 10.0269 1.45336C10.0269 1.29336 9.90688 0.960025 9.80021 0.746691C9.75359 0.607513 9.67076 0.483257 9.56021 0.386691C9.28065 0.189523 8.94142 0.0952915 8.60021 0.120025C7.8189 0.2308 7.05905 0.460103 6.34688 0.800025C6.06132 0.898862 5.80959 1.07654 5.62082 1.31251C5.43205 1.54847 5.31396 1.83307 5.28021 2.13336C5.26916 2.70274 5.32736 3.27136 5.45355 3.82669C5.51202 4.01579 5.52437 4.21613 5.48958 4.41098C5.45478 4.60583 5.37385 4.78952 5.25355 4.94669C4.86688 5.36002 4.42688 5.24003 4.00021 5.10669C3.57232 4.94253 3.12349 4.8393 2.66688 4.80002C2.45764 4.79794 2.25084 4.84513 2.06322 4.93779C1.8756 5.03044 1.71242 5.16595 1.58688 5.33336C1.07607 5.91315 0.694303 6.59487 0.466881 7.33336C0.359894 7.62738 0.315311 7.94046 0.335971 8.25266C0.356631 8.56486 0.442082 8.86933 0.586881 9.14669C1.04021 9.82669 1.76021 10.1867 2.22688 10.8C2.36552 10.9841 2.45707 11.1992 2.49355 11.4267C2.51926 11.5706 2.51224 11.7184 2.473 11.8592C2.43376 12 2.36331 12.1302 2.26688 12.24C1.853 12.6727 1.40731 13.0738 0.933548 13.44C0.474708 13.8006 0.146834 14.3018 0.00021442 14.8667C-0.0596456 15.2046 -0.0178822 15.5526 0.120214 15.8667C0.384521 16.3625 0.726646 16.8126 1.13355 17.2C1.54974 17.752 1.9948 18.2817 2.46688 18.7867C2.7844 19.0988 3.18867 19.3079 3.62688 19.3867C4.40898 19.313 5.18173 19.1611 5.93355 18.9334C6.08935 18.8815 6.25775 18.8815 6.41355 18.9334C6.49749 18.9801 6.56984 19.0451 6.62523 19.1235C6.68063 19.202 6.71765 19.292 6.73355 19.3867C6.77965 20.0604 6.91874 20.7245 7.14688 21.36C7.42996 21.8211 7.85606 22.177 8.36021 22.3734C8.96189 22.6269 9.59378 22.8016 10.2402 22.8934ZM8.16021 18.7334C7.96742 18.2945 7.62805 17.9362 7.20021 17.72C6.79029 17.5073 6.3227 17.4325 5.86688 17.5067C5.20021 17.6 4.53355 18.04 3.86688 17.9867C3.69355 17.9867 3.52021 17.7867 3.33355 17.6C2.86688 17.1467 2.42688 16.5467 2.17355 16.2667C1.9487 16.0505 1.73929 15.8188 1.54688 15.5734C1.44021 15.4134 1.32021 15.2534 1.36021 15.0934C1.45946 14.7142 1.69123 14.3831 2.01355 14.16C2.49974 13.809 2.94676 13.4067 3.34688 12.96C3.54574 12.7151 3.6863 12.4282 3.75791 12.121C3.82952 11.8138 3.83031 11.4943 3.76021 11.1867C3.68958 10.7657 3.51035 10.3705 3.24021 10.04C2.66688 9.49336 1.96021 9.17336 1.52021 8.52003C1.32021 8.24002 1.44021 7.77336 1.60021 7.32002C1.76252 6.83511 2.01094 6.38344 2.33355 5.98669C2.54688 5.76002 2.81355 5.82669 3.09355 5.89336C3.56007 6.05626 4.0429 6.16803 4.53355 6.22669C4.79852 6.24032 5.06302 6.19198 5.30605 6.08551C5.54907 5.97904 5.76392 5.81738 5.93355 5.61336C6.12287 5.39419 6.26163 5.13603 6.33998 4.8572C6.41833 4.57838 6.43434 4.28573 6.38688 4.00002C6.24437 3.42319 6.15951 2.83363 6.13355 2.24002C6.14871 2.08614 6.20672 1.9396 6.301 1.81704C6.39527 1.69448 6.52204 1.60081 6.66688 1.54669C7.25538 1.32841 7.86225 1.16331 8.48021 1.05336C8.62847 1.01181 8.78529 1.01181 8.93355 1.05336C8.9537 1.28878 9.02661 1.51664 9.14688 1.72002C9.298 2.09081 9.53575 2.41999 9.84021 2.68002C10.1547 2.95449 10.5454 3.12658 10.9602 3.17336C11.4685 3.25954 11.9908 3.15508 12.4269 2.88002C13.1469 2.44002 13.5602 1.48002 14.4402 1.24002C14.6002 1.24002 14.8935 1.34669 15.2002 1.48002C15.5283 1.62447 15.8447 1.79386 16.1469 1.98669C16.4402 2.18669 16.5735 2.33336 16.5469 2.53336C16.4022 3.0007 16.2007 3.44849 15.9469 3.86669C15.7753 4.1817 15.6855 4.53467 15.6855 4.89336C15.6855 5.25205 15.7753 5.60502 15.9469 5.92002C16.1505 6.26629 16.4339 6.55886 16.7735 6.77336C17.2418 7.05876 17.7637 7.24483 18.3069 7.32002L19.1602 7.46669L19.3602 8.57336L19.4935 9.57336C19.5072 9.75978 19.5072 9.94694 19.4935 10.1334C19.4872 10.2271 19.4599 10.3183 19.4135 10.4L18.6669 10.6667C18.1777 10.8858 17.7274 11.1831 17.3335 11.5467C17.0452 11.8191 16.8061 12.1394 16.6269 12.4934C16.505 12.7707 16.442 13.0704 16.442 13.3734C16.442 13.6763 16.505 13.976 16.6269 14.2534C16.9029 14.8794 17.2665 15.4631 17.7069 15.9867L18.0535 16.52L17.4935 17.1067C17.2802 17.3067 17.0135 17.6134 16.7202 17.8667C16.4269 18.12 16.4269 18.1467 16.2535 18.1467C15.9229 18.109 15.6044 17.9998 15.3202 17.8267C14.9519 17.6556 14.5528 17.5604 14.1469 17.5467C13.6605 17.561 13.1921 17.7343 12.8135 18.04C12.4847 18.2833 12.2269 18.6102 12.0669 18.9867C11.8794 19.6347 11.7325 20.2938 11.6269 20.96C11.5583 21.1492 11.4735 21.3321 11.3735 21.5067L10.4535 21.3334C10.0424 21.2922 9.63608 21.2119 9.24021 21.0934C8.97649 21.0462 8.73926 20.9039 8.57355 20.6934C8.45428 20.3918 8.39102 20.071 8.38688 19.7467C8.35805 19.4001 8.28178 19.0592 8.16021 18.7334Z" fill="#1D1C19"/>
<path d="M21.0269 16.48C21.5198 16.8178 21.919 17.275 22.1871 17.809C22.4553 18.343 22.5837 18.9363 22.5602 19.5334C22.5607 19.9886 22.4794 20.4402 22.3202 20.8667C22.1323 21.4873 21.7246 22.0182 21.1735 22.36C20.5795 22.7134 19.8881 22.8676 19.2002 22.8C18.8743 22.8026 18.5536 22.7173 18.272 22.5531C17.9905 22.3888 17.7584 22.1517 17.6002 21.8667C17.5595 21.7518 17.4749 21.6577 17.3649 21.6052C17.2549 21.5527 17.1285 21.546 17.0135 21.5867C16.8986 21.6274 16.8046 21.712 16.752 21.822C16.6995 21.9321 16.6929 22.0584 16.7335 22.1734C16.8735 22.565 17.1032 22.9185 17.4041 23.2056C17.7051 23.4927 18.069 23.7054 18.4669 23.8267C19.5998 24.2063 20.8348 24.1395 21.9202 23.64C22.6639 23.2299 23.2536 22.5887 23.6002 21.8134C23.9412 21.0716 24.0792 20.2526 24.0002 19.44C23.9262 18.6456 23.6394 17.8859 23.1702 17.2407C22.7009 16.5954 22.0665 16.0886 21.3335 15.7734C21.2866 15.7411 21.2333 15.7192 21.1773 15.7091C21.1212 15.6991 21.0636 15.7011 21.0084 15.7151C20.9532 15.7291 20.9016 15.7548 20.8571 15.7903C20.8126 15.8259 20.7762 15.8705 20.7504 15.9213C20.7245 15.972 20.7098 16.0277 20.7072 16.0846C20.7046 16.1415 20.7142 16.1983 20.7353 16.2512C20.7564 16.3041 20.7886 16.3519 20.8297 16.3914C20.8708 16.4308 20.9198 16.4611 20.9735 16.48H21.0269Z" fill="#1D1C19"/>
<path d="M29.6402 21.52C30.2457 21.2423 30.8257 20.9122 31.3735 20.5334C31.6055 20.2852 31.7815 19.9901 31.8896 19.6681C31.9977 19.346 32.0354 19.0046 32.0002 18.6667C31.8193 17.3808 31.3646 16.1486 30.6669 15.0534C30.4755 14.7022 30.1764 14.4217 29.8135 14.2534C29.3176 14.0599 28.784 13.9824 28.2535 14.0267C27.999 14.0655 27.7388 14.0447 27.4936 13.966C27.2484 13.8874 27.0248 13.753 26.8402 13.5734C26.7629 13.4852 26.707 13.3804 26.6769 13.267C26.6468 13.1537 26.6434 13.0349 26.6669 12.92C26.7959 12.348 26.8938 11.7693 26.9602 11.1867C26.9656 10.7821 26.8739 10.3822 26.693 10.0203C26.512 9.65843 26.2471 9.34515 25.9202 9.10669C25.0074 8.52235 23.9617 8.17835 22.8802 8.10669C22.8276 8.0992 22.7741 8.10227 22.7227 8.1157C22.6713 8.12914 22.623 8.15268 22.5808 8.18495C22.5386 8.21723 22.5033 8.25758 22.4769 8.30367C22.4504 8.34975 22.4334 8.40064 22.4269 8.45336C22.4194 8.50596 22.4225 8.55952 22.4359 8.61092C22.4493 8.66232 22.4729 8.71052 22.5051 8.75273C22.5374 8.79493 22.5778 8.83028 22.6239 8.85671C22.6699 8.88315 22.7208 8.90014 22.7735 8.90669C23.6976 8.98035 24.5877 9.28776 25.3602 9.80002C25.5631 9.95733 25.7265 10.1597 25.8376 10.3911C25.9487 10.6226 26.0044 10.8767 26.0002 11.1334C26.0002 11.7734 25.6269 12.4667 25.6402 13.1067C25.6407 13.5132 25.7874 13.906 26.0535 14.2134C26.2748 14.5 26.5697 14.7212 26.9069 14.8534C27.3938 15.0299 27.909 15.1158 28.4269 15.1067C28.8935 15.1067 29.3602 15.1067 29.6402 15.6C30.1239 16.423 30.4706 17.3191 30.6669 18.2534C30.7469 18.76 30.7735 19.2534 30.4669 19.5867C30.1602 19.92 28.9335 20.2534 28.3602 20.72C28.0714 20.9424 27.8687 21.2582 27.7869 21.6134C27.7283 21.8668 27.7304 22.1306 27.7929 22.3831C27.8555 22.6356 27.9768 22.8699 28.1469 23.0667C28.4205 23.3681 28.7243 23.6406 29.0535 23.88C29.2402 24.0134 29.4402 24.12 29.4935 24.2934L29.1869 25C28.8209 25.6104 28.4248 26.2022 28.0002 26.7734C27.7901 27.0777 27.5388 27.3514 27.2535 27.5867L26.8002 27.44C26.1347 27.0404 25.4393 26.6927 24.7202 26.4C24.4641 26.3193 24.1931 26.2977 23.9275 26.337C23.6619 26.3762 23.4086 26.4753 23.1869 26.6267C22.8374 26.8618 22.5604 27.1896 22.3869 27.5734C22.1957 28.1446 22.066 28.7346 22.0002 29.3334C22.0002 29.64 21.9069 29.9334 21.5869 30.0267C21.2409 30.1178 20.8889 30.1846 20.5335 30.2267C19.9602 30.2934 19.3735 30.3067 18.7869 30.36L18.0535 30.4667C17.863 30.2012 17.7229 29.9029 17.6402 29.5867C17.4845 29.0596 17.2556 28.5569 16.9602 28.0934C16.7943 27.8565 16.5825 27.6555 16.3375 27.502C16.0924 27.3485 15.819 27.2459 15.5335 27.2C15.1268 27.1216 14.7054 27.1926 14.3469 27.4C13.9169 27.688 13.5495 28.0599 13.2669 28.4934C13.0135 28.8134 12.7869 29.1867 12.2802 28.9867C12.0113 28.8657 11.7527 28.723 11.5069 28.56C10.8535 28.12 10.2669 27.5734 9.62688 27.1467C9.44021 27.0267 9.13355 26.8667 8.88021 26.6934C8.78163 26.6353 8.69553 26.5582 8.62688 26.4667C8.50688 26.1867 8.76021 25.8 9.01355 25.4267C9.27192 25.0231 9.60717 24.6742 10.0002 24.4C10.0523 24.3698 10.0978 24.3294 10.1341 24.2814C10.1704 24.2334 10.1967 24.1786 10.2116 24.1202C10.2265 24.0619 10.2297 24.0012 10.2208 23.9416C10.212 23.8821 10.1914 23.8249 10.1602 23.7734C10.1313 23.7218 10.0922 23.6765 10.0453 23.6404C9.99849 23.6042 9.94483 23.5779 9.88757 23.5629C9.83031 23.548 9.77063 23.5448 9.71209 23.5534C9.65355 23.5621 9.59736 23.5825 9.54688 23.6134C8.90902 24.0245 8.37873 24.5823 8.00021 25.24C7.8225 25.4772 7.7013 25.7519 7.64584 26.043C7.59039 26.3341 7.60214 26.6341 7.68021 26.92C7.78143 27.1233 7.92729 27.3011 8.10688 27.44C8.38688 27.68 8.78688 27.8934 9.00021 28.0534C9.64021 28.4934 10.2002 29.0667 10.8402 29.5067C11.1412 29.7314 11.468 29.9194 11.8135 30.0667C12.1772 30.2489 12.5963 30.287 12.9869 30.1734C13.5261 29.9759 13.9916 29.6175 14.3202 29.1467C14.5869 28.8 14.8269 28.3734 15.3335 28.4667C15.4583 28.4909 15.5769 28.54 15.6823 28.611C15.7876 28.682 15.8776 28.7735 15.9469 28.88C16.1971 29.3437 16.3897 29.8362 16.5202 30.3467C16.6632 30.823 16.9194 31.2576 17.2669 31.6134C17.4287 31.7526 17.6283 31.8408 17.8402 31.8667C18.1976 31.8769 18.555 31.85 18.9069 31.7867C19.5202 31.7867 20.1069 31.7867 20.7069 31.6934C21.1563 31.6575 21.6021 31.5862 22.0402 31.48C22.4896 31.3785 22.8845 31.112 23.1469 30.7334C23.4208 30.241 23.5845 29.6951 23.6269 29.1334C23.6935 28.6667 23.7069 28.16 24.1202 27.88C24.2669 27.7734 24.4402 27.88 24.6269 27.9467C25.2402 28.2 25.8669 28.68 26.3069 28.8667C26.6273 29.0118 26.9699 29.102 27.3202 29.1334C27.5608 29.1293 27.7957 29.0602 28.0002 28.9334C28.4777 28.5896 28.8965 28.1709 29.2402 27.6934C29.7202 27.0267 30.1469 26.2534 30.4669 25.72C30.699 25.3528 30.8617 24.946 30.9469 24.52C30.9985 24.2479 30.9755 23.9668 30.8802 23.7067C30.8199 23.5405 30.7295 23.3868 30.6135 23.2534C30.3317 22.9415 30.0139 22.664 29.6669 22.4267C29.5239 22.3383 29.3938 22.2306 29.2802 22.1067C29.2458 22.0771 29.2183 22.0402 29.1999 21.9987C29.1814 21.9572 29.1724 21.9121 29.1735 21.8667C29.2135 21.6934 29.4402 21.6267 29.6402 21.52Z" fill="#1D1C19"/>
</svg>
