<svg width="32" height="32" viewBox="0 0 32 32" fill="none" xmlns="http://www.w3.org/2000/svg">
<path fill-rule="evenodd" clip-rule="evenodd" d="M11.1732 8.80001C12.5065 7.61334 13.9999 6.52001 15.4132 5.42667C15.5075 5.35509 15.5701 5.24946 15.5875 5.13235C15.605 5.01524 15.5759 4.89596 15.5065 4.80001C15.435 4.7057 15.3293 4.64313 15.2122 4.62569C15.0951 4.60825 14.9758 4.63732 14.8799 4.70667C13.3999 5.73334 11.8799 6.77334 10.4265 7.90667C9.43867 8.65523 8.50316 9.47046 7.62653 10.3467L6.06653 12C5.89611 12.1594 5.73996 12.3334 5.59987 12.52C5.54369 12.5982 5.50408 12.6869 5.48344 12.781C5.46281 12.875 5.46159 12.9722 5.47987 13.0667C5.49326 13.1714 5.52725 13.2725 5.57988 13.364C5.63252 13.4555 5.70275 13.5357 5.78653 13.6C6.03164 13.7544 6.29618 13.8754 6.5732 13.96C6.9108 14.0584 7.2617 14.1034 7.6132 14.0933C8.0532 14.0933 8.47987 14.0267 8.94653 13.9867C10.6399 13.7867 12.3732 13.5733 14.0932 13.48C15.2209 13.4067 16.3522 13.4067 17.4799 13.48H21.9465L23.3732 13.5467H23.8132C23.9859 13.567 24.1605 13.567 24.3332 13.5467C24.4578 13.5115 24.5706 13.4435 24.6598 13.3496C24.749 13.2557 24.8112 13.1396 24.8399 13.0133C24.8703 12.8893 24.8665 12.7593 24.829 12.6372C24.7914 12.5151 24.7214 12.4055 24.6265 12.32C23.9065 11.64 23.1465 10.9867 22.3999 10.3733C21.2799 9.45334 20.1332 8.56001 18.9999 7.62667C18.4799 7.20001 18.0265 6.66667 17.5332 6.20001C17.2964 5.98122 17.0471 5.77643 16.7865 5.58667C16.7269 5.54002 16.6581 5.50659 16.5845 5.48861C16.511 5.47063 16.4345 5.4685 16.3601 5.48237C16.2857 5.49625 16.2151 5.5258 16.153 5.56907C16.0908 5.61235 16.0387 5.66834 15.9999 5.73334C15.9613 5.78761 15.9339 5.84895 15.919 5.91384C15.9042 5.97873 15.9023 6.04591 15.9134 6.11154C15.9246 6.17716 15.9486 6.23995 15.984 6.29631C16.0194 6.35267 16.0656 6.4015 16.1199 6.44001C16.3398 6.60411 16.545 6.78702 16.7332 6.98667C17.2265 7.48001 17.6799 8.05334 18.1999 8.52001C19.2799 9.49334 20.3999 10.4267 21.4799 11.4L22.0932 11.9733H21.8799L17.5465 11.84C16.3481 11.7533 15.145 11.7533 13.9465 11.84C12.1732 11.9467 10.4265 12.1867 8.6932 12.4133C8.34653 12.4133 7.95987 12.5467 7.58653 12.5733L8.6132 11.32C9.41555 10.4297 10.2704 9.58823 11.1732 8.80001Z" fill="#1D1C19"/>
<path fill-rule="evenodd" clip-rule="evenodd" d="M31.8932 14.9333C30.2563 12.5413 28.3456 10.3486 26.1999 8.40001C24.927 7.23914 23.5917 6.14862 22.1999 5.13334C20.0799 3.60001 17.8799 2.22667 15.7865 0.826673C15.6132 0.69334 15.1865 0.440006 8.54653 5.65334C7.66653 6.34667 6.82653 7.08001 5.98653 7.84001C5.5732 8.25334 5.14653 8.65334 4.7332 9.09334C3.14653 10.7867 1.7332 12.6267 0.133201 14.32C0.0485233 14.405 0.000976563 14.52 0.000976562 14.64C0.000976562 14.76 0.0485233 14.875 0.133201 14.96C0.219784 15.0416 0.334247 15.087 0.453201 15.087C0.572154 15.087 0.686618 15.0416 0.773201 14.96L7.14653 9.09334L15.4532 1.89334C15.4532 1.89334 15.4532 1.81334 15.5199 1.76001C17.7065 3.54667 19.9065 5.40001 22.1865 7.24001C23.7199 8.49334 25.2665 9.70667 26.7199 11.0267C28.3057 12.4077 29.7772 13.9149 31.1199 15.5333C31.1539 15.5985 31.2016 15.6554 31.2598 15.7003C31.318 15.7451 31.3853 15.7767 31.4569 15.793C31.5286 15.8092 31.6029 15.8097 31.6747 15.7944C31.7466 15.7791 31.8142 15.7483 31.873 15.7042C31.9318 15.6601 31.9803 15.6038 32.0151 15.5391C32.0499 15.4744 32.0703 15.4029 32.0748 15.3296C32.0792 15.2563 32.0677 15.1829 32.0409 15.1144C32.0142 15.046 31.9729 14.9842 31.9199 14.9333H31.8932Z" fill="#1D1C19"/>
<path fill-rule="evenodd" clip-rule="evenodd" d="M30.3732 15.36C28.7065 15.4667 27.0265 15.4533 25.3599 15.36C22.8132 15.2667 20.3065 15.0533 17.7465 14.92H11.1999C7.9332 15.0533 4.67987 15.3867 1.4132 15.7333C1.29531 15.7402 1.18476 15.7928 1.10507 15.88C1.02539 15.9672 0.98286 16.082 0.986534 16.2C0.996757 16.3215 1.05409 16.4341 1.14629 16.5138C1.23848 16.5936 1.3582 16.6341 1.47987 16.6267H2.35987C2.28765 17.0814 2.31081 17.5462 2.42787 17.9915C2.54494 18.4368 2.75335 18.8529 3.03987 19.2133C3.1332 19.3067 3.27987 19.3333 3.38653 19.4133C3.2532 20.0933 3.11987 20.7467 3.03987 21.48C3.0199 21.8353 3.0199 22.1914 3.03987 22.5467C3.05054 22.9037 3.0817 23.2599 3.1332 23.6133C3.22653 24.4533 3.38653 25.2533 3.54653 26.08C3.2536 26.2119 2.99729 26.4133 2.79987 26.6667C2.4985 27.1066 2.33595 27.6268 2.3332 28.16C2.35826 28.7989 2.4704 29.4314 2.66653 30.04C2.66653 30.04 2.66653 30.1467 2.74653 30.2L1.3332 30.2933C1.26808 30.282 1.20128 30.2851 1.13748 30.3024C1.07368 30.3196 1.01442 30.3506 0.963854 30.3931C0.913287 30.4357 0.872635 30.4888 0.844746 30.5487C0.816858 30.6086 0.802408 30.6739 0.802408 30.74C0.802408 30.8061 0.816858 30.8714 0.844746 30.9313C0.872635 30.9912 0.913287 31.0443 0.963854 31.0869C1.01442 31.1294 1.07368 31.1604 1.13748 31.1776C1.20128 31.1949 1.26808 31.198 1.3332 31.1867H20.1199C23.4932 31.12 26.8799 31.04 30.2532 31C30.3191 31.0018 30.3847 30.9903 30.4461 30.9664C30.5075 30.9424 30.5635 30.9063 30.6107 30.8603C30.6579 30.8143 30.6955 30.7593 30.7211 30.6986C30.7467 30.6379 30.7599 30.5726 30.7599 30.5067C30.76 30.3733 30.7089 30.2449 30.6171 30.1481C30.5253 30.0513 30.3998 29.9935 30.2665 29.9867H29.5999V29.84C29.7138 29.0798 29.7138 28.3069 29.5999 27.5467C29.507 27.1064 29.2729 26.7085 28.9332 26.4133C28.7439 26.2477 28.521 26.1249 28.2799 26.0533C28.1692 26.0394 28.0572 26.0394 27.9465 26.0533C28.0399 25.3333 28.1599 24.64 28.2399 23.92C28.2399 23.5867 28.3199 23.2533 28.3332 22.92C28.3465 22.5867 28.3332 22.2667 28.3332 21.9333C28.3332 21.32 28.2265 20.7333 28.1465 20.1467H28.4799C28.8359 20.0421 29.1549 19.8387 29.3999 19.56C29.7104 19.129 29.8992 18.6224 29.9465 18.0933C29.9782 17.5769 29.9558 17.0585 29.8799 16.5467H30.4132C30.4793 16.5417 30.5437 16.5235 30.6026 16.4931C30.6615 16.4626 30.7137 16.4207 30.756 16.3696C30.7983 16.3186 30.8299 16.2596 30.8489 16.1961C30.8679 16.1326 30.8739 16.0659 30.8665 16C30.8902 15.9243 30.8953 15.8441 30.8813 15.766C30.8674 15.688 30.8348 15.6144 30.7864 15.5516C30.738 15.4888 30.6752 15.4386 30.6032 15.4053C30.5313 15.3719 30.4524 15.3564 30.3732 15.36ZM18.5465 16.6933C18.5432 16.9701 18.5209 17.2463 18.4799 17.52C18.4412 17.8609 18.2913 18.1796 18.0532 18.4267C17.9599 18.52 17.8132 18.4267 17.6665 18.5067C17.2673 18.5413 16.8658 18.5413 16.4665 18.5067C15.9763 18.5179 15.486 18.4911 14.9999 18.4267C14.7532 18.4085 14.5128 18.3405 14.2932 18.2267C13.8997 17.8067 13.6764 17.2554 13.6665 16.68H17.6665L18.5465 16.6933ZM16.9332 23.7867C16.9999 24.4933 17.1332 25.12 17.2265 25.8667H15.0532V25.7467C15.0532 24.9867 15.1732 24.24 15.2132 23.48V21.56C15.2132 21.24 15.0799 20.56 14.9999 20.0667C15.4751 20.1547 15.9567 20.2037 16.4399 20.2133H17.0399C16.9599 20.8 16.8665 21.3733 16.8399 21.96C16.82 22.2752 16.82 22.5914 16.8399 22.9067C16.8532 23.16 16.8932 23.48 16.9332 23.7867ZM7.99987 16.5733H8.27987C8.27913 16.8817 8.25237 17.1895 8.19987 17.4933C8.16122 17.8343 8.01126 18.1529 7.7732 18.4C7.67987 18.4933 7.5332 18.4 7.38653 18.48C6.99174 18.5147 6.59466 18.5147 6.19987 18.48C5.70521 18.4916 5.2104 18.4648 4.71987 18.4C4.4663 18.3774 4.22065 18.3001 3.99987 18.1733C3.6012 17.7675 3.37641 17.2222 3.3732 16.6533C4.90653 16.6133 6.43987 16.5733 7.99987 16.5733ZM4.67987 21.52C4.67987 21 4.54653 20.4933 4.46653 19.9867C5.01842 20.1063 5.58185 20.1644 6.14653 20.16H7.19987C7.10653 20.72 6.99987 21.2933 6.94653 21.8667C6.92657 22.2264 6.92657 22.5869 6.94653 22.9467V24.0267C6.94653 24.6667 7.07987 25.36 7.14653 25.92H6.87987C6.0988 25.8599 5.31427 25.8599 4.5332 25.92C4.5332 25.1733 4.63987 24.44 4.67987 23.6933V22.64C4.67987 22.28 4.70653 21.8667 4.67987 21.52ZM3.4932 29.9067C3.46221 29.4628 3.46221 29.0172 3.4932 28.5733C3.51767 28.2405 3.65394 27.9257 3.87987 27.68C4.0932 27.48 4.39987 27.52 4.74653 27.4933C5.4532 27.4933 6.2532 27.4933 6.83987 27.56H7.79987C7.99548 27.7024 8.13285 27.9108 8.18653 28.1467C8.28906 28.7059 8.35144 29.2718 8.3732 29.84C6.71987 29.9467 5.06653 30.04 3.42653 30.1867C3.47609 30.102 3.4993 30.0046 3.4932 29.9067ZM11.3999 29.5867C10.7332 29.5867 10.0665 29.6933 9.39987 29.7333C9.50003 28.99 9.50003 28.2366 9.39987 27.4933C9.30695 27.0531 9.07288 26.6551 8.7332 26.36C8.60057 26.2532 8.45213 26.1678 8.2932 26.1067C8.39987 25.4 8.50653 24.7733 8.55987 23.9867V21.8267C8.55987 21.1333 8.3732 20.4933 8.26653 19.7733C8.47855 19.6904 8.67305 19.5683 8.83987 19.4133C9.15039 18.9824 9.33921 18.4758 9.38653 17.9467C9.42512 17.5031 9.42512 17.0569 9.38653 16.6133H12.6665C12.5809 17.0806 12.5973 17.5608 12.7146 18.0211C12.832 18.4814 13.0476 18.9109 13.3465 19.28C13.5276 19.4222 13.7301 19.5347 13.9465 19.6133C13.7848 20.2441 13.6689 20.8858 13.5999 21.5333C13.5733 21.8617 13.5733 22.1917 13.5999 22.52C13.6156 22.8552 13.6512 23.1891 13.7065 23.52C13.8133 24.2872 13.9602 25.0482 14.1465 25.8C14.1465 25.8 14.1465 25.8933 14.1465 25.9467C13.6721 26.0421 13.2443 26.296 12.9332 26.6667C12.6318 27.1066 12.4693 27.6268 12.4665 28.16C12.4768 28.6102 12.5394 29.0576 12.6532 29.4933L11.3999 29.5867ZM13.6265 29.5867C13.6068 29.2492 13.6068 28.9108 13.6265 28.5733C13.6456 28.2392 13.7826 27.9226 14.0132 27.68C14.2265 27.48 14.5332 27.52 14.8799 27.4933C15.5865 27.4933 16.3865 27.4933 16.9732 27.56H17.9332C18.1288 27.7024 18.2662 27.9108 18.3199 28.1467C18.4177 28.6162 18.4713 29.0938 18.4799 29.5733H15.8132L13.6265 29.5867ZM19.5465 29.5867C19.6463 28.9059 19.6463 28.2141 19.5465 27.5333C19.4536 27.0931 19.2195 26.6951 18.8799 26.4C18.7045 26.2392 18.4947 26.1206 18.2665 26.0533C18.3599 25.3067 18.4799 24.56 18.5332 23.8V22.84C18.5332 22.52 18.5332 22.2 18.4532 21.88C18.3599 21.2667 18.1999 20.68 18.0532 20.08H18.1999C18.5613 19.9792 18.8856 19.7753 19.1332 19.4933C19.4451 19.0642 19.6299 18.5559 19.6665 18.0267C19.71 17.5833 19.71 17.1367 19.6665 16.6933H22.9732C22.8689 17.4595 23.0238 18.2386 23.4132 18.9067C23.2652 19.6822 23.1628 20.4658 23.1065 21.2533V22.3733C23.1065 22.7467 23.1065 23.1067 23.1865 23.48C23.2799 24.3467 23.4265 25.1867 23.5199 26.0533C23.5199 26.12 23.5199 26.16 23.5999 26.2267C23.3975 26.3408 23.2205 26.4951 23.0799 26.68C22.7785 27.1199 22.6159 27.6401 22.6132 28.1733C22.6228 28.6727 22.69 29.1693 22.8132 29.6533L20.1465 29.5467L19.5465 29.5867ZM28.4532 28.1467C28.5558 28.7104 28.6182 29.2807 28.6399 29.8533C28.6399 29.8533 28.6399 29.8533 28.6399 29.9467L23.7065 29.7333C23.6802 29.3471 23.6802 28.9596 23.7065 28.5733C23.7256 28.2392 23.8626 27.9226 24.0932 27.68C24.3065 27.48 24.6132 27.52 24.9599 27.4933C25.6665 27.4933 26.4665 27.4933 27.0532 27.56H28.0132C28.2211 27.6831 28.3774 27.8773 28.4532 28.1067V28.1467ZM26.6665 23.7733C26.6665 24.4667 26.7999 25.1067 26.8932 25.8267C26.1 25.7403 25.2997 25.7403 24.5065 25.8267C24.5999 25.0267 24.6932 24.2267 24.7465 23.4133V22.3067C24.7465 21.9467 24.7465 21.56 24.6799 21.2C24.6132 20.84 24.5332 20.1867 24.4399 19.6933C24.5866 19.7931 24.7429 19.878 24.9065 19.9467C25.4972 20.0788 26.1013 20.1414 26.7065 20.1333H27.0532C26.9332 20.6533 26.7999 21.1867 26.7065 21.7333C26.7065 22.0711 26.6799 22.4044 26.6265 22.7333C26.6665 23.0933 26.6665 23.4267 26.6665 23.7733ZM28.7732 17.4933C28.7226 17.8307 28.5743 18.1459 28.3465 18.4C28.2532 18.4933 28.0932 18.4 27.9465 18.48C27.5517 18.5147 27.1547 18.5147 26.7599 18.48C26.2823 18.4796 25.8055 18.444 25.3332 18.3733C25.0908 18.3553 24.8547 18.2872 24.6399 18.1733C24.4412 17.9808 24.2825 17.7509 24.1727 17.497C24.0629 17.2431 24.0041 16.97 23.9999 16.6933H25.3332C26.5065 16.6933 27.6799 16.56 28.8532 16.4533C28.8618 16.8009 28.844 17.1485 28.7999 17.4933H28.7732Z" fill="#1D1C19"/>
</svg>
