<svg width="32" height="32" viewBox="0 0 32 32" fill="none" xmlns="http://www.w3.org/2000/svg">
<path d="M13.533 14.8933C13.891 15.1605 14.2651 15.4054 14.653 15.6267C14.9119 15.7614 15.2015 15.8257 15.493 15.8133C15.988 15.7442 16.4517 15.5309 16.8264 15.2C17.2314 14.8469 17.5898 14.4436 17.893 14C19.0787 14.3123 20.3214 14.3397 21.5197 14.08C22.0551 13.9893 22.5524 13.7441 22.9503 13.3746C23.3483 13.005 23.6296 12.5273 23.7597 12C23.7921 11.8091 23.7491 11.6131 23.6397 11.4533C23.4355 11.1962 23.1979 10.9675 22.933 10.7733L20.933 8.94668C20.3597 8.44001 19.7997 7.92001 19.2397 7.40001C17.9064 6.18668 16.573 4.93335 15.373 3.66668C15.074 3.37452 14.7481 3.11114 14.3997 2.88001C14.14 2.71725 13.8566 2.5958 13.5597 2.52001C13.3237 2.46142 13.0826 2.4257 12.8397 2.41335C12.7445 2.41744 12.6515 2.44367 12.5682 2.48996C12.4849 2.53625 12.4135 2.60132 12.3597 2.68001C11.9627 3.29998 11.7119 4.00214 11.6264 4.73335C11.5469 5.77896 11.6737 6.83 11.9997 7.82668C11.9997 7.82668 10.9997 8.48001 10.5464 8.89335C10.2969 9.12079 10.1127 9.4108 10.013 9.73335C9.92463 10.1996 9.93845 10.6795 10.0535 11.1399C10.1686 11.6003 10.3823 12.0302 10.6797 12.4C11.484 13.3855 12.4486 14.2285 13.533 14.8933ZM11.3997 9.40001C11.7256 9.06719 12.0682 8.75122 12.4264 8.45335C12.5718 8.38639 12.6852 8.26524 12.7425 8.11577C12.7998 7.96629 12.7964 7.80034 12.733 7.65335C12.5476 6.89472 12.4712 6.11352 12.5064 5.33335C12.559 4.72242 12.7457 4.13061 13.053 3.60001C13.3348 3.68902 13.6038 3.81453 13.853 3.97335C14.0661 4.15513 14.2665 4.35113 14.453 4.56001C15.333 5.50668 16.213 6.46668 17.1197 7.37335C18.0264 8.28001 19.013 9.16001 19.9997 10.04C19.9997 10.04 22.3597 11.92 22.5064 12.0133C22.4053 12.2675 22.2468 12.4949 22.0432 12.6776C21.8397 12.8603 21.5966 12.9935 21.333 13.0667C20.2035 13.3817 19.0092 13.3817 17.8797 13.0667C17.8263 13.0478 17.7697 13.0398 17.7132 13.043C17.6567 13.0462 17.6014 13.0607 17.5505 13.0855C17.4996 13.1103 17.4542 13.145 17.4169 13.1876C17.3795 13.2301 17.351 13.2797 17.333 13.3333C17.3208 13.3905 17.3208 13.4496 17.333 13.5067C17.0395 13.8413 16.7084 14.1411 16.3464 14.4C16.1183 14.5704 15.8441 14.668 15.5597 14.68C15.4397 14.68 15.3464 14.5733 15.2397 14.4933C14.9197 14.2667 14.6264 13.9733 14.413 13.8C13.437 13.1903 12.5488 12.4501 11.773 11.6C11.3265 11.1596 11.0725 10.5604 11.0664 9.93335C11.1221 9.72644 11.2381 9.54079 11.3997 9.40001Z" fill="#1D1C19"/>
<path d="M21.0397 4.00001C20.7274 3.74895 20.3761 3.55076 19.9997 3.41335C19.1914 3.16699 18.328 3.16699 17.5197 3.41335C17.4207 3.42926 17.332 3.48385 17.2733 3.56512C17.2145 3.64638 17.1904 3.74767 17.2064 3.84668C17.2223 3.94569 17.2769 4.03433 17.3581 4.09309C17.4394 4.15185 17.5407 4.17593 17.6397 4.16001C18.2837 4.19233 18.9104 4.37988 19.4664 4.70668C19.698 4.82867 19.9208 4.96678 20.133 5.12001C20.517 5.32422 20.8416 5.62433 21.0753 5.99115C21.3089 6.35798 21.4436 6.77903 21.4664 7.21335C21.4551 7.32806 21.4893 7.4426 21.5616 7.53236C21.6339 7.62212 21.7386 7.67993 21.853 7.69335C21.9648 7.69784 22.0743 7.66084 22.1605 7.58946C22.2466 7.51807 22.3033 7.41736 22.3197 7.30668C22.4248 6.81187 22.4146 6.29949 22.2897 5.80929C22.1648 5.31908 21.9287 4.86423 21.5997 4.48001C21.4339 4.29719 21.2457 4.13593 21.0397 4.00001Z" fill="#1D1C19"/>
<path d="M17.213 1.12001C18.3496 0.969483 19.5045 1.18923 20.5064 1.74668C20.9474 1.9571 21.371 2.20232 21.773 2.48001C22.175 2.74508 22.5501 3.04874 22.893 3.38668C23.3069 3.74162 23.6329 4.18752 23.8457 4.68946C24.0585 5.19141 24.1523 5.73579 24.1197 6.28001C24.1034 6.39255 24.13 6.50711 24.1942 6.60096C24.2584 6.69481 24.3556 6.7611 24.4664 6.78668C24.5777 6.80604 24.6923 6.78041 24.7848 6.71541C24.8772 6.65041 24.9402 6.55136 24.9597 6.44001C25.119 5.73674 25.1052 5.00529 24.9194 4.30853C24.7336 3.61178 24.3814 2.97057 23.893 2.44001C23.5047 1.98177 23.0562 1.57812 22.5597 1.24001C22.0728 0.913225 21.5492 0.644721 20.9997 0.440013C19.7156 -0.0478348 18.3023 -0.0761022 16.9997 0.360013C16.9063 0.390582 16.8288 0.456711 16.7839 0.544066C16.7389 0.631421 16.7303 0.732963 16.7597 0.82668C16.7673 0.877187 16.7855 0.925509 16.8131 0.968436C16.8408 1.01136 16.8773 1.04791 16.9202 1.07566C16.963 1.1034 17.0113 1.1217 17.0618 1.12935C17.1123 1.137 17.1639 1.13382 17.213 1.12001Z" fill="#1D1C19"/>
<path d="M31.9997 19.2133C31.8958 17.9242 31.7178 16.642 31.4664 15.3733C31.1997 14.04 30.853 12.7733 30.5597 11.64C30.3589 10.7312 30.0869 9.83955 29.7464 8.97335C29.5387 8.48643 29.1845 8.07631 28.733 7.80001C27.895 7.42496 26.9534 7.34963 26.0664 7.58668C24.874 7.84189 23.7646 8.39199 22.8397 9.18668C22.7619 9.24856 22.7119 9.33882 22.7006 9.43759C22.6894 9.53636 22.7178 9.63555 22.7797 9.71335C22.8416 9.79114 22.9318 9.84117 23.0306 9.85242C23.1294 9.86368 23.2286 9.83523 23.3064 9.77335C24.0259 9.2449 24.8479 8.87251 25.7197 8.68001C26.5001 8.43818 27.343 8.50009 28.0797 8.85335C28.3601 9.10994 28.5477 9.45222 28.613 9.82668C28.853 10.6 28.9864 11.5067 29.1197 12.0667C29.4264 13.1867 29.733 14.4267 30.0397 15.72C30.3464 17.0133 30.5997 18.16 30.773 19.3867C30.9572 20.6265 31.0108 21.8823 30.933 23.1333C29.402 22.7861 27.8202 22.7228 26.2664 22.9467C24.6581 23.1716 23.0825 23.5879 21.573 24.1867C21.0978 24.3818 20.6497 24.6372 20.2397 24.9467C19.7193 25.3651 19.2208 25.8101 18.7464 26.28L18.3997 26.5733C18.3997 25.5867 18.333 24.6 18.253 23.6133C18.253 23.1067 18.1597 22.6133 18.0797 22.12C18.0134 21.6175 17.9199 21.119 17.7997 20.6267C17.5047 19.4884 17.1486 18.3667 16.733 17.2667C16.7223 17.2186 16.7017 17.1732 16.6727 17.1333C16.6437 17.0934 16.6067 17.06 16.5642 17.035C16.5217 17.01 16.4745 16.994 16.4256 16.9879C16.3767 16.9819 16.327 16.986 16.2797 17C16.204 17.0193 16.1363 17.0618 16.0861 17.1216C16.0359 17.1814 16.0056 17.2555 15.9997 17.3333C16.1864 18.48 16.293 19.6133 16.4397 20.76C16.4397 21.2533 16.573 21.7333 16.653 22.2133C16.733 22.6933 16.813 23.1867 16.9064 23.6667C17.0664 24.56 17.2397 25.4533 17.413 26.3333C17.0797 26.16 16.693 25.9333 16.1997 25.7067C15.673 25.4558 15.1295 25.242 14.573 25.0667C12.6431 24.4846 10.5969 24.402 8.62636 24.8267C6.87917 25.2483 5.2337 26.0144 3.78636 27.08C3.81199 25.931 3.75854 24.7817 3.62636 23.64C3.48581 22.3751 3.24958 21.1226 2.9197 19.8933L1.4397 14.2C1.4159 14.075 1.42836 13.9458 1.47561 13.8277C1.52286 13.7096 1.60293 13.6074 1.70636 13.5333C2.02476 13.2361 2.38956 12.9929 2.78636 12.8133C3.86208 12.2543 4.99248 11.8075 6.1597 11.48C6.90401 11.2643 7.67908 11.1742 8.45303 11.2133C8.56587 11.2289 8.68032 11.2 8.77233 11.1329C8.86433 11.0657 8.92672 10.9655 8.94636 10.8533C8.96163 10.7421 8.93238 10.6292 8.86499 10.5394C8.79759 10.4495 8.69747 10.3899 8.58636 10.3733C7.69648 10.2626 6.7941 10.3077 5.9197 10.5067C4.65691 10.7553 3.42355 11.1351 2.2397 11.64C1.57681 11.8888 0.979421 12.2855 0.49303 12.8C0.279428 13.0284 0.127069 13.307 0.0501374 13.6101C-0.0267947 13.9132 -0.0257995 14.2308 0.0530305 14.5333C0.13303 14.8267 0.519697 16.4533 0.93303 17.9867C1.18636 18.88 1.4397 19.7467 1.62636 20.28C2.06475 21.4334 2.41247 22.6192 2.66636 23.8267C2.90636 25.04 3.13303 27.8267 3.13303 27.9733C3.1407 28.4998 3.31844 29.0096 3.6397 29.4267C3.8183 29.6462 4.04415 29.8225 4.30041 29.9426C4.55667 30.0626 4.83673 30.1233 5.1197 30.12C5.42366 30.1224 5.72579 30.0728 6.01303 29.9733C6.57303 29.8 7.14636 29.48 7.66636 29.36C8.36704 29.1901 9.0806 29.0786 9.7997 29.0267C10.5044 28.9527 11.215 28.9527 11.9197 29.0267C13.107 29.0584 14.2393 29.5342 15.093 30.36C15.5138 30.8723 16.03 31.2979 16.613 31.6133C17.1815 31.8327 17.7981 31.8971 18.3997 31.8C19.1947 31.7217 19.9565 31.4417 20.613 30.9867C21.3661 30.3011 22.0535 29.5467 22.6664 28.7333C22.9249 28.4593 23.2267 28.2296 23.5597 28.0533C24.1285 27.7653 24.722 27.5288 25.333 27.3467C25.9513 27.1555 26.5847 27.0172 27.2264 26.9333C27.8643 26.8601 28.5085 26.8601 29.1464 26.9333C29.2797 26.9333 30.1464 27.16 30.4797 27.1733C30.578 27.1834 30.6773 27.1707 30.7698 27.136C30.8624 27.1013 30.9456 27.0456 31.013 26.9733C31.259 26.6331 31.4232 26.2407 31.493 25.8267C31.8142 23.6366 31.9835 21.4268 31.9997 19.2133ZM30.5464 26.04C30.1549 25.9146 29.7431 25.8648 29.333 25.8933C28.6222 25.791 27.9022 25.7687 27.1864 25.8267C26.4695 25.8839 25.7597 26.0089 25.0664 26.2C24.3745 26.3718 23.7005 26.6084 23.053 26.9067C22.5604 27.1311 22.1095 27.4377 21.7197 27.8133C21.1095 28.5631 20.4359 29.259 19.7064 29.8933C19.2374 30.2094 18.6962 30.4021 18.133 30.4533C16.9997 30.6 16.6664 30.08 16.1197 29.5333C15.5996 28.961 14.9632 28.5064 14.253 28.2C13.5278 27.9448 12.768 27.801 11.9997 27.7733C11.2114 27.7324 10.4211 27.7681 9.6397 27.88C8.86421 27.9881 8.09771 28.153 7.34636 28.3733C6.82636 28.5333 6.2397 28.8933 5.6797 29.1067C5.48999 29.1889 5.28635 29.2341 5.0797 29.24C4.92145 29.2533 4.76227 29.2302 4.61435 29.1724C4.46643 29.1146 4.33371 29.0237 4.22636 28.9067C4.01237 28.6496 3.8821 28.3332 3.85303 28C5.35414 26.9667 7.05897 26.2666 8.85303 25.9467C10.6446 25.6494 12.4828 25.824 14.1864 26.4533C15.3278 26.8907 16.4372 27.4076 17.5064 28C17.7533 28.0919 18.0206 28.115 18.2797 28.0667C18.6875 27.9696 19.0666 27.7777 19.3864 27.5067C20.1587 26.6537 21.0582 25.9251 22.053 25.3467C23.4422 24.7268 24.9019 24.279 26.3997 24.0133C27.8491 23.7398 29.3369 23.7398 30.7864 24.0133C30.813 24 30.5597 25.9067 30.5064 26.04H30.5464Z" fill="#1D1C19"/>
</svg>
