<svg width="32" height="32" viewBox="0 0 32 32" fill="none" xmlns="http://www.w3.org/2000/svg">
<path fill-rule="evenodd" clip-rule="evenodd" d="M25.9202 25.4133C25.9202 25.2933 25.8402 24.1467 25.5069 24.08C25.1736 24.0133 25.0802 24.08 24.8802 24.44C24.7584 24.7976 24.6604 25.1628 24.5869 25.5333C22.6402 25.68 21.9202 26.2 20.4002 26.24C19.8669 26.36 19.9336 27.0266 20.6402 27.08C21.9082 27.2066 23.1856 27.2066 24.4536 27.08C24.4536 27.9733 24.4536 28.12 24.6802 28.5066C24.7467 28.5907 24.8415 28.6476 24.9469 28.6667C25.1469 28.7467 25.3069 28.6667 25.4669 28.48C25.5453 28.3107 25.5992 28.1311 25.6269 27.9466C25.7439 27.6295 25.8375 27.3042 25.9069 26.9733L29.6002 26.6667C30.2269 26.6667 30.3336 25.8667 29.6669 25.7733C28.4295 25.5546 27.1767 25.4342 25.9202 25.4133Z" fill="#1D1C19"/>
<path fill-rule="evenodd" clip-rule="evenodd" d="M31.8802 24.24C31.8802 23.8533 31.9469 23.28 31.8802 22.8C31.6802 21.24 30.4402 21.2133 29.1069 21.2C29.1423 20.9569 29.1646 20.7121 29.1736 20.4667C29.055 19.8903 28.7626 19.364 28.3359 18.9588C27.9092 18.5535 27.3686 18.2887 26.7869 18.2C23.9469 17.52 21.4536 19.84 21.9602 21.5867C19.6802 22.2133 19.5202 22.1733 19.2936 22.5867C18.6669 24 18.6669 25.8933 18.6669 29.9867C18.8802 32.04 19.5202 30.96 19.5336 30.8267V28.2933C19.5336 27.8666 19.7202 26.0666 19.7069 26.0666C19.7417 25.155 19.9217 24.2548 20.2402 23.4C22.9589 22.6187 25.8101 22.4099 28.6136 22.7866H29.6669C29.8936 22.7866 30.3602 22.7866 30.2669 22.8933C30.1736 23 30.2669 28.32 30.2669 29.0933V30.2533C30.2669 30.72 31.2936 30.7067 21.3336 30.5867C20.1869 30.5867 20.1602 30.5067 20.0002 30.5867C19.946 30.6132 19.8984 30.6516 19.8612 30.6992C19.8239 30.7467 19.7979 30.802 19.785 30.861C19.7722 30.92 19.7729 30.9812 19.7871 31.0399C19.8013 31.0986 19.8285 31.1533 19.8669 31.2C20.0936 31.5333 20.0936 31.4133 23.4936 31.5466C32.2669 31.92 31.3736 32.44 31.6669 29.1467C31.8605 27.5187 31.9318 25.8786 31.8802 24.24ZM22.8802 21.4133C22.7069 19.88 27.0002 18.84 28.0536 20.4266C28.1693 20.6525 28.2068 20.9105 28.1602 21.16C26.3966 21.022 24.6226 21.1071 22.8802 21.4133Z" fill="#1D1C19"/>
<path fill-rule="evenodd" clip-rule="evenodd" d="M14.0802 10.6666C13.4407 10.2535 12.7382 9.9473 12.0002 9.75998C17.3336 7.63998 15.7602 -1.60784e-05 10.2269 0.186651C3.08022 0.70665 3.22689 7.57332 6.36022 9.51998C7.42689 10.1733 7.10689 9.37332 5.14689 10.76C2.71884 12.3925 1.025 14.9093 0.426888 17.7733C0.0600733 19.016 0.000590429 20.3292 0.253554 21.6C0.365865 21.973 0.573501 22.3102 0.855968 22.5785C1.13843 22.8467 1.48597 23.0366 1.86426 23.1295C2.24256 23.2224 2.63854 23.215 3.01312 23.1082C3.38769 23.0013 3.72792 22.7985 4.00022 22.52C3.98681 24.4724 4.20613 26.4195 4.65355 28.32C5.06689 30.1066 6.14689 31.8133 8.00022 31.8C11.1469 31.8 11.7336 32.0266 12.5736 31.0266C13.6364 29.159 14.346 27.1115 14.6669 24.9867C14.7602 24.28 14.8269 23.4933 14.8936 22.4667C15.1539 22.7474 15.4815 22.9571 15.8455 23.0761C16.2094 23.1951 16.5976 23.2194 16.9736 23.1467C18.4936 22.88 18.8136 21.6933 18.8269 20.2266C18.7548 18.3885 18.2946 16.5864 17.4765 14.9388C16.6584 13.2911 15.501 11.8352 14.0802 10.6666ZM10.3202 1.73332C10.7913 1.69418 11.2654 1.7541 11.7119 1.90922C12.1585 2.06435 12.5676 2.31124 12.913 2.63401C13.2584 2.95678 13.5324 3.34829 13.7173 3.78333C13.9023 4.21837 13.9941 4.68731 13.9869 5.15998C13.2164 4.86989 12.5326 4.38803 12.0002 3.75998C11.6402 3.38665 11.4002 2.67998 10.6669 2.42665C9.66689 2.10665 9.44022 3.85332 7.12022 4.85332C6.65561 5.0611 6.16022 5.1917 5.65355 5.23998C5.90689 2.86665 8.00022 1.83998 10.3202 1.73332ZM6.92022 8.63998C6.51552 8.34815 6.18433 7.96609 5.9529 7.52406C5.72147 7.08203 5.59616 6.59218 5.58689 6.09332C7.00218 6.17781 8.40645 5.79865 9.58689 5.01332C9.92442 4.78435 10.2294 4.51076 10.4936 4.19998C11.0785 4.87692 11.8074 5.41448 12.6269 5.77332C13.0299 5.9584 13.4559 6.08845 13.8936 6.15998C13.1336 9.58665 8.48022 9.71998 6.92022 8.63998ZM17.5869 21.3066C17.527 21.458 17.4316 21.5927 17.3087 21.6993C17.1858 21.806 17.039 21.8815 16.8807 21.9194C16.7225 21.9573 16.5574 21.9566 16.3995 21.9172C16.2416 21.8779 16.0955 21.8011 15.9736 21.6933C15.4584 20.3439 15.0134 18.9687 14.6402 17.5733C14.6402 17.4667 13.3069 16.8266 13.3069 18.2933C13.3069 19.0533 13.4936 20.84 13.4536 21.44C13.4408 23.6493 13.0531 25.8404 12.3069 27.92C12.0936 28.5333 11.5469 30.2667 10.9736 30.2667H9.64022C9.91865 27.6088 9.95435 24.931 9.74689 22.2667C9.74689 22.1464 9.69913 22.0311 9.61411 21.9461C9.52909 21.8611 9.41378 21.8133 9.29355 21.8133C9.17332 21.8133 9.05801 21.8611 8.973 21.9461C8.88798 22.0311 8.84022 22.1464 8.84022 22.2667C8.29355 26.7733 8.20022 26.6133 8.62689 30.2667H8.00022C7.00022 30.2667 6.44022 29 6.22689 28.0133C4.49355 19.7867 6.74689 16.92 4.89355 17.1866C4.14689 17.28 4.34689 17.9733 3.56022 20.5733C3.44784 20.953 3.30516 21.3231 3.13355 21.68C3.02307 21.8013 2.88088 21.8893 2.72302 21.9341C2.56516 21.9788 2.39794 21.9786 2.24022 21.9333C1.33355 21.8 1.33355 20.84 1.33355 20C1.40864 17.9986 2.00125 16.0508 3.05355 14.3466C4.14357 12.7033 5.69865 11.4221 7.52022 10.6666C8.8568 10.246 10.2903 10.246 11.6269 10.6666C12.2984 10.8383 12.9378 11.1175 13.5202 11.4933C14.4095 12.2105 15.1674 13.0767 15.7602 14.0533C16.6263 15.4289 17.2319 16.952 17.5469 18.5466C17.713 19.469 17.7039 20.4143 17.5202 21.3333L17.5869 21.3066Z" fill="#1D1C19"/>
<path fill-rule="evenodd" clip-rule="evenodd" d="M9.33356 16C9.35211 16.1086 9.40846 16.2071 9.49264 16.2781C9.57683 16.3491 9.68342 16.3881 9.79356 16.3881C9.9037 16.3881 10.0103 16.3491 10.0945 16.2781C10.1787 16.2071 10.235 16.1086 10.2536 16C10.4696 14.316 10.4426 12.6097 10.1736 10.9333C10.0536 10.4 9.46689 10.56 9.36022 10.9333C8.96347 12.5979 8.95435 14.3313 9.33356 16Z" fill="#1D1C19"/>
</svg>
