<svg width="32" height="32" viewBox="0 0 32 32" fill="none" xmlns="http://www.w3.org/2000/svg">
<path d="M31.7731 14.0933C31.4798 11.5733 31.6531 8.65333 30.9464 6.2C30.7229 5.26642 30.3075 4.38957 29.7268 3.62519C29.146 2.8608 28.4126 2.22562 27.5731 1.76C26.872 1.37394 26.1169 1.09529 25.3331 0.933333C24.1669 0.730924 22.9827 0.65049 21.7998 0.693333L17.2531 0.893333L13.8398 1.09333C10.9959 1.14669 8.17331 1.59544 5.45311 2.42667C4.46772 2.67434 3.56631 3.18062 2.84203 3.89319C2.11774 4.60575 1.59683 5.49878 1.33311 6.48C1.31375 6.59138 1.33938 6.70589 1.40438 6.79839C1.46938 6.89089 1.56843 6.95381 1.67978 6.97333C1.73408 6.98929 1.79108 6.99393 1.84725 6.98696C1.90341 6.97999 1.95755 6.96156 2.0063 6.93281C2.05506 6.90406 2.09738 6.8656 2.13066 6.81982C2.16394 6.77404 2.18747 6.72191 2.19978 6.66667C2.98644 2.66667 9.86644 2.37333 13.9064 2.17333L17.3331 1.98667L21.8131 1.85333C23.5956 1.72402 25.3805 2.06905 26.9864 2.85333C27.6632 3.25305 28.2496 3.78887 28.7087 4.4269C29.1677 5.06493 29.4893 5.79128 29.6531 6.56C30.3064 8.96 30.0931 11.8 30.3598 14.2533C30.4931 15.5867 30.5598 17.8267 30.5331 20.0267C30.5233 21.956 30.4075 23.8833 30.1864 25.8C30.0573 26.2463 29.8281 26.6572 29.5161 27.0014C29.2042 27.3457 28.8178 27.6143 28.3864 27.7867C26.0034 28.8435 23.4539 29.4753 20.8531 29.6533C16.3194 30.1386 11.7468 30.1386 7.21311 29.6533C6.15558 29.6124 5.11522 29.3727 4.14644 28.9467C2.15978 27.3333 1.33311 24.6133 1.03978 21.6133C0.626444 17.1067 1.45311 11.9733 1.71978 8.84C1.72357 8.78763 1.71627 8.73506 1.69836 8.68571C1.68045 8.63635 1.65233 8.59133 1.61584 8.55358C1.57935 8.51584 1.53531 8.48621 1.48659 8.46664C1.43787 8.44706 1.38557 8.43799 1.33311 8.44C1.28476 8.43448 1.23578 8.43882 1.18916 8.45277C1.14253 8.46671 1.09921 8.48996 1.06182 8.52112C1.02443 8.55227 0.993749 8.59069 0.971627 8.63404C0.949504 8.67739 0.936402 8.72478 0.933111 8.77333C0.639777 12 -0.266889 17.12 0.0797773 21.6933C0.333111 25.0267 1.27978 28.0133 3.47978 29.7867C4.59603 30.3575 5.81586 30.6976 7.06644 30.7867C11.7006 31.386 16.3869 31.471 21.0398 31.04C23.8055 30.8723 26.5169 30.1989 29.0398 29.0533C29.6787 28.7885 30.2446 28.3742 30.6901 27.8452C31.1356 27.3162 31.4476 26.688 31.5998 26.0133C31.841 24.0175 31.9745 22.0102 31.9998 20C32.0338 18.0284 31.9581 16.0565 31.7731 14.0933Z" fill="#1D1C19"/>
<path d="M13.4531 7.84C13.0626 7.14928 12.52 6.55652 11.8664 6.10667C11.4176 5.74293 10.8575 5.54444 10.2798 5.54444C9.70208 5.54444 9.14192 5.74293 8.69311 6.10667C7.70064 7.07047 6.93937 8.24656 6.46644 9.54667C6.27978 10.0133 6.10644 10.48 5.95978 10.96C5.81311 11.44 5.59978 12.2933 5.43978 12.88C4.98644 12.88 4.55978 12.88 4.53311 13.2533C4.50644 13.6267 4.89311 13.68 5.23978 13.7333C5.09311 14.36 4.95978 14.9867 4.85311 15.6133C4.70644 16.4645 4.61293 17.3239 4.57311 18.1867C4.5676 18.2368 4.5723 18.2875 4.58691 18.3357C4.60153 18.384 4.62577 18.4288 4.65816 18.4674C4.69056 18.506 4.73044 18.5377 4.7754 18.5605C4.82036 18.5832 4.86948 18.5967 4.91978 18.6C5.01803 18.6039 5.11408 18.5702 5.18839 18.5058C5.2627 18.4414 5.30968 18.3511 5.31978 18.2533C5.41228 17.4224 5.55926 16.5984 5.75978 15.7867C5.89311 15.16 6.07978 14.5333 6.26644 13.9067C6.91095 14.0024 7.56153 14.0514 8.21311 14.0533C8.86644 14.0533 9.54644 13.9733 10.1864 13.9067C11.1598 13.8 12.1064 13.6267 13.0798 13.56C13.1911 13.5572 13.2974 13.5135 13.3786 13.4372C13.4597 13.361 13.51 13.2576 13.5198 13.1467C13.5216 13.0895 13.5118 13.0326 13.4912 12.9793C13.4706 12.926 13.4394 12.8774 13.3996 12.8363C13.3598 12.7953 13.3122 12.7626 13.2595 12.7404C13.2069 12.7181 13.1503 12.7066 13.0931 12.7067C11.3212 12.5026 9.5317 12.5026 7.75978 12.7067L6.66644 12.8C6.82644 12.32 6.98644 11.84 7.15978 11.36C7.3248 10.9329 7.51171 10.5146 7.71978 10.1067C8.1166 9.02582 8.75506 8.04989 9.58644 7.25333C10.3998 6.66667 11.2398 7.29333 11.9998 8.09333C12.0798 8.30667 13.3331 9.42667 13.6798 13.4267C13.8474 14.9822 13.8474 16.5512 13.6798 18.1067C13.6643 18.2195 13.6931 18.334 13.7602 18.426C13.8274 18.518 13.9276 18.5804 14.0398 18.6C14.1526 18.6155 14.2671 18.5867 14.3591 18.5195C14.4511 18.4524 14.5135 18.3522 14.5331 18.24C14.7453 16.6401 14.79 15.0225 14.6664 13.4133C14.6569 11.4911 14.2435 9.59227 13.4531 7.84Z" fill="#1D1C19"/>
<path d="M25.1331 17.8267C26.1064 17.64 27.0664 17.4 28.0131 17.1333C28.0669 17.1209 28.1176 17.0977 28.1623 17.0654C28.207 17.033 28.2448 16.9919 28.2734 16.9447C28.3019 16.8975 28.3208 16.845 28.3287 16.7904C28.3367 16.7358 28.3337 16.6801 28.3198 16.6267C28.3104 16.5705 28.2895 16.5169 28.2585 16.4691C28.2274 16.4214 28.1868 16.3806 28.1392 16.3493C28.0917 16.318 28.0382 16.2969 27.982 16.2873C27.9259 16.2776 27.8684 16.2797 27.8131 16.2933C27.0931 16.4133 26.3464 16.5067 25.5998 16.5733L22.8664 16.76C22.9803 16.3983 23.0212 16.0176 22.9869 15.64C22.9525 15.2623 22.8436 14.8953 22.6664 14.56C22.677 14.5041 22.675 14.4467 22.6608 14.3916C22.6465 14.3366 22.6203 14.2854 22.5841 14.2417C22.5478 14.1979 22.5023 14.1627 22.4509 14.1385C22.3994 14.1144 22.3433 14.1018 22.2864 14.1018C22.2296 14.1018 22.1735 14.1144 22.122 14.1385C22.0706 14.1627 22.0251 14.1979 21.9888 14.2417C21.9525 14.2854 21.9263 14.3366 21.9121 14.3916C21.8979 14.4467 21.8959 14.5041 21.9064 14.56C21.7251 14.905 21.6215 15.2855 21.6031 15.6748C21.5847 16.0641 21.6518 16.4528 21.7998 16.8133C19.6931 16.9733 18.3598 17.1333 16.7864 17.1467C16.7363 17.143 16.686 17.1496 16.6385 17.1659C16.5909 17.1822 16.5472 17.2079 16.5098 17.2415C16.4725 17.2752 16.4423 17.316 16.4211 17.3615C16.3999 17.4071 16.3881 17.4564 16.3864 17.5067C16.3828 17.5568 16.3894 17.6071 16.4057 17.6547C16.422 17.7022 16.4477 17.7459 16.4813 17.7833C16.5149 17.8206 16.5557 17.8508 16.6013 17.872C16.6469 17.8932 16.6962 17.905 16.7464 17.9067C17.4664 18 18.1864 18.0933 18.9198 18.16V18.7067C18.9088 19.0104 18.9312 19.3145 18.9864 19.6133C19.1424 20.5279 19.4876 21.3998 19.9998 22.1733C20.1943 22.4503 20.4082 22.7132 20.6398 22.96C20.4131 23.1733 20.1864 23.3733 19.9331 23.5733C19.5082 23.961 19.0631 24.3259 18.5998 24.6667C17.7464 25.2667 17.2664 25.1067 17.3998 25.64C17.6531 26.7733 20.6664 24.5733 21.5998 23.88C23.1665 25.105 25.1197 25.7292 27.1064 25.64C27.2209 25.6401 27.3308 25.5955 27.4129 25.5159C27.4951 25.4362 27.543 25.3277 27.5464 25.2133C27.5465 25.1562 27.535 25.0996 27.5127 25.0469C27.4905 24.9943 27.4578 24.9466 27.4168 24.9068C27.3758 24.867 27.3271 24.8359 27.2738 24.8152C27.2205 24.7946 27.1636 24.7849 27.1064 24.7867C25.4792 24.63 23.9389 23.9785 22.6931 22.92C24.0754 21.5586 24.9385 19.757 25.1331 17.8267ZM21.6931 21.9467C21.4915 21.7476 21.3002 21.5384 21.1198 21.32C20.5925 20.7361 20.1726 20.0635 19.8798 19.3333C19.8009 19.1188 19.7515 18.8945 19.7331 18.6667V18.1867L20.7064 18.2533H22.4131C22.9731 18.2533 23.5598 18.1467 24.1331 18.0533H24.2931C24.0118 18.8583 23.6215 19.621 23.1331 20.32C22.7042 20.9053 22.2221 21.4499 21.6931 21.9467Z" fill="#1D1C19"/>
<path d="M12.3064 25.48C11.8341 25.3129 11.3858 25.0842 10.9731 24.8C9.72669 23.997 8.82 22.7628 8.42644 21.3333L12.0931 22.6667C12.1364 22.6917 12.1844 22.7074 12.2341 22.7129C12.2838 22.7183 12.334 22.7133 12.3817 22.6983C12.4294 22.6832 12.4734 22.6584 12.5109 22.6254C12.5485 22.5924 12.5787 22.552 12.5998 22.5067C12.6224 22.4622 12.6359 22.4136 12.6394 22.3638C12.6429 22.3139 12.6363 22.2639 12.6202 22.2167C12.604 22.1695 12.5785 22.1259 12.5453 22.0887C12.512 22.0515 12.4716 22.0213 12.4264 22C6.93311 18.9867 7.85311 18.5467 6.17311 22.9867C5.98644 23.4533 5.79978 23.9067 5.58644 24.32C5.5593 24.3699 5.54226 24.4247 5.53628 24.4811C5.5303 24.5376 5.53551 24.5948 5.55161 24.6492C5.5677 24.7037 5.59437 24.7545 5.63009 24.7987C5.66581 24.8428 5.70988 24.8795 5.75978 24.9067C5.80968 24.9338 5.86444 24.9508 5.92093 24.9568C5.97742 24.9628 6.03453 24.9576 6.08901 24.9415C6.14349 24.9254 6.19426 24.8987 6.23843 24.863C6.2826 24.8273 6.3193 24.7832 6.34644 24.7333C6.67978 24.2 6.99978 23.68 7.30644 23.1333C7.43978 22.8933 7.57311 22.64 7.69311 22.3867C7.74777 22.5861 7.81457 22.782 7.89311 22.9733C8.34595 24.1587 9.12767 25.1902 10.1464 25.9467C12.8131 27.8533 16.8131 26.5867 16.2531 25.6933C15.6931 24.8 15.4398 26.6667 12.3064 25.48Z" fill="#1D1C19"/>
<path d="M26.1198 7.16C26.0701 7.13206 26.0152 7.11437 25.9586 7.10797C25.9019 7.10158 25.8445 7.10661 25.7898 7.12277C25.7351 7.13892 25.6842 7.16588 25.6402 7.20205C25.5961 7.23822 25.5597 7.28286 25.5331 7.33333C25.0432 8.08884 24.598 8.87241 24.1998 9.68C23.7993 8.247 22.931 6.98914 21.7331 6.10667C21.2062 5.74733 20.6191 5.4854 19.9998 5.33333C19.2977 5.14248 18.5645 5.0937 17.8433 5.18986C17.1221 5.28602 16.4274 5.52519 15.7998 5.89333C15.7569 5.91785 15.7192 5.95057 15.689 5.98963C15.6587 6.0287 15.6365 6.07334 15.6235 6.121C15.5972 6.21727 15.6103 6.32003 15.6598 6.40667C15.7093 6.4933 15.7912 6.55673 15.8874 6.58298C15.9837 6.60924 16.0865 6.59617 16.1731 6.54667C16.9735 6.29637 17.8217 6.23837 18.6488 6.37737C19.4758 6.51637 20.2585 6.84846 20.9331 7.34667C22.1437 8.11575 23.0379 9.29387 23.4531 10.6667L19.7864 9.33333C19.7418 9.31145 19.6933 9.29857 19.6436 9.29543C19.594 9.2923 19.5443 9.29897 19.4972 9.31507C19.4502 9.33116 19.4067 9.35637 19.3694 9.38924C19.3321 9.42212 19.3017 9.46202 19.2798 9.50667C19.2579 9.55132 19.245 9.59984 19.2419 9.64947C19.2387 9.69909 19.2454 9.74885 19.2615 9.7959C19.2776 9.84295 19.3028 9.88636 19.3357 9.92367C19.3686 9.96098 19.4085 9.99145 19.4531 10.0133L22.5731 11.7733C25.0798 13 24.2664 12.24 26.2931 7.62667C26.3167 7.54053 26.3127 7.44916 26.2816 7.36543C26.2505 7.28171 26.1939 7.20986 26.1198 7.16Z" fill="#1D1C19"/>
</svg>
