<svg width="30" height="32" viewBox="0 0 30 32" fill="none" xmlns="http://www.w3.org/2000/svg">
<path fill-rule="evenodd" clip-rule="evenodd" d="M14.6532 14.6667C14.7585 14.6421 14.8516 14.5807 14.9156 14.4936C14.9796 14.4064 15.0103 14.2993 15.0023 14.1915C14.9942 14.0837 14.9479 13.9823 14.8717 13.9056C14.7955 13.8289 14.6943 13.782 14.5866 13.7733C13.5195 13.8227 12.4671 13.5097 11.6005 12.8851C10.7339 12.2606 10.104 11.3612 9.81324 10.3333C9.4272 9.03149 9.39956 7.6496 9.73324 6.33335C9.80243 6.39517 9.87848 6.44886 9.95991 6.49335C11.3236 7.05217 12.8171 7.21598 14.2695 6.96605C15.722 6.71611 17.0747 6.06253 18.1732 5.08001C18.4167 5.60286 18.7211 6.09515 19.0799 6.54668C20.1199 7.54668 21.8532 7.73335 22.2532 8.34668C22.2896 8.43029 22.3563 8.49701 22.4399 8.53335C22.1779 9.95562 21.4736 11.2589 20.4273 12.2573C19.381 13.2557 18.0462 13.8982 16.6132 14.0933C16.5258 14.127 16.4529 14.1902 16.4074 14.2721C16.3618 14.3539 16.3464 14.4492 16.3638 14.5412C16.3813 14.6333 16.4305 14.7163 16.5029 14.7757C16.5753 14.8352 16.6662 14.8674 16.7599 14.8667C26.9999 13.0933 25.1866 -0.45332 16.6799 1.30301e-05C4.62658 0.920013 6.82658 15.3067 14.6532 14.6667ZM22.5199 7.09335C21.2962 6.16489 20.0184 5.31005 18.6932 4.53335C19.2847 3.90943 19.8327 3.24565 20.3332 2.54668C20.9943 3.1017 21.5308 3.79001 21.9076 4.56661C22.2844 5.3432 22.4931 6.19058 22.5199 7.05335V7.09335ZM19.5466 2.05335C18.2931 3.50165 16.6784 4.59198 14.8666 5.21335C13.6666 5.58668 10.9999 6.05335 10.1332 5.46668C10.1507 5.41022 10.1507 5.3498 10.1332 5.29335C11.7332 1.85335 16.9732 0.720013 19.5466 2.05335Z" fill="#1D1C19"/>
<path fill-rule="evenodd" clip-rule="evenodd" d="M13.7999 9.57335C13.8408 9.61487 13.8896 9.64784 13.9434 9.67035C13.9972 9.69285 14.0549 9.70444 14.1132 9.70444C14.1716 9.70444 14.2293 9.69285 14.2831 9.67035C14.3369 9.64784 14.3856 9.61487 14.4266 9.57335C14.7599 9.25335 14.3199 7.54668 12.8399 7.68001C11.1332 7.86668 11.1332 9.73335 11.8932 9.62668C12.6532 9.52001 12.7066 8.14668 13.7999 9.57335Z" fill="#1D1C19"/>
<path fill-rule="evenodd" clip-rule="evenodd" d="M19.8666 9.76001C20.1999 9.44001 19.4132 7.33335 18.0799 7.52001C17.3066 7.73335 16.4266 9.02668 16.9199 9.32001C16.9699 9.37373 17.0333 9.41316 17.1036 9.43425C17.1739 9.45533 17.2486 9.45733 17.3199 9.44001C17.4154 9.43009 17.5037 9.385 17.5678 9.31354C17.6319 9.24207 17.6671 9.14933 17.6666 9.05335C18.6932 8.26668 19.1199 10.4533 19.8666 9.76001Z" fill="#1D1C19"/>
<path fill-rule="evenodd" clip-rule="evenodd" d="M17.3732 12C17.4345 11.9107 17.4617 11.8024 17.4501 11.6948C17.4384 11.5871 17.3886 11.4872 17.3097 11.4131C17.2307 11.339 17.1278 11.2956 17.0197 11.2907C16.9115 11.2859 16.8052 11.3199 16.7199 11.3867C16.4532 11.5733 16.1599 11.5333 15.2132 11.5333C14.937 11.6071 14.6435 11.5787 14.3866 11.4533C14.3194 11.3738 14.2233 11.3242 14.1196 11.3154C14.0158 11.3067 13.9128 11.3395 13.8332 11.4067C13.7537 11.4739 13.7041 11.5699 13.6953 11.6737C13.6866 11.7775 13.7194 11.8804 13.7866 11.96C13.9639 12.2779 14.2221 12.5433 14.535 12.7294C14.8478 12.9155 15.2043 13.0156 15.5683 13.0196C15.9323 13.0237 16.2909 12.9315 16.6079 12.7525C16.9248 12.5735 17.1888 12.3139 17.3732 12Z" fill="#1D1C19"/>
<path fill-rule="evenodd" clip-rule="evenodd" d="M25.2399 28.56C22.7035 28.8464 20.2076 29.4189 17.7999 30.2667C17.0924 30.5001 16.3981 30.7716 15.7199 31.08C15.7999 30.84 16.6799 19.3733 16.0666 18.7733C15.9377 18.621 15.7574 18.5214 15.5599 18.4933C14.6132 18.4 13.5732 16.2267 10.3999 15.1867C8.98123 14.7849 7.51437 14.5786 6.03991 14.5733C5.54658 14.5733 4.55991 14.48 4.31991 14.9467C4.29633 15.0111 4.28863 15.0803 4.29746 15.1483C4.30629 15.2163 4.3314 15.2812 4.37065 15.3375C4.40991 15.3937 4.46215 15.4397 4.52294 15.4715C4.58374 15.5033 4.65131 15.5199 4.71991 15.52H5.91991C9.47991 16.3867 11.6132 16.6933 14.5732 19.12C15.4799 19.9733 14.4666 22.64 14.8399 30.5067C13.8692 30.1083 12.8653 29.796 11.8399 29.5733C9.34657 28.6667 7.21324 28.9467 4.85324 28.6667H3.15991C2.57324 28.6667 2.41324 28.6667 2.41324 27.7333C2.41324 26.4 2.82658 25.68 2.19991 25.6267C2.09666 25.6225 1.99559 25.6571 1.91662 25.7238C1.83764 25.7904 1.78649 25.8842 1.77324 25.9867C1.61324 27.4133 0.679909 29.2 2.65324 29.8133C3.30565 29.9353 3.96451 30.0199 4.62657 30.0667C6.95991 30.52 9.31991 30.2 11.4666 30.76C12.6885 31.3645 14.0143 31.7311 15.3732 31.84C15.3732 31.9867 15.8532 32.3867 25.1999 29.64C25.4843 29.5043 25.7454 29.3243 25.9732 29.1067C26.0064 29.0104 26.0082 28.9061 25.9782 28.8088C25.9482 28.7115 25.888 28.6262 25.8063 28.5654C25.7247 28.5045 25.6258 28.4712 25.524 28.4702C25.4222 28.4693 25.3227 28.5007 25.2399 28.56Z" fill="#1D1C19"/>
<path fill-rule="evenodd" clip-rule="evenodd" d="M7.11991 20.5067C6.99991 20 6.82657 19.08 6.11991 18.6667C4.71603 18.1622 3.17362 18.205 1.79991 18.7867C1.35582 19.1783 1.00794 19.6669 0.783279 20.2148C0.558619 20.7626 0.463221 21.3548 0.504489 21.9454C0.545757 22.5361 0.722581 23.1093 1.02124 23.6205C1.31989 24.1318 1.73234 24.5673 2.22658 24.8933C2.69427 25.3006 3.26335 25.5738 3.8736 25.6841C4.48385 25.7944 5.11258 25.7377 5.69324 25.52C7.45324 24.5733 7.67991 22.4533 7.11991 20.5067ZM4.95991 24.24C4.82554 24.2995 4.6802 24.3303 4.53324 24.3303C4.38628 24.3303 4.24094 24.2995 4.10658 24.24C1.22658 23.4667 1.05324 20.8133 2.42658 19.4267C3.34658 19.96 4.79991 19.24 5.46658 19.6933C5.66657 19.8533 6.63991 23.3067 4.95991 24.24Z" fill="#1D1C19"/>
<path fill-rule="evenodd" clip-rule="evenodd" d="M2.99991 17.52C3.18658 16.4 3.35991 14.8533 2.61324 14.8533C2.49324 14.8533 2.33324 14.8533 2.25324 14.9733C1.99753 15.7756 1.86271 16.6114 1.85324 17.4533C1.91991 18.3867 2.91991 18.2133 2.99991 17.52Z" fill="#1D1C19"/>
<path fill-rule="evenodd" clip-rule="evenodd" d="M26.1999 16C26.3332 16.5867 26.4266 17.04 26.5066 17.4133C26.8399 18.32 27.7199 18.0667 27.5599 17.04C27.3756 16.3497 27.2507 15.6449 27.1866 14.9333C27.16 14.5273 27.006 14.1401 26.7466 13.8267C26.5091 13.6264 26.2032 13.526 25.8932 13.5467C24.3425 13.7424 22.8234 14.1367 21.3732 14.72C20.3332 15.1333 16.0399 17.2667 15.9466 18.04C15.9407 18.1455 15.9731 18.2496 16.0376 18.3333C16.1022 18.4169 16.1948 18.4745 16.2983 18.4956C16.4019 18.5166 16.5096 18.4996 16.6017 18.4478C16.6938 18.396 16.7641 18.3128 16.7999 18.2133C19.2789 16.9681 21.8792 15.9807 24.5599 15.2667C25.5332 15 25.7599 14.16 26.1999 16Z" fill="#1D1C19"/>
<path fill-rule="evenodd" clip-rule="evenodd" d="M26.6532 26.36C26.6151 27.3016 26.7322 28.2431 26.9999 29.1467C27.1199 29.3067 27.5999 29.4133 27.8132 28.7867C28.0207 28.0544 28.1107 27.2938 28.0799 26.5333C28.0236 26.3986 27.9325 26.2813 27.8161 26.1932C27.6996 26.1051 27.5619 26.0494 27.417 26.0317C27.272 26.0141 27.125 26.0352 26.9909 26.0929C26.8567 26.1506 26.7402 26.2427 26.6532 26.36Z" fill="#1D1C19"/>
<path fill-rule="evenodd" clip-rule="evenodd" d="M29.4666 20.6133C29.3588 19.7963 28.9557 19.0469 28.3332 18.5067C28.1866 18.3733 28.0799 18.4 27.7999 18.3867C27.6053 18.3763 27.4105 18.4052 27.2273 18.4716C27.044 18.538 26.876 18.6407 26.7332 18.7733C26.1466 20.1067 24.5999 19.2267 23.5199 20.1067C23.2464 20.3866 23.0414 20.7261 22.9211 21.0986C22.8008 21.471 22.7685 21.8663 22.8266 22.2533C23.0878 23.3917 23.7155 24.4129 24.6132 25.16C24.8871 25.4341 25.2297 25.6295 25.605 25.7256C25.9803 25.8218 26.3746 25.8153 26.7466 25.7067C28.6799 25.1333 29.6666 22.28 29.4666 20.6133ZM25.6666 24C25.5866 23.8933 24.6266 22.28 24.3332 21.7067C24.3332 21.2533 24.3332 21.0267 24.6132 20.92C25.3866 20.56 27.1466 20.5867 27.7199 19.0133C27.9977 19.2818 28.2114 19.6094 28.3453 19.9718C28.4792 20.3342 28.5297 20.7221 28.4932 21.1067C28.3785 21.8929 28.0917 22.6441 27.6532 23.3067C27.1732 24 26.2266 24.6267 25.6666 24Z" fill="#1D1C19"/>
</svg>
