<svg width="32" height="32" viewBox="0 0 32 32" fill="none" xmlns="http://www.w3.org/2000/svg">
<path fill-rule="evenodd" clip-rule="evenodd" d="M30.6664 24.5466C31.2442 24.0963 31.6491 23.4606 31.8131 22.7466C31.8204 22.5649 31.756 22.3876 31.6338 22.2529C31.5116 22.1183 31.3414 22.037 31.1598 22.0266H30.6931C29.3027 22.0584 27.9119 21.9826 26.5331 21.8L26.1198 21.04C25.7998 20.3866 25.4931 19.7066 25.1598 19.12C24.8265 18.5333 24.6798 18.2666 24.3998 17.7866C24.3289 17.6928 24.2373 17.6166 24.132 17.5642C24.0267 17.5117 23.9107 17.4844 23.7931 17.4844C23.6755 17.4844 23.5595 17.5117 23.4542 17.5642C23.349 17.6166 23.2573 17.6928 23.1864 17.7866C22.909 18.2169 22.6553 18.662 22.4264 19.12C22.0798 19.7333 21.7731 20.3866 21.4531 21.0266L21.0398 21.7866C19.6665 21.98 18.2796 22.0603 16.8931 22.0266H16.4131C16.2304 22.0403 16.0601 22.1244 15.9382 22.2613C15.8163 22.3981 15.7524 22.5769 15.7598 22.76C15.9241 23.4771 16.3346 24.114 16.9198 24.56C17.8926 25.3379 18.9221 26.042 19.9998 26.6666L19.8664 26.96C19.6664 27.48 18.8131 29.12 18.5331 30.1733C18.425 30.4536 18.3751 30.7531 18.3864 31.0533C18.3943 31.1477 18.4221 31.2393 18.4681 31.322C18.514 31.4048 18.5771 31.4768 18.6531 31.5333C18.9449 31.7319 19.2801 31.8573 19.6305 31.8991C19.9809 31.9408 20.3362 31.8977 20.6664 31.7733C21.8383 31.3015 22.9138 30.6192 23.8398 29.76C24.8261 30.595 25.9433 31.2617 27.1465 31.7333C27.4803 31.8688 27.8414 31.9237 28.2005 31.8936C28.5596 31.8635 28.9065 31.7492 29.2131 31.56C29.2949 31.502 29.3625 31.4263 29.411 31.3386C29.4595 31.2509 29.4875 31.1534 29.4931 31.0533C29.5104 30.7484 29.4603 30.4434 29.3464 30.16C29.0264 29.12 28.1464 27.4933 27.9464 26.9466C27.9464 26.9466 27.9464 26.76 27.8798 26.64L28.1198 26.4933C29.0126 25.904 29.8635 25.2536 30.6664 24.5466ZM26.8131 27.3333C27.4177 28.4489 27.9391 29.6076 28.3731 30.8C27.8636 30.9519 27.3154 30.9042 26.8398 30.6666C25.8471 30.2136 24.919 29.6308 24.0798 28.9333C24.0008 28.8806 23.908 28.8524 23.8131 28.8524C23.7182 28.8524 23.6254 28.8806 23.5464 28.9333C22.7297 29.6413 21.8351 30.2542 20.8798 30.76C20.6395 30.8935 20.3727 30.9723 20.0984 30.9907C19.8241 31.0092 19.5491 30.9668 19.2931 30.8666C19.7328 29.6766 20.2632 28.5221 20.8798 27.4133C21.0079 27.1696 21.115 26.9153 21.1998 26.6533C21.2292 26.5306 21.2292 26.4027 21.1998 26.28C21.0876 26.0829 20.927 25.9177 20.7331 25.8C20.2531 25.4666 19.1731 24.7733 18.2931 24.04C18.0544 23.8446 17.8273 23.6353 17.6131 23.4133C18.9223 23.4545 20.2327 23.3966 21.5331 23.24C21.8072 23.1654 22.056 23.0179 22.2531 22.8133C22.5057 22.4757 22.7161 22.1085 22.8798 21.72C23.1864 21.08 23.4931 20.48 23.8131 19.8666L23.9198 19.7066L23.9998 19.8666C24.3464 20.4666 24.6398 21.08 24.9464 21.72C25.1066 22.109 25.3221 22.4727 25.5864 22.8C25.7786 23.0041 26.023 23.1517 26.2931 23.2266C27.5975 23.3892 28.9125 23.4516 30.2264 23.4133C30.006 23.6386 29.7699 23.8481 29.5198 24.04C28.7377 24.6646 27.9232 25.2477 27.0798 25.7866C26.8881 25.9127 26.7283 26.0816 26.6131 26.28C26.5764 26.4063 26.5764 26.5404 26.6131 26.6666C26.6585 26.8947 26.7255 27.1179 26.8131 27.3333Z" fill="#1D1C19"/>
<path fill-rule="evenodd" clip-rule="evenodd" d="M6.41311 1.87998C6.28111 1.8534 6.14512 1.8534 6.01311 1.87998C5.74308 1.824 5.46346 1.83482 5.19856 1.9115C4.93366 1.98818 4.69149 2.12841 4.49311 2.31998C3.99978 3.18664 3.90645 3.75998 3.03978 9.59998C2.77311 11.4 2.30645 13.0533 1.98645 14.64C1.66645 16.2266 1.33311 18.0933 0.973115 19.6666C0.637449 20.8295 0.361532 22.0089 0.146448 23.2C0.11393 23.394 0.132481 23.5932 0.200278 23.7779C0.268075 23.9625 0.382782 24.1264 0.533115 24.2533C1.75283 24.735 3.01658 25.0967 4.30645 25.3333C7.63978 26.0666 12.0931 26.84 12.8531 26.9733C12.9568 26.9903 13.0632 26.9684 13.1518 26.9118C13.2404 26.8552 13.3049 26.7679 13.3331 26.6666C13.3447 26.6123 13.3452 26.5561 13.3346 26.5016C13.324 26.447 13.3025 26.3952 13.2713 26.3491C13.2402 26.303 13.2001 26.2637 13.1535 26.2335C13.1068 26.2033 13.0545 26.1828 12.9998 26.1733C12.2398 26 7.83978 25.04 4.55978 24.1733C3.53928 23.9326 2.53322 23.6344 1.54645 23.28C1.69311 22.2933 2.33311 20.1866 2.35978 20.04C2.59978 18.96 2.83978 17.84 3.03978 16.6533C3.73311 12.7333 4.11978 9.19998 5.17312 3.99998C5.17312 3.99998 5.27978 3.33331 5.29312 3.31998C5.44012 3.21627 5.60194 3.13535 5.77311 3.07998C6.07978 3.07998 6.31978 3.07998 6.42645 2.99998C6.74645 2.66664 6.75978 1.95998 6.41311 1.87998Z" fill="#1D1C19"/>
<path fill-rule="evenodd" clip-rule="evenodd" d="M23.9998 12.2133C24.1064 11.76 24.1864 11.32 24.2531 10.88C24.3198 10.44 24.3864 9.98664 24.4398 9.54664C24.5464 8.58664 24.5998 7.58664 24.7064 6.37331C24.7262 6.29905 24.7262 6.2209 24.7064 6.14664C24.7064 6.14664 24.8131 6.05331 24.8265 5.97331C24.8503 5.86022 24.8287 5.74229 24.7664 5.64499C24.704 5.54769 24.6058 5.47884 24.4931 5.45331C24.123 5.24546 23.715 5.11397 23.2931 5.06664C22.9064 5.06664 22.4531 5.73331 22.7464 6.05331C22.8686 6.20681 23.0454 6.30714 23.2398 6.33331H23.8798C23.6131 7.46664 23.3598 8.42664 23.1465 9.33331C23.0531 9.78664 22.9598 10.2266 22.8798 10.6666C22.7998 11.1066 22.7331 11.5466 22.6798 12C22.5864 12.9466 22.1731 15.3466 22.0798 16.56C22.071 16.609 22.072 16.6593 22.0827 16.7079C22.0934 16.7566 22.1135 16.8026 22.142 16.8435C22.1705 16.8843 22.2067 16.9192 22.2487 16.946C22.2906 16.9729 22.3374 16.9912 22.3864 17C22.4355 17.0087 22.4857 17.0077 22.5344 16.9971C22.583 16.9864 22.6291 16.9662 22.67 16.9378C22.7108 16.9093 22.7457 16.873 22.7725 16.8311C22.7994 16.7892 22.8177 16.7423 22.8265 16.6933C22.8131 16.3466 23.8398 12.64 23.9998 12.2133Z" fill="#1D1C19"/>
<path fill-rule="evenodd" clip-rule="evenodd" d="M27.6398 5.07998C27.5252 4.59453 27.3069 4.13965 26.9998 3.74664C26.6743 3.29735 26.2295 2.9481 25.7158 2.73839C25.2022 2.52868 24.6401 2.46688 24.0931 2.55998L23.5998 2.46664C22.0931 2.15998 20.9998 1.81331 19.5064 1.47998C18.9731 1.35998 18.3864 1.26664 17.7064 1.14664C17.0264 1.02664 16.0931 0.879975 15.3064 0.799975C9.61311 0.186642 9.41311 -0.386691 7.99978 0.946642C7.82101 1.09892 7.66794 1.27901 7.54645 1.47998C6.49311 3.06664 6.29312 5.81331 4.33312 16.2133C4.17312 17.0133 3.67978 18.28 3.51978 19.4C3.396 19.9486 3.396 20.518 3.51978 21.0666C3.62899 21.2965 3.79101 21.4972 3.99261 21.6525C4.19421 21.8077 4.42968 21.9131 4.67978 21.96C6.18645 22.3866 9.69311 22.5333 12.4798 23.08C12.535 23.0938 12.5924 23.0965 12.6486 23.0878C12.7048 23.0791 12.7587 23.0593 12.8072 23.0295C12.8556 22.9997 12.8976 22.9605 12.9307 22.9142C12.9638 22.8679 12.9873 22.8155 12.9998 22.76C13.0241 22.6487 13.0043 22.5324 12.9447 22.4354C12.885 22.3385 12.79 22.2684 12.6798 22.24C10.7198 21.7466 8.38645 21.4266 6.67978 21.0933C5.74645 20.92 4.50645 20.8266 4.73312 20.5466C4.73312 20.48 4.81312 20.64 4.82645 20.6933C4.74689 20.1939 4.78339 19.683 4.93312 19.2C5.14645 18.24 5.50645 17.2133 5.66645 16.5333C5.91978 15.4 6.22645 14.2666 6.39978 13.12C7.73312 4.11998 7.11978 5.11998 8.25311 2.87998C8.43027 2.53314 8.64488 2.20675 8.89312 1.90664C9.23335 1.47407 9.69909 1.15737 10.2264 0.999975C11.3864 1.33331 12.5331 1.61331 13.7064 1.85331C14.8798 2.09331 16.1331 2.27998 17.4131 2.53331C19.2931 2.77331 20.5064 3.02664 21.8664 3.22664L22.4264 3.30664C20.7998 4.63998 20.8398 5.37331 19.5731 9.97331C19.4664 10.3866 19.3731 10.7866 19.2931 11.2C19.2131 11.6133 19.1598 12.0133 19.1064 12.4266C18.9731 13.4 18.4131 17.6 18.3331 18.5733C18.3183 18.6826 18.3464 18.7935 18.4116 18.8825C18.4767 18.9715 18.5738 19.0319 18.6825 19.0509C18.7912 19.0698 18.903 19.046 18.9945 18.9843C19.086 18.9226 19.15 18.8279 19.1731 18.72C19.4264 17.7733 20.1998 13.6266 20.5064 12.6933C20.6131 12.2933 20.7064 11.88 20.7864 11.48C20.8664 11.08 20.9598 10.6666 20.9998 10.2533C21.3598 6.91998 22.4131 4.71998 23.1465 4.17331C23.3429 3.99774 23.5755 3.86743 23.8278 3.79158C24.0801 3.71573 24.3459 3.69619 24.6066 3.73433C24.8673 3.77248 25.1164 3.86739 25.3364 4.01236C25.5564 4.15732 25.7419 4.34881 25.8798 4.57331C26.1011 4.87825 26.2348 5.23788 26.2664 5.61331C26.3119 6.05659 26.3119 6.50336 26.2664 6.94664C26.2664 7.74664 26.1465 8.57331 26.0398 9.39998C25.9399 10.2201 25.7975 11.0346 25.6131 11.84L25.2131 13.48C25.1713 13.5832 25.14 13.6904 25.1198 13.8H24.7864C24.6034 13.7884 24.4234 13.7479 24.2531 13.68C23.8531 13.68 23.5598 14.28 24.2531 14.56C24.461 14.6809 24.6934 14.7538 24.9331 14.7733C25.241 14.7961 25.5494 14.7363 25.8265 14.6C25.9497 14.5401 26.0452 14.4351 26.0931 14.3066C26.1555 14.1238 26.2045 13.9366 26.2398 13.7466L26.7598 12.1466C27.0171 11.3149 27.2264 10.4691 27.3864 9.61331C27.5464 8.74664 27.6398 7.87998 27.7198 7.03998C27.7823 6.38604 27.7554 5.72664 27.6398 5.07998Z" fill="#1D1C19"/>
<path fill-rule="evenodd" clip-rule="evenodd" d="M19.6664 6.93331C19.6827 6.87903 19.688 6.82206 19.682 6.76572C19.6761 6.70937 19.6589 6.65478 19.6316 6.60513C19.6043 6.55549 19.5674 6.51177 19.523 6.47655C19.4786 6.44133 19.4277 6.41529 19.3731 6.39998C18.1598 5.98664 16.9331 5.58664 15.6798 5.27998C14.6055 5.01946 13.5137 4.83676 12.4131 4.73331C11.0798 4.63998 9.83978 4.65331 8.55978 4.73331C8.4593 4.72585 8.35987 4.7579 8.28267 4.82265C8.20547 4.8874 8.1566 4.97973 8.14645 5.07998C8.14283 5.13009 8.14937 5.18043 8.16567 5.22796C8.18197 5.27549 8.2077 5.31924 8.24132 5.35659C8.27493 5.39394 8.31574 5.42412 8.3613 5.44532C8.40686 5.46653 8.45623 5.47831 8.50645 5.47998C9.93312 5.69331 11.3331 5.99998 12.7598 6.25331C13.6131 6.41331 14.4664 6.51998 15.3064 6.65331C16.6398 6.85331 17.8798 7.02664 19.1464 7.29331C19.2045 7.30685 19.2647 7.30809 19.3232 7.29694C19.3817 7.2858 19.4373 7.26252 19.4863 7.22861C19.5353 7.19469 19.5766 7.1509 19.6076 7.10004C19.6387 7.04918 19.6587 6.99238 19.6664 6.93331Z" fill="#1D1C19"/>
<path fill-rule="evenodd" clip-rule="evenodd" d="M17.0798 11.2533C17.1045 11.2008 17.1186 11.1439 17.1212 11.086C17.1238 11.028 17.115 10.9701 17.0952 10.9156C17.0753 10.8611 17.0449 10.811 17.0057 10.7683C16.9664 10.7255 16.9191 10.691 16.8664 10.6666C16.5902 10.5183 16.2999 10.3977 15.9998 10.3066C15.5598 10.1733 15.0931 10.08 14.6664 9.97331C14.2398 9.86664 13.9864 9.82664 13.6398 9.77331C13.0962 9.70261 12.5477 9.67586 11.9998 9.69331C11.1188 9.7457 10.2465 9.89779 9.39978 10.1466C9.35075 10.1536 9.30359 10.1702 9.26097 10.1955C9.21836 10.2207 9.18113 10.2541 9.15142 10.2937C9.1217 10.3333 9.10008 10.3784 9.08779 10.4264C9.0755 10.4744 9.07278 10.5243 9.07978 10.5733C9.08679 10.6223 9.10338 10.6695 9.12861 10.7121C9.15384 10.7547 9.18722 10.792 9.22684 10.8217C9.26646 10.8514 9.31155 10.873 9.35952 10.8853C9.4075 10.8976 9.45742 10.9003 9.50645 10.8933H10.4931C11.1598 10.8933 11.8264 11.0533 12.4398 11.12C13.0531 11.1866 13.7731 11.12 14.3998 11.2533H15.7331C15.9911 11.2739 16.246 11.3231 16.4931 11.4C16.5911 11.4551 16.7065 11.4707 16.8156 11.4434C16.9247 11.4161 17.0193 11.3481 17.0798 11.2533Z" fill="#1D1C19"/>
<path fill-rule="evenodd" clip-rule="evenodd" d="M13.5731 14.56C13.2154 14.4489 12.8499 14.3642 12.4798 14.3066C12.1101 14.2359 11.7358 14.1913 11.3598 14.1733C10.4688 14.1499 9.57732 14.1944 8.69312 14.3066C8.60452 14.3233 8.52454 14.3704 8.46699 14.4398C8.40944 14.5092 8.37794 14.5965 8.37794 14.6866C8.37794 14.7768 8.40944 14.8641 8.46699 14.9335C8.52454 15.0029 8.60452 15.05 8.69312 15.0666C9.66645 15.2 10.5731 15.44 11.5064 15.6133C12.0798 15.72 12.6264 15.7866 13.1998 15.88C14.0398 16 14.8931 16.1066 15.7331 16.2933C15.8428 16.3271 15.9613 16.3168 16.0634 16.2645C16.1655 16.2122 16.2432 16.122 16.2798 16.0133C16.3136 15.9037 16.3033 15.7852 16.2509 15.683C16.1986 15.5809 16.1085 15.5033 15.9998 15.4666C15.2104 15.1145 14.4 14.8117 13.5731 14.56Z" fill="#1D1C19"/>
</svg>
