<svg width="30" height="32" viewBox="0 0 30 32" fill="none" xmlns="http://www.w3.org/2000/svg">
<path fill-rule="evenodd" clip-rule="evenodd" d="M19.8001 2.66665C19.9068 3.21332 19.8801 3.70665 20.4001 3.71999C20.9201 3.73332 20.8668 3.33332 21.1468 2.67999C22.1068 2.50665 22.4801 2.58665 22.4801 2.11999C22.4801 1.65332 22.0801 1.53332 21.3201 1.26665C21.0935 0.119986 20.9868 -0.0666809 20.6801 -0.0666809C20.3735 -0.0666809 20.3068 0.133319 19.8535 1.03999C18.4401 1.26665 18.3201 1.41332 18.2801 1.69332C18.2401 1.97332 18.2135 2.26665 19.8001 2.66665Z" fill="#1D1C19"/>
<path fill-rule="evenodd" clip-rule="evenodd" d="M27.7068 18.5333C27.4401 17.8533 27.4268 17.3467 26.9468 17.4C26.4668 17.4533 26.6001 17.7733 26.3868 18.6133H26.2668C24.3335 19.1467 24.4268 19.3867 24.4401 19.5867C24.4535 19.7867 24.6801 20.0933 26.3468 20.2133C26.7868 22.1067 27.1735 21.96 27.3468 21.9467C27.5201 21.9333 27.8668 21.7333 27.9735 20.0667V20C29.3068 19.6133 29.6268 19.6267 29.6135 19.1333C29.6001 18.64 29.4401 18.6667 27.7068 18.5333Z" fill="#1D1C19"/>
<path fill-rule="evenodd" clip-rule="evenodd" d="M5.92013 10.6667C5.51501 10.6885 5.11525 10.7694 4.73346 10.9067C4.5585 10.9854 4.40524 11.1054 4.2868 11.2563C4.16837 11.4072 4.0883 11.5847 4.05346 11.7733C3.94195 12.4116 3.8884 13.0587 3.89346 13.7067C3.89346 15.12 3.80013 16.5333 3.81346 17.96C3.81346 18.92 3.81346 19.88 3.93346 20.8267C4.0268 22.16 3.93346 25.36 4.01346 26.7467C3.99748 26.9819 3.99748 27.218 4.01346 27.4533C4.02511 27.6028 4.07717 27.7462 4.16407 27.8683C4.25097 27.9905 4.36944 28.0867 4.5068 28.1467C5.22491 28.3015 5.95917 28.3687 6.69346 28.3467C8.97346 28.3467 12.6801 28.2667 14.1468 28.2267L18.0801 28.04C18.0801 28.04 18.8535 28.04 19.1335 27.9733C19.2871 27.9596 19.4314 27.894 19.5429 27.7874C19.6543 27.6808 19.7262 27.5395 19.7468 27.3867C19.7704 26.9425 19.7704 26.4974 19.7468 26.0533C19.6668 25.0133 19.4935 23.84 19.3868 23.0667C19.3802 23 19.3603 22.9353 19.3285 22.8763C19.2967 22.8173 19.2535 22.7653 19.2014 22.7231C19.1493 22.6809 19.0894 22.6495 19.0251 22.6307C18.9608 22.6118 18.8934 22.6059 18.8268 22.6133C18.691 22.63 18.5673 22.6996 18.4824 22.8069C18.3976 22.9142 18.3584 23.0507 18.3735 23.1867C18.3735 23.84 18.5468 24.8 18.6001 25.72V26.72L18.0535 26.84H14.1468C13.0268 26.84 10.6535 26.84 8.5868 26.76C7.37346 26.76 6.28013 26.76 5.68013 26.68C5.68013 25.2533 5.68013 22 5.60013 20.68C5.52013 19.76 5.49346 18.84 5.4668 17.92V13.6933C5.44013 11.7467 4.33346 12.2933 8.4668 11.92L16.6268 11.3867C16.747 11.3778 16.8588 11.3216 16.9376 11.2303C17.0164 11.139 17.0556 11.0202 17.0468 10.9C17.038 10.7798 16.9817 10.668 16.8904 10.5892C16.7992 10.5104 16.6804 10.4711 16.5601 10.48L8.33346 10.6667H5.92013Z" fill="#1D1C19"/>
<path fill-rule="evenodd" clip-rule="evenodd" d="M2.1868 14.3867C2.1868 12.48 2.3468 10.5867 2.5468 8.69332H2.7068C3.40666 8.56933 4.11604 8.50687 4.8268 8.50665C5.29346 8.50665 5.77346 8.50665 6.25346 8.42665C9.81346 7.99999 8.33346 8.49332 9.53346 6.83999C9.70238 6.58332 9.91439 6.35778 10.1601 6.17332C10.4284 5.94663 10.7356 5.77044 11.0668 5.65332C11.2598 5.56729 11.4688 5.52283 11.6801 5.52283C11.8915 5.52283 12.1004 5.56729 12.2935 5.65332C13.1453 6.1627 13.7774 6.97059 14.0668 7.91999C14.0838 7.98508 14.1136 8.04614 14.1544 8.0996C14.1952 8.15306 14.2463 8.19785 14.3047 8.23136C14.363 8.26488 14.4274 8.28643 14.4942 8.29478C14.5609 8.30313 14.6287 8.2981 14.6935 8.27999C14.8132 8.23213 14.9108 8.14151 14.9675 8.02571C15.0242 7.90992 15.0358 7.77721 15.0001 7.65332C14.9055 6.86705 14.6106 6.11824 14.1437 5.47858C13.6768 4.83891 13.0535 4.3298 12.3335 3.99999C11.9694 3.89309 11.5872 3.86279 11.2108 3.91098C10.8345 3.95917 10.4722 4.08481 10.1468 4.27999C9.76305 4.50488 9.42038 4.79344 9.13346 5.13332C8.84035 5.4869 8.61032 5.88832 8.45346 6.31999C8.35947 6.57773 8.27935 6.84033 8.21346 7.10665C7.67092 6.96558 7.11809 6.8675 6.56013 6.81332C6.23623 6.78666 5.91069 6.78666 5.5868 6.81332C5.25506 6.84066 4.92547 6.88966 4.60013 6.95999C1.60013 7.65332 1.24013 6.95999 0.60013 15.4267C0.506797 16.5067 0.466797 17.5867 0.466797 18.6667V21.8933C0.613464 24.4 0.88013 26.8933 1.1868 29.3867C1.19177 29.4545 1.21035 29.5206 1.24144 29.5812C1.27253 29.6417 1.31549 29.6953 1.36775 29.7388C1.42001 29.7824 1.4805 29.815 1.54563 29.8346C1.61075 29.8543 1.67917 29.8607 1.7468 29.8533C1.87873 29.8368 1.99972 29.7715 2.08605 29.6704C2.17238 29.5693 2.21782 29.4395 2.21346 29.3067C2.08013 26.3333 2.08013 23.36 2.12013 20.3733V16.8267C2.17346 16 2.17346 15.1733 2.1868 14.3867Z" fill="#1D1C19"/>
<path fill-rule="evenodd" clip-rule="evenodd" d="M22.3868 18.8667C22.3756 18.8079 22.3529 18.7519 22.32 18.702C22.2871 18.652 22.2447 18.6091 22.1951 18.5756C22.1455 18.5422 22.0898 18.5188 22.0312 18.507C21.9725 18.4952 21.9121 18.495 21.8535 18.5067C21.7365 18.5324 21.6339 18.6021 21.5668 18.7014C21.4998 18.8006 21.4736 18.9219 21.4935 19.04C21.6094 20.4904 21.6317 21.9467 21.5601 23.4C21.5601 24.36 21.5601 25.32 21.4935 26.2667C21.4542 27.2982 21.3248 28.3243 21.1068 29.3333C21.0683 29.4642 21.0813 29.6049 21.1433 29.7264C21.2053 29.8479 21.3115 29.9411 21.4401 29.9867C21.5692 30.0247 21.708 30.0112 21.8274 29.9491C21.9467 29.8869 22.0373 29.7809 22.0801 29.6533C22.5797 28.4556 22.9334 27.2022 23.1335 25.92C23.2231 25.3733 23.2722 24.8206 23.2801 24.2667C23.3132 23.716 23.3132 23.1639 23.2801 22.6133C23.0892 21.3413 22.7903 20.0879 22.3868 18.8667Z" fill="#1D1C19"/>
<path fill-rule="evenodd" clip-rule="evenodd" d="M20.5468 29.96C19.5028 30.1785 18.44 30.2946 17.3735 30.3067C15.7335 30.3067 14.0535 30.3067 12.4801 30.24C11.6668 30.24 10.8668 30.24 10.0668 30.3333C8.8668 30.4 7.6668 30.52 6.4668 30.56H3.9068C3.8472 30.5526 3.78672 30.557 3.72887 30.5732C3.67102 30.5893 3.61695 30.6168 3.56981 30.654C3.52267 30.6912 3.48339 30.7375 3.45426 30.79C3.42514 30.8425 3.40673 30.9003 3.40013 30.96C3.39223 31.0775 3.42907 31.1937 3.50326 31.2852C3.57745 31.3767 3.6835 31.4368 3.80013 31.4533C5.2475 31.6944 6.7078 31.8503 8.17346 31.92C8.76013 31.92 9.33346 31.92 9.92013 32H12.5068C14.1201 31.92 15.8135 31.8933 17.4935 31.6933C18.6196 31.5607 19.731 31.3241 20.8135 30.9867C20.946 30.9493 21.0583 30.861 21.1257 30.7411C21.1932 30.6211 21.2104 30.4793 21.1735 30.3467C21.1578 30.2801 21.1291 30.2172 21.0891 30.1617C21.0491 30.1063 20.9986 30.0592 20.9404 30.0233C20.8821 29.9874 20.8174 29.9633 20.7499 29.9524C20.6824 29.9416 20.6133 29.9441 20.5468 29.96Z" fill="#1D1C19"/>
<path fill-rule="evenodd" clip-rule="evenodd" d="M24.9201 14.2267C25.0001 14.2267 25.0535 14.4133 25.1468 14.5067C25.2524 14.6171 25.3737 14.7115 25.5068 14.7867C25.6878 14.8518 25.8858 14.8518 26.0668 14.7867C26.1839 14.7563 26.2932 14.7013 26.3875 14.6254C26.4817 14.5496 26.5587 14.4546 26.6135 14.3467C26.7687 14.0584 26.8597 13.74 26.8801 13.4133C26.9142 12.8805 26.9142 12.3461 26.8801 11.8133C26.8801 11.1867 26.8801 10.56 26.7335 9.94665C26.5468 8.50665 26.2268 7.10665 25.9601 5.67999C25.923 5.5596 25.8423 5.45739 25.7338 5.39329C25.6253 5.3292 25.4968 5.30782 25.3735 5.33332C25.2656 5.35054 25.1664 5.40308 25.0916 5.48272C25.0168 5.56235 24.9706 5.66456 24.9601 5.77332C23.7201 6.06665 22.4535 6.15999 21.1868 6.35999C20.6001 6.46665 20.0135 6.59999 19.4535 6.74665C18.8903 6.89552 18.3482 7.11504 17.8401 7.39999C17.5901 7.5339 17.3892 7.74409 17.2668 7.99999C17.2278 8.12444 17.2233 8.25717 17.2538 8.38398C17.2843 8.51079 17.3487 8.62693 17.4401 8.71999L17.8401 9.02665L19.1735 10.04C19.1735 10.04 19.0668 10.04 19.0401 10.1467C18.3735 11.1867 17.7068 12.24 17.0401 13.2667C16.5868 13.9333 16.1201 14.6 15.6268 15.2267C15.6268 15.2267 15.3201 15.8533 15.0401 16.24C14.5468 15.9067 14.0668 15.5467 13.5601 15.2133C13.2648 15.0126 12.9576 14.8301 12.6401 14.6667C12.3135 14.4764 11.975 14.3071 11.6268 14.16C11.5045 14.1079 11.373 14.0811 11.2401 14.0811C11.1072 14.0811 10.9757 14.1079 10.8535 14.16C10.5587 14.3356 10.3007 14.5665 10.0935 14.84C9.73346 15.2933 9.4268 15.9067 9.16013 16.2667L6.08013 20.8933C6.01217 20.9909 5.98527 21.1113 6.00522 21.2285C6.02517 21.3457 6.09038 21.4504 6.1868 21.52C6.28647 21.5887 6.40895 21.616 6.52837 21.5961C6.64778 21.5762 6.75479 21.5106 6.8268 21.4133C7.25346 20.8444 7.69791 20.2844 8.16013 19.7333C8.89346 18.9067 9.6668 18.1067 10.3735 17.3333C10.6268 17.0533 10.9335 16.6 11.2535 16.2L11.4801 15.96C11.6535 16.08 11.8401 16.2533 11.8801 16.28L14.6135 18.04C14.8176 18.1374 15.0487 18.1627 15.269 18.1119C15.4894 18.061 15.686 17.937 15.8268 17.76C16.2248 17.2705 16.5943 16.7586 16.9335 16.2267C17.3868 15.52 17.8268 14.8 18.2668 14.0533C18.8801 12.96 19.4268 11.8533 20.0135 10.76C20.0428 10.6927 20.058 10.6201 20.058 10.5467C20.058 10.4732 20.0428 10.4006 20.0135 10.3333H20.1201C20.2048 10.2483 20.2524 10.1333 20.2524 10.0133C20.2524 9.89336 20.2048 9.77829 20.1201 9.69332L19.1468 8.59999C19.4535 8.51999 19.7601 8.46665 19.9068 8.43999C20.8135 8.17332 21.7468 7.97332 22.6801 7.71999C23.4649 7.50141 24.2352 7.23423 24.9868 6.91999L25.1601 11.9867V12.88C24.9896 12.7798 24.8289 12.6637 24.6801 12.5333C24.3702 12.2903 24.0844 12.0179 23.8268 11.72C23.7948 11.6712 23.7531 11.6295 23.7043 11.5975C23.6555 11.5655 23.6007 11.5438 23.5432 11.5338C23.4858 11.5238 23.4268 11.5257 23.3701 11.5394C23.3134 11.5531 23.2601 11.5782 23.2135 11.6133C23.1297 11.6704 23.0699 11.7563 23.0453 11.8546C23.0207 11.9529 23.0331 12.0569 23.0801 12.1467C21.8935 13.6667 20.6935 15.2 19.4401 16.68C18.6135 17.6533 17.7735 18.6 16.8668 19.5067C14.4268 21.88 15.8135 21.2 13.2268 19.88C12.914 19.7236 12.5883 19.5942 12.2535 19.4933C12.1302 19.4616 12.0013 19.4583 11.8766 19.4837C11.7518 19.5092 11.6345 19.5626 11.5335 19.64C10.7274 20.305 9.96159 21.0174 9.24013 21.7733C8.1868 22.8933 7.1868 24.08 6.16013 25.1867C6.07545 25.2716 6.02791 25.3867 6.02791 25.5067C6.02791 25.6266 6.07545 25.7417 6.16013 25.8267C6.24892 25.9091 6.36562 25.955 6.4868 25.955C6.60798 25.955 6.72467 25.9091 6.81346 25.8267C7.9068 24.8133 9.00013 23.7333 10.1601 22.72C10.7596 22.1848 11.3872 21.6819 12.0401 21.2133C12.1868 21.28 12.4135 21.32 12.4401 21.3467C12.9601 21.64 13.5068 22.1067 14.0535 22.4667C14.3512 22.6644 14.6741 22.8214 15.0135 22.9333C15.2291 23.0096 15.4644 23.0096 15.6801 22.9333C15.9427 22.7755 16.1924 22.5972 16.4268 22.4L18.1068 20.7067C18.9868 19.72 19.8001 18.68 20.5868 17.6267C21.6668 16.1467 22.6801 14.6133 23.7068 13.0933C23.7868 13.1867 23.8401 13.2933 23.9201 13.3867C24.2311 13.6922 24.5655 13.9731 24.9201 14.2267Z" fill="#1D1C19"/>
</svg>
