<svg width="32" height="32" viewBox="0 0 32 32" fill="none" xmlns="http://www.w3.org/2000/svg">
<path fill-rule="evenodd" clip-rule="evenodd" d="M30.6664 24.5466C31.2442 24.0962 31.6491 23.4605 31.8131 22.7466C31.8204 22.5649 31.756 22.3876 31.6338 22.2529C31.5116 22.1182 31.3414 22.0369 31.1598 22.0266H30.6931C29.3027 22.0583 27.9119 21.9826 26.5331 21.7999L26.1198 21.0399C25.7998 20.3866 25.4931 19.7066 25.1598 19.1199C24.8265 18.5332 24.6798 18.2666 24.3998 17.7866C24.3289 17.6927 24.2373 17.6165 24.132 17.5641C24.0267 17.5117 23.9107 17.4844 23.7931 17.4844C23.6755 17.4844 23.5595 17.5117 23.4542 17.5641C23.349 17.6165 23.2573 17.6927 23.1864 17.7866C22.909 18.2168 22.6553 18.6619 22.4264 19.1199C22.0798 19.7332 21.7731 20.3866 21.4531 21.0266L21.0398 21.7866C19.6665 21.98 18.2796 22.0602 16.8931 22.0266H16.4131C16.2304 22.0403 16.0601 22.1244 15.9382 22.2612C15.8163 22.398 15.7524 22.5768 15.7598 22.7599C15.9241 23.4771 16.3346 24.114 16.9198 24.5599C17.8926 25.3378 18.9221 26.042 19.9998 26.6666L19.8664 26.9599C19.6664 27.4799 18.8131 29.1199 18.5331 30.1732C18.425 30.4536 18.3751 30.753 18.3864 31.0533C18.3943 31.1476 18.4221 31.2392 18.4681 31.322C18.514 31.4047 18.5771 31.4768 18.6531 31.5332C18.9449 31.7318 19.2801 31.8572 19.6305 31.899C19.9809 31.9408 20.3362 31.8977 20.6664 31.7733C21.8383 31.3015 22.9138 30.6191 23.8398 29.7599C24.8261 30.5949 25.9433 31.2616 27.1465 31.7332C27.4803 31.8687 27.8414 31.9237 28.2005 31.8935C28.5596 31.8634 28.9065 31.7491 29.2131 31.5599C29.2949 31.5019 29.3625 31.4263 29.411 31.3386C29.4595 31.2508 29.4875 31.1533 29.4931 31.0533C29.5104 30.7483 29.4603 30.4433 29.3464 30.1599C29.0264 29.1199 28.1464 27.4932 27.9464 26.9466C27.9464 26.9466 27.9464 26.7599 27.8798 26.6399L28.1198 26.4933C29.0126 25.904 29.8635 25.2535 30.6664 24.5466ZM26.8131 27.3333C27.4177 28.4489 27.9391 29.6076 28.3731 30.7999C27.8636 30.9518 27.3154 30.9041 26.8398 30.6666C25.8471 30.2136 24.919 29.6307 24.0798 28.9333C24.0008 28.8805 23.908 28.8524 23.8131 28.8524C23.7182 28.8524 23.6254 28.8805 23.5464 28.9333C22.7297 29.6413 21.8351 30.2541 20.8798 30.7599C20.6395 30.8934 20.3727 30.9722 20.0984 30.9907C19.8241 31.0091 19.5491 30.9667 19.2931 30.8666C19.7328 29.6765 20.2632 28.522 20.8798 27.4132C21.0079 27.1695 21.115 26.9152 21.1998 26.6532C21.2292 26.5305 21.2292 26.4026 21.1998 26.2799C21.0876 26.0828 20.927 25.9176 20.7331 25.7999C20.2531 25.4666 19.1731 24.7733 18.2931 24.0399C18.0544 23.8445 17.8273 23.6353 17.6131 23.4132C18.9223 23.4544 20.2327 23.3965 21.5331 23.2399C21.8072 23.1653 22.056 23.0179 22.2531 22.8133C22.5057 22.4756 22.7161 22.1085 22.8798 21.7199C23.1864 21.0799 23.4931 20.4799 23.8131 19.8666L23.9198 19.7066L23.9998 19.8666C24.3464 20.4666 24.6398 21.0799 24.9464 21.7199C25.1066 22.1089 25.3221 22.4727 25.5864 22.7999C25.7786 23.0041 26.023 23.1516 26.2931 23.2266C27.5975 23.3892 28.9125 23.4516 30.2264 23.4132C30.006 23.6386 29.7699 23.848 29.5198 24.0399C28.7377 24.6646 27.9232 25.2476 27.0798 25.7866C26.8881 25.9126 26.7283 26.0815 26.6131 26.2799C26.5764 26.4062 26.5764 26.5403 26.6131 26.6666C26.6585 26.8946 26.7255 27.1179 26.8131 27.3333Z" fill="#1D1C19"/>
<path fill-rule="evenodd" clip-rule="evenodd" d="M6.41311 1.87991C6.28111 1.85334 6.14512 1.85334 6.01311 1.87991C5.74308 1.82394 5.46346 1.83476 5.19856 1.91144C4.93366 1.98812 4.69149 2.12834 4.49311 2.31991C3.99978 3.18658 3.90645 3.75991 3.03978 9.59991C2.77311 11.3999 2.30645 13.0532 1.98645 14.6399C1.66645 16.2266 1.33311 18.0932 0.973115 19.6666C0.637449 20.8295 0.361532 22.0088 0.146448 23.1999C0.11393 23.3939 0.132481 23.5931 0.200278 23.7778C0.268075 23.9625 0.382782 24.1263 0.533115 24.2532C1.75283 24.735 3.01658 25.0967 4.30645 25.3332C7.63978 26.0666 12.0931 26.8399 12.8531 26.9732C12.9568 26.9902 13.0632 26.9683 13.1518 26.9117C13.2404 26.8551 13.3049 26.7678 13.3331 26.6666C13.3447 26.6122 13.3452 26.5561 13.3346 26.5015C13.324 26.447 13.3025 26.3951 13.2713 26.349C13.2402 26.303 13.2001 26.2637 13.1535 26.2335C13.1068 26.2033 13.0545 26.1828 12.9998 26.1732C12.2398 25.9999 7.83978 25.0399 4.55978 24.1732C3.53928 23.9326 2.53322 23.6343 1.54645 23.2799C1.69311 22.2932 2.33311 20.1866 2.35978 20.0399C2.59978 18.9599 2.83978 17.8399 3.03978 16.6532C3.73311 12.7332 4.11978 9.19991 5.17312 3.99991C5.17312 3.99991 5.27978 3.33325 5.29312 3.31991C5.44012 3.2162 5.60194 3.13529 5.77311 3.07991C6.07978 3.07991 6.31978 3.07991 6.42645 2.99991C6.74645 2.66658 6.75978 1.95991 6.41311 1.87991Z" fill="#1D1C19"/>
<path fill-rule="evenodd" clip-rule="evenodd" d="M23.9998 12.2132C24.1064 11.7599 24.1864 11.3199 24.2531 10.8799C24.3198 10.4399 24.3864 9.98658 24.4398 9.54658C24.5464 8.58658 24.5998 7.58658 24.7064 6.37325C24.7262 6.29899 24.7262 6.22084 24.7064 6.14658C24.7064 6.14658 24.8131 6.05325 24.8265 5.97325C24.8503 5.86016 24.8287 5.74223 24.7664 5.64493C24.704 5.54763 24.6058 5.47877 24.4931 5.45325C24.123 5.2454 23.715 5.11391 23.2931 5.06658C22.9064 5.06658 22.4531 5.73325 22.7464 6.05325C22.8686 6.20675 23.0454 6.30708 23.2398 6.33325H23.8798C23.6131 7.46658 23.3598 8.42658 23.1465 9.33325C23.0531 9.78658 22.9598 10.2266 22.8798 10.6666C22.7998 11.1066 22.7331 11.5466 22.6798 11.9999C22.5864 12.9466 22.1731 15.3466 22.0798 16.5599C22.071 16.6089 22.072 16.6592 22.0827 16.7079C22.0934 16.7565 22.1135 16.8026 22.142 16.8434C22.1705 16.8843 22.2067 16.9191 22.2487 16.946C22.2906 16.9728 22.3374 16.9912 22.3864 16.9999C22.4355 17.0087 22.4857 17.0077 22.5344 16.997C22.583 16.9863 22.6291 16.9662 22.67 16.9377C22.7108 16.9092 22.7457 16.873 22.7725 16.831C22.7994 16.7891 22.8177 16.7423 22.8265 16.6932C22.8131 16.3466 23.8398 12.6399 23.9998 12.2132Z" fill="#1D1C19"/>
<path fill-rule="evenodd" clip-rule="evenodd" d="M27.6398 5.07991C27.5252 4.59447 27.3069 4.13959 26.9998 3.74658C26.6743 3.29729 26.2295 2.94804 25.7158 2.73833C25.2022 2.52862 24.6401 2.46682 24.0931 2.55991L23.5998 2.46658C22.0931 2.15991 20.9998 1.81325 19.5064 1.47991C18.9731 1.35991 18.3864 1.26658 17.7064 1.14658C17.0264 1.02658 16.0931 0.879914 15.3064 0.799914C9.61311 0.186581 9.41311 -0.386752 7.99978 0.946581C7.82101 1.09886 7.66794 1.27895 7.54645 1.47991C6.49311 3.06658 6.29312 5.81325 4.33312 16.2132C4.17312 17.0132 3.67978 18.2799 3.51978 19.3999C3.396 19.9486 3.396 20.5179 3.51978 21.0666C3.62899 21.2964 3.79101 21.4972 3.99261 21.6524C4.19421 21.8077 4.42968 21.913 4.67978 21.9599C6.18645 22.3866 9.69311 22.5332 12.4798 23.0799C12.535 23.0938 12.5924 23.0964 12.6486 23.0877C12.7048 23.0791 12.7587 23.0593 12.8072 23.0294C12.8556 22.9996 12.8976 22.9604 12.9307 22.9141C12.9638 22.8678 12.9873 22.8154 12.9998 22.7599C13.0241 22.6487 13.0043 22.5323 12.9447 22.4354C12.885 22.3384 12.79 22.2683 12.6798 22.2399C10.7198 21.7466 8.38645 21.4266 6.67978 21.0932C5.74645 20.9199 4.50645 20.8266 4.73312 20.5466C4.73312 20.4799 4.81312 20.6399 4.82645 20.6932C4.74689 20.1939 4.78339 19.6829 4.93312 19.1999C5.14645 18.2399 5.50645 17.2132 5.66645 16.5332C5.91978 15.3999 6.22645 14.2666 6.39978 13.1199C7.73312 4.11992 7.11978 5.11991 8.25311 2.87991C8.43027 2.53308 8.64488 2.20668 8.89312 1.90658C9.23335 1.47401 9.69909 1.15731 10.2264 0.999914C11.3864 1.33325 12.5331 1.61325 13.7064 1.85325C14.8798 2.09325 16.1331 2.27991 17.4131 2.53325C19.2931 2.77325 20.5064 3.02658 21.8664 3.22658L22.4264 3.30658C20.7998 4.63991 20.8398 5.37325 19.5731 9.97325C19.4664 10.3866 19.3731 10.7866 19.2931 11.1999C19.2131 11.6132 19.1598 12.0132 19.1064 12.4266C18.9731 13.3999 18.4131 17.5999 18.3331 18.5732C18.3183 18.6826 18.3464 18.7934 18.4116 18.8824C18.4767 18.9715 18.5738 19.0318 18.6825 19.0508C18.7912 19.0698 18.903 19.0459 18.9945 18.9842C19.086 18.9225 19.15 18.8278 19.1731 18.7199C19.4264 17.7732 20.1998 13.6266 20.5064 12.6932C20.6131 12.2932 20.7064 11.8799 20.7864 11.4799C20.8664 11.0799 20.9598 10.6666 20.9998 10.2532C21.3598 6.91991 22.4131 4.71991 23.1465 4.17325C23.3429 3.99768 23.5755 3.86737 23.8278 3.79152C24.0801 3.71567 24.3459 3.69612 24.6066 3.73427C24.8673 3.77242 25.1164 3.86733 25.3364 4.0123C25.5564 4.15726 25.7419 4.34875 25.8798 4.57325C26.1011 4.87819 26.2348 5.23782 26.2664 5.61325C26.3119 6.05653 26.3119 6.5033 26.2664 6.94658C26.2664 7.74658 26.1465 8.57325 26.0398 9.39991C25.9399 10.2201 25.7975 11.0345 25.6131 11.8399L25.2131 13.4799C25.1713 13.5832 25.14 13.6904 25.1198 13.7999H24.7864C24.6034 13.7884 24.4234 13.7479 24.2531 13.6799C23.8531 13.6799 23.5598 14.2799 24.2531 14.5599C24.461 14.6808 24.6934 14.7537 24.9331 14.7732C25.241 14.7961 25.5494 14.7362 25.8265 14.5999C25.9497 14.54 26.0452 14.435 26.0931 14.3066C26.1555 14.1237 26.2045 13.9365 26.2398 13.7466L26.7598 12.1466C27.0171 11.3149 27.2264 10.469 27.3864 9.61325C27.5464 8.74658 27.6398 7.87991 27.7198 7.03991C27.7823 6.38598 27.7554 5.72657 27.6398 5.07991Z" fill="#1D1C19"/>
<path fill-rule="evenodd" clip-rule="evenodd" d="M19.6664 6.93325C19.6827 6.87897 19.688 6.822 19.682 6.76566C19.6761 6.70931 19.6589 6.65472 19.6316 6.60507C19.6043 6.55543 19.5674 6.51171 19.523 6.47649C19.4786 6.44126 19.4277 6.41523 19.3731 6.39991C18.1598 5.98658 16.9331 5.58658 15.6798 5.27991C14.6055 5.0194 13.5137 4.8367 12.4131 4.73325C11.0798 4.63991 9.83978 4.65325 8.55978 4.73325C8.4593 4.72579 8.35987 4.75784 8.28267 4.82259C8.20547 4.88734 8.1566 4.97967 8.14645 5.07991C8.14283 5.13003 8.14937 5.18037 8.16567 5.2279C8.18197 5.27543 8.2077 5.31918 8.24132 5.35653C8.27493 5.39388 8.31574 5.42406 8.3613 5.44526C8.40686 5.46646 8.45623 5.47825 8.50645 5.47991C9.93312 5.69325 11.3331 5.99991 12.7598 6.25325C13.6131 6.41325 14.4664 6.51991 15.3064 6.65325C16.6398 6.85325 17.8798 7.02658 19.1464 7.29325C19.2045 7.30679 19.2647 7.30802 19.3232 7.29688C19.3817 7.28574 19.4373 7.26246 19.4863 7.22855C19.5353 7.19463 19.5766 7.15084 19.6076 7.09998C19.6387 7.04912 19.6587 6.99232 19.6664 6.93325Z" fill="#1D1C19"/>
<path fill-rule="evenodd" clip-rule="evenodd" d="M17.0798 11.2532C17.1045 11.2008 17.1186 11.1439 17.1212 11.0859C17.1238 11.028 17.115 10.9701 17.0952 10.9155C17.0753 10.861 17.0449 10.8109 17.0057 10.7682C16.9664 10.7255 16.9191 10.6909 16.8664 10.6666C16.5902 10.5182 16.2999 10.3977 15.9998 10.3066C15.5598 10.1732 15.0931 10.0799 14.6664 9.97325C14.2398 9.86658 13.9864 9.82658 13.6398 9.77325C13.0962 9.70255 12.5477 9.6758 11.9998 9.69325C11.1188 9.74564 10.2465 9.89772 9.39978 10.1466C9.35075 10.1536 9.30359 10.1702 9.26097 10.1954C9.21836 10.2206 9.18113 10.254 9.15142 10.2936C9.1217 10.3333 9.10008 10.3783 9.08779 10.4263C9.0755 10.4743 9.07278 10.5242 9.07978 10.5732C9.08679 10.6223 9.10338 10.6694 9.12861 10.7121C9.15384 10.7547 9.18722 10.7919 9.22684 10.8216C9.26646 10.8513 9.31155 10.8729 9.35952 10.8852C9.4075 10.8975 9.45742 10.9003 9.50645 10.8932H10.4931C11.1598 10.8932 11.8264 11.0532 12.4398 11.1199C13.0531 11.1866 13.7731 11.1199 14.3998 11.2532H15.7331C15.9911 11.2738 16.246 11.323 16.4931 11.3999C16.5911 11.4551 16.7065 11.4706 16.8156 11.4433C16.9247 11.4161 17.0193 11.348 17.0798 11.2532Z" fill="#1D1C19"/>
<path fill-rule="evenodd" clip-rule="evenodd" d="M13.5731 14.5599C13.2154 14.4488 12.8499 14.3642 12.4798 14.3066C12.1101 14.2358 11.7358 14.1913 11.3598 14.1732C10.4688 14.1498 9.57732 14.1944 8.69312 14.3066C8.60452 14.3232 8.52454 14.3703 8.46699 14.4397C8.40944 14.5091 8.37794 14.5964 8.37794 14.6866C8.37794 14.7767 8.40944 14.864 8.46699 14.9334C8.52454 15.0028 8.60452 15.0499 8.69312 15.0666C9.66645 15.1999 10.5731 15.4399 11.5064 15.6132C12.0798 15.7199 12.6264 15.7866 13.1998 15.8799C14.0398 15.9999 14.8931 16.1066 15.7331 16.2932C15.8428 16.3271 15.9613 16.3167 16.0634 16.2644C16.1655 16.2121 16.2432 16.122 16.2798 16.0132C16.3136 15.9036 16.3033 15.7851 16.2509 15.683C16.1986 15.5809 16.1085 15.5032 15.9998 15.4666C15.2104 15.1144 14.4 14.8116 13.5731 14.5599Z" fill="#1D1C19"/>
</svg>
