<svg width="32" height="32" viewBox="0 0 32 32" fill="none" xmlns="http://www.w3.org/2000/svg">
<path fill-rule="evenodd" clip-rule="evenodd" d="M31.08 10.04C30.4019 9.42792 29.5348 9.06634 28.6227 9.0154C27.7107 8.96446 26.8087 9.22723 26.0667 9.76002C25.4465 10.3138 24.9742 11.0134 24.6925 11.7956C24.4108 12.5779 24.3286 13.418 24.4533 14.24C24.4024 14.3739 24.3253 14.4962 24.2267 14.6C23.5867 13.96 23.4667 13.7067 23.1333 13.5067C22.7688 13.3225 22.3713 13.2124 21.964 13.1827C21.5567 13.1529 21.1475 13.2041 20.76 13.3334C20.3936 13.462 20.089 13.7238 19.9067 14.0667C19.0874 14.4111 18.4166 15.0347 18.0133 15.8267C17.4133 17.2934 18.3467 18.4934 19.16 19.6934C19.5592 20.2878 20.0051 20.8496 20.4933 21.3734C21.8591 22.5535 23.479 23.4022 25.2267 23.8534C25.6325 23.8751 26.0375 23.7979 26.4068 23.6283C26.7761 23.4588 27.0987 23.202 27.3467 22.88C28.2 21.9067 29.2933 20.44 28.9333 19.2534C28.32 17.1734 26.4 17.0934 27.1067 18.1467C27.4665 18.5355 27.7513 18.9876 27.9467 19.48C27.9654 19.6124 27.9562 19.7473 27.9198 19.8759C27.8834 20.0046 27.8204 20.1242 27.7351 20.2272C27.6497 20.3301 27.5438 20.4141 27.4241 20.4737C27.3044 20.5333 27.1736 20.5672 27.04 20.5734C25.92 20.6934 22.7067 18.28 21.7067 16.3334C21.3736 15.8878 21.1333 15.38 21 14.84C21 14.0267 22.3333 14 22.8133 14.2267L23.8 15.1334C23.36 15.5734 22.7733 16.1467 23.1733 16.4667C23.2474 16.536 23.3452 16.5746 23.4467 16.5746C23.5482 16.5746 23.6459 16.536 23.72 16.4667C23.92 15.92 25.1333 15.28 25.4667 14.4534C25.8 13.6267 25.2 12.8267 26.3733 11.32C26.8198 10.7902 27.455 10.4549 28.1444 10.3852C28.8338 10.3155 29.5232 10.5169 30.0667 10.9467C31.2267 12.1734 30.6267 15.1467 28.7333 15.56C28.0133 15.7334 27.4 15.56 26.7333 16.0934C26.4129 16.3942 26.1267 16.7296 25.88 17.0934C25.4933 17.6134 25.0267 18.0667 25.5867 18.3067C26.1467 18.5467 26.2 18.1734 26.6133 17.68C26.8267 17.3905 27.0728 17.1265 27.3467 16.8934C27.7733 16.6 28.36 16.8934 29.2 16.64C29.8212 16.401 30.3783 16.0208 30.8273 15.5296C31.2763 15.0383 31.605 14.4493 31.7873 13.8092C31.9696 13.1691 32.0006 12.4954 31.8779 11.8413C31.7551 11.1871 31.482 10.5705 31.08 10.04ZM22.12 19.3734C23.1067 20.32 25.28 21.88 26.84 21.8267C26.3733 22.3467 25.84 22.8267 25.1867 22.6133C23.1849 21.9471 21.475 20.6093 20.3467 18.8267C19.884 18.3318 19.4854 17.7809 19.16 17.1867C19.0133 16.8977 18.9665 16.5683 19.0268 16.2499C19.0871 15.9315 19.2511 15.642 19.4933 15.4267L19.7067 15.2534C20.0984 16.8416 20.9357 18.2849 22.12 19.4134V19.3734Z" fill="#1D1C19"/>
<path fill-rule="evenodd" clip-rule="evenodd" d="M16.8267 28.8134C15.4615 29.3412 14.038 29.7038 12.5867 29.8934C11.0933 30.0534 9.92 30.4 9.13333 30.3867C9.04 30.3867 8.93333 30.2934 8.89333 30.32C7.09333 26.5867 0.946667 7.02668 0.733333 6.66668C0.695143 6.59776 0.637446 6.54165 0.567482 6.5054C0.497519 6.46914 0.418406 6.45436 0.340073 6.46291C0.261739 6.47145 0.187674 6.50294 0.127173 6.55343C0.0666724 6.60391 0.0224305 6.67115 0 6.74668C0 6.86668 2.96 17.9067 3.29333 19.04C4.50009 23.1109 5.99726 27.09 7.77333 30.9467C8.49333 32.28 10.5733 31.2934 12.7333 30.9467C14.2307 30.6617 15.6927 30.2146 17.0933 29.6134C17.163 29.5549 17.2135 29.4769 17.2382 29.3894C17.263 29.3019 17.2608 29.2089 17.2321 29.1227C17.2033 29.0364 17.1493 28.9608 17.077 28.9056C17.0047 28.8504 16.9175 28.8183 16.8267 28.8134Z" fill="#1D1C19"/>
<path fill-rule="evenodd" clip-rule="evenodd" d="M1.18667 5.81335C5.08883 4.36281 9.10191 3.23023 13.1867 2.42668C14.4204 2.15237 15.6727 1.96965 16.9333 1.88002C16.76 3.21335 15.8133 7.01335 17.7467 7.21335C19.5872 7.1394 21.3371 6.39485 22.6667 5.12002C23.12 7.16002 22.88 6.22668 23.7333 9.33335C23.773 9.42186 23.8435 9.49293 23.9317 9.53334C24.0198 9.57376 24.1197 9.58075 24.2126 9.55303C24.3056 9.52531 24.3853 9.46476 24.4369 9.38265C24.4886 9.30054 24.5086 9.20247 24.4933 9.10668C24.1198 7.57324 23.8349 6.01956 23.64 4.45335C23.4933 3.42668 18.6533 0.226684 16.5733 0.453351C10.4 0.986684 5 3.44002 0.826667 5.00002C0.718812 5.04776 0.634339 5.13639 0.591831 5.24641C0.549322 5.35643 0.552261 5.47883 0.6 5.58668C0.647739 5.69454 0.736368 5.77901 0.846389 5.82152C0.95641 5.86403 1.07881 5.86109 1.18667 5.81335ZM22.0667 4.32002C21.5067 5.10668 19.16 5.65335 18.0667 5.65335C17.8871 4.45769 17.8113 3.24874 17.84 2.04002C19.3398 2.61793 20.76 3.38406 22.0667 4.32002Z" fill="#1D1C19"/>
<path fill-rule="evenodd" clip-rule="evenodd" d="M29.7333 23.88C28.9733 23.88 29.8533 24.9867 28.52 27.44L24.6133 25.9067C24.2533 25.7734 24.4533 25.7334 20.2267 28.5067C19.82 27.2849 19.3437 26.0874 18.8 24.92C18.2533 24.1734 16.36 24.8 13.68 25.2934C15.6 22.4667 15.9333 22.0534 15.3733 21.5333C14.8133 21.0133 11.88 19.2 11.5733 18.7334C11.9067 18.5734 12.4933 18.32 13.08 18.08C14.7333 17.4267 14.9333 17.5867 15.0533 17.1067C15.1733 16.6267 14.76 14.44 14.8533 13.64C15.0133 13.64 14.7067 13.5467 16.96 14.04C17.0767 14.0542 17.1942 14.0214 17.2867 13.9489C17.3793 13.8763 17.4392 13.77 17.4533 13.6534C17.4675 13.5367 17.4347 13.4191 17.3622 13.3266C17.2897 13.2341 17.1834 13.1742 17.0667 13.16C16.3867 13.0667 14.56 12.2 14.08 12.9334C13.8496 14.1376 13.8136 15.371 13.9733 16.5867C12.9652 16.8849 11.9766 17.2456 11.0133 17.6667C10.6133 17.8667 10.1467 17.9334 10.0267 18.4134C9.90667 18.8934 10.4 19.4267 10.8267 19.7467C11.2533 20.0667 13.1333 21.5333 13.9867 22.1733C13.1377 23.299 12.3498 24.4696 11.6267 25.68C11.5347 25.8591 11.5124 26.066 11.5641 26.2605C11.6159 26.4551 11.7379 26.6236 11.9067 26.7334C12.5245 26.9717 13.2089 26.9717 13.8267 26.7334C14.64 26.5867 16.7867 26.0934 17.8267 26.0134C18.8933 28.1467 19.16 30.8134 20.3867 30.0134L24.5733 27L28.5733 28.4C28.6739 28.4382 28.7846 28.4405 28.8866 28.4065C28.9886 28.3725 29.0758 28.3042 29.1333 28.2134C29.8343 26.9988 30.1894 25.6154 30.16 24.2134C30.1467 24.113 30.0945 24.0219 30.0147 23.9595C29.935 23.8972 29.8339 23.8687 29.7333 23.88Z" fill="#1D1C19"/>
<path fill-rule="evenodd" clip-rule="evenodd" d="M13.3333 7.22668C13.4483 7.20193 13.5486 7.13254 13.6124 7.03377C13.6762 6.935 13.6981 6.81495 13.6733 6.70002C13.6486 6.58509 13.5792 6.4847 13.4804 6.42094C13.3816 6.35718 13.2616 6.33526 13.1467 6.36002C10.382 6.86375 7.73347 7.87163 5.33333 9.33335C5.28431 9.34911 5.23886 9.37437 5.1996 9.40769C5.16034 9.44101 5.12802 9.48174 5.10449 9.52755C5.08097 9.57336 5.0667 9.62335 5.0625 9.67468C5.05829 9.72601 5.06424 9.77766 5.08 9.82668C5.09576 9.87571 5.12102 9.92115 5.15434 9.96042C5.18766 9.99968 5.22839 10.032 5.2742 10.0555C5.32001 10.079 5.37001 10.0933 5.42133 10.0975C5.47266 10.1017 5.52431 10.0958 5.57333 10.08C9.86667 9.17335 11.3067 7.84002 13.3333 7.22668Z" fill="#1D1C19"/>
<path fill-rule="evenodd" clip-rule="evenodd" d="M8.41333 13.68C9.45609 13.5937 10.4735 13.3133 11.4133 12.8534C12.0422 12.4595 12.7313 12.1713 13.4533 12C13.5586 11.9818 13.654 11.927 13.7227 11.8452C13.7915 11.7635 13.8292 11.6602 13.8292 11.5534C13.8292 11.4466 13.7915 11.3432 13.7227 11.2615C13.654 11.1797 13.5586 11.1249 13.4533 11.1067C12.8618 11.0568 12.2661 11.1109 11.6933 11.2667C10.9097 11.4459 10.1492 11.7143 9.42667 12.0667C9.76 11.9467 7.28 12.9734 7.22667 13.08C6.93333 13.7734 7.69333 13.8134 8.41333 13.68Z" fill="#1D1C19"/>
</svg>
