<svg width="40" height="40" viewBox="0 0 40 40" fill="none" xmlns="http://www.w3.org/2000/svg">
<path d="M37.7362 17.8877C37.4062 15.0903 37.6012 11.8488 36.8063 9.12534C36.5549 8.08898 36.0877 7.11558 35.4344 6.26705C34.7812 5.41851 33.9563 4.71339 33.012 4.19651C32.2234 3.76795 31.3741 3.45861 30.4925 3.27883C29.1806 3.05413 27.8487 2.96484 26.5182 3.0124L21.4041 3.23442L17.5648 3.45644C14.366 3.51568 11.1911 4.01383 8.13146 4.93657C7.02308 5.21152 6.00919 5.77353 5.19451 6.56455C4.37983 7.35557 3.79391 8.34691 3.49728 9.43617C3.4755 9.55981 3.50434 9.68693 3.57744 9.78961C3.65055 9.89229 3.76197 9.96214 3.88721 9.98381C3.94829 10.0015 4.01241 10.0067 4.07558 9.99894C4.13876 9.9912 4.19966 9.97074 4.25449 9.93882C4.30933 9.90691 4.35694 9.86422 4.39437 9.8134C4.43181 9.76258 4.45826 9.70471 4.47211 9.64338C5.35695 5.203 13.0956 4.87737 17.6398 4.65535L21.4941 4.44813L26.5332 4.30012C28.5381 4.15656 30.5458 4.53958 32.3521 5.41021C33.1133 5.85393 33.773 6.44875 34.2893 7.15702C34.8056 7.8653 35.1673 8.67162 35.3516 9.52497C36.0864 12.1892 35.8465 15.3419 36.1464 18.0653C36.2964 19.5454 36.3714 22.0321 36.3414 24.4743C36.3303 26.616 36.2001 28.7556 35.9515 30.8832C35.8062 31.3786 35.5484 31.8348 35.1975 32.217C34.8467 32.5991 34.4121 32.8973 33.9268 33.0886C31.2464 34.2619 28.3787 34.9632 25.4534 35.1608C20.3538 35.6995 15.2106 35.6995 10.1111 35.1608C8.92159 35.1154 7.7514 34.8493 6.66172 34.3763C4.42712 32.5854 3.49728 29.5659 3.16734 26.2356C2.70243 21.2328 3.63226 15.5343 3.93221 12.056C3.93647 11.9979 3.92826 11.9395 3.90811 11.8847C3.88797 11.8299 3.85634 11.78 3.8153 11.738C3.77425 11.6961 3.72472 11.6633 3.66992 11.6415C3.61512 11.6198 3.5563 11.6097 3.49728 11.612C3.44289 11.6058 3.38781 11.6107 3.33536 11.6261C3.28292 11.6416 3.23419 11.6674 3.19214 11.702C3.15008 11.7366 3.11557 11.7792 3.09069 11.8274C3.0658 11.8755 3.05107 11.9281 3.04736 11.982C2.71742 15.5639 1.69761 21.2476 2.08754 26.3244C2.37249 30.0248 3.43729 33.3403 5.91185 35.3088C7.16741 35.9425 8.53947 36.3201 9.94613 36.4189C15.1587 37.0843 20.4298 37.1786 25.6633 36.7001C28.7741 36.514 31.824 35.7665 34.6617 34.4948C35.3803 34.2008 36.0169 33.7409 36.518 33.1536C37.0191 32.5664 37.37 31.869 37.5412 31.1201C37.8125 28.9045 37.9627 26.6762 37.9911 24.4447C38.0293 22.256 37.9442 20.067 37.7362 17.8877Z" fill="#DA5001"/>
<path d="M17.1298 10.9459C16.6906 10.1791 16.0803 9.52111 15.3452 9.02173C14.8403 8.61795 14.2103 8.39761 13.5605 8.39761C12.9107 8.39761 12.2806 8.61795 11.7758 9.02173C10.6595 10.0916 9.8032 11.3972 9.27125 12.8405C9.06129 13.3585 8.86632 13.8766 8.70135 14.4094C8.53638 14.9422 8.29642 15.8895 8.11646 16.5408C7.60655 16.5408 7.12663 16.5408 7.09664 16.9552C7.06665 17.3697 7.50157 17.4289 7.8915 17.4881C7.72653 18.1837 7.57655 18.8794 7.45657 19.5751C7.2916 20.5199 7.18642 21.474 7.14163 22.4317C7.13544 22.4873 7.14072 22.5436 7.15716 22.5972C7.1736 22.6507 7.20086 22.7004 7.2373 22.7433C7.27374 22.7862 7.31859 22.8213 7.36917 22.8466C7.41974 22.8719 7.47498 22.8869 7.53156 22.8905C7.64208 22.8949 7.75012 22.8575 7.8337 22.786C7.91728 22.7145 7.97013 22.6143 7.98148 22.5057C8.08553 21.5833 8.25085 20.6685 8.47639 19.7675C8.62637 19.0718 8.83633 18.3761 9.04629 17.6805C9.77123 17.7868 10.503 17.8412 11.2359 17.8433C11.9708 17.8433 12.7356 17.7545 13.4555 17.6805C14.5503 17.5621 15.6151 17.3697 16.7099 17.2957C16.8351 17.2925 16.9547 17.244 17.046 17.1594C17.1373 17.0747 17.1938 16.9599 17.2048 16.8368C17.2068 16.7734 17.1959 16.7102 17.1727 16.651C17.1495 16.5918 17.1144 16.5378 17.0697 16.4923C17.0249 16.4467 16.9713 16.4105 16.9121 16.3858C16.8529 16.3611 16.7892 16.3483 16.7249 16.3484C14.7319 16.1218 12.719 16.1218 10.726 16.3484L9.49621 16.452C9.67618 15.9191 9.85615 15.3863 10.0511 14.8534C10.2367 14.3793 10.447 13.9149 10.681 13.4621C11.1273 12.2623 11.8455 11.1789 12.7806 10.2946C13.6955 9.64338 14.6403 10.339 15.4951 11.2271C15.5851 11.4639 16.9949 12.7073 17.3848 17.1476C17.5733 18.8744 17.5733 20.6161 17.3848 22.3429C17.3673 22.4682 17.3998 22.5952 17.4753 22.6973C17.5508 22.7995 17.6635 22.8687 17.7897 22.8905C17.9166 22.9078 18.0454 22.8757 18.1489 22.8012C18.2524 22.7267 18.3225 22.6154 18.3446 22.4909C18.5833 20.7149 18.6336 18.9191 18.4946 17.1328C18.4839 14.9989 18.0189 12.8911 17.1298 10.9459Z" fill="#DA5001"/>
<path d="M30.2675 22.0321C31.3623 21.8248 32.4421 21.5584 33.5069 21.2624C33.5674 21.2486 33.6245 21.2229 33.6747 21.1869C33.725 21.151 33.7675 21.1054 33.7996 21.053C33.8318 21.0006 33.853 20.9423 33.8619 20.8817C33.8709 20.8211 33.8675 20.7593 33.8519 20.7C33.8413 20.6376 33.8178 20.5781 33.7829 20.5251C33.748 20.4721 33.7023 20.4268 33.6488 20.3921C33.5953 20.3573 33.5351 20.3339 33.472 20.3232C33.4088 20.3125 33.3441 20.3148 33.282 20.3299C32.4721 20.4631 31.6322 20.5667 30.7924 20.6407L27.7179 20.848C27.846 20.4464 27.892 20.0238 27.8534 19.6046C27.8148 19.1854 27.6923 18.7779 27.493 18.4058C27.5048 18.3437 27.5026 18.2799 27.4866 18.2189C27.4706 18.1578 27.4411 18.1009 27.4003 18.0524C27.3595 18.0038 27.3084 17.9647 27.2505 17.9379C27.1926 17.9111 27.1295 17.8971 27.0656 17.8971C27.0016 17.8971 26.9385 17.9111 26.8806 17.9379C26.8228 17.9647 26.7716 18.0038 26.7308 18.0524C26.69 18.1009 26.6605 18.1578 26.6445 18.2189C26.6285 18.2799 26.6263 18.3437 26.6381 18.4058C26.4341 18.7887 26.3177 19.2111 26.2969 19.6433C26.2762 20.0755 26.3517 20.5069 26.5182 20.9072C24.1486 21.0848 22.6489 21.2624 20.8792 21.2772C20.8228 21.2732 20.7662 21.2804 20.7127 21.2985C20.6593 21.3166 20.61 21.3452 20.568 21.3825C20.526 21.4198 20.4921 21.4651 20.4682 21.5157C20.4444 21.5663 20.4311 21.6211 20.4293 21.6768C20.4252 21.7325 20.4325 21.7883 20.4509 21.8411C20.4692 21.8939 20.4981 21.9424 20.536 21.9839C20.5738 22.0254 20.6197 22.0589 20.6709 22.0824C20.7222 22.1059 20.7777 22.119 20.8342 22.1209C21.644 22.2245 22.4539 22.3281 23.2787 22.4021V23.009C23.2664 23.3461 23.2916 23.6837 23.3537 24.0154C23.5292 25.0307 23.9174 25.9986 24.4935 26.8573C24.7123 27.1648 24.9529 27.4566 25.2134 27.7306C24.9584 27.9674 24.7035 28.1894 24.4185 28.4114C23.9406 28.8417 23.44 29.2469 22.9188 29.6251C21.959 30.2912 21.4191 30.1136 21.569 30.7056C21.854 31.9637 25.2434 29.5215 26.2932 28.7519C28.0555 30.1117 30.2524 30.8047 32.4871 30.7056C32.6158 30.7057 32.7395 30.6563 32.8319 30.5678C32.9242 30.4794 32.9781 30.3589 32.982 30.232C32.982 30.1685 32.9691 30.1057 32.9441 30.0472C32.919 29.9888 32.8823 29.9359 32.8362 29.8917C32.79 29.8475 32.7353 29.813 32.6754 29.7901C32.6154 29.7671 32.5514 29.7564 32.4871 29.7583C30.6567 29.5844 28.9243 28.8612 27.523 27.6862C29.0778 26.1749 30.0486 24.1749 30.2675 22.0321ZM26.3982 26.6057C26.1715 26.3847 25.9562 26.1525 25.7533 25.91C25.1602 25.2619 24.688 24.5152 24.3585 23.7046C24.2698 23.4665 24.2143 23.2175 24.1936 22.9645V22.4317L25.2884 22.5057H27.208C27.8379 22.5057 28.4978 22.3873 29.1427 22.2837H29.3227C29.0062 23.1773 28.5672 24.0239 28.0179 24.7999C27.5354 25.4497 26.9932 26.0542 26.3982 26.6057Z" fill="#DA5001"/>
<path d="M15.8401 30.528C15.3088 30.3425 14.8045 30.0887 14.3403 29.7731C12.9384 28.8818 11.9185 27.5117 11.4759 25.9248L15.6001 27.4049C15.6488 27.4327 15.7028 27.4502 15.7587 27.4562C15.8146 27.4623 15.8711 27.4567 15.9247 27.44C15.9783 27.4233 16.0278 27.3958 16.0701 27.3592C16.1123 27.3225 16.1463 27.2776 16.17 27.2273C16.1955 27.1779 16.2106 27.124 16.2145 27.0687C16.2185 27.0134 16.2111 26.9579 16.193 26.9054C16.1748 26.853 16.1461 26.8047 16.1087 26.7634C16.0713 26.722 16.0258 26.6886 15.9751 26.6649C9.79616 23.3198 10.831 22.8313 8.94131 27.7602C8.73135 28.2782 8.52138 28.7815 8.28143 29.2403C8.2509 29.2957 8.23173 29.3565 8.22501 29.4192C8.21828 29.4819 8.22414 29.5453 8.24224 29.6058C8.26035 29.6663 8.29034 29.7226 8.33052 29.7716C8.3707 29.8207 8.42026 29.8614 8.47639 29.8916C8.53252 29.9217 8.59412 29.9406 8.65766 29.9472C8.7212 29.9539 8.78544 29.9481 8.84671 29.9302C8.90799 29.9124 8.9651 29.8828 9.01478 29.8431C9.06446 29.8035 9.10575 29.7545 9.13627 29.6991C9.51121 29.1071 9.87114 28.5298 10.2161 27.923C10.3661 27.6566 10.516 27.3753 10.651 27.0941C10.7125 27.3155 10.7876 27.533 10.876 27.7454C11.3853 29.0612 12.2646 30.2063 13.4105 31.0461C16.41 33.1626 20.9092 31.7565 20.2793 30.7648C19.6494 29.7731 19.3644 31.8453 15.8401 30.528Z" fill="#DA5001"/>
<path d="M31.3773 10.191C31.3214 10.16 31.2597 10.1404 31.196 10.1333C31.1322 10.1262 31.0677 10.1318 31.0062 10.1497C30.9447 10.1676 30.8874 10.1976 30.8378 10.2377C30.7882 10.2779 30.7473 10.3274 30.7174 10.3834C30.1664 11.2221 29.6656 12.092 29.2177 12.9885C28.7673 11.3977 27.7906 10.0014 26.4432 9.02173C25.8505 8.62283 25.1902 8.33206 24.4935 8.16325C23.7038 7.95139 22.8792 7.89724 22.0679 8.00399C21.2567 8.11074 20.4753 8.37623 19.7694 8.78491C19.7211 8.81212 19.6788 8.84845 19.6447 8.89181C19.6107 8.93518 19.5857 8.98473 19.5711 9.03765C19.5415 9.14451 19.5562 9.25858 19.6119 9.35476C19.6676 9.45093 19.7597 9.52134 19.868 9.55049C19.9763 9.57963 20.0918 9.56513 20.1893 9.51017C21.0896 9.23232 22.0437 9.16793 22.9739 9.32224C23.9042 9.47654 24.7845 9.84519 25.5433 10.3983C26.905 11.252 27.9108 12.5598 28.3778 14.0838L24.2536 12.6036C24.2033 12.5793 24.1488 12.5651 24.0929 12.5616C24.0371 12.5581 23.9812 12.5655 23.9282 12.5834C23.8753 12.6012 23.8265 12.6292 23.7845 12.6657C23.7426 12.7022 23.7083 12.7465 23.6837 12.7961C23.6591 12.8456 23.6446 12.8995 23.641 12.9546C23.6375 13.0097 23.645 13.0649 23.6631 13.1171C23.6812 13.1694 23.7096 13.2176 23.7466 13.259C23.7835 13.3004 23.8284 13.3342 23.8786 13.3585L27.388 15.3123C30.2075 16.674 29.2927 15.8303 31.5723 10.7091C31.5988 10.6135 31.5942 10.512 31.5593 10.4191C31.5243 10.3261 31.4606 10.2464 31.3773 10.191Z" fill="#DA5001"/>
</svg>
