<svg width="32" height="28" viewBox="0 0 32 28" fill="none" xmlns="http://www.w3.org/2000/svg">
<path fill-rule="evenodd" clip-rule="evenodd" d="M12.9863 22.3733C12.4417 22.2539 11.9068 22.0935 11.3863 21.8933C10.8765 21.7029 10.3891 21.457 9.933 21.16C9.13998 20.6572 8.48227 19.9677 8.01739 19.1518C7.55251 18.3359 7.29464 17.4186 7.26634 16.48C7.20353 14.5897 7.79191 12.7351 8.933 11.2267C9.66096 10.2155 10.6034 9.37772 11.693 8.77334C12.7961 8.189 14.0082 7.83944 15.253 7.74668C16.9076 7.65109 18.553 8.05183 19.9783 8.89753C21.4037 9.74322 22.544 10.9953 23.253 12.4933C23.6757 13.2013 23.9507 13.9876 24.0613 14.8048C24.1719 15.6219 24.1159 16.453 23.8966 17.2479C23.6774 18.0428 23.2994 18.7851 22.7854 19.4299C22.2715 20.0748 21.6323 20.6089 20.9063 21C20.8462 21.0345 20.7936 21.0806 20.7515 21.1356C20.7095 21.1907 20.6788 21.2536 20.6615 21.3207C20.6441 21.3878 20.6403 21.4577 20.6503 21.5262C20.6602 21.5948 20.6839 21.6607 20.7197 21.72C20.7528 21.7797 20.7977 21.8321 20.8516 21.874C20.9054 21.9159 20.9672 21.9465 21.0332 21.9639C21.0992 21.9813 21.1681 21.9853 21.2356 21.9754C21.3032 21.9656 21.368 21.9422 21.4263 21.9067C25.7063 19.56 26.1997 15.36 24.5863 11.8533C23.7767 10.0684 22.4605 8.56077 20.8011 7.51775C19.1417 6.47472 17.2124 5.94231 15.253 5.98668C13.7517 6.08537 12.2904 6.51327 10.973 7.24001C9.34365 8.15944 8.01334 9.52839 7.14092 11.1834C6.2685 12.8384 5.89083 14.7095 6.053 16.5733C6.11735 17.6871 6.44901 18.7691 7.01994 19.7276C7.59087 20.6861 8.38426 21.493 9.333 22.08C9.86504 22.3876 10.4282 22.6379 11.013 22.8267C11.5785 23.0213 12.158 23.1728 12.7463 23.28C12.87 23.3036 12.998 23.2778 13.1027 23.2079C13.2075 23.1381 13.2806 23.0299 13.3063 22.9067C13.3279 22.794 13.3072 22.6773 13.2481 22.5789C13.1891 22.4805 13.0959 22.4074 12.9863 22.3733Z" fill="#1D1C19"/>
<path fill-rule="evenodd" clip-rule="evenodd" d="M15.8663 20.4C16.4694 20.2814 17.0316 20.0092 17.4988 19.6098C17.9659 19.2104 18.3221 18.6973 18.533 18.12C18.5675 18.0601 18.5894 17.9937 18.5974 17.9251C18.6053 17.8564 18.5991 17.7868 18.5791 17.7206C18.5591 17.6544 18.5258 17.593 18.4812 17.5401C18.4365 17.4873 18.3816 17.4441 18.3197 17.4133C18.2598 17.3788 18.1934 17.3569 18.1247 17.349C18.056 17.3411 17.9864 17.3473 17.9202 17.3673C17.854 17.3873 17.7926 17.4206 17.7398 17.4652C17.6869 17.5098 17.6438 17.5648 17.613 17.6267C17.3533 18.0232 16.9809 18.3329 16.5436 18.5159C16.1064 18.6989 15.6244 18.7468 15.1597 18.6533C14.8855 18.6215 14.6166 18.5542 14.3597 18.4533C13.669 18.2333 13.0725 17.7871 12.6663 17.1867C12.6444 17.1222 12.6082 17.0636 12.5605 17.015C12.5128 16.9665 12.4548 16.9293 12.3908 16.9063C12.3267 16.8832 12.2583 16.8749 12.1906 16.8819C12.1229 16.8889 12.0576 16.911 11.9997 16.9467C11.8867 16.9964 11.798 17.0888 11.753 17.2038C11.708 17.3187 11.7104 17.4468 11.7597 17.56C12.0373 18.561 12.6794 19.4218 13.5597 19.9733C13.9682 20.2123 14.4225 20.3622 14.893 20.4133C15.2162 20.4584 15.5445 20.4539 15.8663 20.4Z" fill="#1D1C19"/>
<path fill-rule="evenodd" clip-rule="evenodd" d="M31.853 14.5867C31.7699 14.2331 31.6399 13.8923 31.4663 13.5733C31.1514 13.013 30.7232 12.5244 30.209 12.1387C29.6947 11.753 29.1058 11.4788 28.4797 11.3333C28.3777 10.5491 28.2172 9.77365 27.9997 9.01334C27.5054 7.30752 26.6443 5.73035 25.4766 4.39222C24.3089 3.05409 22.8629 1.98735 21.2397 1.26668C19.5228 0.617819 17.692 0.324602 15.8584 0.404823C14.0248 0.485043 12.2266 0.937028 10.573 1.73334C8.87233 2.42943 7.3688 3.53281 6.19468 4.9464C5.02056 6.36 4.21184 8.04048 3.83967 9.84001C3.83967 10.16 3.83967 10.48 3.75967 10.8C3.08116 10.9265 2.43943 11.2029 1.88123 11.6088C1.32304 12.0148 0.862441 12.5402 0.533003 13.1467C0.359446 13.4657 0.229401 13.8065 0.146336 14.16C-0.0722161 14.8998 -0.0722161 15.6869 0.146336 16.4267C0.344879 16.9842 0.679273 17.4834 1.11927 17.8792C1.55927 18.2749 2.09099 18.5548 2.66634 18.6933C2.93141 18.7765 3.20372 18.8345 3.47967 18.8667C3.75013 18.8932 4.02254 18.8932 4.293 18.8667C4.41507 18.8624 4.53199 18.8164 4.62421 18.7363C4.71643 18.6563 4.77837 18.5469 4.79967 18.4267C4.85375 18.4527 4.91299 18.4662 4.973 18.4662C5.03301 18.4662 5.09225 18.4527 5.14634 18.4267C5.22795 18.3898 5.29684 18.3297 5.34429 18.2537C5.39175 18.1778 5.41566 18.0895 5.413 18C5.10075 16.6864 4.90445 15.3479 4.82634 14C4.75205 12.6823 4.84614 11.3605 5.10634 10.0667C5.52485 8.53183 6.30494 7.11956 7.3813 5.94808C8.45767 4.77661 9.79899 3.88001 11.293 3.33334C12.7402 2.63959 14.3119 2.2432 15.9151 2.16762C17.5182 2.09204 19.1203 2.33882 20.6263 2.89334C22.044 3.49076 23.3168 4.38558 24.3588 5.51731C25.4009 6.64904 26.1878 7.9913 26.6663 9.45334C27.6756 12.4984 27.586 15.8009 26.413 18.7867C26.3871 18.8505 26.3742 18.9189 26.3749 18.9878C26.3757 19.0567 26.3901 19.1248 26.4174 19.188C26.4447 19.2513 26.4843 19.3085 26.5339 19.3564C26.5835 19.4042 26.6421 19.4417 26.7063 19.4667C26.7887 19.4932 26.8773 19.4932 26.9597 19.4667C26.5891 20.2423 26.1425 20.9793 25.6263 21.6667C25.1335 22.3348 24.5552 22.9354 23.9063 23.4533C22.9085 24.3516 21.6219 24.8625 20.2797 24.8933C20.2204 24.7858 20.1249 24.7027 20.0102 24.6587C19.8955 24.6148 19.769 24.6129 19.653 24.6533C19.5223 24.7066 19.4181 24.8095 19.3631 24.9394C19.3081 25.0694 19.3069 25.2158 19.3597 25.3467C19.3597 25.52 19.3597 25.64 19.1863 25.76C18.973 25.9224 18.7195 26.0238 18.453 26.0533C18.0807 26.1242 17.6969 26.106 17.333 26C16.9639 25.9096 16.6184 25.7414 16.3197 25.5067C16.093 25.3467 15.9197 25.24 15.9997 25.08C16.1 24.8855 16.2585 24.727 16.453 24.6267L17.3597 24.3333C17.6154 24.2913 17.8739 24.269 18.133 24.2667H18.9597C19.0781 24.2859 19.1994 24.2575 19.2968 24.1875C19.3943 24.1175 19.46 24.0117 19.4797 23.8933C19.4912 23.8329 19.4908 23.7708 19.4782 23.7106C19.4657 23.6503 19.4414 23.5932 19.4067 23.5424C19.372 23.4915 19.3276 23.4481 19.2761 23.4145C19.2245 23.3809 19.1668 23.3579 19.1063 23.3467L17.333 23.0533C17.1068 23.0334 16.8792 23.0334 16.653 23.0533C16.4133 23.0719 16.1763 23.1166 15.9463 23.1867C15.5684 23.281 15.2208 23.4701 14.9362 23.736C14.6516 24.002 14.4394 24.336 14.3197 24.7067C14.2321 25.1287 14.2804 25.5675 14.4576 25.9604C14.6349 26.3532 14.932 26.6798 15.3063 26.8933C15.84 27.2456 16.4461 27.4735 17.0797 27.56C17.6847 27.6213 18.2958 27.5437 18.8663 27.3333C19.4124 27.1277 19.8791 26.7542 20.1997 26.2667C20.2579 26.143 20.3027 26.0133 20.333 25.88C21.7149 26.0638 23.1192 25.7924 24.333 25.1067C25.438 24.464 26.357 23.545 26.9997 22.44C27.5828 21.4834 27.9934 20.4319 28.213 19.3333H28.5863C28.8615 19.2902 29.1332 19.2278 29.3997 19.1467C29.9554 18.9926 30.4655 18.7058 30.8859 18.311C31.3063 17.9161 31.6244 17.4251 31.813 16.88C32.0547 16.1367 32.0686 15.338 31.853 14.5867ZM3.63967 17.7333C3.44854 17.6693 3.26152 17.5936 3.07967 17.5067C2.768 17.3545 2.49465 17.134 2.27996 16.8616C2.06527 16.5892 1.91478 16.2719 1.83967 15.9333C1.75024 15.4934 1.75024 15.04 1.83967 14.6C1.93234 14.0529 2.14089 13.532 2.45133 13.072C2.76177 12.6121 3.16694 12.2239 3.63967 11.9333C3.62641 12.6631 3.65312 13.3931 3.71967 14.12C3.85295 15.4329 4.10282 16.7314 4.46634 18C4.38634 18 4.333 17.9067 4.23967 17.9067L3.63967 17.7333ZM28.973 17.92C26.9597 18.8933 28.8397 16.6667 28.613 12.4267C29.4552 13.0407 30.0245 13.9592 30.1997 14.9867C30.2873 15.4268 30.2873 15.8799 30.1997 16.32C30.125 16.6677 29.9704 16.9932 29.7483 17.2709C29.5261 17.5486 29.2425 17.7708 28.9197 17.92H28.973Z" fill="#1D1C19"/>
<path fill-rule="evenodd" clip-rule="evenodd" d="M11.773 12.0133C11.5319 12.0066 11.2917 12.0474 11.0663 12.1333C10.5599 12.3325 10.1044 12.6423 9.733 13.04C9.62918 13.1059 9.55554 13.21 9.52808 13.3299C9.50061 13.4497 9.52155 13.5755 9.58634 13.68C9.773 14.0133 12.253 13.68 12.733 13.68C12.9456 13.6884 13.1563 13.7242 13.3597 13.7867C13.4808 13.8574 13.6245 13.8788 13.761 13.8465C13.8975 13.8143 14.0163 13.7308 14.093 13.6133C14.163 13.4942 14.184 13.3526 14.1517 13.2184C14.1193 13.0841 14.0362 12.9675 13.9197 12.8933C13.5208 12.4959 13.024 12.2107 12.4797 12.0667C12.2489 12.0089 12.0099 11.9908 11.773 12.0133Z" fill="#1D1C19"/>
<path fill-rule="evenodd" clip-rule="evenodd" d="M21.4397 13.68C21.5033 13.5739 21.5221 13.4469 21.4921 13.3269C21.4621 13.2069 21.3857 13.1037 21.2797 13.04C20.912 12.6379 20.4554 12.3275 19.9463 12.1333C19.7209 12.0474 19.4808 12.0066 19.2397 12.0133C18.9969 11.9995 18.7535 12.0266 18.5197 12.0933C17.9765 12.2403 17.4805 12.525 17.0797 12.92C16.9654 12.9963 16.885 13.1138 16.8551 13.2479C16.8253 13.382 16.8485 13.5225 16.9197 13.64C16.994 13.7601 17.113 13.8459 17.2505 13.8784C17.388 13.9109 17.5327 13.8875 17.653 13.8133C17.8564 13.7509 18.0671 13.7151 18.2797 13.7067C19.7863 13.5867 21.1597 14.16 21.4397 13.68Z" fill="#1D1C19"/>
</svg>
