<?xml version="1.0" encoding="UTF-8"?>
<svg xmlns="http://www.w3.org/2000/svg" width="357" height="450" viewBox="0 0 357 450" fill="none">
  <path d="M56.621 327.876C51.6636 327.961 39.1686 328.172 34.3804 328.232H26.8767H26.496V327.842V318.376V317.953H26.919L41.7911 318.012C45.4965 318.012 52.958 318.13 56.6633 318.181H56.8664V318.376L56.6633 327.842L56.621 327.876ZM56.621 327.876L56.418 318.409L56.621 318.613C52.9072 318.663 45.4542 318.748 41.7488 318.782L26.8767 318.832L27.2996 318.409V327.876L26.9105 327.496H34.2789C38.991 327.555 51.7736 327.766 56.6549 327.842L56.621 327.876Z" fill="#EBEBEB"></path>
  <path d="M104.562 226.838C99.6049 226.931 87.1098 227.134 82.3216 227.193H74.8179H74.4457V226.804L74.3949 217.422V216.991H74.8179L89.6901 217.041C93.3954 217.041 100.857 217.16 104.562 217.211H104.765V217.422L104.562 226.88V226.838ZM104.562 226.838L104.359 217.422L104.562 217.617C100.857 217.668 93.4039 217.752 89.6901 217.786L74.8179 217.837L75.2409 217.422V226.88L74.8517 226.5H82.2201C86.9407 226.559 99.7233 226.771 104.596 226.847L104.562 226.838Z" fill="#EBEBEB"></path>
  <path d="M40.0315 339.813C35.0742 339.898 22.5791 340.109 17.7909 340.169H10.2872H9.90649V339.779V330.313V329.94H10.3295L25.2017 330C28.8986 330 36.3685 330.11 40.0738 330.169H40.2769V330.363L40.0823 339.83L40.0315 339.813ZM40.0315 339.813L39.8285 330.347L40.0315 330.55C36.3177 330.6 28.8647 330.685 25.1594 330.719L10.2872 330.786L10.7102 330.363V339.83L10.321 339.449H17.6894C22.4015 339.509 35.1841 339.72 40.0654 339.796L40.0315 339.813Z" fill="#EBEBEB"></path>
  <path d="M255.247 127.035C250.298 127.12 237.803 127.332 233.006 127.391H225.511H225.122V127.002V117.535V117.112H225.553L240.417 117.171C244.122 117.171 251.592 117.289 255.289 117.34H255.484V117.594L255.281 127.061L255.247 127.035ZM255.247 127.035L255.052 117.594L255.247 117.797C251.541 117.848 244.088 117.932 240.375 117.966L225.511 118.017L225.925 117.594V127.061L225.545 126.68H232.913C237.625 126.739 250.408 126.951 255.281 127.027L255.247 127.035Z" fill="#EBEBEB"></path>
  <path d="M238.657 138.973C233.7 139.058 221.205 139.269 216.417 139.328H208.913H208.532V138.939L208.49 129.472V129.049H208.913L223.785 129.109C227.49 129.109 234.952 129.219 238.657 129.278H238.86V129.472L238.657 138.939V138.973ZM238.657 138.973L238.454 129.506L238.657 129.709C234.943 129.76 227.499 129.845 223.785 129.878L208.913 129.929L209.336 129.506V138.973L208.947 138.592H216.315C221.036 138.651 233.818 138.863 238.691 138.939L238.657 138.973Z" fill="#EBEBEB"></path>
  <path d="M222.135 127.035C217.178 127.12 204.683 127.332 199.895 127.391H192.391H192.036V127.002V117.535V117.112H192.459L207.331 117.171C211.028 117.171 218.498 117.289 222.203 117.34H222.406V117.594L222.212 127.061L222.135 127.035ZM222.135 127.035L221.932 117.594L222.135 117.797C218.422 117.848 210.969 117.932 207.263 117.966L192.391 118.017L192.814 117.594L192.772 127.061L192.391 126.68H199.759C204.471 126.739 217.254 126.951 222.135 127.027V127.035Z" fill="#EBEBEB"></path>
  <path d="M343.329 339.813C338.372 339.898 325.877 340.109 321.089 340.169H313.585H313.204V339.779L313.162 330.313V329.94H313.585L328.457 330C332.162 330 339.624 330.11 343.329 330.169H343.532V330.363L343.329 339.83V339.813ZM343.329 339.813L343.126 330.347L343.329 330.55C339.615 330.6 332.171 330.685 328.457 330.719L313.585 330.77L314.008 330.347V339.813L313.619 339.433H320.987C325.708 339.492 338.49 339.703 343.363 339.779L343.329 339.813Z" fill="#EBEBEB"></path>
  <path d="M326.74 47.4778C321.782 47.5624 309.287 47.7739 304.499 47.8331H296.995H296.615V47.4439L296.572 37.9772V37.5542H296.995L311.868 37.6134C315.573 37.6134 323.034 37.7234 326.74 37.7826H326.943V37.9772L326.74 47.4439V47.4778ZM326.74 47.4778L326.545 38.011L326.748 38.2141L319.312 38.3071C314.592 38.3748 301.885 38.4171 297.004 38.434L297.427 38.011V47.4778L297.038 47.0971H304.406C309.118 47.1478 321.901 47.3678 326.782 47.4439L326.74 47.4778Z" fill="#EBEBEB"></path>
  <path d="M343.329 59.4148C338.372 59.4994 325.877 59.7109 321.089 59.7701H313.585H313.204V59.381L313.162 49.9142V49.4912H313.585L328.457 49.5504C332.162 49.5504 339.624 49.6604 343.329 49.7196H343.532V49.9142L343.329 59.381V59.4148ZM343.329 59.4148L343.126 49.9142L343.329 50.1173C339.615 50.168 332.171 50.2526 328.457 50.278L313.585 50.3372L314.008 49.9142V59.381L313.619 59.0002H320.987C325.708 59.051 338.49 59.271 343.363 59.3471L343.329 59.4148Z" fill="#EBEBEB"></path>
  <path d="M56.621 47.4778C51.6636 47.5624 39.1686 47.7739 34.3804 47.8331H26.8767H26.496V47.4439V37.9772V37.5542H26.919L41.7911 37.6134C45.4965 37.6134 52.958 37.7234 56.6633 37.7826H56.8664V37.9772L56.6633 47.4439L56.621 47.4778ZM56.621 47.4778L56.418 38.011L56.621 38.2141C52.9072 38.2648 45.4542 38.3494 41.7488 38.3748L26.8767 38.434L27.2996 38.011V47.4778L26.9105 47.0971H34.2789C38.991 47.1478 51.7736 47.3678 56.6549 47.4439L56.621 47.4778Z" fill="#EBEBEB"></path>
  <path d="M335.335 56.2764H279.222V112.392H335.335V56.2764Z" fill="white"></path>
  <path d="M276.303 53.3574V115.318H338.253V53.3574H276.303ZM279.221 56.2761H335.343V112.4H279.221V56.2761Z" fill="#DBDBDB"></path>
  <path d="M326.994 101.529V82.1299H283.257V101.529H326.994Z" fill="#EBEBEB"></path>
  <path d="M318.483 95.5389V73.1284H296.073V95.5389H318.483Z" fill="#C7C7C7"></path>
  <path d="M273.909 115.318H276.303V53.3573H273.909V115.318Z" fill="#C7C7C7"></path>
  <path d="M335.335 135.961H279.222V192.076H335.335V135.961Z" fill="white"></path>
  <path d="M325.691 144.937H311.039V187.262H325.691V144.937Z" fill="#C7C7C7"></path>
  <path d="M276.303 133.042V194.995H338.253V133.042H276.303ZM279.221 135.961H335.343V192.042H279.221V135.961Z" fill="#DBDBDB"></path>
  <path d="M318.491 152.813H296.082V175.224H318.491V152.813Z" fill="#EBEBEB"></path>
  <path d="M273.909 194.995H276.303V133.034H273.909V194.995Z" fill="#C7C7C7"></path>
  <path d="M335.335 215.646H279.222V271.761H335.335V215.646Z" fill="white"></path>
  <path d="M329.117 223.293H298.323V241.702H329.117V223.293Z" fill="#EBEBEB"></path>
  <path d="M276.303 212.727V274.68H338.253V212.727H276.303ZM279.221 215.646H335.343V271.761H279.221V215.646Z" fill="#DBDBDB"></path>
  <path d="M318.491 232.498H296.082V254.909H318.491V232.498Z" fill="#C7C7C7"></path>
  <path d="M273.909 274.68H276.303V212.719H273.909V274.68Z" fill="#C7C7C7"></path>
  <path d="M19.0684 46.6743V254.545H154.178V46.6743H19.0684ZM24.0596 51.6657H149.187V249.57H24.0596V51.6657Z" fill="#EBEBEB"></path>
  <path d="M149.196 51.6655H24.0596V249.562H149.196V51.6655Z" fill="white"></path>
  <path d="M149.196 148.118H24.0596V153.101H149.196V148.118Z" fill="#EBEBEB"></path>
  <path d="M163.366 254.544H9.89801V268.85H163.366V254.544Z" fill="#DBDBDB"></path>
  <path d="M149.196 179.691H24.0596V51.6572H149.196V179.691ZM28.6786 175.122H144.577V56.2764H28.6786V175.122Z" fill="#DBDBDB"></path>
  <path d="M66.4935 51.6572H63.9979V175.08H66.4935V51.6572Z" fill="#DBDBDB"></path>
  <path d="M109.266 51.6567H106.77V175.08H109.266V51.6567Z" fill="#DBDBDB"></path>
  <path d="M212.917 228.111C212.962 228.34 212.921 228.577 212.802 228.778C212.684 228.979 212.496 229.13 212.274 229.202C211.191 229.422 209.889 229.659 208.433 229.938C203.823 221.326 199.17 214.608 200.507 217.29C202.544 221.512 203.938 226.015 204.643 230.649C202.952 230.962 199.009 231.647 197.03 231.994C192.022 216.436 186.667 205.108 187.36 208.72C190.177 223.305 189.898 228.178 189.518 233.322C171.135 236.511 146.999 240.42 129.454 242.873C126.323 234.32 123.354 225.006 123.126 225.708C121.358 230.995 121.62 238.296 122.28 243.863C116.696 244.608 112.23 245.098 109.48 245.259C109.48 245.259 107.247 238.017 106.756 235.598C105.469 229.409 105.343 223.035 106.384 216.8C107.467 210.387 109.988 204.533 112.306 198.56C112.319 198.512 112.339 198.466 112.365 198.424C112.365 198.424 112.365 198.424 112.365 198.374C113.937 194.489 115.039 190.431 115.647 186.284C115.653 186.254 115.653 186.222 115.647 186.191C116.025 183.207 116.136 180.194 115.977 177.19C115.427 166.192 120.376 156.04 130.24 151.861C147.261 131.244 167.565 136.455 175.161 149.661C175.897 150.955 176.633 152.444 177.378 154.077V154.128C180.144 160.168 182.936 168.104 185.364 174.204C185.364 174.204 185.364 174.204 185.364 174.271C186.286 176.669 187.359 179.006 188.578 181.268C194.974 192.063 206.936 197.105 212.917 228.111Z" fill="#263238"></path>
  <path d="M126.18 155.43C119.911 159.77 116.443 165.405 116.4 173.476C116.4 178.179 116.637 182.739 115.402 187.333C114.141 192.071 111.697 196.132 109.176 200.209C105.174 206.673 102.602 212.899 102.839 220.818C103.085 228.829 104.641 238.119 108.237 245.166C108.237 245.208 108.321 245.166 108.296 245.166C105.191 237.949 103.838 227.594 104.184 219.583C104.565 210.776 108.761 204.744 112.932 197.587C116.28 191.977 118.049 185.567 118.05 179.034C118.05 175.041 117.483 170.963 118.6 167.071C119.928 162.418 123.337 159.136 126.755 156.175C126.838 156.094 126.888 155.985 126.896 155.869C126.903 155.754 126.869 155.639 126.798 155.547C126.727 155.456 126.625 155.393 126.511 155.372C126.397 155.35 126.279 155.371 126.18 155.43Z" fill="#263238"></path>
  <path d="M201.446 192.071C195.938 186.504 190.347 181.868 186.616 174.567C183.232 167.909 180.846 160.727 177.395 154.086C177.393 154.071 177.387 154.057 177.379 154.046C177.371 154.034 177.359 154.024 177.347 154.017C177.334 154.01 177.32 154.006 177.305 154.006C177.29 154.006 177.276 154.009 177.263 154.015C177.25 154.021 177.238 154.03 177.229 154.042C177.22 154.053 177.214 154.067 177.211 154.081C177.209 154.095 177.209 154.11 177.213 154.124C177.217 154.138 177.224 154.151 177.234 154.162C182.75 166.006 185.085 178.408 194.373 187.807C199.449 192.883 204.424 197.595 208.137 204.008C211.934 210.745 214.412 218.144 215.438 225.81C215.48 226.089 215.827 226.021 215.819 225.759C215.426 213.123 210.295 201.098 201.446 192.071Z" fill="#263238"></path>
  <path d="M130.114 150.845C132.694 149.5 133.371 134.061 122.5 128.105C111.824 122.242 99.9632 131.971 106.849 143.688C111.282 151.091 124.657 153.696 130.114 150.845Z" fill="#263238"></path>
  <path d="M108.533 128.951C105.898 131.773 104.299 135.406 103.998 139.255C103.822 141.05 104.12 142.859 104.862 144.503C105.605 146.146 106.765 147.566 108.228 148.62C111.155 150.837 114.937 151.818 118.71 152.207C120.626 152.381 122.554 152.381 124.471 152.207C126.42 152.112 128.334 151.653 130.113 150.854C128.485 152.043 126.617 152.863 124.64 153.256C122.668 153.711 120.649 153.93 118.625 153.908C114.457 153.976 110.372 152.74 106.942 150.371C105.185 149.119 103.818 147.394 103.001 145.397C102.183 143.399 101.948 141.211 102.323 139.086C102.615 137.063 103.316 135.121 104.384 133.378C105.451 131.636 106.863 130.129 108.533 128.951Z" fill="#263238"></path>
  <path d="M176.676 239.109C211.741 265.25 259.835 324.157 254.717 338.378C249.015 354.207 200.143 317.516 199.923 314.969C199.754 313.049 178.875 275.994 163.216 249.108C147.557 222.223 168.004 232.645 176.676 239.109Z" fill="#EB9481"></path>
  <path d="M199.644 315.062C197.715 311.052 169.553 262.28 161.262 246.765C152.972 231.249 157.557 225.361 176.422 237.89C195.287 250.42 239.117 295.038 251.451 320.401C263.337 344.842 250.123 346.864 230.894 337.693C215.1 330.163 199.644 315.062 199.644 315.062Z" fill="#FFC727"></path>
  <path d="M174.425 238.533C174.425 239.3 174.198 240.049 173.772 240.686C173.347 241.323 172.742 241.82 172.034 242.113C171.326 242.406 170.547 242.483 169.795 242.334C169.043 242.184 168.353 241.815 167.811 241.273C167.269 240.731 166.9 240.041 166.751 239.289C166.601 238.538 166.678 237.759 166.971 237.051C167.264 236.343 167.761 235.737 168.398 235.312C169.035 234.886 169.785 234.659 170.551 234.659C170.798 234.659 171.044 234.682 171.287 234.726C171.997 235.107 172.717 235.572 173.478 236.012C174.088 236.71 174.425 237.606 174.425 238.533ZM198.307 278.549C197.54 278.549 196.791 278.777 196.154 279.203C195.516 279.629 195.02 280.235 194.727 280.943C194.434 281.652 194.357 282.431 194.508 283.183C194.658 283.935 195.028 284.625 195.57 285.167C196.113 285.708 196.804 286.077 197.556 286.225C198.309 286.374 199.088 286.296 199.796 286.001C200.504 285.707 201.108 285.209 201.533 284.57C201.958 283.932 202.183 283.182 202.182 282.415C202.179 281.389 201.77 280.406 201.044 279.681C200.317 278.956 199.333 278.549 198.307 278.549ZM222.468 281.003C222.287 281.452 222.196 281.931 222.197 282.415C222.197 283.442 222.604 284.426 223.329 285.152C224.054 285.879 225.037 286.288 226.063 286.29C226.38 286.29 226.696 286.25 227.003 286.172C225.525 284.44 224.013 282.728 222.468 281.036V281.003ZM184.399 257.162C183.633 257.162 182.884 257.39 182.247 257.815C181.61 258.241 181.113 258.846 180.82 259.554C180.527 260.262 180.45 261.041 180.599 261.793C180.749 262.545 181.118 263.235 181.66 263.777C182.202 264.319 182.892 264.688 183.643 264.837C184.395 264.987 185.174 264.91 185.882 264.617C186.59 264.323 187.195 263.827 187.621 263.19C188.047 262.552 188.274 261.803 188.274 261.037C188.274 260.015 187.87 259.035 187.151 258.309C186.432 257.583 185.455 257.171 184.433 257.162H184.399ZM226.03 322.44C225.263 322.44 224.514 322.667 223.876 323.093C223.239 323.519 222.742 324.125 222.449 324.834C222.156 325.542 222.08 326.322 222.23 327.073C222.38 327.825 222.75 328.516 223.293 329.057C223.836 329.599 224.527 329.967 225.279 330.116C226.031 330.264 226.81 330.186 227.518 329.892C228.226 329.597 228.831 329.099 229.255 328.461C229.68 327.823 229.906 327.073 229.904 326.306C229.904 325.285 229.5 324.305 228.781 323.581C228.061 322.857 227.084 322.446 226.063 322.44H226.03ZM252.458 322.685C251.606 322.998 250.891 323.6 250.439 324.387C249.986 325.174 249.825 326.095 249.983 326.989C250.142 327.883 250.61 328.692 251.305 329.276C252 329.859 252.878 330.18 253.786 330.181C254.237 330.181 254.683 330.101 255.106 329.944C254.431 327.458 253.557 325.03 252.492 322.685H252.458ZM212.156 301.053C211.389 301.053 210.64 301.28 210.003 301.706C209.366 302.132 208.869 302.737 208.576 303.445C208.283 304.153 208.206 304.932 208.356 305.683C208.505 306.435 208.874 307.125 209.416 307.667C209.958 308.209 210.648 308.578 211.4 308.728C212.151 308.877 212.93 308.8 213.638 308.507C214.346 308.214 214.952 307.717 215.377 307.08C215.803 306.443 216.03 305.694 216.03 304.927C216.03 303.906 215.627 302.925 214.907 302.2C214.188 301.474 213.211 301.062 212.19 301.053H212.156ZM239.083 301.137C238.455 301.275 237.871 301.567 237.384 301.986C236.897 302.406 236.522 302.94 236.293 303.54C236.064 304.141 235.987 304.789 236.071 305.426C236.155 306.064 236.395 306.67 236.772 307.191C237.148 307.712 237.649 308.132 238.227 308.411C238.806 308.691 239.445 308.822 240.088 308.793C240.73 308.764 241.355 308.576 241.906 308.245C242.457 307.914 242.917 307.452 243.245 306.899C241.976 305.021 240.58 303.092 239.117 301.137H239.083Z" fill="white"></path>
  <path opacity="0.1" d="M255.326 338.699C252.864 344.799 243.076 343.488 230.852 337.667C215.108 330.163 199.644 315.062 199.644 315.062C197.707 311.052 169.553 262.28 161.262 246.765C155.34 235.682 155.975 229.515 163.698 231.443L255.326 338.699Z" fill="black"></path>
  <path d="M231.63 446.912H150.552C147.024 433.071 141.602 411.769 136.873 393.216C136.876 393.202 136.876 393.188 136.873 393.174C136.585 392.04 136.289 390.906 136.027 389.79C135.841 389.096 135.671 388.411 135.502 387.742C130.951 369.9 127.364 355.797 127.279 355.476C127.195 355.154 127.186 355.121 127.161 355.002C127.133 354.913 127.111 354.823 127.093 354.731H205.354L231.63 446.912Z" fill="#37474F"></path>
  <path d="M202.825 354.706C202.825 354.757 202.825 354.85 202.825 354.977C202.825 355.899 202.825 356.812 202.825 357.735C202.825 360.078 202.681 362.43 202.529 364.773C201.912 373.94 200.714 383.059 198.942 392.074C196.653 403.961 193.619 415.693 189.856 427.2C189.526 428.198 189.331 428.756 189.306 428.815L183.063 431.903L182.564 432.157C178.495 434.171 173.478 436.666 170.204 438.299C168.461 439.145 167.209 439.788 166.862 439.991L166.761 440.042C166.761 440.042 166.626 442.825 166.448 446.895H81.8592C83.5511 432.555 83.7795 430.668 83.7795 430.668C83.2804 427.902 81.0724 420.762 81.8592 412.488C83.6019 394.273 94.7687 357.709 95.7839 355.535C96.0207 355.002 96.1561 354.689 96.1561 354.689H117.542H168.216H202.825V354.706Z" fill="#37474F"></path>
  <path d="M166.82 439.822V440.008C166.82 442.309 166.752 444.619 166.719 446.911H165.873C166.059 444.61 166.211 442.284 166.482 439.974C166.482 439.763 166.524 439.568 166.549 439.357C166.557 439.328 166.574 439.302 166.598 439.283C166.621 439.265 166.65 439.255 166.681 439.255C166.711 439.255 166.74 439.265 166.764 439.283C166.787 439.302 166.804 439.328 166.812 439.357C166.812 439.517 166.82 439.67 166.82 439.822Z" fill="#263238"></path>
  <path d="M156.677 444.255C160.272 441.768 164.155 439.67 167.962 437.487C171.769 435.304 175.804 433.181 179.857 431.294C187.766 427.606 196.125 424.949 204.449 422.36C204.66 422.301 204.796 422.64 204.593 422.733C196.573 426.176 188.798 430.127 180.821 433.663C176.811 435.44 172.767 437.149 168.749 438.917C164.731 440.685 160.814 442.69 156.77 444.382C156.754 444.383 156.739 444.38 156.724 444.373C156.71 444.367 156.698 444.357 156.688 444.344C156.679 444.331 156.673 444.317 156.671 444.301C156.669 444.285 156.671 444.27 156.677 444.255Z" fill="#263238"></path>
  <path d="M178.621 405.009C178.723 401.075 179.002 397.141 179.197 393.216C179.653 383.91 180.043 374.604 180.889 365.365C180.889 365.289 180.919 365.216 180.973 365.162C181.027 365.108 181.1 365.078 181.176 365.078C181.253 365.078 181.326 365.108 181.38 365.162C181.434 365.216 181.464 365.289 181.464 365.365C181.582 372.539 181.303 379.747 181.159 386.904C181.083 390.5 180.982 394.087 180.88 397.674C180.684 401.1 180.662 404.533 180.812 407.961C181.007 410.55 181.574 415.575 184.949 415.888C188.13 416.185 189.873 412.75 190.668 410.237C192.681 403.85 193.401 396.946 194.052 390.305C194.441 386.371 194.83 382.454 195.059 378.504C195.287 374.553 195.608 368.648 195.397 364.672C195.397 364.418 195.752 364.426 195.795 364.672C196.421 368.056 196.446 375.001 196.361 379.054C195.583 415.652 189.814 417.741 186.76 418.333C186.386 418.406 186.007 418.445 185.626 418.452C185.626 419.298 185.482 420.144 185.423 420.939C185.33 422.242 185.169 423.536 184.992 424.831C184.811 426.099 184.546 427.354 184.196 428.587C183.926 429.838 183.482 431.046 182.877 432.174C182.855 432.212 182.822 432.241 182.782 432.258C182.741 432.274 182.697 432.277 182.655 432.265C182.613 432.254 182.576 432.228 182.551 432.193C182.525 432.158 182.512 432.116 182.513 432.072C182.483 430.83 182.585 429.588 182.817 428.367C182.995 427.098 183.173 425.829 183.435 424.577C183.697 423.325 183.909 422.115 184.163 420.888C184.332 420.042 184.45 419.196 184.602 418.35C183.618 418.177 182.691 417.763 181.906 417.145C181.12 416.526 180.501 415.722 180.102 414.806C178.655 411.861 178.537 408.291 178.621 405.009Z" fill="#263238"></path>
  <path d="M104.717 398.063C109.793 398.418 114.869 399.078 119.996 398.469C124.816 397.971 129.408 396.166 133.277 393.249C141.737 386.718 145.392 376.025 147.659 365.991C147.667 365.944 147.693 365.902 147.732 365.874C147.771 365.847 147.819 365.835 147.866 365.843C147.913 365.851 147.955 365.877 147.983 365.916C148.011 365.955 148.022 366.003 148.014 366.051C147.058 374.747 145.189 383.74 139.554 390.745C137.137 393.823 134.08 396.34 130.596 398.122C126.891 399.846 122.836 400.683 118.752 400.567C113.983 400.512 109.24 399.861 104.633 398.63C104.572 398.604 104.522 398.559 104.49 398.502C104.458 398.445 104.446 398.379 104.456 398.314C104.466 398.249 104.497 398.189 104.544 398.144C104.591 398.099 104.652 398.07 104.717 398.063Z" fill="#263238"></path>
  <path d="M216.183 396.033C214.761 395.872 213.365 395.991 211.953 394.942C210.54 393.893 209.279 392.006 208.146 388.901C205.693 382.133 204.483 371.981 203.679 362.608C203.679 362.396 203.569 362.405 203.578 362.608C203.992 370.645 204.66 379.045 206.344 385.983C206.925 388.612 207.805 391.167 208.966 393.597C210.015 395.61 211.183 396.574 212.35 396.981C212.996 397.19 213.678 397.263 214.354 397.196C215.029 397.129 215.684 396.923 216.276 396.591C216.335 396.532 216.309 396.092 216.183 396.033Z" fill="#263238"></path>
  <path d="M103.812 357.236C101.063 372.269 97.8142 387.514 94.811 402.513C94.0412 406.997 92.7045 411.422 92.9752 415.99C93.3617 420.595 94.0884 425.164 95.1494 429.662C94.6672 432.555 94.1934 435.448 93.6774 438.342C93.1614 441.235 92.6791 444.06 92.1293 446.912C92.3915 444.018 92.7214 441.133 93.0344 438.248C93.3475 435.364 93.6859 432.479 94.0242 429.594C92.7654 425.169 91.9158 420.638 91.4863 416.058C91.3324 414.472 91.3693 412.872 91.5963 411.295C92.5099 405.136 93.7958 399.129 95.0817 393.097C97.7042 381.059 100.589 369.08 103.854 357.202L103.812 357.236Z" fill="#263238"></path>
  <path d="M206.572 355.89L200.786 319.47C200.786 319.47 212.147 305.198 204.694 289.564C200.93 281.637 178.368 242.357 164.688 232.662C151.855 223.559 131.188 230.124 125.486 239.98C111.104 264.844 102.89 294.42 94.5742 355.882L206.572 355.89Z" fill="#FFC727"></path>
  <path d="M146.669 238.533C146.669 239.3 146.442 240.049 146.016 240.686C145.59 241.323 144.985 241.82 144.277 242.113C143.569 242.406 142.79 242.483 142.039 242.334C141.287 242.184 140.597 241.815 140.055 241.273C139.513 240.731 139.144 240.041 138.994 239.289C138.845 238.538 138.922 237.759 139.215 237.051C139.508 236.343 140.005 235.737 140.642 235.312C141.279 234.886 142.028 234.659 142.794 234.659C143.822 234.659 144.808 235.067 145.534 235.794C146.261 236.52 146.669 237.506 146.669 238.533ZM168.123 235.522C167.713 235.857 167.377 236.273 167.134 236.744C166.892 237.215 166.749 237.731 166.715 238.26C166.68 238.788 166.754 239.318 166.933 239.817C167.111 240.316 167.391 240.772 167.753 241.158C168.115 241.545 168.553 241.852 169.04 242.062C169.526 242.272 170.05 242.38 170.58 242.379C171.109 242.378 171.633 242.268 172.119 242.056C172.604 241.845 173.041 241.535 173.402 241.148C171.747 239.176 169.985 237.298 168.123 235.522ZM115.038 278.549C114.271 278.549 113.522 278.777 112.885 279.203C112.247 279.629 111.751 280.235 111.458 280.943C111.165 281.652 111.089 282.431 111.239 283.183C111.389 283.935 111.759 284.625 112.301 285.167C112.844 285.708 113.535 286.077 114.287 286.225C115.04 286.374 115.819 286.296 116.527 286.001C117.235 285.707 117.839 285.209 118.264 284.57C118.689 283.932 118.914 283.182 118.913 282.415C118.91 281.389 118.501 280.406 117.775 279.681C117.049 278.956 116.064 278.549 115.038 278.549ZM142.794 278.549C142.028 278.549 141.278 278.777 140.641 279.203C140.004 279.629 139.507 280.235 139.214 280.943C138.921 281.652 138.845 282.431 138.995 283.183C139.145 283.935 139.515 284.625 140.058 285.167C140.6 285.708 141.292 286.077 142.044 286.225C142.796 286.374 143.575 286.296 144.283 286.001C144.991 285.707 145.595 285.209 146.02 284.57C146.445 283.932 146.671 283.182 146.669 282.415C146.669 281.907 146.569 281.404 146.374 280.934C146.179 280.464 145.894 280.038 145.534 279.679C145.174 279.319 144.747 279.035 144.277 278.841C143.807 278.647 143.303 278.548 142.794 278.549ZM170.551 278.549C169.784 278.549 169.035 278.777 168.397 279.203C167.76 279.629 167.263 280.235 166.97 280.943C166.677 281.652 166.601 282.431 166.751 283.183C166.902 283.935 167.271 284.625 167.814 285.167C168.357 285.708 169.048 286.077 169.8 286.225C170.552 286.374 171.332 286.296 172.039 286.001C172.747 285.707 173.352 285.209 173.777 284.57C174.201 283.932 174.427 283.182 174.425 282.415C174.423 281.389 174.014 280.406 173.288 279.681C172.561 278.956 171.577 278.549 170.551 278.549ZM198.705 278.549H198.307C197.613 278.548 196.93 278.733 196.332 279.086C195.734 279.439 195.241 279.946 194.906 280.554C194.571 281.163 194.405 281.85 194.427 282.544C194.449 283.239 194.656 283.914 195.029 284.501C195.401 285.087 195.924 285.563 196.543 285.878C197.163 286.192 197.855 286.335 198.548 286.291C199.241 286.246 199.91 286.016 200.484 285.624C201.057 285.233 201.515 284.694 201.809 284.065C200.955 282.441 199.881 280.588 198.705 278.566V278.549ZM128.921 257.145C128.154 257.144 127.404 257.37 126.766 257.794C126.127 258.219 125.629 258.824 125.335 259.531C125.04 260.239 124.962 261.019 125.111 261.771C125.26 262.523 125.628 263.214 126.169 263.757C126.711 264.3 127.401 264.669 128.153 264.82C128.905 264.97 129.684 264.894 130.393 264.601C131.101 264.308 131.707 263.811 132.133 263.174C132.559 262.536 132.787 261.787 132.787 261.02C132.782 259.997 132.373 259.017 131.649 258.294C130.925 257.571 129.944 257.165 128.921 257.162V257.145ZM156.677 257.145C155.91 257.144 155.16 257.37 154.522 257.794C153.884 258.219 153.386 258.824 153.091 259.531C152.797 260.239 152.719 261.019 152.867 261.771C153.016 262.523 153.384 263.214 153.926 263.757C154.467 264.3 155.158 264.669 155.909 264.82C156.661 264.97 157.441 264.894 158.149 264.601C158.858 264.308 159.463 263.811 159.889 263.174C160.316 262.536 160.543 261.787 160.543 261.02C160.539 259.997 160.129 259.017 159.405 258.294C158.681 257.571 157.7 257.165 156.677 257.162V257.145ZM185.44 257.281C185.112 257.188 184.773 257.143 184.433 257.145C183.691 257.145 182.964 257.358 182.339 257.759C181.714 258.16 181.217 258.732 180.908 259.408C180.599 260.083 180.491 260.833 180.596 261.568C180.701 262.303 181.015 262.992 181.5 263.554C181.986 264.116 182.623 264.526 183.335 264.736C184.047 264.946 184.805 264.948 185.517 264.739C186.23 264.531 186.868 264.123 187.355 263.562C187.843 263.002 188.158 262.313 188.265 261.578C187.343 260.14 186.396 258.71 185.44 257.298V257.281ZM115.038 322.423C114.271 322.423 113.522 322.65 112.885 323.076C112.247 323.502 111.751 324.108 111.458 324.817C111.165 325.525 111.089 326.305 111.239 327.056C111.389 327.808 111.759 328.499 112.301 329.04C112.844 329.582 113.535 329.95 114.287 330.099C115.04 330.247 115.819 330.169 116.527 329.875C117.235 329.58 117.839 329.082 118.264 328.444C118.689 327.806 118.914 327.056 118.913 326.289C118.908 325.265 118.498 324.285 117.771 323.563C117.045 322.841 116.062 322.437 115.038 322.44V322.423ZM142.794 322.423C142.028 322.423 141.278 322.65 140.641 323.076C140.004 323.502 139.507 324.108 139.214 324.817C138.921 325.525 138.845 326.305 138.995 327.056C139.145 327.808 139.515 328.499 140.058 329.04C140.6 329.582 141.292 329.95 142.044 330.099C142.796 330.247 143.575 330.169 144.283 329.875C144.991 329.58 145.595 329.082 146.02 328.444C146.445 327.806 146.671 327.056 146.669 326.289C146.668 325.782 146.567 325.28 146.371 324.811C146.176 324.343 145.89 323.918 145.53 323.561C145.17 323.203 144.743 322.92 144.274 322.728C143.805 322.535 143.302 322.437 142.794 322.44V322.423ZM170.551 322.423C169.784 322.423 169.035 322.65 168.397 323.076C167.76 323.502 167.263 324.108 166.97 324.817C166.677 325.525 166.601 326.305 166.751 327.056C166.902 327.808 167.271 328.499 167.814 329.04C168.357 329.582 169.048 329.95 169.8 330.099C170.552 330.247 171.332 330.169 172.039 329.875C172.747 329.58 173.352 329.082 173.777 328.444C174.201 327.806 174.427 327.056 174.425 326.289C174.421 325.265 174.01 324.285 173.284 323.563C172.558 322.841 171.575 322.437 170.551 322.44V322.423ZM198.307 322.423C197.54 322.423 196.791 322.65 196.154 323.076C195.516 323.502 195.02 324.108 194.727 324.817C194.434 325.525 194.357 326.305 194.508 327.056C194.658 327.808 195.028 328.499 195.57 329.04C196.113 329.582 196.804 329.95 197.556 330.099C198.309 330.247 199.088 330.169 199.796 329.875C200.504 329.58 201.108 329.082 201.533 328.444C201.958 327.806 202.183 327.056 202.182 326.289C202.177 325.265 201.767 324.285 201.04 323.563C200.314 322.841 199.331 322.437 198.307 322.44V322.423ZM103.558 301.865C103.085 304.065 102.628 306.323 102.171 308.633C102.861 308.444 103.485 308.067 103.974 307.545C104.462 307.023 104.797 306.375 104.941 305.675C105.085 304.974 105.031 304.247 104.787 303.575C104.543 302.902 104.118 302.31 103.558 301.865ZM128.937 301.019C128.171 301.017 127.421 301.243 126.783 301.668C126.144 302.093 125.646 302.697 125.352 303.405C125.057 304.113 124.979 304.892 125.128 305.644C125.276 306.397 125.645 307.088 126.186 307.63C126.728 308.173 127.418 308.543 128.17 308.693C128.922 308.843 129.701 308.767 130.41 308.474C131.118 308.181 131.724 307.685 132.15 307.047C132.576 306.41 132.804 305.66 132.804 304.894C132.795 303.87 132.381 302.892 131.654 302.173C130.926 301.453 129.944 301.051 128.921 301.053L128.937 301.019ZM156.694 301.019C155.927 301.017 155.177 301.243 154.539 301.668C153.901 302.093 153.403 302.697 153.108 303.405C152.814 304.113 152.736 304.892 152.884 305.644C153.033 306.397 153.401 307.088 153.943 307.63C154.484 308.173 155.175 308.543 155.926 308.693C156.678 308.843 157.458 308.767 158.166 308.474C158.875 308.181 159.48 307.685 159.906 307.047C160.332 306.41 160.56 305.66 160.56 304.894C160.551 303.87 160.138 302.892 159.41 302.173C158.683 301.453 157.7 301.051 156.677 301.053L156.694 301.019ZM184.45 301.019C183.684 301.019 182.935 301.246 182.298 301.672C181.66 302.098 181.164 302.703 180.871 303.411C180.577 304.119 180.501 304.898 180.65 305.65C180.8 306.401 181.169 307.092 181.71 307.633C182.252 308.175 182.943 308.544 183.694 308.694C184.446 308.843 185.225 308.767 185.933 308.473C186.641 308.18 187.246 307.683 187.672 307.046C188.097 306.409 188.325 305.66 188.325 304.894C188.316 303.869 187.901 302.89 187.172 302.17C186.443 301.45 185.458 301.048 184.433 301.053L184.45 301.019ZM101.13 344.943C100.364 344.942 99.6138 345.167 98.9755 345.592C98.3372 346.017 97.8393 346.621 97.5447 347.329C97.2502 348.037 97.1723 348.816 97.3208 349.569C97.4693 350.321 97.8377 351.012 98.3792 351.555C98.9207 352.097 99.6111 352.467 100.363 352.618C101.115 352.768 101.894 352.692 102.603 352.398C103.311 352.105 103.917 351.609 104.343 350.971C104.769 350.334 104.996 349.585 104.996 348.818C104.996 347.792 104.589 346.808 103.865 346.081C103.14 345.355 102.157 344.946 101.13 344.943ZM128.887 344.943C128.12 344.942 127.37 345.167 126.732 345.592C126.094 346.017 125.596 346.621 125.301 347.329C125.007 348.037 124.929 348.816 125.077 349.569C125.226 350.321 125.594 351.012 126.136 351.555C126.677 352.097 127.367 352.467 128.119 352.618C128.871 352.768 129.651 352.692 130.359 352.398C131.067 352.105 131.673 351.609 132.099 350.971C132.525 350.334 132.753 349.585 132.753 348.818C132.753 347.798 132.35 346.818 131.633 346.093C130.915 345.368 129.941 344.954 128.921 344.943H128.887ZM156.643 344.943C155.876 344.942 155.126 345.167 154.488 345.592C153.85 346.017 153.352 346.621 153.057 347.329C152.763 348.037 152.685 348.816 152.833 349.569C152.982 350.321 153.35 351.012 153.892 351.555C154.433 352.097 155.124 352.467 155.876 352.618C156.627 352.768 157.407 352.692 158.115 352.398C158.824 352.105 159.429 351.609 159.856 350.971C160.282 350.334 160.509 349.585 160.509 348.818C160.509 347.798 160.107 346.818 159.389 346.093C158.672 345.368 157.697 344.954 156.677 344.943H156.643ZM184.399 344.943C183.633 344.943 182.884 345.17 182.247 345.596C181.61 346.022 181.113 346.627 180.82 347.335C180.527 348.043 180.45 348.822 180.599 349.574C180.749 350.325 181.118 351.016 181.66 351.558C182.202 352.1 182.892 352.469 183.643 352.618C184.395 352.768 185.174 352.691 185.882 352.398C186.59 352.104 187.195 351.608 187.621 350.971C188.047 350.333 188.274 349.584 188.274 348.818C188.274 347.796 187.87 346.816 187.151 346.09C186.432 345.364 185.455 344.952 184.433 344.943H184.399Z" fill="white"></path>
  <path d="M181.921 310.291C176.1 310.925 170.334 311.991 164.671 313.48C161.863 314.259 159.113 315.172 156.372 316.128C155.002 316.611 153.623 317.042 152.244 317.474C150.803 317.96 149.309 318.272 147.794 318.404C147.767 318.404 147.741 318.415 147.722 318.434C147.703 318.453 147.693 318.479 147.693 318.506C147.693 318.533 147.703 318.558 147.722 318.577C147.741 318.597 147.767 318.607 147.794 318.607C149.229 318.647 150.664 318.593 152.092 318.446C153.468 318.253 154.83 317.971 156.169 317.6C159.02 316.839 161.837 315.908 164.68 315.147C170.415 313.557 176.151 311.958 181.997 310.782C182.062 310.772 182.12 310.736 182.159 310.683C182.198 310.63 182.214 310.563 182.204 310.498C182.194 310.433 182.158 310.375 182.105 310.336C182.052 310.297 181.986 310.281 181.921 310.291Z" fill="#263238"></path>
  <path d="M196.438 315.164C191.624 314.758 186.792 314.622 181.963 314.758C179.544 314.834 177.149 315.054 174.747 315.333C173.619 315.468 172.491 315.621 171.363 315.79C170.103 315.976 168.867 316.331 167.615 316.501C167.48 316.501 167.488 316.721 167.615 316.712C168.8 316.585 170.018 316.661 171.219 316.611L174.823 316.441C177.234 316.331 179.637 316.255 182.048 316.128C186.861 315.866 191.658 315.655 196.48 315.562C196.725 315.562 196.725 315.189 196.438 315.164Z" fill="#263238"></path>
  <path d="M136.661 233.279C137.338 235.487 149.528 253.008 161.355 249.937C166.321 248.651 161.355 229.447 161.355 229.447L164.485 208.821L137.888 194.439C137.888 194.439 136.374 232.332 136.661 233.279Z" fill="#EB9481"></path>
  <path d="M164.46 208.822L161.414 228.838C151.044 225.549 142.388 218.306 137.321 208.678C137.609 200.962 137.863 194.423 137.863 194.423L164.46 208.822Z" fill="#263238"></path>
  <path d="M187.064 173.594C197.487 206.123 179.18 216.047 172.167 218.28C165.796 220.319 143.852 226.435 130.122 195.159C116.392 163.882 128.201 148.764 142.583 143.341C156.965 137.918 176.642 141.082 187.064 173.594Z" fill="#EB9481"></path>
  <path d="M179.577 169.305C178.793 169.373 178.005 169.398 177.217 169.381C176.391 169.522 175.541 169.389 174.798 169C174.589 168.833 174.442 168.601 174.379 168.34C174.316 168.08 174.341 167.806 174.451 167.562C174.738 167.109 175.141 166.74 175.619 166.495C176.096 166.249 176.63 166.136 177.166 166.166C178.259 166.06 179.353 166.362 180.237 167.012C180.435 167.172 180.582 167.387 180.659 167.63C180.735 167.873 180.739 168.133 180.668 168.378C180.598 168.622 180.457 168.841 180.263 169.006C180.069 169.171 179.83 169.275 179.577 169.305Z" fill="#263238"></path>
  <path d="M156.677 178.112C157.366 177.734 158.075 177.392 158.8 177.088C159.497 176.619 160.331 176.396 161.169 176.454C161.428 176.524 161.656 176.677 161.82 176.889C161.983 177.102 162.072 177.362 162.074 177.63C161.994 178.16 161.774 178.659 161.436 179.075C161.098 179.492 160.656 179.81 160.154 179.999C159.194 180.542 158.065 180.705 156.99 180.455C156.75 180.385 156.536 180.246 156.373 180.056C156.21 179.866 156.106 179.633 156.073 179.385C156.04 179.137 156.079 178.885 156.187 178.659C156.294 178.433 156.464 178.243 156.677 178.112Z" fill="#263238"></path>
  <path d="M164.037 183.941C163.995 183.865 163.893 184.093 163.918 184.186C164.595 186.411 164.993 189.076 163.165 190.371C163.106 190.371 163.165 190.523 163.216 190.489C165.602 189.474 165.035 185.946 164.037 183.941Z" fill="#263238"></path>
  <path d="M161.397 182.139C157.709 182.841 159.384 190.159 162.802 189.507C166.219 188.856 164.485 181.555 161.397 182.139Z" fill="#263238"></path>
  <path d="M160.052 182.85C159.502 183.416 159.046 184.288 158.293 184.542C157.54 184.795 156.601 184.22 155.822 183.62C155.746 183.552 155.696 183.62 155.712 183.729C156.017 185.134 156.88 186.454 158.437 186.318C159.849 186.191 160.551 184.728 160.577 183.239C160.585 182.96 160.272 182.63 160.052 182.85Z" fill="#263238"></path>
  <path d="M177.133 179.922C177.133 179.838 177.327 179.99 177.344 180.091C177.775 182.376 178.655 184.922 180.872 185.227C180.939 185.227 180.956 185.345 180.872 185.353C178.291 185.556 177.166 182.164 177.133 179.922Z" fill="#263238"></path>
  <path d="M178.63 177.105C182.225 176.022 184.129 183.29 180.796 184.288C177.462 185.286 175.627 178.011 178.63 177.105Z" fill="#263238"></path>
  <path d="M180.271 177.19C180.948 177.427 181.701 177.977 182.394 177.841C183.088 177.706 183.587 176.742 183.9 175.862C183.9 175.769 184.002 175.811 184.027 175.912C184.433 177.291 184.349 178.857 183.088 179.466C181.828 180.075 180.728 179.077 180.034 177.774C179.907 177.537 180 177.097 180.271 177.19Z" fill="#263238"></path>
  <path d="M167.514 201.622C168.157 202.062 168.842 202.697 169.679 202.621C170.529 202.447 171.332 202.098 172.04 201.597C172.055 201.589 172.071 201.586 172.088 201.589C172.104 201.591 172.12 201.597 172.133 201.608C172.145 201.619 172.154 201.633 172.159 201.649C172.164 201.665 172.163 201.683 172.158 201.698C171.912 202.207 171.533 202.64 171.061 202.952C170.589 203.263 170.041 203.441 169.476 203.467C168.988 203.431 168.522 203.251 168.137 202.949C167.751 202.648 167.464 202.239 167.311 201.775C167.252 201.639 167.421 201.555 167.514 201.622Z" fill="#263238"></path>
  <path d="M168.884 198.585C172.42 196.529 174.392 196.631 176.735 196.191C176.972 196.073 177.479 195.709 177.445 195.463C177.445 195.379 175.83 190.887 175.83 190.887C176.532 190.997 180.06 191.403 179.747 190.548C177.031 183.501 174.002 175.659 169.798 169.212C169.768 169.172 169.725 169.144 169.677 169.133C169.629 169.122 169.578 169.128 169.534 169.15C169.49 169.172 169.455 169.209 169.435 169.254C169.415 169.3 169.412 169.351 169.426 169.398C171.769 176.276 175.347 182.697 177.784 189.575C176.519 189.413 175.237 189.43 173.977 189.626C173.765 189.77 175.931 194.381 176.092 195.15C176.092 195.15 172.395 194.829 168.478 198.281C167.615 199.034 167.598 199.33 168.884 198.585Z" fill="#263238"></path>
  <path d="M134.521 198.01C140.908 197.071 138.556 182.494 138.556 182.494C138.556 182.494 163.614 170.718 159.883 148.654C159.883 148.654 168.191 161.048 183.68 163.391C183.68 163.391 176.227 140.169 156.347 140.795C156.347 140.795 130.917 138.815 123.033 160.752C115.148 182.689 130.232 198.644 134.521 198.01Z" fill="#263238"></path>
  <path d="M159.502 147.081C160.733 150.299 161.26 153.743 161.051 157.182C160.904 160.663 160.04 164.076 158.513 167.207C158.135 167.989 157.708 168.746 157.235 169.474L156.567 170.591C156.313 170.946 156.042 171.285 155.772 171.623C155.222 172.3 154.706 172.994 154.131 173.637C153.555 174.279 152.895 174.846 152.261 175.438C151.948 175.726 151.643 176.039 151.313 176.284L150.281 177.054L148.217 178.586C146.754 179.432 145.248 180.278 143.742 181.047C145.07 179.973 146.483 179.042 147.769 177.968L149.655 176.276L150.594 175.43C150.882 175.134 151.153 174.812 151.44 174.499C151.99 173.882 152.549 173.264 153.132 172.664C153.716 172.063 154.114 171.335 154.604 170.676L155.34 169.677L155.958 168.611C156.397 167.914 156.793 167.191 157.142 166.446C158.599 163.477 159.535 160.281 159.909 156.996C160.112 155.34 160.18 153.671 160.112 152.004C160.047 150.349 159.843 148.702 159.502 147.081Z" fill="#263238"></path>
  <path d="M138.844 193.687C138.844 193.687 129.217 184.948 125.088 188.611C120.96 192.274 129.851 206.106 135.858 206.91C136.621 207.066 137.408 207.066 138.172 206.909C138.935 206.753 139.659 206.444 140.3 206.001C140.941 205.557 141.486 204.989 141.901 204.329C142.317 203.67 142.595 202.933 142.718 202.164L138.844 193.687Z" fill="#EB9481"></path>
  <path d="M127.736 192.511C127.719 192.516 127.705 192.527 127.694 192.542C127.684 192.556 127.678 192.573 127.678 192.591C127.678 192.609 127.684 192.626 127.694 192.641C127.705 192.655 127.719 192.666 127.736 192.672C131.966 193.357 134.842 196.495 137.127 199.905C135.646 198.729 133.886 198.297 132.279 200.108C132.194 200.201 132.33 200.345 132.431 200.294C133.064 199.922 133.797 199.756 134.528 199.816C135.259 199.877 135.954 200.162 136.517 200.632C137.455 201.432 138.305 202.328 139.055 203.306C139.318 203.61 139.901 203.306 139.673 202.917L139.622 202.832C138.59 197.857 133.167 191.8 127.736 192.511Z" fill="#263238"></path>
  <path d="M133.573 232.188C133.573 232.188 143.404 253.77 146.356 256.147C149.308 258.524 173.004 255.614 173.427 253.609C173.85 251.604 162.04 232.07 162.04 232.07C162.04 232.07 152.887 228.204 145.231 228.398C137.313 228.584 133.573 232.188 133.573 232.188Z" fill="#EB9481"></path>
  <path d="M252.872 338.04C246.215 348.107 233.136 352.227 186.438 362.616C179.983 364.046 153.141 323.877 159.291 320.375C167.471 315.705 203.019 308.311 205.557 308.091C227.019 306.179 257.39 331.221 252.872 338.04Z" fill="#EB9481"></path>
  <path d="M164.874 318.133C164.874 318.133 145.222 325.51 136.111 332.591C123.896 342.058 117.246 355.264 114.801 360.975C109.683 372.878 105.496 405.195 114.641 408.012C122.88 410.55 125.444 377.311 125.444 377.311C125.444 377.311 117.229 410.787 127.719 411.997C138.209 413.207 138.979 374.477 138.979 374.477C138.979 374.477 131.315 409.053 142.363 408.63C150.687 408.308 153.361 373.233 153.361 373.233C153.361 373.233 146.982 403.004 155.552 403.038C165.027 403.08 169.536 370.89 169.536 370.89C191.353 367.32 200.278 356.694 205.726 348.378C207.021 346.381 164.874 318.133 164.874 318.133Z" fill="#EB9481"></path>
  <path d="M127.533 365.552C126.425 369.452 125.274 373.386 124.522 377.396C123.769 381.406 123.151 385.39 122.762 389.426C121.831 399.316 122.762 405.661 122.762 405.263C122.373 395.847 124.86 381.575 125.613 377.565C126.366 373.555 126.924 369.579 127.677 365.602C127.702 365.476 127.559 365.459 127.533 365.552Z" fill="#263238"></path>
  <path d="M141.957 368.022C140.764 373.098 139.419 378.013 138.412 383.106C137.406 388.199 136.966 393.064 136.348 398.19C136.297 398.58 136.526 398.478 136.585 398.08C137.431 393.004 138.565 388.351 139.444 383.267C140.324 378.182 141.018 373.115 142.084 368.039C142.101 367.963 141.974 367.946 141.957 368.022Z" fill="#263238"></path>
  <path d="M154.723 367.92C152.498 375.534 151.677 383.529 151.06 391.397C151.06 391.795 151.313 391.625 151.364 391.228C152.439 383.394 153.217 377.243 154.985 367.997C155.019 367.853 154.765 367.76 154.723 367.92Z" fill="#263238"></path>
  <path d="M165.272 315.282L208.036 360.56C208.036 360.56 249.362 349.96 255.216 339.14C259.073 332.016 227.019 304.454 203.476 308.404L165.272 315.282Z" fill="#FFC727"></path>
  <path d="M173.96 324.461L172.59 323.023C173.166 323.372 173.639 323.869 173.96 324.461ZM198.307 322.439C197.541 322.439 196.791 322.667 196.154 323.093C195.516 323.519 195.02 324.125 194.727 324.833C194.434 325.542 194.358 326.321 194.508 327.073C194.658 327.825 195.028 328.515 195.57 329.057C196.113 329.598 196.804 329.967 197.557 330.115C198.309 330.264 199.088 330.186 199.796 329.891C200.504 329.597 201.108 329.099 201.533 328.461C201.958 327.822 202.183 327.072 202.182 326.306C202.182 325.797 202.081 325.294 201.887 324.824C201.692 324.355 201.406 323.928 201.046 323.569C200.687 323.21 200.259 322.925 199.789 322.731C199.319 322.538 198.816 322.438 198.307 322.439ZM226.064 322.439C225.297 322.439 224.547 322.667 223.91 323.093C223.273 323.519 222.776 324.125 222.483 324.833C222.19 325.542 222.114 326.321 222.264 327.073C222.414 327.825 222.784 328.515 223.327 329.057C223.87 329.598 224.561 329.967 225.313 330.115C226.065 330.264 226.844 330.186 227.552 329.891C228.26 329.597 228.864 329.099 229.289 328.461C229.714 327.822 229.94 327.072 229.938 326.306C229.938 325.797 229.838 325.294 229.643 324.824C229.448 324.355 229.163 323.928 228.803 323.569C228.443 323.21 228.016 322.925 227.546 322.731C227.076 322.538 226.572 322.438 226.064 322.439ZM209.889 308.057C210.553 308.554 211.36 308.821 212.19 308.819C212.741 308.818 213.286 308.7 213.788 308.472C212.497 308.258 211.195 308.114 209.889 308.041V308.057ZM212.19 344.96C211.423 344.96 210.674 345.187 210.037 345.613C209.4 346.039 208.903 346.644 208.61 347.352C208.317 348.06 208.24 348.839 208.389 349.591C208.539 350.342 208.908 351.033 209.45 351.574C209.992 352.116 210.682 352.485 211.434 352.635C212.185 352.784 212.964 352.708 213.672 352.414C214.38 352.121 214.985 351.624 215.411 350.987C215.837 350.35 216.064 349.601 216.064 348.835C216.066 348.324 215.968 347.819 215.774 347.347C215.58 346.875 215.295 346.445 214.935 346.084C214.575 345.722 214.147 345.435 213.676 345.24C213.205 345.044 212.7 344.943 212.19 344.943V344.96ZM239.946 344.96C239.237 344.96 238.541 345.154 237.935 345.522C237.329 345.89 236.835 346.418 236.508 347.047C236.181 347.676 236.033 348.383 236.079 349.09C236.126 349.798 236.366 350.479 236.774 351.06C239.185 350.061 241.528 349.004 243.702 347.912C243.502 347.067 243.022 346.313 242.34 345.774C241.659 345.236 240.815 344.943 239.946 344.943V344.96Z" fill="white"></path>
  <path d="M219.076 352.583C214.694 347.414 210.041 342.49 205.363 337.566C200.684 332.642 196.057 327.719 191.226 322.913C188.519 320.206 185.829 317.474 183.02 314.851C182.944 314.783 182.817 314.851 182.885 314.97C187.259 320.13 191.903 325.122 196.531 330.028C201.158 334.935 205.836 339.884 210.608 344.74C213.289 347.49 216.013 350.18 218.822 352.803C218.957 352.946 219.211 352.735 219.076 352.583Z" fill="#263238"></path>
  <path d="M166.482 316.568L164.722 315.257L164.519 315.105C169.866 313.59 175.254 312.211 180.686 311.035C190.067 309.115 199.585 307.051 209.203 307.118C216.119 307.599 222.822 309.713 228.762 313.286C222.597 310.466 215.943 308.869 209.169 308.582C205.118 308.691 201.079 309.075 197.081 309.732C187.707 311.078 174.298 313.624 164.841 315.291L164.891 315.062L166.482 316.568Z" fill="#263238"></path>
  <path d="M121.654 265.021C124.784 315.781 137.676 354.638 159.012 354.342C173.19 354.148 163.335 312.321 163.174 311.416C158.949 292.165 152.175 273.564 143.031 256.105C127.55 226.816 120.258 242.34 121.654 265.021Z" fill="#EB9481"></path>
  <path d="M121.654 265.021C124.784 315.781 137.676 354.638 159.012 354.342C173.19 354.148 169.756 318.133 169.586 317.237C169.011 314.157 157.108 282.728 143.031 256.105C127.55 226.816 120.258 242.34 121.654 265.021Z" fill="#FFC727"></path>
  <path d="M146.669 282.415C146.671 283.182 146.445 283.932 146.02 284.57C145.595 285.208 144.991 285.706 144.283 286.001C143.575 286.296 142.796 286.373 142.044 286.225C141.292 286.076 140.6 285.708 140.058 285.166C139.515 284.625 139.145 283.935 138.995 283.183C138.845 282.431 138.921 281.651 139.214 280.943C139.507 280.234 140.004 279.629 140.641 279.203C141.278 278.776 142.028 278.549 142.794 278.549C143.821 278.549 144.805 278.956 145.531 279.681C146.258 280.406 146.667 281.389 146.669 282.415ZM128.904 257.162C128.137 257.16 127.387 257.386 126.749 257.811C126.11 258.236 125.613 258.84 125.318 259.548C125.023 260.256 124.946 261.035 125.094 261.788C125.243 262.54 125.611 263.231 126.152 263.774C126.694 264.316 127.384 264.686 128.136 264.836C128.888 264.987 129.667 264.91 130.376 264.617C131.084 264.324 131.69 263.828 132.116 263.19C132.542 262.553 132.77 261.803 132.77 261.037C132.77 260.014 132.365 259.032 131.644 258.306C130.923 257.58 129.944 257.169 128.921 257.162H128.904ZM142.778 322.439C142.011 322.439 141.261 322.667 140.624 323.093C139.987 323.519 139.49 324.125 139.197 324.833C138.904 325.542 138.828 326.321 138.978 327.073C139.128 327.825 139.498 328.515 140.041 329.057C140.584 329.599 141.275 329.967 142.027 330.115C142.779 330.264 143.558 330.186 144.266 329.891C144.974 329.597 145.579 329.099 146.003 328.461C146.428 327.822 146.654 327.072 146.652 326.306C146.653 325.798 146.554 325.296 146.361 324.827C146.168 324.358 145.884 323.931 145.525 323.572C145.167 323.213 144.741 322.928 144.273 322.734C143.804 322.54 143.302 322.439 142.794 322.439H142.778ZM169.942 322.49C169.02 322.63 168.18 323.097 167.576 323.806C166.972 324.516 166.644 325.42 166.654 326.351C166.663 327.283 167.008 328.18 167.627 328.878C168.245 329.575 169.094 330.026 170.018 330.147C170.111 327.296 170.06 324.639 169.959 322.49H169.942ZM128.904 301.053C128.387 301.053 127.875 301.157 127.399 301.357C126.922 301.558 126.491 301.851 126.129 302.22C126.546 304.369 126.983 306.467 127.44 308.514C127.904 308.705 128.402 308.803 128.904 308.802C129.931 308.802 130.917 308.394 131.643 307.667C132.37 306.94 132.778 305.955 132.778 304.927C132.778 303.9 132.37 302.914 131.643 302.187C130.917 301.461 129.931 301.053 128.904 301.053ZM156.66 301.053C155.893 301.051 155.143 301.277 154.505 301.701C153.867 302.126 153.369 302.731 153.074 303.439C152.78 304.146 152.702 304.926 152.85 305.678C152.999 306.43 153.367 307.121 153.909 307.664C154.45 308.207 155.141 308.577 155.893 308.727C156.644 308.877 157.424 308.801 158.132 308.508C158.841 308.215 159.446 307.718 159.872 307.081C160.299 306.443 160.526 305.694 160.526 304.927C160.526 303.904 160.121 302.922 159.4 302.196C158.679 301.47 157.7 301.059 156.677 301.053H156.66ZM156.66 344.943C155.893 344.941 155.143 345.167 154.505 345.592C153.867 346.017 153.369 346.621 153.074 347.329C152.78 348.037 152.702 348.816 152.85 349.568C152.999 350.321 153.367 351.012 153.909 351.555C154.45 352.097 155.141 352.467 155.893 352.617C156.644 352.768 157.424 352.691 158.132 352.398C158.841 352.105 159.446 351.609 159.872 350.971C160.299 350.334 160.526 349.584 160.526 348.818C160.526 347.795 160.121 346.813 159.4 346.087C158.679 345.361 157.7 344.95 156.677 344.943H156.66Z" fill="white"></path>
  <path d="M144.774 259.489C149.342 268.414 153.564 277.509 157.701 286.637C161.685 295.833 165.847 304.995 168.808 314.555C161.541 296.264 152.481 277.652 144.774 259.489Z" fill="#263238"></path>
  <path d="M147.701 261.435C148.945 263.973 149.909 266.849 149.528 269.692C149.038 266.942 148.107 264.218 147.701 261.435Z" fill="#263238"></path>
  <path d="M166.659 351.313C179.738 347.972 198.595 315.925 209.059 280.359C211.056 273.591 157.929 252.188 156.609 259.624C152.455 283.481 142.854 315.088 145.079 333.801C146.813 348.344 157.607 353.623 166.659 351.313Z" fill="#EB9481"></path>
  <path d="M178.96 232.569C175.356 228.94 173.791 217.95 170.263 211.724C166.735 205.497 157.988 203.264 156.728 205.802C155.467 208.34 157.912 210.531 159.646 221.148C160.754 227.984 156.838 242.23 160.298 254.48C162.04 260.656 182.572 236.198 178.96 232.569Z" fill="#F7A9A0"></path>
  <path d="M178.96 232.569C175.356 228.94 173.791 217.95 170.263 211.724C166.735 205.497 157.988 203.264 156.728 205.802C155.467 208.34 157.912 210.531 159.646 221.148C160.754 227.984 156.838 242.23 160.298 254.48C162.04 260.656 182.572 236.198 178.96 232.569Z" fill="#EB9481"></path>
  <path opacity="0.06" d="M178.96 232.569C175.356 228.94 173.791 217.95 170.263 211.724C166.735 205.497 157.988 203.264 156.728 205.802C155.467 208.34 157.912 210.531 159.646 221.148C160.754 227.984 156.838 242.23 160.298 254.48C162.04 260.656 182.572 236.198 178.96 232.569Z" fill="black"></path>
  <path d="M200.82 196.555C205.743 200.32 195.414 211.664 195.414 211.664C197.946 210.802 200.699 210.853 203.197 211.808C207.511 213.695 206.454 221.292 206.454 221.292C209.264 220.94 212.115 221.444 214.634 222.739C218.585 224.964 218.602 232.781 218.602 232.781C221.362 233.889 223.631 235.951 224.998 238.593C228.381 245.792 220.988 255.513 217.621 262.484C214.008 269.912 209.474 279.141 206.809 283.761L156.051 263.871C156.051 263.871 160.729 226.08 166.676 219.118C171.701 213.247 193.341 190.785 200.82 196.555Z" fill="#EB9481"></path>
  <path d="M195.202 211.664C188.375 216.622 182.75 223.212 177.395 229.625C177.276 229.769 177.505 229.955 177.623 229.811C182.877 223.364 189.974 218.178 195.473 211.952C195.625 211.783 195.38 211.529 195.202 211.664Z" fill="#263238"></path>
  <path d="M205.819 221.08C204.375 222.357 203.107 223.819 202.046 225.429C200.82 227.053 199.627 228.703 198.451 230.369C196.108 233.711 193.832 237.137 191.683 240.521C191.582 240.682 191.793 240.86 191.903 240.708C194.246 237.383 196.641 234.1 199.128 230.877C200.374 229.258 201.629 227.657 202.892 226.072C204.185 224.642 205.32 223.076 206.276 221.402C206.293 221.343 206.291 221.28 206.27 221.222C206.25 221.165 206.212 221.115 206.162 221.079C206.112 221.044 206.052 221.025 205.99 221.025C205.929 221.026 205.869 221.045 205.819 221.08Z" fill="#263238"></path>
  <path d="M218.501 232.916C217.147 233.88 216.233 235.657 215.32 237.01C214.279 238.559 213.23 240.09 212.181 241.621C210.066 244.692 207.951 247.746 205.743 250.741C205.633 250.885 205.853 251.071 205.972 250.919C208.23 247.898 210.54 244.904 212.782 241.858C213.882 240.358 214.973 238.858 216.056 237.357C216.978 236.08 218.272 234.582 218.661 233.017C218.662 232.998 218.658 232.979 218.649 232.962C218.64 232.945 218.626 232.931 218.61 232.92C218.594 232.91 218.575 232.904 218.556 232.903C218.537 232.903 218.518 232.907 218.501 232.916Z" fill="#263238"></path>
  <path d="M189.492 198.687C183.57 203.018 178.283 208.204 172.962 213.238C170.968 215.111 169.073 217.088 167.285 219.16C165.681 221.351 164.431 223.78 163.58 226.359C162.912 228.051 162.37 229.828 161.837 231.596C162.683 227.104 163.707 222.29 166.473 218.526C168.219 216.35 170.11 214.295 172.133 212.375C177.513 207.35 183.02 202.223 189.492 198.67V198.687Z" fill="#263238"></path>
  <path d="M147.532 274.15L199.483 311.492C199.483 311.492 178.401 354.376 166.659 354.715C154.917 355.053 141.517 348.742 139.715 320.604C139.258 313.582 147.532 274.15 147.532 274.15Z" fill="#FFC727"></path>
  <path d="M146.669 282.415C146.67 282.99 146.543 283.558 146.297 284.077C146.051 284.596 145.693 285.055 145.248 285.419C145.595 283.659 145.925 282.035 146.212 280.588C146.511 281.151 146.667 281.778 146.669 282.415ZM142.795 322.44C142.264 322.438 141.738 322.548 141.252 322.76C140.766 322.973 140.329 323.284 139.969 323.675C140.172 325.79 140.46 327.769 140.815 329.597C141.413 329.964 142.101 330.157 142.803 330.155C143.326 330.18 143.849 330.098 144.34 329.914C144.831 329.731 145.28 329.449 145.659 329.088C146.038 328.726 146.34 328.291 146.546 327.809C146.752 327.327 146.859 326.809 146.859 326.285C146.859 325.76 146.752 325.242 146.546 324.76C146.34 324.278 146.038 323.843 145.659 323.481C145.28 323.12 144.831 322.839 144.34 322.655C143.849 322.472 143.326 322.39 142.803 322.414L142.795 322.44ZM170.551 322.44C169.784 322.44 169.035 322.667 168.397 323.093C167.76 323.519 167.263 324.125 166.97 324.833C166.677 325.542 166.601 326.321 166.751 327.073C166.902 327.825 167.271 328.515 167.814 329.057C168.357 329.599 169.048 329.967 169.8 330.115C170.552 330.264 171.332 330.186 172.039 329.892C172.747 329.597 173.352 329.099 173.777 328.461C174.201 327.822 174.427 327.072 174.425 326.306C174.425 325.797 174.325 325.294 174.13 324.824C173.935 324.355 173.65 323.928 173.29 323.569C172.93 323.21 172.503 322.925 172.033 322.731C171.563 322.538 171.059 322.438 170.551 322.44ZM156.677 301.053C155.91 301.051 155.16 301.277 154.522 301.702C153.884 302.126 153.386 302.731 153.091 303.439C152.797 304.147 152.719 304.926 152.867 305.678C153.016 306.43 153.384 307.121 153.926 307.664C154.467 308.207 155.158 308.577 155.909 308.727C156.661 308.877 157.441 308.801 158.149 308.508C158.858 308.215 159.463 307.718 159.889 307.081C160.316 306.443 160.543 305.694 160.543 304.927C160.543 303.901 160.136 302.917 159.411 302.19C158.686 301.464 157.703 301.055 156.677 301.053ZM187.885 303.176L184.992 301.095C184.806 301.082 184.619 301.082 184.433 301.095C183.667 301.095 182.918 301.322 182.281 301.748C181.643 302.174 181.147 302.779 180.854 303.487C180.56 304.195 180.484 304.974 180.633 305.726C180.783 306.477 181.152 307.168 181.694 307.709C182.235 308.251 182.926 308.62 183.677 308.77C184.429 308.919 185.208 308.843 185.916 308.549C186.624 308.256 187.229 307.759 187.655 307.122C188.081 306.485 188.308 305.736 188.308 304.97C188.315 304.346 188.17 303.731 187.885 303.176ZM156.677 344.943C155.91 344.941 155.16 345.167 154.522 345.592C153.884 346.017 153.386 346.621 153.091 347.329C152.797 348.037 152.719 348.816 152.867 349.568C153.016 350.321 153.384 351.012 153.926 351.555C154.467 352.097 155.158 352.467 155.909 352.617C156.661 352.768 157.441 352.691 158.149 352.398C158.858 352.105 159.463 351.609 159.889 350.971C160.316 350.334 160.543 349.584 160.543 348.818C160.543 347.792 160.136 346.807 159.411 346.081C158.686 345.355 157.703 344.945 156.677 344.943Z" fill="white"></path>
  <path d="M148.699 291.586C151.237 293.278 153.623 295.258 156.051 297.127C158.479 298.997 160.89 300.9 163.275 302.829C168.047 306.681 172.787 310.573 177.496 314.504C178.782 315.587 180.034 316.661 181.329 317.77C182.623 318.878 183.866 320.308 185.254 321.458C185.271 321.478 185.281 321.502 185.281 321.528C185.282 321.554 185.273 321.579 185.257 321.6C185.241 321.62 185.218 321.634 185.193 321.639C185.168 321.644 185.141 321.64 185.118 321.627C183.926 320.705 182.581 319.935 181.396 319.039C180.212 318.142 178.909 317.144 177.682 316.171C175.28 314.27 172.886 312.355 170.5 310.426C165.72 306.585 160.966 302.702 156.322 298.701C153.699 296.442 150.984 294.234 148.496 291.823C148.481 291.809 148.468 291.793 148.459 291.775C148.45 291.757 148.444 291.737 148.442 291.716C148.441 291.696 148.443 291.675 148.45 291.656C148.456 291.636 148.466 291.618 148.479 291.603C148.493 291.587 148.509 291.574 148.527 291.565C148.546 291.556 148.565 291.55 148.586 291.549C148.606 291.547 148.627 291.55 148.646 291.556C148.666 291.562 148.684 291.573 148.699 291.586Z" fill="#263238"></path>
  <path d="M153.42 278.38L147.439 274.268L147.701 274.167C146.009 284.319 144.089 294.471 142.329 304.623C141.491 309.016 140.875 313.449 140.485 317.905C140.322 323.674 140.865 329.441 142.101 335.079C140.175 329.549 139.164 323.743 139.106 317.888C139.521 308.167 141.695 298.625 143.657 289.124C144.785 284.008 146.046 278.916 147.439 273.845L147.633 273.989L153.42 278.363V278.38Z" fill="#263238"></path>
  <path d="M197.927 310.367L199.508 311.484C196.658 317.626 193.502 323.615 190.118 329.487C184.814 338.09 179.586 347.253 171.295 353.437C168.47 355.56 164.714 355.975 161.245 356.043C157.753 356.158 154.282 355.475 151.094 354.046C141.509 349.452 136.712 339.097 133.328 329.613C128.946 316.771 126.307 303.481 123.828 290.181C122.686 283.523 121.578 276.865 120.723 270.165C121.958 276.798 123.219 283.43 124.64 290.021C127.423 303.184 130.401 316.39 134.792 329.097C138.125 338.167 142.761 348.09 151.796 352.582C154.77 353.934 158.013 354.59 161.279 354.503C164.494 354.393 167.818 354.207 170.534 352.21C178.621 346.237 184.069 337.414 189.433 329.038C192.994 323.421 196.37 317.194 199.483 311.543L197.952 310.35L197.927 310.367Z" fill="#263238"></path>
  <path d="M119.463 274.801C119.463 274.801 118.955 277.204 122.356 281.417L119.463 274.801Z" fill="#263238"></path>
  <path d="M189.221 150.524C189.221 151.279 189.445 152.016 189.864 152.644C190.283 153.271 190.879 153.76 191.576 154.049C192.274 154.338 193.041 154.413 193.781 154.266C194.521 154.119 195.201 153.755 195.734 153.222C196.268 152.688 196.631 152.008 196.779 151.268C196.926 150.528 196.85 149.761 196.561 149.064C196.273 148.367 195.784 147.771 195.156 147.352C194.529 146.932 193.791 146.708 193.037 146.708C192.535 146.708 192.039 146.807 191.576 146.999C191.114 147.191 190.693 147.472 190.339 147.826C189.984 148.18 189.703 148.601 189.512 149.064C189.32 149.527 189.221 150.023 189.221 150.524Z" fill="white"></path>
  <path d="M189.221 150.524C189.221 151.48 189.601 152.396 190.277 153.072C190.953 153.748 191.869 154.128 192.825 154.128C193.781 154.128 194.697 153.748 195.373 153.072C196.049 152.396 196.429 151.48 196.429 150.524C196.429 149.568 196.049 148.651 195.373 147.976C194.697 147.3 193.781 146.92 192.825 146.92C191.869 146.92 190.953 147.3 190.277 147.976C189.601 148.651 189.221 149.568 189.221 150.524ZM189.221 150.524C189.373 145.211 197.097 145.169 197.275 150.524C197.097 155.871 189.373 155.828 189.221 150.524Z" fill="#263238"></path>
  <path d="M206.657 152.876C209.689 152.876 212.147 150.417 212.147 147.385C212.147 144.353 209.689 141.895 206.657 141.895C203.624 141.895 201.166 144.353 201.166 147.385C201.166 150.417 203.624 152.876 206.657 152.876Z" fill="white"></path>
  <path d="M201.166 147.368C201.099 152.089 207.139 154.466 210.286 150.998C211.21 150.015 211.725 148.717 211.725 147.368C211.725 146.019 211.21 144.721 210.286 143.739C207.139 140.279 201.099 142.648 201.166 147.368ZM201.166 147.368C201.166 146.422 201.401 145.491 201.849 144.659C202.297 143.826 202.946 143.118 203.736 142.597C204.525 142.077 205.432 141.761 206.374 141.678C207.316 141.595 208.264 141.747 209.133 142.121C210.002 142.494 210.764 143.078 211.352 143.819C211.939 144.561 212.333 145.436 212.499 146.367C212.664 147.299 212.596 148.256 212.3 149.155C212.003 150.053 211.489 150.863 210.802 151.514C209.989 152.273 208.972 152.779 207.876 152.97C206.78 153.161 205.652 153.028 204.63 152.588C203.608 152.149 202.736 151.421 202.121 150.494C201.506 149.567 201.174 148.481 201.166 147.368Z" fill="#263238"></path>
  <path d="M256.036 160.304C280.266 160.304 299.908 145.68 299.908 127.64C299.908 109.6 280.266 94.9756 256.036 94.9756C231.806 94.9756 212.164 109.6 212.164 127.64C212.164 145.68 231.806 160.304 256.036 160.304Z" fill="white"></path>
  <path d="M213.365 120.051C208.289 135.727 219.879 149.948 233.872 155.693C240.835 158.595 248.307 160.081 255.851 160.065C263.395 160.049 270.86 158.531 277.811 155.6C286.872 151.717 295.221 144.712 298.301 135.101C304.823 113.427 282.963 97.9872 263.701 95.703C244.539 92.9958 220.37 100.297 213.365 120.051ZM213.365 120.051C220.345 100.238 244.489 92.8181 263.76 95.28C273.759 96.6082 283.691 100.415 291.059 107.471C298.546 114.374 302.471 125.457 299.088 135.363C290.239 160.067 255.469 165.819 233.753 155.938C219.812 150.016 208.205 135.753 213.348 120.051H213.365Z" fill="#263238"></path>
  <path d="M257.754 130.253V133.476C257.763 133.798 257.707 134.118 257.588 134.418C257.469 134.717 257.291 134.989 257.064 135.217C256.836 135.445 256.565 135.624 256.266 135.744C255.968 135.864 255.647 135.921 255.326 135.913C254.681 135.911 254.063 135.653 253.608 135.196C253.153 134.74 252.898 134.121 252.898 133.476V128.316C252.898 128.265 252.948 128.265 252.948 128.223C252.948 128.18 252.898 128.172 252.898 128.121C252.923 127.484 253.186 126.88 253.636 126.429C254.086 125.978 254.689 125.712 255.326 125.685C256.8 125.685 258.213 125.099 259.256 124.057C260.298 123.014 260.884 121.601 260.884 120.127C260.884 118.652 260.298 117.239 259.256 116.196C258.213 115.154 256.8 114.568 255.326 114.568C254.361 114.563 253.413 114.813 252.576 115.293C251.74 115.773 251.045 116.466 250.563 117.301C250.403 117.585 250.187 117.834 249.929 118.034C249.67 118.233 249.375 118.378 249.059 118.461C248.743 118.544 248.414 118.563 248.091 118.516C247.768 118.469 247.458 118.358 247.179 118.189C246.905 118.028 246.665 117.814 246.474 117.559C246.283 117.305 246.144 117.015 246.066 116.707C245.987 116.399 245.97 116.078 246.016 115.763C246.062 115.448 246.17 115.146 246.333 114.873C247.199 113.377 248.423 112.119 249.895 111.213C251.368 110.308 253.042 109.782 254.768 109.684C256.494 109.586 258.217 109.918 259.783 110.651C261.348 111.384 262.707 112.494 263.737 113.882C264.767 115.271 265.436 116.893 265.684 118.604C265.932 120.315 265.75 122.06 265.156 123.684C264.562 125.307 263.573 126.757 262.28 127.904C260.986 129.051 259.428 129.858 257.745 130.253H257.754ZM257.754 141.124V141.97C257.763 142.292 257.707 142.612 257.588 142.912C257.469 143.211 257.291 143.483 257.064 143.711C256.836 143.939 256.565 144.118 256.266 144.238C255.968 144.357 255.647 144.415 255.326 144.407C254.681 144.405 254.063 144.147 253.608 143.69C253.153 143.233 252.898 142.615 252.898 141.97V141.124C252.906 140.482 253.165 139.869 253.618 139.414C254.071 138.959 254.684 138.699 255.326 138.688C255.646 138.684 255.964 138.745 256.261 138.866C256.557 138.988 256.827 139.167 257.053 139.394C257.279 139.621 257.458 139.891 257.578 140.188C257.699 140.486 257.758 140.804 257.754 141.124Z" fill="#FFC727"></path>
</svg>
