<svg width="64" height="64" viewBox="0 0 64 64" fill="none" xmlns="http://www.w3.org/2000/svg">
<g clip-path="url(#clip0_1_24524)">
<path d="M44.1235 61.3272C60.3355 54.6587 68.0721 36.1102 61.4035 19.8982C54.7349 3.68609 36.1865 -4.05045 19.9744 2.61812C3.76236 9.28668 -3.97418 27.8351 2.69438 44.0472C9.36295 60.2593 27.9114 67.9958 44.1235 61.3272Z" fill="white"/>
<path d="M35.0524 3.83008L34.8747 4.89183L35.2173 4.95003L35.3039 4.43233L36.3828 4.61502L35.7938 8.10134L35.1895 7.99962L35.1465 8.26126L37.1546 8.60135L37.2007 8.34022L36.6015 8.23849L37.1905 4.75218L38.2619 4.93234L38.1733 5.45056L38.516 5.50876L38.6961 4.44752L38.3535 4.38882L38.3231 4.56392L35.3672 4.06392L35.3976 3.88882L35.0524 3.83008ZM30.4335 3.91662V4.18332H30.9132L30.9056 7.82691L30.4259 7.82438V8.09108L32.1981 8.09614V7.82944H31.7234L31.7285 6.23481H31.9011L32.8459 7.72266C33.0618 8.05785 33.1225 8.09614 33.4957 8.09868L34.2984 8.10121L34.2933 7.82946H34.0342C33.9072 7.82946 33.8313 7.77102 33.6865 7.55011L32.7923 6.16904C33.3865 5.98621 33.6784 5.62042 33.6809 5.05163C33.6809 4.71644 33.582 4.44456 33.3737 4.23383C33.1478 4.00529 32.8432 3.92157 32.2999 3.92157L30.4335 3.91662ZM27.4268 4.16054L27.0462 4.22633L26.1292 8.48739L25.7435 8.55318L25.7891 8.81483L27.0791 8.59114L27.0335 8.32949L26.5355 8.41603L26.7643 7.33707L28.2774 7.07291L28.8387 8.01472L28.4019 8.09114L28.4474 8.35279L29.9687 8.08862L29.9257 7.82698L29.664 7.87252L27.4268 4.16054ZM31.7285 4.27441H32.1273C32.5767 4.27695 32.8358 4.56666 32.8333 5.07451C32.8333 5.57475 32.5337 5.92017 32.0995 5.92017L31.726 5.91764L31.7285 4.27441ZM39.7321 4.82805L39.636 5.07704L40.1309 5.26985L38.8131 8.66755L38.3182 8.47423L38.2215 8.72322L39.5849 9.25157L39.6815 9.00511L39.1866 8.8123L40.1537 6.31889L40.4892 9.67073L42.8936 7.31952L41.9057 9.86607L41.4108 9.67326L41.3141 9.91921L43.0661 10.5999L43.1628 10.3509L42.6678 10.1581L43.9856 6.76324L44.478 6.95099L44.5747 6.70453L43.4067 6.25262L41.1111 8.51781L40.7756 5.23437L39.7321 4.82805ZM24.0804 5.15295C23.9125 5.14965 23.7335 5.17791 23.5475 5.23948L21.7292 5.84373L21.8132 6.09524L22.2702 5.94544L23.4179 9.40404L22.9605 9.55383L23.0445 9.80788L24.7864 9.23147L24.6973 8.97489L24.1872 9.14493L23.0672 5.77055L23.4281 5.65111C23.8623 5.50892 24.182 5.72961 24.3673 6.29332C24.5451 6.82656 24.4158 7.19771 24.007 7.33229C23.9537 7.35007 23.9233 7.3601 23.8395 7.36772L23.9357 7.66225C24.1007 7.6394 24.1696 7.6239 24.2712 7.59089C24.9746 7.35982 25.3706 6.62861 25.1548 5.97348C24.9853 5.45547 24.5841 5.16282 24.0804 5.15295ZM27.2089 5.26226L28.0722 6.71721L26.848 6.93077L27.2089 5.26226ZM20.1624 6.32401L19.8603 6.4814L19.9392 6.63879L17.6234 7.83211L17.7449 8.06845L18.1715 7.8473L19.84 11.0877L19.4134 11.3058L19.5354 11.5422L22.2115 10.1631L21.8208 9.41413L21.5181 9.56899L21.7342 9.98548L20.5156 10.615L19.7995 9.22637L20.6983 8.76381L20.9012 9.15753L21.2034 8.99508L20.632 7.8878L20.3299 8.05076L20.5283 8.43134L19.629 8.89592L18.9463 7.56798L20.1168 6.96625L20.3248 7.37264L20.6219 7.21778L20.1624 6.32401ZM45.852 7.47684L45.7098 7.70002L46.1157 7.95913L44.1557 11.0291L43.7493 10.7699L43.6071 10.9936L46.1466 12.6136L46.5934 11.9076L46.3065 11.7249L46.055 12.1186L44.8996 11.3798L45.7402 10.064L46.5934 10.6075L46.3546 10.981L46.6466 11.1586L47.3171 10.1075L47.0251 9.92989L46.7913 10.2927L45.9406 9.7467L46.7432 8.48758L47.8525 9.19557L47.6066 9.57918L47.891 9.75934L48.4315 8.91118L48.142 8.72848L48.0484 8.87828L45.852 7.47684ZM16.3188 9.18079C15.9149 9.20238 15.5086 9.34219 15.1477 9.6069L13.5581 10.7749L13.7155 10.9885L14.1037 10.7041L16.257 13.6343C16.3586 13.6749 16.4601 13.7131 16.5616 13.7512L17.6158 12.9769C18.116 12.6087 18.3771 12.2076 18.4711 11.6642C18.5676 11.0725 18.4358 10.4958 18.0905 10.026C17.6572 9.43723 16.9918 9.1448 16.3188 9.18079ZM16.0323 9.77037C16.5143 9.80782 17.0275 10.0886 17.3719 10.5568C17.961 11.3541 17.9227 12.3163 17.2777 12.7886L16.8638 13.0933L14.8071 10.2951L15.2413 9.97784C15.4651 9.81311 15.7431 9.7479 16.0323 9.77037ZM49.4548 9.85843L49.2772 10.0538L49.6127 10.3615L49.5439 10.737L47.307 13.1899L46.9184 12.8372L46.7382 13.0325L47.7944 13.9951L47.972 13.7967L47.6041 13.4591L49.4649 11.4176L49.0667 14.6601C49.4526 14.5611 49.8637 14.4495 50.3106 14.3251C50.3461 14.315 50.3818 14.3049 50.4174 14.2947L52.0095 12.5478L52.4032 12.9056L52.5833 12.7102L51.5322 11.7477L51.3521 11.9456L51.72 12.2836L49.9351 14.2411L50.3845 10.7066L49.4548 9.85843ZM12.7934 12.7659C12.509 13.6064 13.1188 14.7239 13.8476 14.8737C13.2026 14.9397 12.6511 15.2747 12.3947 15.6404C12.8797 16.2041 13.8524 16.7906 14.6548 16.8059C14.2841 17.0547 13.8345 17.5801 13.6821 17.8747C14.3754 18.2429 15.4803 18.553 16.331 18.4946C15.973 18.7816 15.6632 19.1443 15.4626 19.4769C16.039 19.7385 17.1562 20.1194 18.2226 20.2006C17.829 20.3936 17.2702 21.0641 16.9807 21.4754C17.58 21.7446 18.8777 21.9048 19.6827 21.986C19.1063 22.2908 18.5042 22.8951 18.1716 23.441C18.7556 23.7203 19.8526 24.0327 20.749 24.0048C20.3072 24.4288 20.0153 24.9443 19.8477 25.442C20.5257 25.5817 21.2416 25.5841 22.0668 25.4724C21.5641 26.1072 21.3636 26.9475 21.2925 27.5493C21.9654 27.529 22.8592 27.3765 23.4889 26.9982C23.3518 27.5136 23.3824 28.207 23.6033 28.6996C23.8674 28.6412 24.1745 28.5297 24.5071 28.3494C24.464 27.3921 24.4207 26.4144 24.3928 25.6096C23.9408 25.3785 23.545 25.1094 23.121 24.7234C21.76 23.4817 21.4374 22.1765 21.8386 20.6785C22.0773 19.7872 22.4428 19.3376 22.3184 18.4057C22.2473 17.8724 21.8688 17.4434 21.493 17.0828C20.5814 16.2068 19.5026 15.6657 17.9079 15.1299C16.9227 14.7998 14.0579 13.9085 12.7934 12.7659ZM32.051 13.2229C28.4276 13.2229 25.0452 14.2516 22.176 16.029C22.9201 16.608 23.3619 17.2171 23.4686 17.8519C23.5625 18.408 23.6286 19.0783 23.3061 20.0584C22.9659 21.0969 22.7776 22.1634 23.5445 23.2478C24.3063 24.3269 25.2992 24.7918 26.1194 24.9492C27.1935 24.7613 28.387 24.6064 29.5728 24.5125C29.7277 24.0097 30.1876 23.5729 30.6446 23.2174C31.3125 22.6994 31.1649 22.245 31.005 21.892C30.8831 21.6178 30.6443 21.3916 30.3015 21.2139C30.0019 21.059 28.9026 20.9447 28.9306 21.6481C28.7528 21.3942 28.6053 21.0489 28.712 20.6096C28.8592 19.9977 29.8624 19.8404 30.1112 19.8581C29.9183 19.6956 30.0373 19.4314 30.4766 19.3095C31.0099 19.1623 31.5154 19.1395 32.003 19.1522C33.0085 19.1775 33.1656 19.4239 33.676 19.8758C34.2905 20.4218 35.1036 20.6123 35.4235 20.2822C35.195 20.8053 34.4636 21.0846 33.9938 21.0034C34.2224 21.7271 34.3032 22.357 34.3845 23.1162C34.4226 23.4616 34.494 24.0427 34.5879 24.5176C35.9363 24.6293 37.2873 24.8148 38.4655 25.0408C38.9556 24.8986 39.4609 24.6115 39.9154 24.0859C40.3471 23.5882 40.7429 22.9563 40.5804 21.3668C40.5347 20.9199 40.3111 19.7745 40.3415 19.2337C40.4152 18.0123 41.3219 17.2147 42.7464 16.5672C39.7119 14.4596 36.0274 13.2231 32.0511 13.2231L32.051 13.2229ZM53.7615 13.6875L52.9082 14.3403L53.1193 14.6171L53.5358 14.2998L54.1982 15.1683L51.39 17.314L51.2452 17.1232C51.164 17.1689 51.0826 17.2071 51.0013 17.2426L52.0423 18.606L52.2533 18.4461L51.8849 17.9638L54.6936 15.8181L55.3536 16.6814L54.9371 17.0012L55.1506 17.2781L56.0039 16.6257L55.7903 16.3464L55.6507 16.4532L53.8328 14.0711L53.9725 13.9643L53.7615 13.6875ZM51.7428 14.3074C50.4782 15.4526 48.4572 15.7574 46.3344 16.4607C44.7346 16.9889 43.7417 17.2958 42.3122 18.4385C41.9034 18.7635 41.515 19.2413 41.5582 20.064C41.6064 20.9781 41.7559 21.3713 41.7788 22.6485C41.7966 23.5575 41.4821 24.2917 41.1012 24.7234C40.6974 25.1804 40.1716 25.5788 39.7019 25.8251C39.674 26.6021 39.6383 27.3817 39.5951 28.2882C39.9277 28.4685 40.3543 28.6387 40.6184 28.6971C40.8393 28.207 40.8699 27.5111 40.7327 26.9957C41.3625 27.374 42.2562 27.5265 42.9291 27.5468C42.858 26.945 42.6576 26.1047 42.1548 25.4699C42.9801 25.5816 43.696 25.5766 44.374 25.4395C44.2064 24.9418 43.9145 24.4238 43.4726 24.0023C44.369 24.0302 45.4686 23.7203 46.0526 23.4385C45.72 22.8925 45.1179 22.2882 44.5415 21.9835C45.3464 21.9023 46.6796 21.7471 47.2787 21.478C46.9892 21.0666 46.3929 20.3911 46.0019 20.1956C47.0684 20.1169 48.1856 19.736 48.7619 19.4719C48.5588 19.1392 48.249 18.7765 47.8935 18.4896C48.8914 18.4236 49.8486 18.2378 50.5418 17.8697C50.3895 17.5751 49.9374 17.0471 49.5692 16.8008C51.7047 16.2066 51.7402 15.1377 51.7428 14.3074ZM7.90405 17.3494L7.73654 17.6464L7.90152 17.74C7.69838 17.9 7.56895 18.0526 7.44707 18.2684C7.06871 18.9413 7.22126 19.6144 7.82814 19.9546C8.0719 20.0892 8.33084 20.1426 8.56953 20.0943C8.81583 20.0461 8.90989 20.0105 9.55484 19.6626C10.1744 19.3351 10.4386 19.274 10.6874 19.4136C10.9744 19.5762 11.0403 19.9367 10.8474 20.2795C10.695 20.5487 10.5171 20.6961 10.1793 20.8332L9.77296 20.6044L9.60292 20.9091L10.5958 21.4678L10.7659 21.1631L10.568 21.0538C10.86 20.8862 11.0557 20.6911 11.236 20.3711C11.5991 19.7261 11.4133 19.0201 10.7861 18.6672C10.5703 18.5453 10.3598 18.492 10.1313 18.5022C9.92812 18.5123 9.74265 18.5606 9.58268 18.6368C9.50396 18.6723 9.31351 18.7764 9.00626 18.9364C8.37144 19.2741 8.1634 19.325 7.94249 19.2005C7.68349 19.0558 7.60489 18.7202 7.76486 18.4333C7.87912 18.2277 8.01844 18.111 8.29774 17.9637L8.67881 18.1768L8.84632 17.8797L7.90405 17.3494ZM12.0104 17.8822C11.7793 17.8822 11.5964 18.0651 11.5964 18.2962C11.5964 18.5273 11.7793 18.7102 12.0104 18.7102C12.2415 18.7102 12.4244 18.5273 12.4244 18.2962C12.4244 18.0677 12.2415 17.8848 12.0104 17.8822ZM56.0564 19.5548C55.7769 19.563 55.492 19.6249 55.2158 19.7461C54.1087 20.2311 53.5983 21.463 54.0655 22.5295C54.5328 23.5934 55.7874 24.0605 56.8945 23.5755C58.0016 23.0905 58.5019 21.8566 58.0347 20.7901C57.6843 19.9902 56.895 19.5302 56.0564 19.5548ZM31.2552 19.8337C30.8183 19.827 30.65 19.9657 30.2805 19.9162C30.4659 20.0558 30.5749 20.0736 30.6383 20.0609C30.6434 20.0939 30.7046 20.1398 30.7198 20.1525C30.7605 20.188 30.781 20.2212 30.7937 20.2593C30.8775 20.2237 31.1007 20.132 31.3064 20.0584C31.5146 19.9847 31.7988 19.901 31.7988 19.901C31.576 19.854 31.4009 19.8359 31.2552 19.8337ZM56.565 20.36C57.0944 20.3686 57.5455 20.573 57.7042 20.9349C57.9581 21.5215 57.4097 22.3769 56.5362 22.7578C55.6551 23.1437 54.6525 22.9688 54.396 22.3848C54.1446 21.8058 54.693 20.9499 55.5742 20.5639C55.9017 20.4202 56.2474 20.3548 56.565 20.36ZM5.71224 21.9045L5.29321 23.3114L5.55486 23.3898L5.70465 22.8873L7.95971 23.5604C8.70118 23.7813 9.00348 24.3347 8.78764 25.0609C8.73432 25.2437 8.64027 25.4061 8.52348 25.5305C8.26702 25.7921 7.95476 25.8176 7.34282 25.6348L5.08269 24.9617L5.21983 24.5072L4.96579 24.4313L4.45819 26.1272L4.71173 26.2036L4.84888 25.7441L7.29928 26.4728C8.13721 26.7217 8.86606 26.2439 9.15808 25.2638C9.25203 24.9489 9.27259 24.6318 9.23196 24.3296C9.14309 23.7405 8.78497 23.3748 8.09937 23.1717L5.819 22.491L5.97133 21.9834L5.71224 21.9045ZM9.58774 22.3812C9.42313 22.3813 9.26712 22.4789 9.19856 22.6408C9.10715 22.8567 9.20894 23.1031 9.42477 23.1945C9.64061 23.2859 9.887 23.1846 9.97841 22.9688C10.0673 22.7504 9.96549 22.5015 9.7522 22.4151C9.69824 22.3923 9.64261 22.3812 9.58774 22.3812ZM58.9688 23.7633L58.7122 23.8296L58.8316 24.2916L55.2997 25.1879L55.1828 24.7233L54.9237 24.7891L55.3478 26.4576L55.5993 26.3913L55.4951 25.9824L57.115 25.5715L57.364 26.5513L56.9349 26.6606L57.0265 26.9905L58.2324 26.6833L58.1434 26.3534L57.7274 26.4602L57.4784 25.4799L58.9257 25.1115L59.2481 26.3863L58.8063 26.4981L58.8903 26.823L59.865 26.5765L59.7815 26.2441L59.6114 26.2901L58.9688 23.7633ZM32.0473 24.8605C29.828 24.8605 27.0022 25.1776 24.8692 25.6626C24.92 27.0592 25.0035 28.8289 25.1 30.5862C27.1111 30.1596 29.7671 29.8448 32.0475 29.8448C34.3277 29.8448 36.9864 30.1596 38.9947 30.5862C39.0912 28.829 39.1752 27.0592 39.226 25.6626C37.0956 25.1776 34.2666 24.8605 32.0473 24.8605ZM32.0549 25.4136L32.1566 25.7871L32.5377 25.7669L32.2174 25.9774L32.3545 26.3407L32.0549 26.0968L31.7579 26.3407L31.895 25.9774L31.5752 25.7669L31.9562 25.7871L32.0549 25.4136ZM30.2447 25.4698L30.3667 25.8377L30.7473 25.7947L30.4401 26.026L30.6 26.3787L30.2877 26.153L30.0058 26.4141L30.1202 26.0462L29.7852 25.8529L30.1683 25.8503L30.2447 25.4698ZM33.8681 25.4723L33.944 25.8504L34.3276 25.8559L33.9951 26.0462L34.109 26.4167L33.8276 26.153L33.5149 26.3812L33.6723 26.026L33.3651 25.7947L33.7461 25.8377L33.8681 25.4723ZM28.4416 25.6246L28.5838 25.985L28.9598 25.9242L28.6653 26.1707L28.8429 26.5133L28.518 26.3053L28.2488 26.5821L28.3454 26.2061L28.0023 26.031L28.3859 26.0083L28.4416 25.6246ZM35.6658 25.6246L35.7245 26.0083L36.1051 26.031L35.7625 26.2061L35.8616 26.5822L35.5899 26.3053L35.267 26.5158L35.4452 26.1707L35.1481 25.9243L35.5261 25.9875L35.6658 25.6246ZM26.6516 25.8635L26.8065 26.2162L27.1825 26.1373L26.8981 26.3964L27.0884 26.7345L26.7559 26.5361L26.5018 26.8256L26.5803 26.4475L26.2301 26.2871L26.6111 26.2466L26.6516 25.8635ZM37.4614 25.866L37.5019 26.2491L37.883 26.2901L37.5323 26.4501L37.6112 26.8281L37.3546 26.5386L37.0222 26.7345L37.215 26.3989L36.9305 26.1398L37.304 26.2188L37.4614 25.866ZM47.9305 26.3382C49.0198 26.9756 49.3955 27.6659 49.5555 28.4582C48.6845 28.6537 47.5218 28.3668 46.8869 27.8691C47.5116 28.415 47.9025 29.2709 47.9304 30.1545C47.0315 30.2002 46.2038 29.7786 45.5944 29.1692C45.9855 29.6034 46.4804 30.708 46.3637 31.49C45.6146 31.4113 44.7312 30.9212 44.2538 30.3347C44.65 31.2132 44.84 31.922 44.7943 32.7092C44.0478 32.5695 43.4844 32.3587 42.8166 31.7239C43.1391 32.5237 43.2556 33.3288 43.1845 33.9916C42.3237 33.6869 41.7525 33.3466 41.2675 32.5341C41.524 33.2476 41.6943 34.1871 41.514 34.733C40.7852 34.5146 40.3053 34.0777 39.9269 33.3337C40.3002 34.1234 40.2543 35.04 40.1273 35.5174C39.8226 35.4564 39.4241 35.2459 39.2108 35.0123C39.2007 35.1545 39.1926 35.2942 39.1825 35.4288C39.1469 35.9621 39.0404 36.4621 38.8677 36.9217C38.9261 36.9903 39.0686 37.158 39.0762 37.1656C39.4597 37.577 39.9827 37.9678 40.3966 38.0999C40.2188 38.1253 39.9723 38.2799 39.726 38.3053C40.0003 38.6151 40.5563 38.6841 40.9016 39.0371C40.6325 39.0676 40.5692 39.2629 40.2468 39.2274C40.8664 39.7048 41.4324 39.7227 41.7498 39.7608C41.8768 39.776 42.2934 39.8141 42.5575 39.7734C42.9308 39.715 43.3166 39.9027 43.469 39.989C43.6975 40.1236 43.6847 40.4384 43.6415 40.5984C43.6136 40.6948 43.5733 40.8091 43.4006 40.8979C43.3016 40.9259 43.2404 40.9336 43.3369 40.86C43.4283 40.794 43.5097 40.3929 43.3014 40.238C43.1491 40.1263 42.9359 40.0345 42.6845 40.0447C42.4052 40.0574 41.9757 40.0832 41.7701 40.0629C41.5796 40.0426 41.463 40.2938 41.435 40.3979C41.3665 40.6468 41.2905 40.9567 40.93 40.8018C40.4881 40.5479 39.8556 40.568 39.1319 40.2785C39.236 40.502 39.1902 40.6926 39.3019 40.9415C38.657 40.784 38.4944 40.4564 37.8799 40.2406C37.9814 40.4666 37.9538 40.6391 38.0934 40.8499C37.5754 40.7585 37.0929 40.2939 36.3718 40.1009C36.3489 40.1085 36.3288 40.1135 36.306 40.1211C36.0444 40.1999 35.8057 40.2763 35.5874 40.3423C36.0978 40.9213 36.5189 41.6293 36.7144 42.4875C36.7144 42.4875 36.3564 42.4978 35.8232 42.3124C35.9755 42.7797 36.0696 43.2827 36.0772 43.8211C36.0772 43.8211 35.6733 43.7474 35.1197 43.4046C35.168 43.9124 35.1505 44.4406 35.0464 44.984C35.0464 44.984 34.5792 44.7932 34.0281 44.2295C33.9647 44.7551 33.8326 45.2883 33.6066 45.814C33.6066 45.814 33.1825 45.5248 32.7457 44.8494C32.5654 45.375 32.3117 45.8927 31.9664 46.3853C31.9664 46.3853 31.5014 45.8979 31.1865 44.9126C30.765 45.5424 30.3667 45.8139 30.3667 45.8139C30.1407 45.2858 30.0086 44.7525 29.9451 44.2294C29.3941 44.7906 28.9269 44.984 28.9269 44.984C28.8202 44.4406 28.8022 43.9099 28.8505 43.402C28.2969 43.7448 27.8935 43.8185 27.8935 43.8185C27.9036 43.2827 27.9972 42.7796 28.1495 42.3099C27.6163 42.4952 27.2584 42.485 27.2583 42.485C27.4589 41.609 28.0328 40.7101 28.4162 40.3063C28.2283 40.2479 28.0253 40.1846 27.8069 40.1186C27.7841 40.111 27.7635 40.106 27.7406 40.0983C27.0195 40.2913 26.5375 40.7559 26.0195 40.8473C26.1566 40.634 26.1284 40.4615 26.23 40.238C25.6155 40.4538 25.4529 40.7815 24.8105 40.9389C24.9196 40.6901 24.8764 40.4994 24.9805 40.276C24.3838 40.568 23.5637 40.7711 23.2006 40.8473C22.802 40.9311 22.7765 40.3346 22.6445 40.2026C22.5861 40.1442 22.2664 40.1185 22.1318 40.1413C21.9338 40.1744 21.5453 40.1591 21.2558 40.1515C20.9663 40.1464 20.768 40.233 20.6156 40.3473C20.4049 40.5022 20.504 40.9184 20.5954 40.987C20.6944 41.0606 20.6337 41.0529 20.5346 41.025C20.362 40.9361 20.3212 40.8219 20.2932 40.7254C20.2501 40.5654 20.2347 40.2506 20.4658 40.1161C20.6156 40.0297 21.002 39.8416 21.3752 39.9C21.6393 39.9406 22.0555 39.9026 22.1824 39.8873C22.3094 39.8746 23.244 39.7022 23.8611 39.2249C23.5386 39.2604 23.4723 39.0676 23.2032 39.0346C23.5485 38.6842 24.1045 38.6151 24.3788 38.3028C24.1325 38.2749 23.9168 38.0797 23.7391 38.0518C24.2825 37.7471 24.6456 37.572 25.029 37.1606C25.0341 37.153 25.1761 36.9928 25.2345 36.9243C25.0593 36.4647 24.9528 35.9621 24.9172 35.4263C24.9096 35.2968 24.8995 35.1621 24.8894 35.025C24.7548 35.1723 24.4805 35.322 24.0336 35.482C23.8254 34.9767 23.9269 34.0296 24.191 33.3008C23.8126 34.0448 23.3833 34.5298 22.6546 34.7482C22.4768 34.2022 22.5813 33.2476 22.8378 32.5341C22.3528 33.3441 21.8347 33.7552 20.9739 34.0574C20.9028 33.3947 20.9713 32.5238 21.2886 31.7214C20.6234 32.3587 20.0569 32.567 19.3129 32.7067C19.2647 31.9195 19.4578 31.2108 19.8539 30.3322C19.3766 30.9188 18.3839 31.3203 17.6348 31.399C17.6907 30.7185 18.1677 29.7865 18.447 29.2381C17.7411 29.7459 16.9899 30.1063 16.1773 30.1521C16.2789 29.3801 16.6266 28.542 17.2208 27.8666C16.5225 28.3846 15.4509 28.6666 14.6459 28.5574C14.8414 27.7093 15.3621 26.8818 16.068 26.44C15.6592 26.5187 14.9176 26.6888 14.067 26.61C13.5642 28.291 13.2902 30.0681 13.2826 31.9091C12.856 31.5739 12.5614 31.4901 12.2694 31.2006C12.3253 31.5992 12.376 31.8152 12.4217 32.3104C12.5004 33.1966 12.8353 33.7045 13.3914 34.0245C13.4193 34.2784 13.4499 34.5271 13.488 34.7785C13.0767 34.5144 12.523 34.3493 11.7917 34.3595C12.236 35.8043 12.8712 35.9111 13.7218 36.0482C13.7497 36.1803 13.7799 36.3125 13.8129 36.442C13.3609 36.3252 12.8176 36.3224 12.198 36.4926C12.6246 37.1553 13.219 37.5589 14.1661 37.7011C14.1687 37.7062 14.1687 37.7112 14.1712 37.7163C13.5872 37.668 12.9574 37.7543 12.4546 38.0108C13.1732 38.6304 13.8789 38.8643 14.5518 38.7957C14.5848 38.8846 14.6205 38.971 14.6586 39.0599C14.1253 39.2021 13.658 39.4785 13.3939 39.735C13.9551 39.9127 14.5292 40.0069 15.0497 39.9511C15.0548 39.9638 15.0624 39.9763 15.0675 39.989C14.7627 40.2226 14.4962 40.5983 14.3337 41.19C14.7323 41.0884 15.1409 41.0608 15.5498 40.944C15.631 41.0938 15.7175 41.2436 15.8038 41.3934C15.588 41.8022 15.5144 42.3175 15.6414 42.8889C15.9842 42.8101 16.2686 42.6754 16.5022 42.5027C16.5835 42.6221 16.6649 42.7392 16.7487 42.856C16.6623 43.5111 16.8146 44.1712 17.2057 44.608C17.3631 44.4302 17.4871 44.2599 17.5963 44.0948C18.4419 42.8024 17.9318 41.8731 17.9496 41.035C17.9572 41.0172 17.9622 41.0022 17.9698 40.9819C18.0384 41.9798 18.9066 42.965 17.8883 44.1687C17.868 44.1915 17.8505 44.2116 17.8327 44.2344C21.276 48.2312 26.3696 50.7632 32.0599 50.7632C40.1371 50.7632 47.0213 45.6616 49.6697 38.5061L50.5229 38.1351L50.4592 38.5061L51.6884 37.4423L50.0963 37.7697L50.4339 37.9448L49.7765 38.2141C49.8272 38.0706 49.8696 37.9235 49.9167 37.7783L49.1667 38.4347L49.2304 38.0618L44.5123 40.4231C44.5047 40.4104 44.4997 40.3978 44.4895 40.3826C44.4692 40.3496 44.4441 40.3215 44.4111 40.2961C44.4492 40.2656 44.5125 40.2148 44.5938 40.1513L49.1362 37.8765L48.8012 37.7035L50.0249 37.4418C50.0485 37.3644 50.076 37.2887 50.0988 37.211L51.033 36.6954L51.0027 37.0714L52.1302 35.9008L50.576 36.373L50.9268 36.5177L50.1798 36.9292C50.2211 36.7766 50.2533 36.6195 50.2911 36.4651L49.4718 37.3685L49.492 36.9899L46.4729 38.9631C46.1072 39.1459 45.7493 39.3264 45.437 39.4838C45.6401 39.3239 45.8633 39.1485 46.0893 38.9631L49.3753 36.8148L49.0221 36.6827L50.3455 36.2384C50.3782 36.0974 50.4169 35.9593 50.4467 35.8168L51.1577 35.3649L51.1273 35.7409L52.2321 34.5729L50.6805 35.0502L51.0307 35.1924L50.4877 35.5375C50.5486 35.2201 50.5994 34.903 50.6451 34.5805L51.4983 33.8669L51.5186 34.245L52.4781 32.9348L51.0003 33.6129L51.3662 33.7096L50.6855 34.2784C50.7338 33.8873 50.7695 33.4908 50.7923 33.0922L51.6324 32.163L51.7038 32.534L52.4781 31.1068L51.1046 31.9753L51.4801 32.0208L50.8101 32.7394C50.8202 32.4931 50.8252 32.2444 50.8252 31.9955C50.8252 30.1241 50.5507 28.3162 50.0403 26.6099C49.1897 26.6886 48.3393 26.4169 47.9305 26.3382ZM50.3455 36.2384C50.3279 36.3142 50.3096 36.3897 50.2911 36.4651L50.5636 36.1651L50.3455 36.2384ZM50.0251 37.442C49.9907 37.5549 49.953 37.6663 49.9167 37.7783L50.391 37.3635L50.0251 37.442ZM31.2226 26.7547L31.3339 27.1252L31.715 27.0923L31.4002 27.316L31.55 27.6712L31.2454 27.4374L30.9559 27.6915L31.0804 27.3261L30.7525 27.1252L31.1361 27.1302L31.2226 26.7547ZM32.967 26.7573L33.053 27.1328L33.4367 27.1252L33.1092 27.3261L33.2332 27.694L32.9437 27.44L32.6365 27.6738L32.7863 27.316L32.4741 27.0923L32.8552 27.1252L32.967 26.7573ZM29.496 26.8509L29.625 27.2168L30.0061 27.1662L29.7014 27.402L29.869 27.7527L29.5517 27.5341L29.2748 27.8008L29.3816 27.4298L29.0435 27.2446L29.4272 27.232L29.496 26.8509ZM34.6935 26.8585L34.7623 27.2396L35.1459 27.2522L34.8078 27.4374L34.9146 27.8109L34.6378 27.5392L34.3205 27.7603L34.4855 27.4096L34.1833 27.1712L34.5644 27.2244L34.6935 26.8585ZM27.7745 27.0316L27.9192 27.3894L28.2972 27.3236L28.0052 27.5721L28.1859 27.9152L27.8605 27.7092L27.5963 27.9885L27.6854 27.613L27.3403 27.4425L27.7233 27.4147L27.7745 27.0316ZM36.4176 27.0417L36.4687 27.4273L36.8493 27.4557L36.5041 27.6257L36.5932 28.0012L36.329 27.7193L36.0016 27.9253L36.1868 27.5822L35.8923 27.3337L36.2703 27.402L36.4176 27.0417ZM26.0579 27.2902L26.2178 27.6434L26.5913 27.5619L26.3094 27.8236L26.5022 28.1586L26.1697 27.9658L25.9157 28.2553L25.9916 27.8767L25.6388 27.7193L26.0225 27.6763L26.0579 27.2902ZM38.1419 27.3059L38.1728 27.6915L38.5534 27.7401L38.2007 27.8924L38.2715 28.273L38.0225 27.9784L37.685 28.1687L37.8834 27.8337L37.6065 27.5695L37.977 27.6561L38.1419 27.3059ZM32.114 28.2983L32.2152 28.6717L32.5963 28.6515L32.274 28.8646L32.4136 29.2279L32.114 28.9815L31.817 29.2279L31.9541 28.8646L31.6338 28.6515L32.0149 28.6717L32.114 28.2983ZM30.3747 28.3468L30.4936 28.7148L30.8746 28.6743L30.5649 28.903L30.7223 29.2583L30.4126 29.0295L30.1282 29.2912L30.2451 28.9207L29.9121 28.73L30.2957 28.7274L30.3747 28.3468ZM33.861 28.3544L33.9369 28.735L34.3205 28.7401L33.9855 28.9309L34.1019 29.3013L33.8174 29.0372L33.5052 29.2634L33.6651 28.9106L33.3579 28.6794L33.739 28.7224L33.861 28.3544ZM28.6428 28.4865L28.7799 28.8494L29.158 28.7912L28.8609 29.0346L29.0335 29.3803L28.7136 29.1667L28.4419 29.441L28.541 29.068L28.1984 28.8899L28.5815 28.8696L28.6428 28.4865ZM35.59 28.5017L35.6507 28.8848L36.0318 28.9056L35.6887 29.0832L35.7879 29.4561L35.5186 29.1819L35.1937 29.3929L35.3714 29.0478L35.0743 28.8038L35.4528 28.862L35.59 28.5017ZM26.9135 28.7072L27.0683 29.0604L27.4413 28.9865L27.1544 29.2431L27.3451 29.5807L27.0147 29.3828L26.7561 29.6672L26.8396 29.2886L26.4894 29.1287L26.8699 29.0908L26.9135 28.7072ZM37.3193 28.7274L37.3598 29.111L37.7434 29.1515L37.3927 29.3114L37.4742 29.69L37.2151 29.403L36.8851 29.5984L37.0754 29.2608L36.791 29.0043L37.1645 29.0807L37.3193 28.7274ZM14.875 30.8934C15.2483 32.0208 14.9914 33.1891 14.255 33.8646C14.2652 33.5498 14.2069 33.217 14.0698 32.897C14.2019 32.3231 14.471 31.5945 14.664 31.2644C14.3694 31.5209 14.0774 32.1249 13.9403 32.6429C13.8692 32.5211 13.7903 32.4045 13.6938 32.2953C13.9401 31.5894 14.489 31.0508 14.875 30.8934ZM50.6373 31.0918L49.9869 32.5822L49.8852 32.2163L46.0134 37.1197C45.8001 37.3558 45.589 37.5896 45.3808 37.8105L45.3732 37.8054C45.6474 37.3915 45.9395 36.947 46.2138 36.5306L49.7203 32.0874L49.3423 32.0743L50.6373 31.0918ZM47.4834 31.8965L47.1534 33.4886L46.9778 33.1535L43.5654 40.0603C43.54 40.0299 43.5068 39.9992 43.4662 39.9763C43.4459 39.9662 43.4232 39.9511 43.3953 39.9384L46.7902 33.0619L46.4167 33.1282L47.4834 31.8965ZM12.7679 31.9906C13.71 32.6381 13.9129 33.2832 14.1262 34.111C14.1338 34.1085 14.1419 34.1055 14.1495 34.1029C14.3272 34.0674 14.497 34.1792 14.5326 34.357C14.5681 34.5322 14.4538 34.705 14.276 34.7406C14.1008 34.7761 13.9285 34.6618 13.8929 34.4865C13.8624 34.3291 13.9461 34.1796 14.0883 34.1212C13.7835 33.4736 13.2402 32.5949 12.7679 31.9906ZM35.362 32.5468C35.037 32.5468 34.7578 32.7142 34.4607 32.8919C34.1433 33.0823 33.7801 33.3008 33.3357 33.3008C32.8811 33.3008 32.5512 33.1637 32.2846 33.0139V34.7026C32.3455 34.7382 32.4038 34.7734 32.4622 34.8089C32.7314 34.974 32.965 35.1186 33.3357 35.1186C33.5642 35.1186 33.7928 34.9815 34.0594 34.8216C34.4174 34.6083 34.8212 34.3671 35.362 34.3671C35.8749 34.3671 36.2152 34.5755 36.5148 34.7583C36.784 34.9259 37.015 35.068 37.3883 35.068C37.7413 35.068 37.9315 34.9133 38.1702 34.7203C38.3353 34.5883 38.5236 34.4332 38.775 34.3418C38.8105 33.7806 38.8457 33.1815 38.8838 32.5594C38.8177 32.6026 38.7469 32.6584 38.6631 32.7269C38.3762 32.958 38.018 33.2477 37.3883 33.2477C36.7967 33.2477 36.4132 33.014 36.1059 32.8236C35.8546 32.6687 35.654 32.5468 35.362 32.5468ZM50.5771 32.5923L49.818 34.0296L49.7441 33.6586L44.4425 39.4557C44.214 39.636 44.0234 39.7858 43.8914 39.8899C43.9371 39.7985 43.9853 39.6995 44.0387 39.5903L49.5893 33.5165L49.2138 33.476L50.5771 32.5923ZM16.1027 33.1535C16.5826 35.3119 15.5186 35.4873 14.9523 36.2921C14.3353 35.1876 14.894 33.6816 16.1027 33.1535ZM48.0301 33.1966L47.5068 34.7355L47.3747 34.3798L44.396 38.895C44.3859 38.9077 44.3733 38.9203 44.3631 38.9329C44.5764 38.5013 44.8202 38.0086 45.0691 37.5033L47.2022 34.2686L46.8237 34.2888L48.0301 33.1966ZM15.7321 33.6738C15.1913 34.0064 14.8126 35.6241 14.9573 36.231C15.2367 35.1873 15.3817 34.4609 15.7321 33.6738ZM50.6912 33.8059L49.8202 35.1799L49.7747 34.8038L46.5495 37.7901C46.2194 38.0542 45.8791 38.3205 45.5541 38.577C45.8207 38.2825 46.1052 37.9703 46.3972 37.6479L49.6324 34.6489L49.2615 34.5781L50.6912 33.8059ZM55.7821 34.7204L55.5003 36.1652L55.7594 36.2158L55.8611 35.6875L57.0595 36.7795L55.5281 37.3939L55.6197 36.9344L55.358 36.8838L55.0205 38.6206L55.2821 38.6712L55.358 38.28L57.4608 37.4142L59.1748 37.7497L59.0832 38.2168L59.3449 38.2674L59.685 36.528L59.4183 36.4825L59.3272 36.9546L57.4532 36.5867L55.9547 35.2178L56.0412 34.7709L55.7821 34.7204ZM12.3839 34.7279C13.3183 34.827 13.8795 35.3906 14.268 35.9162C14.3899 35.9162 14.4992 36.0048 14.5195 36.1292C14.5449 36.2689 14.4512 36.4009 14.309 36.4238C14.1694 36.4466 14.0373 36.3529 14.012 36.2132C13.9891 36.0812 14.0727 35.9568 14.1997 35.9238C13.6665 35.4438 12.8968 34.9717 12.3839 34.7279ZM8.25786 34.9334L7.99875 34.9972L8.11312 35.4643L4.57317 36.3302L4.4593 35.8631L4.2002 35.9263L4.62177 37.6455L4.88088 37.5817L4.7665 37.1222L6.38137 36.729L6.86873 38.7269L5.25386 39.1206L5.14202 38.6586L4.88341 38.7219L5.30499 40.441L5.56106 40.3803L5.44719 39.9132L8.98663 39.0473L9.101 39.5144L9.36011 39.4506L8.94108 37.729L8.68197 37.7927L8.79381 38.2522L7.23208 38.6333L6.74423 36.6374L8.30596 36.2563L8.4178 36.7163L8.67691 36.6525L8.25786 34.9334ZM16.8328 34.9334C17.9171 37.1883 16.6808 37.5691 16.4522 38.4298C16.2999 37.6224 16.4595 36.3224 16.5661 35.6496C16.2233 36.1067 16.1297 36.7441 16.1704 37.3611C16.1704 37.3687 16.1729 37.3738 16.1754 37.3814C16.183 37.4118 16.1805 37.4425 16.178 37.473C16.2034 37.7472 16.2541 38.0187 16.3252 38.2624C16.211 38.0949 16.1119 37.9018 16.0383 37.6911C16.0078 37.7089 15.9747 37.7245 15.9366 37.7321C15.7741 37.7651 15.6169 37.6583 15.5838 37.4957C15.5508 37.3358 15.6572 37.176 15.8197 37.143C15.8501 37.1378 15.8808 37.1374 15.9113 37.14C15.8275 36.4163 16.0482 35.591 16.8328 34.9334ZM50.4341 35.1267L49.4564 36.4243L49.4412 36.0458L43.9872 40.3498C44.1345 40.3778 44.2664 40.4311 44.3045 40.492C44.3985 40.6418 44.3731 40.7153 44.2868 40.9718C44.203 41.2181 44.1421 41.3042 43.9796 41.3245C43.9339 41.3296 43.8499 41.3398 43.7534 41.3018C43.8016 41.3348 43.8373 41.3628 43.8602 41.4288C43.883 41.4948 43.9236 41.6117 43.723 41.8402C43.5427 42.0434 43.3748 42.1168 43.2352 42.0356C43.1565 41.9898 43.1311 41.939 43.093 41.8984C43.1133 41.9517 43.1365 42.0131 43.1466 42.074C43.1796 42.2772 43.0248 42.3531 42.8293 42.4217C42.4586 42.5537 42.278 42.4955 42.1917 42.366C42.0063 42.0842 42.1108 41.7235 42.2352 41.6626C42.2047 41.7718 42.2073 41.8909 42.2276 42.0229C42.2454 42.1321 42.2957 42.3099 42.4963 42.2922C42.6055 42.282 42.8036 42.2362 42.9229 42.1601C43.0093 42.1042 43.0122 41.9596 42.969 41.8377C42.9487 41.7768 42.9232 41.6881 42.8496 41.6247C42.9715 41.6577 43.0426 41.7236 43.139 41.8023C43.233 41.881 43.3776 41.8987 43.4614 41.8124C43.5655 41.7007 43.6313 41.6194 43.6669 41.5432C43.7608 41.3476 43.5095 41.1953 43.3647 41.114C43.6212 41.1242 43.6621 41.2234 43.8703 41.193C44.076 41.1625 44.137 40.832 44.1396 40.7228C44.1421 40.6441 44.0453 40.563 43.926 40.5325C43.8346 40.5096 43.7304 40.5097 43.6517 40.5123C43.6619 40.459 43.6669 40.3956 43.6618 40.3321C43.672 40.3321 43.68 40.3291 43.6876 40.3291L43.8167 40.2279L49.3116 35.8857L48.9462 35.7865L50.4341 35.1267ZM18.5067 35.4795C18.4432 36.1041 18.5244 36.6552 18.5117 37.191C18.8647 36.6324 19.4816 36.2563 20.0021 36.104C19.931 38.3309 18.9126 38.5013 18.4631 39.07C18.5368 38.3844 18.8901 37.47 19.5072 36.6879C18.6667 37.2465 18.3949 38.0489 18.372 38.8589C18.3035 38.6863 18.2653 38.5189 18.245 38.3589C18.146 38.5494 18.0164 38.7424 17.8437 38.9404C17.6812 37.9221 17.9328 36.8177 18.0699 36.2897C17.6281 36.7341 17.4807 37.7852 17.6585 38.6283C17.7372 38.6791 17.7981 38.7625 17.8184 38.8641C17.859 39.0622 17.7295 39.2577 17.5289 39.2983C17.3283 39.3389 17.1328 39.2094 17.0922 39.0088C17.0516 38.8082 17.1811 38.6127 17.3817 38.5721C17.4299 38.5645 17.4757 38.5645 17.5188 38.5721C17.077 37.6199 17.4402 36.2566 18.5067 35.4795ZM15.0491 36.4121C15.2154 36.4131 15.365 36.5292 15.3983 36.6981C15.4389 36.8936 15.3119 37.0815 15.119 37.1196C14.926 37.1603 14.7355 37.0333 14.6974 36.8403C14.6568 36.6448 14.7838 36.4568 14.9767 36.4187C15.0009 36.414 15.0254 36.412 15.0491 36.4121ZM13.1817 36.7441C13.621 36.7644 14.1925 36.7694 15.0253 37.5032C15.0634 37.455 15.1192 37.4167 15.1878 37.404C15.33 37.3786 15.462 37.4729 15.4848 37.6125C15.5102 37.7547 15.416 37.8867 15.2738 37.9096C15.1342 37.9325 14.9996 37.8408 14.9767 37.6986C14.9666 37.6402 14.9772 37.5869 15.0026 37.5387C14.3982 37.1121 13.4458 36.8381 13.1817 36.7441ZM35.3594 37.818C35.0344 37.818 34.7552 37.9854 34.4581 38.1631C34.1381 38.351 33.7775 38.5695 33.3331 38.5695C32.8786 38.5695 32.5486 38.4324 32.282 38.2826V40.3499C32.5181 40.1086 32.8557 39.8924 33.3356 39.7451L33.9247 39.5624C34.4173 39.405 35.093 39.1941 36.157 38.8666C36.4668 38.7726 36.7507 38.6434 37.0072 38.486C36.6212 38.4123 36.3395 38.2421 36.1033 38.0948C35.8519 37.9399 35.6514 37.818 35.3594 37.818ZM14.3487 37.9875C14.817 37.9885 15.1487 38.1083 15.5734 38.3463C15.6293 38.3642 15.6399 38.3666 15.5917 38.3615C15.0711 38.1812 14.5578 38.0824 13.8265 38.0265C14.0214 38.0005 14.1927 37.9872 14.3487 37.9875ZM15.8234 38.3564C15.9958 38.3568 16.1502 38.478 16.1858 38.6535C16.2264 38.8516 16.0969 39.0471 15.8963 39.0903C15.6957 39.1309 15.5002 39.0014 15.4596 38.8008C15.4189 38.6002 15.5484 38.4047 15.749 38.3641C15.7741 38.359 15.7988 38.3564 15.8234 38.3564ZM54.7883 38.8741L54.6663 39.1996L54.8318 39.2628L53.7751 42.0685L53.6102 42.0052L53.4882 42.3301L54.4938 42.7086L54.6157 42.3812L54.1233 42.1955L54.509 41.1722L57.8178 42.4192L57.6022 42.993L57.8507 43.0867L58.5668 41.1823L58.3234 41.0887L58.1098 41.6575L54.801 40.4105L55.1846 39.3923L55.6745 39.5775L55.7964 39.2526L54.7883 38.8741ZM16.479 39.0786C16.5986 39.0815 16.7039 39.1684 16.7239 39.2906C16.7468 39.4278 16.653 39.5623 16.5159 39.5877C16.3763 39.6106 16.2442 39.5168 16.2189 39.3772C16.2112 39.3416 16.2138 39.3034 16.2239 39.2704H16.2214C15.584 39.2729 14.807 39.4302 14.063 39.6029C14.7232 39.2347 15.5129 39.1334 16.2366 39.2299C16.2696 39.1537 16.3405 39.0953 16.4269 39.0826C16.4443 39.0795 16.4619 39.0782 16.479 39.0786ZM18.8363 39.1687C19.0169 39.1689 19.1776 39.297 19.2153 39.4814C19.256 39.6871 19.1209 39.8927 18.9102 39.9359C18.702 39.979 18.4989 39.842 18.4557 39.6338C18.4126 39.423 18.5471 39.2194 18.7578 39.1763C18.7842 39.1709 18.8105 39.1686 18.8363 39.1687ZM17.1399 39.4546C17.2965 39.4561 17.435 39.5671 17.4684 39.7249C17.5039 39.9051 17.387 40.0805 17.2067 40.1161C17.0315 40.1516 16.8638 40.0423 16.8181 39.8747H16.8029C16.2671 39.9483 15.3732 40.2885 14.812 40.6186C15.3579 39.9711 16.2519 39.829 16.7877 39.8493C16.7953 39.8493 16.8028 39.8519 16.8105 39.8519C16.7749 39.6741 16.8918 39.4962 17.0721 39.4607C17.095 39.4562 17.1176 39.4544 17.1399 39.4546ZM18.0468 39.7269C18.1753 39.727 18.2894 39.8175 18.316 39.9485C18.3465 40.0984 18.2528 40.2455 18.0979 40.276C17.9506 40.3064 17.8035 40.2077 17.773 40.0579C17.7451 39.908 17.8413 39.7629 17.9911 39.7324C18.0099 39.7286 18.0284 39.7269 18.0468 39.7269ZM19.6754 39.7623C19.8227 39.7555 19.9546 39.8569 19.9846 40.0042C20.015 40.1667 19.9108 40.327 19.7482 40.36C19.5857 40.393 19.426 40.2861 19.393 40.1236C19.36 39.9611 19.4663 39.8014 19.6288 39.7684C19.6443 39.7653 19.6601 39.763 19.6754 39.7623ZM18.7017 40.3392C18.8823 40.3394 19.0429 40.4676 19.0807 40.652C19.1214 40.8602 18.9868 41.0658 18.7761 41.1064C18.5678 41.1496 18.3617 41.0125 18.3211 40.8043C18.2779 40.5936 18.4155 40.3905 18.6237 40.3473C18.6501 40.3419 18.6759 40.3392 18.7017 40.3392ZM8.18546 40.3904C7.90596 40.4025 7.62177 40.4682 7.34691 40.5933C6.24743 41.0935 5.75463 42.333 6.23709 43.3919C6.71955 44.4508 7.98173 44.8977 9.08133 44.3975C10.1808 43.8973 10.663 42.6553 10.1805 41.5963C9.81868 40.8021 9.02399 40.3539 8.18546 40.3904ZM17.3206 40.4298C17.354 40.4247 17.3184 40.4826 17.184 40.6236C16.7142 41.1188 16.1706 41.9136 15.9396 42.3504C16.0234 41.807 16.3841 41.1571 16.9122 40.7203C17.1208 40.5475 17.2777 40.4364 17.3206 40.4298ZM20.0848 40.4845C20.1529 40.4828 20.217 40.4876 20.269 40.4997C20.2665 40.5657 20.274 40.629 20.2842 40.6798C20.208 40.6722 20.071 40.662 19.9593 40.6874C19.8374 40.7153 19.7381 40.7914 19.7381 40.8726C19.7381 40.9818 19.7916 41.3148 19.9972 41.3504C20.2029 41.3859 20.2484 41.2892 20.5023 41.2866C20.355 41.3628 20.1012 41.5076 20.1875 41.7056C20.2231 41.7818 20.2843 41.8682 20.3885 41.9799C20.4697 42.0714 20.6143 42.0561 20.7108 41.9799C20.8073 41.9038 20.8809 41.8378 21.0053 41.8099C20.9292 41.8708 20.9012 41.957 20.8783 42.0179C20.8326 42.1398 20.8299 42.2844 20.9137 42.3403C21.0305 42.4215 21.2287 42.4723 21.3353 42.485C21.5359 42.5078 21.5893 42.3305 21.6096 42.2239C21.635 42.0918 21.6401 41.9748 21.6121 41.863C21.7366 41.9265 21.8304 42.2897 21.6349 42.5665C21.5435 42.6934 21.3609 42.7466 20.9978 42.6044C20.8073 42.5308 20.6525 42.4523 20.6956 42.2466C20.7083 42.1857 20.731 42.1243 20.7538 42.071C20.7157 42.1116 20.6878 42.1599 20.6066 42.2056C20.4644 42.2843 20.297 42.2033 20.1243 41.9976C19.9288 41.7615 19.9719 41.6497 19.9998 41.5837C20.0252 41.5176 20.0608 41.4922 20.1116 41.4592C20.0151 41.4947 19.9311 41.482 19.8854 41.4769C19.7229 41.454 19.6645 41.3654 19.5884 41.1166C19.5096 40.8601 19.4868 40.7815 19.5833 40.6368C19.6404 40.5511 19.8806 40.4895 20.0848 40.4845ZM42.2021 40.5361C42.2386 40.5318 42.2878 40.579 42.3119 40.6393C42.35 40.7434 42.4261 40.8473 42.6394 40.8625C42.4896 40.9539 42.33 40.9386 42.2411 40.8954C42.1547 40.8522 42.1545 40.7841 42.1571 40.6292C42.1581 40.5663 42.1771 40.539 42.2021 40.5361ZM21.7255 40.6682C21.7536 40.6675 21.776 40.693 21.7771 40.7608C21.7796 40.9157 21.7799 40.9843 21.6911 41.0275C21.6047 41.0707 21.4497 41.0835 21.2948 40.9946C21.5056 40.9794 21.5842 40.8755 21.6222 40.7714C21.6437 40.7143 21.6893 40.6691 21.7255 40.6682ZM42.9173 40.7709C43.0293 40.7694 43.1424 40.8059 43.2057 40.8828C43.1829 41.0656 43.1194 41.4058 42.7589 41.4642C42.8096 41.3144 42.8048 41.0074 42.7057 40.8271C42.7645 40.791 42.8406 40.772 42.9173 40.7709ZM21.0008 40.903C21.0833 40.9012 21.1668 40.9203 21.229 40.9592C21.1325 41.142 21.122 41.4465 21.1779 41.5963C20.8173 41.5379 20.7539 41.1951 20.731 41.0149C20.7896 40.942 20.8946 40.9053 21.0008 40.903ZM17.943 40.9769C17.524 41.6244 17.0745 43.3411 17.0973 43.8336C16.8942 43.3232 17.0718 42.5004 17.2927 41.9646C17.445 41.5939 17.8262 41.0302 17.943 40.9769ZM8.70575 41.1859C9.23535 41.1872 9.68957 41.3849 9.85301 41.7436C10.1171 42.3251 9.58126 43.1886 8.71029 43.5847C7.83427 43.9834 6.83115 43.8211 6.56707 43.2396C6.30552 42.6657 6.84133 41.8022 7.71738 41.4035C8.04303 41.255 8.38798 41.1851 8.70575 41.1859ZM42.5299 41.1975C42.5502 41.3118 42.5934 41.4188 42.662 41.5204C42.7178 41.5991 42.7939 41.6498 42.8497 41.6955C42.7532 41.7717 42.6133 41.8124 42.499 41.8074C42.3822 41.8023 42.3775 41.7842 42.3852 41.7411C42.4131 41.5481 42.4867 41.2737 42.5299 41.1975ZM21.4034 41.3296C21.4491 41.4058 21.5228 41.6776 21.5456 41.8732C21.5532 41.9163 21.548 41.9344 21.4338 41.9394C21.3195 41.9445 21.1801 41.9012 21.0836 41.8276C21.1394 41.7794 21.218 41.7312 21.2713 41.6525C21.3424 41.5509 21.3831 41.4439 21.4034 41.3296ZM22.1676 41.4086C23.6962 42.5588 24.562 44.1562 24.7856 45.4408C24.5926 45.3012 24.2322 45.1537 24.0113 45.1969C23.8133 43.841 23.1048 42.744 21.9926 41.8528C22.0383 41.6472 22.1066 41.5051 22.1676 41.4086ZM41.58 41.6601C41.5775 41.6652 41.5725 41.6676 41.5674 41.6702C41.5674 41.6702 41.5548 41.6777 41.532 41.693C41.0901 41.9799 39.2921 43.0897 39.2921 43.0897L39.0411 43.0411L38.3017 43.5442L37.5097 44.0366L37.4642 43.7901L37.0401 43.6353L38.9192 42.7441L39.2187 42.8382L41.58 41.6601ZM41.6843 41.8504C41.598 41.9443 41.3491 42.2159 41.1231 42.4622L39.1474 43.8539L38.9216 43.8463L37.6443 44.948L37.5912 44.613L37.1469 44.5214L38.7309 43.5341L38.9115 43.4222L39.2187 43.4855L39.2162 43.4804L41.6843 41.8504ZM41.8771 41.9597C41.8695 42.0536 41.877 42.1476 41.8999 42.2365L40.9556 43.3484L40.7167 43.3995L39.4723 45.0346L39.4065 44.6662L39.0355 44.6839L39.0178 44.6915L39.0229 44.6864L38.952 44.6895L40.4525 43.1884L40.4804 43.1606L40.7982 43.1353L41.8771 41.9597ZM42.0932 42.5816C42.144 42.6299 42.2023 42.663 42.2708 42.6859L41.4657 44.3565L41.5725 44.6586L40.661 46.5275L40.491 46.0705L40.0259 46.2127L40.9884 44.3691L41.2855 44.2704L41.2804 44.2679L42.0932 42.5816ZM53.2784 42.9754L52.4353 44.5315L52.6666 44.6586L52.8974 44.237L56.0992 45.9713L55.8709 46.3954L56.1042 46.5224L56.9499 44.9658L56.7166 44.8367L56.4904 45.2527L53.286 43.5184L53.5117 43.1024L53.2784 42.9754ZM11.0125 43.7497L10.799 43.9071L11.1117 44.3362L8.1633 46.4769L7.85104 46.0478L7.63546 46.2026L8.49376 47.3858L8.70934 47.2284L8.39709 46.7993L10.5605 45.2274L9.02665 48.2238L12.3228 47.5532L10.1112 49.158L9.79898 48.7288L9.58288 48.8842L10.6876 50.4049L10.9007 50.2476L10.5885 49.8159L13.5363 47.6752L13.8491 48.1069L14.0647 47.9495L13.3283 46.9363L10.1719 47.5967L11.6698 44.6535L11.0125 43.7497ZM52.2031 45.8408C52.1317 45.8361 52.0595 45.8391 51.9865 45.8499C51.6666 45.8981 51.4204 46.0907 51.0953 46.5275L49.983 48.026L50.194 48.1833L50.4804 47.7972L53.406 49.9683L53.1191 50.3544L53.3322 50.5118L54.3883 49.0897L54.1753 48.9323L53.8934 49.3129L52.6136 48.361L52.7153 48.2238L54.4749 48.3483C54.871 48.3763 54.9397 48.3458 55.1631 48.0462L55.6429 47.401L55.4273 47.2461L55.2725 47.4546C55.1963 47.5562 55.1074 47.5837 54.8408 47.5685L53.1976 47.4673C53.4058 46.8807 53.2842 46.4285 52.8271 46.0882C52.6253 45.9378 52.4175 45.8548 52.2031 45.8408ZM51.7613 46.5827C51.9429 46.5665 52.1412 46.633 52.3443 46.7841C52.7455 47.0837 52.8472 47.5283 52.5882 47.8787L52.3651 48.1783L51.0442 47.198L51.2806 46.8782C51.4151 46.6979 51.5798 46.5988 51.7613 46.5827ZM49.6707 48.4602L48.5862 49.4476L48.7694 49.6485L49.1575 49.2927L50.7446 51.0321C51.2626 51.6009 51.24 52.2332 50.6788 52.7436C50.5391 52.8731 50.3717 52.9621 50.2092 53.0103C49.8562 53.1017 49.5766 52.9644 49.1449 52.4921L47.5528 50.7477L47.9035 50.4278L47.7228 50.2325L46.4151 51.4258L46.5933 51.6212L46.9485 51.2963L48.6702 53.1854C49.2593 53.8304 50.1301 53.8002 50.8868 53.107C51.1306 52.8861 51.311 52.6267 51.4328 52.3448C51.6588 51.7964 51.5393 51.2991 51.0568 50.771L49.4546 49.0134L49.8458 48.6556L49.6707 48.4602ZM14.5925 48.531L14.4118 48.7264L14.7651 49.0518L12.297 51.7305L11.9437 51.4056L11.7636 51.6009L13.9776 53.6399L14.5414 53.0154L14.2904 52.7841L13.9725 53.1297L12.9645 52.2001L14.0237 51.0528L14.7676 51.738L14.468 52.066L14.7246 52.2917L15.5697 51.3752L15.3162 51.149L15.0242 51.4663L14.2802 50.7811L15.2909 49.6839L16.258 50.5751L15.9508 50.9106L16.1973 51.1363L16.88 50.3974L16.6289 50.1661L16.5095 50.2982L14.5925 48.531ZM17.5987 51.0908L17.4489 51.3114L17.8477 51.5807L15.8138 54.605L15.415 54.3357L15.2652 54.5569L17.7434 56.2224L18.2161 55.5214L17.9342 55.3312L17.6726 55.7198L16.5552 54.9683L18.5283 52.0352L18.9221 52.2994L19.0693 52.0787L17.5987 51.0908ZM45.8001 51.6672L45.5031 51.8473L45.6402 52.0735C45.2441 52.1294 44.9724 52.2282 44.622 52.4415C43.5327 53.0991 43.2053 54.3866 43.8502 55.4531C44.5028 56.5297 45.7825 56.8062 46.9225 56.113C47.3364 55.8642 47.5852 55.6308 47.9432 55.1839L47.5014 54.4627L47.1993 54.6454L47.4483 55.0568C47.2909 55.3692 47.1335 55.5472 46.8618 55.7097C46.1152 56.1642 45.1247 55.8311 44.5915 54.9551C44.0481 54.0588 44.1901 53.1146 44.9417 52.6575C45.2287 52.4823 45.4397 52.4363 45.879 52.4668L46.0895 52.8149L46.3866 52.6343L45.8001 51.6672ZM21.9569 53.5639L18.7981 56.5655L18.4423 56.4025L18.3335 56.6439L19.5243 57.1874L19.6331 56.9435L19.1736 56.7355L19.9712 55.9733L21.37 56.611L21.3017 57.7051L20.8978 57.5224L20.7885 57.7638L22.1928 58.4035L22.3022 58.1626L22.0608 58.0508L22.3072 53.7239L21.9569 53.5639ZM42.083 53.7264L41.7651 53.8509L41.8314 54.0159L39.4038 54.9683L39.5005 55.2142L39.9473 55.0366L41.2778 58.4289L40.831 58.6045L40.9276 58.8504L43.7283 57.7512L43.4262 56.9688L43.1089 57.0933L43.2815 57.5301L42.0016 58.0306L41.4302 56.5782L42.3725 56.2072L42.535 56.6187L42.8498 56.4866L42.3953 55.3261L42.0775 55.4582L42.2354 55.8595L41.2931 56.23L40.747 54.8413L41.9738 54.3611L42.1387 54.7851L42.451 54.6632L42.083 53.7264ZM21.5045 54.5108L21.3957 56.1995L20.2682 55.6839L21.5045 54.5108ZM24.0617 54.6631L24.0009 54.9222L24.4428 55.029L24.5647 55.3893L23.7899 58.617L23.2798 58.4951L23.2186 58.7542L24.6103 59.0867L24.671 58.8276L24.1862 58.7107L24.8284 56.0219L26.2479 59.5486L26.6796 59.6529L27.5986 55.7828L28.1168 55.9073L28.1806 55.6482L26.7914 55.3157L26.7277 55.5748L27.2155 55.6917L26.5986 58.2686L25.2859 54.9575L24.0617 54.6631ZM38.2357 55.1049L37.9032 55.1788L37.9437 55.364C37.6898 55.3183 37.4891 55.3208 37.2479 55.3741C36.4962 55.5392 36.0925 56.1005 36.2423 56.781C36.3032 57.0527 36.4354 57.2815 36.631 57.4263C36.8316 57.5786 36.9206 57.6217 37.6087 57.8731C38.2638 58.1169 38.487 58.274 38.548 58.5533C38.619 58.8758 38.3904 59.1654 38.007 59.2491C37.7048 59.3151 37.4787 59.2795 37.1512 59.1196L37.0525 58.6626L36.7119 58.7365L36.9559 59.8483L37.2959 59.7749L37.2453 59.5563C37.5653 59.6604 37.8397 59.6785 38.1978 59.5998C38.924 59.4424 39.3274 58.8351 39.1725 58.1317C39.1191 57.8905 39.0202 57.7001 38.8602 57.5325C38.718 57.3878 38.5581 57.2812 38.3956 57.2127C38.3169 57.1797 38.1139 57.1083 37.7888 56.9839C37.1134 56.7376 36.9358 56.6133 36.8825 56.367C36.8165 56.075 37.0145 55.7934 37.3369 55.7223C37.5655 55.6715 37.7433 55.6991 38.0404 55.8083L38.134 56.2349L38.467 56.1616L38.2357 55.1049ZM28.8127 55.7223L28.8026 55.989L29.2824 56.0067L29.1528 59.648L28.673 59.6303L28.6629 59.897L30.6229 59.9678H30.628C31.2476 59.9907 31.7025 59.836 32.1138 59.4704C32.5582 59.0692 32.8121 58.5331 32.8324 57.9517C32.8781 56.7811 31.9793 55.8364 30.7859 55.7933L28.8127 55.7223ZM30.0951 56.1236L30.6305 56.1439C31.372 56.1693 31.9763 56.9893 31.9433 57.9187C31.9077 58.9115 31.2806 59.643 30.4832 59.6125L29.9706 59.5943L30.0951 56.1236Z" fill="#005288"/>
<path d="M32.0545 9.57399C26.9532 9.57399 22.2483 11.2805 18.4826 14.155C18.6604 14.2185 18.8403 14.2843 19.0206 14.3554C19.2364 14.4392 19.445 14.5232 19.6481 14.607C23.1446 12.1058 27.4282 10.6302 32.0546 10.6302C37.222 10.6302 41.9626 12.4687 45.6547 15.526C46.0711 15.4067 46.4776 15.3002 46.8915 15.1935C42.9403 11.6971 37.7451 9.57399 32.0545 9.57399ZM13.089 20.0557C10.9154 23.5066 9.65894 27.5924 9.65894 31.9701C9.65894 44.3387 19.6859 54.3659 32.0548 54.3659C44.4234 54.3659 54.4512 44.3389 54.4512 31.9701C54.4512 27.8083 53.3133 23.9079 51.3354 20.5688C50.9799 20.6907 50.6245 20.7897 50.2792 20.8633C52.2547 24.0983 53.395 27.9023 53.395 31.97C53.395 43.7546 43.8421 53.3095 32.055 53.3095C20.2704 53.3095 10.7155 43.7546 10.7155 31.97C10.7155 27.7245 11.9571 23.7656 14.0951 20.4417C13.7548 20.3427 13.4222 20.213 13.0895 20.0556L13.089 20.0557Z" fill="#C41230"/>
<path d="M32.0519 0.232178C14.5234 0.232178 0.311035 14.4417 0.311035 31.9731C0.311035 49.5039 14.5232 63.714 32.0519 63.714C49.5827 63.714 63.7928 49.5044 63.7928 31.9731C63.7928 14.4423 49.5833 0.232178 32.0519 0.232178ZM32.0519 61.7473C15.6078 61.7473 2.27767 48.4164 2.27767 31.9731C2.27767 15.529 15.6086 2.20141 32.0519 2.20141C48.4935 2.20141 61.8236 15.5323 61.8236 31.9731C61.8262 48.4172 48.495 61.7473 32.0519 61.7473Z" fill="#C0C2C4"/>
<path d="M31.816 37.0423H25.8005C25.8894 37.2277 25.991 37.4004 26.1078 37.5654C26.542 38.1723 27.159 38.6243 27.9411 38.8629C29.005 39.1905 29.6805 39.4013 30.1757 39.5587L30.7648 39.7415C31.2472 39.8913 31.5824 40.1072 31.8186 40.3459V37.0422L31.816 37.0423Z" fill="#5E9732"/>
<path d="M31.816 30.8572C29.7237 30.875 27.1484 31.1644 25.1248 31.6011C25.2111 33.178 25.3001 34.7166 25.3889 35.9433C25.4372 36.606 25.5336 36.9287 25.691 37.34L25.9906 36.7864L26.2295 36.5581L26.4532 36.794L26.8565 36.4792L27.0903 36.1695L27.5043 35.4686L28.1035 35.1513L28.5453 34.6842L28.8348 34.2216L29.3808 34.0951L29.7462 33.6912L30.3611 34.2424L30.9091 34.4807L31.1505 35.1133L31.524 35.2985C31.623 35.5347 31.7195 35.5777 31.816 35.6361L31.816 30.8572ZM32.2806 30.8572V32.6629C32.3415 32.6984 32.3998 32.7336 32.4582 32.7691C32.7274 32.9342 32.961 33.0794 33.3317 33.0794C33.5602 33.0794 33.7888 32.9423 34.0554 32.7823C34.4134 32.569 34.8172 32.3248 35.358 32.3248C35.8709 32.3248 36.2112 32.5357 36.5108 32.7185C36.78 32.8836 37.011 33.0257 37.3843 33.0257C37.7398 33.0257 37.9301 32.871 38.1687 32.678C38.3668 32.5181 38.6008 32.3276 38.9334 32.2539C38.9461 32.0381 38.9587 31.8195 38.9714 31.6011C36.9476 31.1669 34.3729 30.8775 32.2806 30.8572ZM35.3606 35.6973C35.0356 35.6973 34.7564 35.8647 34.4593 36.0425C34.1419 36.2329 33.7787 36.4489 33.3343 36.4489C32.8772 36.4539 32.5473 36.3168 32.2807 36.167V37.9266C32.3416 37.9621 32.3999 37.9978 32.4583 38.0334C32.7275 38.201 32.961 38.3431 33.3318 38.3431C33.5603 38.3431 33.7888 38.206 34.0555 38.046C34.4135 37.8327 34.8172 37.589 35.3581 37.589C35.871 37.589 36.2113 37.7994 36.5109 37.9822C36.7801 38.1473 37.0111 38.2899 37.3844 38.2899C37.6713 38.2899 37.8519 38.1882 38.0398 38.046C38.4257 37.4747 38.6489 36.766 38.7047 35.9407C38.7073 35.9052 38.7098 35.87 38.7123 35.837C38.6946 35.8497 38.6795 35.8623 38.6617 35.8775C38.3748 36.1086 38.0166 36.4003 37.3869 36.4003C36.7953 36.4003 36.4118 36.1671 36.1045 35.9767C35.8532 35.8192 35.6526 35.6973 35.3606 35.6973Z" fill="#0078AE"/>
</g>
<defs>
<clipPath id="clip0_1_24524">
<rect width="64" height="64" fill="white"/>
</clipPath>
</defs>
</svg>
