<svg width="37" height="36" viewBox="0 0 37 36" fill="none" xmlns="http://www.w3.org/2000/svg">
<path d="M6.42665 23.0641H4.17668C3.86563 23.0641 3.61419 23.3155 3.61419 23.6266V26.439C3.61419 26.7501 3.86563 27.0015 4.17668 27.0015H6.42665C6.73771 27.0015 6.98914 26.7501 6.98914 26.439V23.6266C6.98914 23.3155 6.73771 23.0641 6.42665 23.0641ZM5.86416 25.8765H4.73917V24.1891H5.86416V25.8765ZM10.9266 23.0641H8.67661C8.36556 23.0641 8.11412 23.3155 8.11412 23.6266V26.439C8.11412 26.7501 8.36556 27.0015 8.67661 27.0015H10.9266C11.2376 27.0015 11.4891 26.7501 11.4891 26.439V23.6266C11.4891 23.3155 11.2376 23.0641 10.9266 23.0641ZM10.3641 25.8765H9.23911V24.1891H10.3641V25.8765ZM17.6787 23.0641H15.4288C15.1177 23.0641 14.8663 23.3155 14.8663 23.6266V26.439C14.8663 26.7501 15.1177 27.0015 15.4288 27.0015H17.6787C17.9898 27.0015 18.2412 26.7501 18.2412 26.439V23.6266C18.2412 23.3155 17.9898 23.0641 17.6787 23.0641ZM17.1162 25.8765H15.9913V24.1891H17.1162V25.8765ZM22.7456 23.6266C22.7456 23.3155 22.4942 23.0641 22.1832 23.0641H19.9332C19.6221 23.0641 19.3707 23.3155 19.3707 23.6266V26.439C19.3707 26.7501 19.6221 27.0015 19.9332 27.0015H22.1832C22.4942 27.0015 22.7456 26.7501 22.7456 26.439V23.6266ZM21.6207 25.8765H20.4957V24.1891H21.6207V25.8765ZM26.6763 27.0015H28.9263C29.2374 27.0015 29.4888 26.7501 29.4888 26.439V23.6266C29.4888 23.3155 29.2374 23.0641 28.9263 23.0641H26.6763C26.3653 23.0641 26.1138 23.3155 26.1138 23.6266V26.439C26.1138 26.7501 26.3653 27.0015 26.6763 27.0015ZM27.2388 24.1891H28.3638V25.8765H27.2388V24.1891ZM31.1763 27.0015H33.4262C33.7373 27.0015 33.9887 26.7501 33.9887 26.439V23.6266C33.9887 23.3155 33.7373 23.0641 33.4262 23.0641H31.1763C30.8652 23.0641 30.6138 23.3155 30.6138 23.6266V26.439C30.6138 26.7501 30.8652 27.0015 31.1763 27.0015ZM31.7388 24.1891H32.8637V25.8765H31.7388V24.1891ZM6.42665 28.1316H4.17668C3.86563 28.1316 3.61419 28.383 3.61419 28.694V31.5065C3.61419 31.8176 3.86563 32.069 4.17668 32.069H6.42665C6.73771 32.069 6.98914 31.8176 6.98914 31.5065V28.694C6.98914 28.383 6.73771 28.1316 6.42665 28.1316ZM5.86416 30.944H4.73917V29.2565H5.86416V30.944ZM10.9266 28.1316H8.67661C8.36556 28.1316 8.11412 28.383 8.11412 28.694V31.5065C8.11412 31.8176 8.36556 32.069 8.67661 32.069H10.9266C11.2376 32.069 11.4891 31.8176 11.4891 31.5065V28.694C11.4891 28.383 11.2376 28.1316 10.9266 28.1316ZM10.3641 30.944H9.23911V29.2565H10.3641V30.944ZM26.6763 32.069H28.9263C29.2374 32.069 29.4888 31.8176 29.4888 31.5065V28.694C29.4888 28.383 29.2374 28.1316 28.9263 28.1316H26.6763C26.3653 28.1316 26.1138 28.383 26.1138 28.694V31.5065C26.1138 31.8176 26.3653 32.069 26.6763 32.069ZM27.2388 29.2565H28.3638V30.944H27.2388V29.2565ZM31.1763 32.069H33.4262C33.7373 32.069 33.9887 31.8176 33.9887 31.5065V28.694C33.9887 28.383 33.7373 28.1316 33.4262 28.1316H31.1763C30.8652 28.1316 30.6138 28.383 30.6138 28.694V31.5065C30.6138 31.8176 30.8652 32.069 31.1763 32.069ZM31.7388 29.2565H32.8637V30.944H31.7388V29.2565Z" fill="#002855"/>
<path d="M36.7871 20.7472C36.7843 20.723 36.7899 20.6994 36.7837 20.6752L36.2224 18.4252C36.2184 18.4106 36.2083 18.3999 36.2032 18.3858C36.1914 18.3487 36.1734 18.3155 36.1537 18.2818C36.1363 18.252 36.1194 18.2233 36.0969 18.198C36.0722 18.1687 36.0435 18.1462 36.0137 18.1226C35.9867 18.1023 35.9614 18.0832 35.9316 18.0675C35.8984 18.05 35.8635 18.0393 35.8264 18.0292C35.7909 18.0191 35.7578 18.0112 35.7206 18.0078C35.7054 18.0067 35.6919 17.9988 35.6762 17.9988H28.9482V15.7511C28.9482 15.4401 28.6968 15.1886 28.3857 15.1886H26.6752C26.3642 15.1886 26.1127 15.4401 26.1127 15.7511V17.9988H22.7361V14.6329C22.7361 14.3224 22.4858 14.0721 22.1758 14.071V8.43874C22.4869 8.43874 22.7383 8.1873 22.7383 7.87625V6.18877C22.7383 5.87772 22.4869 5.62628 22.1758 5.62628H21.9025L19.3628 2.07302V0.562735C19.3628 0.251678 19.1114 0.000244141 18.8003 0.000244141C18.4893 0.000244141 18.2378 0.251678 18.2378 0.562735V2.07302L15.6982 5.62628H15.4254C15.1143 5.62628 14.8629 5.87772 14.8629 6.18877V7.87343C14.8629 7.87456 14.8623 7.87512 14.8623 7.87625C14.8623 8.1873 15.1138 8.43874 15.4248 8.43874V14.071C15.1149 14.0721 14.8646 14.3224 14.8646 14.6329V17.9988H11.4879V15.7511C11.4879 15.4401 11.2365 15.1886 10.9255 15.1886H9.21492C8.90386 15.1886 8.65243 15.4401 8.65243 15.7511V17.9988H1.92447C1.90928 17.9988 1.89578 18.0067 1.88059 18.0078C1.84347 18.0112 1.8086 18.0196 1.77316 18.0298C1.73772 18.0399 1.70341 18.05 1.67022 18.0663C1.63929 18.0821 1.61341 18.1023 1.58641 18.1237C1.5566 18.1468 1.52848 18.1693 1.50429 18.1974C1.48123 18.2233 1.46435 18.252 1.44635 18.2823C1.42723 18.3155 1.40979 18.3481 1.39741 18.3853C1.39235 18.3993 1.38223 18.4106 1.37829 18.4252L0.816924 20.6752C0.810736 20.6988 0.816361 20.7213 0.813549 20.7449C0.811299 20.768 0.800611 20.7877 0.800611 20.8113C0.800611 20.8259 0.807924 20.8389 0.809611 20.8535C0.812424 20.8929 0.821423 20.9289 0.832111 20.966C0.842236 21.0003 0.851236 21.0324 0.867548 21.0639C0.883298 21.0959 0.90411 21.1235 0.926609 21.1522C0.948547 21.1803 0.970484 21.2073 0.997483 21.2309C1.02448 21.2545 1.05429 21.2714 1.08467 21.2894C1.11786 21.3085 1.14936 21.3254 1.18648 21.3378C1.20054 21.3428 1.21179 21.353 1.22642 21.3569C1.27142 21.3682 1.31698 21.3727 1.36142 21.3732H1.36254V34.3116C1.05148 34.3116 0.800049 34.5631 0.800049 34.8741C0.800049 35.1852 1.05148 35.4366 1.36254 35.4366H15.413C15.4169 35.4366 15.4203 35.4389 15.4243 35.4389H22.1787C22.1826 35.4389 22.186 35.4366 22.1899 35.4366H36.2376C36.5486 35.4366 36.8 35.1852 36.8 34.8741C36.8 34.5631 36.5486 34.3116 36.2376 34.3116V21.3755C36.2454 21.3755 36.2511 21.3715 36.2584 21.371C36.2966 21.3698 36.3354 21.3665 36.3737 21.3575C36.3861 21.3541 36.3956 21.3457 36.408 21.3412C36.4502 21.3282 36.4873 21.3085 36.5239 21.286C36.5503 21.2703 36.5762 21.2551 36.5992 21.2354C36.6302 21.209 36.6544 21.1792 36.6786 21.1477C36.6982 21.1212 36.7174 21.0965 36.7326 21.0672C36.7494 21.034 36.7601 21.0003 36.7702 20.9637C36.7804 20.9272 36.7888 20.8929 36.7916 20.8552C36.7927 20.8405 36.8 20.8276 36.8 20.813C36.8 20.7894 36.7894 20.7697 36.7871 20.7472ZM15.9867 34.3122V29.2588H18.2378V34.3122H15.9867ZM19.3628 34.3122V29.2588H21.6162V34.3122H19.3628ZM22.1787 28.1338H15.4243C15.1132 28.1338 14.8618 28.3852 14.8618 28.6963V34.3122H13.7385V21.0835L18.8003 17.0325L23.8633 21.0835V34.3122H22.7411V28.6963C22.7411 28.3852 22.4897 28.1338 22.1787 28.1338ZM2.08309 20.2488L2.36377 19.1238H9.20648C9.20929 19.1238 9.21211 19.1255 9.21492 19.1255H10.9255C10.9283 19.1255 10.9311 19.1238 10.9339 19.1238H14.3865L12.9808 20.2488H2.08309ZM15.9896 15.1954H21.6111V17.8402L19.1519 15.8726C19.1384 15.8614 19.1209 15.8591 19.1069 15.8496C19.0743 15.8282 19.0416 15.8119 19.0062 15.7978C18.973 15.7849 18.9415 15.7731 18.9072 15.7663C18.8712 15.759 18.8358 15.7573 18.7992 15.7573C18.7638 15.7573 18.73 15.759 18.6951 15.7663C18.6597 15.7731 18.6271 15.7843 18.5928 15.7984C18.5573 15.8119 18.5258 15.8282 18.4938 15.849C18.4791 15.8591 18.4617 15.8614 18.4482 15.8726L15.989 17.8408L15.9896 15.1954ZM24.6238 20.2505L23.2159 19.1238H26.6673C26.6701 19.1238 26.673 19.1255 26.6758 19.1255H28.3863C28.3891 19.1255 28.3919 19.1238 28.3947 19.1238H35.2374L35.5181 20.2505H24.6238ZM27.2377 16.3136H27.8233V17.9988H27.2377V16.3136ZM21.0509 14.0704H16.5498V8.43874H18.2378V9.10529C17.5848 9.33816 17.1129 9.9569 17.1129 10.6887V11.8137C17.1129 12.1247 17.3643 12.3762 17.6753 12.3762H18.2378C18.2378 12.6872 18.4893 12.9387 18.8003 12.9387C19.1114 12.9387 19.3628 12.6872 19.3628 12.3762H19.9253C20.2364 12.3762 20.4878 12.1247 20.4878 11.8137V10.6887C20.4878 9.95634 20.0159 9.33816 19.3628 9.10529V8.43874H21.0509V14.0704ZM21.6133 6.75126V7.31376H15.9879V6.75126H21.6133ZM19.3628 11.2512H18.2378V10.6887C18.2378 10.3782 18.4898 10.1262 18.8003 10.1262C19.1108 10.1262 19.3628 10.3782 19.3628 10.6887V11.2512ZM18.8003 3.22051L20.5204 5.62628H17.0808L18.8003 3.22051ZM9.77741 16.3136H10.363V17.9988H9.77741V16.3136ZM2.48809 21.3738H12.6135V34.3122H2.48809V21.3738ZM35.1126 34.3122H24.9883V21.3755H35.1126V34.3122Z" fill="#002855"/>
<path d="M20.4878 20.2494C20.4878 19.3196 19.7313 18.563 18.8015 18.563C17.8717 18.563 17.1151 19.3196 17.1151 20.2494C17.1151 21.1792 17.8717 21.9357 18.8015 21.9357C19.7313 21.9357 20.4878 21.1792 20.4878 20.2494ZM18.8015 20.8107C18.4915 20.8107 18.2401 20.5593 18.2401 20.2494C18.2401 19.9394 18.4915 19.688 18.8015 19.688C19.1114 19.688 19.3628 19.9394 19.3628 20.2494C19.3628 20.5593 19.1114 20.8107 18.8015 20.8107Z" fill="#002855"/>
</svg>
