<svg width="43" height="42" viewBox="0 0 43 42" fill="none" xmlns="http://www.w3.org/2000/svg">
<path d="M39.8 19.0308V18.3803H40.45C40.9672 18.3803 41.4632 18.1747 41.8289 17.8087C42.1946 17.4427 42.4 16.9464 42.4 16.4288V13.8267C42.4 13.8059 42.3896 13.7877 42.3883 13.7669C42.3842 13.7227 42.3755 13.6791 42.3623 13.6368C42.3246 13.5166 42.2528 13.4099 42.1556 13.3298C42.14 13.3167 42.1296 13.2985 42.1127 13.2855L23.4083 0.751503C22.8737 0.391965 22.2442 0.199951 21.6 0.199951C20.9559 0.199951 20.3264 0.391965 19.7917 0.751503L1.08865 13.2868C1.07045 13.2985 1.06135 13.3167 1.04575 13.3311C0.947177 13.4099 0.875053 13.517 0.839049 13.6381C0.825893 13.6804 0.81718 13.724 0.813049 13.7682C0.813049 13.789 0.801349 13.8059 0.801349 13.828V16.4301C0.801349 16.9477 1.00679 17.444 1.37249 17.81C1.73819 18.176 2.23418 18.3816 2.75135 18.3816H3.40005V19.0321C3.40171 19.4343 3.5275 19.8262 3.76021 20.1541C3.99291 20.482 4.32116 20.7299 4.70005 20.864V34.0524C4.32116 34.1864 3.99291 34.4344 3.76021 34.7623C3.5275 35.0902 3.40171 35.482 3.40005 35.8842V36.5959H2.75005C2.23288 36.5959 1.73689 36.8015 1.37119 37.1675C1.00549 37.5334 0.800049 38.0298 0.800049 38.5474L0.800049 41.1494C0.800049 41.322 0.868531 41.4874 0.990429 41.6094C1.11233 41.7314 1.27766 41.7999 1.45005 41.7999H41.75C41.9224 41.7999 42.0878 41.7314 42.2097 41.6094C42.3316 41.4874 42.4 41.322 42.4 41.1494V38.5474C42.4 38.0298 42.1946 37.5334 41.8289 37.1675C41.4632 36.8015 40.9672 36.5959 40.45 36.5959H39.8V35.8842C39.7984 35.482 39.6726 35.0902 39.4399 34.7623C39.2072 34.4344 38.8789 34.1864 38.5 34.0524V20.8627C38.8789 20.7286 39.2072 20.4807 39.4399 20.1528C39.6726 19.8249 39.7984 19.433 39.8 19.0308ZM20.5158 1.83265C20.8364 1.61642 21.2141 1.5009 21.6007 1.5009C21.9873 1.5009 22.365 1.61642 22.6855 1.83265L39.6115 13.1762H3.58855L20.5158 1.83265ZM4.70005 35.8829C4.70139 35.7384 4.7514 35.5985 4.84198 35.4859C4.93256 35.3733 5.05843 35.2945 5.19925 35.2623C5.2481 35.2785 5.29875 35.2885 5.35005 35.2923H9.25005C9.30135 35.2885 9.352 35.2785 9.40085 35.2623C9.54167 35.2945 9.66754 35.3733 9.75812 35.4859C9.8487 35.5985 9.8987 35.7384 9.90005 35.8829V36.5334H4.70005V35.8829ZM5.35005 19.6813C5.17766 19.6813 5.01233 19.6128 4.89043 19.4908C4.76853 19.3688 4.70005 19.2033 4.70005 19.0308V18.3803H9.90005V19.0308C9.90005 19.2033 9.83157 19.3688 9.70967 19.4908C9.58777 19.6128 9.42244 19.6813 9.25005 19.6813H5.35005ZM8.60005 20.9823V33.9314H6.00005V20.9823H8.60005ZM40.45 37.8956C40.6224 37.8956 40.7878 37.9641 40.9097 38.0861C41.0316 38.2081 41.1 38.3736 41.1 38.5461V40.4976H2.10005V38.5461C2.10005 38.3736 2.16853 38.2081 2.29043 38.0861C2.41233 37.9641 2.57766 37.8956 2.75005 37.8956H16.4C16.5724 37.8956 16.7378 37.8271 16.8597 37.7051C16.9816 37.5831 17.05 37.4176 17.05 37.2451C17.05 37.0726 16.9816 36.9071 16.8597 36.7851C16.7378 36.6631 16.5724 36.5946 16.4 36.5946H11.2V35.8829C11.1984 35.4807 11.0726 35.0889 10.8399 34.761C10.6072 34.4331 10.2789 34.1851 9.90005 34.0511V20.8627C10.2789 20.7286 10.6072 20.4807 10.8399 20.1528C11.0726 19.8249 11.1984 19.433 11.2 19.0308V18.3803H15.1C15.2724 18.3803 15.4378 18.3118 15.5597 18.1898C15.6816 18.0678 15.75 17.9023 15.75 17.7298C15.75 17.5573 15.6816 17.3918 15.5597 17.2698C15.4378 17.1478 15.2724 17.0793 15.1 17.0793H2.75005C2.57766 17.0793 2.41233 17.0108 2.29043 16.8888C2.16853 16.7668 2.10005 16.6013 2.10005 16.4288V14.4773H41.1V16.4288C41.1 16.6013 41.0316 16.7668 40.9097 16.8888C40.7878 17.0108 40.6224 17.0793 40.45 17.0793H27.45C27.2777 17.0793 27.1123 17.1478 26.9904 17.2698C26.8685 17.3918 26.8 17.5573 26.8 17.7298C26.8 17.9023 26.8685 18.0678 26.9904 18.1898C27.1123 18.3118 27.2777 18.3803 27.45 18.3803H32V19.0308C32.0017 19.433 32.1275 19.8249 32.3602 20.1528C32.5929 20.4807 32.9212 20.7286 33.3 20.8627V34.0524C32.9212 34.1864 32.5929 34.4344 32.3602 34.7623C32.1275 35.0902 32.0017 35.482 32 35.8842V36.5959H26.15C25.9777 36.5959 25.8123 36.6644 25.6904 36.7864C25.5685 36.9084 25.5 37.0739 25.5 37.2464C25.5 37.4189 25.5685 37.5844 25.6904 37.7064C25.8123 37.8284 25.9777 37.8969 26.15 37.8969L40.45 37.8956ZM37.85 35.2936C37.9014 35.2898 37.952 35.2798 38.0008 35.2636C38.1417 35.2958 38.2675 35.3746 38.3581 35.4872C38.4487 35.5998 38.4987 35.7397 38.5 35.8842V36.5347H33.3V35.8842C33.3014 35.7397 33.3514 35.5998 33.442 35.4872C33.5326 35.3746 33.6584 35.2958 33.7992 35.2636C33.8481 35.2798 33.8987 35.2898 33.95 35.2936H37.85ZM34.6 33.9314V20.9823H37.2V33.9314H34.6ZM37.85 19.6813H33.95C33.7777 19.6813 33.6123 19.6128 33.4904 19.4908C33.3685 19.3688 33.3 19.2033 33.3 19.0308V18.3803H38.5V19.0308C38.5 19.2033 38.4316 19.3688 38.3097 19.4908C38.1878 19.6128 38.0224 19.6813 37.85 19.6813ZM30.05 25.5359C30.0515 23.985 29.6268 22.4636 28.8224 21.1381C28.018 19.8125 26.8649 18.7339 25.4891 18.0201C24.1133 17.3063 22.5679 16.9849 21.0219 17.091C19.4758 17.1972 17.9888 17.7267 16.7232 18.6218C15.4577 19.5168 14.4625 20.743 13.8465 22.166C13.2304 23.5891 13.0172 25.1543 13.2303 26.6904C13.4433 28.2265 14.0743 29.6745 15.0543 30.8758C16.0344 32.0772 17.3256 32.9857 18.7868 33.5021C18.9498 33.5586 19.1285 33.5481 19.2836 33.4729C19.4388 33.3976 19.5578 33.2637 19.6143 33.1007C19.6708 32.9377 19.6604 32.7588 19.5851 32.6035C19.5099 32.4482 19.3762 32.3292 19.2132 32.2726C17.6236 31.7092 16.2842 30.6017 15.4315 29.1457C14.5788 27.6897 14.2677 25.9789 14.5533 24.3156C14.8389 22.6523 15.7028 21.1436 16.9922 20.056C18.2816 18.9684 19.9137 18.3718 21.6 18.3718C23.2864 18.3718 24.9185 18.9684 26.2079 20.056C27.4973 21.1436 28.3612 22.6523 28.6468 24.3156C28.9324 25.9789 28.6213 27.6897 27.7686 29.1457C26.9159 30.6017 25.5765 31.7092 23.9868 32.2726C23.8411 32.3226 23.7178 32.4228 23.639 32.5553C23.5602 32.6878 23.531 32.844 23.5566 32.9961C23.5822 33.1482 23.661 33.2862 23.7788 33.3855C23.8967 33.4849 24.046 33.5391 24.2 33.5385C24.2726 33.5386 24.3446 33.5268 24.4132 33.5034C26.0626 32.9246 27.4912 31.8468 28.5012 30.4192C29.5112 28.9917 30.0525 27.2851 30.05 25.5359ZM21.6 5.30897C21.0858 5.30897 20.5831 5.46158 20.1556 5.74749C19.728 6.03341 19.3947 6.43979 19.198 6.91525C19.0012 7.39071 18.9497 7.9139 19.05 8.41864C19.1503 8.92339 19.398 9.38703 19.7616 9.75093C20.1252 10.1148 20.5885 10.3627 21.0928 10.4631C21.5972 10.5635 22.1199 10.5119 22.595 10.315C23.0701 10.118 23.4762 9.78453 23.7619 9.35662C24.0476 8.92872 24.2 8.42564 24.2 7.91101C24.2 7.22091 23.9261 6.55907 23.4385 6.07109C22.9509 5.58312 22.2896 5.30897 21.6 5.30897ZM21.6 9.21203C21.3429 9.21203 21.0916 9.13573 20.8778 8.99277C20.664 8.84981 20.4974 8.64662 20.399 8.40889C20.3006 8.17116 20.2749 7.90957 20.325 7.65719C20.3752 7.40482 20.499 7.173 20.6808 6.99105C20.8626 6.8091 21.0943 6.68519 21.3464 6.63499C21.5986 6.58479 21.86 6.61055 22.0975 6.70903C22.3351 6.8075 22.5381 6.97425 22.681 7.1882C22.8238 7.40215 22.9 7.65369 22.9 7.91101C22.9 8.25606 22.7631 8.58698 22.5193 8.83097C22.2755 9.07496 21.9448 9.21203 21.6 9.21203ZM22.9793 34.9462L22.25 35.6761V33.342C22.25 33.1695 22.1816 33.004 22.0597 32.882C21.9378 32.7601 21.7724 32.6915 21.6 32.6915C21.4277 32.6915 21.2623 32.7601 21.1404 32.882C21.0185 33.004 20.95 33.1695 20.95 33.342V35.6748L20.2207 34.9449C20.0982 34.8264 19.934 34.7608 19.7635 34.7623C19.5931 34.7638 19.4301 34.8322 19.3096 34.9528C19.1891 35.0734 19.1207 35.2366 19.1192 35.4071C19.1177 35.5777 19.1832 35.742 19.3016 35.8647L21.1385 37.703C21.1989 37.7636 21.2707 37.8117 21.3496 37.8445C21.4286 37.8773 21.5133 37.8942 21.5987 37.8942C21.6842 37.8942 21.7689 37.8773 21.8479 37.8445C21.9268 37.8117 21.9986 37.7636 22.0589 37.703L23.8958 35.8647C24.0143 35.742 24.0798 35.5777 24.0783 35.4071C24.0768 35.2366 24.0084 35.0734 23.8879 34.9528C23.7674 34.8322 23.6044 34.7638 23.434 34.7623C23.2635 34.7608 23.0993 34.8264 22.9767 34.9449L22.9793 34.9462ZM22.25 28.7885H20.95C20.6053 28.7885 20.2746 28.6514 20.0308 28.4074C19.787 28.1634 19.65 27.8325 19.65 27.4874C19.65 27.3149 19.5816 27.1495 19.4597 27.0275C19.3378 26.9055 19.1724 26.8369 19 26.8369C18.8277 26.8369 18.6623 26.9055 18.5404 27.0275C18.4185 27.1495 18.35 27.3149 18.35 27.4874C18.35 28.1775 18.624 28.8394 19.1116 29.3274C19.5992 29.8153 20.2605 30.0895 20.95 30.0895V30.74C20.95 30.9125 21.0185 31.078 21.1404 31.2C21.2623 31.322 21.4277 31.3905 21.6 31.3905C21.7724 31.3905 21.9378 31.322 22.0597 31.2C22.1816 31.078 22.25 30.9125 22.25 30.74V30.0895C22.9396 30.0895 23.6009 29.8153 24.0885 29.3274C24.5761 28.8394 24.85 28.1775 24.85 27.4874C24.85 26.7973 24.5761 26.1355 24.0885 25.6475C23.6009 25.1595 22.9396 24.8854 22.25 24.8854H20.95C20.6053 24.8854 20.2746 24.7483 20.0308 24.5043C19.787 24.2604 19.65 23.9294 19.65 23.5844C19.65 23.2393 19.787 22.9084 20.0308 22.6644C20.2746 22.4204 20.6053 22.2834 20.95 22.2834H22.25C22.5948 22.2834 22.9255 22.4204 23.1693 22.6644C23.4131 22.9084 23.55 23.2393 23.55 23.5844C23.55 23.7569 23.6185 23.9224 23.7404 24.0444C23.8623 24.1664 24.0277 24.2349 24.2 24.2349C24.3724 24.2349 24.5378 24.1664 24.6597 24.0444C24.7816 23.9224 24.85 23.7569 24.85 23.5844C24.85 22.8943 24.5761 22.2324 24.0885 21.7445C23.6009 21.2565 22.9396 20.9823 22.25 20.9823V20.3318C22.25 20.1593 22.1816 19.9939 22.0597 19.8719C21.9378 19.7499 21.7724 19.6813 21.6 19.6813C21.4277 19.6813 21.2623 19.7499 21.1404 19.8719C21.0185 19.9939 20.95 20.1593 20.95 20.3318V20.9823C20.2605 20.9823 19.5992 21.2565 19.1116 21.7445C18.624 22.2324 18.35 22.8943 18.35 23.5844C18.35 24.2745 18.624 24.9363 19.1116 25.4243C19.5992 25.9123 20.2605 26.1864 20.95 26.1864H22.25C22.5948 26.1864 22.9255 26.3235 23.1693 26.5675C23.4131 26.8115 23.55 27.1424 23.55 27.4874C23.55 27.8325 23.4131 28.1634 23.1693 28.4074C22.9255 28.6514 22.5948 28.7885 22.25 28.7885Z" fill="#002855"/>
</svg>
