<svg width="41" height="40" viewBox="0 0 41 40" fill="none" xmlns="http://www.w3.org/2000/svg">
<path d="M38.0839 36.5839H2.71616C2.54505 36.5839 2.38095 36.515 2.25996 36.3923C2.13897 36.2696 2.071 36.1031 2.071 35.9296V19.3566C2.071 19.183 2.13897 19.0166 2.25996 18.8939C2.38095 18.7712 2.54505 18.7023 2.71616 18.7023H38.0839C38.255 18.7023 38.4191 18.7712 38.5401 18.8939C38.6611 19.0166 38.7291 19.183 38.7291 19.3566V35.9296C38.7291 36.1031 38.6611 36.2696 38.5401 36.3923C38.4191 36.515 38.255 36.5839 38.0839 36.5839ZM3.36132 35.2753H37.4387V20.0109H3.36132V35.2753Z" fill="#002855"/>
<path d="M15.4839 22.2779H2.71616C2.54505 22.2779 2.38095 22.209 2.25996 22.0863C2.13897 21.9636 2.071 21.7972 2.071 21.6236C2.071 21.4501 2.13897 21.2837 2.25996 21.161C2.38095 21.0383 2.54505 20.9694 2.71616 20.9694H15.4839C15.655 20.9694 15.8191 21.0383 15.9401 21.161C16.0611 21.2837 16.1291 21.4501 16.1291 21.6236C16.1291 21.7972 16.0611 21.9636 15.9401 22.0863C15.8191 22.209 15.655 22.2779 15.4839 22.2779ZM38.0839 22.2779H18.0323C17.8612 22.2779 17.6971 22.209 17.5761 22.0863C17.4551 21.9636 17.3871 21.7972 17.3871 21.6236C17.3871 21.4501 17.4551 21.2837 17.5761 21.161C17.6971 21.0383 17.8612 20.9694 18.0323 20.9694H38.0839C38.255 20.9694 38.4191 21.0383 38.5401 21.161C38.6611 21.2837 38.7291 21.4501 38.7291 21.6236C38.7291 21.7972 38.6611 21.9636 38.5401 22.0863C38.4191 22.209 38.255 22.2779 38.0839 22.2779Z" fill="#002855"/>
<path d="M9.03236 24.2299H8.29043C8.11932 24.2299 7.95522 24.161 7.83423 24.0383C7.71324 23.9156 7.64526 23.7492 7.64526 23.5756C7.64526 23.4021 7.71324 23.2357 7.83423 23.113C7.95522 22.9903 8.11932 22.9214 8.29043 22.9214H8.3872V22.2671H5.28397V22.9214H6.01301C6.18411 22.9214 6.34821 22.9903 6.4692 23.113C6.5902 23.2357 6.65817 23.4021 6.65817 23.5756C6.65817 23.7492 6.5902 23.9156 6.4692 24.0383C6.34821 24.161 6.18411 24.2299 6.01301 24.2299H4.63881C4.46771 24.2299 4.30361 24.161 4.18262 24.0383C4.06162 23.9156 3.99365 23.7492 3.99365 23.5756V21.6128C3.99365 21.4393 4.06162 21.2728 4.18262 21.1501C4.30361 21.0274 4.46771 20.9585 4.63881 20.9585H9.03236C9.20347 20.9585 9.36757 21.0274 9.48856 21.1501C9.60955 21.2728 9.67752 21.4393 9.67752 21.6128V23.5756C9.67752 23.7492 9.60955 23.9156 9.48856 24.0383C9.36757 24.161 9.20347 24.2299 9.03236 24.2299ZM9.03236 36.5828H4.63881C4.46771 36.5828 4.30361 36.5139 4.18262 36.3912C4.06162 36.2685 3.99365 36.1021 3.99365 35.9285V33.9657C3.99365 33.7922 4.06162 33.6257 4.18262 33.503C4.30361 33.3803 4.46771 33.3114 4.63881 33.3114H9.03236C9.20347 33.3114 9.36757 33.3803 9.48856 33.503C9.60955 33.6257 9.67752 33.7922 9.67752 33.9657V35.9285C9.67752 36.1021 9.60955 36.2685 9.48856 36.3912C9.36757 36.5139 9.20347 36.5828 9.03236 36.5828ZM5.28397 35.2743H8.3872V34.62H5.28397V35.2743Z" fill="#002855"/>
<path d="M5.381 34.6331C5.20989 34.6331 5.04579 34.5641 4.9248 34.4414C4.80381 34.3187 4.73584 34.1523 4.73584 33.9788V23.5756C4.73584 23.4021 4.80381 23.2357 4.9248 23.113C5.04579 22.9903 5.20989 22.9214 5.381 22.9214C5.55211 22.9214 5.71621 22.9903 5.8372 23.113C5.95819 23.2357 6.02616 23.4021 6.02616 23.5756V33.9788C6.02616 34.1523 5.95819 34.3187 5.8372 34.4414C5.71621 34.5641 5.55211 34.6331 5.381 34.6331ZM8.29068 34.6331C8.11957 34.6331 7.95547 34.5641 7.83448 34.4414C7.71349 34.3187 7.64552 34.1523 7.64552 33.9788L7.64526 23.5756C7.64526 23.4021 7.71324 23.2357 7.83423 23.113C7.95522 22.9903 8.11932 22.9214 8.29043 22.9214C8.46153 22.9214 8.62589 22.9903 8.74688 23.113C8.86787 23.2357 8.93584 23.4021 8.93584 23.5756V33.9788C8.93584 34.1523 8.86787 34.3187 8.74688 34.4414C8.62589 34.5641 8.46179 34.6331 8.29068 34.6331ZM15.4842 24.2299H11.0907C10.9196 24.2299 10.7555 24.161 10.6345 24.0383C10.5135 23.9156 10.4455 23.7492 10.4455 23.5756V21.6128C10.4455 21.4393 10.5135 21.2728 10.6345 21.1501C10.7555 21.0274 10.9196 20.9585 11.0907 20.9585H15.4842C15.6553 20.9585 15.8194 21.0274 15.9404 21.1501C16.0614 21.2728 16.1294 21.4393 16.1294 21.6128V23.5756C16.1294 23.7492 16.0614 23.9156 15.9404 24.0383C15.8194 24.161 15.6553 24.2299 15.4842 24.2299ZM11.7358 22.9214H14.8391V22.2671H11.7358V22.9214ZM15.4842 36.5828H11.0907C10.9196 36.5828 10.7555 36.5139 10.6345 36.3912C10.5135 36.2685 10.4455 36.1021 10.4455 35.9285V33.9657C10.4455 33.7922 10.5135 33.6257 10.6345 33.503C10.7555 33.3803 10.9196 33.3114 11.0907 33.3114H15.4842C15.6553 33.3114 15.8194 33.3803 15.9404 33.503C16.0614 33.6257 16.1294 33.7922 16.1294 33.9657V35.9285C16.1294 36.1021 16.0614 36.2685 15.9404 36.3912C15.8194 36.5139 15.6553 36.5828 15.4842 36.5828ZM11.7358 35.2743H14.8391V34.62H11.7358V35.2743Z" fill="#002855"/>
<path d="M11.8333 34.6331C11.6622 34.6331 11.4981 34.5641 11.3771 34.4414C11.2562 34.3187 11.1882 34.1523 11.1882 33.9788V23.5756C11.1882 23.4021 11.2562 23.2357 11.3771 23.113C11.4981 22.9903 11.6622 22.9214 11.8333 22.9214C12.0045 22.9214 12.1686 22.9903 12.2895 23.113C12.4105 23.2357 12.4785 23.4021 12.4785 23.5756V33.9788C12.4785 34.1523 12.4105 34.3187 12.2895 34.4414C12.1686 34.5641 12.0045 34.6331 11.8333 34.6331ZM14.743 34.6331C14.5719 34.6331 14.4078 34.5641 14.2868 34.4414C14.1658 34.3187 14.0979 34.1523 14.0979 33.9788V23.5756C14.0979 23.4021 14.1658 23.2357 14.2868 23.113C14.4078 22.9903 14.5719 22.9214 14.743 22.9214C14.9141 22.9214 15.0782 22.9903 15.1992 23.113C15.3202 23.2357 15.3882 23.4021 15.3882 23.5756V33.9788C15.3882 34.1523 15.3202 34.3187 15.1992 34.4414C15.0782 34.5641 14.9141 34.6331 14.743 34.6331ZM36.1624 24.2299H31.7688C31.5977 24.2299 31.4336 24.161 31.3126 24.0383C31.1916 23.9156 31.1237 23.7492 31.1237 23.5756V21.6128C31.1237 21.4393 31.1916 21.2728 31.3126 21.1501C31.4336 21.0274 31.5977 20.9585 31.7688 20.9585H36.1624C36.3335 20.9585 36.4976 21.0274 36.6186 21.1501C36.7396 21.2728 36.8075 21.4393 36.8075 21.6128V23.5756C36.8075 23.7492 36.7396 23.9156 36.6186 24.0383C36.4976 24.161 36.3335 24.2299 36.1624 24.2299ZM32.414 22.9214H35.5172V22.2671H32.414V22.9214ZM36.1624 36.5828H31.7688C31.5977 36.5828 31.4336 36.5139 31.3126 36.3912C31.1916 36.2685 31.1237 36.1021 31.1237 35.9285V33.9657C31.1237 33.7922 31.1916 33.6257 31.3126 33.503C31.4336 33.3803 31.5977 33.3114 31.7688 33.3114H36.1624C36.3335 33.3114 36.4976 33.3803 36.6186 33.503C36.7396 33.6257 36.8075 33.7922 36.8075 33.9657V35.9285C36.8075 36.1021 36.7396 36.2685 36.6186 36.3912C36.4976 36.5139 36.3335 36.5828 36.1624 36.5828ZM32.414 35.2743H35.5172V34.62H32.414V35.2743Z" fill="#002855"/>
<path d="M35.4194 34.6331C35.2483 34.6331 35.0842 34.5641 34.9632 34.4414C34.8422 34.3187 34.7742 34.1523 34.7742 33.9788V23.5756C34.7742 23.4021 34.8422 23.2357 34.9632 23.113C35.0842 22.9903 35.2483 22.9214 35.4194 22.9214C35.5905 22.9214 35.7546 22.9903 35.8756 23.113C35.9966 23.2357 36.0645 23.4021 36.0645 23.5756V33.9788C36.0645 34.1523 35.9966 34.3187 35.8756 34.4414C35.7546 34.5641 35.5905 34.6331 35.4194 34.6331ZM32.5097 34.6331C32.3386 34.6331 32.1745 34.5641 32.0535 34.4414C31.9325 34.3187 31.8645 34.1523 31.8645 33.9788V23.5756C31.8645 23.4021 31.9325 23.2357 32.0535 23.113C32.1745 22.9903 32.3386 22.9214 32.5097 22.9214C32.6808 22.9214 32.8449 22.9903 32.9659 23.113C33.0869 23.2357 33.1549 23.4021 33.1549 23.5756V33.9788C33.1549 34.1523 33.0869 34.3187 32.9659 34.4414C32.8449 34.5641 32.6808 34.6331 32.5097 34.6331ZM29.7097 24.2299H25.3162C25.1451 24.2299 24.981 24.161 24.86 24.0383C24.739 23.9156 24.671 23.7492 24.671 23.5756V21.6128C24.671 21.4393 24.739 21.2728 24.86 21.1501C24.981 21.0274 25.1451 20.9585 25.3162 20.9585H29.7097C29.8808 20.9585 30.0449 21.0274 30.1659 21.1501C30.2869 21.2728 30.3549 21.4393 30.3549 21.6128V23.5756C30.3549 23.7492 30.2869 23.9156 30.1659 24.0383C30.0449 24.161 29.8808 24.2299 29.7097 24.2299ZM25.9613 22.9214H29.0645V22.2671H25.9613V22.9214ZM29.7097 36.5828H25.3162C25.1451 36.5828 24.981 36.5139 24.86 36.3912C24.739 36.2685 24.671 36.1021 24.671 35.9285V33.9657C24.671 33.7922 24.739 33.6257 24.86 33.503C24.981 33.3803 25.1451 33.3114 25.3162 33.3114H26.0581C26.2292 33.3114 26.3933 33.3803 26.5143 33.503C26.6353 33.6257 26.7033 33.7922 26.7033 33.9657C26.7033 34.1392 26.6353 34.3056 26.5143 34.4283C26.3933 34.551 26.2292 34.62 26.0581 34.62H25.9613V35.2743H29.0645V34.62H28.142C27.9709 34.62 27.8068 34.551 27.6858 34.4283C27.5648 34.3056 27.4968 34.1392 27.4968 33.9657C27.4968 33.7922 27.5648 33.6257 27.6858 33.503C27.8068 33.3803 27.9709 33.3114 28.142 33.3114H29.6904C29.8615 33.3114 30.0256 33.3803 30.1465 33.503C30.2675 33.6257 30.3355 33.7922 30.3355 33.9657V35.9285C30.3356 36.0987 30.2703 36.2622 30.1534 36.3844C30.0366 36.5065 29.8774 36.5777 29.7097 36.5828Z" fill="#002855"/>
<path d="M28.9682 34.6355C28.7971 34.6355 28.633 34.5665 28.512 34.4438C28.391 34.3211 28.323 34.1547 28.323 33.9812V23.578C28.323 23.4045 28.391 23.2381 28.512 23.1154C28.633 22.9927 28.7971 22.9238 28.9682 22.9238C29.1393 22.9238 29.3034 22.9927 29.4244 23.1154C29.5454 23.2381 29.6133 23.4045 29.6133 23.578V33.9812C29.6133 34.1547 29.5454 34.3211 29.4244 34.4438C29.3034 34.5665 29.1393 34.6355 28.9682 34.6355ZM26.0585 34.6355C25.8874 34.6355 25.7233 34.5665 25.6023 34.4438C25.4813 34.3211 25.4133 34.1547 25.4133 33.9812V23.578C25.4133 23.4045 25.4813 23.2381 25.6023 23.1154C25.7233 22.9927 25.8874 22.9238 26.0585 22.9238C26.2296 22.9238 26.3937 22.9927 26.5147 23.1154C26.6357 23.2381 26.7037 23.4045 26.7037 23.578V33.9812C26.7037 34.1547 26.6357 34.3211 26.5147 34.4438C26.3937 34.5665 26.2296 34.6355 26.0585 34.6355ZM17.3037 36.5852C17.1326 36.5852 16.9685 36.5163 16.8475 36.3936C16.7265 36.2709 16.6585 36.1045 16.6585 35.931V28.7796C16.6585 25.6652 19.9811 24.023 20.123 23.951C20.2771 23.8768 20.4538 23.8675 20.6146 23.9252C20.7754 23.9828 20.9072 24.1026 20.9811 24.2585C21.0183 24.3362 21.04 24.4206 21.0449 24.5068C21.0497 24.5931 21.0377 24.6794 21.0096 24.7609C20.9814 24.8424 20.9375 24.9175 20.8806 24.9817C20.8237 25.046 20.7548 25.0981 20.6779 25.1352C20.6779 25.1352 17.9488 26.4962 17.9488 28.7796V35.931C17.9488 36.1045 17.8808 36.2709 17.7599 36.3936C17.6389 36.5163 17.4748 36.5852 17.3037 36.5852Z" fill="#002855"/>
<path d="M23.497 34.6201C23.3259 34.6201 23.1618 34.5511 23.0408 34.4284C22.9198 34.3057 22.8518 34.1393 22.8518 33.9658V28.7773C22.8518 26.4938 20.1486 25.146 20.1228 25.1264C20.0403 25.0935 19.9654 25.0438 19.9027 24.9803C19.84 24.9168 19.7909 24.8409 19.7584 24.7573C19.7259 24.6737 19.7108 24.5842 19.7139 24.4944C19.717 24.4046 19.7383 24.3164 19.7765 24.2353C19.8147 24.1542 19.869 24.082 19.9359 24.0231C20.0028 23.9642 20.081 23.92 20.1655 23.8931C20.2501 23.8662 20.3392 23.8572 20.4273 23.8668C20.5154 23.8764 20.6006 23.9042 20.6776 23.9487C20.8196 24.0206 24.1421 25.6629 24.1421 28.7773V33.9658C24.1421 34.1393 24.0742 34.3057 23.9532 34.4284C23.8322 34.5511 23.6681 34.6201 23.497 34.6201ZM28.6647 20.0099H12.1357C11.9646 20.0099 11.8005 19.9409 11.6795 19.8182C11.5585 19.6955 11.4905 19.5291 11.4905 19.3556V16.3982C11.4905 16.2247 11.5585 16.0583 11.6795 15.9356C11.8005 15.8129 11.9646 15.7439 12.1357 15.7439C12.3068 15.7439 12.4709 15.8129 12.5919 15.9356C12.7129 16.0583 12.7809 16.2247 12.7809 16.3982V18.7013H28.0196V16.3982C28.0196 16.2247 28.0875 16.0583 28.2085 15.9356C28.3295 15.8129 28.4936 15.7439 28.6647 15.7439C28.8358 15.7439 28.9999 15.8129 29.1209 15.9356C29.2419 16.0583 29.3099 16.2247 29.3099 16.3982V19.3556C29.3099 19.5291 29.2419 19.6955 29.1209 19.8182C28.9999 19.9409 28.8358 20.0099 28.6647 20.0099Z" fill="#002855"/>
<path d="M29.6588 17.0529H28.6653C28.4942 17.0529 28.3301 16.9839 28.2091 16.8612C28.0881 16.7385 28.0196 16.5717 28.0196 16.3982C28.0196 16.2247 28.0875 16.0583 28.2085 15.9356C28.3295 15.8129 28.4936 15.7439 28.6647 15.7439L29.0137 15.7443V14.6582H11.7879V15.7443H26.704C26.8751 15.7443 27.0392 15.8132 27.1602 15.9359C27.2812 16.0586 27.3492 16.2251 27.3492 16.3986C27.3492 16.5721 27.2812 16.7385 27.1602 16.8612C27.0392 16.9839 26.8751 17.0529 26.704 17.0529H11.1427C10.9716 17.0529 10.8075 16.9839 10.6865 16.8612C10.5655 16.7385 10.4976 16.5721 10.4976 16.3986V14.0039C10.4976 13.8304 10.5655 13.664 10.6865 13.5413C10.8075 13.4186 10.9716 13.3496 11.1427 13.3496H29.6588C29.83 13.3496 29.9941 13.4186 30.115 13.5413C30.236 13.664 30.304 13.8304 30.304 14.0039V16.3986C30.304 16.5721 30.236 16.7385 30.115 16.8612C29.9941 16.9839 29.83 17.0529 29.6588 17.0529Z" fill="#002855"/>
<path d="M27.923 14.6571C27.7519 14.6571 27.5878 14.5881 27.4668 14.4654C27.3459 14.3427 27.2779 14.1763 27.2779 14.0028C27.2487 12.4487 26.6347 10.9646 25.5618 9.85463C24.8819 9.18349 24.0723 8.66257 23.1839 8.32473C22.2956 7.98689 21.3478 7.83947 20.4005 7.89177C19.4584 7.84404 18.5168 7.9937 17.6343 8.33141C16.7519 8.66913 15.9475 9.18765 15.2714 9.85463C14.1912 10.9546 13.5658 12.4313 13.523 13.9832C13.523 14.1567 13.4551 14.3231 13.3341 14.4458C13.2131 14.5685 13.049 14.6375 12.8779 14.6375C12.7068 14.6375 12.5427 14.5685 12.4217 14.4458C12.3007 14.3231 12.2327 14.1567 12.2327 13.9832C12.263 12.0767 13.0216 10.2565 14.3488 8.90591C15.1493 8.12163 16.0983 7.51024 17.1385 7.10874C18.1787 6.70725 19.2884 6.52401 20.4005 6.57012C21.5148 6.52831 22.6259 6.71672 23.6662 7.12388C24.7065 7.53104 25.6543 8.14847 26.4521 8.93863C27.7793 10.2892 28.5379 12.1094 28.5682 14.0159C28.5648 14.1871 28.4954 14.3502 28.3747 14.4701C28.2541 14.59 28.0919 14.6571 27.923 14.6571Z" fill="#002855"/>
<path d="M20.4005 7.87918C20.2294 7.87918 20.0653 7.81025 19.9443 7.68755C19.8233 7.56484 19.7554 7.39843 19.7554 7.2249V1.47373C19.7554 1.3002 19.8233 1.13378 19.9443 1.01108C20.0653 0.888379 20.2294 0.819445 20.4005 0.819445C20.5716 0.819445 20.7357 0.888379 20.8567 1.01108C20.9777 1.13378 21.0457 1.3002 21.0457 1.47373V7.2249C21.0457 7.39843 20.9777 7.56484 20.8567 7.68755C20.7357 7.81025 20.5716 7.87918 20.4005 7.87918Z" fill="#002855"/>
<path d="M26.058 5.38005H20.3999C20.2288 5.38005 20.0647 5.31111 19.9437 5.18841C19.8227 5.06571 19.7547 4.89929 19.7547 4.72576V1.45433C19.7547 1.28081 19.8227 1.11439 19.9437 0.991684C20.0647 0.868982 20.2288 0.800049 20.3999 0.800049H26.058C26.1796 0.800398 26.2986 0.835594 26.4013 0.901579C26.5041 0.967564 26.5863 1.06165 26.6386 1.17299C26.6916 1.28422 26.7124 1.40837 26.6987 1.53111C26.685 1.65384 26.6373 1.77013 26.5612 1.86653L25.5935 3.07696L26.5612 4.30702C26.6373 4.40342 26.685 4.51971 26.6987 4.64244C26.7124 4.76518 26.6916 4.88933 26.6386 5.00056C26.5872 5.11312 26.5054 5.20856 26.4026 5.27575C26.2998 5.34294 26.1803 5.37911 26.058 5.38005ZM21.0451 4.07147H24.7096L24.2709 3.50879C24.1793 3.39274 24.1293 3.24852 24.1293 3.09986C24.1293 2.9512 24.1793 2.80698 24.2709 2.69093L24.716 2.12825H21.0451V4.07147ZM39.7547 36.5829H1.04506C0.873956 36.5829 0.709857 36.514 0.588866 36.3913C0.467874 36.2686 0.399902 36.1021 0.399902 35.9286C0.399902 35.7551 0.467874 35.5887 0.588866 35.466C0.709857 35.3433 0.873956 35.2743 1.04506 35.2743H39.7547C39.9258 35.2743 40.09 35.3433 40.2109 35.466C40.3319 35.5887 40.3999 35.7551 40.3999 35.9286C40.3999 36.1021 40.3319 36.2686 40.2109 36.3913C40.09 36.514 39.9258 36.5829 39.7547 36.5829ZM30.0773 39.2001H3.62571C3.4546 39.2001 3.2905 39.1311 3.16951 39.0084C3.04852 38.8857 2.98055 38.7193 2.98055 38.5458C2.98055 38.3722 3.04852 38.2058 3.16951 38.0831C3.2905 37.9604 3.4546 37.8915 3.62571 37.8915H30.0773C30.2484 37.8915 30.4125 37.9604 30.5335 38.0831C30.6545 38.2058 30.7225 38.3722 30.7225 38.5458C30.7225 38.7193 30.6545 38.8857 30.5335 39.0084C30.4125 39.1311 30.2484 39.2001 30.0773 39.2001ZM35.2386 39.2001H32.6967C32.5256 39.2001 32.3615 39.1311 32.2405 39.0084C32.1195 38.8857 32.0515 38.7193 32.0515 38.5458C32.0515 38.3722 32.1195 38.2058 32.2405 38.0831C32.3615 37.9604 32.5256 37.8915 32.6967 37.8915H35.2386C35.4097 37.8915 35.5738 37.9604 35.6948 38.0831C35.8158 38.2058 35.8838 38.3722 35.8838 38.5458C35.8838 38.7193 35.8158 38.8857 35.6948 39.0084C35.5738 39.1311 35.4097 39.2001 35.2386 39.2001Z" fill="#002855"/>
</svg>
