<svg width="65" height="64" viewBox="0 0 65 64" fill="none" xmlns="http://www.w3.org/2000/svg">
<g clip-path="url(#clip0_1_24546)">
<path d="M31.3948 0.237656C30.2828 0.268764 29.6372 0.953047 29.6595 1.7841C29.7178 3.78845 32.345 3.28184 32.3809 4.62841C32.4034 5.32615 31.9057 5.65507 31.2602 5.67726C30.9239 5.68614 30.2917 5.53069 30.1124 5.20626C29.9958 4.98406 29.8837 4.65064 29.8165 4.23733L29.5519 4.30846L29.6775 5.60615C30.081 5.88169 30.7713 5.98832 31.3139 5.97943C32.4706 5.93943 33.1116 5.22849 33.0937 4.22852C33.0447 2.64636 30.4087 3.08624 30.3685 1.57966C30.3507 0.979654 30.7627 0.610812 31.3548 0.593044C32.0183 0.570823 32.2919 1.05968 32.4308 1.63738L32.6997 1.59733L32.5518 0.375307C32.1663 0.348642 31.7807 0.228645 31.3951 0.237529L31.3948 0.237656ZM34.7393 0.464354L34.7034 0.726438L35.4521 0.970913L34.7529 5.61944L33.9637 5.63722L33.9235 5.90397L37.9179 6.49065L38.4425 5.21506L38.1556 5.17068L37.7117 5.97059L35.5285 5.64617L35.8557 3.52637L37.3083 3.7396L37.3576 4.35736L37.5906 4.39741C37.6131 3.96633 37.7206 3.23303 37.8327 2.81967L37.6042 2.79291L37.3665 3.34851L35.9139 3.13529L36.2234 1.13094L37.9583 1.38422L38.0569 2.17532L38.2946 2.2152L38.3619 1.00193L34.7393 0.464354ZM42.3396 2.14048C41.2 2.14938 40.3587 2.79581 39.9044 3.98403C39.1601 5.93949 40.1779 7.20174 41.877 7.82831C42.3612 8.01491 42.9038 8.14381 43.4955 8.20159L44.4145 7.406L44.2846 7.1926C43.6345 7.7215 42.8724 7.82825 42.0923 7.53496C40.7114 7.02833 40.1869 5.4416 40.7607 3.92618C41.2853 2.55733 42.3119 2.24184 43.6434 2.74403C45.0736 3.27289 45.2303 4.00627 45.0556 4.70851L45.3111 4.80623L45.7326 3.44622C45.2035 3.06402 44.3427 2.62414 43.8092 2.42858C43.2771 2.23109 42.7856 2.137 42.3396 2.14048ZM21.4602 2.22422L19.259 3.01531L19.3576 3.27308L20.1241 3.1353L21.7427 7.54383L21.0522 7.93938L21.1508 8.19266L24.8629 6.85943L24.6656 5.2862L24.4191 5.37512L24.3519 6.52616L22.4465 7.21487L20.8684 2.86849L21.5454 2.47743L21.4602 2.22422ZM47.3914 4.09075L47.2479 4.31727L47.8084 4.85509L46.0285 7.46824C45.3202 8.45927 45.4278 9.59254 46.822 10.5169C48.3015 11.508 49.4268 10.9793 50.2966 9.70822L51.7849 7.5261L52.5063 7.85053L52.6633 7.62387L50.8477 6.40176L50.6907 6.624L51.2606 7.17507L49.7312 9.4059C49.4936 9.76587 49.099 10.3348 48.6372 10.4725C48.0544 10.6458 47.4401 10.4147 47.1174 10.197C46.1086 9.52145 46.158 8.62373 46.8394 7.66381L48.4579 5.28624L49.1797 5.60617L49.3276 5.39294L47.3908 4.09083L47.3914 4.09075ZM15.1529 5.10839L14.8077 5.32611L15.8524 10.8325L15.3591 11.3037L15.4981 11.5392L17.1839 10.4815L17.0403 10.2548L16.3052 10.5482L15.9196 8.85933L17.6322 7.79271L19.0891 8.81929L18.5063 9.33483L18.6453 9.56151L20.5911 8.34824L20.452 8.12604L19.802 8.37051L15.1529 5.10839ZM15.3901 6.21514L17.2735 7.54386L15.8431 8.43722L15.3901 6.21514ZM11.5614 7.73498L9.82199 9.27709L10.0012 9.47271L10.6737 9.06369L13.8389 12.5525L13.3458 13.1703L13.5341 13.3657L15.2735 11.8236L15.0943 11.6237L14.4218 12.037L11.2521 8.54384L11.7497 7.92609L11.5614 7.73498ZM53.9142 8.78834L53.717 8.96151L54.1699 9.6504L50.6908 12.8369H50.6906L50.0272 12.3302L49.8299 12.517L51.4394 14.25L51.6456 14.0591L51.2109 13.4058L52.641 12.0946C52.8517 12.3213 53.0489 12.517 53.2417 12.6903C53.0355 13.5525 52.8606 14.4811 52.7396 15.4011C52.7396 15.4722 52.8921 15.7434 52.9773 15.9078L53.2731 16.4455L53.5017 16.3523C53.3135 15.8412 53.4524 15.2368 53.5376 14.7567L53.856 13.0901C54.4971 13.2412 55.2368 13.179 55.7344 12.7213C56.4338 12.0858 56.2142 11.2636 55.6851 10.6859L53.9141 8.78747L53.9142 8.78834ZM54.7438 10.1792C54.8514 10.2459 54.9632 10.3438 55.0709 10.4637C55.685 11.117 55.6135 11.7836 54.9634 12.3792C54.143 13.1302 53.7887 12.8191 53.1252 12.1036L53.0984 12.0725L53.0669 12.037L53.0535 12.0235L53.0355 12.0059L53.0221 11.9924L53.0087 11.9746L52.9953 11.9613L52.9817 11.9435L52.9683 11.9303L52.9549 11.9125L52.9415 11.8992L52.9279 11.8859L52.919 11.8724L52.9101 11.8591L54.7438 10.1792ZM8.73662 10.4993C8.21208 10.8904 7.53508 11.5659 7.18096 12.0059C5.91227 13.5703 6.07377 15.0679 7.47252 16.1656C9.13126 17.4633 10.651 16.8989 11.7763 15.4901C12.0946 15.0901 12.3771 14.619 12.6147 14.0812L12.1396 12.9658L11.893 13.0235C12.2023 13.7968 12.0723 14.5434 11.5612 15.1967C10.6421 16.3433 8.96548 16.3522 7.68332 15.3434C6.52663 14.4324 6.54447 13.3658 7.42764 12.2591C8.37361 11.077 9.13133 11.1481 9.74547 11.5392L9.92034 11.3215L8.73672 10.4993L8.73662 10.4993ZM58.2582 13.7124L58.0295 13.8547L58.3479 14.579L54.3891 17.1612L53.8466 16.5968L53.6181 16.7389L54.9137 18.6811L55.1422 18.5343L54.824 17.81L58.7691 15.2278V15.228L59.3116 15.7924L59.5403 15.6456L58.2581 13.7124L58.2582 13.7124ZM41.2186 14.1478C37.8604 14.1163 36.8151 15.4101 36.8151 15.4101H36.8152L36.7255 15.6235L36.6404 15.8322L36.5552 16.0323L36.47 16.2323L36.3849 16.4234L36.304 16.6145L36.2189 16.7922L36.1337 16.97L36.0485 17.1434L35.9632 17.3077L35.878 17.4633L35.7929 17.6188L35.7032 17.7656L35.6134 17.9034L35.5194 18.0367L35.4252 18.1612L35.3266 18.2811L35.228 18.3966L35.1249 18.4989L35.0173 18.5966L34.9096 18.6855L34.7975 18.7699L34.6809 18.8455L34.5599 18.9122L34.43 18.9699L34.2999 19.0187L34.1654 19.0633L34.0264 19.0943L33.8785 19.1209L33.7305 19.1344L33.5736 19.1432L33.4078 19.1387C30.0409 18.9832 29.5208 17.0056 29.4895 16.7345C29.4402 16.3523 30.1529 15.9389 30.1529 15.9389C29.9646 15.9389 28.521 16.028 26.6963 15.4902C24.1723 14.7658 24.1634 16.4813 24.1634 16.4813C24.1634 16.4813 21.0609 15.6768 20.6485 17.2411C20.4512 17.9744 20.6262 19.0232 20.6262 19.0232C20.6262 19.0232 22.8767 17.8366 24.6072 19.2454C26.0867 20.4675 26.3916 21.4765 28.5212 23.8941C29.6106 25.1162 32.3633 29.1381 35.8467 27.325C35.8467 27.325 35.3715 26.4184 33.0447 24.8807C32.027 24.2141 30.4668 23.5297 29.4716 22.7387C28.5436 21.992 28.1669 21.6943 26.3153 19.579C25.5352 18.6901 23.1636 17.4946 21.7917 17.9479C21.6662 17.9924 21.6438 18.1035 21.5362 18.1791C21.5362 18.1791 21.4958 17.5835 21.5855 17.3479C21.7155 17.0146 23.1054 16.9169 24.7731 17.388C24.7731 17.388 24.4504 16.0769 25.7595 16.3035C27.082 16.5346 28.3777 16.979 28.7812 16.8679C28.7812 16.8679 28.808 19.89 33.605 20.1967C35.9632 20.3433 36.9317 17.7968 37.5235 16.8236C37.7028 16.5347 38.1152 15.9702 38.5411 15.8591C41.6391 15.0414 47.3326 15.0992 50.7982 20.9167C52.2373 23.3654 54.4789 28.4406 55.4249 30.0359C57.7741 34.0267 59.5317 33.3023 61.0335 31.9335C61.0335 31.9335 58.8098 33.1602 56.8282 28.636C55.9316 26.5828 52.8517 19.8899 50.5294 17.8187C49.3682 16.7698 47.6779 15.1787 44.6114 14.5432C43.2806 14.2691 42.1591 14.1563 41.2188 14.1475L41.2186 14.1478ZM21.4164 14.796C18.5814 14.8506 16.3865 16.2576 14.4216 18.0144C11.8662 20.3031 10.2569 24.3251 8.71914 27.5827C7.23518 30.7113 6.62531 31.129 5.32077 31.8356L5.26695 31.8668L5.21766 31.8934L5.16384 31.9157L5.1102 31.9378L5.06074 31.9601L5.00692 31.9823L4.95763 32.0001L4.90834 32.0179L4.80975 32.049L4.71553 32.0756L4.62148 32.0979L4.52726 32.1156L4.43756 32.1246L4.35239 32.1334L4.26722 32.1379L4.18658 32.1424H4.11029L4.03871 32.1379L3.96695 32.1289L3.89519 32.1201L3.83249 32.1112L3.76961 32.0979L3.71144 32.0891L3.65762 32.0713L3.60816 32.0578L3.5634 32.0445L3.51864 32.0312L3.47823 32.0134L3.44688 32.0001L3.41553 31.9868L3.38853 31.9779L3.37059 31.9646L3.35265 31.9556L3.33924 31.9513L3.33036 31.9468C3.33036 31.9468 4.42427 33.169 5.41955 33.1289C8.15428 33.0312 10.1314 28.5381 10.8576 27.0626C11.8171 25.1027 13.5251 20.7341 16.3675 18.2943C18.8422 16.1832 21.411 15.6277 22.218 15.5566C23.9036 15.4322 23.9574 15.09 23.9574 15.09C23.0542 14.8712 22.2102 14.7807 21.4164 14.796ZM25.3383 16.81V16.8145H25.3427V16.8188L25.3472 16.8233L25.3517 16.8277L25.3563 16.8366L25.3606 16.841L25.3697 16.8543L25.3786 16.8678L25.392 16.8856L25.4056 16.9034L25.419 16.921L25.4324 16.9433L25.4458 16.9655L25.4594 16.9921L25.4773 17.0189L25.4907 17.0455L25.5087 17.0722L25.5266 17.1033L25.54 17.1299L25.558 17.1655L25.5714 17.1965L25.5848 17.2278L25.5984 17.2632L25.6118 17.2944L25.6252 17.33L25.6341 17.3656L25.6431 17.401L25.652 17.4365L25.6611 17.4721L25.6656 17.5077L25.6699 17.5432V17.5788V17.6144C25.6699 17.6144 26.1363 17.2233 27.1316 17.2411C27.1316 17.2411 25.7821 16.8678 25.3383 16.81ZM60.2806 16.8678L58.9671 17.2722L59.0881 17.5254L60.0027 17.4144C60.1237 17.6322 60.2403 17.8676 60.3613 18.1209L60.7649 19.0098L56.4834 20.9163L55.9902 20.1743L55.7392 20.281L56.7883 22.583L57.0349 22.4719L56.7973 21.623L61.0788 19.7164L61.4957 20.6232C61.6123 20.8988 61.7199 21.1608 61.8096 21.4009L61.0788 21.9252L61.1998 22.1919L62.4146 21.5742L60.2806 16.8678ZM41.4647 16.9008C40.1242 16.9092 39.2001 17.1523 39.2001 17.1523C39.1105 17.2012 38.8863 17.3213 38.7966 17.4635C38.4603 18.0323 37.9985 18.9523 37.9985 18.9523C45.0147 19.2945 46.427 27.7785 46.427 27.7785L46.5796 27.8496L46.732 27.9206L46.8798 27.9917L47.0233 28.0674L47.1623 28.1383L47.3013 28.2139L47.4313 28.2896L47.5614 28.3605L47.6869 28.4317L47.8078 28.5073L47.9245 28.5782L48.0367 28.6449L48.1487 28.716L48.2518 28.7827L48.3504 28.845L48.4446 28.9115L48.5343 28.9693L48.6194 29.0315L48.7001 29.0848L48.7718 29.1381L48.8436 29.187L48.9063 29.236L48.9646 29.2804L49.0139 29.3205L49.0632 29.356L49.1036 29.3871L49.1395 29.4137L49.1663 29.436L49.1888 29.4538L49.2067 29.4671L49.2156 29.476L49.2202 29.4803C49.2199 29.4795 47.5792 24.1785 45.5574 21.4944C43.782 19.1479 40.998 18.339 40.998 18.339C44.9656 18.1124 46.2388 19.7745 47.6106 21.6633C49.0318 23.592 51.1837 30.3027 52.5466 31.6585C53.5375 32.6584 55.1605 32.8451 55.1605 32.8451C54.7749 32.3252 53.1653 29.7431 51.8831 26.5566C50.3457 22.6909 48.4811 19.5802 46.8893 18.4734C45.0389 17.1846 42.9843 16.8928 41.4648 16.9026L41.4647 16.9008ZM5.40237 17.1406C4.34288 17.1321 3.4192 17.7051 2.83671 18.9609C2.10595 20.5253 2.71575 21.9652 4.36562 22.7162C5.81373 23.374 7.33791 23.0051 8.17624 21.1741L8.23894 21.0319L8.29729 20.8853L8.34658 20.7432L8.38699 20.6009L8.42287 20.4587L8.44969 20.3166L8.47216 20.1788L8.48557 20.041L8.49463 19.9032V19.7698L8.48557 19.6365L8.47669 19.5077L8.45422 19.3787L8.42722 19.2499L8.39587 19.1254L8.35999 19.0054L8.3107 18.8854L8.26141 18.7699L8.20307 18.6588L8.14036 18.5477L8.06861 18.441L7.99249 18.3343L7.91168 18.2366L7.82198 18.1389L7.72793 18.0455L7.62934 17.9566L7.52171 17.8676L7.40954 17.7877L7.29303 17.7121L7.17198 17.6366L7.04205 17.57L6.91195 17.5033V17.5032C6.39402 17.2698 5.88447 17.1452 5.40284 17.1416L5.40237 17.1406ZM19.6891 17.8276L19.6802 17.8321L19.6577 17.8364L19.6128 17.8499L19.5501 17.872L19.4783 17.8987L19.3843 17.9343L19.2812 17.9787L19.1601 18.0365L19.03 18.1031L18.8867 18.1831L18.7298 18.272L18.5594 18.3787L18.3846 18.4987L18.1963 18.632L17.9989 18.7875L17.7927 18.9564L17.5776 19.143L17.358 19.3475L17.1293 19.5742L16.8961 19.8186L16.6585 20.0852L16.4165 20.3785L16.1653 20.6897L15.9143 21.0274L15.6633 21.3874L15.4033 21.7786L15.2777 21.983L15.1478 22.1919L15.0177 22.4096L14.8878 22.6362L14.7577 22.8673L14.6321 23.1028L14.5022 23.3518L14.3721 23.6051L14.2421 23.8674L14.1165 24.1339L13.9866 24.4095L13.861 24.694L13.8609 24.6938C10.7496 31.7467 8.91602 33.1067 8.91602 33.1067C12.0722 33.1067 13.8878 29.1825 14.7979 26.8582C17.4206 20.0586 19.8013 19.5208 19.8013 19.5208C19.6802 19.1208 19.6891 17.8276 19.6891 17.8276ZM5.12325 17.9203C5.54885 17.9184 6.01119 18.0137 6.48611 18.2276L6.59374 18.281L6.70121 18.3343L6.80431 18.3877L6.9076 18.4453L7.00618 18.5077L7.10476 18.5698L7.19881 18.6322L7.28852 18.6986L7.37822 18.7698L7.45903 18.8409L7.53967 18.9165L7.61596 18.992L7.68772 19.0721L7.75477 19.152L7.81312 19.2364L7.87147 19.3209L7.92529 19.4098L7.97005 19.4987L8.01045 19.5921L8.04633 19.6898L8.07315 19.7876L8.09562 19.8853L8.11356 19.9875L8.12244 20.0942V20.2009L8.11792 20.3121L8.1045 20.4231L8.08221 20.5343L8.05522 20.6543L8.01934 20.7698L7.97458 20.8943L7.92076 21.0186C7.34691 22.2584 5.97496 22.5341 4.37445 21.8097C3.06143 21.2103 2.59969 20.184 3.10183 19.1215C3.42848 18.4001 4.18745 17.9254 5.12378 17.921L5.12325 17.9203ZM37.541 19.7076C37.3169 20.1965 36.4561 21.2586 36.4561 21.2586C41.6701 23.6007 41.688 26.7605 41.688 26.7605L41.7641 26.7517H41.8404H41.9211H42.0064L42.0961 26.756L42.1858 26.765L42.2799 26.7695L42.3739 26.7828L42.4681 26.7916L42.5622 26.805L42.755 26.8361L42.9434 26.8717L43.0375 26.8895L43.1272 26.9073L43.2169 26.925L43.3021 26.9427L43.3827 26.9604L43.4633 26.9782L43.5396 26.996L43.6114 27.0138L43.6741 27.0316L43.737 27.0449L43.7906 27.0583L43.8401 27.0716L43.8624 27.0804L43.8848 27.0849L43.9028 27.0894L43.9207 27.0939L43.9341 27.0982L43.9475 27.1027H43.9611L43.97 27.1072H43.9791L43.9834 27.1117H43.9879C43.2079 21.6053 37.541 19.7076 37.541 19.7076ZM22.919 19.7991C22.8746 19.7995 22.8291 19.8015 22.7823 19.8054C22.0874 19.8631 19.4558 20.5254 17.138 25.7695L17.0349 26.0005L16.9363 26.2182L16.842 26.4316L16.7523 26.6316L16.6628 26.8272L16.582 27.0138L16.5014 27.1917L16.4251 27.3605L16.349 27.5249L16.2817 27.676L16.2145 27.827L16.1516 27.965L16.0935 28.0938L16.0396 28.2183L15.9858 28.3383L15.9365 28.4448L15.8916 28.5472L15.8468 28.6449L15.8064 28.7293L15.7705 28.8138L15.7392 28.8849L15.7078 28.9515L15.681 29.0137L15.654 29.067L15.6361 29.1159L15.6182 29.1559L15.6002 29.187L15.5868 29.2181L15.5779 29.2359L15.5734 29.2537L15.5689 29.2627V29.267V29.2671C16.4655 28.645 18.2496 28.0582 18.2496 28.0582C20.5405 21.1431 23.9748 20.1654 23.9748 20.1654C23.9748 20.1654 23.5847 19.7943 22.919 19.7991ZM25.0016 21.134L24.7057 21.3073L24.4188 21.4939L24.1408 21.694L23.8763 21.9073L23.6208 22.134L23.3742 22.3695L23.1366 22.6095L22.9079 22.8584L22.6928 23.1162L22.4821 23.374L22.2847 23.6362L22.0964 23.9028L21.9171 24.1651L21.7467 24.4273L21.5854 24.6896L21.433 24.9473L21.2939 25.1961L21.1594 25.4449L21.0384 25.6806L20.9218 25.9071L20.8187 26.125L20.7247 26.3337L20.635 26.5249L20.5587 26.7027L20.4915 26.8672L20.4333 27.0093L20.3838 27.1383L20.3436 27.2448L20.3257 27.2894L20.3123 27.3294L20.2987 27.3648L20.2898 27.3916L20.2807 27.4139L20.2764 27.4316L20.2718 27.4404V27.4448C20.886 27.2581 22.2355 27.1026 22.2355 27.1026C23.2845 24.1383 25.8982 22.1028 25.8982 22.1028L25.0016 21.134ZM35.1961 22.2186L35.1738 22.2454L35.1513 22.272L35.102 22.3208L35.0437 22.3654L34.9853 22.4097L34.9183 22.4543L34.851 22.4942L34.7748 22.5342L34.6985 22.5698L34.6224 22.6053L34.5415 22.6409L34.4564 22.672L34.3712 22.7031L34.286 22.7297L34.2054 22.7609L34.1201 22.783L34.0349 22.8098L33.9497 22.832L33.8691 22.8497L33.7928 22.8674L33.7165 22.8852L33.6449 22.903L33.5732 22.9165L33.5105 22.9298L33.4521 22.9431L33.3938 22.952L33.349 22.9608L33.3265 22.9653L33.3041 22.9696H33.2861L33.2684 22.9741H33.2548L33.2368 22.9786H33.228L33.2189 22.9831H33.21H33.2055H33.2011C36.6084 24.823 37.6709 26.8583 37.6709 26.8583C38.3927 26.6717 39.8631 26.6629 39.8631 26.6629C38.7378 23.8542 35.1961 22.2186 35.1961 22.2186ZM62.7592 22.5741L62.4903 22.6274L62.5307 23.4141L60.1635 25.6762L58.276 26.094L57.9397 25.2228L57.6753 25.2718L58.2581 27.8361L58.5136 27.7782L58.4464 26.8494L60.3203 26.4272L63.4273 27.3962L63.6963 27.9827L63.9608 27.925L63.5304 26.0184L63.2704 26.0718L63.3108 26.8584L60.7823 26.1339L62.719 24.2453L63.0238 24.9785L63.2839 24.9207L62.7593 22.5742L62.7592 22.5741ZM26.9563 23.5298C26.9563 23.5298 25.2302 24.7252 24.3021 27.1695C24.3021 27.1695 25.0104 27.1606 25.3377 27.2184C25.6605 27.2895 26.1671 27.2983 26.1671 27.2983H26.1675L26.1897 27.1873L26.2211 27.0761L26.257 26.9606L26.3019 26.8494L26.3512 26.7339L26.4005 26.6184L26.4588 26.5074L26.517 26.3919L26.5799 26.2807L26.6471 26.1695L26.7143 26.0585L26.7859 25.9518L26.8577 25.8451L26.9294 25.7429L27.0012 25.6452L27.0728 25.5473L27.1445 25.454L27.2163 25.3608L27.2835 25.2762L27.3508 25.1963L27.4135 25.1206L27.4763 25.0452L27.5345 24.9785L27.5883 24.9207L27.6376 24.863L27.6826 24.8185L27.7184 24.7741L27.7364 24.7563L27.7498 24.7386L27.7677 24.7253L27.7766 24.7118L27.7902 24.6985L27.7991 24.6897L27.8036 24.6852L27.808 24.6807L27.8125 24.6764L26.9563 23.5298ZM1.12857 23.9341C0.998559 24.2941 0.783416 24.6364 0.702721 25.0186C0.456144 26.0941 0.971646 26.8852 1.801 27.063C3.76463 27.503 3.92158 24.8453 5.24413 25.1386C5.92558 25.2808 6.1407 25.8408 5.99271 26.4763C5.92547 26.8096 5.61616 27.3784 5.25302 27.4628C5.00644 27.5339 4.65236 27.543 4.22643 27.5119L4.23532 27.7872L5.54004 27.9829C5.90318 27.6584 6.18111 27.0229 6.29768 26.494C6.5577 25.3697 6.00184 24.5784 5.02452 24.3607C3.46887 24.0141 3.24914 26.6629 1.76964 26.3385C1.17786 26.2007 0.913291 25.7118 1.03882 25.1473C1.18676 24.4896 1.72923 24.3519 2.33445 24.3519L2.35239 24.0896L1.12846 23.9341L1.12857 23.9341ZM58.2683 37.0224L57.6451 38.9067L57.9052 38.9956L58.2683 38.3024L61.9983 39.4889L56.6902 41.8667L56.2464 43.2354L56.5019 43.3199L56.8785 42.6265L61.384 44.0531L61.2809 44.8353L61.5364 44.9152L62.1551 42.9775L61.8996 42.902L61.523 43.6265L57.5598 42.3643C58.7344 41.8265 62.5049 40.1333 63.2356 39.8088L63.3521 39.4356L58.4161 37.8757L58.5238 37.098L58.2683 37.0224ZM0.587275 37.17L0.318359 37.2363L0.815965 39.1385L1.08053 39.0674L1.0133 38.2853L2.76612 38.4408L3.27278 40.3785L1.83813 41.4451L1.51522 40.7296L1.2463 40.7963L1.82019 43.0006L2.08911 42.934L2.04887 42.2584L6.59475 38.8496L6.50069 38.4586L0.883204 37.7875L0.587286 37.1697L0.587275 37.17ZM35.79 37.7256L35.7766 53.8893L37.4981 53.4938L37.5072 37.7261H35.79L35.79 37.7256ZM39.1614 37.7256L39.1928 53.076L40.892 52.5873L40.8829 37.7257L39.1614 37.7256ZM42.7166 37.7256V51.9693C42.7166 51.9693 44.4337 52.0182 44.4337 49.4672V37.7261H42.7166V37.7256ZM21.9727 37.7567V49.4934C21.9727 52.0177 23.6807 51.9999 23.6807 51.9999V37.7563H21.9727V37.7567ZM25.5278 37.7567V52.6846L27.2404 53.0844V37.757H25.5278V37.7567ZM28.8993 37.7567L28.9081 53.5244L30.6162 53.9465V37.7563H28.8992L28.8993 37.7567ZM32.2571 37.7567V54.3067L33.1134 55.1912L33.9653 54.3245L33.9742 37.7568H32.257L32.2571 37.7567ZM3.19225 38.499L5.46069 38.7433L3.60906 40.1256L3.19225 38.499ZM7.151 41.201L6.91326 41.3165L7.13742 42.072L2.92773 44.2008L2.4526 43.5697L2.20598 43.6941L3.49714 46.2184C4.31757 47.8139 5.72081 48.7027 7.59482 47.7561C9.37913 46.8629 9.25357 45.2896 8.49148 43.8141L7.151 41.201ZM7.55437 42.7255C7.72921 43.0099 7.89063 43.2944 8.03857 43.5877C8.78726 45.0454 8.58111 46.3253 6.94029 47.1475C5.5908 47.8319 4.45641 47.3829 3.83325 46.1786L3.79302 46.0941L3.75261 46.0142L3.71673 45.9341L3.68086 45.8497L3.64498 45.7697L3.61363 45.6896L3.58228 45.6097L3.55093 45.5297L3.49258 45.3697L3.46576 45.2853L3.43423 45.2052L3.40741 45.1207L3.38059 45.0363L3.34906 44.9474L3.32224 44.8586L7.55437 42.7255ZM56.8646 44.5565C55.9743 44.5776 55.1496 45.0561 54.5161 46.0721C53.6015 47.5387 54.014 49.0362 55.5562 49.9873C56.9191 50.8184 58.4658 50.6407 59.5417 48.9296L59.6223 48.7919L59.6941 48.6541L59.7613 48.5206L59.8197 48.3828L59.8735 48.2451L59.9182 48.1118L59.9541 47.974L59.9855 47.8405L60.0079 47.7072L60.0259 47.574L60.0393 47.4407V47.3117L60.0348 47.1784L60.0259 47.0494L60.0079 46.9251L59.9855 46.8006L59.9541 46.6762L59.9182 46.5519L59.8778 46.4319L59.8285 46.3164L59.7704 46.2007L59.7075 46.0897L59.6403 45.9785L59.5642 45.8718L59.4833 45.7696L59.3936 45.6674L59.3039 45.5696L59.2008 45.4719L59.0977 45.383L58.9857 45.2941L58.8692 45.2096L58.7436 45.1295V45.1299C58.1135 44.7417 57.4736 44.542 56.8646 44.5565ZM56.5497 45.3041C57.0768 45.2924 57.6561 45.4422 58.2279 45.7961L58.331 45.8628L58.4298 45.9251L58.5284 45.996L58.6224 46.0627L58.7121 46.1338L58.8018 46.2094L58.887 46.2849L58.9678 46.3605L59.0485 46.4405L59.1202 46.5251L59.192 46.605L59.2547 46.6894L59.3174 46.7783L59.3757 46.8673L59.425 46.9562L59.4699 47.0494L59.5102 47.1428L59.5461 47.236L59.5731 47.3339L59.5953 47.4317L59.6133 47.5339L59.6223 47.6361V47.7383L59.6178 47.845L59.6089 47.9517L59.591 48.0582L59.564 48.1649L59.5281 48.2761L59.4834 48.3873L59.4341 48.5028L59.3712 48.6183L59.304 48.7338C58.5732 49.907 57.1834 50.0047 55.695 49.0848C54.462 48.3293 54.1258 47.2582 54.7579 46.2582C55.1199 45.683 55.7791 45.321 56.5496 45.304L56.5497 45.3041ZM10.11 46.9827L9.9038 47.1694L10.3657 47.8804L6.51896 50.6492L5.96301 50.2403L5.75679 50.427L7.0122 51.8046L7.20936 51.6269L6.82391 50.9914L10.3162 48.436L10.3298 48.4315L10.3387 48.436L8.17776 53.0358L8.23611 53.1157L13.1497 51.4225L13.1676 51.4136L13.1812 51.4225L10.1416 54.6712L9.51821 54.1912L9.32105 54.369L10.85 56.0578L11.0471 55.8845L10.6526 55.2489L13.8715 51.7648H13.8717L14.5128 52.2714L14.7099 52.0892L13.5757 50.8359L9.38832 52.2669L11.2669 48.2627L10.11 46.9827ZM52.8213 48.5692L51.2835 50.307L51.4807 50.4846L52.0993 49.9958L55.6636 53.0979L55.2511 53.7601L55.4439 53.9379L56.9951 52.1956L56.7889 52.018L56.1748 52.5112L52.6151 49.4182L53.0185 48.7426L52.8213 48.5692ZM50.7589 50.8448L46.7107 54.0934L47.4325 55.2488L47.6521 55.0711L47.3158 54.2089C47.4951 54.0534 47.688 53.8757 47.9076 53.7023L48.6787 53.0846L51.6288 56.7065L51.0235 57.3599L51.2029 57.5688L53.1756 55.9821L53.0096 55.7777L52.2385 56.2133L49.2795 52.5957L50.0685 51.9691C50.2971 51.7825 50.5303 51.618 50.741 51.4713L51.4404 52.0402L51.6646 51.8536L50.7589 50.8448ZM15.2789 52.4713L15.1219 52.6757L15.6643 53.2534L12.822 57.0088L12.1137 56.6576L11.9567 56.862L13.8218 58.2621L13.9877 58.0442L13.4452 57.471L16.2875 53.7111H16.2876L16.9869 54.0711L17.1573 53.8579L15.2789 52.4713ZM17.6504 54.2712L17.5293 54.5155L18.175 54.9644L16.0993 59.1908V59.191L15.3416 58.9731L15.2251 59.2176L17.0676 60.0976L17.1842 59.8664L16.5162 59.3954L18.3408 55.6801C18.704 56.9112 19.8607 60.8443 20.0759 61.6042L20.43 61.7819L22.712 57.1557L23.4696 57.3734L23.5818 57.1289L21.7749 56.2579L21.654 56.5023L22.2995 56.9511L20.5825 60.4532L18.964 54.8978L17.6505 54.2713L17.6504 54.2712ZM44.7025 55.1911L44.3348 55.382L44.9848 60.9506L44.4559 61.3817L44.5815 61.6172L46.3388 60.6974L46.2089 60.4529L45.4602 60.7063L45.1911 58.9864H45.1912L46.98 58.0354L48.3608 59.1597L47.7376 59.6487L47.8587 59.8842L49.8896 58.8087L49.764 58.573L49.1004 58.7687L44.7025 55.1911ZM44.8549 56.3154L46.6437 57.7686L45.1418 58.5642L44.8549 56.3154ZM40.2323 57.1372C40.0428 57.1384 39.8483 57.1698 39.6589 57.2265L37.1616 57.9598L37.2289 58.2131L38.0583 58.1153L39.4032 62.6128L38.6501 62.9772L38.7309 63.2305L41.0083 62.5684L40.9321 62.3106L40.152 62.3996L39.5962 60.5508C39.8831 60.4619 40.1609 60.373 40.3986 60.2752C41.089 60.8441 41.8468 61.3996 42.6358 61.9196C42.6985 61.9596 43.0033 61.9374 43.1916 61.9329L43.8104 61.9106L43.8193 61.6529C43.2903 61.5995 42.7971 61.213 42.4025 60.9241L41.0262 59.9153C41.4521 59.4042 41.721 58.7197 41.5327 58.0754C41.3242 57.4021 40.8006 57.1338 40.2322 57.1374L40.2323 57.1372ZM24.2726 57.2709L24.2009 57.5376L24.9226 57.8576L23.7212 62.4083L22.9277 62.3417L22.8604 62.5949L25.1289 63.1816L25.2005 62.9283L24.4788 62.6039L25.6847 58.0576L26.4648 58.1241L26.532 57.8575L24.2725 57.2708L24.2726 57.2709ZM39.6383 57.5903C40.2514 57.5681 40.6738 57.9234 40.874 58.6131C41.1879 59.6708 40.753 59.8441 39.816 60.1196L39.7937 60.1241L39.7758 60.1329L39.7533 60.1374L39.7308 60.1419L39.6861 60.1552L39.6681 60.1597L39.6456 60.1685L39.6234 60.173L39.6054 60.1775L39.5875 60.1863L39.565 60.1908L39.5471 60.1953L39.538 60.1996H39.5291L39.5246 60.2041H39.5157L39.5067 60.2086H39.4978L38.7894 57.831C38.897 57.7688 39.036 57.7153 39.1839 57.6665C39.3453 57.6206 39.4969 57.5954 39.6383 57.5903ZM36.6644 58.0577L31.4862 58.4265L31.4189 59.7774L31.6835 59.7552L31.9076 58.8663C32.1497 58.8396 32.4143 58.7996 32.6923 58.7774L33.6786 58.7108L34.0148 63.3595L33.145 63.5549L33.1629 63.8172L35.7006 63.6438L35.6781 63.3683L34.7904 63.2973L34.4452 58.6531L35.4628 58.582C35.7497 58.5642 36.0367 58.5554 36.2922 58.5554L36.5477 59.4131L36.8436 59.3954L36.6644 58.0577ZM28.7499 58.1856C27.8681 58.217 27.291 58.7569 27.2047 59.4841C26.9671 61.4707 29.6526 61.3507 29.4912 62.6929C29.4016 63.3772 28.8679 63.6439 28.2179 63.5639C27.8727 63.5239 27.281 63.2794 27.1421 62.9284C27.0659 62.7017 27.0075 62.3506 26.994 61.9328L26.7296 61.9594L26.6624 63.2705C27.0166 63.5906 27.6845 63.8083 28.227 63.866C29.3837 64.0038 30.1234 63.3861 30.2444 62.3995C30.4282 60.8129 27.7562 60.8751 27.9311 59.3773C28.0028 58.7907 28.4647 58.4752 29.0476 58.5463C29.7201 58.6219 29.9262 59.1507 29.9755 59.7373L30.2445 59.7285L30.2849 58.5063C29.9083 58.4263 29.5317 58.2397 29.1461 58.2042C29.0082 58.187 28.876 58.1811 28.75 58.1855L28.7499 58.1856Z" fill="#333366"/>
<path d="M32.9315 28.91C32.7429 28.9065 31.9509 28.923 31.3546 29.4091C31.3546 29.4091 30.3997 30.0758 30.3773 31.1602C30.3773 31.1602 30.5162 32.52 31.4936 33.0178C31.4936 33.0178 31.5339 33.1467 32.9955 33.8044C32.9955 33.8044 33.9639 34.0757 33.9505 34.7601C33.9505 34.7601 34.0984 35.6399 32.9149 35.671C32.9149 35.671 31.9464 35.8 31.4265 34.9556C30.9916 34.2623 31.0902 33.6757 31.0588 33.5602L30.2698 34.1379L30.2609 35.8755C30.2609 35.8755 31.3951 36.5999 32.6594 36.5821C32.6594 36.5821 34.0986 36.5911 34.7889 35.9067C34.7889 35.9067 35.5599 35.4578 35.5509 34.2045C35.542 32.9824 35.0848 32.3957 33.9909 31.9069C33.9909 31.9069 33.1435 31.6314 32.7893 31.5514C32.7893 31.5514 31.9689 31.2802 31.9958 30.6536C32.0182 30.3869 32.1483 29.7248 33.1435 29.7337C34.5333 29.7515 34.4258 31.2492 34.4258 31.3602L35.2461 30.8402L35.1071 29.1648C35.1071 29.1648 34.6544 29.236 33.9416 29.0004L33.9237 28.9959L33.9057 28.9916L33.8833 28.9826L33.8608 28.9782L33.8385 28.9738L33.8115 28.9693L33.7847 28.9649L33.7577 28.9604L33.7263 28.9561L33.695 28.9516L33.6636 28.9471L33.6321 28.9426L33.6008 28.9383H33.5649L33.4977 28.9293L33.4304 28.9248L33.3587 28.9205L33.2914 28.916L33.2197 28.9115H33.1883H33.157H33.1211H33.0897H33.0584H33.0314H33.0046H32.9732C32.9732 28.9115 32.9586 28.9106 32.9316 28.9101L32.9315 28.91ZM39.7829 29.0771L37.2021 35.5328C36.7366 35.5945 36.4302 35.693 36.4302 35.693H36.4386V36.5024H39.4009V35.693C39.4009 35.693 39.1127 35.5974 38.6624 35.5356L39.0247 34.6626H41.3739L41.7278 35.5328C41.3575 35.5997 41.104 35.6741 41.0869 35.6792H41.0785V35.682V36.5024H44.3835V35.693H44.3807C44.3708 35.6897 43.9921 35.5642 43.4778 35.4886L41.0562 29.077H39.7827L39.7829 29.0771ZM24.5839 29.1655L21.1646 29.1793V29.997H21.1757C21.1757 29.997 21.5269 30.1007 21.9978 30.1793C21.994 30.6825 21.9701 34.228 22.087 34.5384C22.217 34.8406 22.2496 35.2966 22.7697 35.7677C22.7697 35.7677 23.7857 36.714 25.328 36.6295C25.328 36.6295 26.9649 36.6874 27.7719 35.7097C27.7719 35.7097 28.4855 35.1561 28.5438 34.0274V30.1599C29.0477 30.1007 29.3826 29.9969 29.3826 29.9969H29.3742V29.1654H26.4008V29.9969C26.4008 29.9969 26.6757 30.0829 27.103 30.1433V34.0412C27.103 34.0412 27.2294 35.621 25.4226 35.7677C25.4226 35.7677 23.876 35.8583 23.876 34.0273V30.1682C24.2894 30.091 24.5782 29.9969 24.5782 29.9969H24.5838L24.5839 29.1655ZM40.1788 31.6574L40.9591 33.6657H39.4124L40.1784 31.6573L40.1788 31.6574Z" fill="#CC3333"/>
</g>
<defs>
<clipPath id="clip0_1_24546">
<rect width="64" height="64" fill="white" transform="translate(0.200195)"/>
</clipPath>
</defs>
</svg>
