<?xml version="1.0" encoding="UTF-8"?>
<svg xmlns="http://www.w3.org/2000/svg" width="40" height="40" viewBox="0 0 40 40" fill="none">
  <path fill-rule="evenodd" clip-rule="evenodd" d="M7.26645 2.16642C0.961962 2.3726 2.08546 7.06006 2.06596 28.4114C2.06596 31.7572 1.72396 35.391 4.71496 37.095C6.49695 38.1031 8.44095 38.044 22.2604 37.9546C31.9999 37.9045 35.8144 38.8111 37.4104 33.1534C38.0554 29.8485 38.1724 26.4588 37.7554 23.1175C37.3954 5.86546 38.3014 4.16906 34.3744 2.86378C30.7489 1.63886 11.0734 2.03605 7.26645 2.16491V2.16642ZM22.9174 3.61117C15.4534 3.70971 6.11296 4.08416 5.76196 4.14177C3.58996 4.58141 4.04896 11.6581 4.09096 28.4114C4.11796 37.8227 3.17596 35.8777 29.1964 35.9853C30.8554 35.9853 33.2344 36.1521 34.4854 35.0211C35.8785 33.0365 36.532 30.6178 36.3304 28.1931C35.5234 7.84383 38.2999 4.6754 32.9944 3.89163C29.6899 3.40348 26.2639 3.56569 22.9174 3.61117Z" fill="#1D1C19"></path>
  <path fill-rule="evenodd" clip-rule="evenodd" d="M17.3524 16.0818C13.0624 16.8292 14.6764 16.9853 12.9334 15.1676C9.97995 12.1417 5.31946 14.8296 9.05295 20.0506C7.41345 21.8319 6.38146 23.8634 8.28345 25.3763C8.89467 25.8281 9.64837 26.038 10.4023 25.9665C11.1562 25.895 11.8581 25.547 12.3754 24.9883C15.4549 22.6536 13.2184 22.8992 17.8879 23.4662C17.0749 25.1793 15.4279 28.3143 16.2169 30.4307C16.4335 31.0075 16.859 31.4796 17.4071 31.7512C17.9553 32.0229 18.5851 32.0738 19.1689 31.8936C22.6519 31.1887 24.5584 26.7999 26.1784 24.112C27.7145 24.2623 29.2649 24.0984 30.7369 23.6299C34.2694 22.0275 34.3774 14.8614 25.3204 15.0949C24.3168 12.7734 23.1152 10.5446 21.7294 8.43356C18.7414 4.93615 13.2184 7.30566 17.3524 16.0818ZM24.8584 16.9914C23.8384 17.1642 23.9074 16.3198 22.5784 13.8381C21.7084 12.1766 19.9504 8.09852 18.3724 9.00964C16.5664 10.0557 19.3654 15.7482 19.6114 16.4865C19.6641 16.6243 19.6865 16.772 19.677 16.9194C19.6675 17.0668 19.6263 17.2104 19.5564 17.3401C19.4864 17.4698 19.3894 17.5825 19.2719 17.6705C19.1545 17.7584 19.0196 17.8195 18.8764 17.8494C13.6024 18.7666 13.3519 18.9531 12.8944 18.3467C12.2014 17.4325 11.5354 16.2955 10.5844 15.8998C10.4842 15.8575 10.3754 15.8403 10.2672 15.8496C10.159 15.8589 10.0546 15.8944 9.96283 15.9532C9.8711 16.012 9.79476 16.0922 9.74029 16.1872C9.68582 16.2822 9.65483 16.389 9.64995 16.4987C9.841 17.6275 10.3564 18.6745 11.1319 19.5094C12.1249 20.8678 8.23695 22.7734 9.52695 23.7891C10.8169 24.8048 13.0984 20.8829 14.3419 21.0224C21.7864 21.9411 21.1174 21.2528 18.7294 26.295C16.3624 31.0962 19.4584 31.0143 22.1524 27.1122C24.4624 23.7072 24.5539 22.1397 25.6474 22.1473C28.4689 22.1746 30.8824 22.6779 31.0369 19.8672C31.3294 16.479 28.1869 16.4623 24.8584 16.9914Z" fill="#1D1C19"></path>
</svg>
