<?xml version="1.0" encoding="UTF-8"?>
<svg xmlns="http://www.w3.org/2000/svg" width="40" height="40" viewBox="0 0 40 40" fill="none">
  <path fill-rule="evenodd" clip-rule="evenodd" d="M9.01353 11.3073C9.2916 11.3617 9.57246 11.4015 9.85489 11.4266C9.86801 11.5162 9.90866 11.5998 9.97147 11.6663C10.0343 11.7329 10.1163 11.7793 10.2067 11.7995C10.8397 11.9404 11.4445 12.1823 11.9965 12.5155C12.5084 12.8224 12.8971 13.2909 13.098 13.843C13.157 14.0117 13.193 14.1872 13.2051 14.3651V16.0207C13.2004 16.1775 13.251 16.3312 13.3484 16.456C13.4459 16.5809 13.5842 16.6694 13.7405 16.7069C13.8321 16.7287 13.9273 16.7319 14.0202 16.7163C14.1131 16.7007 14.2018 16.6667 14.2806 16.6164C14.3595 16.566 14.427 16.5004 14.4788 16.4236C14.5306 16.3468 14.5657 16.2605 14.5818 16.1699V15.3048C14.6751 15.0055 14.7981 14.7157 14.949 14.4396C15.0753 14.1764 15.2291 13.9264 15.4079 13.6939C15.6698 13.3979 15.9799 13.1459 16.3258 12.9481C16.7054 12.7256 17.0988 12.5264 17.5037 12.3514C17.7331 12.247 18.2838 12.1128 18.6051 11.9338C18.8057 11.8435 18.9795 11.7049 19.1099 11.531C19.232 11.386 19.2908 11.2 19.2736 11.0131C19.2564 10.8262 19.1647 10.6533 19.0181 10.5317C18.8695 10.3908 18.6742 10.3062 18.4674 10.293C18.228 10.3082 17.9878 10.3082 17.7484 10.293L16.9377 10.0842C16.6784 9.99646 16.4276 9.88665 16.1881 9.75606C15.6563 9.54686 15.2175 9.16122 14.949 8.6672C14.6809 8.07245 14.4957 7.44539 14.3983 6.80272C14.3611 6.62747 14.264 6.46971 14.1229 6.35524C13.9546 6.25083 13.2204 6.04201 13.1133 6.7878V7.71258C13.0868 7.99103 13.0304 8.26599 12.945 8.53296C12.8832 8.79591 12.7908 9.05112 12.6696 9.29367C12.5303 9.57463 12.3315 9.82359 12.0863 10.0241C11.841 10.2247 11.555 10.3722 11.247 10.4571C10.5531 10.6345 9.8292 10.67 9.12061 10.5615C9.07039 10.5547 9.01927 10.5575 8.97018 10.5699C8.92109 10.5823 8.87499 10.604 8.8345 10.6338C8.79402 10.6636 8.75995 10.7009 8.73423 10.7435C8.70851 10.7861 8.69166 10.8332 8.68463 10.8822C8.6776 10.9312 8.68053 10.981 8.69325 11.0289C8.70598 11.0768 8.72824 11.1217 8.75878 11.1612C8.78932 11.2007 8.82754 11.2339 8.87125 11.2589C8.91496 11.284 8.9633 11.3005 9.01353 11.3073ZM11.9965 11.1582C12.6794 10.897 13.2475 10.4117 13.6028 9.78589L13.8781 9.45774L14.0617 9.77098C14.4457 10.3347 14.9727 10.792 15.5915 11.0985C15.8082 11.2178 16.0331 11.3225 16.2646 11.4117C15.9243 11.5824 15.5971 11.7768 15.2855 11.9934C14.9215 12.2512 14.6015 12.5633 14.3371 12.9182C14.2316 13.0377 14.1393 13.1677 14.0617 13.306C13.7969 12.7996 13.4145 12.3603 12.945 12.0233C12.5421 11.7386 12.0989 11.5125 11.6294 11.3521L11.9965 11.1582Z" fill="#1D1C19"></path>
  <path fill-rule="evenodd" clip-rule="evenodd" d="M33.9945 22.3152C33.9945 19.869 33.7497 17.7062 33.6885 16.6472C33.6844 16.5906 33.6672 16.5356 33.638 16.4865C33.6088 16.4374 33.5686 16.3954 33.5202 16.3638C33.4516 16.0711 33.3097 15.7995 33.1072 15.5733C32.8255 15.2933 32.4937 15.0658 32.1282 14.9021C31.6433 14.678 31.1282 14.5223 30.5984 14.4397C30.541 14.429 30.4819 14.43 30.4248 14.4425C30.3677 14.4549 30.3139 14.4787 30.2666 14.5122C30.2193 14.5458 30.1796 14.5884 30.1498 14.6375C30.1201 14.6866 30.1009 14.7411 30.0936 14.7976C30.0826 14.8526 30.083 14.9091 30.0949 14.9639C30.1068 15.0186 30.1298 15.0705 30.1626 15.1164C30.1954 15.1623 30.2374 15.2013 30.286 15.2311C30.3345 15.2609 30.3888 15.2809 30.4454 15.2899C30.8214 15.3645 31.1863 15.4847 31.5316 15.6478C31.8541 15.7831 32.1416 15.987 32.3729 16.2445C32.4462 16.3421 32.4977 16.4536 32.524 16.5717C32.5504 16.6899 32.551 16.8122 32.5259 16.9306C32.5174 17.0421 32.4843 17.1504 32.4288 17.2483C32.3734 17.3461 32.2969 17.4311 32.2047 17.4974C31.5877 17.8644 30.8906 18.0842 30.1701 18.1388C29.0184 18.2985 27.8493 18.2985 26.6975 18.1388C26.4752 18.1098 26.2553 18.0649 26.0397 18.0046C25.8209 17.9433 25.6063 17.8686 25.3972 17.7808L24.5865 17.3483C24.4695 17.2824 24.3673 17.1944 24.2858 17.0893C24.2043 16.9843 24.1453 16.8644 24.1123 16.7367C24.1233 16.5802 24.172 16.4284 24.2544 16.2937C24.3368 16.1589 24.4505 16.045 24.5865 15.9611C25.1628 15.5272 25.8239 15.2125 26.5293 15.0363C27.2378 14.8283 27.984 14.7723 28.7168 14.8722C28.766 14.882 28.8167 14.8823 28.8661 14.8729C28.9154 14.8636 28.9623 14.8449 29.0042 14.8179C29.0461 14.7909 29.0822 14.7561 29.1103 14.7155C29.1384 14.6749 29.158 14.6293 29.1681 14.5814C29.1781 14.5334 29.1784 14.4839 29.1688 14.4358C29.1593 14.3877 29.1401 14.342 29.1124 14.3011C29.0847 14.2603 29.049 14.2251 29.0074 14.1977C28.9658 14.1703 28.919 14.1511 28.8698 14.1413C28.029 13.9541 27.1558 13.9541 26.3151 14.1413C25.458 14.2857 24.6374 14.5895 23.8981 15.0363C23.5898 15.2111 23.329 15.4553 23.1374 15.7486C22.9457 16.0418 22.8289 16.3755 22.7967 16.7218C22.7715 17.2303 22.9404 17.7298 23.2709 18.1239C23.072 19.4365 22.8885 21.1071 22.7967 22.882C22.7967 23.7024 22.7967 24.5377 22.7049 25.3879C22.6131 26.2381 22.7049 27.0734 22.7049 27.8938C22.7049 28.7142 22.7049 29.3854 22.812 30.161C22.7337 30.1106 22.652 30.0658 22.5672 30.0268C22.0823 29.8027 21.5673 29.647 21.0374 29.5644C20.9256 29.5527 20.8133 29.5829 20.7234 29.6488C20.6335 29.7148 20.5726 29.8116 20.5532 29.9197C20.5337 30.0278 20.5571 30.139 20.6187 30.2309C20.6802 30.3228 20.7752 30.3884 20.8845 30.4146C21.2604 30.4892 21.6253 30.6094 21.9706 30.7726C22.2955 30.9113 22.5873 31.1145 22.8273 31.3692C22.8898 31.4588 22.9316 31.5606 22.9496 31.6675V31.757C22.9496 31.9807 22.8426 32.2045 22.7967 32.4431L22.6284 32.6221C22.0175 32.99 21.3251 33.2099 20.6091 33.2635C19.4523 33.4232 18.2781 33.4232 17.1213 33.2635C16.8918 33.2635 16.6776 33.174 16.4635 33.1293C16.2489 33.0704 16.0392 32.9956 15.8363 32.9055L15.0102 32.5326C14.8743 32.4641 14.7574 32.3646 14.6695 32.2425C14.5816 32.1205 14.5253 31.9795 14.5054 31.8316C14.5176 31.6733 14.5667 31.5199 14.6489 31.3829C14.731 31.2459 14.8442 31.129 14.9796 31.041C15.567 30.6157 16.2313 30.3019 16.9377 30.1163C17.6434 29.9203 18.3831 29.8695 19.11 29.9671C19.1592 29.9781 19.2102 29.9795 19.2599 29.9712C19.3097 29.9628 19.3573 29.945 19.4 29.9186C19.4427 29.8923 19.4796 29.858 19.5085 29.8176C19.5375 29.7773 19.558 29.7318 19.5689 29.6837C19.592 29.5849 19.5746 29.4811 19.5202 29.3947C19.4659 29.3083 19.379 29.246 19.2782 29.2213C18.4307 29.0492 17.5558 29.0492 16.7082 29.2213C15.8521 29.3774 15.0328 29.6859 14.2912 30.1312C13.983 30.306 13.7221 30.5502 13.5305 30.8434C13.3389 31.1367 13.2221 31.4704 13.1898 31.8167C13.1794 32.1025 13.2315 32.3873 13.3428 32.6519C13.3428 32.8906 13.251 33.1143 13.2204 33.353C13.2053 33.5715 13.2053 33.7908 13.2204 34.0093C13.2037 34.2327 13.2037 34.4571 13.2204 34.6805C13.2746 35.0746 13.3615 35.4637 13.4805 35.8439C13.4104 35.9137 13.3711 36.0074 13.3711 36.105C13.3711 36.2026 13.4104 36.2963 13.4805 36.366C13.8448 36.6816 14.2513 36.9476 14.689 37.1565C15.1103 37.3537 15.5447 37.5231 15.9893 37.6637C16.4896 37.8053 17.0013 37.9051 17.519 37.962C18.0277 38.0102 18.54 38.0102 19.0488 37.962C20.1218 37.8373 21.1603 37.5132 22.1083 37.0074C22.1627 36.9864 22.2122 36.9546 22.2536 36.9142C22.295 36.8738 22.3274 36.8256 22.3489 36.7725C22.3704 36.7193 22.3805 36.6625 22.3786 36.6054C22.3767 36.5483 22.3628 36.4922 22.3377 36.4406C22.3162 36.3875 22.2837 36.3393 22.2422 36.2989C22.2008 36.2586 22.1513 36.2269 22.0968 36.2059C22.0423 36.185 21.984 36.1751 21.9255 36.177C21.8669 36.1789 21.8094 36.1924 21.7564 36.2168C21.0535 36.4407 20.3228 36.5711 19.5842 36.6047C19.0341 36.6419 18.4821 36.6419 17.932 36.6047C17.379 36.5839 16.8275 36.5341 16.2799 36.4555C15.7884 36.4158 15.3018 36.3309 14.8266 36.2019L14.4289 36.0379C14.4289 35.5755 14.5207 35.128 14.5513 34.6656V34.069L15.1326 34.3225C15.389 34.439 15.6551 34.5338 15.9281 34.6059L16.7694 34.7849C18.0719 34.9852 19.3985 34.9852 20.7009 34.7849C21.3565 34.6763 21.9912 34.4701 22.5825 34.1734C22.5749 34.2478 22.5749 34.3227 22.5825 34.3971C22.6743 34.8893 22.7967 35.3666 22.9037 35.8887C22.9076 35.9455 22.923 36.0011 22.949 36.0521C22.9749 36.1032 23.011 36.1487 23.055 36.1861C23.0991 36.2236 23.1503 36.2521 23.2057 36.2702C23.2612 36.2883 23.3197 36.2955 23.378 36.2914C23.4356 36.2896 23.4922 36.2764 23.5445 36.2527C23.5968 36.2289 23.6436 36.1952 23.6822 36.1534C23.7207 36.1116 23.7502 36.0627 23.769 36.0095C23.7877 35.9563 23.7952 35.9 23.791 35.8439C23.791 35.4561 23.8828 35.0982 23.944 34.7253C24.7151 35.1652 25.5509 35.4871 26.4222 35.6799C26.9237 35.7946 27.4368 35.8546 27.9519 35.8589C28.4646 35.8677 28.977 35.8278 29.4817 35.7395C30.7088 35.5436 31.8869 35.1235 32.9542 34.5015C33.006 34.4777 33.0524 34.4439 33.0906 34.4023C33.1287 34.3606 33.158 34.3119 33.1765 34.2591C33.1951 34.2062 33.2025 34.1503 33.1985 34.0946C33.1945 34.0389 33.1791 33.9845 33.1531 33.9347C33.1288 33.8822 33.0936 33.8353 33.0497 33.7967C33.0059 33.7581 32.9543 33.7288 32.8983 33.7106C32.8422 33.6924 32.783 33.6857 32.7241 33.6909C32.6653 33.6961 32.6082 33.7131 32.5565 33.7408C31.5212 34.1189 30.4327 34.3402 29.3287 34.3971H27.9213C27.4624 34.3971 26.9882 34.3971 26.5293 34.2927C25.6304 34.2175 24.7457 34.0269 23.8981 33.7259V33.1293C23.7922 32.392 23.7922 31.644 23.8981 30.9068C24.6771 31.3453 25.5169 31.6718 26.3916 31.8763C27.4424 32.0751 28.5226 32.0751 29.5735 31.8763C30.6407 31.6936 31.6727 31.3515 32.633 30.862C32.633 31.8017 32.633 32.5774 32.7095 33.0845C32.6974 33.147 32.6996 33.2113 32.716 33.2729C32.7323 33.3344 32.7624 33.3917 32.804 33.4406C32.8456 33.4896 32.8978 33.529 32.9568 33.556C33.0158 33.583 33.0802 33.597 33.1455 33.597C33.2107 33.597 33.2751 33.583 33.3341 33.556C33.3931 33.529 33.4453 33.4896 33.4869 33.4406C33.5285 33.3917 33.5586 33.3344 33.5749 33.2729C33.5913 33.2113 33.5935 33.147 33.5814 33.0845C33.6579 32.0404 33.8109 29.8776 33.918 27.4314V25.0001C33.918 24.1797 34.0251 23.1058 33.9945 22.3152ZM24.097 25.2984V22.8075C24.0893 22.6783 24.0893 22.5488 24.097 22.4197C24.8315 22.8174 25.6192 23.1136 26.4375 23.2997C26.939 23.4144 27.4521 23.4744 27.9672 23.4787C28.4799 23.4875 28.9923 23.4476 29.497 23.3594C30.5201 23.1884 31.5105 22.8665 32.4341 22.4047V25.4327C31.4496 25.7761 30.4188 25.9771 29.3746 26.0293H27.9672C27.5083 26.0293 27.0341 26.0293 26.5752 25.9398C25.693 25.8625 24.8244 25.6771 23.9899 25.3879L24.097 25.2984ZM24.77 19.0785C25.0294 19.1835 25.2951 19.2732 25.5655 19.347C25.8426 19.4208 26.1234 19.4806 26.4069 19.526C27.7047 19.7194 29.0252 19.7194 30.3231 19.526C31.2129 19.3945 32.0575 19.0569 32.786 18.5415C32.786 19.3768 32.6636 20.3463 32.6177 21.4203C31.6105 21.7811 30.5533 21.9923 29.4817 22.0468H28.0743C27.6154 22.0468 27.1412 22.0468 26.6822 21.9573C25.8007 21.8677 24.933 21.6774 24.097 21.3905V18.7653L24.77 19.0785ZM29.4817 30.2654H28.0743C27.6154 30.2654 27.1412 30.2654 26.6822 30.1759C25.7619 30.0923 24.8568 29.8917 23.9899 29.5793V26.4022C24.733 26.8115 25.5311 27.1177 26.361 27.3121C26.8649 27.4134 27.3766 27.4733 27.8907 27.4911C28.4034 27.4999 28.9158 27.46 29.4205 27.3717C30.4381 27.1985 31.4231 26.8766 32.3423 26.4171V27.1629C32.3423 28.028 32.3423 28.8633 32.4188 29.6091C31.4772 29.9616 30.4876 30.1777 29.4817 30.2505V30.2654Z" fill="#1D1C19"></path>
  <path fill-rule="evenodd" clip-rule="evenodd" d="M16.6624 27.8341C16.7199 27.8403 16.7781 27.835 16.8334 27.8187C16.8888 27.8023 16.9401 27.7752 16.9845 27.739C17.0288 27.7027 17.0651 27.6581 17.0912 27.6078C17.1174 27.5575 17.1328 27.5026 17.1366 27.4463C17.2722 26.7422 17.354 26.0293 17.3814 25.3133V24.4184C17.3667 24.1237 17.3361 23.8299 17.2896 23.5383C17.1978 22.897 17.0754 22.36 16.9836 22.0468C17.014 21.7797 16.9876 21.5094 16.906 21.2528C16.8244 20.9961 16.6894 20.7586 16.5094 20.5552C16.2271 20.2691 15.889 20.041 15.5151 19.884C15.0342 19.65 14.5176 19.4938 13.9853 19.4216C13.929 19.4108 13.871 19.4113 13.8148 19.4228C13.7587 19.4344 13.7055 19.4568 13.6584 19.4888C13.6113 19.5208 13.5713 19.5618 13.5407 19.6091C13.5102 19.6565 13.4897 19.7094 13.4805 19.7646C13.4694 19.8205 13.4697 19.8779 13.4814 19.9336C13.4931 19.9893 13.5159 20.0422 13.5486 20.0893C13.5812 20.1364 13.6231 20.1768 13.6718 20.2081C13.7205 20.2394 13.7751 20.261 13.8323 20.2718C14.2109 20.3368 14.5771 20.4575 14.9185 20.6297C15.2479 20.7607 15.5412 20.9651 15.7751 21.2264C15.8455 21.3225 15.8954 21.4315 15.9216 21.5468C15.9479 21.6621 15.9501 21.7814 15.9281 21.8976C15.9161 22.0119 15.88 22.1226 15.8221 22.2227C15.7642 22.3228 15.6857 22.4101 15.5916 22.4793C14.9775 22.8406 14.2868 23.0601 13.5723 23.1207C12.4155 23.2808 11.2413 23.2808 10.0844 23.1207C9.84364 23.0599 9.6083 22.9801 9.38076 22.882C9.16653 22.8282 8.95685 22.7584 8.75356 22.6732L7.92749 22.3003C7.7928 22.2321 7.67759 22.1323 7.59215 22.0099C7.50672 21.8876 7.45375 21.7465 7.43797 21.5993C7.44845 21.4423 7.49517 21.2897 7.57464 21.1528C7.65411 21.0159 7.76427 20.8983 7.8969 20.8087C8.48727 20.3916 9.15087 20.0833 9.85498 19.8989C10.5593 19.6957 11.3006 19.6447 12.0272 19.7497C12.0785 19.7607 12.1314 19.7616 12.183 19.7525C12.2347 19.7435 12.2839 19.7245 12.328 19.6968C12.3721 19.669 12.4101 19.6331 12.4399 19.591C12.4696 19.5489 12.4906 19.5014 12.5015 19.4514C12.516 19.3532 12.4928 19.2532 12.4363 19.1706C12.3798 19.088 12.2941 19.0286 12.1955 19.0039C11.3531 18.8317 10.4832 18.8317 9.64082 19.0039C8.78509 19.1531 7.9654 19.4566 7.2238 19.8989C6.91124 20.0687 6.64692 20.3117 6.45464 20.6059C6.26237 20.9001 6.14819 21.2364 6.12238 21.5844C6.10152 21.8535 6.14336 22.1238 6.24476 22.3749C6.12473 23.1062 6.04304 23.843 6 24.5825V26.074C6 26.611 6 27.0436 6.09179 27.5656C6.18357 28.6694 6.33655 29.6688 6.45893 30.4444C6.41015 30.5309 6.39567 30.6319 6.41823 30.7281C6.44079 30.8244 6.49883 30.9092 6.58131 30.9665L6.70369 31.056C6.73635 31.1029 6.77788 31.1434 6.82607 31.1753C7.16332 31.4763 7.53255 31.7413 7.92749 31.9658C8.14063 32.0909 8.37309 32.1815 8.61588 32.2343C8.84825 32.3104 9.0901 32.3556 9.33487 32.3686C9.88907 32.4269 10.4481 32.4269 11.0023 32.3686C11.0664 32.3803 11.1323 32.3781 11.1955 32.3622C11.2586 32.3463 11.3173 32.317 11.3675 32.2764C11.4177 32.2358 11.4581 32.1849 11.4858 32.1274C11.5136 32.0698 11.528 32.007 11.528 31.9434C11.528 31.8799 11.5136 31.8171 11.4858 31.7595C11.4581 31.702 11.4177 31.6511 11.3675 31.6105C11.3173 31.5699 11.2586 31.5406 11.1955 31.5247C11.1323 31.5088 11.0664 31.5066 11.0023 31.5183C10.4363 31.3841 9.97736 31.2051 9.47254 31.0709L8.53939 30.7726L7.37678 30.34V27.6551C8.13344 28.0735 8.94725 28.3849 9.79379 28.5799C10.2966 28.6877 10.8089 28.7476 11.3235 28.7589C11.8362 28.7667 12.3484 28.7267 12.8533 28.6396C13.99 28.4429 15.0857 28.0649 16.0964 27.5209C16.1082 27.5801 16.1329 27.6361 16.169 27.685C16.2051 27.734 16.2517 27.7748 16.3054 27.8045C16.3592 27.8343 16.419 27.8524 16.4806 27.8575C16.5422 27.8626 16.6042 27.8546 16.6624 27.8341ZM12.8839 27.2375H11.4765C11.0023 27.2375 10.5587 27.2375 10.0844 27.1331C9.18675 27.0508 8.30297 26.8604 7.45327 26.5663V23.5234L7.63684 23.6278C7.85008 23.7395 8.0697 23.8391 8.29463 23.9262C8.55276 24.0384 8.81855 24.1331 9.0901 24.2096C9.36203 24.2834 9.63777 24.3431 9.91617 24.3886C11.2192 24.5815 12.5446 24.5815 13.8476 24.3886C14.607 24.2792 15.3357 24.0204 15.9893 23.6278V25.3879C15.9893 25.6713 16.127 26.253 16.1729 26.5961C15.1215 26.9894 14.0095 27.2063 12.8839 27.2375Z" fill="#1D1C19"></path>
  <path fill-rule="evenodd" clip-rule="evenodd" d="M20.7468 5.44539C21.374 5.44539 21.9553 5.68405 22.5825 5.78846H22.7202V5.87796C22.7868 6.53104 22.8993 7.17891 23.0567 7.81702C23.0645 7.93045 23.1163 8.03675 23.2015 8.11432C23.2867 8.19189 23.3991 8.23492 23.5157 8.23466C23.6333 8.22351 23.7425 8.16991 23.8217 8.08438C23.9009 7.99884 23.9445 7.88753 23.944 7.77227C23.944 7.13089 24.1276 6.51934 24.1887 5.86304H24.2805C24.9497 5.80519 25.611 5.68023 26.2539 5.49014C26.3611 5.45882 26.4522 5.38915 26.5089 5.29511C26.5657 5.20106 26.5839 5.08958 26.5599 4.983C26.5421 4.88019 26.488 4.78666 26.407 4.71857C26.326 4.65049 26.2232 4.61213 26.1162 4.61011C25.5126 4.59562 24.9101 4.55081 24.3111 4.47586C24.3111 3.78973 24.2193 3.11852 24.2193 2.43239C24.2261 2.37655 24.2202 2.31996 24.2023 2.26653C24.1843 2.21311 24.1547 2.16412 24.1154 2.12298C24.0761 2.08183 24.0281 2.04951 23.9748 2.02824C23.9214 2.00698 23.8639 1.99728 23.8063 1.99983C23.7037 1.99072 23.6013 2.01934 23.5193 2.08005C23.4372 2.14076 23.3813 2.22919 23.3627 2.32798C23.1449 2.94317 22.9661 3.57082 22.8273 4.20738C22.8273 4.20738 22.8273 4.34162 22.8273 4.40128C22.1273 4.44337 21.4318 4.53812 20.7468 4.68468C20.6959 4.68451 20.6455 4.69466 20.5989 4.71449C20.5522 4.73431 20.5103 4.76338 20.4757 4.79985C20.4412 4.83632 20.4149 4.87939 20.3983 4.92633C20.3818 4.97326 20.3754 5.02304 20.3797 5.0725C20.3831 5.16779 20.4225 5.2585 20.4902 5.32729C20.5579 5.39607 20.6493 5.43812 20.7468 5.44539Z" fill="#1D1C19"></path>
</svg>
