<?xml version="1.0" encoding="UTF-8"?>
<svg xmlns="http://www.w3.org/2000/svg" width="40" height="40" viewBox="0 0 40 40" fill="none">
  <path fill-rule="evenodd" clip-rule="evenodd" d="M30.2436 15.6657L29.7785 15.0436C29.2835 14.5885 28.5784 14.8616 28.6084 15.2864C28.6084 15.4077 28.6084 15.5746 28.7585 15.6808C29.2235 16.136 28.9385 15.9539 29.0885 16.227C29.4935 17.5925 29.5985 20.7785 28.3084 21.8709C28.1993 21.9636 28.1275 22.0935 28.1063 22.236C28.0851 22.3785 28.1161 22.5239 28.1935 22.645C28.2708 22.766 28.3892 22.8544 28.5263 22.8934C28.6635 22.9325 28.8101 22.9196 28.9385 22.8571C29.5269 22.503 30.0337 22.0257 30.4248 21.4572C30.8158 20.8888 31.0821 20.2422 31.2057 19.5611C31.3293 18.88 31.3074 18.18 31.1415 17.5081C30.9755 16.8362 30.6694 16.208 30.2436 15.6657Z" fill="#1D1C19"></path>
  <path fill-rule="evenodd" clip-rule="evenodd" d="M35.179 10.3252C34.999 10.0673 32.7038 7.74598 32.3588 8.73215C31.6237 9.32385 33.3939 9.76383 34.0839 11.0231C34.96 12.6956 35.5485 14.5066 35.8241 16.3787C36.7841 22.0075 34.519 26.4073 30.9036 28.3189C30.8347 28.3538 30.7732 28.4021 30.7227 28.461C30.6722 28.5199 30.6336 28.5882 30.6093 28.6622C30.5849 28.7362 30.5752 28.8143 30.5806 28.892C30.5861 28.9698 30.6066 29.0457 30.6411 29.1154C30.6756 29.1852 30.7233 29.2474 30.7815 29.2984C30.8398 29.3495 30.9074 29.3885 30.9805 29.4132C31.0537 29.4378 31.1309 29.4477 31.2078 29.4421C31.2847 29.4366 31.3597 29.4158 31.4287 29.381C38.7643 25.8763 39.8744 17.0766 35.179 10.3252Z" fill="#1D1C19"></path>
  <path fill-rule="evenodd" clip-rule="evenodd" d="M22.6979 6.97222C19.8477 3.33099 11.642 10.7803 9.61683 15.1043C9.52874 15.0429 9.42378 15.011 9.31681 15.0133C4.99644 14.9374 0.841087 18.3966 2.29621 22.7964C2.58493 23.6929 3.1084 24.4936 3.811 25.1134C4.5136 25.7331 5.36908 26.1488 6.28655 26.3162C7.035 26.4902 7.79899 26.5868 8.56674 26.6045C11.882 26.4376 11.567 26.2859 10.4569 16.8339C10.3669 16.318 9.33181 16.2118 9.48182 17.4408C9.69849 19.8582 9.69849 22.2906 9.48182 24.708C8.94177 24.6322 9.36181 24.708 7.60666 24.5715L6.10653 24.1619C3.87134 23.3274 2.46123 19.3524 6.37656 17.0918C8.98678 15.5746 9.75184 16.9856 10.8769 15.0588C12.7044 12.301 15.1646 10.0314 18.0475 8.44388C18.9326 7.97356 20.7178 7.1998 21.3028 8.03424C22.803 10.128 23.178 26.8624 21.3928 30.8981C20.8828 32.0512 20.1777 32.7339 18.9776 32.4153C17.1475 31.9298 13.5172 29.1382 11.477 26.8169C11.3735 26.6922 11.2253 26.6141 11.065 26.5999C10.9046 26.5857 10.7453 26.6364 10.6219 26.7411C10.4986 26.8457 10.4214 26.9956 10.4073 27.1577C10.3933 27.3199 10.4435 27.4811 10.5469 27.6059C12.2621 29.6062 14.2467 31.3528 16.4424 32.7946C16.9867 33.2602 17.6225 33.6037 18.3078 33.8025C18.993 34.0012 19.7122 34.0507 20.4178 33.9477C22.938 33.2953 23.673 29.8513 24.0331 27.2417C24.4981 23.2364 25.1131 10.1735 22.6979 6.97222Z" fill="#1D1C19"></path>
</svg>
