<?xml version="1.0" encoding="UTF-8"?>
<svg xmlns="http://www.w3.org/2000/svg" width="40" height="40" viewBox="0 0 40 40" fill="none">
  <path fill-rule="evenodd" clip-rule="evenodd" d="M37.971 18.4813C37.971 15.7157 38.0909 6.67409 37.7312 5.07852C37.4614 3.86285 36.3073 4.56186 36.712 5.21528C36.8541 6.46599 36.9092 7.7253 36.8768 8.98386C36.8768 10.9137 36.682 24.97 36.592 26.4744C36.5922 27.3728 36.4505 28.2654 36.1724 29.1184C35.9925 28.9969 35.303 29.2856 34.5836 29.3312C30.7016 29.5439 6.28544 29.8934 4.84655 29.4072L4.05216 29.1184C3.15286 27.5988 4.38191 8.26966 4.6517 6.56772C4.77161 5.8839 5.05639 5.70155 6.15054 5.30646C6.7502 5.11146 7.36793 4.97908 7.99412 4.91136C18.486 4.37951 27.2093 3.68049 33.4745 4.47068C34.019 4.48893 34.5565 4.60202 35.0632 4.80499C35.1065 4.8459 35.1574 4.87776 35.2128 4.89876C35.2682 4.91975 35.3272 4.92947 35.3864 4.92735C35.4455 4.92523 35.5037 4.91132 35.5575 4.88642C35.6114 4.86151 35.6599 4.8261 35.7002 4.7822C35.7406 4.7383 35.772 4.68677 35.7927 4.63055C35.8134 4.57433 35.823 4.51453 35.8209 4.45456C35.8188 4.39459 35.8051 4.33563 35.7805 4.28103C35.756 4.22644 35.7211 4.17728 35.6777 4.13637C35.1763 3.8293 34.6125 3.6422 34.029 3.58932C28.0337 2.556 21.2889 3.13344 7.81426 3.43736C6.20449 3.51875 4.67519 4.17555 3.49759 5.29126C3.15794 6.04855 2.99877 6.87623 3.03295 7.70741C2.55332 12.95 1.669 24.5597 2.13364 28.465C2.38845 30.5317 2.95801 30.638 4.29198 31.0939C6.00066 31.6713 36.0675 31.3522 37.0267 30.3493C38.2707 29.1184 37.971 23.0401 37.971 18.4813Z" fill="#1D1C19"></path>
  <path fill-rule="evenodd" clip-rule="evenodd" d="M12.7155 33.2517C12.3663 33.3273 12.0485 33.51 11.8053 33.775C11.5621 34.0401 11.4053 34.3746 11.3562 34.7331C11.3071 35.0917 11.368 35.4569 11.5308 35.7791C11.6935 36.1013 11.9502 36.3649 12.2658 36.534C12.5194 36.7646 12.8323 36.9174 13.1682 36.9747C13.5041 37.032 13.8491 36.9915 14.1632 36.8577C14.4772 36.724 14.7473 36.5026 14.9421 36.2194C15.1369 35.9361 15.2484 35.6026 15.2635 35.2576C15.4883 33.5253 13.7197 33.0998 12.7155 33.2517Z" fill="#1D1C19"></path>
  <path fill-rule="evenodd" clip-rule="evenodd" d="M25.9802 33.2669C25.6478 33.3368 25.3447 33.509 25.1124 33.7601C24.8802 34.0111 24.73 34.3287 24.6824 34.6695C24.6349 35.0104 24.6923 35.3577 24.8467 35.6643C25.0012 35.9708 25.2453 36.2215 25.5456 36.3821C25.7862 36.6059 26.0851 36.7552 26.4068 36.8121C26.7285 36.8691 27.0596 36.8314 27.3608 36.7034C27.6621 36.5755 27.9208 36.3628 28.1065 36.0904C28.2921 35.818 28.3969 35.4973 28.4084 35.1664C28.5732 33.5101 26.9695 33.115 25.9802 33.2669Z" fill="#1D1C19"></path>
  <path fill-rule="evenodd" clip-rule="evenodd" d="M18.486 34.0419C18.3384 34.2376 18.2365 34.4647 18.1881 34.7061C18.1398 34.9476 18.1461 35.197 18.2068 35.4356C18.2674 35.6741 18.3807 35.8956 18.5381 36.0833C18.6956 36.2709 18.893 36.4199 19.1155 36.5188C21.064 37.385 22.6678 35.1512 21.7535 34.0267C21.5391 33.8081 21.284 33.6349 21.003 33.5171C20.722 33.3994 20.4207 33.3395 20.1166 33.3409C19.8126 33.3423 19.5118 33.405 19.2319 33.5254C18.9519 33.6457 18.6984 33.8213 18.486 34.0419Z" fill="#1D1C19"></path>
  <path fill-rule="evenodd" clip-rule="evenodd" d="M12.8803 12.5701C13.7197 11.8711 13.1501 11.5216 12.5806 11.6128C12.3108 11.5368 11.0817 12.6765 10.5871 13.1323C9.43301 14.1353 7.04985 16.1715 7.12479 17.6911C7.19973 19.2107 10.1225 20.8823 12.1459 22.2499C12.2711 22.3506 12.4307 22.3968 12.5895 22.3783C12.7483 22.3598 12.8934 22.2781 12.9928 22.1511C13.0921 22.0242 13.1377 21.8624 13.1194 21.7014C13.1012 21.5404 13.0206 21.3933 12.8953 21.2925C11.6919 20.2314 10.5556 19.0945 9.49296 17.8887C8.81848 17.0833 9.01333 18.2078 11.6513 14.1049C11.6963 14.0137 12.8204 12.6613 12.8803 12.5701Z" fill="#1D1C19"></path>
  <path fill-rule="evenodd" clip-rule="evenodd" d="M26.6097 22.0523C26.6582 22.1172 26.719 22.1716 26.7886 22.2122C26.8581 22.2529 26.935 22.2789 27.0147 22.2888C27.0944 22.2987 27.1752 22.2923 27.2524 22.27C27.3296 22.2476 27.4016 22.2098 27.4641 22.1587C30.9714 19.773 33.9691 18.5421 31.6159 15.5941C31.1662 15.047 27.4791 11.476 27.0294 11.6128C25.4257 11.3392 26.9545 12.8284 27.9887 14.1049C30.6267 18.2078 30.8065 17.1441 30.147 17.8887C28.2285 20.2136 25.9802 21.2166 26.6097 22.0523Z" fill="#1D1C19"></path>
</svg>
