<?xml version="1.0" encoding="UTF-8"?>
<svg xmlns="http://www.w3.org/2000/svg" width="40" height="40" viewBox="0 0 40 40" fill="none">
  <path fill-rule="evenodd" clip-rule="evenodd" d="M19.0201 9.15136C19.9086 9.08527 20.801 9.08527 21.6895 9.15136C22.3799 9.24112 22.6867 8.08911 22.0117 7.98438C19.635 7.74446 17.2392 7.74446 14.8625 7.98438C14.1261 8.16391 14.3716 8.58283 14.8625 8.92694C16.2024 9.36512 17.6387 9.44265 19.0201 9.15136Z" fill="#1D1C19"></path>
  <path fill-rule="evenodd" clip-rule="evenodd" d="M20.7537 15.3153C20.89 15.2915 21.011 15.2159 21.0902 15.1051C21.1693 14.9942 21.2 14.8573 21.1756 14.7244C21.1512 14.5914 21.0736 14.4734 20.96 14.3963C20.8463 14.3191 20.7059 14.2891 20.5696 14.3129C18.642 14.4732 16.702 14.423 14.7858 14.1633C14.6684 14.2058 14.5671 14.2824 14.4956 14.3827C14.4241 14.483 14.3857 14.6022 14.3857 14.7244C14.3857 14.8465 14.4241 14.9658 14.4956 15.0661C14.5671 15.1664 14.6684 15.2429 14.7858 15.2854C16.7373 15.8106 18.7968 15.821 20.7537 15.3153Z" fill="#1D1C19"></path>
  <path fill-rule="evenodd" clip-rule="evenodd" d="M20.8151 20.1478C20.9314 20.1071 21.0291 20.0275 21.0908 19.9232C21.1525 19.8188 21.1743 19.6965 21.1522 19.578C21.1301 19.4595 21.0656 19.3524 20.9701 19.276C20.8747 19.1995 20.7545 19.1585 20.631 19.1604C18.8853 19.0262 17.1296 19.0915 15.3995 19.3549C15.2977 19.4102 15.2152 19.4939 15.1626 19.5954C15.1101 19.6969 15.09 19.8114 15.1048 19.9241C15.1197 20.0368 15.1689 20.1427 15.246 20.2279C15.3232 20.3131 15.4247 20.3738 15.5376 20.4021C17.2657 20.9762 19.1534 20.8852 20.8151 20.1478Z" fill="#1D1C19"></path>
  <path fill-rule="evenodd" clip-rule="evenodd" d="M21.26 1.99986C21.1216 1.99986 20.9889 2.05345 20.8911 2.14885C20.7933 2.24424 20.7383 2.37363 20.7383 2.50854C20.7383 2.64345 20.7933 2.77283 20.8911 2.86823C20.9889 2.96363 21.1216 3.01722 21.26 3.01722C27.6727 3.10699 26.6142 12.4727 26.0005 18.7415C25.4329 22.9456 24.3589 24.7259 20.2167 24.307C18.5867 24.2587 17.0269 23.6491 15.8137 22.5865C15.4767 22.1969 15.226 21.7436 15.0773 21.2549C14.7927 20.4436 14.5672 19.6137 14.4023 18.7714C14.0088 16.8862 13.8288 14.9647 13.8653 13.0412C13.7966 11.0234 14.0344 9.00671 14.571 7.05675C14.8796 6.08689 15.4495 5.21563 16.2214 4.534C16.9932 3.85236 17.9386 3.38536 18.9587 3.18179C19.0716 3.15477 19.1699 3.08707 19.2337 2.99229C19.2976 2.89751 19.3222 2.78268 19.3028 2.67088C19.2834 2.55908 19.2213 2.4586 19.129 2.38962C19.0367 2.32065 18.9211 2.2883 18.8053 2.29908C17.4423 2.53214 16.1799 3.15169 15.1758 4.08032C14.1717 5.00896 13.4704 6.20552 13.1596 7.52055C11.8863 11.59 12.1317 20.9856 14.5097 23.6936C15.9876 25.0963 17.9418 25.9214 20.0019 26.0126C25.2794 26.5512 26.9977 23.948 27.5807 18.936C28.1023 11.6947 28.716 1.89513 21.26 1.99986Z" fill="#1D1C19"></path>
  <path fill-rule="evenodd" clip-rule="evenodd" d="M30.7411 16.3776C30.7269 16.2427 30.6583 16.1188 30.5504 16.0332C30.4425 15.9477 30.3041 15.9074 30.1658 15.9213C30.0275 15.9352 29.9004 16.0021 29.8127 16.1073C29.7249 16.2125 29.6836 16.3474 29.6979 16.4823C29.8973 18.8911 29.9127 22.4668 28.762 24.5165C26.8904 28.0473 21.751 28.7804 17.8389 28.0025C14.295 27.4339 12.0091 26.2221 10.9045 22.9456C10.0884 20.8481 9.84005 18.5809 10.1834 16.3626C10.3368 15.6445 9.14019 14.7318 9.04814 16.976C8.8923 19.097 9.11552 21.2283 9.70783 23.2747C10.0945 25.0491 11.1036 26.6363 12.5614 27.7631C14.8913 29.2639 17.6239 30.0602 20.4162 30.0521C20.4162 30.1718 19.9867 32.6105 19.956 33.0444C19.8954 34.6226 20.0085 36.2025 20.2935 37.7572C20.342 37.8313 20.4089 37.8923 20.488 37.9346C20.5671 37.9769 20.6559 37.999 20.7461 37.999C20.8363 37.999 20.925 37.9769 21.0041 37.9346C21.0832 37.8923 21.1501 37.8313 21.1987 37.7572C21.4522 36.2161 21.6212 34.6629 21.7049 33.1042C21.7049 32.431 21.5975 31.7727 21.5362 31.0994C21.5362 30.875 21.6589 30.1569 21.4288 30.0521C22.9575 30.0112 24.4656 29.6968 25.8778 29.1245C31.0326 26.8056 31.4315 21.8684 30.7411 16.3776Z" fill="#1D1C19"></path>
</svg>
