<?xml version="1.0" encoding="UTF-8"?>
<svg xmlns="http://www.w3.org/2000/svg" width="40" height="40" viewBox="0 0 40 40" fill="none">
  <path fill-rule="evenodd" clip-rule="evenodd" d="M37.8494 28.3137C37.6537 25.7357 37.128 23.1942 36.2854 20.7531C35.698 19.0351 34.7359 17.4728 33.4703 16.1819C33.0088 15.7623 32.4799 15.4253 31.9063 15.1855C31.1515 14.8956 30.3782 14.6578 29.5916 14.4737C28.1566 14.112 26.6898 13.8948 25.2125 13.8252C23.0855 13.7145 20.9585 13.8252 18.7533 13.8252C17.7211 13.8252 12.4975 14.2206 11.8562 14.3471C10.5382 14.5446 9.24378 14.8786 7.99325 15.3436C7.10214 15.6918 6.29639 16.2315 5.63166 16.9253C4.99252 17.6417 4.46514 18.4524 4.06769 19.3296C3.51387 20.589 3.07416 21.8966 2.75396 23.2364L2.31604 26.3049L2.00325 28.9306V30.797C1.95656 32.8446 2.41336 34.8718 3.33262 36.6968C3.69632 37.4248 4.32397 37.9825 5.08456 38.2537C5.84516 38.5248 6.67991 38.4884 7.41458 38.152C8.00056 37.9018 8.54413 37.5602 9.02547 37.1397C9.91803 36.3342 10.7493 35.4618 11.5122 34.5299C12.1079 34.6946 12.7311 34.7323 13.342 34.6406C14.1635 34.4522 14.9148 34.0307 15.5077 33.4255C16.1005 32.8203 16.5103 32.0566 16.6889 31.2241C17.3771 31.3664 18.0183 31.5404 18.7221 31.6195C19.0083 31.6432 19.296 31.6432 19.5822 31.6195C19.874 31.6352 20.1663 31.6352 20.4581 31.6195C21.0837 31.5246 21.678 31.3981 22.3036 31.2715C22.4496 31.8402 22.6989 32.3766 23.0386 32.8532C23.511 33.4777 24.1403 33.9626 24.861 34.2575C25.5817 34.5524 26.3674 34.6464 27.1362 34.5299C27.5304 34.4528 27.9103 34.314 28.2623 34.1186C28.7824 35.0455 29.4242 35.8968 30.1703 36.6494C30.9204 37.4225 31.7925 38.0639 32.7509 38.5474C33.3561 38.8878 34.0465 39.0417 34.7371 38.9903C35.2714 38.9214 35.7644 38.6637 36.129 38.2627C37.0645 37.1615 37.648 35.7993 37.8025 34.3559C38.0491 32.3504 38.0648 30.3228 37.8494 28.3137ZM18.8315 15.0589C20.9116 15.0589 22.9135 15.0589 24.8997 15.312C24.697 16.4271 24.436 17.5306 24.1178 18.6178C23.938 19.2337 23.5847 19.7833 23.1012 20.1995C22.8628 20.3361 22.5932 20.407 22.3192 20.4051C21.631 20.4051 20.8803 20.4051 20.3486 20.5L17.987 20.7531C17.5288 20.7865 17.0689 20.7865 16.6107 20.7531C16.2204 20.7627 15.8321 20.6928 15.469 20.5475C15.1838 20.3744 14.9358 20.1453 14.7397 19.8736C14.5436 19.6019 14.4034 19.2932 14.3273 18.9658C13.9359 17.7829 13.6583 16.5646 13.4984 15.3278C13.4984 15.2329 13.4984 15.1855 13.3889 15.1064C15.5472 15.2329 15.5159 14.964 18.8315 15.0589ZM15.078 30.5439C14.9894 31.0775 14.7481 31.5731 14.384 31.9695C14.0199 32.3658 13.5489 32.6456 13.0292 32.7742C12.5787 32.852 12.1158 32.8081 11.6874 32.647C11.259 32.4859 10.8803 32.2133 10.5894 31.8568C10.2589 31.5149 10.0296 31.0864 9.92729 30.6196C9.82503 30.1528 9.85394 29.6663 10.0108 29.2153C10.248 28.6525 10.6059 28.15 11.0586 27.7443C11.5341 27.4385 12.0765 27.2556 12.6383 27.2114C13.2001 27.1673 13.7639 27.2634 14.2804 27.4912C14.7034 27.8585 15.0061 28.347 15.1486 28.8921C15.291 29.4373 15.2664 30.0133 15.078 30.5439ZM26.8547 32.6318C26.4043 32.7048 25.9429 32.6587 25.5154 32.4979C25.0879 32.3371 24.7087 32.0672 24.4149 31.7144C24.0871 31.3709 23.8606 30.9415 23.7611 30.4748C23.6617 30.0081 23.6931 29.5226 23.8519 29.0729C25.1656 25.9095 29.9201 26.4156 28.9191 30.4016C28.8256 30.9356 28.5807 31.4307 28.2142 31.8266C27.8477 32.2225 27.3754 32.5022 26.8547 32.6318ZM36.2385 34.2135C36.1736 35.3612 35.7706 36.463 35.0812 37.3769C34.9904 37.4796 34.8797 37.5621 34.7559 37.6192C34.632 37.6764 34.4978 37.707 34.3617 37.7091C33.9977 37.6948 33.6406 37.6032 33.3139 37.4402C32.4685 37.0413 31.6922 36.5073 31.0149 35.8585C30.3218 35.2034 29.7171 34.4589 29.2163 33.6441L29.1225 33.5334C29.8615 32.8189 30.3641 31.8907 30.5613 30.8761C30.7786 30.0192 30.7283 29.1153 30.4175 28.2884C30.1067 27.4614 29.5505 26.7521 28.8253 26.2575C27.6891 25.7536 26.4046 25.7125 25.2392 26.1427C24.0738 26.5729 23.1175 27.4412 22.5694 28.5668C22.3046 29.0527 22.1547 29.5941 22.1315 30.1485C21.5528 30.0694 20.9898 29.9745 20.3955 29.9271C20.109 29.9109 19.8218 29.9109 19.5353 29.9271C19.2491 29.9041 18.9614 29.9041 18.6751 29.9271C18.0488 30.0216 17.4276 30.1483 16.814 30.3067C16.9206 29.5391 16.8114 28.7567 16.4988 28.049C16.1863 27.3413 15.6831 26.7369 15.0467 26.3049C14.7879 26.1575 14.5084 26.0508 14.2178 25.9886C13.622 25.7993 12.9905 25.7537 12.3741 25.8553C11.7576 25.9569 11.1732 26.203 10.6676 26.5738L10.5894 26.6687C9.84719 27.1605 9.23512 27.8284 8.80651 28.6142C8.46645 29.309 8.32994 30.0877 8.41307 30.8584C8.4962 31.6291 8.79551 32.3596 9.2757 32.964C9.59642 33.3938 9.99435 33.7587 10.4487 34.0395C9.88565 34.6248 9.33826 35.2258 8.72831 35.7478C8.20155 36.2458 7.57853 36.6282 6.89847 36.8708C6.47475 37.0398 6.00261 37.0352 5.58218 36.858C5.16174 36.6809 4.82607 36.345 4.64636 35.9218C3.95264 34.3371 3.652 32.605 3.77053 30.8761L3.88001 29.1362L4.19281 26.6055L4.67764 23.79C4.92567 22.5481 5.28155 21.3307 5.74113 20.152C6.03142 19.403 6.42643 18.6998 6.91411 18.0642C7.40077 17.4806 8.00276 17.0065 8.68139 16.6723C9.7982 16.1763 10.9613 15.7948 12.1534 15.5334L12.5288 15.4385V15.5334C12.5408 17.1085 12.7725 18.674 13.2169 20.1837C13.4688 20.9723 13.9827 21.6485 14.6714 22.0976C15.1239 22.3592 15.6239 22.526 16.1415 22.5879C16.8165 22.6746 17.4997 22.6746 18.1747 22.5879L20.6614 22.3032C21.2557 22.1925 22.2254 22.2083 22.9448 22.0185C23.3953 21.9171 23.8142 21.7052 24.1647 21.4016C24.8163 20.7553 25.2675 19.9307 25.4628 19.029C25.6979 17.8689 25.8702 16.6967 25.9789 15.5176C25.9789 15.5176 25.9789 15.5176 25.9789 15.4227C27.0748 15.558 28.1577 15.7855 29.2163 16.1028C29.9086 16.295 30.5878 16.5328 31.2494 16.8146C31.6183 16.9833 31.9566 17.2132 32.2504 17.4948C33.3068 18.5979 34.1034 19.9279 34.5807 21.3858C35.3653 23.6816 35.8644 26.0672 36.0665 28.4877C36.3516 30.3394 36.4251 32.2182 36.2854 34.087L36.2385 34.2135Z" fill="#1D1C19"></path>
  <path fill-rule="evenodd" clip-rule="evenodd" d="M20.896 7.16615C20.2995 7.00784 19.6796 6.95961 19.0661 7.02379C18.4645 7.08852 17.8778 7.25424 17.3301 7.51412C16.136 8.12911 15.1181 9.04413 14.3742 10.1714C14.3321 10.2202 14.2999 10.2769 14.2795 10.3383C14.2591 10.3997 14.2508 10.4646 14.2552 10.5292C14.2595 10.5938 14.2764 10.657 14.3049 10.715C14.3334 10.773 14.3729 10.8248 14.4212 10.8674C14.4694 10.9099 14.5255 10.9425 14.5862 10.9632C14.6469 10.9838 14.711 10.9922 14.7749 10.9878C14.8388 10.9834 14.9013 10.9663 14.9586 10.9375C15.016 10.9087 15.0672 10.8687 15.1093 10.8199C15.9408 10.0836 16.9238 9.54334 17.987 9.2382C18.404 9.08966 18.8332 8.97851 19.2695 8.90604C20.0084 8.78413 20.7658 8.85045 21.473 9.099C22.1803 9.34756 22.8151 9.7705 23.3201 10.3296C23.3711 10.3822 23.4319 10.424 23.4991 10.4525C23.5662 10.481 23.6383 10.4957 23.7111 10.4957C23.7839 10.4957 23.856 10.481 23.9232 10.4525C23.9903 10.424 24.0511 10.3822 24.1021 10.3296C24.1537 10.2794 24.1947 10.2192 24.2227 10.1526C24.2507 10.086 24.2652 10.0144 24.2652 9.94206C24.2652 9.8697 24.2507 9.79807 24.2227 9.73149C24.1947 9.6649 24.1537 9.60472 24.1021 9.55454C23.3464 8.39989 22.2104 7.55362 20.896 7.16615Z" fill="#1D1C19"></path>
  <path fill-rule="evenodd" clip-rule="evenodd" d="M11.1525 7.64066C12.4628 5.69402 14.3613 4.229 16.5638 3.46493C17.8119 2.99615 19.1471 2.8125 20.4737 2.92714C21.3539 2.98333 22.2171 3.19757 23.023 3.55983C23.746 3.88148 24.4159 4.31358 25.0092 4.84102C25.9264 5.72338 26.7638 6.68678 27.5116 7.71975C27.5521 7.7809 27.6046 7.83299 27.6658 7.87279C27.7271 7.91258 27.7958 7.93924 27.8676 7.9511C27.9394 7.96296 28.0129 7.95978 28.0835 7.94175C28.1541 7.92372 28.2203 7.89123 28.2779 7.84628C28.3366 7.80385 28.3865 7.75009 28.4246 7.6881C28.4626 7.62611 28.4882 7.55712 28.4999 7.48508C28.5115 7.41305 28.5089 7.33941 28.4923 7.26838C28.4757 7.19736 28.4453 7.13036 28.403 7.07124C27.7036 5.90985 26.9028 4.8141 26.0102 3.79709C25.3512 3.10046 24.5919 2.50854 23.758 2.04138C22.7879 1.51015 21.7261 1.17189 20.6301 1.0449C19.0276 0.886694 17.4119 1.14815 15.9382 1.80413C13.5119 2.87439 11.5238 4.7566 10.3079 7.13451C10.2751 7.1906 10.2534 7.25268 10.2443 7.31721C10.2352 7.38174 10.2387 7.44746 10.2547 7.51062C10.2706 7.57377 10.2988 7.63313 10.3374 7.68529C10.3761 7.73746 10.4245 7.78142 10.48 7.81465C10.5354 7.84788 10.5968 7.86975 10.6606 7.87899C10.7244 7.88823 10.7894 7.88467 10.8518 7.86852C10.9143 7.85236 10.973 7.82392 11.0246 7.78483C11.0761 7.74573 11.1196 7.69674 11.1525 7.64066Z" fill="#1D1C19"></path>
</svg>
