<?xml version="1.0" encoding="UTF-8"?>
<svg xmlns="http://www.w3.org/2000/svg" width="40" height="40" viewBox="0 0 40 40" fill="none">
  <path fill-rule="evenodd" clip-rule="evenodd" d="M14.5395 11.9695C16.036 10.643 17.7121 9.42094 19.2984 8.19885C19.4042 8.11884 19.4744 8.00076 19.494 7.86987C19.5136 7.73897 19.481 7.60564 19.4031 7.49838C19.3228 7.39297 19.2042 7.32303 19.0728 7.30354C18.9413 7.28404 18.8075 7.31653 18.6998 7.39406C17.0386 8.54163 15.3326 9.70411 13.7014 10.9709C12.5927 11.8076 11.5427 12.7189 10.5588 13.6983L8.80786 15.5463C8.61658 15.7245 8.44131 15.919 8.28408 16.1276C8.22103 16.2149 8.17657 16.3142 8.1534 16.4192C8.13024 16.5243 8.12888 16.633 8.14939 16.7386C8.16442 16.8557 8.20258 16.9686 8.26165 17.0709C8.32072 17.1733 8.39955 17.2629 8.49359 17.3347C8.76869 17.5073 9.0656 17.6426 9.37653 17.7371C9.75544 17.8471 10.1493 17.8974 10.5438 17.8862C11.0377 17.8862 11.5165 17.8117 12.0403 17.7669C13.9409 17.5434 15.8863 17.3049 17.8168 17.2006C19.0825 17.1187 20.3522 17.1187 21.6179 17.2006H26.6312L28.2325 17.2751H28.7264C28.9202 17.2978 29.1161 17.2978 29.31 17.2751C29.4498 17.2359 29.5765 17.1598 29.6765 17.0548C29.7766 16.9499 29.8464 16.8201 29.8787 16.679C29.9128 16.5403 29.9086 16.395 29.8664 16.2586C29.8243 16.1221 29.7457 15.9996 29.6392 15.904C28.8311 15.1439 27.9781 14.4136 27.1401 13.7281C25.883 12.6997 24.596 11.7012 23.324 10.6579C22.7403 10.181 22.2315 9.58488 21.6778 9.06326C21.4121 8.81871 21.1323 8.5898 20.8398 8.37769C20.7729 8.32555 20.6956 8.28818 20.6131 8.26808C20.5305 8.24798 20.4446 8.2456 20.3611 8.26111C20.2776 8.27662 20.1984 8.30965 20.1286 8.35802C20.0589 8.40639 20.0004 8.46898 19.9568 8.54163C19.9136 8.6023 19.8827 8.67085 19.8661 8.74339C19.8494 8.81592 19.8473 8.89101 19.8598 8.96437C19.8723 9.03772 19.8992 9.10791 19.939 9.1709C19.9787 9.2339 20.0306 9.28848 20.0915 9.33152C20.3383 9.51495 20.5687 9.7194 20.7799 9.94257C21.3336 10.494 21.8424 11.1349 22.4261 11.6565C23.6382 12.7444 24.8953 13.7877 26.1075 14.8756L26.7959 15.5165H26.5564L21.6928 15.3675C20.3477 15.2706 18.9973 15.2706 17.6522 15.3675C15.6619 15.4867 13.7014 15.755 11.756 16.0083C11.3669 16.0083 10.9329 16.1574 10.5139 16.1872L11.6662 14.7862C12.5667 13.7911 13.5262 12.8505 14.5395 11.9695Z" fill="#1D1C19"></path>
  <path fill-rule="evenodd" clip-rule="evenodd" d="M37.7952 18.8251C35.958 16.1513 33.8134 13.7005 31.4051 11.5223C29.9764 10.2248 28.4777 9.00582 26.9156 7.87097C24.5361 6.15706 22.0669 4.62199 19.7174 3.05712C19.5228 2.90808 19.044 2.62491 11.5914 8.45221C10.6037 9.2272 9.66086 10.0469 8.71807 10.8964C8.25415 11.3584 7.77527 11.8055 7.31135 12.2973C5.53051 14.1901 3.94421 16.2468 2.14841 18.1395C2.05337 18.2345 2 18.3631 2 18.4972C2 18.6313 2.05337 18.7599 2.14841 18.8549C2.24558 18.9461 2.37406 18.9969 2.50757 18.9969C2.64108 18.9969 2.76955 18.9461 2.86673 18.8549L10.02 12.2973L19.3433 4.2494C19.3433 4.2494 19.3433 4.15998 19.4181 4.10037C21.8724 6.09745 24.3416 8.16904 26.9006 10.2257C28.6216 11.6267 30.3575 12.9829 31.9887 14.4584C33.7687 16.0021 35.4202 17.6867 36.9272 19.4958C36.9654 19.5686 37.019 19.6322 37.0843 19.6823C37.1496 19.7324 37.2251 19.7678 37.3055 19.786C37.3859 19.8041 37.4693 19.8047 37.55 19.7876C37.6306 19.7704 37.7066 19.736 37.7725 19.6868C37.8385 19.6375 37.8929 19.5745 37.932 19.5022C37.9711 19.4299 37.9939 19.35 37.999 19.268C38.004 19.1861 37.991 19.104 37.961 19.0275C37.931 18.951 37.8846 18.882 37.8251 18.8251H37.7952Z" fill="#1D1C19"></path>
  <path fill-rule="evenodd" clip-rule="evenodd" d="M36.0892 19.302C34.2185 19.4212 32.3329 19.4063 30.4623 19.302C27.604 19.1977 24.7905 18.9592 21.9173 18.8102H14.5694C10.903 18.9592 7.25149 19.3318 3.58505 19.7193C3.45273 19.727 3.32865 19.7858 3.23922 19.8832C3.14978 19.9807 3.10205 20.109 3.10617 20.2409C3.11764 20.3767 3.182 20.5026 3.28547 20.5917C3.38894 20.6808 3.52332 20.7261 3.65988 20.7178H4.64757C4.56651 21.2261 4.59251 21.7457 4.7239 22.2434C4.85529 22.7412 5.08921 23.2063 5.41079 23.6091C5.51554 23.7135 5.68016 23.7433 5.79988 23.8327C5.65023 24.5928 5.50058 25.3231 5.41079 26.1427C5.38838 26.5399 5.38838 26.9379 5.41079 27.335C5.42277 27.7341 5.45774 28.1322 5.51554 28.5273C5.6203 29.4662 5.79988 30.3605 5.97946 31.2845C5.65068 31.4319 5.363 31.657 5.14142 31.9402C4.80317 32.432 4.62072 33.0134 4.61764 33.6094C4.64576 34.3236 4.77163 35.0306 4.99177 35.7108C4.99177 35.7108 4.99177 35.8301 5.08156 35.8897L3.49526 35.994C3.42217 35.9814 3.3472 35.9848 3.27559 36.0041C3.20398 36.0234 3.13747 36.058 3.08071 36.1056C3.02396 36.1531 2.97833 36.2125 2.94703 36.2795C2.91573 36.3464 2.89951 36.4194 2.89951 36.4933C2.89951 36.5672 2.91573 36.6401 2.94703 36.7071C2.97833 36.7741 3.02396 36.8334 3.08071 36.881C3.13747 36.9286 3.20398 36.9632 3.27559 36.9825C3.3472 37.0017 3.42217 37.0052 3.49526 36.9925H24.581C28.3672 36.918 32.1683 36.8286 35.9545 36.7839C36.0284 36.7859 36.1021 36.7731 36.171 36.7463C36.2399 36.7195 36.3027 36.6792 36.3557 36.6278C36.4087 36.5764 36.4509 36.5149 36.4796 36.447C36.5084 36.3791 36.5232 36.3062 36.5231 36.2325C36.5233 36.0833 36.466 35.9398 36.3629 35.8317C36.2599 35.7235 36.119 35.6589 35.9694 35.6512H35.2212V35.4873C35.3491 34.6376 35.3491 33.7736 35.2212 32.9239C35.1169 32.4317 34.8542 31.987 34.4729 31.6571C34.2605 31.4719 34.0103 31.3347 33.7396 31.2547C33.6154 31.2391 33.4897 31.2391 33.3655 31.2547C33.4703 30.4499 33.605 29.6749 33.6948 28.8701C33.6948 28.4975 33.7845 28.1249 33.7995 27.7523C33.8145 27.3797 33.7995 27.0221 33.7995 26.6495C33.7995 25.9639 33.6798 25.3081 33.59 24.6524H33.9641C34.3637 24.5355 34.7218 24.3082 34.9967 23.9966C35.3452 23.5149 35.5572 22.9486 35.6103 22.3572C35.6458 21.7799 35.6207 21.2005 35.5355 20.6284H36.1341C36.2082 20.6229 36.2806 20.6025 36.3467 20.5685C36.4128 20.5345 36.4713 20.4876 36.5188 20.4305C36.5663 20.3735 36.6018 20.3075 36.6231 20.2365C36.6444 20.1656 36.6511 20.091 36.6429 20.0174C36.6694 19.9328 36.6751 19.8431 36.6594 19.7558C36.6438 19.6686 36.6072 19.5864 36.5529 19.5162C36.4986 19.446 36.4281 19.3899 36.3473 19.3526C36.2666 19.3153 36.1781 19.298 36.0892 19.302ZM22.8152 20.7924C22.8114 21.1017 22.7864 21.4104 22.7403 21.7164C22.697 22.0975 22.5286 22.4537 22.2614 22.7298C22.1567 22.8342 21.9921 22.7298 21.8275 22.8193C21.3793 22.8579 20.9287 22.8579 20.4806 22.8193C19.9304 22.8318 19.38 22.8019 18.8344 22.7298C18.5576 22.7096 18.2878 22.6335 18.0413 22.5063C17.5996 22.0368 17.349 21.4207 17.3379 20.7775H21.8275L22.8152 20.7924ZM21.0044 28.7211C21.0792 29.511 21.2289 30.2114 21.3336 31.046H18.8943V30.9119C18.8943 30.0624 19.029 29.2278 19.0739 28.3783V26.2322C19.0739 25.8745 18.9242 25.1144 18.8344 24.563C19.3678 24.6613 19.9083 24.7162 20.4507 24.7269H21.1241C21.0343 25.3827 20.9296 26.0235 20.8996 26.6793C20.8773 27.0316 20.8773 27.3851 20.8996 27.7374C20.9146 28.0206 20.9595 28.3783 21.0044 28.7211ZM10.9778 20.6582H11.2921C11.2912 21.0029 11.2612 21.3469 11.2023 21.6866C11.1589 22.0676 10.9906 22.4238 10.7234 22.7C10.6186 22.8043 10.454 22.7 10.2894 22.7894C9.84629 22.8282 9.40062 22.8282 8.95751 22.7894C8.40231 22.8024 7.84695 22.7725 7.29639 22.7C7.01179 22.6748 6.73607 22.5883 6.48827 22.4467C6.04082 21.993 5.78851 21.3835 5.78492 20.7477C7.5059 20.7029 9.22688 20.6582 10.9778 20.6582ZM7.25149 26.1875C7.25149 25.6062 7.10184 25.0399 7.01205 24.4735C7.63148 24.6072 8.26386 24.6722 8.89765 24.6673H10.0799C9.97513 25.2932 9.85541 25.9341 9.79555 26.575C9.77315 26.977 9.77315 27.3801 9.79555 27.7821V28.9893C9.79555 29.7047 9.9452 30.4797 10.02 31.1056H9.72073C8.84407 31.0385 7.96353 31.0385 7.08688 31.1056C7.08688 30.271 7.2066 29.4513 7.25149 28.6167V27.4394C7.25149 27.037 7.28142 26.575 7.25149 26.1875ZM5.9196 35.5618C5.88482 35.0656 5.88482 34.5676 5.9196 34.0715C5.94707 33.6994 6.10001 33.3475 6.35359 33.0729C6.59303 32.8494 6.93722 32.8941 7.32632 32.8643C8.11946 32.8643 9.01737 32.8643 9.67583 32.9388H10.7533C10.9729 33.0979 11.127 33.3309 11.1873 33.5945C11.3024 34.2197 11.3724 34.8522 11.3968 35.4873C9.54115 35.6065 7.68548 35.7108 5.84478 35.8748C5.9004 35.7802 5.92645 35.6712 5.9196 35.5618ZM14.7939 35.2041C14.0456 35.2041 13.2974 35.3233 12.5491 35.3681C12.6615 34.5372 12.6615 33.6951 12.5491 32.8643C12.4448 32.3721 12.1821 31.9273 11.8009 31.5975C11.652 31.4781 11.4854 31.3826 11.307 31.3143C11.4267 30.5244 11.5465 29.8239 11.6063 28.9446V26.5302C11.6063 25.7553 11.3968 25.0399 11.2771 24.2351C11.5151 24.1424 11.7334 24.0059 11.9206 23.8327C12.2691 23.351 12.481 22.7847 12.5342 22.1933C12.5775 21.6975 12.5775 21.1988 12.5342 20.7029H16.2156C16.1194 21.2252 16.1378 21.762 16.2696 22.2765C16.4013 22.791 16.6432 23.271 16.9788 23.6837C17.182 23.8426 17.4093 23.9684 17.6522 24.0562C17.4706 24.7613 17.3406 25.4786 17.2631 26.2024C17.2333 26.5694 17.2333 26.9382 17.2631 27.3052C17.2808 27.6798 17.3208 28.0531 17.3828 28.423C17.5027 29.2805 17.6675 30.1312 17.8767 30.9715C17.8767 30.9715 17.8767 31.0758 17.8767 31.1354C17.3442 31.2421 16.864 31.5259 16.5149 31.9402C16.1766 32.432 15.9942 33.0134 15.9911 33.6094C16.0026 34.1126 16.0729 34.6128 16.2006 35.0998L14.7939 35.2041ZM17.293 35.2041C17.2709 34.8269 17.2709 34.4487 17.293 34.0715C17.3144 33.6979 17.4682 33.3441 17.727 33.0729C17.9665 32.8494 18.3107 32.8941 18.6998 32.8643C19.4929 32.8643 20.3908 32.8643 21.0493 32.9388H22.1268C22.3463 33.0979 22.5005 33.3309 22.5607 33.5945C22.6706 34.1193 22.7307 34.6532 22.7403 35.1892H19.7473L17.293 35.2041ZM23.9375 35.2041C24.0495 34.4431 24.0495 33.67 23.9375 32.909C23.8332 32.4168 23.5705 31.9721 23.1893 31.6422C22.9925 31.4624 22.757 31.3299 22.5009 31.2547C22.6056 30.4201 22.7403 29.5855 22.8002 28.736V27.6629C22.8002 27.3052 22.8002 26.9475 22.7104 26.5899C22.6056 25.9043 22.4261 25.2485 22.2614 24.5779H22.4261C22.8317 24.4652 23.1957 24.2373 23.4736 23.9221C23.8237 23.4424 24.0311 22.8743 24.0722 22.2827C24.121 21.7871 24.121 21.288 24.0722 20.7924H27.7836C27.6665 21.6488 27.8403 22.5196 28.2774 23.2664C28.1113 24.1332 27.9963 25.0091 27.9332 25.8894V27.1413C27.9332 27.5586 27.9332 27.961 28.023 28.3783C28.1277 29.347 28.2924 30.2859 28.3971 31.2547C28.3971 31.3292 28.3971 31.3739 28.4869 31.4484C28.2598 31.576 28.0612 31.7484 27.9033 31.9551C27.565 32.4469 27.3826 33.0283 27.3795 33.6243C27.3903 34.1825 27.4656 34.7376 27.604 35.2786L24.611 35.1594L23.9375 35.2041ZM33.9342 33.5945C34.0493 34.2247 34.1193 34.8622 34.1437 35.5022C34.1437 35.5022 34.1437 35.5022 34.1437 35.6065L28.6066 35.3681C28.5771 34.9364 28.5771 34.5032 28.6066 34.0715C28.628 33.6979 28.7818 33.3441 29.0406 33.0729C29.2801 32.8494 29.6243 32.8941 30.0133 32.8643C30.8065 32.8643 31.7044 32.8643 32.3629 32.9388H33.4403C33.6737 33.0764 33.8491 33.2934 33.9342 33.5498V33.5945ZM31.9289 28.7062C31.9289 29.4812 32.0785 30.1965 32.1833 31.0013C31.293 30.9048 30.3948 30.9048 29.5045 31.0013C29.6093 30.1071 29.714 29.2129 29.7739 28.3038V27.0668C29.7739 26.6644 29.7739 26.2322 29.6991 25.8298C29.6243 25.4274 29.5345 24.6971 29.4297 24.1457C29.5944 24.2572 29.7699 24.352 29.9535 24.4288C30.6165 24.5765 31.2945 24.6465 31.9738 24.6375H32.3629C32.2282 25.2187 32.0785 25.8149 31.9738 26.4259C31.9738 26.8035 31.9438 27.1761 31.884 27.5437C31.9289 27.9461 31.9289 28.3187 31.9289 28.7062ZM34.2934 21.6866C34.2365 22.0637 34.0701 22.416 33.8145 22.7C33.7097 22.8043 33.5301 22.7 33.3655 22.7894C32.9224 22.8282 32.4767 22.8282 32.0336 22.7894C31.4977 22.789 30.9624 22.7492 30.4324 22.6702C30.1603 22.65 29.8953 22.5739 29.6542 22.4467C29.4312 22.2314 29.2531 21.9745 29.1298 21.6907C29.0066 21.4068 28.9407 21.1016 28.9359 20.7924H30.4324C31.7493 20.7924 33.0662 20.6433 34.3831 20.5241C34.3928 20.9125 34.3728 21.3012 34.3233 21.6866H34.2934Z" fill="#1D1C19"></path>
</svg>
