<?xml version="1.0" encoding="UTF-8"?>
<svg xmlns="http://www.w3.org/2000/svg" width="40" height="40" viewBox="0 0 40 40" fill="none">
  <path fill-rule="evenodd" clip-rule="evenodd" d="M37.8275 26.1739C37.0028 24.5593 28.291 25.1518 26.5966 25.6851C25.6819 25.9665 25.592 27.0035 25.3221 27.8478C24.5124 28.4848 17.345 28.4107 16.3254 27.8478C16.1155 27.1812 16.1454 26.5146 15.6356 26.011C14.8709 25.2555 13.3565 25.537 8.30331 25.611C6.8845 25.4842 5.45563 25.519 4.04487 25.7147C2.92028 25.9369 1.91565 26.8405 2.00562 27.8034C2.47795 29.7294 3.44943 31.5008 4.82458 32.9436C7.64355 34.7805 11.887 33.625 15.1258 33.8028C28.0661 33.5213 27.7962 33.2547 29.4306 33.4917C29.4897 33.5014 29.5501 33.4996 29.6084 33.4862C29.6668 33.4729 29.7219 33.4483 29.7706 33.4139C29.8193 33.3795 29.8608 33.336 29.8925 33.2858C29.9242 33.2356 29.9455 33.1797 29.9554 33.1214C29.9652 33.063 29.9633 33.0033 29.9498 32.9457C29.9363 32.888 29.9115 32.8336 29.8766 32.7854C29.8418 32.7373 29.7978 32.6964 29.747 32.6651C29.6961 32.6338 29.6396 32.6126 29.5805 32.6029C27.9911 32.3363 28.156 32.6029 15.2158 32.6029C12.2169 32.3511 7.89846 33.2103 5.70926 31.7141C4.80393 30.55 4.12749 29.2285 3.71499 27.8182C4.37475 26.9294 6.99879 27.3738 8.21334 27.3738L13.0716 27.2257C13.3265 27.2257 14.0762 27.5812 14.3311 27.4034C14.496 27.996 14.541 28.8107 15.2458 29.2699C16.5803 30.1439 24.9922 30.3957 26.4167 28.9588C26.8965 28.4848 26.8515 27.759 27.1064 27.122C28.7258 26.6183 34.9336 26.2036 36.7179 26.8553C37.1228 27.8775 35.2185 31.1512 34.3788 31.9511C33.9589 32.3511 32.0546 32.3363 31.3799 32.3363C31.2578 32.3569 31.147 32.4195 31.0671 32.513C30.9873 32.6066 30.9434 32.725 30.9434 32.8473C30.9434 32.9697 30.9873 33.0881 31.0671 33.1817C31.147 33.2752 31.2578 33.3378 31.3799 33.3584C32.5494 33.3584 34.3788 33.4325 35.0685 32.7511C36.493 31.5512 38.6222 27.7441 37.8275 26.1739Z" fill="#1D1C19"></path>
  <path fill-rule="evenodd" clip-rule="evenodd" d="M5.6043 24.3667C5.6381 24.4846 5.71791 24.5843 5.82617 24.6441C5.93444 24.7038 6.06228 24.7186 6.18159 24.6852C6.30089 24.6518 6.40188 24.5729 6.46234 24.466C6.5228 24.359 6.53777 24.2327 6.50397 24.1149C5.67595 20.1274 5.254 16.0681 5.24443 11.9976C5.36439 10.1607 6.09912 9.43486 7.11874 9.10896C11.4222 7.62763 27.4963 7.02028 32.6094 8.79788C33.809 9.19784 34.2138 9.21266 34.5437 10.4866C34.657 14.441 34.5268 18.3985 34.1539 22.3373C34.1539 22.6484 33.9589 22.9298 34.0639 22.9594C34.0153 23.0668 34.0063 23.1875 34.0383 23.3008C34.0704 23.414 34.1416 23.5126 34.2395 23.5794C34.3374 23.6462 34.4559 23.6771 34.5745 23.6667C34.693 23.6563 34.8041 23.6052 34.8886 23.5223C35.4284 23.0039 36.2081 11.4347 35.9082 10.1903C35.5034 8.35348 34.7236 7.99796 33.1192 7.40543C27.2864 5.19824 11.872 5.8204 6.57894 7.68688C5.7179 8.00438 4.9861 8.59222 4.49584 9.3602C4.00558 10.1282 3.78394 11.0339 3.86494 11.9383C4.02388 16.128 4.60656 20.2915 5.6043 24.3667Z" fill="#1D1C19"></path>
</svg>
