<?xml version="1.0" encoding="UTF-8"?>
<svg xmlns="http://www.w3.org/2000/svg" width="40" height="40" viewBox="0 0 40 40" fill="none">
  <path fill-rule="evenodd" clip-rule="evenodd" d="M22.5078 21.4696C22.7328 20.1283 22.9728 18.7722 23.1228 17.4161H23.4379C23.5579 17.4161 24.0229 17.593 24.5329 17.6962C25.523 17.4014 25.478 16.9592 24.7579 16.4286C24.2625 16.3206 23.7618 16.237 23.2579 16.178C23.339 15.0319 23.4791 13.8905 23.6779 12.7584C23.5879 11.2844 22.4928 11.535 22.0728 12.7584C22.0813 12.8515 22.0813 12.9453 22.0728 13.0384C21.8928 14.026 21.7128 15.0283 21.5628 15.9864C19.8677 15.8979 20.1827 15.9864 16.4925 15.9864C16.4925 15.6916 16.1325 14.0407 15.9225 12.8616C15.7125 11.6824 14.7375 11.6382 14.6474 12.8616C14.6474 13.5985 14.6474 14.5124 14.7675 15.9864C13.7624 15.9864 13.4474 15.9864 10.4172 16.2222C10.2569 15.1281 10.0265 14.045 9.72721 12.9795C9.12719 11.9035 8.00213 12.272 8.00213 13.1269C8.25714 14.4535 8.12214 13.967 8.52716 16.4728C7.73639 16.5874 6.93281 16.5874 6.14204 16.4728C4.64197 16.6055 4.44696 17.6815 6.45706 17.8583H8.75217C9.12719 20.202 9.17219 20.5704 9.4572 21.9412C8.64361 22.1323 7.79567 22.1323 6.98208 21.9412C6.32205 21.6612 5.03199 23.4152 9.75722 23.1057C9.93355 23.7699 10.1851 24.4127 10.5073 25.0218C10.5795 25.1314 10.6903 25.2109 10.8184 25.2452C10.9466 25.2796 11.0831 25.2663 11.2019 25.2079C11.3208 25.1495 11.4135 25.0502 11.4625 24.9288C11.5114 24.8075 11.5131 24.6727 11.4673 24.5502C11.2559 24.0802 11.1096 23.5844 11.0323 23.0762C12.3073 22.9878 12.9374 23.0762 16.0125 22.973C16.2639 23.6156 16.4449 24.2826 16.5525 24.9629C16.5525 25.1036 16.6094 25.2386 16.7107 25.3381C16.812 25.4376 16.9493 25.4935 17.0926 25.4935C17.2358 25.4935 17.3731 25.4376 17.4744 25.3381C17.5757 25.2386 17.6326 25.1036 17.6326 24.9629C17.6269 24.2824 17.5414 23.6048 17.3776 22.9435H20.8577C20.5877 26.26 22.8678 25.0071 22.0578 24.2259C21.8928 24.0343 22.0578 23.0909 22.1628 22.8404C23.1078 22.7077 23.4679 22.7224 23.9329 22.634C24.3979 22.5456 24.7129 21.4991 24.1429 21.4548C23.5729 21.4106 23.4079 21.4696 22.5078 21.4696ZM10.8523 21.6907C10.8523 21.2337 10.6123 18.7427 10.5223 17.9026H14.8725C14.9933 19.0372 15.2039 20.1608 15.5025 21.2632C13.9457 21.3322 12.3936 21.4798 10.8523 21.7054V21.6907ZM21.0227 21.4696C19.7477 21.4696 18.3976 21.3074 17.1076 21.2485C17.0326 20.6294 16.7475 18.3005 16.6725 17.7404C18.8326 17.6078 20.0327 17.4604 21.3078 17.4161C21.1278 19.4355 21.0377 21.4696 21.0227 21.4696Z" fill="#1D1C19"></path>
  <path fill-rule="evenodd" clip-rule="evenodd" d="M36.1885 3.26598C34.5474 2.93812 32.8586 2.91313 31.2082 3.19228C28.8381 3.91453 29.7082 2.3816 27.368 9.64829C26.378 13.3332 24.0529 25.184 24.3679 25.6557C10.2672 25.8768 10.0572 26.1568 6.26205 25.0808C6.36705 24.786 6.00704 23.9901 5.97704 23.8574C3.96694 14.7925 3.39692 13.9965 3.95194 12.3899C11.0354 11.2325 18.2075 10.6802 25.388 10.739C25.4382 10.7787 25.4959 10.8083 25.5577 10.8261C25.6196 10.8438 25.6844 10.8495 25.7485 10.8426C25.8126 10.8358 25.8747 10.8166 25.9312 10.7862C25.9877 10.7558 26.0376 10.7147 26.078 10.6653C26.1184 10.616 26.1485 10.5593 26.1665 10.4985C26.1846 10.4377 26.1904 10.374 26.1834 10.3111C26.1764 10.2481 26.1569 10.1871 26.126 10.1316C26.095 10.076 26.0532 10.027 26.003 9.98731C25.1329 9.3535 8.81217 10.1052 8.94718 10.1052C6.97026 9.90437 4.97287 10.1566 3.1119 10.8422C1.53683 11.5497 2.00185 14.9546 2.31686 16.5612C3.50192 20.9095 3.0669 19.1849 4.23695 24.1522C4.32696 24.6091 4.34196 25.7588 4.79198 26.1863C7.02709 28.2941 18.2926 26.7611 24.0829 26.7317C23.7679 27.7782 23.6479 28.412 22.7328 28.6626C21.7354 28.763 20.7301 28.763 19.7327 28.6626C15.3975 28.8689 11.2273 27.9845 4.73198 28.6626C4.60467 28.6528 4.47862 28.6931 4.38157 28.7747C4.28451 28.8562 4.2244 28.9723 4.21445 29.0974C4.20451 29.2225 4.24554 29.3463 4.32853 29.4417C4.41152 29.5371 4.52966 29.5961 4.65697 29.6059C4.15924 29.7997 3.70846 30.094 3.33378 30.4698C2.9591 30.8456 2.66887 31.2945 2.48187 31.7874C1.73184 33.8215 3.80193 36.342 5.88703 36.8726C10.0422 37.9191 13.1924 32.2443 10.0272 29.8417C10.4889 29.8507 10.9496 29.8852 11.4073 29.9449C14.3773 30.4623 17.4051 30.5813 20.4077 30.2987C17.6026 32.9371 20.4977 36.8431 24.1129 36.4452C28.0881 35.9882 27.8331 29.7386 24.4279 29.1785C25.433 27.9993 24.9979 26.8791 26.588 21.0274C27.7298 16.6952 28.6362 12.3064 29.3031 7.87952C30.0232 7.70265 34.8684 8.14484 35.8884 8.08588C36.452 7.9949 36.9674 7.71852 37.3502 7.30204C37.733 6.88556 37.9604 6.35367 37.9953 5.79353C38.0302 5.2334 37.8704 4.67824 37.5421 4.21902C37.2138 3.7598 36.7365 3.42377 36.1885 3.26598ZM9.4122 33.5856C9.20467 34.038 8.87796 34.4277 8.46583 34.7144C8.0537 35.0011 7.57112 35.1745 7.06797 35.2165C6.56482 35.2586 6.05936 35.1679 5.60385 34.9537C5.14833 34.7396 4.7593 34.4097 4.47697 33.9984C4.21999 33.7708 4.02197 33.4862 3.89935 33.1683C3.77673 32.8505 3.73305 32.5084 3.77193 32.1706C3.88357 31.6832 4.15178 31.2439 4.53697 30.9177C7.13209 28.6626 11.0023 30.6672 9.4122 33.5856ZM25.568 32.2001C26.018 36.3272 20.4677 34.6616 20.9477 32.2001C21.3378 30.225 25.2079 28.9426 25.568 32.2001ZM35.7234 6.34659C34.7034 6.47925 31.1482 6.50873 29.5281 6.71508C29.6236 5.9462 29.8047 5.18994 30.0682 4.4599C30.2182 4.681 31.1032 4.35672 31.4782 4.28302C32.9386 4.26639 34.3922 4.48038 35.7834 4.91683C36.3835 5.09371 36.3085 6.28763 35.7234 6.34659Z" fill="#1D1C19"></path>
</svg>
