<?xml version="1.0" encoding="UTF-8"?>
<svg xmlns="http://www.w3.org/2000/svg" width="40" height="40" viewBox="0 0 40 40" fill="none">
  <path fill-rule="evenodd" clip-rule="evenodd" d="M10.1858 17.6075C13.2522 18.727 16.5285 19.1724 19.7868 18.9128C22.2028 18.988 24.6194 18.7839 26.9875 18.3046C28.1547 18.0986 29.2863 17.729 30.3479 17.207C30.408 17.1758 30.4613 17.1332 30.5047 17.0817C30.5482 17.0302 30.5809 16.9707 30.6011 16.9066C30.6213 16.8426 30.6286 16.7752 30.6224 16.7084C30.6163 16.6416 30.5969 16.5766 30.5654 16.5172C30.5339 16.4578 30.4909 16.4051 30.4387 16.3621C30.3866 16.3192 30.3265 16.2868 30.2617 16.2668C30.1969 16.2468 30.1288 16.2397 30.0612 16.2457C29.9936 16.2518 29.9279 16.2709 29.8678 16.3021C27.2576 17.5926 20.8669 17.2366 19.7868 17.207C17.3528 17.37 14.9082 17.2706 12.496 16.9103C11.2574 16.7807 10.0635 16.3804 9.00063 15.7384C8.20554 15.7384 8.20554 16.4653 9.00063 17.0141C9.49568 17.296 9.16565 17.1476 10.1858 17.6075Z" fill="#1D1C19"></path>
  <path fill-rule="evenodd" clip-rule="evenodd" d="M33.2282 11.0955C33.2282 10.9617 33.1745 10.8334 33.0788 10.7389C32.9832 10.6443 32.8534 10.5911 32.7181 10.5911C32.5829 10.5911 32.4531 10.6443 32.3575 10.7389C32.2618 10.8334 32.2081 10.9617 32.2081 11.0955C32.3281 22.0724 32.4181 22.6509 32.0581 24.0898C31.9222 24.826 31.6008 25.5164 31.1236 26.0972C30.6464 26.6779 30.0287 27.1304 29.3278 27.4125C26.3114 28.6146 23.1107 29.3017 19.8618 29.4448C17.6923 29.5504 15.5189 29.3405 13.4111 28.8217C11.944 28.5395 10.5214 28.0656 9.18065 27.4125C7.48547 26.3297 7.8305 11.8817 7.89051 9.61211C9.9469 11.4878 12.5981 12.5994 15.3913 12.7568C19.7946 13.056 24.2185 12.706 28.5177 11.7185C31.728 10.784 34.6834 8.75175 32.6881 6.08169C32.1416 5.40448 31.46 4.84564 30.6858 4.4399C29.9116 4.03416 29.0613 3.79019 28.1877 3.72313C28.0655 3.74377 27.9547 3.80646 27.8748 3.90012C27.7949 3.99378 27.751 4.11236 27.751 4.2349C27.751 4.35743 27.7949 4.47601 27.8748 4.56967C27.9547 4.66333 28.0655 4.72602 28.1877 4.74666C28.8744 4.81173 29.5407 5.01349 30.1466 5.33978C30.7524 5.66608 31.2853 6.11018 31.713 6.64537C34.7134 11.0955 16.6214 12.3415 11.5509 9.95328C9.7207 9.10776 7.90551 8.12874 9.30066 6.64537C13.6061 3.67863 19.1867 4.12364 24.4973 4.28681C26.2675 4.40548 26.6425 4.53899 26.7475 4.04947C26.8525 3.55996 26.1925 3.45613 25.6374 3.39679C25.4574 3.39679 19.6368 2.92211 16.9515 3.01112C14.8679 3.02814 12.8009 3.3788 10.8308 4.04947C9.12064 4.74666 6.8854 5.87402 7.09542 7.87657C6.72038 8.88526 6.99041 14.5072 6.91541 15.5901C6.8404 16.6729 6.79539 18.72 6.8254 20.5445C6.8254 24.3865 6.8254 26.8489 8.62559 28.5399C9.88815 29.5281 11.3957 30.1633 12.9911 30.3793C14.8013 30.8321 16.6595 31.0711 18.5266 31.0913C18.3105 32.2854 18.3981 33.5139 18.7817 34.6662C18.8717 34.9629 18.9317 34.859 18.5866 34.8887L13.1711 35.4672C13.0639 35.4865 12.967 35.5423 12.8972 35.625C12.8274 35.7077 12.7892 35.812 12.7892 35.9197C12.7892 36.0273 12.8274 36.1316 12.8972 36.2143C12.967 36.297 13.0639 36.3528 13.1711 36.3721C17.6358 36.7102 22.121 36.6903 26.5825 36.3127C26.7046 36.2921 26.8155 36.2294 26.8954 36.1358C26.9753 36.0421 27.0191 35.9235 27.0191 35.801C27.0191 35.6785 26.9753 35.5599 26.8954 35.4662C26.8155 35.3726 26.7046 35.3099 26.5825 35.2892C24.1372 35.1557 22.5021 34.9332 20.1168 34.9332C20.0418 34.4585 20.0118 34.9332 20.2068 33.4498C20.2181 32.8372 20.1112 32.228 19.8918 31.655C19.7118 31.0616 19.6668 31.1655 19.8918 31.1655C23.3697 30.9841 26.7855 30.18 29.9729 28.7921C30.8754 28.4083 31.6689 27.8113 32.2835 27.0535C32.8982 26.2957 33.3153 25.4003 33.4982 24.4458C33.8133 22.6658 33.6482 21.4791 33.2282 11.0955Z" fill="#1D1C19"></path>
  <path fill-rule="evenodd" clip-rule="evenodd" d="M23.8972 25.3358C26.4062 25.0948 28.8247 24.2825 30.963 22.9624C31.0211 22.9283 31.0718 22.8833 31.1123 22.8298C31.1528 22.7763 31.1823 22.7154 31.199 22.6507C31.2157 22.586 31.2194 22.5186 31.2098 22.4525C31.2001 22.3863 31.1775 22.3227 31.143 22.2652C31.1085 22.2078 31.0629 22.1576 31.0088 22.1175C30.9547 22.0775 30.8932 22.0484 30.8277 22.0319C30.7623 22.0153 30.6941 22.0117 30.6272 22.0212C30.5604 22.0307 30.496 22.0532 30.4379 22.0872C28.3909 23.1769 26.1158 23.7812 23.7922 23.8524C16.1864 24.1788 13.2911 23.6299 9.06063 22.0131C8.35556 21.8499 8.34056 22.5768 9.06063 23.0811C14.5962 25.8253 17.7616 25.8253 23.8972 25.3358Z" fill="#1D1C19"></path>
  <path fill-rule="evenodd" clip-rule="evenodd" d="M9.87072 35.3486C8.97062 35.3486 7.02042 35.7046 7.71049 36.2979C10.0507 38.2411 13.7861 35.5562 9.87072 35.3486Z" fill="#1D1C19"></path>
  <path fill-rule="evenodd" clip-rule="evenodd" d="M4.30513 35.3486C3.40503 35.3486 1.45482 35.7046 2.1449 36.2979C4.48515 38.2411 8.22054 35.5562 4.30513 35.3486Z" fill="#1D1C19"></path>
  <path fill-rule="evenodd" clip-rule="evenodd" d="M36.2885 34.9332C35.3884 34.9332 33.4382 35.2892 34.1283 35.8677C36.4986 37.7961 40.2039 35.1409 36.2885 34.9332Z" fill="#1D1C19"></path>
  <path fill-rule="evenodd" clip-rule="evenodd" d="M30.7229 34.9332C29.8228 34.9332 27.8726 35.2892 28.5627 35.8677C30.903 37.7961 34.6384 35.1409 30.7229 34.9332Z" fill="#1D1C19"></path>
</svg>
