<?xml version="1.0" encoding="UTF-8"?>
<svg xmlns="http://www.w3.org/2000/svg" width="40" height="40" viewBox="0 0 40 40" fill="none">
  <path fill-rule="evenodd" clip-rule="evenodd" d="M36.8812 7.50746C36.0815 5.86711 34.8417 4.4828 33.301 3.50999C31.7604 2.53717 29.9798 2.01437 28.1592 2.00029C26.3387 1.98621 24.5502 2.48141 22.9948 3.43027C21.4393 4.37914 20.1784 5.7441 19.3536 7.37189C16.9055 11.8908 18.888 18.0064 21.8168 19.6181C21.8691 19.6478 21.9266 19.6668 21.9862 19.6742C22.0459 19.6815 22.1063 19.677 22.1642 19.661C22.2221 19.6449 22.2762 19.6175 22.3236 19.5804C22.3709 19.5434 22.4105 19.4973 22.4401 19.4449C22.4697 19.3925 22.4887 19.3347 22.496 19.2749C22.5033 19.2151 22.4989 19.1545 22.4828 19.0965C22.4668 19.0384 22.4395 18.9841 22.4025 18.9366C22.3656 18.8891 22.3196 18.8494 22.2674 18.8198C19.8493 17.3135 18.3323 11.8305 20.6002 8.07985C21.2298 6.94307 22.1138 5.96828 23.1826 5.23218C24.2515 4.49608 25.476 4.01873 26.76 3.8377C28.0439 3.65666 29.3523 3.77687 30.5821 4.18887C31.8119 4.60086 32.9296 5.29341 33.8473 6.21204C34.9788 7.29565 35.7853 8.67528 36.1755 10.1948C36.5656 11.7143 36.5239 13.313 36.055 14.81C35.5862 16.3069 34.7088 17.6424 33.5223 18.6651C32.3358 19.6879 30.8876 20.3572 29.3415 20.5972C28.0048 20.8832 26.6229 20.8832 25.2862 20.5972C25.2164 20.567 25.1409 20.5524 25.0648 20.5543C24.9888 20.5563 24.9141 20.5747 24.8459 20.6084C24.7777 20.6421 24.7176 20.6903 24.6697 20.7495C24.6218 20.8088 24.5874 20.8778 24.5687 20.9517C24.5499 21.0256 24.5475 21.1027 24.5614 21.1777C24.5753 21.2527 24.6052 21.3238 24.6492 21.386C24.6931 21.4483 24.75 21.5002 24.8159 21.5383C24.8818 21.5763 24.9552 21.5996 25.0309 21.6064C26.5083 21.9627 28.0444 21.9986 29.5367 21.7119C31.0908 21.509 32.573 20.9322 33.8567 20.0306C35.1404 19.129 36.1877 17.9294 36.9092 16.534C37.6306 15.1387 38.0049 13.5891 38 12.0173C37.9951 10.4455 37.6113 8.89826 36.8812 7.50746Z" fill="#1D1C19"></path>
  <path fill-rule="evenodd" clip-rule="evenodd" d="M30.4829 27.5111C30.6171 26.9926 30.601 26.4465 30.4367 25.9368C30.2723 25.4271 29.9665 24.975 29.555 24.6335C29.1435 24.292 28.6435 24.0752 28.1135 24.0086C27.5835 23.942 27.0456 24.0283 26.5629 24.2575C25.1964 25.0195 23.9799 26.0251 22.9732 27.2249C22.2223 27.9027 20.8855 28.9722 20.2698 29.4542L20.0745 29.6651C19.6093 29.6754 19.1448 29.6248 18.6927 29.5145C17.7916 29.2885 17.0106 29.1982 16.6952 28.8065C16.56 28.6408 16.6952 28.445 16.9655 28.0835C18.7828 25.2968 21.0207 24.4232 19.4287 21.7118C19.1888 21.3287 18.8266 21.0383 18.4012 20.8879C17.9758 20.7374 17.5121 20.7359 17.0857 20.8834C14.8027 21.3654 12.7 23.5194 10.4171 24.8751C10.2956 24.945 10.2068 25.0604 10.1702 25.196C10.1335 25.3316 10.1521 25.4762 10.2218 25.5981C10.2915 25.7199 10.4067 25.809 10.5419 25.8457C10.6771 25.8825 10.8213 25.8638 10.9428 25.7939C13.3459 24.4985 14.8177 22.9922 16.8604 22.2541C17.4762 22.0583 18.0769 21.8926 18.3623 22.3746C18.5069 22.5652 18.6042 22.7875 18.646 23.0233C18.6877 23.2591 18.6729 23.5014 18.6026 23.7303C18.0619 25.2366 14.0067 27.7521 15.5988 29.7555C16.3047 30.7044 18.9631 31.2618 20.2848 31.3371C22.0186 31.3025 23.7425 31.0649 25.4214 30.6291C30.0023 29.4542 30.5279 28.686 31.0686 29.8007C31.4892 30.6894 29.6418 31.9848 28.8458 32.5723C22.7329 37.2267 12.4597 34.3346 12.1593 34.4099C8.58473 35.374 9.15547 35.3288 9.15547 35.133C9.36408 32.5626 9.40421 29.9813 9.27562 27.4057C9.27562 26.1705 9.27562 24.6039 8.37447 23.7152C7.47331 22.8265 6.04647 23.2031 4.95006 23.188C4.04728 23.0628 3.12793 23.1452 2.26161 23.429C2.15206 23.481 2.06758 23.5744 2.02674 23.6888C1.98589 23.8032 1.99204 23.9292 2.04383 24.0391C2.09561 24.1489 2.18879 24.2337 2.30286 24.2746C2.41694 24.3156 2.54256 24.3094 2.65211 24.2575C3.3915 24.1474 4.14467 24.1729 4.87497 24.3328C5.76111 24.4382 6.7674 24.1972 7.26304 24.7546C7.75867 25.3119 7.50335 26.7128 7.48833 27.4207C7.33813 35.6451 7.59346 35.9313 7.17292 36.3079C6.45199 36.9405 3.85365 36.6995 2.83234 36.5489C2.70306 36.5339 2.57285 36.5676 2.46689 36.6434C2.36093 36.7191 2.28676 36.8316 2.25873 36.9591C2.2307 37.0865 2.2508 37.2198 2.31514 37.3333C2.37948 37.4467 2.48349 37.5322 2.60705 37.5732C4.10898 37.9498 6.8425 38.3715 8.04404 37.4225C8.38536 37.1399 8.63611 36.7627 8.76497 36.338C9.92828 36.155 11.0739 35.8728 12.1894 35.4945C17.6864 37.0008 25.0459 37.3171 29.7469 33.9882C30.8533 33.3089 31.7968 32.3934 32.5105 31.307C32.7139 30.9317 32.8211 30.5117 32.8224 30.0846C32.8237 29.6575 32.7191 29.2368 32.518 28.8603C32.3169 28.4838 32.0257 28.1634 31.6704 27.9279C31.3151 27.6924 30.9071 27.5491 30.4829 27.5111ZM22.5377 29.394C21.8468 29.4994 22.2072 29.5295 23.9195 28.4149C25.4214 27.3755 27.3138 25.1763 28.4252 25.6734C28.785 25.841 29.0733 26.1318 29.2385 26.4935C29.4036 26.8551 29.4348 27.264 29.3264 27.6467C26.5929 28.3396 25.0759 29.0174 22.5827 29.4241L22.5377 29.394Z" fill="#1D1C19"></path>
  <path fill-rule="evenodd" clip-rule="evenodd" d="M24.6554 8.51668C24.6055 8.5556 24.5657 8.60609 24.5396 8.66381C24.5134 8.72153 24.5016 8.78477 24.5052 8.84807C24.5052 8.95351 24.1147 13.849 24.1297 13.9544C24.1297 15.4607 24.8957 15.9427 26.4126 16.2289C26.0822 17.1026 26.7431 18.0365 27.0735 18.0365C27.4039 18.0365 27.8845 16.8164 27.6292 16.3645C27.9643 16.3865 28.3004 16.3865 28.6355 16.3645C28.6355 16.8315 28.7556 18.157 29.3264 18.157C29.8971 18.157 30.2876 16.8315 29.9722 16.1386C30.5175 16.0599 31.0219 15.8035 31.4073 15.4087C31.7928 15.0139 32.038 14.5029 32.1049 13.9544C32.146 13.5241 32.0631 13.0911 31.8661 12.7066C31.6691 12.3221 31.3663 12.0024 30.9935 11.7854C32.2852 10.7912 32.1951 8.56187 29.5817 8.14011C29.9872 7.02545 29.5817 7.11582 29.5817 6.31748C29.5778 6.21625 29.535 6.12046 29.4622 6.05024C29.3893 5.98002 29.2922 5.94083 29.1912 5.94091C28.9809 5.94091 28.8758 6.04635 28.7106 6.18192C28.5307 6.5128 28.3992 6.8679 28.3201 7.23633C28.2913 7.51081 28.322 7.78829 28.4102 8.04973C27.1636 8.04973 27.1336 8.17023 27.2087 8.04973C27.326 7.78487 27.3775 7.49542 27.3588 7.2062C27.1786 5.6999 27.0284 6.00116 26.8332 5.89572C26.6379 5.79028 26.0071 6.63381 25.902 7.14595C25.88 7.30082 25.88 7.45803 25.902 7.6129V7.86897L25.9771 8.3058C24.5953 8.50162 24.8356 8.38112 24.6554 8.51668ZM30.1825 14.5419C28.7012 15.1922 27.0331 15.2727 25.4965 14.7678C25.0459 14.3913 25.166 13.1109 25.2261 12.4331C26.1423 12.5837 29.5366 12.4331 30.3026 13.1109C30.4113 13.1975 30.497 13.3097 30.5519 13.4376C30.6068 13.5655 30.6293 13.705 30.6174 13.8437C30.6055 13.9824 30.5596 14.116 30.4837 14.2326C30.4078 14.3491 30.3043 14.445 30.1825 14.5118V14.5419ZM26.7581 9.07401C27.7493 9.07401 30.4528 8.98364 30.573 9.94767C30.6931 10.9117 29.4015 11.1527 28.3802 11.1678C24.9858 10.7912 25.3763 11.5142 25.3763 10.7761V9.34515C25.6316 9.25477 25.0609 9.31502 26.7581 9.07401Z" fill="#1D1C19"></path>
</svg>
