<svg width="32" height="28" viewBox="0 0 32 28" fill="none" xmlns="http://www.w3.org/2000/svg">
<path fill-rule="evenodd" clip-rule="evenodd" d="M28.2801 6.26658C27.5626 6.42207 26.9243 6.82872 26.4801 7.41325C26.4398 7.4474 26.4067 7.48914 26.3826 7.53609C26.3584 7.58305 26.3438 7.6343 26.3394 7.68692C26.3307 7.79319 26.3645 7.89859 26.4335 7.97992C26.5024 8.06125 26.6009 8.11186 26.7071 8.12061C26.8134 8.12936 26.9188 8.09554 27.0001 8.02659C27.6935 7.54659 27.7868 7.46659 28.4268 7.45325C29.0668 7.43992 30.5868 8.45325 30.6135 9.15992C30.6795 9.90587 30.4603 10.6491 30.0001 11.2399C29.1068 10.5466 26.9068 8.98658 26.3335 8.57325C26.2485 8.48857 26.1334 8.44103 26.0135 8.44103C25.8935 8.44103 25.7784 8.48857 25.6935 8.57325C25.1735 9.15992 26.2001 9.46659 29.2401 12.0666C28.8401 12.7466 28.6801 12.8533 24.2401 18.0266C23.9302 17.4237 23.5027 16.889 22.9829 16.454C22.4631 16.0189 21.8615 15.6922 21.2135 15.4933C25.0268 10.1599 25.7068 10.0133 25.2135 9.58659C24.7201 9.15992 24.5468 9.78658 24.0801 10.3199C20.7735 14.1733 18.9468 16.2799 18.9068 16.9866C18.7601 19.9066 18.6268 21.3199 19.0668 21.7333C19.9335 22.5599 23.0668 21.3733 23.7868 20.9066C26.6189 17.7468 29.2253 14.3919 31.5868 10.8666C31.9129 10.3521 32.0777 9.7518 32.0599 9.14291C32.0422 8.53402 31.8427 7.94435 31.4871 7.44973C31.1316 6.95511 30.6362 6.57815 30.0647 6.36731C29.4932 6.15647 28.8717 6.12139 28.2801 6.26658ZM22.8535 19.5999C22.0205 20.0361 21.1183 20.3248 20.1868 20.4533C20.0001 16.3599 20.0801 17.1199 20.6268 16.3199C21.5104 17.2468 22.4891 18.078 23.5468 18.7999C23.1735 19.2533 22.9201 19.5466 22.8535 19.5999Z" fill="#1D1C19"/>
<path fill-rule="evenodd" clip-rule="evenodd" d="M22.8935 23.7599C22.5601 25.1999 22.1601 25.6799 20.4001 25.9599C15.5638 26.3895 10.6951 26.2911 5.88012 25.6666C4.97345 25.5066 4.12012 25.4666 3.21345 25.3333C2.30679 25.1999 2.48012 25.1599 1.52012 24.9466C1.34679 24.1332 2.33345 22.1332 2.54679 21.1866C2.54679 21.1866 5.45345 7.35992 5.66679 6.10659C5.94748 4.55142 6.12122 2.97885 6.18679 1.39992C7.82679 1.39992 10.3468 1.71992 11.8668 1.89325C16.6268 2.42659 21.7735 1.06659 25.0135 2.91992C25.2091 3.61299 25.2724 4.33673 25.2001 5.05325C25.2001 5.15934 25.2423 5.26108 25.3173 5.33609C25.3923 5.41111 25.494 5.45325 25.6001 5.45325C25.7062 5.45325 25.8079 5.41111 25.883 5.33609C25.958 5.26108 26.0001 5.15934 26.0001 5.05325C26.1068 4.15992 26.2535 2.67992 25.6268 2.02659C24.1868 0.559919 20.0001 0.333252 17.8135 0.333252C15.8668 0.413252 13.9201 0.653252 12.0001 0.546585C11.1468 0.546585 6.66679 0.359919 5.81345 0.413252C5.18679 0.413252 5.42679 1.30659 5.40012 1.42659C4.94679 5.42659 5.25345 3.43992 1.09345 20.7866C0.800119 22.0666 -0.426548 24.1066 0.146786 25.6666C0.453452 26.4666 1.37345 26.4932 1.81345 26.6266C3.07179 26.8889 4.34543 27.0715 5.62678 27.1732C9.61016 27.652 13.6338 27.6967 17.6268 27.3066C19.1601 27.1999 21.2801 27.1866 22.6001 26.2799C23.27 25.6975 23.6941 24.8827 23.7868 23.9999C23.8025 23.9413 23.8066 23.8801 23.7987 23.8199C23.7908 23.7596 23.7711 23.7015 23.7408 23.6489C23.7105 23.5963 23.6701 23.5502 23.6219 23.5132C23.5738 23.4762 23.5188 23.449 23.4601 23.4333C23.4015 23.4175 23.3403 23.4134 23.2801 23.4213C23.2198 23.4292 23.1617 23.4489 23.1091 23.4792C23.0565 23.5096 23.0104 23.55 22.9734 23.5981C22.9364 23.6463 22.9092 23.7013 22.8935 23.7599Z" fill="#1D1C19"/>
<path fill-rule="evenodd" clip-rule="evenodd" d="M20.8401 6.99992C19.3601 6.99992 17.2401 6.79992 15.2268 6.71992C11.6535 6.57325 12.6535 6.99992 9.48012 6.61325C9.18679 6.61325 8.05345 6.18659 7.84012 6.82659C7.62679 7.46659 8.54679 7.22659 9.30679 7.55992C10.0668 7.89325 11.2801 8.33325 16.1468 8.23992C17.8935 8.23992 19.6268 8.05325 20.8935 7.91992C20.9539 7.91642 21.013 7.90105 21.0675 7.8747C21.1219 7.84835 21.1707 7.81152 21.2109 7.76633C21.2512 7.72114 21.2821 7.66847 21.302 7.61132C21.3219 7.55417 21.3303 7.49366 21.3268 7.43325C21.3233 7.37284 21.3079 7.31372 21.2816 7.25925C21.2552 7.20478 21.2184 7.15603 21.1732 7.11579C21.128 7.07555 21.0753 7.04461 21.0182 7.02473C20.961 7.00485 20.9005 6.99642 20.8401 6.99992Z" fill="#1D1C19"/>
<path fill-rule="evenodd" clip-rule="evenodd" d="M17.3335 12.5733C9.78679 12.1466 8.56012 12.0266 7.38679 11.4133C7.29661 11.3567 7.18766 11.3382 7.08389 11.362C6.98011 11.3857 6.89003 11.4497 6.83345 11.5399C6.77687 11.6301 6.75843 11.739 6.78219 11.8428C6.80594 11.9466 6.86994 12.0367 6.96012 12.0933C8.17784 12.9492 9.58885 13.4898 11.0668 13.6666C13.1562 13.8347 15.2578 13.7721 17.3335 13.4799C17.4537 13.4799 17.569 13.4322 17.654 13.3471C17.739 13.2621 17.7868 13.1468 17.7868 13.0266C17.7868 12.9064 17.739 12.791 17.654 12.706C17.569 12.621 17.4537 12.5733 17.3335 12.5733Z" fill="#1D1C19"/>
<path fill-rule="evenodd" clip-rule="evenodd" d="M13.1068 18.8266C10.1468 18.6666 7.34679 18.4799 5.84012 17.2666C5.42679 16.9333 4.68012 17.6133 5.56012 18.3599C6.2074 18.8167 6.90538 19.197 7.64012 19.4933C10.6935 20.5733 13.3068 20.2399 16.6801 19.8666C16.8004 19.8666 16.9157 19.8188 17.0007 19.7338C17.0857 19.6488 17.1335 19.5335 17.1335 19.4133C17.1335 19.293 17.0857 19.1777 17.0007 19.0927C16.9157 19.0077 16.8004 18.9599 16.6801 18.9599C15.4935 18.9999 14.3068 18.8933 13.1068 18.8266Z" fill="#1D1C19"/>
</svg>
