<svg width="32" height="26" viewBox="0 0 32 26" fill="none" xmlns="http://www.w3.org/2000/svg">
<path fill-rule="evenodd" clip-rule="evenodd" d="M31.8534 18.5466C31.1201 17.0933 23.3734 17.6266 21.8668 18.1066C21.0534 18.36 20.9734 19.2933 20.7334 20.0533C20.0134 20.6266 13.6401 20.56 12.7334 20.0533C12.5468 19.4533 12.5734 18.8533 12.1201 18.4C11.4401 17.72 10.0934 17.9733 5.60011 18.04C4.33848 17.9258 3.06791 17.9571 1.81344 18.1333C0.813444 18.3333 -0.0798894 19.1466 0.000110559 20.0133C0.420119 21.7469 1.28398 23.3413 2.50678 24.64C5.01344 26.2933 8.78678 25.2533 11.6668 25.4133C23.1734 25.16 22.9334 24.92 24.3868 25.1333C24.4393 25.1421 24.493 25.1404 24.5449 25.1284C24.5968 25.1164 24.6458 25.0942 24.6891 25.0633C24.7325 25.0323 24.7693 24.9932 24.7975 24.948C24.8257 24.9028 24.8447 24.8525 24.8534 24.8C24.8622 24.7475 24.8605 24.6937 24.8485 24.6418C24.8365 24.59 24.8144 24.5409 24.7834 24.4976C24.7525 24.4543 24.7133 24.4175 24.6681 24.3893C24.6229 24.3611 24.5726 24.3421 24.5201 24.3333C23.1068 24.0933 23.2534 24.3333 11.7468 24.3333C9.08011 24.1066 5.24011 24.88 3.29344 23.5333C2.48841 22.4855 1.88691 21.2961 1.52011 20.0266C2.10678 19.2267 4.44011 19.6266 5.52011 19.6266L9.84011 19.4933C10.0668 19.4933 10.7334 19.8133 10.9601 19.6533C11.1068 20.1866 11.1468 20.92 11.7734 21.3333C12.9601 22.12 20.4401 22.3466 21.7068 21.0533C22.1334 20.6266 22.0934 19.9733 22.3201 19.4C23.7601 18.9466 29.2801 18.5733 30.8668 19.16C31.2268 20.08 29.5334 23.0266 28.7868 23.7466C28.4134 24.1066 26.7201 24.0933 26.1201 24.0933C26.0115 24.1119 25.913 24.1682 25.842 24.2524C25.771 24.3366 25.732 24.4432 25.732 24.5533C25.732 24.6635 25.771 24.77 25.842 24.8542C25.913 24.9384 26.0115 24.9948 26.1201 25.0133C27.1601 25.0133 28.7868 25.08 29.4001 24.4666C30.6668 23.3866 32.5601 19.96 31.8534 18.5466Z" fill="#1D1C19"/>
<path fill-rule="evenodd" clip-rule="evenodd" d="M3.20011 16.92C3.23017 17.0261 3.30114 17.1159 3.39741 17.1696C3.49368 17.2234 3.60736 17.2367 3.71344 17.2066C3.81953 17.1766 3.90933 17.1056 3.96309 17.0094C4.01685 16.9131 4.03017 16.7994 4.00011 16.6933C3.26382 13.1042 2.88862 9.45047 2.88011 5.78665C2.98678 4.13332 3.64011 3.47998 4.54678 3.18665C8.37344 1.85332 22.6668 1.30665 27.2134 2.90665C28.2801 3.26665 28.6401 3.27998 28.9334 4.42665C29.0342 7.98595 28.9184 11.5481 28.5868 15.0933C28.5868 15.3733 28.4134 15.6266 28.5068 15.6533C28.4636 15.7499 28.4555 15.8586 28.4841 15.9605C28.5126 16.0624 28.5759 16.1512 28.6629 16.2113C28.75 16.2715 28.8554 16.2993 28.9608 16.2899C29.0662 16.2805 29.165 16.2346 29.2401 16.16C29.7201 15.6933 30.4134 5.27998 30.1468 4.15998C29.7868 2.50665 29.0934 2.18665 27.6668 1.65332C22.4801 -0.33335 8.77344 0.22665 4.06678 1.90665C3.30113 2.19242 2.6504 2.72154 2.21445 3.41279C1.7785 4.10405 1.58142 4.91925 1.65344 5.73332C1.79478 9.50444 2.31291 13.252 3.20011 16.92Z" fill="#1D1C19"/>
</svg>
