<svg width="40" height="40" viewBox="0 0 40 40" fill="none" xmlns="http://www.w3.org/2000/svg">
<g clip-path="url(#clip0_35_19436)">
<path fill-rule="evenodd" clip-rule="evenodd" d="M16.2334 30.4671C15.5526 30.3178 14.884 30.1172 14.2334 29.8671C13.5961 29.629 12.9869 29.3216 12.4167 28.9504C11.4255 28.3218 10.6033 27.46 10.0222 26.4401C9.44113 25.4203 9.11879 24.2736 9.08341 23.1004C9.0049 20.7375 9.74038 18.4192 11.1667 16.5337C12.0767 15.2698 13.2548 14.2225 14.6167 13.4671C15.9956 12.7366 17.5107 12.2997 19.0667 12.1837C21.135 12.0642 23.1918 12.5652 24.9734 13.6223C26.7551 14.6794 28.1804 16.2446 29.0667 18.1171C29.5952 19.0021 29.9389 19.9849 30.0772 21.0063C30.2154 22.0278 30.1454 23.0666 29.8713 24.0603C29.5972 25.0539 29.1247 25.9817 28.4823 26.7878C27.8398 27.5939 27.0408 28.2615 26.1334 28.7504C26.0583 28.7935 25.9925 28.8511 25.9399 28.9199C25.8873 28.9888 25.849 29.0674 25.8273 29.1513C25.8056 29.2351 25.8008 29.3225 25.8133 29.4082C25.8258 29.4939 25.8553 29.5763 25.9001 29.6504C25.9415 29.725 25.9976 29.7905 26.0649 29.8429C26.1323 29.8952 26.2095 29.9335 26.292 29.9553C26.3745 29.9771 26.4606 29.982 26.545 29.9697C26.6295 29.9574 26.7105 29.9282 26.7834 29.8837C32.1334 26.9504 32.7501 21.7004 30.7334 17.3171C29.7214 15.0859 28.0761 13.2014 26.0019 11.8976C23.9277 10.5938 21.516 9.92827 19.0667 9.98373C17.1901 10.1071 15.3635 10.642 13.7167 11.5504C11.68 12.6997 10.0172 14.4109 8.92664 16.4796C7.83611 18.5484 7.36402 20.8873 7.56674 23.2171C7.64717 24.6093 8.06176 25.9617 8.77542 27.1599C9.48908 28.358 10.4808 29.3666 11.6667 30.1004C12.3318 30.4849 13.0357 30.7977 13.7667 31.0337C14.4737 31.277 15.1979 31.4664 15.9334 31.6004C16.088 31.63 16.248 31.5976 16.3789 31.5103C16.5098 31.423 16.6012 31.2878 16.6334 31.1337C16.6603 30.9929 16.6344 30.847 16.5607 30.7241C16.4869 30.6011 16.3704 30.5096 16.2334 30.4671Z" fill="#1D1C19"/>
<path fill-rule="evenodd" clip-rule="evenodd" d="M19.8334 28.0004C20.5872 27.8521 21.29 27.5119 21.8739 27.0127C22.4579 26.5134 22.9031 25.872 23.1667 25.1504C23.2099 25.0755 23.2373 24.9926 23.2472 24.9067C23.2571 24.8208 23.2493 24.7338 23.2243 24.6511C23.1994 24.5683 23.1577 24.4916 23.1019 24.4255C23.0462 24.3595 22.9775 24.3056 22.9001 24.2671C22.8252 24.2239 22.7423 24.1965 22.6564 24.1866C22.5705 24.1767 22.4835 24.1845 22.4008 24.2095C22.318 24.2345 22.2413 24.2761 22.1752 24.3319C22.1092 24.3876 22.0552 24.4563 22.0167 24.5337C21.6922 25.0294 21.2266 25.4166 20.68 25.6453C20.1335 25.874 19.5309 25.9338 18.9501 25.8171C18.6074 25.7772 18.2712 25.6932 17.9501 25.5671C17.0867 25.292 16.3411 24.7343 15.8334 23.9837C15.806 23.9032 15.7608 23.8299 15.7011 23.7692C15.6415 23.7085 15.569 23.662 15.4889 23.6332C15.4089 23.6044 15.3234 23.594 15.2387 23.6027C15.1541 23.6115 15.0725 23.6392 15.0001 23.6837C14.8588 23.7459 14.748 23.8614 14.6918 24.0051C14.6355 24.1488 14.6385 24.3089 14.7001 24.4504C15.0471 25.7016 15.8497 26.7777 16.9501 27.4671C17.4607 27.7657 18.0287 27.9532 18.6167 28.0171C19.0208 28.0733 19.4311 28.0677 19.8334 28.0004Z" fill="#1D1C19"/>
<path fill-rule="evenodd" clip-rule="evenodd" d="M39.8167 20.7337C39.7129 20.2918 39.5504 19.8658 39.3334 19.4671C38.9398 18.7666 38.4045 18.1559 37.7617 17.6738C37.1189 17.1917 36.3827 16.8488 35.6001 16.6671C35.4726 15.6868 35.272 14.7174 35.0001 13.7671C34.3823 11.6348 33.3059 9.66332 31.8462 7.99066C30.3866 6.318 28.5791 4.98458 26.5501 4.08373C24.404 3.27266 22.1155 2.90614 19.8235 3.00642C17.5315 3.10669 15.2838 3.67167 13.2167 4.66707C11.0909 5.53718 9.21149 6.9164 7.74384 8.68339C6.27619 10.4504 5.26529 12.551 4.80007 14.8004C4.80008 15.2004 4.80007 15.6004 4.70007 16.0004C3.85194 16.1586 3.04977 16.504 2.35203 17.0114C1.65429 17.5189 1.07854 18.1756 0.666741 18.9337C0.449796 19.3325 0.28724 19.7585 0.183408 20.2004C-0.0897819 21.1251 -0.0897819 22.109 0.183408 23.0337C0.431587 23.7306 0.84958 24.3546 1.39958 24.8493C1.94958 25.344 2.61423 25.6938 3.33341 25.8671C3.66475 25.971 4.00514 26.0436 4.35007 26.0837C4.68815 26.1169 5.02867 26.1169 5.36674 26.0837C5.51933 26.0784 5.66547 26.0209 5.78075 25.9208C5.89602 25.8207 5.97345 25.6841 6.00007 25.5337C6.06768 25.5662 6.14173 25.5831 6.21674 25.5831C6.29175 25.5831 6.3658 25.5662 6.43341 25.5337C6.53543 25.4877 6.62153 25.4125 6.68086 25.3176C6.74018 25.2226 6.77006 25.1123 6.76674 25.0004C6.37643 23.3584 6.13104 21.6853 6.03341 20.0004C5.94055 18.3533 6.05817 16.7011 6.38341 15.0837C6.90655 13.1652 7.88166 11.3998 9.22711 9.93549C10.5726 8.47115 12.2492 7.3504 14.1167 6.66707C15.9258 5.79988 17.8904 5.30438 19.8943 5.20991C21.8983 5.11544 23.9008 5.42391 25.7834 6.11707C27.5555 6.86384 29.1465 7.98237 30.449 9.39703C31.7516 10.8117 32.7352 12.4895 33.3334 14.3171C34.595 18.1234 34.483 22.2515 33.0167 25.9837C32.9844 26.0636 32.9682 26.149 32.9691 26.2351C32.9701 26.3213 32.9882 26.4063 33.0223 26.4854C33.0564 26.5645 33.1059 26.636 33.1679 26.6958C33.2299 26.7556 33.3031 26.8025 33.3834 26.8337C33.4864 26.8669 33.5971 26.8669 33.7001 26.8337C33.2369 27.8033 32.6786 28.7245 32.0334 29.5837C31.4173 30.4189 30.6945 31.1697 29.8834 31.8171C28.6362 32.9399 27.0278 33.5785 25.3501 33.6171C25.276 33.4826 25.1567 33.3787 25.0133 33.3238C24.8699 33.2689 24.7117 33.2665 24.5667 33.3171C24.4034 33.3836 24.2731 33.5122 24.2044 33.6747C24.1357 33.8371 24.1341 34.0202 24.2001 34.1837C24.2001 34.4004 24.2001 34.5504 23.9834 34.7004C23.7167 34.9034 23.3999 35.0301 23.0667 35.0671C22.6014 35.1557 22.1216 35.1329 21.6667 35.0004C21.2054 34.8874 20.7735 34.6772 20.4001 34.3837C20.1167 34.1837 19.9001 34.0504 20.0001 33.8504C20.1255 33.6072 20.3236 33.4092 20.5667 33.2837L21.7001 32.9171C22.0197 32.8645 22.3429 32.8367 22.6667 32.8337H23.7001C23.8481 32.8578 23.9997 32.8222 24.1215 32.7347C24.2434 32.6473 24.3255 32.515 24.3501 32.3671C24.3645 32.2915 24.3639 32.2139 24.3483 32.1386C24.3326 32.0633 24.3022 31.9918 24.2589 31.9283C24.2155 31.8648 24.16 31.8105 24.0956 31.7685C24.0311 31.7266 23.959 31.6977 23.8834 31.6837L21.6667 31.3171C21.384 31.2921 21.0995 31.2921 20.8167 31.3171C20.5171 31.3402 20.2209 31.3961 19.9334 31.4837C19.461 31.6017 19.0265 31.838 18.6707 32.1704C18.315 32.5029 18.0498 32.9204 17.9001 33.3837C17.7906 33.9112 17.8509 34.4598 18.0725 34.9509C18.2941 35.4419 18.6655 35.8502 19.1334 36.1171C19.8005 36.5575 20.5581 36.8423 21.3501 36.9504C22.1064 37.027 22.8702 36.9301 23.5834 36.6671C24.2659 36.41 24.8494 35.9432 25.2501 35.3337C25.3229 35.1791 25.3788 35.0171 25.4167 34.8504C27.1442 35.0802 28.8994 34.7408 30.4167 33.8837C31.798 33.0804 32.9467 31.9317 33.7501 30.5504C34.479 29.3547 34.9923 28.0403 35.2667 26.6671H35.7334C36.0773 26.6131 36.417 26.5352 36.7501 26.4337C37.4448 26.2411 38.0823 25.8827 38.6078 25.3891C39.1333 24.8955 39.531 24.2817 39.7667 23.6004C40.0688 22.6712 40.0863 21.6729 39.8167 20.7337ZM4.55007 24.6671C4.31116 24.5871 4.07738 24.4924 3.85007 24.3837C3.46048 24.1935 3.1188 23.9179 2.85044 23.5774C2.58208 23.2369 2.39396 22.8403 2.30007 22.4171C2.18829 21.8671 2.18829 21.3003 2.30007 20.7504C2.41592 20.0665 2.6766 19.4153 3.06465 18.8405C3.45271 18.2656 3.95916 17.7803 4.55007 17.4171C4.5335 18.3293 4.56689 19.2418 4.65007 20.1504C4.81668 21.7916 5.12902 23.4146 5.58341 25.0004C5.48341 25.0004 5.41674 24.8837 5.30007 24.8837L4.55007 24.6671ZM36.2167 24.9004C33.7001 26.1171 36.0501 23.3337 35.7667 18.0337C36.8195 18.8013 37.5311 19.9494 37.7501 21.2337C37.8596 21.7839 37.8596 22.3502 37.7501 22.9004C37.6567 23.335 37.4635 23.7419 37.1859 24.089C36.9082 24.4361 36.5536 24.7139 36.1501 24.9004H36.2167Z" fill="#1D1C19"/>
<path fill-rule="evenodd" clip-rule="evenodd" d="M14.7167 17.5171C14.4153 17.5087 14.1152 17.5596 13.8334 17.6671C13.2004 17.916 12.631 18.3032 12.1667 18.8004C12.037 18.8827 11.9449 19.0129 11.9106 19.1627C11.8763 19.3125 11.9024 19.4698 11.9834 19.6004C12.2167 20.0171 15.3167 19.6004 15.9167 19.6004C16.1825 19.6109 16.4458 19.6557 16.7001 19.7337C16.8515 19.8221 17.0311 19.8489 17.2017 19.8086C17.3723 19.7682 17.5209 19.6639 17.6167 19.5171C17.7042 19.3682 17.7305 19.1912 17.6901 19.0233C17.6497 18.8555 17.5457 18.7098 17.4001 18.6171C16.9014 18.1202 16.2805 17.7638 15.6001 17.5837C15.3116 17.5115 15.0128 17.4889 14.7167 17.5171Z" fill="#1D1C19"/>
<path fill-rule="evenodd" clip-rule="evenodd" d="M26.8001 19.6004C26.8796 19.4678 26.9032 19.309 26.8657 19.159C26.8282 19.009 26.7326 18.88 26.6001 18.8004C26.1405 18.2978 25.5697 17.9097 24.9334 17.6671C24.6516 17.5596 24.3515 17.5087 24.0501 17.5171C23.7466 17.4998 23.4424 17.5336 23.1501 17.6171C22.4711 17.8007 21.8511 18.1567 21.3501 18.6504C21.2072 18.7458 21.1067 18.8926 21.0694 19.0603C21.0322 19.2279 21.0611 19.4035 21.1501 19.5504C21.243 19.7006 21.3917 19.8077 21.5636 19.8483C21.7355 19.889 21.9164 19.8597 22.0667 19.7671C22.321 19.689 22.5843 19.6442 22.8501 19.6337C24.7334 19.4837 26.4501 20.2004 26.8001 19.6004Z" fill="#1D1C19"/>
</g>
<defs>
<clipPath id="clip0_35_19436">
<rect width="40" height="40" fill="white"/>
</clipPath>
</defs>
</svg>
