<svg width="40" height="40" viewBox="0 0 40 40" fill="none" xmlns="http://www.w3.org/2000/svg">
<path d="M29.3674 19.5251C29.217 17.5127 28.5464 15.5748 27.4222 13.9039C26.2599 12.1708 24.5894 10.8461 22.6436 10.1145C20.6979 9.38288 18.5739 9.28081 16.5678 9.82252C14.5674 10.2811 12.7503 11.3346 11.3522 12.8463C9.9541 14.3579 9.03966 16.2577 8.72761 18.2992C8.61592 19.0876 8.61592 19.8879 8.72761 20.6763C8.84201 21.4962 9.14173 22.2787 9.60369 22.9637C10.4204 24.1298 11.6825 24.4587 12.321 25.3706C12.5684 25.7224 12.6793 26.1531 12.6328 26.5816C12.6288 26.6346 12.6352 26.6879 12.6517 26.7385C12.6682 26.789 12.6944 26.8358 12.7289 26.8761C12.7634 26.9163 12.8055 26.9494 12.8527 26.9732C12.8999 26.9971 12.9514 27.0113 13.0041 27.0151H13.4198C14.483 27.3108 15.5643 27.5356 16.6569 27.6879C17.1247 27.7475 17.5959 27.7775 18.0675 27.7776H19.4781C20.5621 27.7776 21.6312 27.5683 22.73 27.4188C22.7905 27.4168 22.8499 27.4029 22.9051 27.3778C22.9602 27.3528 23.0098 27.317 23.0512 27.2725C23.0926 27.2281 23.1248 27.1759 23.1462 27.1189C23.1675 27.0619 23.1774 27.0012 23.1755 26.9404C23.1736 26.8782 23.1593 26.817 23.1335 26.7605C23.1076 26.704 23.0707 26.6533 23.025 26.6114C22.9793 26.5696 22.9256 26.5374 22.8673 26.5169C22.809 26.4963 22.7471 26.4878 22.6854 26.4919L19.4781 26.3125H13.4495C13.4501 25.8157 13.2999 25.3305 13.0189 24.9221C12.4101 24.0401 11.1777 23.6364 10.4055 22.4703C10.0657 21.8959 9.85767 21.2523 9.79672 20.5866C9.70478 19.8862 9.71479 19.1761 9.82642 18.4786C10.1581 16.7015 11.0096 15.0647 12.2716 13.7781C13.5335 12.4915 15.1485 11.6139 16.9093 11.2577C18.6221 10.8119 20.4302 10.9117 22.0843 11.5436C23.7384 12.1755 25.1572 13.3083 26.1452 14.786C27.1149 16.221 27.6981 17.8849 27.838 19.6148C27.9296 20.4445 27.8445 21.2843 27.5885 22.0783C27.3324 22.8723 26.9113 23.6022 26.3531 24.2195C26.1267 24.446 25.8888 24.6606 25.6404 24.8623C24.9722 25.3856 24.304 25.8042 23.6506 26.3573C23.409 26.5988 23.2305 26.8967 23.1309 27.2244C22.9918 27.7156 22.8827 28.2149 22.8042 28.7194C22.7896 29.0635 22.6761 29.3959 22.4776 29.6762C21.5552 30.4728 20.3654 30.8846 19.1514 30.8274C17.2932 30.7697 15.4613 30.3694 13.7465 29.6463C13.8801 29.4071 13.7465 28.6746 13.7465 28.2261C13.7388 28.1018 13.6834 27.9855 13.5919 27.9017C13.5004 27.818 13.3801 27.7735 13.2565 27.7776C13.196 27.7814 13.1368 27.7972 13.0824 27.8241C13.028 27.8509 12.9794 27.8884 12.9394 27.9342C12.8994 27.98 12.8688 28.0334 12.8493 28.0912C12.8298 28.149 12.8218 28.21 12.8259 28.2709C12.8259 28.8689 12.7219 29.6314 12.8259 29.9603C12.846 30.062 12.8903 30.1572 12.955 30.2379C13.0196 30.3186 13.1027 30.3824 13.1971 30.4237C15.1024 31.3093 17.1593 31.8169 19.2554 31.9188C20.7658 32.0191 22.2561 31.5261 23.413 30.5433C23.651 30.3107 23.8294 30.0234 23.9327 29.7061C24.0884 29.2175 24.2075 28.7177 24.2891 28.2111C24.282 27.9475 24.3381 27.686 24.4524 27.4487C25.1058 26.8806 25.7591 26.5068 26.4125 25.9537C26.7207 25.7248 27.0088 25.4697 27.2737 25.1912C28.0062 24.4535 28.5724 23.5655 28.9337 22.5878C29.2949 21.6101 29.4429 20.5655 29.3674 19.5251Z" fill="#1D1C19"/>
<path d="M16.5678 22.9637C16.6569 22.0965 16.7162 21.2145 16.7905 20.3474C17.0224 20.5885 17.2874 20.7949 17.5775 20.9603C18.0518 21.2624 18.6054 21.4135 19.1663 21.3939C19.6879 21.3792 20.1979 21.2355 20.6512 20.9753V22.2161C20.6451 23.1881 20.7246 24.1587 20.8888 25.1165C20.8888 25.4304 21.6312 25.6248 21.7797 25.1165C21.6895 24.1518 21.6895 23.1808 21.7797 22.2161C21.9864 20.9025 22.2791 19.604 22.6558 18.3291C22.703 18.1849 22.6992 18.0288 22.645 17.8871C22.5909 17.7454 22.4898 17.6269 22.3588 17.5517C22.2245 17.4487 22.0564 17.4007 21.8884 17.4173C21.7203 17.4339 21.5648 17.514 21.453 17.6414C21.3936 17.7144 21.3437 17.7948 21.3045 17.8806L21.1412 18.2095L20.7848 18.7926C20.5844 19.074 20.3261 19.3086 20.0275 19.4803C19.7613 19.652 19.4527 19.7452 19.1366 19.7494C18.7948 19.7466 18.4643 19.6251 18.2011 19.4055C17.8789 19.17 17.6147 18.8631 17.429 18.5085L17.1617 17.8358C17.1617 17.7012 17.0578 17.3723 17.0281 17.2826C16.9589 17.1898 16.8692 17.1144 16.7661 17.0625C16.6631 17.0106 16.5494 16.9836 16.4341 16.9836C16.3157 16.9528 16.1912 16.9546 16.0736 16.9888C15.9561 17.0229 15.8498 17.0883 15.7659 17.178C15.2908 17.6863 15.662 20.5567 15.4541 23.8906C15.4905 24.2134 15.4905 24.5394 15.4541 24.8623C15.4541 25.4902 16.152 25.6696 16.3153 25.0118C16.4734 24.3404 16.558 23.6536 16.5678 22.9637Z" fill="#1D1C19"/>
<path d="M6.73788 11.2727C6.55391 11.0501 6.35013 10.845 6.12908 10.6597L5.44604 10.1514C4.89663 9.79262 4.31753 9.50857 3.73843 9.17967C3.63737 9.10821 3.51265 9.07918 3.3907 9.09871C3.26874 9.11825 3.15913 9.18482 3.08508 9.28432C3.01495 9.3837 2.98653 9.5069 3.00598 9.62723C3.02544 9.74756 3.0912 9.85532 3.18902 9.92717C3.63449 10.3906 4.0651 10.8541 4.52541 11.3026C4.71845 11.4969 4.91148 11.6913 5.10451 11.8557C5.29755 12.0202 5.50543 12.1996 5.71331 12.364C6.22763 12.7164 6.72327 13.0957 7.19819 13.5002C7.27326 13.5751 7.37465 13.6171 7.48032 13.6171C7.58598 13.6171 7.68737 13.5751 7.76244 13.5002C7.80671 13.4679 7.84393 13.4268 7.87183 13.3794C7.89972 13.3321 7.9177 13.2795 7.92465 13.2249C7.93161 13.1702 7.92739 13.1148 7.91226 13.0619C7.89714 13.009 7.87142 12.9597 7.83669 12.9172C7.53428 12.3284 7.16558 11.7766 6.73788 11.2727Z" fill="#1D1C19"/>
<path d="M12.6477 4.60494C12.7218 4.8807 12.8161 5.15054 12.9298 5.41224C13.0338 5.6664 13.1377 5.92055 13.2713 6.1747C13.5832 6.75775 13.9544 7.28101 14.281 7.87901C14.3288 7.9668 14.4063 8.03443 14.4994 8.06966C14.5924 8.10488 14.6949 8.10536 14.7883 8.071C14.8817 8.03665 14.9598 7.96973 15.0084 7.8824C15.057 7.79506 15.0729 7.69308 15.0532 7.59496C14.9569 6.92509 14.8231 6.26124 14.6523 5.6066C14.578 5.33749 14.4741 5.06839 14.3701 4.79929C14.2837 4.53822 14.1796 4.28346 14.0583 4.03684C13.6722 3.43883 13.3159 2.90063 12.9744 2.31758C12.9546 2.25749 12.9228 2.20213 12.8809 2.1549C12.8391 2.10767 12.788 2.06957 12.731 2.04296C12.6739 2.01634 12.6121 2.00177 12.5492 2.00015C12.4864 1.99853 12.4239 2.00989 12.3656 2.03352C12.254 2.07997 12.165 2.16867 12.1178 2.28053C12.0706 2.39238 12.0689 2.51843 12.1131 2.63153C12.2913 3.33418 12.4398 3.97704 12.6477 4.60494Z" fill="#1D1C19"/>
<path d="M23.7397 8.53681C23.7924 8.54304 23.8458 8.53867 23.8968 8.52396C23.9479 8.50925 23.9955 8.48449 24.0369 8.45111C24.0783 8.41774 24.1128 8.37641 24.1382 8.32953C24.1637 8.28265 24.1796 8.23115 24.1852 8.17801C24.3952 7.63425 24.5785 7.08043 24.7346 6.51855C24.8088 6.18965 24.8385 5.8458 24.8831 5.51689C24.8967 5.01489 24.9513 4.51486 25.0464 4.02189C25.0786 3.96593 25.0995 3.90415 25.1079 3.84006C25.1164 3.77596 25.1122 3.71082 25.0957 3.64835C25.0792 3.58588 25.0505 3.5273 25.0115 3.47596C24.9725 3.42462 24.9238 3.38153 24.8682 3.34913C24.8126 3.31674 24.7513 3.29568 24.6876 3.28717C24.624 3.27865 24.5593 3.28284 24.4972 3.2995C24.4352 3.31616 24.377 3.34496 24.326 3.38426C24.275 3.42355 24.2322 3.47258 24.2 3.52853C23.8845 3.99185 23.63 4.49437 23.4427 5.02354C23.3695 5.24892 23.31 5.47858 23.2645 5.71125C23.2499 5.94523 23.2499 6.17992 23.2645 6.4139C23.2645 6.982 23.3833 7.49031 23.4279 7.99861C23.4123 8.05458 23.408 8.11313 23.4153 8.17079C23.4227 8.22845 23.4414 8.28403 23.4705 8.33424C23.4996 8.38445 23.5384 8.42826 23.5847 8.46306C23.6309 8.49786 23.6836 8.52294 23.7397 8.53681Z" fill="#1D1C19"/>
<path d="M36.5096 13.2461C35.8118 13.2461 35.1584 13.1414 34.4754 13.1414H33.5993C33.3172 13.1414 33.0202 13.2461 32.7381 13.3208C32.075 13.5452 31.4338 13.8305 30.8226 14.173C30.7621 14.182 30.7043 14.2043 30.6534 14.2383C30.6024 14.2724 30.5596 14.3173 30.5279 14.3699C30.4961 14.4225 30.4763 14.4816 30.4699 14.5428C30.4634 14.604 30.4704 14.6659 30.4904 14.724C30.5104 14.7822 30.5429 14.8352 30.5856 14.8793C30.6282 14.9234 30.68 14.9574 30.7373 14.9791C30.7945 15.0007 30.8558 15.0093 30.9167 15.0044C30.9777 14.9994 31.0368 14.981 31.0898 14.9504C31.758 14.8458 32.3817 14.8458 33.0202 14.8009L33.822 14.7112L34.6387 14.5617C35.2772 14.4272 35.9008 14.2627 36.569 14.1281C36.6911 14.1132 36.803 14.0527 36.8828 13.9586C36.9626 13.8644 37.0043 13.7435 36.9997 13.6198C36.9781 13.5077 36.9161 13.4075 36.8257 13.3385C36.7353 13.2696 36.6227 13.2366 36.5096 13.2461Z" fill="#1D1C19"/>
<path d="M21.3639 33.5035C20.8694 33.5346 20.3735 33.5346 19.879 33.5035C19.4039 33.5035 18.9287 33.4287 18.3942 33.3988L16.9093 33.3241C15.9293 33.3241 14.9641 33.3241 13.9395 33.2194C13.8333 33.197 13.7226 33.2173 13.631 33.276C13.5395 33.3346 13.4743 33.427 13.4495 33.5334C13.4273 33.6403 13.4474 33.7518 13.5057 33.844C13.5639 33.9361 13.6557 34.0017 13.7613 34.0267C14.5937 34.3601 15.4532 34.6202 16.3302 34.8041C16.7127 34.8735 17.0999 34.9135 17.4884 34.9237C17.8739 34.9536 18.2611 34.9536 18.6466 34.9237C19.6047 34.845 20.5539 34.6798 21.4827 34.4304C21.6037 34.4084 21.7116 34.34 21.7835 34.2397C21.8555 34.1393 21.8861 34.0147 21.8688 33.8922C21.8504 33.7745 21.7877 33.6684 21.6937 33.596C21.5996 33.5236 21.4816 33.4905 21.3639 33.5035Z" fill="#1D1C19"/>
<path d="M19.7602 36.5234C19.263 36.5087 18.7672 36.4638 18.2754 36.3888C17.9491 36.3665 17.6216 36.3665 17.2953 36.3888C16.7014 36.3888 16.152 36.5383 15.5729 36.5981C15.5202 36.5919 15.4668 36.5963 15.4158 36.611C15.3648 36.6257 15.3171 36.6505 15.2757 36.6838C15.2343 36.7172 15.1998 36.7585 15.1744 36.8054C15.1489 36.8523 15.133 36.9038 15.1274 36.9569C15.1223 37.0665 15.1572 37.1742 15.2256 37.2596C15.2941 37.345 15.3912 37.4022 15.4986 37.4204C15.999 37.6132 16.5096 37.7779 17.0281 37.9137C17.2489 37.9534 17.4721 37.9784 17.6963 37.9885C17.9237 38.0038 18.1519 38.0038 18.3793 37.9885C18.9413 37.8792 19.4859 37.6931 19.9978 37.4353C20.1179 37.4096 20.223 37.3368 20.2898 37.2331C20.3566 37.1293 20.3798 37.0031 20.3542 36.8822C20.3286 36.7613 20.2563 36.6555 20.1533 36.5882C20.0503 36.5209 19.9249 36.4976 19.8048 36.5234H19.7602Z" fill="#1D1C19"/>
</svg>
