<svg width="150" height="40" viewBox="0 0 150 40" fill="none" xmlns="http://www.w3.org/2000/svg">
<path d="M92.1191 19.2771C92.7081 18.5318 92.9528 17.7954 92.9528 16.9692C92.9528 14.9666 91.3034 13.3323 89.2825 13.3323H82.9388V26.56H89.8625C92.1191 26.56 93.9497 24.737 93.9497 22.5099C93.9497 21.118 93.2881 19.9416 92.1191 19.2771ZM86.3644 16.2239H88.4487C89.0922 16.2239 89.6178 16.7357 89.6178 17.3823C89.6178 18.0199 89.1012 18.5407 88.4487 18.5407H86.3644V16.2239ZM89.1012 23.5876H86.3462V21.1001H89.1012C89.7991 21.1001 90.3519 21.6568 90.3519 22.3393C90.3609 23.0218 89.7991 23.5876 89.1012 23.5876Z" fill="#222222"/>
<path d="M102.795 13C98.9522 13 95.7894 15.9724 95.7894 19.9416C95.7894 23.9108 98.9522 26.8833 102.795 26.8833C106.637 26.8833 109.8 23.9108 109.8 19.9416C109.809 15.9724 106.637 13 102.795 13ZM102.795 23.5876C100.792 23.5876 99.3691 21.9262 99.3691 19.9506C99.3691 17.966 100.792 16.3137 102.795 16.3137C104.798 16.3137 106.22 17.975 106.22 19.9506C106.22 21.9262 104.798 23.5876 102.795 23.5876Z" fill="#222222"/>
<path d="M114.975 17.1398C114.975 16.6549 115.645 16.2328 116.642 16.2328C117.974 16.2328 118.727 16.8974 118.727 16.8974L120.648 14.3291C120.648 14.3291 118.971 13.009 116.307 13.009C113.797 13.009 111.631 14.8319 111.631 17.1398C111.64 21.0911 117.648 21.2617 117.648 22.7524C117.648 23.2463 117.15 23.6594 116.316 23.6594C114.476 23.6594 113.316 22.4201 113.316 22.4201L111.313 25.0693C111.313 25.0693 112.99 26.8922 116.316 26.8922C118.989 26.8922 121.318 25.2309 121.318 22.7614C121.318 18.8012 114.975 18.4689 114.975 17.1398Z" fill="#222222"/>
<path d="M126.656 17.1398C126.656 16.6549 127.327 16.2328 128.324 16.2328C129.656 16.2328 130.408 16.8974 130.408 16.8974L132.329 14.3291C132.329 14.3291 130.662 13.009 127.998 13.009C125.487 13.009 123.321 14.8319 123.321 17.1398C123.321 21.0911 129.33 21.2617 129.33 22.7524C129.33 23.2463 128.831 23.6594 127.998 23.6594C126.158 23.6594 124.998 22.4201 124.998 22.4201L122.995 25.0693C122.995 25.0693 124.663 26.8922 127.998 26.8922C130.671 26.8922 133 25.2309 133 22.7614C133 18.8012 126.656 18.4689 126.656 17.1398Z" fill="#222222"/>
<path d="M68.33 13.1347C64.4966 13.1347 61.3337 16.1071 61.3337 20.0674C61.3337 24.0276 64.2791 26.7935 67.9313 26.991C68.0581 27 68.1941 27 68.33 27C68.4659 27 68.5928 27 68.7288 26.991C72.3809 26.7935 75.3262 23.8929 75.3262 20.0674C75.3262 16.2418 72.1634 13.1347 68.33 13.1347ZM68.33 23.6953C66.3272 23.6953 64.9225 22.043 64.9225 20.0584C64.9225 18.0738 66.3362 16.4214 68.33 16.4214C70.3328 16.4214 71.7375 18.0738 71.7375 20.0584C71.7375 22.043 70.3328 23.6953 68.33 23.6953Z" fill="#222222"/>
<path d="M25.3284 18.415H20.6612V13.458H17V26.6677H20.6703V21.3784H25.3375V26.6677H29.0078V13.458H25.3284V18.415Z" fill="#222222"/>
<path d="M40.5081 21.3874C40.5081 23.0398 39.1669 23.6953 38.17 23.6953C37.1731 23.6953 35.8409 23.0398 35.8409 21.3874V13.458H32.1706V21.0552C32.1706 24.8538 34.9256 26.8294 37.7984 26.982C37.9253 26.991 38.0522 26.991 38.17 26.991C38.2969 26.991 38.4328 26.991 38.5687 26.982C41.4325 26.8204 44.1694 24.8358 44.1694 21.0552V13.458H40.5081V21.3874Z" fill="#222222"/>
<path d="M53.1594 21.3784H55.9959V23.0308C55.9959 23.0308 55.1622 23.6953 53.4947 23.6953C51.4919 23.6953 50.0872 22.043 50.0872 20.0584C50.0872 18.0738 51.5009 16.3406 53.4947 16.3406C54.99 16.3406 55.7422 17.0051 55.7422 17.0051L57.8266 14.4368C57.8266 14.4368 56.1681 13.1167 53.4947 13.1167C49.6612 13.1167 46.4984 16.0892 46.4984 20.0494C46.4984 24.0096 49.4528 26.7755 53.105 26.9731C53.2319 26.982 53.3678 26.982 53.5037 26.982C53.6578 26.982 53.8028 26.982 53.9478 26.9731C57.4822 26.8024 59.1587 24.6741 59.1587 24.6741V18.4779H53.1594V21.3784Z" fill="#222222"/>
</svg>
