<svg width="184" height="28" viewBox="0 0 184 28" fill="none" xmlns="http://www.w3.org/2000/svg">
<path d="M7.11156 12.9508L6.30413 13.082V18.0328L10.6208 12.918H9.50278V12.1639H12.9499V12.918L11.7698 13.082L8.75747 16.6885L12.0803 22.4262L13.2294 22.5574L13.2915 23.2459C12.7946 23.3443 12.0803 23.4098 11.7698 23.4098C11.3971 23.4098 11.1487 23.1803 10.9003 22.7869L7.88793 17.5082L6.27308 19.2787V22.5902H7.39105V23.3443H3.91291V22.5902L5.03089 22.4262V12.8852H4.28557C4.09924 12.8852 3.94397 12.7213 3.94397 12.5246V12.1639H7.39105V12.5902C7.39105 12.7869 7.26684 12.9508 7.11156 12.9508Z" fill="#212E33"/>
<path d="M17.6392 12.918L16.6143 13.082V22.6229H17.4528C17.546 22.6229 17.6081 22.6885 17.6081 22.7869V23.377H14.2852V22.7541C14.2852 22.6885 14.3473 22.6229 14.4095 22.6229L15.31 22.459V12.918H14.3163V12.5246C14.3163 12.3279 14.4716 12.1639 14.6579 12.1639H17.2665C17.4528 12.1639 17.6081 12.3279 17.6081 12.5246L17.6392 12.918Z" fill="#212E33"/>
<path d="M26.6451 21.082V12.918H25.6513V12.459C25.6513 12.2951 25.7755 12.1639 25.9308 12.1639H28.4463C28.6326 12.1639 28.8189 12.3279 28.8189 12.5574V12.918L27.7941 13.082V23.377H26.6451L20.962 14.459V22.6229H21.9558V23.377H18.7882V22.6229L19.813 22.459V13.0492L18.8192 12.9508L18.7882 12.5246C18.7882 12.3934 18.8814 12.2623 19.0056 12.2295C19.4714 12.1639 20.0614 12.0984 20.3409 12.0984C20.7757 12.0984 20.9931 12.2951 21.2105 12.6557L26.6451 21.082Z" fill="#212E33"/>
<path d="M38.1664 22.5574C37.2969 23.1803 36.1789 23.4754 35.0299 23.4754C32.0176 23.4754 30.2164 21.2787 30.2164 17.7705C30.2164 14.2623 32.0176 12.0656 34.9988 12.0656C36.1479 12.0656 37.2658 12.3934 38.1043 13.0164V15.0164L37.6074 15.0492C37.4211 15.0492 37.2348 14.918 37.2348 14.6885L37.1416 13.4098C36.6137 13.082 35.9615 12.8852 35.3094 12.8852C32.856 12.8852 31.5517 14.7213 31.5517 17.7049C31.5517 20.6557 32.825 22.5246 35.2783 22.5246C35.8684 22.5246 36.5205 22.3606 37.0174 22.0328V18.2623H35.2473V17.5082H38.1975L38.1664 18.4262V22.5574Z" fill="#212E33"/>
<path d="M46.986 20.459C46.986 22.2295 45.868 23.4754 43.5078 23.4754C42.4209 23.4754 41.2719 23.2131 40.3092 22.6557V20.5246L40.7439 20.4918C40.9613 20.459 41.1477 20.6557 41.1477 20.8852L41.2408 22.0656C41.8619 22.459 42.6383 22.5902 43.3215 22.5902C44.9053 22.5902 45.6506 21.7049 45.6506 20.5574C45.6506 17.6066 40.4334 18.6557 40.4334 14.918C40.4334 13.2131 41.4893 12.0984 43.601 12.0984C44.5326 12.0984 45.6196 12.2951 46.4891 12.8197V14.9508L46.0233 14.9836C45.8369 14.9836 45.6817 14.8525 45.6506 14.6557L45.5575 13.377C45.0295 13.1148 44.3153 12.9836 43.7252 12.9836C42.3588 12.9836 41.7067 13.8033 41.7067 14.8197C41.7067 17.6721 46.986 16.5902 46.986 20.459Z" fill="#212E33"/>
<path d="M57.203 12.0984C54.4081 12.0984 52.6069 14.3279 52.6069 17.8033C52.6069 21.2787 54.4081 23.4754 57.203 23.4754C59.998 23.4754 61.7992 21.3115 61.7992 17.8033C61.7992 14.2951 59.998 12.0984 57.203 12.0984ZM57.203 22.5902C55.1845 22.5902 53.9112 20.7541 53.9112 17.7705C53.9112 14.7869 55.1845 12.9508 57.203 12.9508C59.2216 12.9508 60.4638 14.7869 60.4638 17.7705C60.4638 20.7541 59.2216 22.5902 57.203 22.5902Z" fill="#212E33"/>
<path d="M63.2277 22.6229L64.2525 22.459V12.918H63.6003C63.414 12.918 63.2587 12.7541 63.2587 12.5574V12.1639H70.7429V14.2951L69.9355 14.3607L69.8113 12.9836H65.5568V17.1803H68.7865L69.2834 16.2951L69.8423 16.2295V18.9508L69.2834 19.0164L68.7554 18.0656H65.5257V22.6229H66.8611V23.377H63.1966L63.2277 22.6229Z" fill="#212E33"/>
<path d="M163.939 12.7869C161.951 12.7869 160.74 14.5246 160.74 17.3115C160.74 20.0984 161.982 21.8361 163.939 21.8361C165.895 21.8361 167.137 20.0984 167.137 17.3115C167.137 14.5246 165.926 12.7869 163.939 12.7869Z" fill="#212E33"/>
<path d="M95.3384 14.8525C95.3384 13.5738 94.593 12.8197 93.3509 12.8197H91.736V16.8852H93.3509C94.593 16.8852 95.3384 16.0984 95.3384 14.8525Z" fill="#212E33"/>
<path d="M139.064 18.5246H142.324L140.71 13.7049L139.064 18.5246Z" fill="#212E33"/>
<path d="M101.084 18.5246H104.344L102.729 13.7049L101.084 18.5246Z" fill="#212E33"/>
<path d="M85.6493 6.85246L88.0094 2.91803L82.9165 4.09836L80.6805 2.36066L78.134 0.360656L77.6682 0L74.4385 2.36066L72.0473 4.09836L67.0474 2.62295L69.656 6.85246H0V28H184V6.85246H85.6493ZM73.8484 26.3934H1.18008V8.45902H76.5502L73.8484 26.3934ZM79.1278 2.88525L82.5438 5.34426L85.2456 4.85246L84.0655 6.81967H78.3824L79.1278 2.88525ZM88.2889 14.0328L87.6989 14.0984C87.4505 14.1311 87.2331 13.9344 87.202 13.6721L87.1399 12.8197H84.904V21.9016H85.8356V22.9508H82.3885V21.9016L83.3512 21.7377V12.8197H81.1153L81.0532 13.6393C81.0221 13.8689 80.8668 14.0656 80.6495 14.0984L79.9973 14.1639V11.6721H88.32L88.2889 14.0328ZM105.059 22.9508C104.779 22.9508 104.593 22.7213 104.593 22.459V22.3607C104.593 22.1311 104.748 21.9016 104.996 21.8688L105.462 21.7705L104.748 19.7049H100.742L99.9966 21.9344H100.431C100.711 21.9344 100.897 22.1639 100.897 22.4262V22.9836C100.897 22.9836 96.3321 23.0492 96.0527 23.0492C95.6179 23.0492 95.2763 22.7869 95.121 22.3279L93.2888 18.0328H91.736V21.9344H92.264C92.4813 21.9344 92.6677 22.1311 92.6677 22.3607V22.4262C92.6677 22.7541 92.4192 23.0164 92.1087 23.0164H89.7485C89.438 23.0164 89.1895 22.7541 89.1895 22.4262V22.3279C89.1895 22.1311 89.3448 21.9344 89.5311 21.9016L90.1522 21.8033V12.7869H89.2206V11.7377H93.3509C95.4937 11.7377 96.8911 12.9836 96.8911 14.918C96.8911 16.3934 96.1148 17.4754 94.7484 17.9016L96.4874 21.8361L97.6365 21.9672L98.4128 21.8033L101.643 12.918L100.804 12.8197L100.742 11.8689L100.866 11.8361C101.394 11.7377 102.233 11.6721 102.574 11.6721C103.071 11.6721 103.413 11.9016 103.568 12.3934L107.077 21.9672H107.605C107.885 21.9672 108.071 22.1967 108.071 22.459L108.102 22.9508H105.059ZM118.133 12.6885L117.17 12.8525V22.918H115.866L110.742 14.5902V21.8688H111.27C111.487 21.8688 111.673 22.0656 111.673 22.2951V22.4262C111.673 22.6885 111.456 22.918 111.207 22.918H108.381V22.2623C108.381 22.0656 108.537 21.8689 108.723 21.8361L109.344 21.7377V12.8197L108.412 12.7213L108.35 11.7705L108.475 11.7377C108.94 11.6393 109.655 11.5738 109.996 11.5738C110.493 11.5738 110.742 11.8689 110.928 12.1967L115.804 20V12.7213H114.872V11.6721H118.133V12.6885ZM122.822 23.0492C121.642 23.0492 120.462 22.7541 119.53 22.2295L119.437 22.1967V19.8688L119.748 19.8361C120.213 19.8033 120.586 20.1639 120.617 20.6229L120.679 21.4098C121.207 21.7049 121.89 21.8688 122.636 21.8688C124.002 21.8688 124.84 21.1803 124.84 20.0328C124.84 18.7869 123.785 18.3279 122.542 17.8033C121.145 17.2131 119.592 16.5574 119.592 14.5246C119.592 12.6885 120.834 11.5738 122.946 11.5738C124.095 11.5738 125.151 11.8361 125.927 12.3279L126.021 12.3607V14.6885L125.679 14.7213C125.244 14.7541 124.872 14.4262 124.84 13.9672L124.778 13.1148C124.313 12.918 123.691 12.7869 123.101 12.7869C121.921 12.7869 121.207 13.377 121.207 14.3934C121.207 15.5738 122.263 16.0328 123.474 16.5246C124.903 17.1148 126.517 17.8033 126.517 19.9016C126.486 21.8689 125.12 23.0492 122.822 23.0492ZM127.729 22.9508V22.3279C127.729 22.0984 127.884 21.8689 128.132 21.8361L128.691 21.7377V12.7213H127.76V11.6721H131.176V12.7213L130.213 12.8852V21.8033H133.909L133.94 21.0492C133.971 20.7541 134.157 20.5574 134.436 20.5246L135.026 20.459L135.058 22.9508H127.729ZM142.542 22.9508V22.3607C142.542 22.0984 142.728 21.8689 142.977 21.8361L143.411 21.7705L142.697 19.7049H138.722L137.977 21.9344H138.287C138.629 21.9344 138.908 22.2295 138.908 22.5902V23.0164H135.461V22.5246C135.461 22.1967 135.679 21.9344 135.958 21.9016L136.393 21.8033L139.623 12.918L138.784 12.8197L138.722 11.8689L138.846 11.8361C139.374 11.7377 140.213 11.6721 140.554 11.6721C141.051 11.6721 141.393 11.9016 141.548 12.3934L145.057 21.9672H145.523C145.803 21.9672 146.051 22.1967 146.051 22.5246L146.082 22.9508H142.542ZM153.628 14.0328L153.38 14.0656C152.945 14.0984 152.541 13.7705 152.51 13.2787L152.479 12.7869H150.243V21.8688H150.74C150.989 21.8688 151.175 22.0656 151.175 22.3279V22.918H147.728V22.2623C147.728 22.0328 147.883 21.8361 148.101 21.8033L148.691 21.7049V12.8197H146.455L146.424 13.377C146.393 13.7705 146.113 14.0984 145.709 14.1311L145.306 14.1639V11.6721H153.628V14.0328ZM158.007 12.6885L157.044 12.8525V21.8688H157.417C157.728 21.8688 157.945 22.1311 157.945 22.4262V22.918H154.498V22.3607C154.498 22.0656 154.684 21.8361 154.964 21.8033L155.461 21.7049V12.6885H154.529V12.1639C154.529 11.9016 154.746 11.6721 154.995 11.6721H157.541C157.79 11.6721 158.007 11.9016 158.007 12.1639V12.6885ZM163.939 23.0492C160.988 23.0492 159.063 20.7869 159.063 17.3115C159.063 13.8361 160.988 11.5738 163.939 11.5738C166.889 11.5738 168.814 13.8361 168.814 17.3115C168.814 20.7869 166.889 23.0492 163.939 23.0492ZM179.466 12.0656C179.466 12.4262 179.218 12.7541 178.876 12.8197L178.503 12.8852V22.9508H177.199L172.075 14.6229V21.9016H172.448C172.758 21.9016 173.007 22.1639 173.007 22.4918V22.9508H169.715V22.4262C169.715 22.1311 169.901 21.8689 170.181 21.8361L170.677 21.7377V12.8197L170.305 12.7869C169.963 12.7541 169.715 12.459 169.684 12.1311L169.653 11.7705L169.777 11.7377C170.243 11.6393 170.957 11.5738 171.299 11.5738C171.795 11.5738 172.044 11.8689 172.23 12.1967L177.106 20V12.7213H176.888C176.485 12.7213 176.174 12.3934 176.174 11.9672V11.6721H179.466V12.0656Z" fill="#212E33"/>
</svg>
