<svg width="82" height="34" viewBox="0 0 82 34" fill="none" xmlns="http://www.w3.org/2000/svg">
<path d="M0.877996 0.501953H81.188V33.4981H0.877996V0.501953Z" fill="black"/>
<path d="M0.877996 0.501953H81.188V33.4981H0.877996V0.501953Z" fill="black"/>
<path d="M75.0509 23.5992C74.9849 23.5992 74.9849 23.5332 74.9189 23.5332C74.8529 23.4672 74.8529 23.4672 74.8529 23.4012V12.6445H71.0915C71.0255 12.6445 71.0255 12.5785 70.9595 12.5785C70.8935 12.5125 70.8935 12.5125 70.8935 12.4465V10.7307C70.8935 10.6648 70.9595 10.6648 70.9595 10.5988C71.0255 10.5328 71.0255 10.5328 71.0915 10.5328H80.99C81.056 10.5328 81.056 10.5988 81.122 10.5988C81.188 10.6648 81.188 10.6648 81.188 10.7307V12.4465C81.188 12.5125 81.122 12.5125 81.122 12.5785C81.056 12.6445 81.056 12.6445 80.99 12.6445H77.2286V23.4012C77.2286 23.4672 77.1626 23.4672 77.1626 23.5332C77.0966 23.5992 77.0966 23.5992 77.0306 23.5992H75.0509ZM47.467 18.3198L45.5533 12.9085L43.7056 18.3198H47.467ZM51.6904 23.2033V23.3353C51.6904 23.4012 51.6904 23.4672 51.6244 23.4672C51.6244 23.5332 51.5584 23.5332 51.4924 23.5992C51.4264 23.5992 51.4264 23.6652 51.3605 23.6652H49.7107C49.4467 23.6652 49.3148 23.5332 49.2488 23.3353L48.2589 20.5636H42.9137L41.9239 23.3353C41.8579 23.5992 41.6599 23.6652 41.4619 23.6652H39.8122C39.7462 23.6652 39.6802 23.6652 39.6802 23.5992C39.6142 23.5992 39.6142 23.5332 39.5482 23.4672C39.5482 23.4012 39.4822 23.4012 39.4822 23.3353V23.2033L43.9696 10.7967C44.0355 10.5328 44.2335 10.4668 44.4315 10.4668H46.6752C46.9391 10.4668 47.0711 10.5328 47.2031 10.7967L51.6904 23.2033ZM64.4925 21.8174C65.5483 21.8174 66.2742 21.2895 66.8021 20.4316L64.1625 17.5939C63.1067 18.1879 62.4468 18.7158 62.4468 19.9037C62.5128 21.0255 63.4366 21.8174 64.4925 21.8174ZM65.2184 12.1826C64.3605 12.1826 63.8326 12.7105 63.8326 13.4364C63.8326 14.0304 64.0965 14.4923 64.8224 15.2182C66.0103 14.5583 66.4722 14.1623 66.4722 13.4364C66.5382 12.7105 66.0763 12.1826 65.2184 12.1826ZM72.5433 23.1373C72.7413 23.4012 72.6093 23.5992 72.3453 23.5992H70.2336C69.9697 23.5992 69.8377 23.5332 69.6397 23.3353L68.3859 21.9494C67.528 23.0713 66.3402 23.9292 64.4265 23.9292C62.0509 23.9292 60.1371 22.4774 60.1371 19.9697C60.1371 18.0559 61.193 17.066 62.7108 16.2081C61.9849 15.2842 61.5889 14.3603 61.5889 13.5684C61.5889 11.5226 63.0407 10.1368 65.1524 10.1368C67.3961 10.1368 68.7159 11.4567 68.7159 13.3704C68.7159 15.0202 67.528 15.9441 66.2742 16.604L68.1219 18.5838L69.1778 16.736C69.3098 16.5381 69.4417 16.4061 69.7057 16.4061H71.2895C71.5534 16.4061 71.6854 16.604 71.5534 16.868L69.7057 20.0356L72.5433 23.1373ZM56.2437 23.5992C56.3097 23.5992 56.3097 23.5332 56.3757 23.5332C56.4417 23.4672 56.4417 23.4672 56.4417 23.4012V12.6445H60.2031C60.2691 12.6445 60.2691 12.5785 60.3351 12.5785C60.4011 12.5125 60.4011 12.5125 60.4011 12.4465V10.7307C60.4011 10.6648 60.3351 10.6648 60.3351 10.5988C60.2691 10.5328 60.2691 10.5328 60.2031 10.5328H50.3046C50.2386 10.5328 50.2386 10.5988 50.1726 10.5988C50.1066 10.6648 50.1066 10.6648 50.1066 10.7307V12.4465C50.1066 12.5125 50.1726 12.5125 50.1726 12.5785C50.2386 12.6445 50.2386 12.6445 50.3046 12.6445H54.066V23.4012C54.066 23.4672 54.132 23.4672 54.132 23.5332C54.198 23.5992 54.198 23.5992 54.264 23.5992H56.2437Z" fill="#222222"/>
<path d="M7.27904 30.0005C10.3146 32.3762 14.076 33.564 17.9035 33.4321C21.7309 33.3001 25.4263 31.8482 28.2639 29.3405C28.2639 29.2745 28.3299 29.3405 28.2639 29.3405C26.9441 30.1984 23.2486 32.1122 17.3755 32.1122C12.2943 32.1122 9.12676 30.9903 7.27904 30.0005ZM18.4974 30.8584C22.5888 30.8584 27.0101 29.7365 29.7157 27.5588C30.4416 26.9648 31.1675 26.1729 31.7614 25.117C32.1573 24.4571 32.4873 23.7972 32.7512 23.0713C32.7512 23.0053 32.7512 23.0053 32.6852 23.0713C30.1776 26.7009 22.9847 29.0106 15.5938 29.0106C10.3146 29.0106 4.70542 27.3608 2.46176 24.1272C4.50745 28.4826 10.7765 30.8584 18.4974 30.8584ZM14.076 23.5992C5.62928 23.5992 1.60389 19.7057 0.877994 17C0.877994 16.934 0.812004 17 0.812004 17C0.812004 17.9239 0.877994 19.0458 1.07596 19.8377C1.14195 20.2336 1.47191 20.8275 1.93384 21.2895C3.97953 23.4012 9.06077 26.4369 17.9035 26.4369C29.9137 26.4369 32.6852 22.4114 33.2791 21.0915C33.6751 20.1676 33.8731 18.4518 33.8731 17V16.0761C33.8731 16.0101 33.8731 16.0101 33.8071 16.0761C33.2132 19.3097 22.9847 23.5992 14.076 23.5992ZM2.46176 9.93884C1.99983 10.9287 1.47191 12.5125 1.27394 13.3704C1.20794 13.7004 1.20794 13.8984 1.33993 14.1623C2.32978 16.3401 7.47701 19.7717 19.4212 19.7717C26.6801 19.7717 32.3553 17.9899 33.2791 14.6903C33.4771 14.0963 33.4771 13.4364 33.2132 12.5785C32.9492 11.6546 32.4873 10.5328 32.1573 9.74086C32.2893 14.0304 20.3451 16.802 14.34 16.802C7.80696 16.802 2.32978 14.2283 2.32978 10.9287C2.32978 10.5988 2.39577 10.2688 2.46176 9.93884C2.52775 9.87284 2.46176 9.87284 2.46176 9.93884ZM28.2639 4.65946C28.3299 4.79145 28.3959 4.92343 28.3959 5.05541C28.3959 6.9032 22.7867 10.1368 13.8781 10.1368C7.34503 10.1368 6.09122 7.6951 6.09122 6.17728C6.09122 5.64934 6.28919 5.05541 6.75112 4.46148C6.75112 4.39549 6.75112 4.39549 6.75112 4.46148C5.82725 5.12141 5.10136 5.97931 4.37547 6.8372C4.04552 7.23316 3.84755 7.62911 3.84755 7.82709C3.84755 11.0607 11.8983 13.3704 19.4212 13.3704C27.406 13.3704 31.0355 10.7307 31.0355 8.48701C31.0355 7.6951 30.7055 7.16716 29.9137 6.24327C29.3857 5.64934 28.8578 5.12141 28.2639 4.65946ZM25.8223 2.81168C23.2486 1.29386 20.2791 0.501953 17.3095 0.501953C14.34 0.501953 11.3704 1.35985 8.79681 2.87767C8.07092 3.33962 7.60899 3.73557 7.60899 4.19752C7.60899 5.58335 10.8425 7.10117 16.6496 7.10117C22.3908 7.10117 26.8121 5.45137 26.8121 3.86755C26.8121 3.4716 26.4822 3.20763 25.8223 2.81168Z" fill="#00A8E0"/>
</svg>
