<svg width="150" height="40" viewBox="0 0 150 40" fill="none" xmlns="http://www.w3.org/2000/svg">
<path d="M52.4625 13.0032H49.2844V27.0064H58.3594V24.1828H52.4625V13.0032Z" fill="#0A1D3D"/>
<path d="M26.8594 17.5305C26.0344 19.3396 24.7594 20.3637 23.3344 20.3637C22.6875 20.3637 21.9844 20.1244 21.0563 19.6076L19.9594 18.9854L20.1656 18.8227L22.275 19.7607L22.5469 19.5406L18.4406 17.6167L18.0094 17.9613L16.7531 17.4157L16.7625 17.9038C18.6188 18.7461 19.4531 19.2247 21.8344 20.871C24.3094 22.5843 27.2344 23.8286 30.0188 24.3646L30.6938 23.6946H30.5156C28.5844 23.6946 26.5969 22.8523 25.3781 21.5219C26.6531 20.7274 27.8906 20.3829 29.4563 20.3829C30.0656 20.3829 30.75 20.4211 31.3125 20.4977L31.7344 20.0861C30.9375 19.9617 30.1031 19.9043 29.2219 19.9043C28.6031 19.9043 28.0875 19.9234 27.6188 19.9809C27.6844 19.9139 27.8906 19.6746 27.975 19.5884C28.3313 19.5693 28.725 19.5597 29.0813 19.5597C30.0656 19.5597 31.1625 19.6459 32.0531 19.7799L32.475 19.3683C31.2938 19.1768 30.2063 19.0907 29.0438 19.0907C28.7063 19.0907 28.4625 19.0907 28.3406 19.1003C28.4531 18.9663 28.5656 18.8131 28.6125 18.7366C28.6594 18.7366 28.7063 18.7366 28.9125 18.7366C30.3281 18.7366 31.4344 18.8323 32.7656 19.0716L33.1875 18.66C31.7062 18.392 30.375 18.2675 28.9031 18.2675C28.9969 18.1144 29.0625 18.0091 29.1 17.9325C29.1375 17.9325 29.2031 17.923 29.2781 17.923C30.4875 17.923 32.3812 18.1144 33.4969 18.3537L33.9375 17.923C32.1469 17.5784 30.5625 17.4253 28.9313 17.4253C28.1344 17.4157 27.4781 17.454 26.8594 17.5305Z" fill="#0A1D3D"/>
<path d="M65.4844 22.68C65.4844 24.0201 64.8188 24.6231 63.7406 24.6231C62.55 24.6231 61.9781 24.0201 61.9781 22.68V16.918H59.0156V22.8236C59.0156 26.1449 60.3281 27.3031 62.8594 27.3031C64.4062 27.3031 65.25 26.6235 65.6625 25.8386V26.9968H68.4469V16.918H65.4844V22.68Z" fill="#0A1D3D"/>
<path d="M25.2844 9.5C19.5938 9.5 15 14.1901 15 20C15 25.8099 19.5938 30.5 25.2844 30.5C30.975 30.5 35.5688 25.8099 35.5688 20C35.5688 14.1901 30.975 9.5 25.2844 9.5ZM25.2844 29.8683C19.95 29.8683 15.6188 25.4462 15.6188 20C15.6188 14.5538 19.95 10.1317 25.2844 10.1317C30.6187 10.1317 34.95 14.5538 34.95 20C34.95 25.4462 30.6281 29.8683 25.2844 29.8683Z" fill="#0A1D3D"/>
<path d="M70.7156 16.5447V16.9275H69.225V19.3874H70.7156V27.0064H73.6781V19.3874H75.8531V16.918H73.6781V16.5255C73.6781 15.6449 74.1656 15.3291 75.0937 15.3291C75.45 15.3291 75.8625 15.3674 75.8625 15.3674V12.917C75.8625 12.917 75.375 12.7926 74.6063 12.7926C72.225 12.8022 70.7156 14.1039 70.7156 16.5447Z" fill="#0A1D3D"/>
<path d="M99.5813 16.6212C96.6656 16.6212 95.25 17.7603 95.1375 19.9043H98.0156C98.0531 19.3396 98.3719 18.928 99.5813 18.928C100.659 18.928 101.166 19.2917 101.166 19.8277C101.166 20.3063 100.875 20.4882 100.144 20.5647L98.2594 20.7657C95.7094 21.0433 94.5563 22.1249 94.5563 24.0871C94.5563 25.9057 95.6531 27.3031 97.9875 27.3031C99.5719 27.3031 100.519 26.7862 101.334 25.7429V27.0064H104.034V20.3829C104.053 17.5975 102.459 16.6212 99.5813 16.6212ZM101.231 23.082C101.231 24.1828 100.209 25.0059 98.6438 25.0059C97.875 25.0059 97.425 24.6422 97.425 23.9626C97.425 23.4458 97.7438 23.0055 98.7375 22.8619L100.444 22.6226C100.734 22.5843 101.053 22.5269 101.231 22.4599V23.082Z" fill="#0A1D3D"/>
<path d="M130.528 16.6212C127.613 16.6212 126.197 17.7603 126.084 19.9043H128.963C129 19.3396 129.319 18.928 130.528 18.928C131.606 18.928 132.112 19.2917 132.112 19.8277C132.112 20.3063 131.822 20.4882 131.091 20.5647L129.206 20.7657C126.656 21.0433 125.503 22.1249 125.503 24.0871C125.503 25.9057 126.6 27.3031 128.934 27.3031C130.519 27.3031 131.466 26.7862 132.281 25.7429V27.0064H135V20.3829C135 17.5975 133.416 16.6212 130.528 16.6212ZM132.178 23.082C132.178 24.1828 131.156 25.0059 129.591 25.0059C128.822 25.0059 128.381 24.6422 128.381 23.9626C128.381 23.4458 128.691 23.0055 129.694 22.8619L131.4 22.6226C131.691 22.5843 132.009 22.5269 132.188 22.4599V23.082H132.178Z" fill="#0A1D3D"/>
<path d="M121.013 20.6796L119.972 20.536C119.128 20.4116 118.894 20.1723 118.894 19.732C118.894 19.2917 119.269 18.9471 120.244 18.9471C121.219 18.9471 121.556 19.3108 121.65 19.8851H124.528C124.388 17.7028 122.944 16.6021 120.234 16.6021C117.319 16.6021 115.922 18.0187 115.922 19.9426C115.922 21.8665 117.178 22.8045 119.353 23.1012L120.394 23.2448C121.416 23.3883 121.8 23.6276 121.8 24.1445C121.8 24.7092 121.331 24.9868 120.178 24.9868C119.025 24.9868 118.528 24.6231 118.453 23.8861H115.537C115.594 25.9057 116.794 27.284 120.178 27.284C123.291 27.284 124.763 26.0205 124.763 23.9052C124.772 21.7995 123.516 21.0242 121.013 20.6796Z" fill="#0A1D3D"/>
<path d="M110.897 16.6212C109.312 16.6212 108.469 17.3008 108.056 18.0857V16.918H105.272V26.9968H108.234V21.2347C108.234 19.8947 108.9 19.2917 110.016 19.2917C111.253 19.2917 111.816 19.8947 111.816 21.2347V26.9968H114.778V21.0912C114.769 17.7794 113.456 16.6212 110.897 16.6212Z" fill="#0A1D3D"/>
<path d="M81.0656 13.9795H78.1031V16.918H76.6125V19.3778H78.1031V23.6372C78.1031 26.0779 79.5375 27.1787 81.9 27.1787C82.6219 27.1787 83.3063 27.016 83.3063 27.016V24.5943C83.3063 24.5943 82.8187 24.6518 82.4625 24.6518C81.6 24.6518 81.0469 24.3742 81.0469 23.2926V19.3683H83.2969V16.918H81.0469V13.9795H81.0656Z" fill="#0A1D3D"/>
<path d="M89.8687 16.6212C88.4812 16.6212 87.675 17.1668 87.1687 17.9038V13.0223H84.1875V27.0064H87.15V21.2443C87.15 19.9043 87.8156 19.3013 88.9312 19.3013C90.1687 19.3013 90.7312 19.9043 90.7312 21.2443V27.0064H93.6937V21.1007C93.6844 17.7794 92.3719 16.6212 89.8687 16.6212Z" fill="#0A1D3D"/>
</svg>
