<svg width="150" height="40" viewBox="0 0 150 40" fill="none" xmlns="http://www.w3.org/2000/svg">
<path d="M50.9075 12.6684C46.3207 12.6684 42.5 14.6088 42.5 20.4684C42.5 25.114 45.0663 28.0294 51.0224 28.0294C58.0318 28.0294 58.4819 23.4221 58.4819 23.4221H55.0825C55.0825 23.4221 54.3547 25.9074 50.8117 25.9074C47.9294 25.9074 45.8515 23.9669 45.8515 21.2331H58.8266V19.5221C58.8362 16.8265 57.1221 12.6684 50.9075 12.6684ZM50.783 14.8574C53.5312 14.8574 55.3985 16.5397 55.3985 19.0537H45.9281C45.9281 16.3868 48.3795 14.8574 50.783 14.8574Z" fill="#E53238"/>
<path d="M58.8362 7V25.0949C58.8362 26.1176 58.7596 27.561 58.7596 27.561H61.9961C61.9961 27.561 62.1111 26.5287 62.1111 25.5824C62.1111 25.5824 63.7102 28.0772 68.0672 28.0772C72.6539 28.0772 75.766 24.9037 75.766 20.3537C75.766 16.1191 72.9029 12.7162 68.0767 12.7162C63.557 12.7162 62.1494 15.1537 62.1494 15.1537V7H58.8362ZM67.2436 14.9529C70.3558 14.9529 72.3379 17.2566 72.3379 20.3537C72.3379 23.6706 70.0493 25.8404 67.2724 25.8404C63.9496 25.8404 62.1589 23.25 62.1589 20.3824C62.1494 17.7059 63.7581 14.9529 67.2436 14.9529Z" fill="#1D428A"/>
<path d="M83.8097 12.6684C76.9151 12.6684 76.4651 16.4346 76.4651 17.0368H79.9028C79.9028 17.0368 80.0847 14.8382 83.5703 14.8382C85.8397 14.8382 87.5921 15.8706 87.5921 17.8684V18.5757H83.5703C78.227 18.5757 75.4022 20.1338 75.4022 23.3074C75.4022 26.4809 78.0163 28.125 81.5498 28.125C86.3568 28.125 87.9081 25.4772 87.9081 25.4772C87.9081 26.5287 87.9847 27.5706 87.9847 27.5706H91.0393C91.0393 27.5706 90.9244 26.2801 90.9244 25.4581V18.3368C90.9148 13.6529 87.142 12.6684 83.8097 12.6684ZM87.6016 20.7074V21.6537C87.6016 22.8868 86.8356 25.9551 82.3541 25.9551C79.8932 25.9551 78.8399 24.7316 78.8399 23.3074C78.8399 20.7265 82.3924 20.7074 87.6016 20.7074Z" fill="#FFC72C"/>
<path d="M89.0667 13.261H92.9257L98.4701 24.3493L104.005 13.261H107.5L97.4263 33H93.7588L96.6699 27.4941L89.0667 13.261Z" fill="#86B817"/>
</svg>
