<svg width="32" height="25" viewBox="0 0 32 25" fill="none" xmlns="http://www.w3.org/2000/svg">
<path d="M31.0533 6.66003C30.4965 5.30788 29.6469 4.09597 28.5657 3.11152C27.4844 2.12707 26.1983 1.39456 24.8 0.966692C22.9135 0.385928 20.8993 0.362777 19 0.900026C17.1717 1.50808 15.6055 2.72156 14.56 4.34003C14.211 3.89074 13.7977 3.49538 13.3333 3.16669C12.1197 2.34237 10.6631 1.95238 9.2 2.06003C8.00739 2.28092 6.92569 2.90172 6.13333 3.82003C5.43107 4.60718 4.96846 5.57868 4.8 6.62003C4.70233 6.61338 4.60433 6.61338 4.50666 6.62003C3.99079 6.637 3.48146 6.74067 3 6.92669C2.20316 7.22098 1.50854 7.73963 0.999998 8.42003C0.49212 9.09886 0.170387 9.8986 0.0666643 10.74C-0.160501 12.3713 0.224218 14.0289 1.14666 15.3934C1.46711 15.8515 1.83836 16.272 2.25333 16.6467C2.52535 16.8989 2.83594 17.1059 3.17333 17.26C3.22904 17.2928 3.2908 17.3141 3.35491 17.3224C3.41902 17.3308 3.48416 17.3261 3.54643 17.3087C3.60869 17.2913 3.66679 17.2614 3.71723 17.221C3.76768 17.1806 3.80944 17.1303 3.84 17.0734C3.87146 16.9842 3.87424 16.8874 3.84794 16.7965C3.82164 16.7056 3.76758 16.6253 3.69333 16.5667C3.33884 16.3662 3.02644 16.0991 2.77333 15.78C2.51887 15.4741 2.29554 15.1436 2.10666 14.7934C1.47295 13.6295 1.26098 12.2823 1.50666 10.98C1.60894 10.235 1.90812 9.53082 2.37333 8.94003C2.68136 8.54928 3.06731 8.22689 3.50666 7.99336C3.95281 7.75506 4.44272 7.6099 4.94666 7.56669C5.48724 7.50692 6.03276 7.50692 6.57333 7.56669C6.62243 7.57627 6.67296 7.57588 6.72191 7.56555C6.77086 7.55522 6.81724 7.53515 6.85828 7.50655C6.89932 7.47794 6.9342 7.44138 6.96084 7.39903C6.98747 7.35668 7.00532 7.30941 7.01333 7.26003C7.01888 7.21061 7.01413 7.16057 6.99938 7.11308C6.98463 7.06558 6.9602 7.02166 6.92763 6.98408C6.89506 6.9465 6.85505 6.91607 6.81014 6.89472C6.76522 6.87337 6.71637 6.86156 6.66666 6.86003C6.31072 6.76973 5.95021 6.69851 5.58666 6.64669C5.85746 5.87549 6.31563 5.18365 6.92 4.63336C7.57308 3.99559 8.42466 3.60039 9.33333 3.51336C10.0032 3.44063 10.6809 3.5134 11.32 3.72669C11.9914 3.92151 12.6232 4.23293 13.1867 4.64669C13.5624 4.89643 13.8773 5.22735 14.1081 5.61505C14.3389 6.00275 14.4796 6.43732 14.52 6.88669C14.5089 6.94996 14.5117 7.0149 14.5283 7.07695C14.545 7.139 14.575 7.19666 14.6163 7.24586C14.6576 7.29507 14.7092 7.33464 14.7674 7.36178C14.8256 7.38893 14.8891 7.403 14.9533 7.403C15.0176 7.403 15.081 7.38893 15.1393 7.36178C15.1975 7.33464 15.2491 7.29507 15.2904 7.24586C15.3317 7.19666 15.3617 7.139 15.3783 7.07695C15.395 7.0149 15.3978 6.94996 15.3867 6.88669C15.4384 6.22013 15.2948 5.55293 14.9733 4.96669C15.0292 4.9416 15.0758 4.89963 15.1067 4.84669C16.1167 3.41257 17.5986 2.37902 19.2933 1.92669C20.9853 1.54577 22.752 1.67096 24.3733 2.28669C25.5638 2.67501 26.6566 3.31555 27.577 4.16463C28.4974 5.0137 29.2238 6.05132 29.7067 7.20669C30.8055 9.53911 31.0326 12.188 30.3467 14.6734C30.1941 15.2035 29.9793 15.7137 29.7067 16.1934C29.4444 16.635 29.0601 16.9915 28.6 17.22C28.4984 17.2741 28.4212 17.3649 28.3841 17.4738C28.3469 17.5828 28.3526 17.7018 28.4 17.8067C28.4541 17.9083 28.5449 17.9855 28.6538 18.0226C28.7628 18.0598 28.8818 18.0541 28.9867 18.0067C29.4751 17.7789 29.9075 17.4466 30.2533 17.0334C30.7198 16.4292 31.0764 15.7477 31.3067 15.02C32.2571 12.2976 32.1668 9.31989 31.0533 6.66003Z" fill="#1D1C19"/>
<path d="M11.2 16.1534C11.1109 15.9641 11.0084 15.7814 10.8933 15.6067C10.7794 15.4193 10.6453 15.2449 10.4933 15.0867L9.73333 14.4334C9.44728 14.2087 9.09825 14.079 8.73494 14.0623C8.37162 14.0455 8.01215 14.1426 7.70666 14.34C7.25944 14.6503 6.90834 15.08 6.69333 15.58C6.41804 16.1894 6.21661 16.8295 6.09333 17.4867C5.80427 19.0205 5.74585 20.5889 5.92 22.14C5.92 22.82 6.10666 23.4734 6.24 24.1667C6.24487 24.2171 6.25995 24.266 6.28432 24.3104C6.30869 24.3548 6.34184 24.3938 6.38176 24.425C6.42167 24.4562 6.46751 24.4789 6.51649 24.4918C6.56547 24.5047 6.61657 24.5075 6.66666 24.5C6.76811 24.4836 6.85933 24.4287 6.92139 24.3467C6.98346 24.2648 7.0116 24.1621 7 24.06C6.90427 23.4066 6.85526 22.7471 6.85333 22.0867C6.85333 21.6067 6.85333 21.1134 6.92 20.6334C7.27675 20.701 7.6375 20.7456 8 20.7667C8.25738 20.7869 8.51595 20.7869 8.77333 20.7667C9.03094 20.7799 9.28905 20.7799 9.54666 20.7667C10.0443 20.7036 10.5383 20.6146 11.0267 20.5C11.1441 21.4603 11.2108 22.4261 11.2267 23.3934C11.2446 23.4953 11.2979 23.5876 11.3771 23.6541C11.4564 23.7206 11.5565 23.7571 11.66 23.7571C11.7635 23.7571 11.8636 23.7206 11.9429 23.6541C12.0221 23.5876 12.0754 23.4953 12.0933 23.3934C12.1912 21.9401 12.16 20.4811 12 19.0334C11.8678 18.041 11.5985 17.0718 11.2 16.1534ZM9.44 19.3534H8.66666C8.4137 19.334 8.15963 19.334 7.90666 19.3534C7.62346 19.3817 7.34271 19.4307 7.06666 19.5C7.06666 19.2334 7.14666 18.9534 7.2 18.6867C7.25333 18.42 7.33333 18.0734 7.41333 17.7667C7.56666 17.1313 7.80906 16.5208 8.13333 15.9534C8.32 15.6467 8.57333 15.3934 8.94666 15.6334C9.57333 16.14 9.33333 15.8867 9.97333 16.7534C10.3802 17.5245 10.6722 18.3511 10.84 19.2067V19.46L9.44 19.3534Z" fill="#1D1C19"/>
<path d="M18.6667 14.0467C17.85 13.9119 17.0167 13.9119 16.2 14.0467C15.6668 14.0522 15.1388 14.1515 14.64 14.34C14.3341 14.4835 14.0785 14.7158 13.9067 15.0067C13.7944 15.1992 13.7218 15.4123 13.6933 15.6334C13.6602 15.9881 13.6602 16.3452 13.6933 16.7L14.36 23.78C14.36 23.8826 14.4007 23.9809 14.4733 24.0534C14.5458 24.126 14.6441 24.1667 14.7467 24.1667C14.8492 24.1667 14.9476 24.126 15.0201 24.0534C15.0926 23.9809 15.1333 23.8826 15.1333 23.78V19.5267C16.6211 19.7873 18.1518 19.4572 19.4 18.6067C19.6686 18.4533 19.9041 18.2482 20.0932 18.0034C20.2822 17.7586 20.421 17.4789 20.5015 17.1802C20.5821 16.8816 20.6028 16.57 20.5625 16.2634C20.5222 15.9567 20.4216 15.661 20.2667 15.3934C20.1126 15.0669 19.89 14.7776 19.6138 14.5452C19.3377 14.3128 19.0146 14.1427 18.6667 14.0467ZM18.1333 17.9267C17.2568 18.4789 16.2107 18.6966 15.1867 18.54H15.0667V16.0067C15.0712 15.8957 15.0984 15.7868 15.1467 15.6867C15.2133 15.58 15.3467 15.5667 15.4667 15.54C15.7437 15.4882 16.0248 15.4614 16.3067 15.46C16.9601 15.3538 17.6265 15.3538 18.28 15.46C18.4351 15.4912 18.5818 15.5548 18.7105 15.6467C18.8391 15.7386 18.9469 15.8568 19.0267 15.9934C19.5067 16.78 18.88 17.46 18.0933 17.9267H18.1333Z" fill="#1D1C19"/>
<path d="M27.32 14.7534C26.5326 14.5725 25.7278 14.4786 24.92 14.4734C24.473 14.476 24.027 14.5162 23.5867 14.5934C22.9067 14.7 22.2533 14.8867 21.5733 14.9667C21.473 14.9666 21.3767 15.0055 21.3045 15.0752C21.2324 15.1448 21.1901 15.2398 21.1867 15.34C21.183 15.3901 21.1896 15.4405 21.2059 15.488C21.2222 15.5355 21.2479 15.5793 21.2815 15.6166C21.3151 15.654 21.356 15.6842 21.4015 15.7054C21.4471 15.7266 21.4964 15.7384 21.5467 15.74C22.3271 15.9047 23.1223 15.9896 23.92 15.9934H24.2933C24.2267 16.78 24.12 17.5667 24.08 18.3934V22.4067C23.7887 22.427 23.4992 22.4671 23.2133 22.5267C22.5867 22.6734 22 22.9 21.3467 23.02C21.2581 23.0367 21.1781 23.0838 21.1205 23.1532C21.063 23.2226 21.0315 23.3099 21.0315 23.4C21.0315 23.4902 21.063 23.5775 21.1205 23.6469C21.1781 23.7163 21.2581 23.7634 21.3467 23.78C21.9255 23.8576 22.5096 23.8888 23.0933 23.8734H24.1467C24.5067 23.8734 25.12 23.8734 25.6133 23.7934C26.1414 23.7759 26.6674 23.7179 27.1867 23.62C27.2499 23.6312 27.3149 23.6283 27.3769 23.6117C27.439 23.595 27.4966 23.565 27.5458 23.5237C27.595 23.4824 27.6346 23.4308 27.6618 23.3726C27.6889 23.3144 27.703 23.2509 27.703 23.1867C27.703 23.1224 27.6889 23.059 27.6618 23.0008C27.6346 22.9425 27.595 22.891 27.5458 22.8497C27.4966 22.8084 27.439 22.7783 27.3769 22.7617C27.3149 22.7451 27.2499 22.7422 27.1867 22.7534C26.4933 22.7534 25.8533 22.5267 25.1067 22.4467C25.231 21.7192 25.3068 20.9842 25.3333 20.2467C25.3333 19.8734 25.4133 19.5 25.44 19.1267C25.4667 18.7534 25.44 18.38 25.44 18.0067C25.3699 17.295 25.2631 16.5874 25.12 15.8867H25.2267C25.8878 15.7629 26.5556 15.6784 27.2267 15.6334C27.3413 15.6408 27.4542 15.6031 27.5414 15.5283C27.6286 15.4536 27.6831 15.3477 27.6933 15.2334C27.7008 15.1773 27.697 15.1202 27.6822 15.0656C27.6674 15.011 27.6419 14.9599 27.6072 14.9152C27.5724 14.8705 27.5291 14.8332 27.4798 14.8054C27.4305 14.7776 27.3762 14.7599 27.32 14.7534Z" fill="#1D1C19"/>
</svg>
