<svg width="32" height="33" viewBox="0 0 32 33" fill="none" xmlns="http://www.w3.org/2000/svg">
<path fill-rule="evenodd" clip-rule="evenodd" d="M31.5597 24.6734C31.2348 23.4269 30.5969 22.2841 29.7064 21.3534C29.0141 20.7523 28.2065 20.2986 27.333 20.02C26.4796 19.7128 25.5707 19.5901 24.6664 19.66C23.7522 19.6965 22.8581 19.9384 22.0502 20.3678C21.2423 20.7971 20.5415 21.4028 19.9997 22.14C19.4427 22.8721 19.0487 23.7148 18.844 24.6117C18.6393 25.5085 18.6288 26.4388 18.813 27.34C19.2716 29.1933 20.4337 30.7954 22.053 31.8067C22.8883 32.2367 23.8092 32.4743 24.7482 32.5019C25.6873 32.5296 26.6206 32.3467 27.4797 31.9667C27.5278 31.9483 27.5719 31.9206 27.6094 31.8852C27.6468 31.8498 27.6769 31.8073 27.698 31.7603C27.719 31.7132 27.7306 31.6625 27.732 31.611C27.7335 31.5595 27.7247 31.5082 27.7064 31.46C27.688 31.4119 27.6603 31.3678 27.6249 31.3304C27.5895 31.2929 27.547 31.2628 27.5 31.2418C27.4529 31.2207 27.4022 31.2091 27.3507 31.2077C27.2992 31.2062 27.2478 31.215 27.1997 31.2334C26.4559 31.5236 25.6564 31.6431 24.8603 31.5831C24.0641 31.5231 23.2916 31.2851 22.5997 30.8867C21.2896 29.9571 20.3986 28.5487 20.1197 26.9667C20.0209 26.2741 20.0658 25.5687 20.2516 24.8942C20.4374 24.2198 20.7601 23.5909 21.1997 23.0467C21.6294 22.4929 22.176 22.0408 22.8006 21.7227C23.4253 21.4046 24.1124 21.2284 24.813 21.2067H24.973C25.6335 21.1548 26.2975 21.2457 26.9197 21.4734C27.5998 21.6356 28.2395 21.9351 28.7997 22.3534C29.5641 23.0884 30.1285 24.0062 30.4397 25.02C30.7791 26.0232 30.7791 27.1102 30.4397 28.1133C30.283 28.5382 30.0578 28.9346 29.773 29.2867C29.4818 29.6512 29.1509 29.9821 28.7864 30.2734C28.7327 30.3074 28.6868 30.3523 28.6516 30.4052C28.6164 30.4581 28.5927 30.5178 28.5821 30.5805C28.5715 30.6432 28.5741 30.7073 28.5899 30.7689C28.6057 30.8305 28.6343 30.888 28.6737 30.9378C28.7132 30.9876 28.7627 31.0286 28.819 31.058C28.8754 31.0874 28.9372 31.1047 29.0007 31.1087C29.0641 31.1127 29.1276 31.1033 29.1872 31.0811C29.2467 31.0589 29.301 31.0245 29.3464 30.98C29.7781 30.6617 30.1718 30.2949 30.5197 29.8867C30.8971 29.4783 31.2036 29.0096 31.4264 28.5C31.8986 27.2755 31.9455 25.9278 31.5597 24.6734Z" fill="black"/>
<path fill-rule="evenodd" clip-rule="evenodd" d="M17.4797 5.28668C17.0242 4.95882 16.5263 4.69419 15.9997 4.50002C15.6346 4.36973 15.2602 4.26721 14.8797 4.19335C14.8827 3.714 14.8107 3.23714 14.6664 2.78002C14.5344 2.32818 14.307 1.9099 13.9997 1.55335C13.6704 1.17471 13.254 0.881845 12.7864 0.700018C12.3002 0.488223 11.7638 0.418865 11.2397 0.500018C10.3585 0.693838 9.56071 1.16037 8.9597 1.83335C8.52429 2.31215 8.27787 2.93295 8.26636 3.58002C8.25269 3.77533 8.25269 3.97137 8.26636 4.16668C7.52933 4.30873 6.81275 4.54162 6.13303 4.86002C5.54437 5.13837 5.03875 5.56585 4.66636 6.10002V6.20669C3.83853 6.17068 3.00915 6.20189 2.18636 6.30002C1.66336 6.3816 1.16611 6.58233 0.733029 6.88668C0.589252 6.99458 0.474678 7.13665 0.399696 7.30002C0.325435 7.54265 0.280668 7.79334 0.266363 8.04668C0.199696 8.50002 0.159696 13.3134 0.239696 18.14C0.319696 22.62 0.519696 27.1133 0.599696 28.1933C0.625119 28.8346 0.705413 29.4725 0.839696 30.1C0.912116 30.4913 1.08176 30.8581 1.33303 31.1667C1.56919 31.3468 1.85081 31.4576 2.14636 31.4867C3.53034 31.6647 4.92431 31.7538 6.3197 31.7533C9.8777 31.8411 13.4379 31.7476 16.9864 31.4733C17.0916 31.4488 17.1847 31.3874 17.2487 31.3002C17.3127 31.2131 17.3434 31.106 17.3354 30.9981C17.3273 30.8903 17.281 30.7889 17.2048 30.7123C17.1286 30.6356 17.0275 30.5887 16.9197 30.58C14.4142 30.6867 11.9052 30.6867 9.3997 30.58C6.45303 30.4867 3.89303 30.3 2.73303 30.1133L2.3597 30.0333C2.29484 29.8806 2.25435 29.7186 2.2397 29.5534C2.16684 29.0722 2.12674 28.5866 2.1197 28.1L1.33303 8.16668V7.66002C1.75597 7.37107 2.24861 7.20072 2.7597 7.16668C3.25303 7.16668 3.77303 7.16668 4.2797 7.07335C4.17071 7.33428 4.07721 7.60141 3.9997 7.87335C3.9743 8.08147 3.9743 8.2919 3.9997 8.50002C3.9997 8.92668 4.1197 9.50002 4.1197 9.50002C4.1388 9.66521 4.21664 9.81803 4.33901 9.93062C4.46139 10.0432 4.62016 10.1081 4.78636 10.1134C4.78636 10.1134 8.46636 10.1934 11.8664 10.1934C13.7597 10.1934 15.573 10.1934 16.5997 10.1C16.7058 10.1 16.8075 10.0579 16.8825 9.98286C16.9576 9.90785 16.9997 9.8061 16.9997 9.70002C16.9997 9.59393 16.9576 9.49219 16.8825 9.41718C16.8075 9.34216 16.7058 9.30002 16.5997 9.30002C15.7997 9.30002 14.5197 9.30002 13.093 9.22002C10.2797 9.08668 6.90636 8.84668 5.53303 8.75335V8.22002C5.58555 7.98069 5.65234 7.74471 5.73303 7.51335C5.79754 7.32022 5.8872 7.13642 5.9997 6.96668C6.23661 6.64768 6.54785 6.39137 6.90636 6.22002C7.56909 5.93298 8.26249 5.72272 8.97303 5.59335L9.33303 5.48668C9.43161 5.46699 9.52509 5.42724 9.60767 5.3699C9.69024 5.31255 9.76014 5.23885 9.81303 5.15335C9.87222 5.07168 9.9125 4.97786 9.93094 4.8787C9.94939 4.77954 9.94555 4.67751 9.9197 4.58002L9.74636 3.58002C9.74767 3.38308 9.79258 3.18887 9.87788 3.01135C9.96318 2.83384 10.0867 2.67742 10.2397 2.55335C10.6289 2.23731 11.0848 2.01391 11.573 1.90002C11.8168 1.82891 12.0759 1.82891 12.3197 1.90002C12.584 1.98813 12.8253 2.13387 13.0264 2.32668C13.289 2.60212 13.4731 2.94278 13.5597 3.31335C13.6358 3.75345 13.6626 4.20065 13.6397 4.64668C13.6384 4.78936 13.6891 4.92763 13.7823 5.03562C13.8756 5.1436 14.005 5.2139 14.1464 5.23335C14.6375 5.28103 15.1237 5.37023 15.5997 5.50002C16.0684 5.63507 16.5168 5.83238 16.933 6.08668C17.2419 6.30597 17.4637 6.62694 17.5597 6.99335C17.6805 7.42761 17.7433 7.87595 17.7464 8.32668C17.7464 8.44692 17.7941 8.56222 17.8791 8.64724C17.9642 8.73226 18.0795 8.78002 18.1997 8.78002C18.3199 8.78002 18.4352 8.73226 18.5203 8.64724C18.6053 8.56222 18.653 8.44692 18.653 8.32668C18.6867 7.67451 18.5915 7.02209 18.373 6.40668C18.1955 5.95153 17.884 5.56099 17.4797 5.28668Z" fill="black"/>
<path fill-rule="evenodd" clip-rule="evenodd" d="M19.9997 6.55335C20.596 6.67704 21.1771 6.8648 21.733 7.11335C22.018 7.22067 22.2642 7.41112 22.4397 7.66002C22.6474 8.26208 22.7686 8.89057 22.7997 9.52668C22.9064 10.4867 22.9864 11.66 23.0797 12.9C23.2264 14.58 23.4264 16.38 23.5464 18.06C23.5498 18.1638 23.5935 18.2621 23.6681 18.3343C23.7428 18.4064 23.8425 18.4467 23.9464 18.4467C23.9994 18.4485 24.0522 18.4395 24.1016 18.42C24.151 18.4006 24.1958 18.3712 24.2333 18.3337C24.2709 18.2962 24.3003 18.2513 24.3197 18.2019C24.3392 18.1526 24.3482 18.0997 24.3464 18.0467C24.4264 16.5667 24.533 14.9934 24.5464 13.4867V11.5267C24.5049 10.789 24.4203 10.0545 24.293 9.32668C24.1945 8.52724 23.9457 7.75364 23.5597 7.04668C23.3061 6.67934 22.9486 6.39612 22.533 6.23335C21.7812 5.93429 20.9914 5.74133 20.1864 5.66002C20.0679 5.64076 19.9467 5.66924 19.8492 5.73922C19.7517 5.8092 19.686 5.91497 19.6664 6.03335C19.6459 6.14611 19.6689 6.26243 19.7308 6.35891C19.7926 6.45538 19.8887 6.52486 19.9997 6.55335Z" fill="black"/>
<path fill-rule="evenodd" clip-rule="evenodd" d="M27.6397 23.3C27.5352 23.2424 27.4122 23.2283 27.2974 23.2607C27.1826 23.2932 27.0852 23.3696 27.0264 23.4734L24.5864 27.1667C23.253 26.14 23.1864 26.1267 23.0264 26.18C22.8664 26.2334 22.573 26.3667 22.7464 26.7C22.7464 26.7 23.6664 27.86 23.7864 28.0334C23.8846 28.1986 24.0228 28.3364 24.1882 28.4343C24.3536 28.5321 24.5409 28.5868 24.733 28.5934C24.9299 28.5869 25.1228 28.5369 25.298 28.447C25.4732 28.3571 25.6263 28.2295 25.7464 28.0734C26.1398 27.5747 26.4837 27.0388 26.773 26.4734C27.213 25.6067 27.5197 24.6467 27.813 23.9667C27.8504 23.913 27.8758 23.8518 27.8873 23.7874C27.8989 23.723 27.8963 23.6568 27.8798 23.5935C27.8634 23.5301 27.8334 23.4711 27.7919 23.4204C27.7505 23.3698 27.6985 23.3287 27.6397 23.3Z" fill="black"/>
<path fill-rule="evenodd" clip-rule="evenodd" d="M4.29303 11.3267C4.24045 11.3212 4.1873 11.3261 4.13665 11.3413C4.086 11.3564 4.03886 11.3814 3.99794 11.4149C3.95703 11.4484 3.92315 11.4896 3.89828 11.5363C3.87341 11.5829 3.85803 11.6341 3.85303 11.6867C3.55717 14.6995 3.49031 17.7304 3.65303 20.7533C3.7406 22.7857 3.97679 24.8088 4.3597 26.8067C4.40768 27.0343 4.54134 27.2348 4.73303 27.3667C5.15665 27.5615 5.60544 27.6962 6.06636 27.7667C7.39686 27.8753 8.73299 27.8975 10.0664 27.8334C11.9197 27.8334 14.0664 27.6734 15.773 27.5267C15.8326 27.5269 15.8915 27.5147 15.9461 27.4908C16.0007 27.4669 16.0496 27.4319 16.0898 27.3879C16.13 27.344 16.1605 27.2921 16.1795 27.2356C16.1984 27.1791 16.2053 27.1193 16.1997 27.06C16.198 27.0011 16.1845 26.943 16.1599 26.8894C16.1354 26.8358 16.1003 26.7876 16.0568 26.7478C16.0132 26.708 15.9621 26.6774 15.9065 26.6577C15.8509 26.638 15.7919 26.6298 15.733 26.6334H10.0664C8.84491 26.6257 7.62499 26.5455 6.41303 26.3934H5.7997C5.5997 25.3534 5.4397 23.8734 5.26636 22.2334C5.1197 20.8067 4.9597 19.2734 4.85303 17.78C4.6864 15.8069 4.62854 13.8261 4.6797 11.8467C4.69867 11.7864 4.70308 11.7224 4.69255 11.66C4.68201 11.5977 4.65685 11.5387 4.61912 11.488C4.58138 11.4372 4.53215 11.3961 4.47547 11.3681C4.41879 11.3401 4.35626 11.3259 4.29303 11.3267Z" fill="black"/>
<path fill-rule="evenodd" clip-rule="evenodd" d="M19.573 16.6067C19.653 17.38 19.7997 18.2067 19.9064 19.2733C19.9064 19.3794 19.9485 19.4812 20.0235 19.5562C20.0985 19.6312 20.2003 19.6733 20.3064 19.6733C20.4124 19.6733 20.5142 19.6312 20.5892 19.5562C20.6642 19.4812 20.7064 19.3794 20.7064 19.2733C20.8397 18.2467 20.9864 17.3934 21.0264 16.6067C21.0467 16.2247 21.0467 15.842 21.0264 15.46C21.0264 15.0467 21.0264 14.6733 20.9064 14.3133C20.773 13.3533 20.573 12.54 20.413 11.6467C20.408 11.5871 20.3912 11.529 20.3637 11.4759C20.3361 11.4228 20.2983 11.3757 20.2524 11.3373C20.2066 11.2989 20.1536 11.2699 20.0965 11.2521C20.0393 11.2342 19.9793 11.2279 19.9197 11.2334C19.8606 11.2383 19.8031 11.2551 19.7506 11.2828C19.6982 11.3106 19.6519 11.3486 19.6145 11.3947C19.5771 11.4408 19.5495 11.494 19.5332 11.551C19.5169 11.6081 19.5123 11.6678 19.5197 11.7267V15.5C19.5197 15.8867 19.533 16.2067 19.573 16.6067Z" fill="black"/>
<path fill-rule="evenodd" clip-rule="evenodd" d="M7.33303 15.82L8.21303 15.9L10.2664 16.0467H14.5464C15.253 16.0467 15.8797 16.0467 16.4264 16.14C16.5427 16.1555 16.6605 16.1252 16.755 16.0556C16.8495 15.986 16.9133 15.8824 16.933 15.7667C16.9523 15.6482 16.9238 15.527 16.8538 15.4295C16.7838 15.3321 16.6781 15.2663 16.5597 15.2467C15.3206 14.9205 14.0595 14.6843 12.7864 14.54C11.9254 14.4732 11.0606 14.4732 10.1997 14.54L8.26636 14.82L7.4797 14.9C6.97303 14.9 6.9997 15.1934 7.1197 15.4334C7.09069 15.4704 7.07323 15.5152 7.06947 15.5621C7.06572 15.609 7.07583 15.656 7.09857 15.6972C7.1213 15.7384 7.15565 15.772 7.19734 15.7938C7.23902 15.8157 7.28621 15.8248 7.33303 15.82Z" fill="black"/>
<path fill-rule="evenodd" clip-rule="evenodd" d="M16.653 20.3934C16.76 20.4187 16.8726 20.4044 16.9698 20.3529C17.067 20.3014 17.1421 20.2164 17.1813 20.1136C17.2204 20.0109 17.2209 19.8974 17.1826 19.7943C17.1443 19.6912 17.0698 19.6056 16.973 19.5534C15.8744 19.3793 14.7651 19.2813 13.653 19.26H12.3197C11.8664 19.26 11.413 19.26 10.9864 19.34C9.65303 19.46 8.53303 19.6867 7.8397 19.82C7.74778 19.837 7.66472 19.8857 7.60494 19.9575C7.54515 20.0294 7.51242 20.1199 7.51242 20.2134C7.51242 20.3068 7.54515 20.3973 7.60494 20.4692C7.66472 20.541 7.74778 20.5897 7.8397 20.6067C8.53303 20.6067 9.69303 20.74 10.973 20.78H12.3064C12.7464 20.78 13.213 20.78 13.6397 20.7C15.2664 20.5 16.5464 20.3667 16.653 20.3934Z" fill="black"/>
</svg>
