<svg width="28" height="32" viewBox="0 0 28 32" fill="none" xmlns="http://www.w3.org/2000/svg">
<path fill-rule="evenodd" clip-rule="evenodd" d="M23.7201 5.3333C23.6134 2.8933 21.2001 3.23996 20.4267 3.71996C20.0509 3.98035 19.7554 4.34056 19.5734 4.75996C19.4326 5.10492 19.3967 5.48374 19.4703 5.84899C19.5438 6.21424 19.7234 6.54968 19.9867 6.8133C20.2149 7.07849 20.4971 7.29183 20.8144 7.43901C21.1318 7.58619 21.4769 7.6638 21.8267 7.66663C22.3767 7.58435 22.8759 7.29928 23.2263 6.86748C23.5767 6.43567 23.7528 5.8884 23.7201 5.3333ZM21.7201 5.99996C21.611 5.98852 21.5054 5.95552 21.4093 5.90287C21.3131 5.85023 21.2284 5.77899 21.1601 5.6933C21.0338 5.603 20.9365 5.47792 20.8801 5.3333C20.8801 5.3333 20.8001 5.2533 20.8134 5.2133C20.845 4.96348 20.9467 4.72772 21.1067 4.5333C21.2026 4.42729 21.3279 4.35223 21.4666 4.31767C21.6053 4.28311 21.7511 4.29062 21.8856 4.33924C22.02 4.38786 22.1369 4.47539 22.2214 4.59068C22.3059 4.70597 22.3542 4.84381 22.3601 4.98663C22.4267 5.4533 22.2001 6.0133 21.7201 5.99996Z" fill="#1D1C19"/>
<path fill-rule="evenodd" clip-rule="evenodd" d="M12.6667 7.8933C12.7685 7.87635 12.8672 7.84492 12.9601 7.79996C14.1601 7.2133 14.0534 7.06663 14.0534 6.95996C14.0534 6.4133 12.8001 6.23996 12.7201 6.22663C12.592 6.20619 12.4615 6.20619 12.3334 6.22663C12.2105 6.25585 12.0933 6.30542 11.9867 6.3733C10.8534 7.0133 10.8801 7.23996 10.9334 7.47996C10.9734 7.99996 12.5867 7.8933 12.6667 7.8933Z" fill="#1D1C19"/>
<path fill-rule="evenodd" clip-rule="evenodd" d="M7.53339 9.50663C7.61327 9.46057 7.68528 9.40205 7.74672 9.3333C8.60005 8.39996 8.44006 8.25329 8.40005 8.15996C8.21339 7.6933 6.96005 7.99996 6.93339 7.99996C6.814 8.03398 6.70128 8.08809 6.60005 8.15996C6.5018 8.23396 6.41233 8.31896 6.33339 8.4133C5.48005 9.5333 5.81339 9.74663 5.89339 9.86663C6.17339 10.1333 7.50672 9.51996 7.53339 9.50663Z" fill="#1D1C19"/>
<path fill-rule="evenodd" clip-rule="evenodd" d="M2.48005 15.0933C2.78672 15.2 2.93339 15.0933 3.68006 14.1333C3.74996 14.0406 3.81238 13.9425 3.86672 13.84C3.9304 13.7375 3.97553 13.6247 4.00006 13.5066C4.34672 12.1733 4.08005 12.0666 4.00006 12C3.62672 11.7733 2.66672 12.6533 2.66672 12.76C2.58047 12.8606 2.50867 12.9728 2.45339 13.0933C2.39126 13.2154 2.34639 13.3455 2.32006 13.48C2.00006 14.9866 2.36005 15.0533 2.48005 15.0933Z" fill="#1D1C19"/>
<path fill-rule="evenodd" clip-rule="evenodd" d="M2.46672 19.88C2.48004 19.7603 2.48004 19.6396 2.46672 19.52C2.45271 19.4062 2.42587 19.2944 2.38672 19.1866C1.92005 17.8533 1.68005 17.9466 1.56005 17.9466C1.13339 17.9466 0.853388 19.0666 0.813388 19.28C0.793324 19.417 0.793324 19.5562 0.813388 19.6933C0.839251 19.8262 0.879488 19.9558 0.933388 20.08C1.50672 21.4933 1.85339 21.32 1.97339 21.2933C2.09339 21.2666 2.38672 21.24 2.46672 19.88Z" fill="#1D1C19"/>
<path fill-rule="evenodd" clip-rule="evenodd" d="M3.61339 24.5333C3.58511 24.4493 3.53971 24.3721 3.48006 24.3066C2.65339 23.32 2.41339 23.5466 2.38672 23.5466C1.96005 23.68 2.01339 24.88 2.01339 24.88C2.01569 24.993 2.04789 25.1034 2.10672 25.2C2.15312 25.3029 2.21619 25.3975 2.29339 25.48C3.13339 26.3466 3.42672 26.24 3.62672 26.12C3.82672 26 3.62672 24.56 3.61339 24.5333Z" fill="#1D1C19"/>
<path fill-rule="evenodd" clip-rule="evenodd" d="M6.74672 28.8C6.59703 28.6402 6.42663 28.5012 6.24005 28.3866C6.24005 28.3866 4.80006 27.6533 4.50672 28C4.21339 28.3466 5.10672 29.4933 5.13339 29.5066C5.22627 29.6262 5.33378 29.7337 5.45339 29.8266C5.58081 29.9122 5.71452 29.9879 5.85339 30.0533C7.36005 30.72 7.53339 30.2933 7.60005 30.16C7.66672 30.0266 7.76005 29.8133 6.74672 28.8Z" fill="#1D1C19"/>
<path fill-rule="evenodd" clip-rule="evenodd" d="M24.0401 26.44C23.9576 26.518 23.8818 26.6027 23.8134 26.6933C23.7478 26.7909 23.6898 26.8934 23.6401 27C23.1201 28.2666 23.3467 28.3333 23.4401 28.4533C23.8001 28.7866 24.8934 27.96 24.9201 27.9466C25.0215 27.8598 25.1072 27.756 25.1734 27.64C25.2513 27.5288 25.314 27.4077 25.3601 27.28C25.8534 25.8666 25.4801 25.76 25.3601 25.6933C25.2401 25.6266 24.9067 25.6 24.0401 26.44Z" fill="#1D1C19"/>
<path fill-rule="evenodd" clip-rule="evenodd" d="M26.3067 19.1733C25.9867 19.1733 25.8667 19.1733 25.4801 20.7733C25.4801 20.92 25.4134 21.0666 25.3867 21.2266C25.3601 21.3866 25.3867 21.5333 25.3867 21.68C25.3867 23.36 25.6667 23.3066 25.8134 23.3466C26.3067 23.48 26.8534 22.2266 26.9601 21.92C27.0084 21.7495 27.044 21.5757 27.0667 21.4C27.0865 21.2227 27.0865 21.0439 27.0667 20.8666C26.8534 19.0933 26.4667 19.1733 26.3067 19.1733Z" fill="#1D1C19"/>
<path fill-rule="evenodd" clip-rule="evenodd" d="M27.0801 15.2133C27.0354 15.047 26.9728 14.8861 26.8934 14.7333C26.0667 13.1466 25.6934 13.4 25.5601 13.4C25.4267 13.4 25.1601 13.6533 25.4134 15.1866C25.4424 15.4427 25.5052 15.6937 25.6001 15.9333C25.6001 15.9333 26.3334 17.5466 26.8267 17.4C26.9867 17.4 27.3067 17.2933 27.1867 15.6666C27.1733 15.5112 27.1374 15.3585 27.0801 15.2133Z" fill="#1D1C19"/>
<path fill-rule="evenodd" clip-rule="evenodd" d="M17.2267 8.34663C17.4431 8.94631 17.7015 9.52998 18.0001 10.0933C18.347 10.727 18.7485 11.3293 19.2001 11.8933C19.8693 12.6957 20.5814 13.4612 21.3334 14.1866C21.3722 14.2336 21.4203 14.272 21.4747 14.2994C21.5291 14.3268 21.5886 14.3426 21.6494 14.3459C21.7102 14.3491 21.771 14.3397 21.828 14.3182C21.885 14.2967 21.9369 14.2635 21.9804 14.2209C22.024 14.1783 22.0582 14.1272 22.0809 14.0706C22.1036 14.0141 22.1144 13.9535 22.1125 13.8926C22.1105 13.8318 22.096 13.7719 22.0698 13.717C22.0435 13.662 22.0062 13.6131 21.9601 13.5733C21.2701 12.8427 20.6287 12.0677 20.0401 11.2533C19.6614 10.7289 19.3396 10.1658 19.0801 9.5733C18.8366 9.06489 18.6316 8.53898 18.4667 7.99996C18.3116 7.44885 18.1958 6.88745 18.1201 6.31996C18.0925 5.93378 18.0925 5.54614 18.1201 5.15996C18.1224 4.81936 18.181 4.48148 18.2934 4.15996C18.5502 3.32925 19.1043 2.62241 19.8497 2.17469C20.5951 1.72697 21.4794 1.56982 22.3334 1.7333C23.1882 1.84358 23.9676 2.27944 24.5091 2.95007C25.0505 3.6207 25.3124 4.47439 25.2401 5.3333C25.1804 6.70103 24.9059 8.05086 24.4267 9.3333C23.9394 10.6073 23.1846 11.7622 22.2134 12.72C22.1179 12.8101 22.0622 12.9345 22.0584 13.0658C22.0547 13.1971 22.1032 13.3245 22.1934 13.42C22.2836 13.5154 22.408 13.5712 22.5392 13.5749C22.6705 13.5787 22.7979 13.5301 22.8934 13.44C24.0317 12.4307 24.9409 11.1896 25.5601 9.79996C26.1516 8.42552 26.5293 6.96866 26.6801 5.47996C26.8643 4.22762 26.5479 2.9531 25.7992 1.93241C25.0505 0.911724 23.9299 0.227037 22.6801 0.0266286C21.4425 -0.231443 20.1531 -0.0175357 19.0652 0.626346C17.9773 1.27023 17.1693 2.29757 16.8001 3.50663C16.671 3.90746 16.6036 4.32556 16.6001 4.74663C16.5619 5.32515 16.5843 5.90608 16.6667 6.47996C16.7998 7.11701 16.9872 7.74151 17.2267 8.34663Z" fill="#1D1C19"/>
<path fill-rule="evenodd" clip-rule="evenodd" d="M24.9201 18.88C24.9817 17.9047 24.937 16.9256 24.7867 15.96C24.6511 15.3034 24.4315 14.6671 24.1334 14.0666C24.1076 14.0069 24.0699 13.953 24.0226 13.9082C23.9753 13.8635 23.9194 13.8288 23.8582 13.8064C23.7971 13.7839 23.7321 13.7741 23.6671 13.7776C23.6021 13.7811 23.5384 13.7978 23.4801 13.8266C23.3618 13.8817 23.2702 13.9813 23.2252 14.1038C23.1802 14.2262 23.1856 14.3615 23.2401 14.48C23.5468 15.1408 23.7406 15.8484 23.8134 16.5733C23.8597 17.257 23.8597 17.943 23.8134 18.6266C22.4801 18.7866 21.1467 19 19.8134 19.1466H19.5201C19.5115 18.6561 19.4759 18.1665 19.4134 17.68C19.2833 16.7718 19.0645 15.8787 18.7601 15.0133C18.0394 13.028 17.0089 11.1695 15.7067 9.50663C15.6612 9.45186 15.6041 9.40789 15.5396 9.37791C15.475 9.34793 15.4046 9.33269 15.3334 9.3333C15.4063 9.25113 15.4528 9.14892 15.4667 9.03996C15.4703 8.98283 15.4624 8.92557 15.4434 8.87157C15.4244 8.81757 15.3948 8.76794 15.3562 8.72564C15.3176 8.68335 15.2709 8.64924 15.2189 8.62536C15.1669 8.60147 15.1106 8.5883 15.0534 8.58663C13.0751 8.41846 11.0947 8.88553 9.40005 9.91996C7.77532 10.9991 6.40937 12.4243 5.40006 14.0933C4.1369 16.1751 3.62406 18.6264 3.94672 21.04C4.06607 22.2858 4.46947 23.4877 5.12591 24.5532C5.78236 25.6188 6.67437 26.5197 7.73339 27.1866C9.41727 28.135 11.2953 28.6868 13.2245 28.8C15.1538 28.9132 17.0835 28.5849 18.8667 27.84C20.6465 27.1094 22.1706 25.869 23.2476 24.2749C24.3246 22.6807 24.9065 20.8038 24.9201 18.88ZM17.2001 15.5066C17.4209 16.3144 17.5989 17.1334 17.7334 17.96C17.7334 18.4 17.8267 18.84 17.8801 19.2933C16.5467 19.3733 15.2934 19.2933 13.9734 19.2933C13.1867 19.2933 12.3867 19.2933 11.6001 19.2C11.6001 18.92 11.6001 18.6266 11.6934 18.3466C11.838 17.4473 12.0338 16.5569 12.2801 15.68C12.9334 13.28 14.5067 9.39996 14.9467 10.04C15.9469 11.7493 16.7052 13.589 17.2001 15.5066ZM10.0001 10.9333C11.1372 10.1819 12.4427 9.72382 13.8001 9.59996C12.5034 11.3221 11.4699 13.2274 10.7334 15.2533C10.4053 16.1855 10.1599 17.1447 10.0001 18.12V19.1866C8.46672 19.0666 6.96005 18.8666 5.46672 18.6266C5.54038 17.3166 5.9096 16.0403 6.54672 14.8933C7.38709 13.3316 8.56719 11.9783 10.0001 10.9333ZM5.46672 20.92C5.40914 20.5225 5.37796 20.1216 5.37339 19.72C6.82672 20.08 8.32006 20.3733 9.84006 20.6V21.1066C9.88525 23.0211 10.1583 24.9234 10.6534 26.7733C9.92206 26.5495 9.21949 26.2407 8.56005 25.8533C7.7098 25.3156 6.99225 24.5926 6.46116 23.7382C5.93007 22.8838 5.59922 21.9204 5.49339 20.92H5.46672ZM11.7334 27.04C11.3842 25.0962 11.25 23.1198 11.3334 21.1466V20.8133C12.4001 20.92 13.4667 21 14.5334 21C15.6001 21 16.8001 20.9066 17.9067 20.8C18.0003 22.6709 17.8705 24.5464 17.5201 26.3866C17.4793 26.4986 17.4793 26.6213 17.5201 26.7333C15.6608 27.3423 13.6735 27.4481 11.7601 27.04H11.7334ZM18.6001 26.3733C19.1658 24.476 19.4796 22.5125 19.5334 20.5333L19.9601 20.4533C21.1867 20.1866 22.3867 19.8666 23.6134 19.6C23.447 21.0664 22.8989 22.4636 22.0239 23.6521C21.1489 24.8406 19.9776 25.7788 18.6267 26.3733H18.6001Z" fill="#1D1C19"/>
<path fill-rule="evenodd" clip-rule="evenodd" d="M11.4801 30.44L11.0534 30.3333C10.907 30.3201 10.7598 30.3201 10.6134 30.3333C8.98672 30.3333 9.00005 30.6 8.96005 30.7333C8.82672 31.2133 10.1601 31.8266 10.2934 31.8933C10.4549 31.9598 10.6259 32.0003 10.8001 32.0133C10.9777 32.0299 11.1568 32.0254 11.3334 32C13.0801 31.8533 13.0134 31.3866 13.0134 31.2266C12.9867 30.8266 12.8267 30.8133 11.4801 30.44Z" fill="#1D1C19"/>
<path fill-rule="evenodd" clip-rule="evenodd" d="M16.2934 30.12H15.9467C15.8314 30.1407 15.7193 30.1766 15.6134 30.2266C14.2801 30.76 14.4001 30.9866 14.4001 31.1066C14.4001 31.5466 15.5734 31.76 15.8534 31.7866C15.9904 31.8065 16.1297 31.8065 16.2667 31.7866C16.4055 31.754 16.5398 31.7047 16.6667 31.64C18.0001 30.96 17.8534 30.5866 17.8134 30.4666C17.6934 30.1466 17.5067 30.1066 16.2934 30.12Z" fill="#1D1C19"/>
<path fill-rule="evenodd" clip-rule="evenodd" d="M20.8801 29C20.6752 29.0329 20.4741 29.0865 20.2801 29.16C20.2801 29.16 18.8801 29.9066 18.9467 30.36C19.0134 30.8133 20.5067 30.7466 20.5334 30.7466C20.6837 30.7362 20.8318 30.7048 20.9734 30.6533C21.1191 30.6105 21.2583 30.5477 21.3867 30.4666C22.6001 29.72 22.5867 29.3466 22.4534 29.1333C22.3201 28.92 22.2934 28.7466 20.8801 29Z" fill="#1D1C19"/>
</svg>
