<svg width="32" height="32" viewBox="0 0 32 32" fill="none" xmlns="http://www.w3.org/2000/svg">
<path d="M13.5335 14.8934C13.8915 15.1605 14.2655 15.4054 14.6535 15.6267C14.9124 15.7614 15.202 15.8258 15.4935 15.8134C15.9885 15.7442 16.4522 15.5309 16.8269 15.2C17.2319 14.8469 17.5903 14.4437 17.8935 14C19.0792 14.3124 20.3219 14.3398 21.5202 14.08C22.0556 13.9893 22.5529 13.7441 22.9508 13.3746C23.3488 13.0051 23.6301 12.5273 23.7602 12C23.7926 11.8092 23.7495 11.6131 23.6402 11.4534C23.436 11.1962 23.1984 10.9675 22.9335 10.7734L20.9335 8.94671C20.3602 8.44004 19.8002 7.92004 19.2402 7.40004C17.9069 6.18671 16.5735 4.93338 15.3735 3.66671C15.0745 3.37455 14.7486 3.11117 14.4002 2.88004C14.1405 2.71728 13.8571 2.59583 13.5602 2.52004C13.3242 2.46145 13.0831 2.42573 12.8402 2.41338C12.745 2.41747 12.652 2.44371 12.5687 2.48999C12.4854 2.53628 12.414 2.60135 12.3602 2.68004C11.9632 3.30001 11.7124 4.00217 11.6269 4.73338C11.5474 5.77899 11.6742 6.83003 12.0002 7.82671C12.0002 7.82671 11.0002 8.48004 10.5469 8.89338C10.2974 9.12082 10.1132 9.41084 10.0135 9.73338C9.92511 10.1996 9.93894 10.6795 10.054 11.1399C10.1691 11.6003 10.3828 12.0302 10.6802 12.4C11.4845 13.3856 12.4491 14.2285 13.5335 14.8934ZM11.4002 9.40004C11.7261 9.06722 12.0687 8.75125 12.4269 8.45338C12.5723 8.38643 12.6857 8.26528 12.743 8.1158C12.8003 7.96632 12.7969 7.80037 12.7335 7.65338C12.548 6.89475 12.4717 6.11355 12.5069 5.33338C12.5595 4.72246 12.7462 4.13064 13.0535 3.60004C13.3353 3.68905 13.6043 3.81456 13.8535 3.97338C14.0665 4.15516 14.267 4.35116 14.4535 4.56004C15.3335 5.50671 16.2135 6.46671 17.1202 7.37338C18.0269 8.28004 19.0135 9.16004 20.0002 10.04C20.0002 10.04 22.3602 11.92 22.5069 12.0134C22.4058 12.2676 22.2472 12.4949 22.0437 12.6776C21.8401 12.8604 21.5971 12.9935 21.3335 13.0667C20.204 13.3818 19.0097 13.3818 17.8802 13.0667C17.8268 13.0479 17.7702 13.0398 17.7137 13.043C17.6572 13.0463 17.6019 13.0607 17.551 13.0855C17.5001 13.1104 17.4547 13.145 17.4173 13.1876C17.38 13.2301 17.3515 13.2797 17.3335 13.3334C17.3213 13.3905 17.3213 13.4496 17.3335 13.5067C17.04 13.8414 16.7089 14.1411 16.3469 14.4C16.1188 14.5705 15.8446 14.6681 15.5602 14.68C15.4402 14.68 15.3469 14.5734 15.2402 14.4934C14.9202 14.2667 14.6269 13.9734 14.4135 13.8C13.4375 13.1903 12.5493 12.4501 11.7735 11.6C11.327 11.1597 11.073 10.5605 11.0669 9.93338C11.1226 9.72647 11.2386 9.54082 11.4002 9.40004Z" fill="#1D1C19"/>
<path d="M21.0402 4.00004C20.7279 3.74898 20.3766 3.55079 20.0002 3.41338C19.1919 3.16702 18.3285 3.16702 17.5202 3.41338C17.4212 3.42929 17.3325 3.48388 17.2738 3.56515C17.215 3.64642 17.1909 3.7477 17.2069 3.84671C17.2228 3.94572 17.2774 4.03436 17.3586 4.09312C17.4399 4.15188 17.5412 4.17596 17.6402 4.16004C18.2842 4.19236 18.9109 4.37991 19.4669 4.70671C19.6985 4.8287 19.9213 4.96682 20.1335 5.12004C20.5175 5.32425 20.8421 5.62436 21.0758 5.99118C21.3094 6.35801 21.4441 6.77906 21.4669 7.21338C21.4556 7.32809 21.4898 7.44263 21.5621 7.53239C21.6344 7.62215 21.739 7.67996 21.8535 7.69338C21.9653 7.69787 22.0748 7.66087 22.161 7.58949C22.2471 7.5181 22.3038 7.41739 22.3202 7.30671C22.4253 6.8119 22.4151 6.29952 22.2902 5.80932C22.1653 5.31911 21.9292 4.86426 21.6002 4.48004C21.4344 4.29722 21.2462 4.13596 21.0402 4.00004Z" fill="#1D1C19"/>
<path d="M17.2135 1.12004C18.3501 0.969513 19.505 1.18926 20.5069 1.74671C20.9479 1.95713 21.3714 2.20235 21.7735 2.48004C22.1755 2.74511 22.5506 3.04877 22.8935 3.38671C23.3073 3.74165 23.6334 4.18755 23.8462 4.68949C24.059 5.19144 24.1528 5.73583 24.1202 6.28004C24.1039 6.39258 24.1305 6.50714 24.1947 6.60099C24.2589 6.69484 24.3561 6.76113 24.4669 6.78671C24.5782 6.80607 24.6927 6.78044 24.7852 6.71544C24.8777 6.65045 24.9407 6.55139 24.9602 6.44004C25.1195 5.73677 25.1057 5.00532 24.9199 4.30857C24.7341 3.61181 24.3819 2.9706 23.8935 2.44004C23.5052 1.9818 23.0567 1.57815 22.5602 1.24004C22.0733 0.913255 21.5497 0.644752 21.0002 0.440044C19.7161 -0.0478043 18.3027 -0.0760717 17.0002 0.360044C16.9068 0.390612 16.8293 0.456741 16.7844 0.544097C16.7394 0.631452 16.7307 0.732993 16.7602 0.82671C16.7677 0.877218 16.786 0.92554 16.8136 0.968467C16.8413 1.01139 16.8778 1.04794 16.9207 1.07569C16.9635 1.10343 17.0118 1.12173 17.0623 1.12938C17.1128 1.13703 17.1643 1.13385 17.2135 1.12004Z" fill="#1D1C19"/>
<path d="M32.0002 19.2134C31.8963 17.9242 31.7182 16.6421 31.4669 15.3734C31.2002 14.04 30.8535 12.7734 30.5602 11.64C30.3594 10.7312 30.0874 9.83958 29.7469 8.97338C29.5392 8.48646 29.185 8.07634 28.7335 7.80004C27.8955 7.42499 26.9539 7.34966 26.0669 7.58671C24.8745 7.84192 23.7651 8.39202 22.8402 9.18671C22.7624 9.24859 22.7124 9.33885 22.7011 9.43762C22.6899 9.53639 22.7183 9.63558 22.7802 9.71338C22.8421 9.79117 22.9323 9.8412 23.0311 9.85245C23.1299 9.86371 23.2291 9.83526 23.3069 9.77338C24.0264 9.24493 24.8484 8.87254 25.7202 8.68004C26.5006 8.43821 27.3435 8.50012 28.0802 8.85338C28.3606 9.10997 28.5482 9.45225 28.6135 9.82671C28.8535 10.6 28.9869 11.5067 29.1202 12.0667C29.4269 13.1867 29.7335 14.4267 30.0402 15.72C30.3469 17.0134 30.6002 18.16 30.7735 19.3867C30.9576 20.6266 31.0113 21.8823 30.9335 23.1334C29.4025 22.7861 27.8207 22.7228 26.2669 22.9467C24.6586 23.1716 23.083 23.5879 21.5735 24.1867C21.0983 24.3818 20.6502 24.6372 20.2402 24.9467C19.7197 25.3651 19.2213 25.8101 18.7469 26.28L18.4002 26.5734C18.4002 25.5867 18.3335 24.6 18.2535 23.6134C18.2535 23.1067 18.1602 22.6134 18.0802 22.12C18.0139 21.6176 17.9204 21.1191 17.8002 20.6267C17.5052 19.4884 17.1491 18.3668 16.7335 17.2667C16.7228 17.2186 16.7022 17.1732 16.6732 17.1333C16.6441 17.0935 16.6072 17.06 16.5647 17.035C16.5222 17.01 16.475 16.994 16.4261 16.988C16.3771 16.982 16.3275 16.9861 16.2802 17C16.2045 17.0193 16.1368 17.0619 16.0866 17.1217C16.0363 17.1815 16.0061 17.2555 16.0002 17.3334C16.1869 18.48 16.2935 19.6134 16.4402 20.76C16.4402 21.2534 16.5735 21.7334 16.6535 22.2134C16.7335 22.6934 16.8135 23.1867 16.9069 23.6667C17.0669 24.56 17.2402 25.4534 17.4135 26.3334C17.0802 26.16 16.6935 25.9334 16.2002 25.7067C15.6735 25.4559 15.1299 25.242 14.5735 25.0667C12.6436 24.4846 10.5974 24.402 8.62685 24.8267C6.87966 25.2483 5.23419 26.0144 3.78685 27.08C3.81248 25.9311 3.75902 24.7817 3.62685 23.64C3.4863 22.3751 3.25007 21.1226 2.92019 19.8934L1.44019 14.2C1.41639 14.0751 1.42885 13.9459 1.4761 13.8277C1.52335 13.7096 1.60342 13.6075 1.70685 13.5334C2.02525 13.2362 2.39005 12.993 2.78685 12.8134C3.86257 12.2544 4.99297 11.8076 6.16019 11.48C6.9045 11.2643 7.67957 11.1742 8.45352 11.2134C8.56636 11.2289 8.68081 11.2 8.77281 11.1329C8.86482 11.0658 8.92721 10.9656 8.94685 10.8534C8.96211 10.7421 8.93287 10.6293 8.86548 10.5394C8.79808 10.4495 8.69796 10.3899 8.58685 10.3734C7.69697 10.2626 6.79458 10.3077 5.92019 10.5067C4.6574 10.7553 3.42404 11.1352 2.24019 11.64C1.5773 11.8888 0.97991 12.2855 0.493519 12.8C0.279916 13.0284 0.127558 13.3071 0.0506257 13.6101C-0.0263064 13.9132 -0.0253112 14.2308 0.0535187 14.5334C0.133519 14.8267 0.520185 16.4534 0.933519 17.9867C1.18685 18.88 1.44019 19.7467 1.62685 20.28C2.06524 21.4334 2.41296 22.6192 2.66685 23.8267C2.90685 25.04 3.13352 27.8267 3.13352 27.9734C3.14119 28.4998 3.31893 29.0096 3.64019 29.4267C3.81879 29.6462 4.04464 29.8226 4.3009 29.9426C4.55716 30.0627 4.83722 30.1233 5.12019 30.12C5.42415 30.1224 5.72628 30.0728 6.01352 29.9734C6.57352 29.8 7.14685 29.48 7.66685 29.36C8.36753 29.1902 9.08108 29.0787 9.80019 29.0267C10.5049 28.9527 11.2155 28.9527 11.9202 29.0267C13.1075 29.0585 14.2398 29.5342 15.0935 30.36C15.5143 30.8723 16.0305 31.2979 16.6135 31.6134C17.182 31.8327 17.7986 31.8972 18.4002 31.8C19.1952 31.7217 19.957 31.4418 20.6135 30.9867C21.3666 30.3011 22.054 29.5468 22.6669 28.7334C22.9254 28.4593 23.2272 28.2296 23.5602 28.0534C24.129 27.7653 24.7225 27.5288 25.3335 27.3467C25.9518 27.1555 26.5852 27.0172 27.2269 26.9334C27.8648 26.8601 28.509 26.8601 29.1469 26.9334C29.2802 26.9334 30.1469 27.16 30.4802 27.1734C30.5785 27.1835 30.6778 27.1707 30.7703 27.136C30.8629 27.1013 30.9461 27.0456 31.0135 26.9734C31.2595 26.6331 31.4237 26.2407 31.4935 25.8267C31.8147 23.6366 31.984 21.4269 32.0002 19.2134ZM30.5469 26.04C30.1554 25.9146 29.7436 25.8649 29.3335 25.8934C28.6227 25.791 27.9027 25.7687 27.1869 25.8267C26.47 25.8839 25.7601 26.0089 25.0669 26.2C24.375 26.3718 23.7009 26.6084 23.0535 26.9067C22.5609 27.1311 22.11 27.4377 21.7202 27.8134C21.11 28.5632 20.4364 29.2591 19.7069 29.8934C19.2379 30.2095 18.6967 30.4021 18.1335 30.4534C17.0002 30.6 16.6669 30.08 16.1202 29.5334C15.6001 28.961 14.9636 28.5064 14.2535 28.2C13.5283 27.9449 12.7685 27.801 12.0002 27.7734C11.2119 27.7324 10.4215 27.7681 9.64019 27.88C8.8647 27.9882 8.0982 28.153 7.34685 28.3734C6.82685 28.5334 6.24019 28.8934 5.68019 29.1067C5.49048 29.1889 5.28684 29.2341 5.08019 29.24C4.92194 29.2533 4.76276 29.2302 4.61484 29.1724C4.46692 29.1146 4.3342 29.0237 4.22685 28.9067C4.01286 28.6496 3.88259 28.3333 3.85352 28C5.35463 26.9668 7.05946 26.2666 8.85352 25.9467C10.6451 25.6494 12.4833 25.8241 14.1869 26.4534C15.3283 26.8908 16.4377 27.4076 17.5069 28C17.7538 28.092 18.0211 28.115 18.2802 28.0667C18.688 27.9696 19.0671 27.7778 19.3869 27.5067C20.1592 26.6537 21.0587 25.9251 22.0535 25.3467C23.4427 24.7268 24.9024 24.2791 26.4002 24.0134C27.8496 23.7398 29.3374 23.7398 30.7869 24.0134C30.8135 24 30.5602 25.9067 30.5069 26.04H30.5469Z" fill="#1D1C19"/>
</svg>
