<svg width="32" height="32" viewBox="0 0 32 32" fill="none" xmlns="http://www.w3.org/2000/svg">
<path d="M24.4137 15.5779C24.2786 13.789 23.6765 12.0665 22.667 10.5812C21.6233 9.04073 20.1233 7.86322 18.3762 7.21289C16.629 6.56256 14.7217 6.47183 12.9204 6.95335C11.1242 7.36101 9.49249 8.29746 8.23709 9.64111C6.98168 10.9848 6.16057 12.6735 5.88037 14.4882C5.78008 15.189 5.78008 15.9004 5.88037 16.6011C5.9831 17.3299 6.25222 18.0255 6.66704 18.6344C7.40037 19.6709 8.5337 19.9633 9.10704 20.7739C9.32917 21.0865 9.42877 21.4694 9.38704 21.8503C9.3834 21.8974 9.38915 21.9448 9.40396 21.9898C9.41877 22.0347 9.44233 22.0762 9.47331 22.1121C9.50429 22.1479 9.54206 22.1772 9.58446 22.1984C9.62686 22.2197 9.67305 22.2323 9.72037 22.2357H10.0937C11.0483 22.4985 12.0193 22.6983 13.0004 22.8337C13.4205 22.8867 13.8436 22.9133 14.267 22.9134H15.5337C16.507 22.9134 17.467 22.7274 18.4537 22.5945C18.508 22.5928 18.5614 22.5804 18.6109 22.5581C18.6604 22.5358 18.705 22.504 18.7421 22.4645C18.7793 22.425 18.8083 22.3786 18.8274 22.3279C18.8465 22.2773 18.8555 22.2233 18.8537 22.1692C18.852 22.1139 18.8392 22.0596 18.816 22.0093C18.7928 21.9591 18.7597 21.914 18.7186 21.8768C18.6775 21.8396 18.6294 21.811 18.577 21.7928C18.5246 21.7745 18.4691 21.767 18.4137 21.7706L15.5337 21.6111H10.1204C10.1209 21.1695 9.98598 20.7383 9.7337 20.3752C9.18704 19.5912 8.08037 19.2324 7.38704 18.1958C7.08188 17.6853 6.8951 17.1132 6.84037 16.5214C6.75781 15.8989 6.7668 15.2676 6.86704 14.6477C7.16489 13.068 7.92944 11.6131 9.06263 10.4694C10.1958 9.32581 11.646 8.54568 13.227 8.22909C14.7651 7.83276 16.3886 7.92154 17.8739 8.48323C19.3592 9.04491 20.6332 10.0518 21.5204 11.3653C22.3911 12.6409 22.9148 14.1199 23.0404 15.6576C23.1226 16.3951 23.0462 17.1416 22.8163 17.8474C22.5864 18.5531 22.2083 19.202 21.707 19.7506C21.5038 19.952 21.2902 20.1428 21.067 20.3221C20.467 20.7872 19.867 21.1593 19.2804 21.651C19.0634 21.8656 18.9031 22.1304 18.8137 22.4217C18.6888 22.8583 18.5908 23.3021 18.5204 23.7506C18.5072 24.0564 18.4053 24.3519 18.227 24.6011C17.3988 25.3092 16.3304 25.6752 15.2404 25.6244C13.5718 25.5731 11.9268 25.2172 10.387 24.5745C10.507 24.3619 10.387 23.7107 10.387 23.3121C10.3802 23.2016 10.3304 23.0982 10.2482 23.0238C10.166 22.9493 10.058 22.9097 9.94704 22.9134C9.89272 22.9168 9.8396 22.9308 9.79074 22.9547C9.74188 22.9786 9.69824 23.0119 9.66231 23.0526C9.62638 23.0934 9.59888 23.1408 9.58139 23.1922C9.5639 23.2435 9.55675 23.2978 9.56037 23.3519C9.56037 23.8835 9.46704 24.5612 9.56037 24.8536C9.57849 24.944 9.61826 25.0286 9.6763 25.1004C9.73434 25.1721 9.80893 25.2288 9.8937 25.2656C11.6045 26.0527 13.4516 26.5039 15.3337 26.5945C16.69 26.6836 18.0281 26.2454 19.067 25.3719C19.2807 25.1651 19.4409 24.9097 19.5337 24.6277C19.6735 24.1933 19.7805 23.7491 19.8537 23.2988C19.8474 23.0644 19.8977 22.832 20.0004 22.621C20.587 22.1161 21.1737 21.7838 21.7604 21.2922C22.0371 21.0887 22.2958 20.862 22.5337 20.6144C23.1915 19.9586 23.6998 19.1694 24.0242 18.3003C24.3486 17.4312 24.4815 16.5027 24.4137 15.5779Z" fill="#1D1C19"/>
<path d="M12.9204 18.6344C13.0004 17.8636 13.0537 17.0795 13.1204 16.3088C13.3286 16.5231 13.5666 16.7066 13.827 16.8536C14.2529 17.1221 14.7501 17.2564 15.2537 17.239C15.7221 17.226 16.18 17.0982 16.587 16.8669V17.9699C16.5816 18.8339 16.653 19.6966 16.8004 20.548C16.8004 20.827 17.467 20.9998 17.6004 20.548C17.5194 19.6905 17.5194 18.8274 17.6004 17.9699C17.786 16.8022 18.0488 15.648 18.387 14.5148C18.4294 14.3866 18.426 14.2478 18.3774 14.1218C18.3288 13.9959 18.238 13.8906 18.1204 13.8238C17.9998 13.7322 17.8489 13.6895 17.698 13.7043C17.5471 13.7191 17.4074 13.7902 17.307 13.9035C17.2537 13.9684 17.2089 14.0399 17.1737 14.1161L17.027 14.4085L16.707 14.9267C16.5271 15.1769 16.2952 15.3854 16.027 15.538C15.788 15.6907 15.5109 15.7735 15.227 15.7772C14.9201 15.7748 14.6234 15.6668 14.387 15.4716C14.0977 15.2623 13.8605 14.9895 13.6937 14.6742L13.4537 14.0762C13.4537 13.9566 13.3604 13.6643 13.3337 13.5845C13.2716 13.502 13.1911 13.4351 13.0985 13.3889C13.0059 13.3428 12.9039 13.3188 12.8004 13.3188C12.694 13.2914 12.5822 13.2929 12.4767 13.3233C12.3711 13.3537 12.2757 13.4118 12.2004 13.4915C11.7737 13.9434 12.107 16.4948 11.9204 19.4583C11.9531 19.7453 11.9531 20.0351 11.9204 20.3221C11.9204 20.8802 12.547 21.0397 12.6937 20.4549C12.8356 19.8581 12.9116 19.2476 12.9204 18.6344Z" fill="#1D1C19"/>
<path d="M4.0937 8.24238C3.92851 8.04455 3.74553 7.86218 3.54704 7.69754L2.9337 7.24571C2.44037 6.92677 1.92037 6.67428 1.40037 6.38193C1.30963 6.31841 1.19764 6.2926 1.08813 6.30997C0.978618 6.32733 0.880193 6.3865 0.813704 6.47495C0.750726 6.56329 0.725207 6.6728 0.742677 6.77976C0.760147 6.88672 0.819199 6.98251 0.907037 7.04638C1.30704 7.45833 1.6937 7.87029 2.10704 8.26896C2.28037 8.44172 2.4537 8.61447 2.62704 8.76065C2.80037 8.90683 2.98704 9.0663 3.1737 9.21248C3.63553 9.5257 4.08059 9.86282 4.50704 10.2224C4.57445 10.289 4.66549 10.3263 4.76037 10.3263C4.85525 10.3263 4.94629 10.289 5.0137 10.2224C5.05345 10.1937 5.08687 10.1572 5.11192 10.1151C5.13697 10.073 5.15312 10.0262 5.15936 9.97766C5.16561 9.92911 5.16182 9.87981 5.14824 9.83277C5.13465 9.78574 5.11156 9.74198 5.08037 9.70417C4.80882 9.1808 4.47776 8.69032 4.0937 8.24238Z" fill="#1D1C19"/>
<path d="M9.40037 2.3155C9.46688 2.56062 9.55155 2.80048 9.6537 3.03311C9.74704 3.25902 9.84037 3.48493 9.96037 3.71084C10.2404 4.22911 10.5737 4.69423 10.867 5.22579C10.9099 5.30382 10.9795 5.36394 11.0631 5.39525C11.1466 5.42656 11.2387 5.42698 11.3226 5.39645C11.4064 5.36591 11.4765 5.30643 11.5201 5.2288C11.5638 5.15116 11.578 5.06052 11.5604 4.9733C11.4739 4.37785 11.3537 3.78777 11.2004 3.20586C11.1337 2.96666 11.0404 2.72746 10.947 2.48826C10.8695 2.25619 10.7759 2.02974 10.667 1.81052C10.3204 1.27896 10.0004 0.800559 9.6937 0.282289C9.67593 0.228883 9.64738 0.179672 9.60979 0.137689C9.57221 0.0957059 9.52639 0.0618416 9.47517 0.0381842C9.42395 0.0145267 9.36841 0.0015776 9.31197 0.000135366C9.25554 -0.00130686 9.19941 0.00878834 9.14704 0.0297985C9.04687 0.0710824 8.96698 0.149931 8.92459 0.249357C8.88219 0.348783 8.88068 0.46083 8.92037 0.561357C9.08037 1.18594 9.2137 1.75736 9.40037 2.3155Z" fill="#1D1C19"/>
<path d="M19.3604 5.8105C19.4077 5.81604 19.4557 5.81215 19.5015 5.79908C19.5473 5.786 19.59 5.76399 19.6272 5.73432C19.6644 5.70465 19.6954 5.66792 19.7182 5.62625C19.7411 5.58458 19.7554 5.5388 19.7604 5.49157C19.9489 5.00822 20.1136 4.51593 20.2537 4.01649C20.3204 3.72413 20.347 3.41849 20.387 3.12613C20.3993 2.6799 20.4483 2.23544 20.5337 1.79723C20.5626 1.7475 20.5814 1.69257 20.589 1.6356C20.5966 1.57864 20.5928 1.52073 20.578 1.4652C20.5631 1.40967 20.5374 1.3576 20.5024 1.31197C20.4673 1.26633 20.4236 1.22802 20.3737 1.19923C20.3238 1.17043 20.2687 1.15172 20.2115 1.14415C20.1544 1.13658 20.0963 1.1403 20.0406 1.15511C19.9849 1.16992 19.9326 1.19552 19.8868 1.23045C19.841 1.26538 19.8026 1.30896 19.7737 1.3587C19.4904 1.77053 19.2618 2.21721 19.0937 2.68759C19.0279 2.88792 18.9745 3.09207 18.9337 3.29889C18.9205 3.50687 18.9205 3.71548 18.9337 3.92347C18.9337 4.42845 19.0404 4.88027 19.0804 5.3321C19.0664 5.38184 19.0625 5.43389 19.0691 5.48514C19.0757 5.5364 19.0925 5.58581 19.1187 5.63044C19.1448 5.67507 19.1796 5.71401 19.2212 5.74494C19.2627 5.77588 19.31 5.79817 19.3604 5.8105Z" fill="#1D1C19"/>
<path d="M30.827 9.99653C30.2004 9.99653 29.6137 9.9035 29.0004 9.9035H28.2137C27.9604 9.9035 27.6937 9.99653 27.4404 10.063C26.845 10.2624 26.2692 10.516 25.7204 10.8204C25.6661 10.8284 25.6142 10.8483 25.5684 10.8785C25.5227 10.9088 25.4842 10.9487 25.4557 10.9955C25.4273 11.0423 25.4095 11.0947 25.4037 11.1491C25.3979 11.2035 25.4041 11.2586 25.4221 11.3103C25.4401 11.362 25.4692 11.4091 25.5076 11.4483C25.5459 11.4874 25.5924 11.5177 25.6438 11.5369C25.6952 11.5562 25.7502 11.5638 25.8049 11.5594C25.8597 11.555 25.9127 11.5387 25.9604 11.5115C26.5604 11.4184 27.1204 11.4184 27.6937 11.3786L28.4137 11.2988L29.147 11.166C29.7204 11.0464 30.2804 10.9002 30.8804 10.7806C30.9899 10.7673 31.0905 10.7135 31.1621 10.6298C31.2337 10.5461 31.2712 10.4387 31.267 10.3288C31.2477 10.2291 31.192 10.14 31.1108 10.0787C31.0296 10.0174 30.9286 9.98812 30.827 9.99653Z" fill="#1D1C19"/>
<path d="M17.227 28.0031C16.783 28.0308 16.3377 28.0308 15.8937 28.0031C15.467 28.0031 15.0404 27.9366 14.5604 27.9101L13.227 27.8436C12.347 27.8436 11.4804 27.8436 10.5604 27.7506C10.465 27.7307 10.3656 27.7487 10.2834 27.8009C10.2012 27.853 10.1427 27.9351 10.1204 28.0297C10.1004 28.1247 10.1185 28.2238 10.1708 28.3057C10.2231 28.3877 10.3055 28.446 10.4004 28.4682C11.1478 28.7645 11.9196 28.9957 12.707 29.1592C13.0505 29.2209 13.3982 29.2564 13.747 29.2655C14.0932 29.2921 14.4409 29.2921 14.787 29.2655C15.6474 29.1955 16.4997 29.0487 17.3337 28.827C17.4424 28.8075 17.5392 28.7467 17.6038 28.6575C17.6685 28.5683 17.6959 28.4575 17.6804 28.3486C17.6639 28.244 17.6076 28.1497 17.5231 28.0853C17.4387 28.021 17.3327 27.9915 17.227 28.0031Z" fill="#1D1C19"/>
<path d="M15.787 30.6875C15.3406 30.6744 14.8953 30.6345 14.4537 30.5679C14.1607 30.548 13.8667 30.548 13.5737 30.5679C13.0404 30.5679 12.547 30.7007 12.027 30.7539C11.9797 30.7484 11.9318 30.7522 11.8859 30.7653C11.8401 30.7784 11.7974 30.8004 11.7602 30.8301C11.723 30.8597 11.692 30.8965 11.6692 30.9382C11.6463 30.9798 11.632 31.0256 11.627 31.0728C11.6224 31.1703 11.6538 31.266 11.7152 31.3419C11.7767 31.4178 11.8639 31.4686 11.9604 31.4848C12.4097 31.6562 12.8681 31.8026 13.3337 31.9233C13.532 31.9586 13.7325 31.9808 13.9337 31.9898C14.1379 32.0034 14.3428 32.0034 14.547 31.9898C15.0517 31.8926 15.5407 31.7272 16.0004 31.4981C16.1082 31.4752 16.2025 31.4105 16.2625 31.3183C16.3226 31.2261 16.3434 31.1139 16.3204 31.0064C16.2974 30.8989 16.2325 30.8049 16.14 30.7451C16.0475 30.6853 15.9349 30.6645 15.827 30.6875H15.787Z" fill="#1D1C19"/>
</svg>
