<svg width="32" height="32" viewBox="0 0 32 32" fill="none" xmlns="http://www.w3.org/2000/svg">
<path d="M31.8799 13.7867C31.6085 11.4747 30.7298 9.27575 29.3333 7.41333C27.9048 5.46186 26.0838 3.83092 23.9872 2.62536C21.8907 1.4198 19.5651 0.66631 17.16 0.413325C14.7313 0.144925 12.274 0.480345 10.0062 1.3898C7.73837 2.29926 5.73019 3.75462 4.15995 5.62666C2.24258 7.87865 0.937314 10.5864 0.369848 13.4891C-0.197618 16.3918 -0.00816941 19.3917 0.919949 22.2C2.75995 27.1333 7.34662 30.9867 14.6399 31.5333C15.9219 31.6469 17.2113 31.6469 18.4933 31.5333C19.7831 31.4121 21.0541 31.1391 22.2799 30.72C22.3972 30.6776 22.4933 30.5914 22.5481 30.4794C22.6028 30.3674 22.6119 30.2385 22.5733 30.12C22.5337 30.0038 22.45 29.9078 22.3402 29.8529C22.2304 29.798 22.1033 29.7885 21.9866 29.8267C20.8243 30.2076 19.6198 30.4449 18.4 30.5333C17.1803 30.6462 15.9529 30.6462 14.7333 30.5333C8.06662 29.8667 3.81328 26.3067 2.18662 21.7333C1.38573 19.1617 1.25439 16.4283 1.80503 13.7917C2.35567 11.1552 3.57008 8.70276 5.33328 6.66666C6.74344 5.00068 8.54103 3.70637 10.5682 2.89735C12.5954 2.08833 14.7902 1.78935 16.9599 2.02666C19.1605 2.24741 21.2923 2.91749 23.2233 3.99541C25.1544 5.07333 26.8437 6.53616 28.1866 8.29332C29.4981 9.93075 30.3536 11.8856 30.6666 13.96C30.9543 16.0856 30.8183 18.2472 30.2666 20.32C29.8652 21.9171 29.227 23.4451 28.3733 24.8533C27.5043 26.2461 26.3666 27.4517 25.0266 28.4C24.9806 28.4295 24.9411 28.4681 24.9106 28.5134C24.8801 28.5588 24.8592 28.6099 24.8492 28.6636C24.8392 28.7173 24.8404 28.7725 24.8525 28.8258C24.8647 28.879 24.8876 28.9293 24.92 28.9733C24.9841 29.0605 25.0791 29.1201 25.1855 29.1399C25.292 29.1597 25.402 29.1383 25.4933 29.08C26.9684 28.0933 28.2291 26.8189 29.1999 25.3333C30.1378 23.8617 30.848 22.257 31.3066 20.5733C31.9447 18.3713 32.1395 16.0645 31.8799 13.7867Z" fill="#1D1C19"/>
<path d="M28.36 17.04C28.36 16.9787 28.3479 16.918 28.3244 16.8614C28.301 16.8048 28.2666 16.7533 28.2233 16.71C28.1799 16.6667 28.1285 16.6323 28.0719 16.6088C28.0153 16.5854 27.9546 16.5733 27.8933 16.5733C26.5599 16.5733 23.4133 16.6933 22.08 16.6533H21.8399C21.8342 16.627 21.8342 16.5997 21.8399 16.5733C21.5866 15.7867 21.0666 14 20.5866 12.92C20.4202 12.4102 20.068 11.9818 19.6 11.72C19.4354 11.6752 19.2602 11.6926 19.1077 11.7688C18.9552 11.8451 18.8361 11.9748 18.7733 12.1333C18.6059 12.5362 18.4677 12.9506 18.36 13.3733C17.8 15.4533 16.8666 19.7867 16.0533 22.3467C16.0533 22.5467 15.9333 22.76 15.8799 22.96C15.1866 20.5333 14.2666 15.5067 13.4933 12.2933C13.296 11.3109 13.0012 10.3506 12.6133 9.42666C12.5482 9.26868 12.4399 9.1323 12.3007 9.03322C12.1615 8.93414 11.9972 8.8764 11.8266 8.86666C11.5574 8.86627 11.2989 8.97161 11.1066 9.15999C10.7458 9.54551 10.4648 9.99867 10.28 10.4933C9.59279 12.5335 9.00982 14.6073 8.53328 16.7067C8.41328 16.7067 8.23995 16.8267 8.06662 16.8667C7.13328 17.0533 5.58662 17.24 4.83995 17.32C4.09328 17.4 4.38662 17.32 4.26662 17.32C4.14662 17.32 3.73328 18.1333 4.46662 18.12H4.90662C6.16653 18.0365 7.42145 17.8896 8.66662 17.68C8.92505 17.6541 9.1637 17.53 9.33328 17.3333C9.75995 16 10.2533 14.0933 10.7733 12.5733C10.9898 11.8669 11.2757 11.1835 11.6266 10.5333C11.6266 10.6667 11.6266 10.8133 11.7199 10.9467C12.4666 13.76 13.5333 20.4933 14.3866 23.4267C14.5117 23.9977 14.7423 24.5403 15.0666 25.0267C15.1562 25.1411 15.272 25.2324 15.4043 25.2927C15.5366 25.3531 15.6814 25.3807 15.8266 25.3733C15.9757 25.3617 16.1209 25.3202 16.2537 25.2515C16.3866 25.1828 16.5043 25.0882 16.6 24.9733C17.0706 24.2218 17.4131 23.3972 17.6133 22.5333C18.3599 19.9467 19.1199 15.8667 19.6133 13.7733C20.0533 14.7733 20.5066 16.1733 20.7466 16.8667C20.82 17.101 20.9231 17.3251 21.0533 17.5333C21.3691 17.6983 21.7246 17.7722 22.08 17.7467C23.4133 17.7467 26.5333 17.5333 27.92 17.5067C28.039 17.4998 28.151 17.4477 28.2328 17.3609C28.3147 17.2741 28.3601 17.1593 28.36 17.04Z" fill="#1D1C19"/>
</svg>
