<svg width="32" height="32" viewBox="0 0 32 32" fill="none" xmlns="http://www.w3.org/2000/svg">
<path fill-rule="evenodd" clip-rule="evenodd" d="M13.9203 18.1867C13.9144 18.9218 13.8339 19.6544 13.6803 20.3733C13.0403 20.2533 12.8269 19.7067 11.6003 20.2533C11.8112 19.3495 11.8787 18.4181 11.8003 17.4933C11.7069 15.7067 11.5336 14.08 10.1736 12.92C10.083 12.8599 9.97381 12.8343 9.86594 12.848C9.75806 12.8616 9.65869 12.9136 9.58595 12.9944C9.51321 13.0753 9.47194 13.1795 9.46968 13.2883C9.46741 13.397 9.5043 13.5029 9.57361 13.5867C10.0234 14.1251 10.3536 14.7532 10.5421 15.429C10.7306 16.1049 10.7731 16.8131 10.6669 17.5067C10.7298 18.6406 10.4954 19.7712 9.98694 20.7867C9.70663 21.2897 9.27529 21.6919 8.7539 21.9365C8.23251 22.181 7.64746 22.2555 7.08144 22.1493C6.51542 22.0432 5.99708 21.7619 5.59969 21.3451C5.2023 20.9283 4.94597 20.3971 4.86694 19.8267C5.76948 20.1082 6.74258 20.061 7.61361 19.6933C7.71933 19.6679 7.81238 19.6053 7.87579 19.517C7.93921 19.4286 7.96876 19.3205 7.95907 19.2121C7.94937 19.1038 7.90106 19.0026 7.82296 18.927C7.74486 18.8513 7.64217 18.8063 7.53361 18.8C7.08027 18.8 6.66694 18.5733 6.20027 18.52C5.88529 18.4932 5.56859 18.4932 5.25361 18.52L4.66694 18.6667C4.5996 17.975 4.5996 17.2784 4.66694 16.5867C5.80027 16.9067 5.90694 16.8267 7.33361 16.4C7.43884 16.3818 7.53424 16.3269 7.60301 16.2452C7.67177 16.1635 7.70948 16.0601 7.70948 15.9533C7.70948 15.8465 7.67177 15.7432 7.60301 15.6614C7.53424 15.5797 7.43884 15.5249 7.33361 15.5067C6.55266 15.2628 5.72333 15.217 4.92027 15.3733C4.95054 15.0072 5.05613 14.6513 5.23043 14.3278C5.40473 14.0044 5.64398 13.7205 5.93316 13.4939C6.22235 13.2674 6.55524 13.103 6.91095 13.0111C7.26666 12.9192 7.63752 12.9018 8.00027 12.96C8.10282 12.9883 8.21241 12.9747 8.30493 12.9222C8.39745 12.8697 8.46532 12.7825 8.49361 12.68C8.5219 12.5774 8.50829 12.4679 8.45578 12.3753C8.40327 12.2828 8.31616 12.215 8.21361 12.1867C7.3631 11.9704 6.46303 12.0699 5.68027 12.4667C4.88529 12.8749 4.2821 13.5786 4.00027 14.4267C3.33784 16.2937 3.15446 18.2971 3.46694 20.2533C2.26694 19.8133 2.13361 20.1733 1.26694 20.4267C1.17982 20.0887 1.11304 19.7459 1.06694 19.4C1.04995 19.3081 1.0013 19.225 0.929449 19.1652C0.857597 19.1055 0.767078 19.0727 0.673607 19.0727C0.580136 19.0727 0.489616 19.1055 0.417765 19.1652C0.345913 19.225 0.297268 19.3081 0.280273 19.4C0.54694 23.56 2.29361 25.8133 6.68027 26.72C6.41791 27.9514 6.45909 29.2281 6.80027 30.44C5.78928 30.4513 4.78113 30.5494 3.78694 30.7333C3.54501 30.7382 3.30403 30.7649 3.06694 30.8133C2.98515 30.8338 2.91096 30.8773 2.85318 30.9386C2.7954 31 2.75647 31.0767 2.74102 31.1596C2.72557 31.2424 2.73425 31.328 2.76603 31.4061C2.79781 31.4842 2.85134 31.5515 2.92027 31.6C3.04027 31.7067 5.88027 31.8667 5.98694 31.88C7.97176 32.0576 9.97231 31.9044 11.9069 31.4267C11.9636 31.3707 12.0045 31.3007 12.0256 31.2238C12.0466 31.147 12.047 31.0659 12.0267 30.9888C12.0064 30.9118 11.9662 30.8414 11.9101 30.7848C11.8539 30.7283 11.7839 30.6875 11.7069 30.6667C10.3731 30.7284 9.03649 30.6972 7.70694 30.5733C7.83375 30.0412 7.93167 29.5027 8.00027 28.96C8.00027 28.56 7.92027 27.1467 7.89361 26.9467C12.4803 27.24 15.1603 23.0667 14.8269 18.16C14.8252 18.1005 14.8117 18.0419 14.7873 17.9875C14.7629 17.9332 14.7281 17.8842 14.6847 17.8433C14.6414 17.8025 14.5904 17.7706 14.5348 17.7494C14.4791 17.7282 14.4198 17.7182 14.3603 17.72C14.3007 17.7218 14.2421 17.7352 14.1878 17.7596C14.1335 17.784 14.0845 17.8189 14.0436 17.8622C14.0028 17.9055 13.9708 17.9565 13.9497 18.0122C13.9285 18.0678 13.9185 18.1271 13.9203 18.1867ZM7.56027 25.4133C6.08391 25.2604 4.65452 24.8066 3.36027 24.08C2.65889 23.5728 2.10636 22.8867 1.76027 22.0933C1.6575 21.8451 1.56848 21.5914 1.49361 21.3333C2.29361 21.5733 2.02694 21.84 3.73361 21.3333C4.0273 22.1009 4.55026 22.7593 5.23137 23.2191C5.91249 23.6789 6.71869 23.9177 7.54035 23.9032C8.36201 23.8886 9.15925 23.6213 9.82363 23.1377C10.488 22.654 10.9873 21.9774 11.2536 21.2C11.5529 21.429 11.9111 21.5681 12.2865 21.6012C12.6619 21.6342 13.0389 21.5598 13.3736 21.3867C12.3869 24.4667 10.1869 25.72 7.56027 25.4133Z" fill="#1D1C19"/>
<path fill-rule="evenodd" clip-rule="evenodd" d="M27.3469 12.0933C26.4669 11.12 26.7603 9.52 25.0936 8.73333C23.6403 8.06667 21.6003 8.73333 20.5869 8.02667C20.4499 7.91281 20.3396 7.77015 20.2639 7.60884C20.1881 7.44753 20.1489 7.27153 20.1489 7.09333C20.1489 6.91514 20.1881 6.73913 20.2639 6.57782C20.3396 6.41651 20.4499 6.27386 20.5869 6.16C21.6605 5.24292 23.0156 4.72068 24.4269 4.68C24.9336 4.68 26.5603 4.86667 27.0936 4.30667C27.1373 4.26996 27.1726 4.22434 27.1971 4.17287C27.2217 4.1214 27.235 4.06527 27.2361 4.00825C27.2372 3.95123 27.2261 3.89463 27.2035 3.84225C27.1809 3.78987 27.1474 3.74292 27.1052 3.70456C27.063 3.6662 27.0131 3.6373 26.9588 3.61981C26.9045 3.60232 26.8471 3.59664 26.7905 3.60315C26.7338 3.60967 26.6792 3.62822 26.6303 3.65757C26.5814 3.68692 26.5393 3.72639 26.5069 3.77333C26.2403 4.05333 24.1069 3.30667 21.4936 4.14667C17.6803 5.38667 17.8803 9.48 21.4269 9.86667C22.4741 9.80625 23.5247 9.8599 24.5603 10.0267C25.9869 10.6 25.5603 13.7067 28.3869 13.4533C29.0136 13.4533 29.0536 13.28 29.1469 13.2267C29.5469 12.8933 29.5469 12.6667 29.2936 12.52C28.5203 12.2267 27.9069 12.6933 27.3469 12.0933Z" fill="#1D1C19"/>
<path fill-rule="evenodd" clip-rule="evenodd" d="M21.5336 16.5733C21.6136 16.2667 21.9069 16.0667 22.4403 15.8667C22.9356 15.6657 23.4822 15.6283 24.0003 15.76C24.5528 15.8071 25.0745 16.0351 25.4843 16.4087C25.8941 16.7824 26.1692 17.2808 26.2669 17.8267C26.4136 18.16 27.0403 17.9733 27.0669 17.5867C26.9852 17.0152 26.7778 16.469 26.4597 15.9873C26.1416 15.5056 25.7208 15.1003 25.2273 14.8007C24.7339 14.5011 24.1803 14.3145 23.6061 14.2545C23.032 14.1944 22.4517 14.2623 21.9069 14.4533C19.9336 15.2267 19.8669 16.56 20.5069 18.3067C20.7869 19.04 21.1736 19.7733 20.8003 20.44C20.7336 20.5467 20.8803 20.88 21.5336 20.6533C21.6365 20.6109 21.7284 20.5457 21.8023 20.4625C21.8762 20.3794 21.9302 20.2805 21.9603 20.1733C22.3203 18.8267 21.2536 17.5333 21.5336 16.5733Z" fill="#1D1C19"/>
<path fill-rule="evenodd" clip-rule="evenodd" d="M31.2536 7.2C30.8204 5.69047 30.0132 4.31467 28.9069 3.2C26.4269 0.693333 20.6003 -0.560001 17.3336 0.239999C15.3236 0.688239 13.4964 1.73439 12.0923 3.24085C10.6881 4.7473 9.77291 6.6435 9.46694 8.68C9.45381 8.73691 9.45201 8.79584 9.46166 8.85344C9.4713 8.91104 9.4922 8.96618 9.52315 9.0157C9.5541 9.06523 9.59451 9.10817 9.64206 9.14208C9.68961 9.17599 9.74337 9.2002 9.80027 9.21333C9.85718 9.22647 9.91611 9.22826 9.97371 9.21862C10.0313 9.20897 10.0865 9.18808 10.136 9.15712C10.1855 9.12617 10.2284 9.08577 10.2624 9.03822C10.2963 8.99067 10.3205 8.93691 10.3336 8.88C10.7918 7.64064 11.3771 6.45207 12.0803 5.33333C12.6493 4.62818 13.3082 4.00062 14.0403 3.46667C15.9202 2.03724 18.1997 1.23079 20.5603 1.16C21.9403 1.08614 23.3211 1.29131 24.6201 1.76324C25.919 2.23517 27.1095 2.96417 28.1203 3.90667C29.7231 5.85939 30.4941 8.36393 30.2669 10.88C30.1355 12.742 29.5445 14.5423 28.5469 16.12C27.5589 17.71 26.1824 19.0224 24.5469 19.9333C22.6125 21.0091 20.365 21.3814 18.1869 20.9867C18.0906 20.9786 17.9947 21.0057 17.9168 21.0628C17.8389 21.12 17.7843 21.2035 17.7632 21.2978C17.7421 21.3921 17.7558 21.4908 17.8018 21.5758C17.8478 21.6608 17.9231 21.7262 18.0136 21.76C25.9203 23.84 33.8003 15.9067 31.2536 7.2Z" fill="#1D1C19"/>
<path fill-rule="evenodd" clip-rule="evenodd" d="M13.4936 7.62667C14.0936 7.81333 14.3603 8.01333 14.5203 8.49333C14.7469 9.21333 14.7069 10.0667 14.9336 10.7733C15.5869 12.6667 17.1203 12.5867 16.7203 14.28C16.661 14.6036 16.5578 14.9176 16.4136 15.2133C16.4136 15.2933 16.3469 15.3867 16.2803 15.4C15.8669 15.4 14.8269 14.0667 14.5469 13.72C14.4762 13.6263 14.3712 13.5645 14.2549 13.5483C14.1386 13.532 14.0206 13.5626 13.9269 13.6333C13.8332 13.7041 13.7715 13.8091 13.7552 13.9254C13.7389 14.0417 13.7695 14.1596 13.8403 14.2533C14.5069 15.1867 15.2669 16.5333 16.3069 16.56C16.8669 16.56 17.5336 16.1333 18.0269 14.6267C18.8269 12.12 16.7869 11.5467 16.3469 10.28C15.9603 9.26667 16.1336 7.78667 15.0136 6.97333C14.1919 6.5439 13.2737 6.33271 12.3469 6.36C11.7069 6.36 11.6269 7.05333 12.1736 7.22667C12.6067 7.38173 13.0473 7.51523 13.4936 7.62667Z" fill="#1D1C19"/>
</svg>
