<svg width="32" height="28" viewBox="0 0 32 28" fill="none" xmlns="http://www.w3.org/2000/svg">
<path fill-rule="evenodd" clip-rule="evenodd" d="M14.0669 24C14.0669 22.7867 13.9736 21.5333 14.0002 20.36C14.0002 17.9467 14.0936 15.5333 14.0002 13.1067C14.0002 11.4933 13.8669 9.88 13.7736 8.26666C13.6802 6.65333 13.3336 4.97333 13.2269 3.33333C13.1534 2.64705 13.1267 1.95657 13.1469 1.26666C13.2136 0.413329 10.7602 0.466662 10.5602 0.466662C9.75226 0.479835 8.94604 0.546648 8.14691 0.666662C7.26691 0.786662 6.29358 0.853328 5.37358 1.04C4.70452 1.16057 4.05732 1.3808 3.45358 1.69333C2.70521 2.11602 2.05312 2.69002 1.53889 3.37872C1.02466 4.06741 0.659578 4.8557 0.466913 5.69333C-0.00642331 7.9585 -0.163473 10.2784 0.000246063 12.5867V16.0933C-0.0243839 17.5801 0.0379447 19.0671 0.186913 20.5467C0.310131 21.5606 0.528881 22.5606 0.840246 23.5333C1.03394 24.1201 1.31729 24.6733 1.68025 25.1733C2.02072 25.6762 2.43414 26.1255 2.90691 26.5067C3.35941 26.8642 3.88171 27.1231 4.44025 27.2667C5.19363 27.4616 5.96871 27.5602 6.74691 27.56C7.92174 27.5748 9.09657 27.5303 10.2669 27.4267C11.4452 27.3178 12.6132 27.1172 13.7602 26.8267C13.8268 26.811 13.8897 26.7823 13.9452 26.7423C14.0006 26.7023 14.0477 26.6518 14.0836 26.5936C14.1195 26.5353 14.1436 26.4706 14.1545 26.4031C14.1653 26.3356 14.1628 26.2665 14.1469 26.2C14.1069 26 14.0669 24.5467 14.0669 24ZM10.1869 26.2533C9.05456 26.3201 7.91926 26.3201 6.78691 26.2533C6.22861 26.2255 5.67461 26.1406 5.13358 26C4.64565 25.9 4.18857 25.6852 3.80025 25.3733C3.45356 25.0581 3.14884 24.6996 2.89358 24.3067C2.64589 23.9219 2.45293 23.5046 2.32025 23.0667C2.08381 22.1926 1.91882 21.3008 1.82691 20.4C1.71404 18.9852 1.67843 17.5653 1.72025 16.1467V12.5867C1.50082 10.3904 1.58156 8.17447 1.96025 6C2.08808 5.3581 2.34408 4.74858 2.71293 4.20791C3.08178 3.66724 3.55589 3.20653 4.10691 2.85333C4.58489 2.57725 5.10183 2.37496 5.64025 2.25333C6.53358 2.02666 7.48025 1.92 8.30691 1.74666C9.05557 1.59869 9.81252 1.49628 10.5736 1.44C11.0703 1.39343 11.5702 1.39343 12.0669 1.44C12.1149 1.45303 12.1656 1.45303 12.2136 1.44C12.1526 2.06914 12.1303 2.70145 12.1469 3.33333C12.1469 4.98666 12.2936 6.64 12.2802 8.27999V14.3067C12.2802 16.3333 12.4402 18.3067 12.5336 20.3467C12.6002 21.5333 12.8136 22.76 12.8802 23.9867C12.9201 24.4836 12.9201 24.983 12.8802 25.48C12.8676 25.6134 12.9057 25.7467 12.9869 25.8533C12.0629 26.0451 11.1277 26.1787 10.1869 26.2533Z" fill="#1D1C19"/>
<path fill-rule="evenodd" clip-rule="evenodd" d="M31.8802 12.2667C31.7746 10.0259 31.4937 7.79691 31.0402 5.6C30.613 4.0108 29.6762 2.60563 28.3736 1.6C27.9209 1.2759 27.4157 1.03232 26.8802 0.879995C26.1556 0.694548 25.414 0.582868 24.6669 0.546662H22.5736C20.9869 0.546662 19.4136 0.666662 17.8002 0.639995C17.6774 0.639806 17.5592 0.6867 17.4699 0.771028C17.3806 0.855356 17.3271 0.970702 17.3202 1.09333C17.3202 1.28 17.4669 3.09333 17.4402 3.89333C17.4402 6.02666 17.5469 8.16 17.4402 10.3067V14.9733C17.4402 16.0133 17.5069 17.04 17.5602 18.08C17.6936 20.7467 17.8936 23.2933 18.2002 25.8667C18.213 25.9645 18.2519 26.057 18.3129 26.1344C18.374 26.2119 18.4548 26.2714 18.5469 26.3067C18.5394 26.4439 18.5851 26.5787 18.6745 26.683C18.7639 26.7873 18.8902 26.8531 19.0269 26.8667C19.7869 26.9333 20.5602 26.9733 21.3069 26.9733C22.0536 26.9733 22.8269 26.9733 23.5869 26.8933C23.9853 26.8571 24.3815 26.7992 24.7736 26.72C25.1602 26.6533 25.5469 26.56 25.9336 26.4533C26.3202 26.3467 26.7869 26.2 27.2669 26.0533C27.5645 25.9346 27.854 25.7965 28.1336 25.64C29.1949 25.0267 30.0704 24.1375 30.6669 23.0667C31.4283 21.4849 31.8334 19.7554 31.8536 18C31.9202 16.8533 32.0002 15.7067 32.0002 14.5733C31.9984 13.8029 31.9583 13.0331 31.8802 12.2667ZM30.1602 18C30.1545 19.2669 29.9567 20.5257 29.5736 21.7333C29.173 22.8645 28.4026 23.8275 27.3869 24.4667C27.1808 24.603 26.962 24.7191 26.7336 24.8133C26.3736 24.9733 25.9869 25.0933 25.5869 25.2267C25.1869 25.36 24.9069 25.44 24.5602 25.52C24.2136 25.6 23.8669 25.6533 23.5069 25.7067C22.7869 25.8 22.0669 25.8533 21.3336 25.88C20.6002 25.9067 20.0002 25.88 19.2802 25.88V25.8C19.2136 24.2667 19.1736 22.72 19.1736 21.1733V10.32C19.0669 8.09333 18.6669 6 18.6669 3.82666C18.6268 3.06274 18.6268 2.29725 18.6669 1.53333C20.0002 1.53333 21.3336 1.53333 22.6669 1.64C23.3336 1.64 24.0002 1.64 24.6536 1.8C25.3099 1.86026 25.9579 1.98988 26.5869 2.18666C26.9541 2.29875 27.2944 2.48479 27.5869 2.73333C28.5438 3.59559 29.2021 4.73946 29.4669 6C29.8503 8.12691 30.0732 10.2796 30.1336 12.44C30.2197 13.1522 30.2598 13.8693 30.2536 14.5867C30.2669 15.7333 30.2136 16.84 30.1602 18Z" fill="#1D1C19"/>
<path fill-rule="evenodd" clip-rule="evenodd" d="M7.68025 12.0267C8.10573 11.9779 8.51487 11.8344 8.87761 11.6067C9.24036 11.379 9.54748 11.073 9.77641 10.711C10.0053 10.3491 10.1503 9.94046 10.2005 9.51515C10.2508 9.08984 10.2052 8.65867 10.0669 8.25333C9.929 7.44884 9.47715 6.73208 8.81077 6.26074C8.1444 5.7894 7.31807 5.60208 6.51358 5.74C5.70909 5.87791 4.99234 6.32975 4.52099 6.99613C4.04965 7.66251 3.86233 8.48884 4.00025 9.29333C4.0229 9.73069 4.1419 10.1577 4.34873 10.5437C4.55555 10.9297 4.84511 11.2653 5.19669 11.5264C5.54827 11.7876 5.9532 11.9678 6.38253 12.0543C6.81186 12.1408 7.25499 12.1313 7.68025 12.0267ZM7.02691 7.13333C7.43369 7.16094 7.81826 7.32892 8.11494 7.60858C8.41162 7.88824 8.60201 8.26223 8.65358 8.66666C8.71096 8.86323 8.72229 9.07037 8.68669 9.27203C8.6511 9.47368 8.56954 9.66443 8.44833 9.82947C8.32712 9.99452 8.16953 10.1294 7.98777 10.2237C7.80602 10.3181 7.60498 10.3692 7.40025 10.3733C7.19762 10.4328 6.9847 10.4486 6.77552 10.4197C6.56634 10.3908 6.36566 10.3179 6.18674 10.2057C6.00781 10.0936 5.8547 9.94479 5.73752 9.76912C5.62033 9.59346 5.54174 9.39494 5.50691 9.18666C5.44494 8.94956 5.4369 8.70158 5.48338 8.46095C5.52986 8.22033 5.62967 7.99318 5.77548 7.79621C5.92129 7.59923 6.1094 7.43744 6.32596 7.32273C6.54252 7.20802 6.78205 7.1433 7.02691 7.13333Z" fill="#1D1C19"/>
<path fill-rule="evenodd" clip-rule="evenodd" d="M24.3602 7.41333C24.5678 7.34071 24.7555 7.22067 24.9085 7.06277C25.0615 6.90486 25.1755 6.71344 25.2415 6.50373C25.3075 6.29401 25.3237 6.07179 25.2888 5.85472C25.2538 5.63766 25.1687 5.43173 25.0402 5.25333C24.8603 5.07059 24.6315 4.94361 24.3812 4.88763C24.131 4.83164 23.8699 4.84902 23.6292 4.93768C23.3886 5.02633 23.1786 5.18251 23.0245 5.38748C22.8704 5.59246 22.7786 5.83753 22.7602 6.09333C22.7582 6.29219 22.8007 6.48898 22.8846 6.6693C22.9684 6.84962 23.0916 7.00889 23.245 7.13545C23.3984 7.262 23.5782 7.35264 23.7711 7.40073C23.9641 7.44881 24.1654 7.45311 24.3602 7.41333Z" fill="#1D1C19"/>
<path fill-rule="evenodd" clip-rule="evenodd" d="M6.34691 14.9067C6.15909 15.0175 6.00131 15.1727 5.8874 15.3586C5.7735 15.5446 5.70694 15.7557 5.69358 15.9733C5.68953 16.1733 5.73052 16.3716 5.81352 16.5536C5.89652 16.7356 6.0194 16.8966 6.17306 17.0246C6.32672 17.1527 6.50721 17.2445 6.70118 17.2933C6.89515 17.3421 7.09761 17.3467 7.29358 17.3067C7.50545 17.2377 7.69801 17.1195 7.85553 16.9619C8.01305 16.8043 8.13108 16.6117 8.19999 16.3998C8.26889 16.1879 8.28671 15.9627 8.252 15.7426C8.21728 15.5225 8.13102 15.3137 8.00025 15.1333C7.79157 14.9131 7.51402 14.7706 7.21342 14.7294C6.91283 14.6881 6.60716 14.7507 6.34691 14.9067Z" fill="#1D1C19"/>
<path fill-rule="evenodd" clip-rule="evenodd" d="M23.4002 10.16C23.2151 10.2771 23.0597 10.4356 22.9463 10.623C22.8329 10.8104 22.7647 11.0217 22.7469 11.24C22.7424 11.4414 22.7836 11.6411 22.8673 11.8243C22.9511 12.0074 23.0753 12.1693 23.2305 12.2976C23.3858 12.4259 23.5681 12.5173 23.7637 12.5651C23.9594 12.6129 24.1633 12.6157 24.3602 12.5733C24.5685 12.5016 24.7569 12.3817 24.9101 12.2235C25.0633 12.0652 25.177 11.873 25.2419 11.6626C25.3069 11.4521 25.3213 11.2293 25.2839 11.0122C25.2465 10.7952 25.1585 10.59 25.0269 10.4133C24.8233 10.1951 24.5523 10.0516 24.2573 10.0056C23.9624 9.9597 23.6606 10.0141 23.4002 10.16Z" fill="#1D1C19"/>
<path fill-rule="evenodd" clip-rule="evenodd" d="M6.33358 20.04C6.14843 20.1571 5.99303 20.3156 5.87965 20.503C5.76627 20.6904 5.698 20.9017 5.68025 21.12C5.67574 21.3214 5.71692 21.5211 5.80068 21.7043C5.88443 21.8874 6.0086 22.0493 6.16385 22.1776C6.3191 22.3059 6.5014 22.3973 6.69707 22.4451C6.89273 22.4929 7.09667 22.4957 7.29358 22.4533C7.50545 22.3843 7.69801 22.2662 7.85553 22.1086C8.01305 21.951 8.13108 21.7584 8.19999 21.5465C8.26889 21.3346 8.28671 21.1094 8.252 20.8893C8.21728 20.6692 8.13102 20.4604 8.00025 20.28C7.79243 20.0544 7.51319 19.9073 7.20959 19.8636C6.90599 19.8199 6.5966 19.8822 6.33358 20.04Z" fill="#1D1C19"/>
<path fill-rule="evenodd" clip-rule="evenodd" d="M22.0669 10C22.2744 9.92737 22.4622 9.80734 22.6151 9.64943C22.7681 9.49153 22.8822 9.30011 22.9482 9.09039C23.0142 8.88068 23.0304 8.65846 22.9954 8.44139C22.9605 8.22432 22.8754 8.0184 22.7469 7.84C22.5678 7.65774 22.3401 7.53079 22.091 7.47424C21.8418 7.41769 21.5816 7.43393 21.3414 7.52102C21.1012 7.60812 20.8911 7.7624 20.736 7.9655C20.581 8.16861 20.4876 8.41199 20.4669 8.66666C20.4629 8.86664 20.5039 9.06496 20.5869 9.24695C20.6699 9.42893 20.7927 9.5899 20.9464 9.71795C21.1001 9.846 21.2806 9.93784 21.4745 9.98666C21.6685 10.0355 21.8709 10.04 22.0669 10Z" fill="#1D1C19"/>
<path fill-rule="evenodd" clip-rule="evenodd" d="M5.68025 17.72C5.46995 17.4932 5.18738 17.3466 4.88091 17.3053C4.57443 17.2639 4.26311 17.3304 4.00025 17.4933C3.81242 17.6041 3.65464 17.7593 3.54073 17.9453C3.42683 18.1313 3.36028 18.3423 3.34691 18.56C3.34286 18.76 3.38386 18.9583 3.46686 19.1403C3.54986 19.3223 3.67274 19.4832 3.82639 19.6113C3.98005 19.7393 4.16055 19.8312 4.35451 19.88C4.54848 19.9288 4.75095 19.9334 4.94691 19.8933C5.16102 19.8274 5.35639 19.7115 5.51691 19.5552C5.67743 19.3989 5.79849 19.2067 5.87012 18.9945C5.94174 18.7822 5.96188 18.5559 5.92887 18.3343C5.89586 18.1127 5.81064 17.9022 5.68025 17.72Z" fill="#1D1C19"/>
<path fill-rule="evenodd" clip-rule="evenodd" d="M26.6669 10C26.8752 9.92825 27.0635 9.80837 27.2167 9.65012C27.3699 9.49187 27.4836 9.2997 27.5486 9.08924C27.6136 8.87878 27.6279 8.65596 27.5906 8.43889C27.5532 8.22182 27.4652 8.01663 27.3336 7.84C27.1292 7.62705 26.8599 7.48796 26.5679 7.44452C26.2759 7.40109 25.9778 7.45577 25.7202 7.59999C25.5326 7.71558 25.3746 7.87343 25.2589 8.06095C25.1431 8.24847 25.0728 8.46047 25.0536 8.68C25.0511 8.88024 25.0938 9.07847 25.1784 9.25996C25.2631 9.44145 25.3875 9.60155 25.5425 9.72836C25.6975 9.85517 25.8791 9.94544 26.0737 9.99247C26.2684 10.0395 26.4711 10.0421 26.6669 10Z" fill="#1D1C19"/>
<path fill-rule="evenodd" clip-rule="evenodd" d="M8.58691 17.4533C8.39929 17.5689 8.24129 17.7268 8.12553 17.9143C8.00978 18.1018 7.93948 18.3138 7.92025 18.5333C7.91574 18.7347 7.95692 18.9345 8.04068 19.1176C8.12443 19.3008 8.2486 19.4626 8.40385 19.5909C8.5591 19.7192 8.7414 19.8107 8.93707 19.8584C9.13273 19.9062 9.33667 19.909 9.53358 19.8667C9.74183 19.7949 9.9302 19.675 10.0834 19.5168C10.2366 19.3585 10.3503 19.1664 10.4153 18.9559C10.4802 18.7454 10.4946 18.5226 10.4572 18.3056C10.4199 18.0885 10.3318 17.8833 10.2002 17.7067C9.99746 17.4916 9.72894 17.35 9.4369 17.3041C9.14486 17.2582 8.84587 17.3107 8.58691 17.4533Z" fill="#1D1C19"/>
<path fill-rule="evenodd" clip-rule="evenodd" d="M21.4269 18.5867C21.4602 19.0125 21.5849 19.4262 21.7925 19.7996C22.0001 20.1729 22.2857 20.4971 22.6298 20.7502C22.974 21.0032 23.3686 21.1792 23.7868 21.266C24.2051 21.3528 24.6371 21.3485 25.0536 21.2533C25.4791 21.2045 25.8882 21.061 26.2509 20.8334C26.6137 20.6057 26.9208 20.2997 27.1497 19.9377C27.3787 19.5758 27.5236 19.1671 27.5739 18.7418C27.6241 18.3165 27.5785 17.8853 27.4402 17.48C27.2413 16.7345 26.7687 16.0914 26.1166 15.679C25.4646 15.2665 24.681 15.115 23.9222 15.2546C23.1634 15.3943 22.4851 15.8148 22.0226 16.4324C21.5601 17.05 21.3474 17.8192 21.4269 18.5867ZM24.7736 19.6C24.5709 19.664 24.3568 19.6833 24.146 19.6564C23.9352 19.6295 23.7327 19.5571 23.5526 19.4443C23.3726 19.3314 23.2192 19.1808 23.1031 19.0027C22.987 18.8247 22.9109 18.6236 22.8802 18.4133C22.8296 18.1808 22.8303 17.94 22.8821 17.7076C22.9339 17.4753 23.0356 17.2571 23.1802 17.068C23.3249 16.879 23.5089 16.7237 23.7196 16.613C23.9303 16.5022 24.1625 16.4386 24.4002 16.4267C24.7901 16.46 25.1578 16.6222 25.4451 16.8879C25.7325 17.1535 25.9231 17.5073 25.9869 17.8933C26.0436 18.0867 26.0557 18.2905 26.0223 18.4893C25.9889 18.688 25.9109 18.8766 25.7941 19.0409C25.6773 19.2051 25.5248 19.3408 25.348 19.4376C25.1713 19.5345 24.9749 19.59 24.7736 19.6Z" fill="#1D1C19"/>
</svg>
