<svg width="32" height="32" viewBox="0 0 32 32" fill="none" xmlns="http://www.w3.org/2000/svg">
<path fill-rule="evenodd" clip-rule="evenodd" d="M31.2395 23.0267C31.0727 20.8535 30.6245 18.7111 29.9062 16.6533C29.4054 15.2051 28.5851 13.8881 27.5062 12.8C27.1127 12.4462 26.6618 12.1622 26.1729 11.96C25.5294 11.7157 24.8701 11.5152 24.1995 11.36C22.9762 11.0551 21.7256 10.872 20.4662 10.8133C18.6529 10.72 16.8395 10.8133 14.9595 10.8133C14.0795 10.8133 9.6262 11.1467 9.07953 11.2533C7.95588 11.4198 6.85232 11.7013 5.7862 12.0933C5.0265 12.3868 4.33957 12.8418 3.77286 13.4267C3.22798 14.0305 2.77837 14.7139 2.43953 15.4533C1.96738 16.515 1.59251 17.6173 1.31953 18.7467L0.946196 21.3333L0.67953 23.5467V25.12C0.639726 26.846 1.02916 28.555 1.81286 30.0933C2.12292 30.707 2.65802 31.1772 3.30645 31.4057C3.95488 31.6343 4.66654 31.6036 5.29286 31.32C5.79243 31.1091 6.25584 30.8212 6.6662 30.4667C7.42714 29.7877 8.13582 29.0522 8.7862 28.2667C9.29411 28.4055 9.82535 28.4373 10.3462 28.36C11.0466 28.2012 11.6871 27.8459 12.1925 27.3358C12.6979 26.8256 13.0473 26.1818 13.1995 25.48C13.7862 25.6 14.3329 25.7467 14.9329 25.8133C15.1769 25.8333 15.4222 25.8333 15.6662 25.8133C15.9149 25.8266 16.1642 25.8266 16.4129 25.8133C16.9462 25.7333 17.4529 25.6267 17.9862 25.52C18.1107 25.9994 18.3232 26.4515 18.6129 26.8533C19.0156 27.3797 19.5521 27.7885 20.1665 28.0371C20.7809 28.2856 21.4507 28.3649 22.1062 28.2667C22.4423 28.2017 22.7662 28.0847 23.0662 27.92C23.5096 28.7013 24.0568 29.4189 24.6929 30.0533C25.3323 30.7051 26.0758 31.2458 26.8929 31.6533C27.4088 31.9403 27.9974 32.07 28.5862 32.0267C29.0417 31.9686 29.462 31.7513 29.7729 31.4133C30.5704 30.485 31.0678 29.3368 31.1995 28.12C31.4098 26.4295 31.4232 24.7203 31.2395 23.0267ZM15.0262 11.8533C16.7995 11.8533 18.5062 11.8533 20.1995 12.0667C20.0267 13.0067 19.8042 13.9369 19.5329 14.8533C19.3796 15.3725 19.0785 15.8358 18.6662 16.1867C18.463 16.3018 18.2331 16.3616 17.9995 16.36C17.4129 16.36 16.7729 16.36 16.3195 16.44L14.3062 16.6533C13.9156 16.6815 13.5235 16.6815 13.1329 16.6533C12.8001 16.6615 12.4691 16.6025 12.1595 16.48C11.9164 16.3341 11.7049 16.141 11.5378 15.912C11.3706 15.6829 11.251 15.4227 11.1862 15.1467C10.8525 14.1496 10.6158 13.1226 10.4795 12.08C10.4795 12 10.4795 11.96 10.3862 11.8933C12.2262 12 12.1995 11.7733 15.0262 11.8533ZM11.8262 24.9067C11.7506 25.3564 11.5449 25.7742 11.2345 26.1083C10.9241 26.4425 10.5225 26.6783 10.0795 26.7867C9.69544 26.8523 9.30084 26.8153 8.93561 26.6795C8.57038 26.5437 8.24748 26.3139 7.99953 26.0133C7.71775 25.7252 7.52221 25.3639 7.43503 24.9704C7.34785 24.5769 7.3725 24.1669 7.5062 23.7867C7.70841 23.3122 8.01355 22.8887 8.39953 22.5467C8.80489 22.2889 9.26734 22.1347 9.74626 22.0975C10.2252 22.0603 10.7059 22.1413 11.1462 22.3333C11.5068 22.6429 11.7649 23.0548 11.8863 23.5143C12.0078 23.9738 11.9868 24.4593 11.8262 24.9067ZM21.8662 26.6667C21.4822 26.7282 21.0889 26.6893 20.7244 26.5538C20.3599 26.4183 20.0367 26.1908 19.7862 25.8933C19.5067 25.6038 19.3136 25.2418 19.2288 24.8484C19.144 24.455 19.1708 24.0457 19.3062 23.6667C20.4262 21 24.4795 21.4267 23.6262 24.7867C23.5464 25.2368 23.3377 25.6541 23.0252 25.9879C22.7128 26.3216 22.3101 26.5574 21.8662 26.6667ZM29.8662 28C29.8109 28.9675 29.4673 29.8962 28.8795 30.6667C28.8022 30.7532 28.7078 30.8227 28.6022 30.8709C28.4966 30.9191 28.3822 30.9449 28.2662 30.9467C27.9558 30.9346 27.6514 30.8574 27.3729 30.72C26.6521 30.3838 25.9903 29.9336 25.4129 29.3867C24.822 28.8344 24.3065 28.2068 23.8795 27.52L23.7995 27.4267C24.4296 26.8244 24.8581 26.042 25.0262 25.1867C25.2114 24.4643 25.1686 23.7024 24.9036 23.0053C24.6386 22.3082 24.1645 21.7102 23.5462 21.2933C22.5776 20.8686 21.4825 20.834 20.4889 21.1966C19.4954 21.5592 18.6801 22.2912 18.2129 23.24C17.9871 23.6496 17.8593 24.106 17.8395 24.5733C17.3462 24.5067 16.8662 24.4267 16.3595 24.3867C16.1153 24.373 15.8705 24.373 15.6262 24.3867C15.3821 24.3673 15.1369 24.3673 14.8929 24.3867C14.3589 24.4663 13.8293 24.5731 13.3062 24.7067C13.3971 24.0597 13.3039 23.4001 13.0375 22.8036C12.771 22.207 12.342 21.6975 11.7995 21.3333C11.5789 21.2091 11.3406 21.1192 11.0929 21.0667C10.5848 20.9071 10.0466 20.8686 9.52101 20.9543C8.99547 21.04 8.49725 21.2474 8.0662 21.56L7.99953 21.64C7.36675 22.0546 6.84493 22.6176 6.47953 23.28C6.18962 23.8657 6.07323 24.5221 6.14411 25.1717C6.21498 25.8214 6.47015 26.4373 6.87953 26.9467C7.15295 27.309 7.4922 27.6166 7.87953 27.8533C7.39953 28.3467 6.93286 28.8533 6.41286 29.2933C5.96378 29.7132 5.43263 30.0355 4.85286 30.24C4.49163 30.3825 4.08911 30.3786 3.73068 30.2292C3.37224 30.0799 3.08608 29.7968 2.93286 29.44C2.34145 28.1041 2.08514 26.6441 2.1862 25.1867L2.27953 23.72L2.5462 21.5867L2.95953 19.2133C3.17098 18.1664 3.47438 17.1402 3.8662 16.1467C4.11368 15.5152 4.45044 14.9225 4.8662 14.3867C5.28109 13.8948 5.7943 13.4951 6.37286 13.2133C7.32497 12.7952 8.3166 12.4736 9.33286 12.2533L9.65286 12.1733V12.2533C9.66313 13.5811 9.86064 14.9008 10.2395 16.1733C10.4543 16.8381 10.8924 17.4081 11.4795 17.7867C11.8653 18.0073 12.2916 18.1478 12.7329 18.2C13.3083 18.2731 13.8907 18.2731 14.4662 18.2L16.5862 17.96C17.0929 17.8667 17.9195 17.88 18.5329 17.72C18.9169 17.6345 19.2741 17.456 19.5729 17.2C20.1284 16.6552 20.513 15.9601 20.6795 15.2C20.88 14.2221 21.0268 13.2339 21.1195 12.24C21.1195 12.24 21.1195 12.24 21.1195 12.16C22.0539 12.2741 22.9771 12.4658 23.8795 12.7333C24.4698 12.8953 25.0488 13.0958 25.6129 13.3333C25.9273 13.4755 26.2157 13.6693 26.4662 13.9067C27.3668 14.8365 28.0459 15.9577 28.4529 17.1867C29.1218 19.122 29.5473 21.133 29.7195 23.1733C29.9626 24.7343 30.0253 26.3181 29.9062 27.8933L29.8662 28Z" fill="#1D1C19"/>
<path fill-rule="evenodd" clip-rule="evenodd" d="M16.7862 5.2C16.2776 5.06655 15.7492 5.0259 15.2262 5.08C14.7133 5.13457 14.2131 5.27426 13.7462 5.49334C12.7281 6.01175 11.8604 6.78308 11.2262 7.73334C11.1903 7.77448 11.1629 7.8223 11.1454 7.87405C11.128 7.9258 11.121 7.98048 11.1247 8.03495C11.1284 8.08943 11.1428 8.14264 11.1671 8.19155C11.1914 8.24046 11.225 8.28411 11.2662 8.32C11.3073 8.3559 11.3552 8.38334 11.4069 8.40075C11.4587 8.41817 11.5133 8.42522 11.5678 8.4215C11.6223 8.41779 11.6755 8.40338 11.7244 8.3791C11.7733 8.35482 11.817 8.32115 11.8529 8.28C12.5618 7.65931 13.3997 7.20389 14.3062 6.94667C14.6617 6.82145 15.0276 6.72776 15.3995 6.66667C16.0295 6.5639 16.6752 6.61981 17.2782 6.82933C17.8811 7.03886 18.4223 7.39538 18.8529 7.86667C18.8963 7.91102 18.9482 7.94625 19.0054 7.9703C19.0627 7.99435 19.1241 8.00674 19.1862 8.00674C19.2483 8.00674 19.3097 7.99435 19.367 7.9703C19.4242 7.94625 19.4761 7.91102 19.5195 7.86667C19.5635 7.82437 19.5985 7.77364 19.6223 7.71751C19.6462 7.66138 19.6585 7.601 19.6585 7.54C19.6585 7.479 19.6462 7.41863 19.6223 7.3625C19.5985 7.30637 19.5635 7.25563 19.5195 7.21334C18.8753 6.24 17.9068 5.52663 16.7862 5.2Z" fill="#1D1C19"/>
<path fill-rule="evenodd" clip-rule="evenodd" d="M8.47953 5.6C9.59661 3.95905 11.2152 2.72408 13.0929 2.08C14.1569 1.68484 15.2952 1.53003 16.4262 1.62667C17.1766 1.67403 17.9125 1.85463 18.5995 2.16C19.216 2.43114 19.7871 2.79539 20.2929 3.24C21.0748 3.9838 21.7887 4.79591 22.4262 5.66667C22.4607 5.71822 22.5055 5.76213 22.5577 5.79568C22.6099 5.82922 22.6685 5.85169 22.7297 5.86169C22.791 5.87169 22.8536 5.86901 22.9138 5.85381C22.974 5.83861 23.0304 5.81122 23.0795 5.77333C23.1296 5.73756 23.1721 5.69224 23.2045 5.63999C23.237 5.58774 23.2588 5.52957 23.2688 5.46885C23.2787 5.40813 23.2765 5.34605 23.2623 5.28618C23.2481 5.22631 23.2223 5.16984 23.1862 5.12C22.5899 4.14099 21.9072 3.2173 21.1462 2.36C20.5844 1.77277 19.9371 1.2738 19.2262 0.880001C18.3991 0.432192 17.4939 0.147048 16.5595 0.0400015C15.1934 -0.0933613 13.8159 0.127038 12.5595 0.680001C10.4911 1.58219 8.79613 3.16884 7.75953 5.17334C7.73151 5.22061 7.71309 5.27294 7.70529 5.32734C7.6975 5.38174 7.7005 5.43714 7.71412 5.49038C7.72774 5.54362 7.75171 5.59365 7.78467 5.63763C7.81763 5.6816 7.85892 5.71865 7.9062 5.74667C7.95347 5.77468 8.0058 5.79311 8.0602 5.8009C8.1146 5.8087 8.17 5.8057 8.22324 5.79208C8.27648 5.77846 8.32651 5.75448 8.37049 5.72153C8.41446 5.68857 8.45151 5.64728 8.47953 5.6Z" fill="#1D1C19"/>
</svg>
