<svg width="32" height="32" viewBox="0 0 32 32" fill="none" xmlns="http://www.w3.org/2000/svg">
<path fill-rule="evenodd" clip-rule="evenodd" d="M31.5602 24.1734C31.2353 22.9269 30.5974 21.7841 29.7069 20.8534C29.0146 20.2523 28.207 19.7986 27.3335 19.52C26.4801 19.2128 25.5712 19.0901 24.6669 19.16C23.7527 19.1965 22.8585 19.4384 22.0507 19.8678C21.2428 20.2971 20.542 20.9028 20.0002 21.64C19.4432 22.3721 19.0492 23.2148 18.8445 24.1117C18.6398 25.0085 18.6293 25.9388 18.8135 26.84C19.2721 28.6933 20.4342 30.2954 22.0535 31.3067C22.8888 31.7367 23.8097 31.9743 24.7487 32.0019C25.6877 32.0296 26.6211 31.8467 27.4802 31.4667C27.5283 31.4483 27.5724 31.4206 27.6098 31.3852C27.6473 31.3498 27.6774 31.3073 27.6985 31.2603C27.7195 31.2132 27.7311 31.1625 27.7325 31.111C27.734 31.0595 27.7252 31.0082 27.7069 30.96C27.6885 30.9119 27.6608 30.8678 27.6254 30.8304C27.59 30.7929 27.5475 30.7628 27.5005 30.7418C27.4534 30.7207 27.4027 30.7091 27.3512 30.7077C27.2996 30.7062 27.2483 30.715 27.2002 30.7334C26.4564 31.0236 25.6569 31.1431 24.8608 31.0831C24.0646 31.0231 23.2921 30.7851 22.6002 30.3867C21.2901 29.4571 20.3991 28.0487 20.1202 26.4667C20.0214 25.7741 20.0662 25.0687 20.2521 24.3942C20.4379 23.7198 20.7606 23.0909 21.2002 22.5467C21.6298 21.9929 22.1765 21.5408 22.8011 21.2227C23.4257 20.9046 24.1129 20.7284 24.8135 20.7067H24.9735C25.634 20.6548 26.298 20.7457 26.9202 20.9734C27.6002 21.1356 28.24 21.4351 28.8002 21.8534C29.5646 22.5884 30.129 23.5062 30.4402 24.52C30.7795 25.5232 30.7795 26.6102 30.4402 27.6133C30.2835 28.0382 30.0583 28.4346 29.7735 28.7867C29.4823 29.1512 29.1514 29.4821 28.7869 29.7734C28.7332 29.8074 28.6873 29.8523 28.6521 29.9052C28.6169 29.9581 28.5932 30.0178 28.5826 30.0805C28.572 30.1432 28.5746 30.2073 28.5904 30.2689C28.6062 30.3305 28.6348 30.388 28.6742 30.4378C28.7137 30.4876 28.7632 30.5286 28.8195 30.558C28.8758 30.5874 28.9377 30.6047 29.0011 30.6087C29.0646 30.6127 29.1281 30.6033 29.1877 30.5811C29.2472 30.5589 29.3015 30.5245 29.3469 30.48C29.7786 30.1617 30.1723 29.7949 30.5202 29.3867C30.8976 28.9783 31.2041 28.5096 31.4269 28C31.899 26.7755 31.946 25.4278 31.5602 24.1734Z" fill="black"/>
<path fill-rule="evenodd" clip-rule="evenodd" d="M17.4802 4.78668C17.0246 4.45882 16.5268 4.19419 16.0002 4.00002C15.6351 3.86973 15.2607 3.76721 14.8802 3.69335C14.8831 3.214 14.8112 2.73714 14.6669 2.28002C14.5348 1.82818 14.3075 1.4099 14.0002 1.05335C13.6709 0.674709 13.2545 0.381845 12.7869 0.200018C12.3006 -0.0117774 11.7643 -0.0811347 11.2402 1.83433e-05C10.359 0.193838 9.5612 0.660366 8.96018 1.33335C8.52478 1.81215 8.27836 2.43295 8.26685 3.08002C8.25318 3.27533 8.25318 3.47137 8.26685 3.66668C7.52982 3.80873 6.81324 4.04162 6.13352 4.36002C5.54486 4.63837 5.03924 5.06585 4.66685 5.60002V5.70669C3.83902 5.67068 3.00963 5.70189 2.18685 5.80002C1.66385 5.8816 1.1666 6.08233 0.733518 6.38668C0.58974 6.49458 0.475166 6.63665 0.400184 6.80002C0.325923 7.04265 0.281156 7.29334 0.266851 7.54668C0.200184 8.00002 0.160184 12.8134 0.240184 17.64C0.320184 22.12 0.520184 26.6133 0.600184 27.6933C0.625607 28.3346 0.705901 28.9725 0.840184 29.6C0.912604 29.9913 1.08225 30.3581 1.33352 30.6667C1.56968 30.8468 1.8513 30.9576 2.14685 30.9867C3.53083 31.1647 4.9248 31.2538 6.32018 31.2533C9.87819 31.3411 13.4384 31.2476 16.9869 30.9733C17.0921 30.9488 17.1852 30.8874 17.2492 30.8002C17.3132 30.7131 17.3439 30.606 17.3359 30.4981C17.3278 30.3903 17.2815 30.2889 17.2053 30.2123C17.1291 30.1356 17.028 30.0887 16.9202 30.08C14.4147 30.1867 11.9057 30.1867 9.40018 30.08C6.45352 29.9867 3.89352 29.8 2.73352 29.6133L2.36018 29.5333C2.29533 29.3806 2.25484 29.2186 2.24018 29.0534C2.16732 28.5722 2.12723 28.0866 2.12018 27.6L1.33352 7.66668V7.16002C1.75646 6.87107 2.24909 6.70072 2.76018 6.66668C3.25352 6.66668 3.77352 6.66668 4.28018 6.57335C4.17119 6.83428 4.0777 7.10141 4.00018 7.37335C3.97479 7.58147 3.97479 7.7919 4.00018 8.00002C4.00018 8.42668 4.12018 9.00002 4.12018 9.00002C4.13929 9.16521 4.21712 9.31803 4.3395 9.43062C4.46188 9.5432 4.62065 9.60806 4.78685 9.61335C4.78685 9.61335 8.46685 9.69335 11.8669 9.69335C13.7602 9.69335 15.5735 9.69335 16.6002 9.60002C16.7063 9.60002 16.808 9.55787 16.883 9.48286C16.958 9.40785 17.0002 9.3061 17.0002 9.20002C17.0002 9.09393 16.958 8.99219 16.883 8.91718C16.808 8.84216 16.7063 8.80002 16.6002 8.80002C15.8002 8.80002 14.5202 8.80002 13.0935 8.72002C10.2802 8.58668 6.90685 8.34668 5.53352 8.25335V7.72002C5.58604 7.48069 5.65283 7.24471 5.73352 7.01335C5.79803 6.82022 5.88769 6.63642 6.00018 6.46668C6.2371 6.14768 6.54834 5.89137 6.90685 5.72002C7.56958 5.43298 8.26298 5.22272 8.97352 5.09335L9.33352 4.98668C9.4321 4.96699 9.52558 4.92724 9.60816 4.8699C9.69073 4.81255 9.76063 4.73885 9.81352 4.65335C9.87271 4.57168 9.91298 4.47786 9.93143 4.3787C9.94988 4.27954 9.94604 4.17751 9.92019 4.08002L9.74685 3.08002C9.74815 2.88308 9.79307 2.68887 9.87837 2.51135C9.96367 2.33384 10.0872 2.17742 10.2402 2.05335C10.6294 1.73731 11.0853 1.51391 11.5735 1.40002C11.8173 1.32891 12.0764 1.32891 12.3202 1.40002C12.5844 1.48813 12.8258 1.63387 13.0269 1.82668C13.2895 2.10212 13.4736 2.44278 13.5602 2.81335C13.6363 3.25345 13.6631 3.70065 13.6402 4.14668C13.6389 4.28936 13.6896 4.42763 13.7828 4.53562C13.8761 4.6436 14.0055 4.7139 14.1469 4.73335C14.638 4.78103 15.1241 4.87023 15.6002 5.00002C16.0689 5.13507 16.5173 5.33238 16.9335 5.58668C17.2424 5.80597 17.4642 6.12694 17.5602 6.49335C17.681 6.92761 17.7437 7.37595 17.7469 7.82668C17.7469 7.94692 17.7946 8.06222 17.8796 8.14724C17.9646 8.23226 18.08 8.28002 18.2002 8.28002C18.3204 8.28002 18.4357 8.23226 18.5207 8.14724C18.6058 8.06222 18.6535 7.94692 18.6535 7.82668C18.6871 7.17451 18.592 6.52209 18.3735 5.90668C18.196 5.45153 17.8845 5.06099 17.4802 4.78668Z" fill="black"/>
<path fill-rule="evenodd" clip-rule="evenodd" d="M20.0002 6.05335C20.5964 6.17704 21.1776 6.3648 21.7335 6.61335C22.0185 6.72067 22.2647 6.91112 22.4402 7.16002C22.6479 7.76208 22.7691 8.39057 22.8002 9.02668C22.9069 9.98668 22.9868 11.16 23.0802 12.4C23.2269 14.08 23.4268 15.88 23.5469 17.56C23.5503 17.6638 23.594 17.7621 23.6686 17.8343C23.7433 17.9064 23.843 17.9467 23.9468 17.9467C23.9999 17.9485 24.0527 17.9395 24.1021 17.92C24.1515 17.9006 24.1963 17.8712 24.2338 17.8337C24.2714 17.7962 24.3008 17.7513 24.3202 17.7019C24.3396 17.6526 24.3487 17.5997 24.3468 17.5467C24.4268 16.0667 24.5335 14.4934 24.5469 12.9867V11.0267C24.5054 10.289 24.4208 9.55445 24.2935 8.82668C24.195 8.02724 23.9462 7.25364 23.5602 6.54668C23.3066 6.17934 22.9491 5.89612 22.5335 5.73335C21.7817 5.43429 20.9919 5.24133 20.1868 5.16002C20.0684 5.14076 19.9472 5.16924 19.8497 5.23922C19.7522 5.3092 19.6865 5.41497 19.6668 5.53335C19.6464 5.64611 19.6694 5.76243 19.7313 5.85891C19.7931 5.95538 19.8892 6.02486 20.0002 6.05335Z" fill="black"/>
<path fill-rule="evenodd" clip-rule="evenodd" d="M27.6402 22.8C27.5357 22.7424 27.4127 22.7283 27.2979 22.7607C27.1831 22.7932 27.0857 22.8696 27.0269 22.9734L24.5869 26.6667C23.2535 25.64 23.1869 25.6267 23.0269 25.68C22.8669 25.7334 22.5735 25.8667 22.7469 26.2C22.7469 26.2 23.6669 27.36 23.7869 27.5334C23.8851 27.6986 24.0232 27.8364 24.1887 27.9343C24.3541 28.0321 24.5414 28.0868 24.7335 28.0934C24.9303 28.0869 25.1233 28.0369 25.2985 27.947C25.4737 27.8571 25.6268 27.7295 25.7469 27.5734C26.1403 27.0747 26.4842 26.5388 26.7735 25.9734C27.2135 25.1067 27.5202 24.1467 27.8135 23.4667C27.8509 23.413 27.8763 23.3518 27.8878 23.2874C27.8993 23.223 27.8968 23.1568 27.8803 23.0935C27.8638 23.0301 27.8339 22.9711 27.7924 22.9204C27.7509 22.8698 27.699 22.8287 27.6402 22.8Z" fill="black"/>
<path fill-rule="evenodd" clip-rule="evenodd" d="M4.29352 10.8267C4.24094 10.8212 4.18779 10.8261 4.13714 10.8413C4.08649 10.8564 4.03935 10.8814 3.99843 10.9149C3.95752 10.9484 3.92364 10.9896 3.89877 11.0363C3.87389 11.0829 3.85851 11.1341 3.85352 11.1867C3.55766 14.1995 3.4908 17.2304 3.65352 20.2533C3.74109 22.2857 3.97727 24.3088 4.36018 26.3067C4.40817 26.5343 4.54183 26.7348 4.73352 26.8667C5.15714 27.0615 5.60593 27.1962 6.06685 27.2667C7.39735 27.3753 8.73348 27.3975 10.0669 27.3334C11.9202 27.3334 14.0669 27.1734 15.7735 27.0267C15.8331 27.0269 15.892 27.0147 15.9466 26.9908C16.0011 26.9669 16.0501 26.9319 16.0903 26.8879C16.1305 26.844 16.161 26.7921 16.1799 26.7356C16.1989 26.6791 16.2058 26.6193 16.2002 26.56C16.1985 26.5011 16.185 26.443 16.1604 26.3894C16.1359 26.3358 16.1008 26.2876 16.0573 26.2478C16.0137 26.208 15.9626 26.1774 15.907 26.1577C15.8514 26.138 15.7924 26.1298 15.7335 26.1334H10.0669C8.8454 26.1257 7.62548 26.0455 6.41352 25.8934H5.80018C5.60018 24.8534 5.44018 23.3734 5.26685 21.7334C5.12018 20.3067 4.96018 18.7734 4.85352 17.28C4.68689 15.3069 4.62903 13.3261 4.68018 11.3467C4.69916 11.2864 4.70356 11.2224 4.69303 11.16C4.6825 11.0977 4.65734 11.0387 4.6196 10.988C4.58187 10.9372 4.53264 10.8961 4.47596 10.8681C4.41927 10.8401 4.35675 10.8259 4.29352 10.8267Z" fill="black"/>
<path fill-rule="evenodd" clip-rule="evenodd" d="M19.5735 16.1067C19.6535 16.88 19.8002 17.7067 19.9069 18.7733C19.9069 18.8794 19.949 18.9812 20.024 19.0562C20.099 19.1312 20.2008 19.1733 20.3069 19.1733C20.4129 19.1733 20.5147 19.1312 20.5897 19.0562C20.6647 18.9812 20.7069 18.8794 20.7069 18.7733C20.8402 17.7467 20.9869 16.8934 21.0269 16.1067C21.0472 15.7247 21.0472 15.342 21.0269 14.96C21.0269 14.5467 21.0269 14.1733 20.9069 13.8133C20.7735 12.8533 20.5735 12.04 20.4135 11.1467C20.4085 11.0871 20.3917 11.029 20.3642 10.9759C20.3366 10.9228 20.2988 10.8757 20.2529 10.8373C20.2071 10.7989 20.1541 10.7699 20.0969 10.7521C20.0398 10.7342 19.9798 10.7279 19.9202 10.7334C19.8611 10.7383 19.8035 10.7551 19.7511 10.7828C19.6986 10.8106 19.6523 10.8486 19.615 10.8947C19.5776 10.9408 19.55 10.994 19.5337 11.051C19.5174 11.1081 19.5128 11.1678 19.5202 11.2267V15C19.5202 15.3867 19.5335 15.7067 19.5735 16.1067Z" fill="black"/>
<path fill-rule="evenodd" clip-rule="evenodd" d="M7.33352 15.32L8.21352 15.4L10.2669 15.5467H14.5469C15.2535 15.5467 15.8802 15.5467 16.4269 15.64C16.5432 15.6555 16.661 15.6252 16.7555 15.5556C16.85 15.486 16.9138 15.3824 16.9335 15.2667C16.9528 15.1482 16.9243 15.027 16.8543 14.9295C16.7843 14.8321 16.6786 14.7663 16.5602 14.7467C15.3211 14.4205 14.06 14.1843 12.7869 14.04C11.9259 13.9732 11.0611 13.9732 10.2002 14.04L8.26685 14.32L7.48019 14.4C6.97352 14.4 7.00019 14.6934 7.12018 14.9334C7.09118 14.9704 7.07372 15.0152 7.06996 15.0621C7.0662 15.109 7.07632 15.156 7.09906 15.1972C7.12179 15.2384 7.15614 15.272 7.19782 15.2938C7.23951 15.3157 7.2867 15.3248 7.33352 15.32Z" fill="black"/>
<path fill-rule="evenodd" clip-rule="evenodd" d="M16.6535 19.8934C16.7605 19.9187 16.8731 19.9044 16.9703 19.8529C17.0675 19.8014 17.1426 19.7164 17.1818 19.6136C17.2209 19.5109 17.2214 19.3974 17.1831 19.2943C17.1448 19.1912 17.0703 19.1056 16.9735 19.0534C15.8749 18.8793 14.7656 18.7813 13.6535 18.76H12.3202C11.8669 18.76 11.4135 18.76 10.9869 18.84C9.65352 18.96 8.53352 19.1867 7.84018 19.32C7.74827 19.337 7.66521 19.3857 7.60543 19.4575C7.54564 19.5294 7.51291 19.6199 7.51291 19.7134C7.51291 19.8068 7.54564 19.8973 7.60543 19.9692C7.66521 20.041 7.74827 20.0897 7.84018 20.1067C8.53352 20.1067 9.69352 20.24 10.9735 20.28H12.3069C12.7469 20.28 13.2135 20.28 13.6402 20.2C15.2669 20 16.5469 19.8667 16.6535 19.8934Z" fill="black"/>
</svg>
