<svg width="72" height="72" viewBox="0 0 72 72" fill="none" xmlns="http://www.w3.org/2000/svg">
<rect width="72" height="72" rx="36" fill="white"/>
<path d="M31 28.9895C31 28.0183 31 27.5328 31.2025 27.2651C31.3789 27.0319 31.6485 26.8876 31.9404 26.8702C32.2754 26.8502 32.6795 27.1195 33.4875 27.6582L44.0031 34.6686C44.6708 35.1137 45.0046 35.3363 45.1209 35.6168C45.2227 35.8621 45.2227 36.1377 45.1209 36.383C45.0046 36.6635 44.6708 36.886 44.0031 37.3312L33.4875 44.3415C32.6795 44.8802 32.2754 45.1496 31.9404 45.1296C31.6485 45.1122 31.3789 44.9679 31.2025 44.7347C31 44.467 31 43.9814 31 43.0103V28.9895Z" stroke="#1D1C19" stroke-width="1.5" stroke-linecap="round" stroke-linejoin="round"/>
</svg>
