<svg width="30" height="32" viewBox="0 0 30 32" fill="none" xmlns="http://www.w3.org/2000/svg">
<path fill-rule="evenodd" clip-rule="evenodd" d="M25.4002 11C26.7335 8.39998 29.2135 3.45331 26.3202 3.06665C24.0121 2.72292 21.6803 2.56242 19.3469 2.58665C19.4109 2.18989 19.4421 1.78853 19.4402 1.38665C19.3602 -0.346688 17.0135 -2.09976e-05 16.3335 -2.09976e-05C15.6643 -0.0318334 14.9941 0.0401294 14.3469 0.213312C9.85353 1.18665 10.1602 0.973312 8.70686 1.33331C7.50984 1.62153 6.35721 2.07002 5.28019 2.66665C5.03794 2.84829 4.85272 3.09546 4.7464 3.37897C4.64009 3.66249 4.61711 3.9705 4.68019 4.26665C4.68019 4.58665 5.66686 8.91998 5.86686 9.69331C6.21353 11.1066 6.36019 11.3333 7.08019 14.2533C7.17353 14.64 7.18686 15.32 7.76019 15.3733C7.81277 15.3788 7.86592 15.3739 7.91657 15.3587C7.96722 15.3436 8.01436 15.3186 8.05528 15.2851C8.0962 15.2516 8.13007 15.2104 8.15494 15.1637C8.17982 15.1171 8.1952 15.0659 8.20019 15.0133C8.20019 14.5733 7.52019 12.8933 6.70686 7.42665C8.33353 7.81331 11.3869 4.77331 11.0002 2.33331C15.0002 1.57331 14.6935 1.19998 16.3335 1.14665C16.8535 1.14665 18.1335 0.853312 18.4535 1.27998C18.5869 1.45331 18.4535 2.38665 18.5202 2.61331C17.8269 2.61331 14.2002 2.82665 13.7202 3.34665C13.261 4.10539 13.0296 4.98011 13.0535 5.86665C12.9735 6.47998 12.2002 13.1066 12.3069 13.6933C12.3077 13.7556 12.3222 13.817 12.3493 13.8731C12.3764 13.9293 12.4155 13.9788 12.4638 14.0182C12.5121 14.0576 12.5684 14.0859 12.6288 14.1012C12.6893 14.1165 12.7523 14.1183 12.8135 14.1066C13.0269 14.1066 13.9469 7.99998 13.9602 7.89331C14.4759 8.03397 15.018 8.04802 15.5403 7.93427C16.0626 7.82053 16.5497 7.58235 16.9602 7.23998C17.4743 6.88464 17.9002 6.4163 18.2053 5.87086C18.5104 5.32542 18.6865 4.71736 18.7202 4.09331H22.0269C21.9002 4.60815 21.8892 5.14468 21.9947 5.66426C22.1003 6.18385 22.3197 6.67358 22.6372 7.0982C22.9547 7.52282 23.3624 7.87176 23.8309 8.11991C24.2995 8.36806 24.8172 8.50925 25.3469 8.53331C25.0802 9.19998 24.7869 9.86664 24.4802 10.5466L24.0802 11.6533C23.9069 12.1866 24.7335 12.6266 24.9602 12.1066C25.0269 11.92 24.9069 12.2266 25.4002 11ZM6.57353 6.51998C6.44019 5.58665 6.18686 4.34665 6.18686 4.31998C6.06686 3.35998 6.38686 3.73331 7.28019 3.35998C8.13987 3.00419 9.0333 2.73616 9.94686 2.55998C9.76019 3.59998 7.61353 6.35998 6.57353 6.51998ZM16.2002 5.93331C14.5202 7.26664 14.8669 6.86665 14.1202 6.97331C14.2303 6.14754 14.3861 5.3285 14.5869 4.51998C14.7069 4.51998 15.9202 4.26665 17.7735 4.14665C17.5602 4.89331 16.6002 5.59998 16.2002 5.93331ZM24.0802 6.42665C22.7469 5.09331 22.9735 4.30665 22.9469 4.18665C24.0269 4.18665 25.1069 4.33331 26.1602 4.43998C26.7202 4.43998 25.9335 6.95998 25.7469 7.50665C25.0962 7.32054 24.5159 6.94449 24.0802 6.42665Z" fill="#1D1C19"/>
<path fill-rule="evenodd" clip-rule="evenodd" d="M29.0535 19.7333C28.7069 18.2266 27.7869 17.0666 26.2402 17.24C26.0535 16.92 26.8002 14.04 24.5602 13.04C24.2791 12.9027 23.9772 12.8126 23.6669 12.7733C23.0245 12.6802 22.3697 12.8121 21.8135 13.1466C21.1069 13.48 18.1202 14.3733 18.1202 14.4C17.4935 14.56 11.4535 15.64 9.76019 15.7333C7.81353 15.8 4.58686 15.5333 5.84019 14.0133C5.91047 13.937 5.94948 13.8371 5.94948 13.7333C5.94948 13.6296 5.91047 13.5296 5.84019 13.4533C5.32019 13.0133 4.69353 14.1733 4.73353 14.8666C4.82686 16.5866 8.08019 17.08 9.80019 17.1466C15.4002 17.3466 22.2535 14.3733 22.5735 13.7333C24.5735 14.0666 25.0135 15.6266 25.3335 17.7333C24.6269 18.7333 23.8135 18.2266 21.5869 18.7066C19.9202 19.0666 18.9202 19.88 19.0135 21.5866C19.0268 22.2067 19.2223 22.8091 19.5755 23.3189C19.9288 23.8286 20.4243 24.2232 21.0002 24.4533C21.3924 24.5807 21.7935 24.6788 22.2002 24.7466C23.3141 24.9909 24.4701 24.9681 25.5735 24.68C25.4402 28.3866 25.0269 28.3733 22.9069 29.0933C19.4802 30.2133 8.56019 31.4 5.57353 29.5466C3.73353 28.5333 3.44019 26.6666 3.00019 24.76C2.39133 22.2702 2.0516 19.7223 1.98686 17.16C1.92019 13.0666 2.20019 13.0266 4.65353 11.2533C4.73426 11.1785 4.78504 11.077 4.79641 10.9675C4.80777 10.8581 4.77894 10.7482 4.7153 10.6585C4.65165 10.5687 4.55753 10.5052 4.45049 10.4797C4.34345 10.4542 4.23079 10.4685 4.13353 10.52C1.46686 12.3733 0.986861 12.6666 0.906861 17.1866C0.869741 19.8289 1.12462 22.4671 1.66686 25.0533C2.16019 27.44 2.49353 29.4933 4.65353 30.84C8.90686 33.5066 23.9335 31.1733 25.7069 28.6133C26.3085 27.3004 26.5435 25.849 26.3869 24.4133C27.324 24.0903 28.1115 23.4372 28.6022 22.5759C29.093 21.7147 29.2534 20.7042 29.0535 19.7333ZM22.5069 23.2933C21.984 23.2453 21.4784 23.0813 21.0269 22.8133C20.3202 22.24 20.0535 20.8 20.8402 20.2933C22.7069 19.1066 25.1335 20.1066 26.1735 18.1333C26.2935 18.1333 27.7202 17.72 28.0535 19.9333C28.4002 22.6666 25.1202 23.9066 22.5069 23.2933Z" fill="#1D1C19"/>
<path fill-rule="evenodd" clip-rule="evenodd" d="M20.1602 12.2666C20.6388 12.0754 21.1517 11.9847 21.6669 12C21.7869 12.68 23.0002 12.4133 22.9069 11.88C22.7869 10.92 22.2135 10.6533 21.2269 10.5466C20.7383 10.5037 20.247 10.5879 19.8007 10.7912C19.3544 10.9945 18.9684 11.3099 18.6802 11.7066C18.4181 12.1639 18.2932 12.687 18.3202 13.2133C18.2002 13.7333 19.4002 13.6133 19.4135 13.1333C19.6669 12.5333 19.8002 12.4266 20.1602 12.2666Z" fill="#1D1C19"/>
</svg>
