<svg width="36" height="26" viewBox="0 0 36 26" fill="none" xmlns="http://www.w3.org/2000/svg">
<path d="M14 13H4C3.46957 13 2.96086 12.7893 2.58579 12.4142C2.21071 12.0391 2 11.5304 2 11V4C2 3.46957 2.21071 2.96086 2.58579 2.58579C2.96086 2.21071 3.46957 2 4 2H12C12.5304 2 13.0391 2.21071 13.4142 2.58579C13.7893 2.96086 14 3.46957 14 4V13ZM14 13C14 18 12 21 6 24M34 13H24C23.4696 13 22.9609 12.7893 22.5858 12.4142C22.2107 12.0391 22 11.5304 22 11V4C22 3.46957 22.2107 2.96086 22.5858 2.58579C22.9609 2.21071 23.4696 2 24 2H32C32.5304 2 33.0391 2.21071 33.4142 2.58579C33.7893 2.96086 34 3.46957 34 4V13ZM34 13C34 18 32 21 26 24" stroke="#589999" stroke-width="2.5" stroke-linecap="round"/>
</svg>
