<svg width="32" height="32" viewBox="0 0 32 32" fill="none" xmlns="http://www.w3.org/2000/svg">
<path fill-rule="evenodd" clip-rule="evenodd" d="M18.2264 17.3333C18.4264 16.12 18.6397 14.8933 18.773 13.6667H19.053C19.1597 13.6667 19.573 13.8267 20.0264 13.92C20.9064 13.6533 20.8664 13.2533 20.2264 12.7733C19.786 12.6756 19.341 12.6 18.893 12.5467C18.9651 11.5099 19.0897 10.4775 19.2664 9.45334C19.1864 8.12 18.213 8.34667 17.8397 9.45334C17.8473 9.53761 17.8473 9.6224 17.8397 9.70667C17.6797 10.6 17.5197 11.5067 17.3864 12.3733C15.8797 12.2933 16.1597 12.3733 12.8797 12.3733C12.8797 12.1067 12.5597 10.6133 12.373 9.54667C12.1864 8.48 11.3197 8.44 11.2397 9.54667C11.2397 10.2133 11.2397 11.04 11.3464 12.3733C10.453 12.3733 10.173 12.3733 7.47969 12.5867C7.33721 11.597 7.13236 10.6172 6.86636 9.65334C6.33302 8.68 5.33302 9.01334 5.33302 9.78667C5.55969 10.9867 5.43969 10.5467 5.79969 12.8133C5.09682 12.917 4.38256 12.917 3.67969 12.8133C2.34636 12.9333 2.17302 13.9067 3.95969 14.0667H5.99969C6.33302 16.1867 6.37302 16.52 6.62636 17.76C5.9032 17.9328 5.14951 17.9328 4.42636 17.76C3.83969 17.5067 2.69302 19.0933 6.89302 18.8133C7.04976 19.4142 7.27338 19.9956 7.55969 20.5467C7.6239 20.6458 7.72237 20.7177 7.83629 20.7487C7.9502 20.7798 8.07156 20.7678 8.17717 20.715C8.28277 20.6622 8.36521 20.5723 8.40872 20.4625C8.45223 20.3528 8.45376 20.2308 8.41302 20.12C8.22512 19.6948 8.09507 19.2464 8.02636 18.7867C9.15969 18.7067 9.71969 18.7867 12.453 18.6933C12.6765 19.2746 12.8374 19.878 12.933 20.4933C12.933 20.6206 12.9836 20.7427 13.0736 20.8327C13.1636 20.9228 13.2857 20.9733 13.413 20.9733C13.5403 20.9733 13.6624 20.9228 13.7524 20.8327C13.8425 20.7427 13.893 20.6206 13.893 20.4933C13.888 19.8778 13.8119 19.2648 13.6664 18.6667H16.7597C16.5197 21.6667 18.5464 20.5333 17.8264 19.8267C17.6797 19.6533 17.8264 18.8 17.9197 18.5733C18.7597 18.4533 19.0797 18.4667 19.493 18.3867C19.9064 18.3067 20.1864 17.36 19.6797 17.32C19.173 17.28 19.0264 17.3333 18.2264 17.3333ZM7.86636 17.5333C7.86636 17.12 7.65302 14.8667 7.57302 14.1067H11.4397C11.5471 15.133 11.7343 16.1494 11.9997 17.1467C10.616 17.2091 9.23637 17.3426 7.86636 17.5467V17.5333ZM16.9064 17.3333C15.773 17.3333 14.573 17.1867 13.4264 17.1333C13.3597 16.5733 13.1064 14.4667 13.0397 13.96C14.9597 13.84 16.0264 13.7067 17.1597 13.6667C16.9997 15.4933 16.9197 17.3333 16.9064 17.3333Z" fill="#1D1C19"/>
<path fill-rule="evenodd" clip-rule="evenodd" d="M30.3864 0.866671C28.9277 0.570096 27.4266 0.547489 25.9597 0.800004C23.853 1.45334 24.6264 0.0666708 22.5464 6.64C21.6664 9.97334 19.5997 20.6933 19.8797 21.12C7.34636 21.32 7.15969 21.5733 3.78636 20.6C3.87969 20.3333 3.55969 19.6133 3.53302 19.4933C1.74636 11.2933 1.23969 10.5733 1.73302 9.12C8.02911 8.07306 14.404 7.57341 20.7864 7.62667C20.831 7.66256 20.8823 7.68931 20.9373 7.70539C20.9923 7.72147 21.0499 7.72655 21.1068 7.72036C21.1638 7.71417 21.219 7.69682 21.2692 7.66931C21.3195 7.64179 21.3638 7.60465 21.3997 7.56C21.4356 7.51535 21.4623 7.46407 21.4784 7.40908C21.4945 7.3541 21.4996 7.29648 21.4934 7.23953C21.4872 7.18258 21.4698 7.1274 21.4423 7.07715C21.4148 7.0269 21.3777 6.98256 21.333 6.94667C20.5597 6.37334 6.05302 7.05334 6.17302 7.05334C4.41585 6.87165 2.64047 7.09984 0.986357 7.72C-0.413643 8.36 -0.000309289 11.44 0.279691 12.8933C1.33302 16.8267 0.946357 15.2667 1.98636 19.76C2.06636 20.1733 2.07969 21.2133 2.47969 21.6C4.46636 23.5067 14.4797 22.12 19.6264 22.0933C19.3464 23.04 19.2397 23.6133 18.4264 23.84C17.5398 23.9308 16.6463 23.9308 15.7597 23.84C11.9064 24.0267 8.19969 23.2267 2.42636 23.84C2.3132 23.8312 2.20116 23.8676 2.1149 23.9414C2.02863 24.0152 1.9752 24.1202 1.96636 24.2333C1.95752 24.3465 1.99399 24.4585 2.06775 24.5448C2.14152 24.6311 2.24653 24.6845 2.35969 24.6933C1.91728 24.8686 1.5166 25.1349 1.18357 25.4748C0.850537 25.8147 0.592571 26.2208 0.426357 26.6667C-0.240309 28.5067 1.59969 30.7867 3.45302 31.2667C7.14636 32.2133 9.94636 27.08 7.13302 24.9067C7.54334 24.9148 7.95287 24.946 8.35969 25C10.9996 25.468 13.6908 25.5756 16.3597 25.32C13.8664 27.7067 16.4397 31.24 19.653 30.88C23.1864 30.4667 22.9597 24.8133 19.933 24.3067C20.8264 23.24 20.4397 22.2267 21.853 16.9333C22.8679 13.0145 23.6735 9.04446 24.2664 5.04C24.9064 4.88 29.213 5.28 30.1197 5.22667C30.6206 5.14437 31.0787 4.89437 31.419 4.51762C31.7592 4.14088 31.9614 3.65974 31.9924 3.15305C32.0233 2.64636 31.8813 2.14417 31.5895 1.72877C31.2977 1.31337 30.8735 1.0094 30.3864 0.866671ZM6.58636 28.2933C6.4019 28.7025 6.1115 29.055 5.74518 29.3144C5.37886 29.5737 4.94992 29.7306 4.50269 29.7686C4.05547 29.8067 3.60619 29.7246 3.20131 29.5309C2.79643 29.3372 2.45064 29.0388 2.19969 28.6667C1.97128 28.4608 1.79527 28.2034 1.68628 27.9158C1.57729 27.6283 1.53846 27.3189 1.57302 27.0133C1.67225 26.5724 1.91065 26.1751 2.25302 25.88C4.55969 23.84 7.99969 25.6533 6.58636 28.2933ZM20.9464 27.04C21.3464 30.7733 16.413 29.2667 16.8397 27.04C17.1864 25.2533 20.6264 24.0933 20.9464 27.04ZM29.973 3.65334C29.0664 3.77334 25.9064 3.8 24.4664 3.98667C24.5512 3.29115 24.7122 2.60706 24.9464 1.94667C25.0797 2.14667 25.8664 1.85334 26.1997 1.78667C27.4977 1.77162 28.7897 1.9652 30.0264 2.36C30.5597 2.52 30.493 3.6 29.973 3.65334Z" fill="#1D1C19"/>
</svg>
