<svg width="32" height="32" viewBox="0 0 32 32" fill="none" xmlns="http://www.w3.org/2000/svg">
<path fill-rule="evenodd" clip-rule="evenodd" d="M21.0799 25.8667C20.7822 25.6589 20.4652 25.4803 20.1332 25.3333C18.0932 24.5333 18.2932 25.1333 19.3065 24.3467C22.5465 21.8667 22.1199 15.76 17.8265 14.92C17.7099 14.8962 17.5887 14.9192 17.4889 14.9841C17.3891 15.0489 17.3188 15.1504 17.2932 15.2667C17.1199 16.0667 18.3465 15.5467 19.5199 17.04C21.3599 19.4133 19.9732 25.1733 13.9999 23.7867C9.39988 22.8533 9.99988 14.76 16.2799 15.1733C16.3357 15.1878 16.394 15.19 16.4507 15.1799C16.5075 15.1697 16.5614 15.1474 16.6087 15.1145C16.6561 15.0816 16.6957 15.0388 16.725 14.9891C16.7543 14.9394 16.7724 14.884 16.7783 14.8266C16.7841 14.7692 16.7774 14.7113 16.7588 14.6567C16.7401 14.6022 16.7099 14.5523 16.6702 14.5105C16.6304 14.4687 16.5821 14.436 16.5286 14.4146C16.475 14.3933 16.4175 14.3837 16.3599 14.3867C15.0389 14.1386 13.6729 14.3693 12.5066 15.0374C11.3404 15.7055 10.4503 16.7672 9.99605 18.0321C9.54177 19.297 9.553 20.6824 10.0277 21.9398C10.5025 23.1971 11.4096 24.2443 12.5865 24.8933C9.66655 26.08 7.25322 28.4533 7.69322 31.56C7.69322 31.6661 7.73536 31.7678 7.81037 31.8428C7.88539 31.9178 7.98713 31.96 8.09322 31.96C8.1993 31.96 8.30104 31.9178 8.37606 31.8428C8.45107 31.7678 8.49322 31.6661 8.49322 31.56C8.61849 30.6658 8.99274 29.8249 9.57322 29.1333C10.4351 28.0293 11.4292 27.0352 12.5332 26.1733C13.7865 25.4133 13.7199 25.4667 13.7999 25.36C14.24 25.4474 14.6854 25.5053 15.1332 25.5333C14.6679 27.2493 14.6313 29.0532 15.0265 30.7867C15.0203 30.813 15.0203 30.8404 15.0265 30.8667C15.0369 30.9212 15.0589 30.973 15.091 31.0183C15.1231 31.0636 15.1646 31.1015 15.2127 31.1293C15.2608 31.1572 15.3143 31.1743 15.3696 31.1796C15.4249 31.1849 15.4807 31.1782 15.5332 31.16C15.6145 31.1628 15.6944 31.1379 15.7598 31.0895C15.8251 31.0411 15.8722 30.9719 15.8932 30.8933C15.8995 30.8536 15.8995 30.8131 15.8932 30.7733C16.145 29.4555 16.2568 28.1147 16.2265 26.7733C15.9999 25.44 16.0265 25.7067 16.0399 25.5733C16.5369 25.5554 17.0297 25.4748 17.5065 25.3333C18.4302 25.8461 19.3208 26.4161 20.1732 27.04C21.4133 28.3107 22.356 29.8409 22.9332 31.52C22.9386 31.5841 22.9576 31.6463 22.9888 31.7025C23.0201 31.7587 23.063 31.8075 23.1146 31.8459C23.1662 31.8842 23.2254 31.9112 23.2883 31.9249C23.3511 31.9386 23.4161 31.9388 23.479 31.9255C23.5419 31.9121 23.6013 31.8855 23.6531 31.8475C23.705 31.8095 23.7481 31.7608 23.7797 31.7048C23.8114 31.6488 23.8307 31.5867 23.8365 31.5227C23.8422 31.4586 23.8343 31.3941 23.8132 31.3333C23.7514 30.2845 23.4773 29.2592 23.0074 28.3196C22.5376 27.3799 21.8818 26.5454 21.0799 25.8667Z" fill="#1D1C19"/>
<path fill-rule="evenodd" clip-rule="evenodd" d="M14.9199 18.5867C13.968 19.1746 12.8649 19.4713 11.7466 19.44C11.652 19.4474 11.5631 19.4881 11.4957 19.555C11.4284 19.6218 11.3871 19.7105 11.3791 19.805C11.371 19.8995 11.3969 19.9939 11.452 20.0711C11.5071 20.1483 11.5879 20.2035 11.6799 20.2267C14.3465 20.7333 15.3732 20.2267 17.5599 18.8C18.3865 19.6267 19.1332 20.68 19.6132 20.1333C19.6979 20.0484 19.7454 19.9333 19.7454 19.8133C19.7454 19.6934 19.6979 19.5783 19.6132 19.4933C18.4799 18.3067 18.3732 17 17.1999 17.3333C16.4167 17.7075 15.6555 18.126 14.9199 18.5867Z" fill="#1D1C19"/>
<path fill-rule="evenodd" clip-rule="evenodd" d="M13.4265 7.25332C12.7732 8.49332 11.1599 10.8667 12.5599 11.2533C13.7465 11.6 14.9865 10.24 15.7865 9.31999C15.7865 9.31999 16.0665 9.13332 16.2665 8.95999C16.5865 9.29332 16.9332 9.62666 17.2932 9.93332C17.9786 10.5158 18.7649 10.9677 19.6132 11.2667C21.0399 11.4 20.4665 8.89332 20.2132 7.46666L19.9999 7.17332C21.0132 6.67999 22.8132 5.83999 22.7332 4.67999C22.6399 3.34666 20.7199 3.47999 19.2399 3.34666H18.8532L17.4932 0.839989C16.5332 -0.360011 15.4265 -0.146678 14.8265 1.05332L13.9332 3.02666C13.9332 3.10666 13.7332 3.27999 13.6932 3.39999C12.6691 3.33996 11.6427 3.47108 10.6665 3.78666C10.0132 4.15999 10.0399 4.97332 10.5865 5.57332C11.4495 6.26416 12.4056 6.82974 13.4265 7.25332ZM13.4265 4.58666C13.6799 4.58666 13.9732 4.77332 14.3732 4.58666C14.7732 4.39999 14.8932 3.85332 16.0932 1.51999C16.1895 1.58635 16.2789 1.6623 16.3599 1.74666C16.5599 2.01332 17.4799 4.07999 17.8799 4.51999C18.029 4.66977 18.2193 4.77187 18.4265 4.81332C19.323 4.83237 20.2158 4.93504 21.0932 5.11999C20.3685 5.51915 19.61 5.85378 18.8265 6.11999C18.6792 6.22405 18.5662 6.36973 18.502 6.53837C18.4379 6.70701 18.4256 6.89095 18.4665 7.06666C18.7232 7.88801 18.9018 8.73175 18.9999 9.58666C18.1336 9.0786 17.3473 8.44506 16.6665 7.70666C15.5865 6.59999 14.4132 10.0933 12.9999 10.3733C12.9932 10.289 12.9932 10.2043 12.9999 10.12C13.1465 9.39999 14.0799 7.87999 14.3332 7.14666C14.3332 7.33332 14.4799 6.54666 13.9599 6.54666L12.7332 5.94666C12.5199 5.78666 11.3999 5.15999 11.2132 4.82666C11.3732 4.78666 13.3332 4.55999 13.4532 4.54666L13.4265 4.58666Z" fill="#1D1C19"/>
<path fill-rule="evenodd" clip-rule="evenodd" d="M31.9999 8.53332C31.8666 7.19999 30.0266 7.42665 28.5866 7.27999C28.427 7.2633 28.2661 7.2633 28.1066 7.27999L26.7732 5.03999C25.8799 3.99999 24.9466 4.19999 24.4399 5.22666L23.5866 7.07999C23.5371 7.18738 23.5315 7.30984 23.5711 7.42126C23.6106 7.53268 23.6922 7.62425 23.7982 7.67642C23.9043 7.7286 24.0266 7.73727 24.139 7.70057C24.2514 7.66387 24.345 7.58472 24.3999 7.47999C25.6132 5.03999 25.4799 5.15999 25.9066 5.73332C26.0799 5.95999 27.0132 7.95999 27.3732 8.39999C27.7332 8.83999 28.2532 8.63999 28.4666 8.67999C29.0932 8.77332 30.1866 8.67999 30.6132 8.82666C30.6132 8.82666 28.3866 9.81332 28.2266 9.89332C28.0698 9.99236 27.949 10.1391 27.8818 10.3118C27.8146 10.4846 27.8046 10.6744 27.8532 10.8533C28.0792 11.5752 28.2398 12.316 28.3332 13.0667C25.6666 11.6667 26.1466 9.97332 24.3332 12.28C24.1199 12.5333 23.1066 13.9333 22.5332 14.0267C22.3781 13.2073 22.3781 12.366 22.5332 11.5467C22.5721 11.4476 22.5701 11.3372 22.5276 11.2397C22.4851 11.1422 22.4056 11.0656 22.3065 11.0267C22.2075 10.9878 22.0971 10.9898 21.9996 11.0323C21.9021 11.0748 21.8254 11.1543 21.7866 11.2533C21.5463 12.1206 21.4517 13.0217 21.5065 13.92C21.5999 15.08 22.4399 15.2533 23.3999 14.6933C24.0789 14.2037 24.685 13.6201 25.1999 12.96L25.6265 12.6533C26.2601 13.3239 26.9877 13.8988 27.7866 14.36C28.4666 14.72 29.1199 15.1067 29.5999 14.5867C30.0799 14.0667 29.5999 11.92 29.5065 10.84C30.4399 10.3867 32.0932 9.55999 31.9999 8.53332Z" fill="#1D1C19"/>
<path fill-rule="evenodd" clip-rule="evenodd" d="M2.49322 10.9067C2.32405 11.7604 2.21268 12.6246 2.15988 13.4933C2.11509 13.6948 2.11331 13.9034 2.15466 14.1056C2.19602 14.3078 2.27958 14.499 2.39988 14.6667C2.91988 15.1867 3.53322 14.8 4.21322 14.44C5.01298 13.9747 5.74063 13.3952 6.37322 12.72L6.79988 13.0267C7.32479 13.6504 7.93006 14.2019 8.59988 14.6667C9.54655 15.2 10.3999 15.0667 10.4932 13.8933C10.5488 12.995 10.4542 12.0938 10.2132 11.2267C10.194 11.1776 10.1652 11.1329 10.1287 11.095C10.0921 11.057 10.0484 11.0267 10.0002 11.0056C9.95187 10.9846 9.89991 10.9732 9.84725 10.9723C9.79458 10.9713 9.74224 10.9807 9.69322 11C9.64419 11.0192 9.59943 11.048 9.56151 11.0845C9.52359 11.1211 9.49323 11.1648 9.47219 11.213C9.45114 11.2613 9.43981 11.3133 9.43884 11.366C9.43787 11.4186 9.44729 11.471 9.46655 11.52C9.62166 12.3394 9.62166 13.1806 9.46655 14C8.87988 13.9067 7.85322 12.48 7.66655 12.2533C5.83988 9.94665 6.33322 11.64 3.66655 13.04C3.76152 12.2896 3.92214 11.549 4.14655 10.8267C4.19519 10.6478 4.18517 10.458 4.11797 10.2852C4.05078 10.1124 3.92994 9.96569 3.77322 9.86665C3.61322 9.77332 1.39988 8.77332 1.38655 8.79999C1.81322 8.69332 2.90655 8.79999 3.53322 8.65332C3.74655 8.65332 4.30655 8.65332 4.62655 8.37332C4.94655 8.09332 6.21322 5.33332 6.45322 5.39999C6.69322 5.46665 6.70655 5.61332 7.63988 7.47999C7.69475 7.58472 7.78835 7.66387 7.90075 7.70057C8.01314 7.73727 8.13542 7.7286 8.24152 7.67642C8.34761 7.62425 8.42912 7.53268 8.46867 7.42126C8.50822 7.30984 8.50267 7.18738 8.45322 7.07999L7.59988 5.22666C7.09321 4.19999 6.15988 3.99999 5.33322 5.03999L3.99988 7.27999C3.84032 7.2633 3.67945 7.2633 3.51988 7.27999C1.98655 7.49332 0.133216 7.29332 -0.000117365 8.59999C-0.0934507 9.62665 1.55988 10.44 2.49322 10.9067Z" fill="#1D1C19"/>
</svg>
