<svg width="36" height="30" viewBox="0 0 36 30" fill="none" xmlns="http://www.w3.org/2000/svg">
<path d="M26.3551 26.7244C24.876 25.2273 23.8907 23.3013 23.5351 21.212C23.1149 17.5994 22.9945 13.9573 23.1751 10.3243C23.1556 10.2155 23.0991 10.1171 23.0155 10.0463C22.9319 9.97547 22.8265 9.93667 22.7176 9.93667C22.6087 9.93667 22.5033 9.97547 22.4196 10.0463C22.336 10.1171 22.2796 10.2155 22.2601 10.3243C21.9676 14.0339 21.9676 17.7613 22.2601 21.4708C22.4391 22.5483 22.7255 23.6044 23.1151 24.623C23.5832 25.5462 24.1572 26.41 24.8251 27.1964C22.1251 28.7192 13.3801 28.0492 10.6501 27.9121C8.25008 27.7903 7.48508 28.2623 7.06508 26.3893C6.45595 21.997 6.28508 17.5534 6.55508 13.1262C6.81151 11.4543 6.88696 9.75907 6.78008 8.0706C6.67508 7.26354 5.89508 7.64423 5.95508 8.25333C5.43464 11.5992 5.14394 14.9777 5.08508 18.3644C5.05084 21.3386 5.23636 24.3113 5.64008 27.2573C5.75343 27.8244 6.03341 28.3433 6.44311 28.7457C6.85281 29.148 7.37299 29.4148 7.93508 29.511C8.78362 29.6454 9.64128 29.7116 10.5001 29.709C14.1557 30.0574 17.8336 30.093 21.4951 29.8155C23.7451 29.5415 27.6151 28.5669 26.3551 26.7244Z" fill="#1D1C19"/>
<path d="M8.43008 8.05538C10.9951 8.05538 21.6301 8.5122 23.8801 8.05538C24.15 7.99807 24.3991 7.86635 24.6001 7.67469C25.149 6.98726 25.5302 6.17795 25.7126 5.31266C25.8951 4.44737 25.8737 3.55057 25.6501 2.69528C24.8401 -0.0152256 22.3351 1.87996e-06 19.5001 1.87996e-06C16.6651 1.87996e-06 13.7701 0.243643 11.7751 0.152277C9.78008 0.0609119 6.94508 0.152277 6.82508 0.152277C4.62008 -0.0913636 2.10008 1.46185 1.11007 5.64942C0.54763 9.17837 0.187025 12.7374 0.0300738 16.3087C-0.0555971 20.0323 0.0495449 23.758 0.345074 27.4705C0.394121 27.5896 0.484055 27.6865 0.59818 27.7434C0.712306 27.8002 0.842871 27.8131 0.965639 27.7796C1.08841 27.7461 1.19504 27.6685 1.26574 27.5613C1.33644 27.454 1.3664 27.3244 1.35007 27.1964C1.16667 22.2075 1.38238 17.2117 1.99508 12.2582C2.41508 9.21267 2.34008 4.84236 4.36508 2.66482C4.63187 2.29448 4.98738 1.9994 5.39792 1.80754C5.80847 1.61568 6.26047 1.53339 6.7111 1.56846C7.16174 1.60353 7.5961 1.75481 7.97304 2.00796C8.34998 2.26111 8.65702 2.60775 8.86508 3.01506C9.08445 3.66506 9.1089 4.36653 8.93534 5.03065C8.76178 5.69477 8.39801 6.29168 7.89008 6.74581C7.68008 6.88285 7.35008 8.04015 8.43008 8.05538ZM9.93008 2.40595C9.27008 1.17252 8.79008 1.1573 9.00008 1.1573C10.0351 1.1573 11.0401 1.27912 11.6101 1.34003C14.4301 1.62935 20.0101 1.43139 22.5601 1.9339C22.9712 2.00428 23.3455 2.21735 23.6191 2.53673C23.8926 2.85611 24.0485 3.26199 24.0601 3.68507C24.3901 6.97422 22.7851 6.42603 22.2601 6.48694C18.9751 6.83717 12.2251 7.00467 8.92508 7.08081C9.51479 6.48032 9.92174 5.72017 10.0973 4.89118C10.2728 4.06219 10.2096 3.19942 9.91508 2.40595H9.93008Z" fill="#1D1C19"/>
<path d="M12.8101 11.3141C12.1823 11.8354 11.6317 12.4457 11.1751 13.1262C10.2151 14.5271 10.2901 14.9078 9.82508 14.6489C9.75465 14.5898 9.67314 14.5458 9.58547 14.5197C9.49781 14.4935 9.40582 14.4856 9.31508 14.4966C8.29508 14.923 9.88508 16.7199 11.0551 16.0194C12.7951 14.6337 12.7501 13.1566 13.5001 12.045C13.5655 11.9469 13.5958 11.8291 13.5859 11.7111C13.5761 11.5931 13.5267 11.4821 13.446 11.3965C13.3652 11.311 13.2581 11.2562 13.1424 11.2412C13.0267 11.2262 12.9094 11.2519 12.8101 11.3141Z" fill="#1D1C19"/>
<path d="M16.1401 15.6996C17.1437 15.6727 18.1451 15.5914 19.1401 15.456C19.2754 15.456 19.4051 15.4014 19.5007 15.3043C19.5964 15.2072 19.6501 15.0755 19.6501 14.9382C19.8751 13.5068 13.9351 13.918 13.8451 14.6794C13.7551 15.4407 15.9001 15.6692 16.1401 15.6996Z" fill="#1D1C19"/>
<path d="M12.3001 18.8213C11.4151 20.1917 10.9951 20.542 10.0951 22.0647C9.96082 22.0398 9.82993 21.9989 9.70508 21.9429C9.68129 21.886 9.64637 21.8346 9.60244 21.7918C9.55851 21.749 9.50648 21.7157 9.44951 21.694C9.39254 21.6722 9.3318 21.6623 9.27098 21.6651C9.21016 21.6678 9.15052 21.683 9.09566 21.7099C9.04081 21.7367 8.99188 21.7745 8.95185 21.8211C8.91182 21.8676 8.88151 21.922 8.86276 21.9808C8.844 22.0396 8.8372 22.1016 8.84276 22.1631C8.84831 22.2247 8.86611 22.2845 8.89508 22.3388C9.08909 22.7773 9.38819 23.1595 9.76508 23.4504C11.2651 24.5164 12.6751 20.9836 13.2301 19.2781C13.2898 19.1529 13.298 19.0088 13.253 18.8774C13.208 18.746 13.1134 18.6382 12.9901 18.5776C12.8668 18.517 12.7248 18.5087 12.5954 18.5544C12.466 18.6001 12.3598 18.6961 12.3001 18.8213Z" fill="#1D1C19"/>
<path d="M19.5001 22.6281C19.5929 22.5267 19.6444 22.3935 19.6444 22.2551C19.6444 22.1167 19.5929 21.9834 19.5001 21.882C19.1851 21.4252 17.5651 21.2881 17.2051 21.3033C16.1208 21.3732 15.0484 21.5725 14.0101 21.8972C13.8451 22.1256 13.7701 22.3084 13.9201 22.4759C14.0701 22.6434 13.7251 22.5672 15.9301 23.0697C17.1296 23.0173 18.3232 22.8696 19.5001 22.6281Z" fill="#1D1C19"/>
<path d="M35.7901 1.62935C34.9051 -1.08115 31.3801 0.304552 30.3751 1.78162C30.1933 2.05659 30.0942 2.37936 30.0901 2.71051C27.6451 3.04551 27.5851 6.80672 27.5401 9.13653C27.6451 12.5018 27.5401 13.4459 28.1851 13.385C28.8301 13.3241 28.6651 12.7759 29.1301 9.2279C29.5951 5.67988 29.2801 4.65963 30.1051 3.80689C30.2251 3.80689 30.1051 10.5222 30.3901 11.1923C29.9851 12.8064 29.7151 20.9074 29.6101 23.1154C29.5103 23.8621 29.4801 24.6167 29.5201 25.3691C29.8595 26.6787 30.6669 27.8132 31.7851 28.5517C32.7151 29.0237 33.2851 28.1253 33.6001 27.4705C34.4337 26.4562 34.8713 25.1666 34.8301 23.8463C34.8301 20.2831 34.7401 22.8566 35.1301 10.9334C35.4373 10.0516 35.6093 9.12719 35.6401 8.19242C35.8351 6.19761 36.2551 3.03028 35.7901 1.62935ZM31.6951 2.83233C32.0874 2.44264 32.5736 2.16435 33.1051 2.02527C33.9151 1.87299 33.9451 1.79685 34.0951 2.11663C34.2105 2.39186 34.2765 2.6858 34.2901 2.9846C34.3462 5.43919 34.261 7.895 34.0351 10.3395C33.9001 10.3395 33.6451 10.4613 33.5551 10.4613H31.3051C31.2001 9.57813 31.1701 11.6034 31.6951 2.83233ZM32.1151 26.6482C31.7094 26.2132 31.4022 25.6935 31.2151 25.1255C31.3351 21.1358 30.9451 14.8773 31.2151 11.5882C32.1372 11.6796 33.0641 11.7102 33.9901 11.6795L33.2851 21.1054C33.1351 25.2777 33.3001 24.7448 32.1151 26.5873V26.6482Z" fill="#1D1C19"/>
</svg>
