<svg width="36" height="30" viewBox="0 0 36 30" fill="none" xmlns="http://www.w3.org/2000/svg">
<path d="M26.3549 26.7244C24.8758 25.2273 23.8905 23.3013 23.5349 21.212C23.1146 17.5994 22.9942 13.9573 23.1749 10.3243C23.1554 10.2155 23.0989 10.1171 23.0153 10.0463C22.9317 9.97547 22.8262 9.93667 22.7174 9.93667C22.6085 9.93667 22.503 9.97547 22.4194 10.0463C22.3358 10.1171 22.2793 10.2155 22.2598 10.3243C21.9674 14.0339 21.9674 17.7613 22.2598 21.4708C22.4388 22.5483 22.7253 23.6044 23.1149 24.623C23.5829 25.5462 24.1569 26.41 24.8249 27.1964C22.1248 28.7192 13.3798 28.0492 10.6498 27.9121C8.24984 27.7903 7.48484 28.2623 7.06484 26.3893C6.4557 21.997 6.28484 17.5534 6.55483 13.1262C6.81127 11.4543 6.88672 9.75907 6.77984 8.0706C6.67484 7.26354 5.89483 7.64423 5.95483 8.25333C5.4344 11.5992 5.1437 14.9777 5.08483 18.3644C5.05059 21.3386 5.23611 24.3113 5.63983 27.2573C5.75319 27.8244 6.03317 28.3433 6.44287 28.7457C6.85257 29.148 7.37275 29.4148 7.93484 29.511C8.78337 29.6454 9.64104 29.7116 10.4998 29.709C14.1554 30.0574 17.8334 30.093 21.4949 29.8155C23.7449 29.5415 27.6149 28.5669 26.3549 26.7244Z" fill="#1D1C19"/>
<path d="M8.42984 8.05538C10.9948 8.05538 21.6298 8.5122 23.8798 8.05538C24.1498 7.99807 24.3989 7.86635 24.5998 7.67469C25.1487 6.98726 25.5299 6.17795 25.7124 5.31266C25.8948 4.44737 25.8734 3.55057 25.6499 2.69528C24.8399 -0.0152256 22.3348 1.87996e-06 19.4998 1.87996e-06C16.6648 1.87996e-06 13.7698 0.243643 11.7748 0.152277C9.77984 0.0609119 6.94484 0.152277 6.82484 0.152277C4.61983 -0.0913636 2.09983 1.46185 1.10983 5.64942C0.547386 9.17837 0.186781 12.7374 0.0298297 16.3087C-0.0558413 20.0323 0.0493008 23.758 0.34483 27.4705C0.393877 27.5896 0.48381 27.6865 0.597936 27.7434C0.712062 27.8002 0.842627 27.8131 0.965395 27.7796C1.08816 27.7461 1.19479 27.6685 1.26549 27.5613C1.33619 27.454 1.36616 27.3244 1.34983 27.1964C1.16643 22.2075 1.38214 17.2117 1.99483 12.2582C2.41483 9.21267 2.33983 4.84236 4.36483 2.66482C4.63163 2.29448 4.98713 1.9994 5.39768 1.80754C5.80822 1.61568 6.26022 1.53339 6.71086 1.56846C7.1615 1.60353 7.59585 1.75481 7.97279 2.00796C8.34973 2.26111 8.65677 2.60775 8.86484 3.01506C9.08421 3.66506 9.10866 4.36653 8.9351 5.03065C8.76153 5.69477 8.39776 6.29168 7.88984 6.74581C7.67984 6.88285 7.34984 8.04015 8.42984 8.05538ZM9.92984 2.40595C9.26984 1.17252 8.78984 1.1573 8.99984 1.1573C10.0348 1.1573 11.0398 1.27912 11.6098 1.34003C14.4298 1.62935 20.0098 1.43139 22.5598 1.9339C22.971 2.00428 23.3453 2.21735 23.6188 2.53673C23.8924 2.85611 24.0483 3.26199 24.0599 3.68507C24.3899 6.97422 22.7848 6.42603 22.2598 6.48694C18.9748 6.83717 12.2248 7.00467 8.92484 7.08081C9.51455 6.48032 9.92149 5.72017 10.097 4.89118C10.2726 4.06219 10.2093 3.19942 9.91484 2.40595H9.92984Z" fill="#1D1C19"/>
<path d="M12.8098 11.3141C12.1821 11.8354 11.6315 12.4457 11.1748 13.1262C10.2148 14.5271 10.2898 14.9078 9.82484 14.6489C9.75441 14.5898 9.67289 14.5458 9.58523 14.5197C9.49756 14.4935 9.40557 14.4856 9.31484 14.4966C8.29484 14.923 9.88484 16.7199 11.0548 16.0194C12.7948 14.6337 12.7498 13.1566 13.4998 12.045C13.5652 11.9469 13.5955 11.8291 13.5857 11.7111C13.5758 11.5931 13.5264 11.4821 13.4457 11.3965C13.365 11.311 13.2579 11.2562 13.1421 11.2412C13.0264 11.2262 12.9091 11.2519 12.8098 11.3141Z" fill="#1D1C19"/>
<path d="M16.1398 15.6996C17.1434 15.6727 18.1448 15.5914 19.1398 15.456C19.2751 15.456 19.4048 15.4014 19.5005 15.3043C19.5961 15.2072 19.6498 15.0755 19.6498 14.9382C19.8748 13.5068 13.9348 13.918 13.8448 14.6794C13.7548 15.4407 15.8998 15.6692 16.1398 15.6996Z" fill="#1D1C19"/>
<path d="M12.2998 18.8213C11.4148 20.1917 10.9948 20.542 10.0948 22.0647C9.96058 22.0398 9.82968 21.9989 9.70484 21.9429C9.68104 21.886 9.64612 21.8346 9.60219 21.7918C9.55826 21.749 9.50624 21.7157 9.44927 21.694C9.39229 21.6722 9.33156 21.6623 9.27074 21.6651C9.20991 21.6678 9.15027 21.683 9.09542 21.7099C9.04056 21.7367 8.99164 21.7745 8.95161 21.8211C8.91157 21.8676 8.88126 21.922 8.86251 21.9808C8.84376 22.0396 8.83696 22.1016 8.84251 22.1631C8.84807 22.2247 8.86587 22.2845 8.89484 22.3388C9.08884 22.7773 9.38795 23.1595 9.76484 23.4504C11.2648 24.5164 12.6748 20.9836 13.2298 19.2781C13.2895 19.1529 13.2978 19.0088 13.2527 18.8774C13.2077 18.746 13.1132 18.6382 12.9898 18.5776C12.8665 18.517 12.7245 18.5087 12.5951 18.5544C12.4657 18.6001 12.3595 18.6961 12.2998 18.8213Z" fill="#1D1C19"/>
<path d="M19.4998 22.6281C19.5926 22.5267 19.6442 22.3935 19.6442 22.2551C19.6442 22.1167 19.5926 21.9834 19.4998 21.882C19.1848 21.4252 17.5648 21.2881 17.2048 21.3033C16.1206 21.3732 15.0482 21.5725 14.0098 21.8972C13.8448 22.1256 13.7698 22.3084 13.9198 22.4759C14.0698 22.6434 13.7248 22.5672 15.9298 23.0697C17.1294 23.0173 18.323 22.8696 19.4998 22.6281Z" fill="#1D1C19"/>
<path d="M35.7899 1.62935C34.9049 -1.08115 31.3799 0.304552 30.3749 1.78162C30.193 2.05659 30.094 2.37936 30.0899 2.71051C27.6448 3.04551 27.5849 6.80672 27.5399 9.13653C27.6449 12.5018 27.5399 13.4459 28.1849 13.385C28.8299 13.3241 28.6649 12.7759 29.1299 9.2279C29.5949 5.67988 29.2799 4.65963 30.1049 3.80689C30.2249 3.80689 30.1049 10.5222 30.3899 11.1923C29.9849 12.8064 29.7149 20.9074 29.6099 23.1154C29.51 23.8621 29.4799 24.6167 29.5199 25.3691C29.8593 26.6787 30.6667 27.8132 31.7849 28.5517C32.7149 29.0237 33.2849 28.1253 33.5999 27.4705C34.4334 26.4562 34.8711 25.1666 34.8299 23.8463C34.8299 20.2831 34.7399 22.8566 35.1299 10.9334C35.4371 10.0516 35.6091 9.12719 35.6399 8.19242C35.8349 6.19761 36.2549 3.03028 35.7899 1.62935ZM31.6949 2.83233C32.0872 2.44264 32.5734 2.16435 33.1049 2.02527C33.9149 1.87299 33.9449 1.79685 34.0949 2.11663C34.2102 2.39186 34.2763 2.6858 34.2899 2.9846C34.3459 5.43919 34.2608 7.895 34.0349 10.3395C33.8999 10.3395 33.6449 10.4613 33.5549 10.4613H31.3049C31.1999 9.57813 31.1699 11.6034 31.6949 2.83233ZM32.1149 26.6482C31.7092 26.2132 31.402 25.6935 31.2149 25.1255C31.3349 21.1358 30.9449 14.8773 31.2149 11.5882C32.1369 11.6796 33.0639 11.7102 33.9899 11.6795L33.2849 21.1054C33.1349 25.2777 33.2999 24.7448 32.1149 26.5873V26.6482Z" fill="#1D1C19"/>
</svg>
