<svg width="40" height="40" viewBox="0 0 40 40" fill="none" xmlns="http://www.w3.org/2000/svg">
<path fill-rule="evenodd" clip-rule="evenodd" d="M10.7329 4.14911C10.5704 4.11638 10.403 4.11638 10.2406 4.14911C9.90816 4.08017 9.56397 4.0935 9.2379 4.18793C8.91183 4.28236 8.61375 4.45504 8.36956 4.69096C7.76231 5.75824 7.64743 6.46428 6.58063 13.6561C6.25239 15.8728 5.67796 17.9088 5.28407 19.8627C4.89018 21.8167 4.47987 24.1154 4.03674 26.0529C3.62357 27.485 3.28394 28.9373 3.01919 30.4042C2.97916 30.6431 3.002 30.8884 3.08545 31.1158C3.1689 31.3432 3.3101 31.545 3.49514 31.7013C4.9965 32.2945 6.55207 32.74 8.13979 33.0313C12.2428 33.9344 17.7245 34.8867 18.66 35.0509C18.7877 35.0718 18.9186 35.0449 19.0276 34.9752C19.1367 34.9055 19.2162 34.798 19.2508 34.6733C19.2651 34.6063 19.2657 34.5372 19.2526 34.47C19.2396 34.4028 19.2131 34.339 19.1748 34.2822C19.1365 34.2255 19.0872 34.1771 19.0297 34.1399C18.9723 34.1027 18.9079 34.0775 18.8405 34.0657C17.905 33.8523 12.489 32.6701 8.45162 31.6028C7.19547 31.3064 5.95711 30.9391 4.74247 30.5027C4.923 29.2876 5.71079 26.6933 5.74361 26.5127C6.03903 25.1827 6.33445 23.8035 6.58063 22.3421C7.43407 17.5147 7.91002 13.1635 9.20658 6.75984C9.20658 6.75984 9.33788 5.93885 9.35429 5.92243C9.53524 5.79472 9.73444 5.69507 9.94513 5.62688C10.3226 5.62688 10.618 5.62688 10.7493 5.52836C11.1432 5.11787 11.1596 4.24763 10.7329 4.14911Z" fill="#1D1C19"/>
<path fill-rule="evenodd" clip-rule="evenodd" d="M32.3806 16.8744C32.5119 16.3161 32.6104 15.7742 32.6924 15.2324C32.7745 14.6905 32.8565 14.1323 32.9222 13.5904C33.0535 12.4082 33.1191 11.1767 33.2504 9.68254C33.2748 9.59109 33.2748 9.49485 33.2504 9.4034C33.2504 9.4034 33.3817 9.28847 33.3981 9.18995C33.4275 9.05069 33.401 8.90545 33.3242 8.78563C33.2474 8.66581 33.1266 8.58102 32.9878 8.54958C32.5323 8.29362 32.03 8.1317 31.5107 8.07341C31.0348 8.07341 30.4768 8.89439 30.8378 9.28847C30.9882 9.4775 31.2058 9.60106 31.4451 9.63328H32.2329C31.9046 11.029 31.5928 12.2112 31.3302 13.3277C31.2153 13.886 31.1004 14.4278 31.002 14.9697C30.9035 15.5115 30.8214 16.0534 30.7558 16.6116C30.6409 17.7774 30.1321 20.733 30.0172 22.2272C30.0065 22.2875 30.0077 22.3494 30.0208 22.4094C30.034 22.4693 30.0588 22.526 30.0938 22.5763C30.1289 22.6266 30.1735 22.6695 30.2251 22.7026C30.2767 22.7357 30.3344 22.7582 30.3947 22.769C30.4551 22.7798 30.5169 22.7786 30.5768 22.7654C30.6367 22.7523 30.6934 22.7275 30.7437 22.6924C30.794 22.6573 30.8369 22.6127 30.8699 22.5611C30.903 22.5094 30.9255 22.4517 30.9363 22.3914C30.9199 21.9645 32.1836 17.3998 32.3806 16.8744Z" fill="#1D1C19"/>
<path fill-rule="evenodd" clip-rule="evenodd" d="M36.8611 8.08983C36.7201 7.49201 36.4514 6.93184 36.0733 6.44786C35.6726 5.89457 35.1252 5.46448 34.4929 5.20623C33.8606 4.94798 33.1687 4.87187 32.4955 4.98651L31.8882 4.87157C30.0337 4.49392 28.6879 4.06701 26.8497 3.65652C26.1932 3.50874 25.4711 3.3938 24.634 3.24603C23.797 3.09825 22.6482 2.91763 21.6798 2.81911C14.6718 2.06381 14.4257 1.35776 12.686 2.99973C12.4659 3.18726 12.2775 3.40903 12.128 3.65652C10.8314 5.61046 10.5852 8.99291 8.17262 21.8003C7.97567 22.7854 7.36842 24.3453 7.17147 25.7246C7.01911 26.4002 7.01911 27.1014 7.17147 27.777C7.30589 28.06 7.50533 28.3073 7.75348 28.4985C8.00164 28.6896 8.29148 28.8194 8.59933 28.8771C10.4539 29.4026 14.7703 29.5832 18.2005 30.2564C18.2684 30.2734 18.339 30.2767 18.4082 30.266C18.4774 30.2554 18.5438 30.2309 18.6035 30.1942C18.6631 30.1575 18.7148 30.1092 18.7555 30.0522C18.7962 29.9952 18.8251 29.9307 18.8405 29.8623C18.8705 29.7253 18.8461 29.5821 18.7727 29.4627C18.6992 29.3432 18.5824 29.257 18.4466 29.2219C16.0341 28.6144 13.1619 28.2203 11.0612 27.8099C9.91231 27.5964 8.38597 27.4815 8.66498 27.1366C8.66498 27.0546 8.76345 27.2516 8.77987 27.3173C8.68193 26.7023 8.72686 26.073 8.91116 25.4783C9.17376 24.296 9.61689 23.0317 9.81384 22.1943C10.1257 20.7987 10.5031 19.403 10.7165 17.9909C12.3577 6.90761 11.6028 8.13909 12.9978 5.38058C13.2159 4.95346 13.48 4.55152 13.7856 4.18195C14.2044 3.64925 14.7777 3.25924 15.4268 3.06541C16.8547 3.4759 18.2661 3.82071 19.7104 4.11627C21.1547 4.41182 22.6974 4.6417 24.273 4.95367C26.5871 5.24923 28.0806 5.5612 29.7546 5.80749L30.444 5.90601C28.4417 7.54798 28.4909 8.45106 26.9317 14.1158C26.8004 14.6249 26.6856 15.1174 26.5871 15.6265C26.4886 16.1355 26.423 16.6281 26.3573 17.1371C26.1932 18.3357 25.5039 23.5079 25.4054 24.7065C25.3872 24.8412 25.4218 24.9776 25.502 25.0873C25.5822 25.197 25.7017 25.2713 25.8355 25.2946C25.9693 25.318 26.1069 25.2886 26.2195 25.2126C26.3321 25.1367 26.4109 25.02 26.4394 24.8872C26.7512 23.7214 27.7031 18.6148 28.0806 17.4655C28.2119 16.9729 28.3268 16.4639 28.4253 15.9713C28.5237 15.4787 28.6386 14.9697 28.6879 14.4607C29.131 10.3557 30.4275 7.6465 31.3302 6.97329C31.572 6.75708 31.8583 6.59661 32.1688 6.5032C32.4794 6.40979 32.8067 6.38573 33.1276 6.4327C33.4484 6.47968 33.7551 6.59656 34.0259 6.77508C34.2967 6.95361 34.525 7.18942 34.6947 7.46588C34.9671 7.84141 35.1317 8.28428 35.1707 8.74662C35.2266 9.29251 35.2266 9.84269 35.1707 10.3886C35.1707 11.3738 35.023 12.3918 34.8917 13.4098C34.7687 14.4198 34.5934 15.4228 34.3665 16.4146L33.8741 18.4342C33.8226 18.5614 33.7841 18.6934 33.7592 18.8283H33.3489C33.1236 18.8141 32.9021 18.7642 32.6924 18.6805C32.2001 18.6805 31.839 19.4194 32.6924 19.7642C32.9484 19.9131 33.2344 20.0029 33.5294 20.0269C33.9084 20.055 34.2881 19.9813 34.6291 19.8135C34.7808 19.7397 34.8983 19.6104 34.9573 19.4522C35.0341 19.227 35.0944 18.9966 35.1378 18.7626L35.7779 16.7923C36.0947 15.768 36.3523 14.7264 36.5493 13.6725C36.7462 12.6052 36.8611 11.538 36.9596 10.5035C37.0366 9.69822 37.0034 8.88618 36.8611 8.08983Z" fill="#1D1C19"/>
<path fill-rule="evenodd" clip-rule="evenodd" d="M27.0466 10.3722C27.0667 10.3053 27.0732 10.2352 27.0658 10.1658C27.0585 10.0964 27.0374 10.0292 27.0038 9.96802C26.9701 9.90688 26.9247 9.85305 26.8701 9.80968C26.8154 9.7663 26.7527 9.73424 26.6856 9.71538C25.1921 9.20637 23.6821 8.71378 22.1394 8.33612C20.817 8.0153 19.4732 7.79032 18.1184 7.66292C16.4772 7.54798 14.9508 7.5644 13.3753 7.66292C13.2516 7.65373 13.1292 7.69321 13.0342 7.77294C12.9392 7.85268 12.879 7.96638 12.8665 8.08983C12.862 8.15155 12.8701 8.21353 12.8902 8.27207C12.9102 8.3306 12.9419 8.38448 12.9833 8.43048C13.0247 8.47647 13.0749 8.51364 13.131 8.53975C13.187 8.56586 13.2478 8.58037 13.3096 8.58242C15.0657 8.84513 16.789 9.22279 18.5451 9.53476C19.5955 9.7318 20.6459 9.86315 21.6798 10.0273C23.3211 10.2736 24.8474 10.4871 26.4066 10.8155C26.478 10.8322 26.5521 10.8337 26.6241 10.82C26.6962 10.8062 26.7646 10.7776 26.8248 10.7358C26.8851 10.6941 26.936 10.6401 26.9742 10.5775C27.0124 10.5149 27.0371 10.4449 27.0466 10.3722Z" fill="#1D1C19"/>
<path fill-rule="evenodd" clip-rule="evenodd" d="M23.8627 15.6921C23.8931 15.6275 23.9104 15.5575 23.9137 15.4861C23.9169 15.4147 23.906 15.3434 23.8816 15.2762C23.8572 15.2091 23.8198 15.1474 23.7714 15.0948C23.7231 15.0422 23.6649 14.9997 23.6001 14.9697C23.26 14.787 22.9026 14.6385 22.5333 14.5263C21.9917 14.3621 21.4173 14.2472 20.8921 14.1158C20.3669 13.9845 20.055 13.9352 19.6283 13.8696C18.9592 13.7825 18.2841 13.7495 17.6096 13.771C16.5252 13.8356 15.4515 14.0228 14.4092 14.3293C14.3489 14.3379 14.2908 14.3584 14.2384 14.3894C14.1859 14.4205 14.1401 14.4616 14.1035 14.5104C14.067 14.5592 14.0403 14.6147 14.0252 14.6738C14.0101 14.7329 14.0067 14.7944 14.0154 14.8547C14.024 14.9151 14.0444 14.9732 14.0755 15.0257C14.1065 15.0782 14.1476 15.124 14.1964 15.1606C14.2451 15.1972 14.3006 15.2238 14.3597 15.2389C14.4187 15.2541 14.4802 15.2574 14.5405 15.2488H15.755C16.5757 15.2488 17.3963 15.4458 18.1512 15.5279C18.9062 15.61 19.7924 15.5279 20.5638 15.6921H22.205C22.5226 15.7175 22.8363 15.7781 23.1405 15.8728C23.2612 15.9407 23.4032 15.9598 23.5375 15.9262C23.6718 15.8926 23.7882 15.8089 23.8627 15.6921Z" fill="#1D1C19"/>
<path fill-rule="evenodd" clip-rule="evenodd" d="M19.5463 19.7642C19.1059 19.6274 18.6561 19.5231 18.2005 19.4522C17.7454 19.3651 17.2847 19.3103 16.8218 19.288C15.7251 19.2592 14.6278 19.3141 13.5394 19.4522C13.4304 19.4728 13.3319 19.5308 13.2611 19.6162C13.1902 19.7017 13.1514 19.8092 13.1514 19.9202C13.1514 20.0312 13.1902 20.1387 13.2611 20.2242C13.3319 20.3096 13.4304 20.3676 13.5394 20.3882C14.7375 20.5524 15.8535 20.8479 17.0024 21.0614C17.7081 21.1927 18.381 21.2748 19.0867 21.3898C20.1207 21.5375 21.1711 21.6689 22.205 21.8988C22.34 21.9404 22.4859 21.9277 22.6116 21.8633C22.7373 21.7989 22.8329 21.6879 22.8779 21.554C22.9196 21.4189 22.9068 21.273 22.8424 21.1472C22.7781 21.0215 22.6671 20.9259 22.5333 20.8808C21.5617 20.4471 20.5641 20.0742 19.5463 19.7642Z" fill="#1D1C19"/>
<path fill-rule="evenodd" clip-rule="evenodd" d="M35.6481 28.5305C35.0975 27.9595 34.3807 27.5784 33.6007 27.4421C32.8206 27.3058 32.0176 27.4212 31.3071 27.7718C30.6512 28.0079 30.0541 28.384 29.5571 28.8742C29.4167 28.5928 29.2468 28.327 29.0504 28.0816C28.7991 27.669 28.4477 27.3271 28.0291 27.0877C27.6105 26.8483 27.1383 26.7192 26.6566 26.7125C25.7674 26.6684 24.8813 26.847 24.078 27.2321C21.9537 28.3173 22.0833 31.2394 23.408 33.455C24.6137 35.1735 26.1011 36.6744 27.8068 37.894C27.8385 37.9288 27.8773 37.9563 27.9206 37.9745C27.9639 37.9928 28.0106 38.0014 28.0575 37.9998C28.1044 37.9982 28.1505 37.9864 28.1924 37.9653C28.2344 37.9441 28.2712 37.9141 28.3005 37.8772C28.3298 37.8404 28.3508 37.7976 28.362 37.7519C28.3732 37.7061 28.3744 37.6584 28.3655 37.6122C28.3566 37.5659 28.3378 37.5221 28.3105 37.4838C28.2831 37.4456 28.2478 37.4137 28.2069 37.3904C26.6519 36.1441 25.2969 34.6655 24.1893 33.0063C23.8347 32.4321 23.6111 31.7862 23.5346 31.115C23.4581 30.4438 23.5306 29.7639 23.747 29.1242C24.0138 28.7179 24.3876 28.3937 24.8269 28.1877C25.2662 27.9817 25.7538 27.902 26.2356 27.9573C26.5991 27.9053 26.9697 27.9659 27.298 28.1308C27.6264 28.2957 27.8968 28.5572 28.0731 28.8804C28.699 29.6902 28.5253 29.8848 28.8179 30.305C28.879 30.3984 28.9616 30.4757 29.0586 30.5305C29.1556 30.5853 29.2643 30.616 29.3756 30.6201C29.4868 30.6241 29.5975 30.6014 29.6982 30.5538C29.7989 30.5063 29.8869 30.4352 29.9547 30.3466C30.0704 30.2168 30.188 29.9897 30.2731 29.9044C30.9024 29.2651 31.7213 28.8479 32.6069 28.7152C32.9913 28.5929 33.4028 28.5853 33.7914 28.6933C34.18 28.8014 34.529 29.0203 34.796 29.3236C35.063 29.6268 35.2364 30.0014 35.2953 30.4017C35.3542 30.8021 35.2959 31.2109 35.1276 31.5787C34.1871 33.9931 31.7356 35.7509 29.4138 36.8565C29.3352 36.9036 29.2767 36.978 29.2492 37.0656C29.2218 37.1532 29.2274 37.2478 29.265 37.3315C29.3025 37.4153 29.3694 37.4822 29.453 37.5196C29.5365 37.5571 29.6309 37.5624 29.7181 37.5346C31.5469 36.7555 33.2043 35.6217 34.5954 34.1982C36.1466 32.445 37.1143 30.2663 35.6481 28.5305Z" fill="black"/>
</svg>
