<svg width="36" height="36" viewBox="0 0 36 36" fill="none" xmlns="http://www.w3.org/2000/svg">
<path fill-rule="evenodd" clip-rule="evenodd" d="M13.816 14.2629L14.4179 14.0289C14.4179 14.0289 14.4179 14.1693 14.5383 14.2161C15.4864 15.0429 16.4646 15.7762 17.4578 16.5718C18.451 17.3674 19.4443 18.0539 20.4676 18.7871C20.603 18.8807 21.521 19.5359 21.9725 19.7544C22.1638 19.8739 22.3871 19.9263 22.6094 19.9038C22.8317 19.8814 23.0411 19.7852 23.2065 19.6295C23.6223 19.0609 23.9288 18.4148 24.1094 17.7263C24.3274 16.8051 24.4634 15.8651 24.5158 14.9181C24.606 13.6232 24.6963 12.3284 24.8167 11.0179C24.907 10.1755 24.9973 9.33303 25.1027 8.49059L25.8852 7.91336C25.8796 7.99262 25.8966 8.07184 25.934 8.14117C25.9715 8.21051 26.0278 8.26692 26.0959 8.30338C27.0674 8.88676 28.0726 9.40777 29.1057 9.86346C30.1276 10.3397 31.1723 10.7615 32.2358 11.1271C32.3412 11.1271 33.6655 11.5951 34.1922 11.7356C34.3925 11.7932 34.6043 11.7917 34.8038 11.731C35.0033 11.6704 35.1824 11.553 35.3208 11.3923C35.5308 11.0062 35.6446 10.5719 35.6519 10.1287C35.6301 9.38799 35.5137 8.65357 35.3058 7.94456C35.1075 7.30307 34.8764 6.67295 34.6136 6.05687C34.1019 4.6684 33.4999 3.32673 33.0334 1.92266C33.0084 1.83017 32.9582 1.74712 32.8888 1.68348C32.8194 1.61983 32.7338 1.57829 32.6421 1.56385L33.1839 0.893013C33.2797 0.797848 33.3351 0.667134 33.3379 0.529625C33.3407 0.392117 33.2908 0.259078 33.199 0.159776C33.1072 0.0604741 32.9811 0.00304321 32.8484 0.000117487C32.7158 -0.00280823 32.5874 0.0490109 32.4917 0.144175C31.4533 1.15823 30.5203 2.20348 29.4819 3.17073C29.0605 3.57635 28.6241 3.96637 28.1576 4.34078C25.3469 6.55914 22.3208 8.46756 19.1282 10.0351C17.2219 11.0175 15.2679 11.8975 13.2742 12.6716C11.9349 13.1864 10.5955 13.6545 9.25618 14.0445C8.38334 14.2941 7.52556 14.4969 6.65272 14.6529C4.57597 15.0429 2.46913 15.2613 0.377334 15.6357C0.261608 15.6586 0.1585 15.726 0.088715 15.8243C0.0189295 15.9227 -0.0123664 16.0449 0.00111153 16.1662C0.029524 16.2752 0.0962271 16.3692 0.188117 16.4298C0.280006 16.4905 0.390441 16.5133 0.497725 16.4938L2.1832 16.3378C2.95069 17.617 3.68809 18.8651 4.62112 20.0664C5.22308 20.9088 5.85513 21.7357 6.53233 22.5469C6.53233 22.5469 7.43526 23.6077 7.81148 23.9354C7.94886 24.0665 8.11824 24.1562 8.30128 24.1947C8.48432 24.2332 8.67403 24.2191 8.84986 24.1538C9.3344 23.9156 9.74589 23.543 10.0387 23.0773C10.3833 22.5334 10.6708 21.9529 10.8965 21.3456C11.1724 20.6422 11.3938 19.917 11.5587 19.1771C11.8747 17.7107 11.965 16.3534 12.266 14.6841C12.7776 14.5905 13.3043 14.4345 13.816 14.2629ZM28.9702 5.43284C29.4518 5.01162 29.8882 4.5592 30.3246 4.12237C30.761 3.68555 31.4984 2.82751 32.0703 2.18788C32.4164 3.63875 32.898 5.04282 33.2742 6.49369C33.4435 7.07661 33.5742 7.67082 33.6655 8.27218C33.6655 8.5998 33.816 9.09902 33.8611 9.59825V9.86346L32.5519 9.48904C31.5058 9.28002 30.4711 9.01444 29.4518 8.6934C28.429 8.36581 27.4242 7.98042 26.442 7.53894C27.2847 6.82131 28.1576 6.13487 28.9702 5.43284ZM19.8656 11.6732C21.2501 10.9399 22.5895 10.1131 23.8837 9.28623L22.9356 14.7465C22.8366 15.5913 22.6705 16.4262 22.439 17.2426C22.3746 17.4771 22.2941 17.7065 22.1982 17.9291L21.3254 17.3674C20.0312 16.6342 18.7671 15.901 17.518 15.1209C16.7806 14.6685 16.0131 14.1849 15.3359 13.6857C16.8797 13.094 18.3918 12.417 19.8656 11.6575V11.6732ZM10.3848 18.1787C10.1593 19.0547 9.84139 19.9022 9.43676 20.706C9.23236 21.2041 8.98028 21.6797 8.68432 22.1257C8.60207 22.2369 8.5115 22.3412 8.41344 22.4377C8.16067 22.1164 7.92938 21.7776 7.72119 21.4236C6.83331 20.5188 6.02067 19.6139 5.16288 18.6467C4.30509 17.6795 3.88372 17.0866 3.26672 16.2754C4.45558 16.1662 5.65949 16.0726 6.84836 15.9166C7.76634 15.8074 8.66927 15.6513 9.58725 15.4485C10.0989 15.3393 10.5955 15.1989 11.0921 15.0585C10.8213 16.1818 10.6407 17.1802 10.3848 18.1787Z" fill="#1D1C19"/>
<path fill-rule="evenodd" clip-rule="evenodd" d="M35.6519 27.9136C32.8939 27.645 30.1643 27.123 27.4954 26.3535C26.3668 26.0103 25.2531 25.6202 24.1696 25.1678C23.0805 24.7062 22.0156 24.1855 20.9793 23.6077C18.5366 22.2931 16.2951 20.6108 14.3277 18.6155C14.2882 18.5716 14.2405 18.5365 14.1874 18.5125C14.1343 18.4886 14.077 18.4762 14.0191 18.4762C13.9613 18.4762 13.904 18.4886 13.8509 18.5125C13.7978 18.5365 13.7501 18.5716 13.7106 18.6155C13.6289 18.7003 13.5829 18.8154 13.5829 18.9353C13.5829 19.0553 13.6289 19.1703 13.7106 19.2551C14.0417 19.6608 14.3878 20.0196 14.734 20.4096C14.6286 20.9712 14.5534 21.5328 14.4781 22.0945C14.4029 22.6561 14.3728 23.3425 14.3427 23.9822V27.7732C14.3231 28.1525 14.3231 28.5327 14.3427 28.912C14.3587 29.0699 14.4125 29.2211 14.4992 29.3518C14.586 29.4826 14.7029 29.5889 14.8393 29.6608C15.2633 29.8429 15.7396 29.8429 16.1636 29.6608C16.7274 29.414 17.2666 29.111 17.7738 28.756C18.8122 28.0852 19.7753 27.1959 20.7836 26.5719C21.1163 26.3499 21.4632 26.1519 21.822 25.9791C22.3788 26.2443 22.9356 26.5095 23.4924 26.7279L23.7633 26.8215C24.0041 27.6796 24.2298 28.522 24.4856 29.3644C24.7415 30.2069 25.0726 31.3145 25.4036 32.2818C25.6305 32.9787 25.8969 33.6611 26.2012 34.3255C26.4486 34.8467 26.7851 35.3172 27.1944 35.714C27.3708 35.8709 27.5892 35.9685 27.8204 35.9936C28.0516 36.0186 28.2847 35.9701 28.4887 35.8544C29.0978 35.5021 29.651 35.0549 30.129 34.5283C30.7562 33.8746 31.3442 33.1817 31.8897 32.4534C32.6873 31.4081 33.3946 30.2849 34.132 29.1304C34.163 29.0342 34.163 28.9302 34.132 28.834H35.4713C35.5358 28.8404 35.6009 28.8333 35.6626 28.813C35.7243 28.7928 35.7815 28.7598 35.8307 28.7161C35.8799 28.6724 35.92 28.6189 35.9488 28.5587C35.9775 28.4986 35.9943 28.433 35.998 28.366C35.9887 28.264 35.951 28.167 35.8896 28.0867C35.8282 28.0064 35.7456 27.9463 35.6519 27.9136ZM20.272 25.5734C19.1734 26.1351 18.135 26.8527 17.0515 27.3987C16.8559 27.4923 16.3141 27.9136 15.9228 28.1164V27.7264L15.5918 23.9978C15.5918 23.3737 15.5015 22.7809 15.4864 22.1881V21.3612C16.8764 22.7919 18.4276 24.0437 20.1064 25.0898L20.6181 25.3862C20.5729 25.4486 20.4074 25.4954 20.272 25.5734ZM30.9266 31.5953C30.3615 32.2223 29.7583 32.8111 29.1207 33.3582C28.8555 33.7095 28.5581 34.0335 28.2328 34.3255C28.0434 34.0882 27.8771 33.8322 27.7362 33.561C27.4051 32.937 27.1343 32.2506 26.8935 31.7201C26.3969 30.6281 25.9002 29.536 25.3886 28.4284C25.223 28.054 25.0876 27.6795 24.9371 27.2895C25.6294 27.5235 26.3216 27.742 27.0289 27.9136C29.038 28.3894 31.0816 28.692 33.1388 28.8184C32.4465 29.7857 31.7242 30.7217 30.9266 31.5953Z" fill="#1D1C19"/>
</svg>
