<svg width="36" height="36" viewBox="0 0 36 36" fill="none" xmlns="http://www.w3.org/2000/svg">
<path fill-rule="evenodd" clip-rule="evenodd" d="M34.6965 27.6537C35.3529 27.1435 35.8131 26.4234 35.9994 25.6146C36.0077 25.4088 35.9345 25.2079 35.7956 25.0554C35.6567 24.9028 35.4633 24.8107 35.257 24.799H34.7268C33.1469 24.835 31.5665 24.7491 29.9999 24.5422L29.5302 23.6813C29.1666 22.9412 28.8182 22.1709 28.4394 21.5063C28.0607 20.8418 27.894 20.5397 27.5759 19.9959C27.4954 19.8896 27.3912 19.8033 27.2716 19.7439C27.152 19.6845 27.0202 19.6536 26.8865 19.6536C26.7529 19.6536 26.6211 19.6845 26.5015 19.7439C26.3819 19.8033 26.2777 19.8896 26.1972 19.9959C25.8819 20.4833 25.5937 20.9876 25.3336 21.5063C24.9397 22.2011 24.5913 22.9412 24.2277 23.6662L23.758 24.5271C22.1976 24.7462 20.6217 24.8371 19.0463 24.799H18.5009C18.2933 24.8145 18.0998 24.9098 17.9613 25.0648C17.8228 25.2198 17.7501 25.4223 17.7586 25.6297C17.9453 26.4421 18.4117 27.1636 19.0766 27.6688C20.182 28.55 21.3518 29.3476 22.5763 30.0552L22.4248 30.3875C22.1976 30.9765 21.228 32.8343 20.9098 34.0275C20.787 34.3451 20.7303 34.6843 20.7431 35.0244C20.752 35.1313 20.7836 35.2351 20.8359 35.3288C20.8881 35.4226 20.9598 35.5042 21.0461 35.5681C21.3776 35.7931 21.7585 35.9352 22.1567 35.9825C22.5549 36.0298 22.9586 35.9809 23.3338 35.84C24.6653 35.3056 25.8874 34.5326 26.9396 33.5593C28.0603 34.5052 29.3297 35.2604 30.6968 35.7947C31.0762 35.9482 31.4865 36.0104 31.8945 35.9763C32.3025 35.9422 32.6967 35.8127 33.0451 35.5983C33.138 35.5327 33.2148 35.447 33.2699 35.3476C33.325 35.2482 33.3569 35.1378 33.3632 35.0244C33.3829 34.679 33.326 34.3335 33.1966 34.0124C32.833 32.8343 31.8331 30.9916 31.6058 30.3724C31.6058 30.3724 31.6058 30.1609 31.5301 30.025L31.8028 29.8588C32.8173 29.1913 33.7841 28.4545 34.6965 27.6537ZM30.3181 30.8104C31.005 32.0741 31.5975 33.3867 32.0906 34.7374C31.5117 34.9095 30.8888 34.8555 30.3484 34.5864C29.2204 34.0732 28.1658 33.4129 27.2123 32.6229C27.1226 32.5631 27.0171 32.5312 26.9093 32.5312C26.8014 32.5312 26.696 32.5631 26.6063 32.6229C25.6782 33.4249 24.6617 34.1191 23.5762 34.6921C23.3032 34.8434 23 34.9326 22.6883 34.9535C22.3767 34.9744 22.0643 34.9264 21.7734 34.8129C22.2729 33.4648 22.8756 32.157 23.5762 30.901C23.7218 30.6249 23.8435 30.3369 23.9398 30.0401C23.9733 29.9011 23.9733 29.7562 23.9398 29.6172C23.8123 29.3939 23.6298 29.2068 23.4096 29.0734C22.8642 28.6958 21.637 27.9104 20.6371 27.0797C20.3658 26.8584 20.1078 26.6213 19.8644 26.3698C21.352 26.4165 22.841 26.3508 24.3186 26.1735C24.6301 26.089 24.9128 25.9219 25.1367 25.6901C25.4237 25.3077 25.6628 24.8918 25.8488 24.4516C26.1972 23.7266 26.5457 23.0469 26.9093 22.3522L27.0305 22.1709L27.1214 22.3522C27.5153 23.0318 27.8486 23.7266 28.197 24.4516C28.379 24.8923 28.6239 25.3043 28.9242 25.675C29.1425 25.9063 29.4203 26.0735 29.7272 26.1584C31.2094 26.3425 32.7035 26.4132 34.1965 26.3698C33.946 26.6251 33.6777 26.8623 33.3935 27.0797C32.5049 27.7873 31.5794 28.4478 30.6211 29.0583C30.4032 29.2011 30.2217 29.3924 30.0908 29.6172C30.0491 29.7602 30.0491 29.9121 30.0908 30.0552C30.1424 30.3135 30.2185 30.5664 30.3181 30.8104Z" fill="#1D1C19"/>
<path fill-rule="evenodd" clip-rule="evenodd" d="M7.13829 1.9769C6.9883 1.94679 6.83379 1.94679 6.68379 1.9769C6.37696 1.91349 6.05923 1.92575 5.75824 2.01262C5.45724 2.09948 5.18208 2.25832 4.95667 2.47533C4.39611 3.45709 4.29006 4.10656 3.3053 10.7221C3.0023 12.7611 2.47204 14.634 2.10844 16.4314C1.74483 18.2288 1.36608 20.3433 0.957024 22.1256C0.575618 23.4429 0.262105 24.7789 0.0177129 26.1282C-0.0192366 26.348 0.00184303 26.5736 0.0788781 26.7828C0.155913 26.992 0.28625 27.1776 0.457068 27.3214C1.84298 27.867 3.27893 28.2768 4.74457 28.5448C8.53211 29.3755 13.5923 30.2515 14.4558 30.4026C14.5737 30.4218 14.6945 30.397 14.7952 30.3329C14.8958 30.2688 14.9692 30.1699 15.0012 30.0552C15.0144 29.9936 15.015 29.93 15.0029 29.8682C14.9908 29.8064 14.9664 29.7477 14.931 29.6955C14.8957 29.6433 14.8501 29.5988 14.7971 29.5646C14.7441 29.5303 14.6847 29.5071 14.6225 29.4963C13.7589 29.3 8.75936 28.2125 5.03242 27.2307C3.87286 26.9581 2.72972 26.6203 1.60848 26.2188C1.77513 25.1011 2.50234 22.7147 2.53264 22.5485C2.80534 21.3251 3.07805 20.0564 3.3053 18.7121C4.09311 14.2715 4.53246 10.269 5.72933 4.37843C5.72933 4.37843 5.85053 3.62323 5.86568 3.60813C6.03271 3.49065 6.21659 3.39899 6.41108 3.33626C6.75954 3.33626 7.03224 3.33626 7.15344 3.24563C7.51705 2.86804 7.5322 2.06752 7.13829 1.9769Z" fill="#1D1C19"/>
<path fill-rule="evenodd" clip-rule="evenodd" d="M27.1214 13.6825C27.2426 13.1689 27.3335 12.6705 27.4092 12.1721C27.485 11.6737 27.5607 11.1601 27.6213 10.6617C27.7425 9.5742 27.8031 8.4414 27.9243 7.06694C27.9468 6.98282 27.9468 6.89429 27.9243 6.81017C27.9243 6.81017 28.0455 6.70444 28.0607 6.61382C28.0878 6.48572 28.0633 6.35212 27.9924 6.2419C27.9215 6.13168 27.81 6.05368 27.6819 6.02477C27.2614 5.78931 26.7977 5.64037 26.3184 5.58675C25.8791 5.58675 25.3639 6.34195 25.6973 6.70444C25.836 6.87833 26.0369 6.99199 26.2578 7.02163H26.985C26.682 8.30547 26.3942 9.39295 26.1518 10.42C26.0457 10.9336 25.9397 11.432 25.8488 11.9304C25.7579 12.4289 25.6821 12.9273 25.6215 13.4408C25.5154 14.5132 25.0458 17.2319 24.9397 18.6064C24.9298 18.6619 24.9309 18.7189 24.943 18.774C24.9552 18.8291 24.9781 18.8813 25.0104 18.9275C25.0428 18.9738 25.084 19.0133 25.1316 19.0437C25.1793 19.0741 25.2325 19.0949 25.2882 19.1048C25.3439 19.1147 25.401 19.1136 25.4563 19.1015C25.5116 19.0894 25.5639 19.0666 25.6103 19.0343C25.6568 19.0021 25.6964 18.961 25.7269 18.9135C25.7574 18.866 25.7782 18.813 25.7882 18.7574C25.773 18.3647 26.9396 14.1658 27.1214 13.6825Z" fill="#1D1C19"/>
<path fill-rule="evenodd" clip-rule="evenodd" d="M31.2574 5.60185C31.1272 5.05194 30.8791 4.53666 30.5302 4.09146C30.1603 3.5825 29.6549 3.18687 29.0713 2.94931C28.4876 2.71176 27.8489 2.64175 27.2274 2.7472L26.6669 2.64148C24.9549 2.29408 23.7126 1.90138 22.0158 1.52378C21.4098 1.38785 20.7431 1.28212 19.9705 1.14618C19.1978 1.01025 18.1373 0.844103 17.2435 0.753479C10.7743 0.0586963 10.5471 -0.590775 8.94116 0.919623C8.73803 1.09213 8.5641 1.29613 8.42606 1.52378C7.22919 3.32115 7.00194 6.43257 4.77487 18.2137C4.59306 19.1199 4.03251 20.5548 3.85071 21.8235C3.71006 22.445 3.71006 23.09 3.85071 23.7115C3.97479 23.9719 4.15889 24.1993 4.38796 24.3751C4.61704 24.551 4.88459 24.6704 5.16877 24.7235C6.88074 25.2068 10.8652 25.373 14.0316 25.9922C14.0943 26.0079 14.1595 26.0109 14.2234 26.0011C14.2873 25.9913 14.3486 25.9688 14.4036 25.935C14.4587 25.9013 14.5064 25.8568 14.544 25.8044C14.5816 25.752 14.6083 25.6926 14.6225 25.6297C14.6501 25.5037 14.6276 25.3719 14.5598 25.2621C14.492 25.1522 14.3842 25.0729 14.2589 25.0407C12.0318 24.4818 9.38052 24.1193 7.4413 23.7417C6.38078 23.5454 4.97182 23.4396 5.22937 23.1225C5.22937 23.0469 5.32027 23.2282 5.33542 23.2886C5.24502 22.7229 5.28649 22.1441 5.45662 21.597C5.69903 20.5095 6.10808 19.3465 6.28988 18.5762C6.57774 17.2923 6.92619 16.0085 7.12314 14.7096C8.63816 4.51437 7.94125 5.64717 9.22902 3.1097C9.43031 2.7168 9.67417 2.34707 9.95623 2.00711C10.3428 1.5171 10.872 1.15834 11.4712 0.980039C12.7893 1.35764 14.0922 1.67482 15.4254 1.94669C16.7586 2.21856 18.1828 2.43002 19.6372 2.717C21.7734 2.98887 23.152 3.27584 24.6973 3.5024L25.3336 3.59303C23.4853 5.10342 23.5308 5.93414 22.0915 11.145C21.9703 11.6132 21.8643 12.0664 21.7734 12.5346C21.6825 13.0028 21.6219 13.4559 21.5613 13.9241C21.4098 15.0267 20.7734 19.7845 20.6825 20.8871C20.6657 21.0109 20.6977 21.1365 20.7717 21.2373C20.8457 21.3382 20.9561 21.4066 21.0796 21.428C21.2031 21.4495 21.3301 21.4225 21.4341 21.3526C21.538 21.2827 21.6107 21.1754 21.637 21.0532C21.9249 19.9808 22.8036 15.2835 23.152 14.2262C23.2732 13.7731 23.3793 13.3049 23.4702 12.8518C23.5611 12.3986 23.6671 11.9304 23.7126 11.4622C24.1216 7.6862 25.3185 5.19405 26.1518 4.57478C26.375 4.3759 26.6392 4.22828 26.9259 4.14236C27.2126 4.05644 27.5147 4.0343 27.8109 4.07751C28.1071 4.12073 28.3902 4.22824 28.6401 4.39246C28.8901 4.55668 29.1009 4.7736 29.2575 5.0279C29.509 5.37334 29.6609 5.78073 29.6969 6.20601C29.7486 6.70816 29.7486 7.21426 29.6969 7.71641C29.6969 8.62265 29.5605 9.5591 29.4393 10.4955C29.3258 11.4246 29.164 12.3472 28.9545 13.2596L28.5 15.1174C28.4525 15.2343 28.417 15.3558 28.394 15.4799H28.0152C27.8073 15.4668 27.6027 15.4209 27.4092 15.3439C26.9547 15.3439 26.6214 16.0236 27.4092 16.3408C27.6455 16.4777 27.9095 16.5603 28.1819 16.5824C28.5317 16.6083 28.8822 16.5405 29.1969 16.3861C29.337 16.3183 29.4455 16.1993 29.4999 16.0538C29.5708 15.8466 29.6265 15.6346 29.6666 15.4194L30.2575 13.607C30.5499 12.6648 30.7876 11.7066 30.9695 10.7372C31.1513 9.75545 31.2574 8.77369 31.3483 7.82214C31.4193 7.08137 31.3887 6.33439 31.2574 5.60185Z" fill="#1D1C19"/>
<path fill-rule="evenodd" clip-rule="evenodd" d="M22.1976 7.70131C22.2161 7.63982 22.2221 7.57529 22.2153 7.51146C22.2085 7.44763 22.189 7.38579 22.158 7.32955C22.127 7.27331 22.085 7.22379 22.0346 7.18389C21.9841 7.14399 21.9262 7.1145 21.8643 7.09715C20.4856 6.62892 19.0918 6.17581 17.6677 5.82841C16.4469 5.5333 15.2065 5.32634 13.9559 5.20915C12.4409 5.10342 11.0319 5.11853 9.57747 5.20915C9.4633 5.2007 9.35032 5.23701 9.2626 5.31036C9.17488 5.38371 9.11934 5.4883 9.10781 5.60185C9.10371 5.65863 9.11113 5.71565 9.12966 5.76949C9.14818 5.82333 9.17741 5.8729 9.21561 5.91521C9.25381 5.95752 9.30018 5.9917 9.35194 6.01572C9.40371 6.03974 9.4598 6.05309 9.51687 6.05497C11.1379 6.29664 12.7287 6.64403 14.3498 6.931C15.3194 7.11225 16.289 7.23308 17.2435 7.38412C18.7585 7.61068 20.1674 7.80703 21.6067 8.10911C21.6726 8.12445 21.7411 8.12585 21.8076 8.11323C21.8741 8.10061 21.9372 8.07424 21.9928 8.03582C22.0485 7.9974 22.0955 7.94779 22.1307 7.89018C22.166 7.83256 22.1888 7.76822 22.1976 7.70131Z" fill="#1D1C19"/>
<path fill-rule="evenodd" clip-rule="evenodd" d="M19.2584 12.595C19.2865 12.5355 19.3025 12.4711 19.3055 12.4055C19.3085 12.3398 19.2984 12.2742 19.2759 12.2124C19.2534 12.1507 19.2188 12.0939 19.1742 12.0455C19.1296 11.9971 19.0759 11.958 19.016 11.9304C18.7021 11.7624 18.3722 11.6258 18.0313 11.5226C17.5313 11.3716 17.0011 11.2658 16.5162 11.145C16.0314 11.0242 15.7436 10.9789 15.3497 10.9185C14.732 10.8384 14.1088 10.8081 13.4862 10.8278C12.4852 10.8872 11.4941 11.0595 10.5319 11.3414C10.4762 11.3493 10.4226 11.3681 10.3742 11.3967C10.3258 11.4253 10.2835 11.4631 10.2497 11.508C10.216 11.5528 10.1914 11.6039 10.1774 11.6583C10.1635 11.7126 10.1604 11.7692 10.1683 11.8247C10.1763 11.8802 10.1951 11.9337 10.2238 11.9819C10.2525 12.0302 10.2904 12.0724 10.3354 12.106C10.3804 12.1397 10.4317 12.1642 10.4862 12.1781C10.5407 12.192 10.5974 12.1951 10.6531 12.1872H11.7742C12.5318 12.1872 13.2893 12.3684 13.9862 12.444C14.6831 12.5195 15.5012 12.444 16.2132 12.595H17.7283C18.0214 12.6183 18.311 12.674 18.5918 12.7611C18.7032 12.8236 18.8343 12.8412 18.9583 12.8103C19.0823 12.7794 19.1897 12.7024 19.2584 12.595Z" fill="#1D1C19"/>
<path fill-rule="evenodd" clip-rule="evenodd" d="M15.2739 16.3408C14.8674 16.2149 14.4522 16.119 14.0316 16.0538C13.6115 15.9737 13.1862 15.9232 12.759 15.9028C11.7466 15.8762 10.7337 15.9267 9.72897 16.0538C9.62831 16.0727 9.53742 16.126 9.47203 16.2046C9.40664 16.2832 9.37085 16.3822 9.37085 16.4843C9.37085 16.5864 9.40664 16.6853 9.47203 16.7639C9.53742 16.8425 9.62831 16.8959 9.72897 16.9147C10.8349 17.0658 11.8651 17.3376 12.9257 17.534C13.5771 17.6548 14.1983 17.7303 14.8497 17.8361C15.8042 17.972 16.7738 18.0928 17.7283 18.3043C17.8528 18.3426 17.9875 18.3309 18.1035 18.2716C18.2196 18.2124 18.3078 18.1103 18.3494 17.9871C18.3878 17.8629 18.3761 17.7287 18.3167 17.613C18.2572 17.4973 18.1548 17.4093 18.0313 17.3679C17.1344 16.9689 16.2135 16.6259 15.2739 16.3408Z" fill="#1D1C19"/>
</svg>
