<svg width="36" height="36" viewBox="0 0 36 36" fill="none" xmlns="http://www.w3.org/2000/svg">
<path d="M20.4232 28.6843C19.8788 28.4037 19.4302 27.9711 19.1332 27.4404C18.7306 26.9225 18.4225 26.3393 18.2226 25.7169C17.6763 23.6038 18.4655 20.6964 17.4335 18.0588C16.71 16.2951 15.3614 14.8515 13.6394 13.9974C12.9217 13.5976 12.1291 13.3462 11.3098 13.2586C10.4906 13.171 9.66184 13.249 8.8741 13.4879C7.32352 13.9603 5.98079 14.9376 5.06488 16.2604C4.60854 16.9382 4.23657 17.6678 3.95702 18.4335C3.66373 19.188 3.45508 19.972 3.33479 20.7714C3.12233 22.4648 3.4562 24.2333 3.16786 25.7919C3.09464 26.2729 2.92216 26.7339 2.6611 27.1464C2.40005 27.5588 2.05598 27.9139 1.65024 28.1897C1.46427 28.3269 1.26618 28.4473 1.05837 28.5494C0.858654 28.6362 0.65004 28.7015 0.436143 28.7442C0.353928 28.7568 0.276188 28.7895 0.209947 28.8392C0.143706 28.8889 0.0910504 28.9541 0.0567383 29.029C0.0194475 29.1009 0 29.1805 0 29.2612C0 29.342 0.0194475 29.4216 0.0567383 29.4935C0.340304 29.9092 0.676955 30.2869 1.05837 30.6175C1.34591 30.879 1.69565 31.0646 2.07517 31.157C2.13306 31.1678 2.19254 31.1669 2.25008 31.1545C2.30763 31.1422 2.36207 31.1185 2.41019 31.085C2.45831 31.0514 2.49912 31.0087 2.5302 30.9593C2.56129 30.9099 2.58202 30.8548 2.59116 30.7974C2.60214 30.7393 2.60143 30.6797 2.58906 30.6219C2.5767 30.5641 2.55292 30.5093 2.5191 30.4606C2.48527 30.4119 2.44206 30.3702 2.39193 30.338C2.3418 30.3058 2.28573 30.2837 2.22693 30.2728C1.96163 30.1659 1.72708 29.996 1.544 29.7783L1.28601 29.5385H1.40742C1.68097 29.4246 1.94487 29.2893 2.19658 29.1339C2.74959 28.809 3.22899 28.3753 3.60496 27.8597C3.98092 27.344 4.24541 26.7575 4.38195 26.1366C4.53425 25.3813 4.61554 24.6137 4.62477 23.8436C4.74541 24.7581 5.04983 25.6396 5.52016 26.4363C6.11335 27.4517 6.94643 28.3104 7.94836 28.939C5.99474 29.5249 4.24144 30.6291 2.87951 32.1312C2.53433 32.5252 2.22934 32.9519 1.96894 33.405C1.59341 34.0518 1.27359 34.7286 1.01284 35.4282C0.985914 35.5355 0.998629 35.6488 1.0487 35.7477C1.09877 35.8466 1.18291 35.9246 1.28601 35.9677C1.34179 35.9896 1.4014 36.0003 1.46139 35.9993C1.52138 35.9983 1.58058 35.9855 1.63559 35.9619C1.69059 35.9382 1.74031 35.904 1.78189 35.8613C1.82348 35.8186 1.8561 35.7682 1.87788 35.713C2.12405 35.1937 2.40809 34.6929 2.72775 34.2143C3.02657 33.7475 3.38347 33.3196 3.79008 32.9404C5.14596 31.7133 6.80524 30.8604 8.60093 30.4677C10.342 30.0055 12.1844 30.0787 13.8822 30.6775C14.9588 31.0714 15.9114 31.7381 16.6443 32.6107C17.4326 33.5049 18.0728 34.5165 18.5413 35.6081C18.5583 35.6786 18.5903 35.7448 18.6352 35.8022C18.6802 35.8596 18.737 35.9068 18.8019 35.9408C18.8669 35.9747 18.9384 35.9946 19.0117 35.999C19.085 36.0035 19.1584 35.9924 19.2271 35.9666C19.2957 35.9408 19.358 35.9008 19.4097 35.8493C19.4615 35.7978 19.5015 35.736 19.5271 35.668C19.5526 35.6 19.5632 35.5274 19.5581 35.455C19.553 35.3827 19.5323 35.3122 19.4974 35.2484C19.0866 33.9961 18.4659 32.8208 17.6611 31.7715C16.8413 30.6519 15.7439 29.7591 14.4741 29.1788C14.2313 29.0889 13.9885 29.029 13.7305 28.954C14.1631 28.7233 14.5657 28.4414 14.9294 28.1148C15.6708 27.3829 16.2723 26.5249 16.705 25.5821C16.705 25.4921 16.7809 25.3872 16.8264 25.2973C16.857 25.5568 16.913 25.8127 16.9934 26.0616C17.339 26.9675 17.8538 27.8012 18.511 28.5194C18.814 28.8902 19.1722 29.2136 19.5733 29.4786C19.5281 29.5569 19.4773 29.632 19.4216 29.7034C19.3093 29.8874 19.1386 30.0297 18.9359 30.108C18.8071 30.1537 18.702 30.2481 18.6436 30.3703C18.5853 30.4926 18.5785 30.6327 18.6248 30.7599C18.6711 30.8871 18.7666 30.9909 18.8905 31.0485C19.0143 31.1061 19.1562 31.1128 19.285 31.0671C19.6057 30.9615 19.8933 30.7756 20.1197 30.5276C20.4143 30.2109 20.6506 29.8457 20.8178 29.4486C20.8551 29.3767 20.8745 29.2971 20.8745 29.2163C20.8745 29.1355 20.8551 29.0559 20.8178 28.984C20.787 28.9026 20.7337 28.8314 20.6639 28.7784C20.5942 28.7254 20.5108 28.6928 20.4232 28.6843ZM15.5516 24.9826C15.1297 25.738 14.5746 26.4129 13.9126 26.9758C13.5163 27.2785 13.0764 27.521 12.6074 27.6952C12.1189 27.8669 11.6077 27.9678 11.0898 27.9949C10.7174 28.012 10.3443 27.9767 9.98197 27.89C9.59995 27.7985 9.22865 27.6679 8.8741 27.5003C7.96846 27.0808 7.18526 26.4415 6.59767 25.642C6.03751 24.9068 5.66762 24.0477 5.52016 23.1392C6.50662 23.2142 7.49307 23.2891 8.5554 23.3191H10.5131C11.1657 23.3191 11.8183 23.3191 12.4709 23.1992C13.776 23.0943 15.066 22.9444 16.356 22.7945C16.2481 23.572 15.9739 24.3179 15.5516 24.9826ZM13.8367 21.5956C13.8595 21.3313 13.8595 21.0656 13.8367 20.8013C13.7598 20.2961 13.6534 19.7958 13.518 19.3027C13.5142 19.2436 13.4985 19.1858 13.472 19.1327C13.4455 19.0796 13.4086 19.0322 13.3635 18.9932C13.3184 18.9542 13.2659 18.9244 13.2091 18.9055C13.1522 18.8866 13.0922 18.879 13.0324 18.8831C12.9725 18.8869 12.9141 18.9023 12.8603 18.9285C12.8065 18.9547 12.7585 18.9911 12.719 19.0357C12.6795 19.0802 12.6494 19.132 12.6302 19.1882C12.6111 19.2443 12.6033 19.3036 12.6074 19.3626C12.555 19.8605 12.5296 20.3608 12.5316 20.8613C12.547 21.0878 12.5774 21.3131 12.6226 21.5357H10.3917C9.73409 21.5357 9.08151 21.5657 8.43399 21.6256C7.17437 21.7155 5.92992 21.8654 4.6703 22.0003C4.6703 21.6406 4.6703 21.2809 4.79171 20.9362C4.92837 20.262 5.13694 19.6039 5.41393 18.973C5.69088 18.3571 6.03705 17.774 6.44591 17.2345C7.15798 16.2386 8.1818 15.5014 9.35974 15.1364C10.5159 14.7992 11.7602 14.9286 12.8199 15.4961C14.2203 16.1373 15.3407 17.2543 15.9766 18.6433C16.3631 19.5984 16.5787 20.6126 16.614 21.6406L13.8367 21.5956Z" fill="#1D1C19"/>
<path d="M35.9484 7.94287C35.9484 6.65403 35.9484 3.52184 35.8725 2.17305C35.8619 1.73417 35.7015 1.3117 35.4173 0.974126C34.4557 0.568116 33.427 0.339543 32.382 0.299731C30.5457 0.119892 28.0416 0 26.266 0C25.5679 0 19.634 0 16.1587 0.269758C15.1822 0.271115 14.2164 0.470031 13.3207 0.854234C13.1793 0.982921 13.0791 1.14961 13.0324 1.3338C12.8901 1.97904 12.8139 2.63675 12.8047 3.29704C12.653 5.99462 12.7137 10.4906 12.7137 11.4797C12.7348 11.6017 12.7989 11.7124 12.8948 11.7923C12.9906 11.8721 13.1119 11.9159 13.2373 11.9159C13.3626 11.9159 13.4839 11.8721 13.5798 11.7923C13.6756 11.7124 13.7397 11.6017 13.7608 11.4797C13.7608 10.6704 13.7608 7.85295 13.9126 5.39516C13.9126 4.10632 14.0492 2.93736 14.1554 2.20302C14.1554 2.03817 14.1554 1.85833 14.2465 1.76841C14.3375 1.67849 14.6107 1.76841 14.7928 1.76841C16.1023 1.60948 17.4194 1.51944 18.7386 1.49866H26.2508C27.7685 1.49866 29.6958 1.66351 31.3804 1.82836C32.4731 1.93327 33.4292 2.05316 34.0362 2.17305H34.1273C34.2487 3.47688 34.2032 6.51915 34.1273 7.76304C34.1273 8.51236 34.2487 11.18 34.2487 13.4879C34.2748 14.4886 34.2342 15.4898 34.1273 16.4852C34.1357 16.62 34.1357 16.7551 34.1273 16.8898C33.7786 16.8671 33.4288 16.8671 33.0801 16.8898H31.4107C29.8931 16.7999 28.0872 16.665 27.298 16.71C26.9626 16.6988 26.636 16.817 26.3874 17.0397C26.008 17.4593 25.6438 18.4634 24.976 19.5575C24.6715 20.0484 24.3209 20.51 23.9289 20.9362C23.6133 21.2776 23.2287 21.55 22.8001 21.7359C22.3714 21.9217 21.9081 22.0169 21.44 22.0152C21.3186 21.176 21.44 18.8831 21.44 17.879C21.4308 17.6656 21.3951 17.4543 21.3338 17.2495C21.2964 17.1768 21.2429 17.1135 21.1771 17.0641C21.1114 17.0148 21.0353 16.9809 20.9543 16.9648C20.8945 16.9541 20.833 16.9553 20.7736 16.9685C20.7143 16.9816 20.6582 17.0064 20.6086 17.0413C20.5591 17.0763 20.5172 17.1206 20.4853 17.1718C20.4535 17.223 20.4324 17.28 20.4232 17.3394C20.4232 17.3394 20.4232 22.4349 20.5294 22.6447C20.572 22.7439 20.6385 22.8312 20.7232 22.8992C20.8078 22.9671 20.908 23.0135 21.0151 23.0343C21.516 23.1329 22.0317 23.1329 22.5327 23.0343C23.3617 22.831 24.1179 22.4058 24.718 21.8054C25.1841 21.3496 25.6011 20.8474 25.9625 20.3068C26.5392 19.4226 26.8882 18.5983 27.2221 18.1487H27.298C28.0568 18.1487 29.7262 18.3286 31.2438 18.4634C32.0926 18.5238 32.9446 18.5238 33.7934 18.4634C34.3416 18.4591 34.8738 18.2804 35.311 17.9539C35.7091 17.2272 35.9128 16.4122 35.9029 15.586C36.1002 13.1132 35.9332 8.99193 35.9484 7.94287Z" fill="#1D1C19"/>
<path d="M21.531 13.4879C21.8194 13.7427 22.305 14.3122 22.7755 14.6718C23.0825 14.9393 23.4626 15.1114 23.8682 15.1664C24.4104 15.186 24.944 15.0279 25.3858 14.7168C26.0903 14.1853 26.7317 13.577 27.298 12.9034C28.2449 12.0012 29.085 10.9956 29.8021 9.90611C30.3062 9.09762 30.6128 8.1843 30.6975 7.23851C30.7491 6.72433 30.6723 6.20549 30.4739 5.72739C30.2755 5.24929 29.9614 4.82648 29.5592 4.49597C29.1426 4.15511 28.6389 3.93422 28.1035 3.85755C27.568 3.78089 27.0215 3.8514 26.524 4.06136C26.0766 4.22957 25.6649 4.4786 25.3099 4.7957C24.9533 5.11822 24.6187 5.46366 24.3083 5.82977C24.1548 5.53749 23.9718 5.26132 23.7619 5.00551C23.5009 4.67721 23.1822 4.398 22.821 4.18125C22.4539 3.98965 22.0449 3.88949 21.6297 3.88949C21.2144 3.88949 20.8055 3.98965 20.4384 4.18125C19.3934 4.68245 18.5915 5.57132 18.2075 6.65403C17.8552 7.77221 17.9587 8.98199 18.4958 10.026C19.2979 11.3441 20.3248 12.5153 21.531 13.4879ZM19.5885 6.89382C19.7704 6.25821 20.1599 5.69976 20.6964 5.30524C20.9161 5.10174 21.1922 4.96742 21.4895 4.91938C21.7867 4.87134 22.0918 4.91176 22.3657 5.03548C22.6276 5.17519 22.8636 5.3576 23.0638 5.575C23.3881 5.94685 23.6681 6.35414 23.8985 6.78891C23.9258 6.84264 23.9637 6.89042 24.01 6.92944C24.0562 6.96846 24.11 6.99792 24.168 7.01609C24.226 7.03425 24.2871 7.04074 24.3477 7.03519C24.4083 7.02963 24.4671 7.01213 24.5207 6.98373C24.6202 6.96092 24.7102 6.90863 24.7787 6.83387C25.1731 6.39444 25.5992 5.98373 26.0535 5.60497C26.3177 5.38576 26.6215 5.21795 26.9489 5.11042C27.2385 5.00857 27.5504 4.98544 27.8521 5.04344C28.1538 5.10144 28.4342 5.23845 28.6639 5.44012C28.8878 5.64193 29.0577 5.89535 29.1583 6.17778C29.2589 6.4602 29.2872 6.76284 29.2405 7.05867C29.1262 7.78323 28.8516 8.474 28.4362 9.08185C27.7359 10.0532 26.932 10.9475 26.0384 11.7495C25.75 12.0492 25.3251 12.5288 24.8546 12.9484C24.3842 13.368 24.3235 13.4879 24.0503 13.4879L22.73 12.259C21.6546 11.4194 20.7309 10.4059 19.9982 9.26169C19.5605 8.56965 19.4135 7.73623 19.5885 6.93878V6.89382Z" fill="#1D1C19"/>
</svg>
