<svg width="36" height="36" viewBox="0 0 36 36" fill="none" xmlns="http://www.w3.org/2000/svg">
<path fill-rule="evenodd" clip-rule="evenodd" d="M35.018 11.0811C34.2541 10.3744 33.277 9.95697 32.2494 9.89816C31.2218 9.83935 30.2055 10.1427 29.3695 10.7578C28.6707 11.3971 28.1386 12.2049 27.8212 13.108C27.5038 14.0111 27.4112 14.981 27.5517 15.93C27.4943 16.0845 27.4075 16.2258 27.2963 16.3456C26.5753 15.6067 26.4401 15.3143 26.0645 15.0834C25.6537 14.8708 25.2059 14.7436 24.747 14.7093C24.288 14.6749 23.827 14.7341 23.3904 14.8833C22.9776 15.0318 22.6344 15.334 22.429 15.7299C21.5059 16.1276 20.7501 16.8475 20.2957 17.7618C19.6197 19.4551 20.6713 20.8405 21.5877 22.2259C22.0375 22.9122 22.5398 23.5608 23.09 24.1655C24.6288 25.5279 26.4539 26.5078 28.4231 27.0286C28.8803 27.0538 29.3366 26.9646 29.7527 26.7689C30.1688 26.5731 30.5322 26.2766 30.8117 25.9049C31.7731 24.7812 33.005 23.0879 32.5994 21.7179C31.9083 19.3166 29.7451 19.2242 30.5413 20.4403C30.9467 20.8892 31.2676 21.4111 31.4877 21.9796C31.5088 22.1325 31.4985 22.2882 31.4574 22.4367C31.4164 22.5852 31.3455 22.7234 31.2493 22.8422C31.1531 22.961 31.0338 23.058 30.8989 23.1268C30.7641 23.1956 30.6167 23.2348 30.4661 23.2419C29.2042 23.3804 25.5838 20.5942 24.457 18.3468C24.0818 17.8324 23.8111 17.2462 23.6608 16.6227C23.6608 15.6837 25.1631 15.6529 25.7039 15.9146L26.8156 16.9614C26.3199 17.4693 25.6589 18.1313 26.1095 18.5007C26.193 18.5808 26.3031 18.6253 26.4175 18.6253C26.5319 18.6253 26.642 18.5808 26.7255 18.5007C26.9508 17.8696 28.3179 17.1307 28.6935 16.1763C29.069 15.2219 28.393 14.2983 29.715 12.5588C30.2181 11.9471 30.9337 11.56 31.7105 11.4796C32.4872 11.3991 33.264 11.6316 33.8763 12.1278C35.1833 13.544 34.5073 16.9768 32.374 17.454C31.5628 17.6541 30.8718 17.454 30.1206 18.0697C29.7596 18.417 29.4371 18.8042 29.1592 19.2242C28.7235 19.8245 28.1977 20.3479 28.8287 20.625C29.4596 20.9021 29.5197 20.4711 29.9854 19.9015C30.2259 19.5672 30.5031 19.2625 30.8117 18.9933C31.2924 18.6546 31.9534 18.9933 32.8998 18.7008C33.5997 18.4249 34.2274 17.986 34.7333 17.4188C35.2392 16.8516 35.6095 16.1717 35.8149 15.4327C36.0204 14.6937 36.0553 13.9159 35.917 13.1606C35.7787 12.4054 35.471 11.6935 35.018 11.0811ZM24.9228 21.8565C26.0344 22.9494 28.4831 24.7504 30.2408 24.6889C29.715 25.2892 29.1141 25.8434 28.378 25.5971C26.1226 24.8279 24.196 23.2834 22.9247 21.2253C22.4035 20.654 21.9543 20.0179 21.5877 19.3319C21.4224 18.9983 21.3696 18.618 21.4376 18.2504C21.5055 17.8828 21.6904 17.5486 21.9633 17.3L22.2036 17.0999C22.645 18.9335 23.5884 20.5998 24.9228 21.9026V21.8565Z" fill="#1D1C19"/>
<path fill-rule="evenodd" clip-rule="evenodd" d="M18.9587 32.755C17.4205 33.3644 15.8167 33.783 14.1815 34.0019C12.4989 34.1866 11.1769 34.5868 10.2906 34.5714C10.1854 34.5714 10.0652 34.4637 10.0202 34.4944C7.99211 30.1843 1.06662 7.60217 0.826252 7.18655C0.783222 7.10698 0.718215 7.0422 0.639386 7.00034C0.560558 6.95849 0.471421 6.94142 0.383162 6.95129C0.294903 6.96115 0.211454 6.99751 0.143287 7.0558C0.0751202 7.11408 0.0252726 7.1917 0 7.27891C0 7.41745 3.33505 20.1632 3.71062 21.4716C5.07028 26.1715 6.75715 30.7654 8.75827 35.2179C9.5695 36.7573 11.913 35.6182 14.3467 35.2179C16.0339 34.8889 17.681 34.3728 19.2592 33.6786C19.3377 33.6111 19.3946 33.521 19.4224 33.42C19.4503 33.319 19.4479 33.2117 19.4155 33.1121C19.3831 33.0125 19.3222 32.9252 19.2408 32.8615C19.1593 32.7978 19.061 32.7607 18.9587 32.755Z" fill="#1D1C19"/>
<path fill-rule="evenodd" clip-rule="evenodd" d="M1.33703 6.20138C5.73362 4.52672 10.2552 3.21915 14.8575 2.29145C16.2475 1.97475 17.6585 1.7638 19.0789 1.66032C18.8836 3.19966 17.817 7.58678 19.9953 7.81768C22.069 7.7323 24.0406 6.87272 25.5387 5.40092C26.0495 7.75611 25.779 6.67857 26.7405 10.2652C26.7852 10.3674 26.8646 10.4495 26.964 10.4961C27.0633 10.5428 27.1758 10.5509 27.2806 10.5189C27.3853 10.4868 27.4751 10.4169 27.5333 10.3221C27.5914 10.2274 27.614 10.1141 27.5968 10.0035C27.1759 8.23318 26.8549 6.43944 26.6353 4.63125C26.4701 3.44596 21.0168 -0.248461 18.6733 0.0132265C11.7177 0.628963 5.63353 3.46135 0.931411 5.26238C0.80989 5.31749 0.714714 5.41981 0.66682 5.54683C0.618925 5.67385 0.622236 5.81517 0.676024 5.93969C0.729812 6.0642 0.82967 6.16173 0.953632 6.21081C1.07759 6.25988 1.2155 6.25649 1.33703 6.20138ZM24.8627 4.47731C24.2317 5.38552 21.5877 6.01665 20.3558 6.01665C20.1535 4.63626 20.0681 3.24052 20.1004 1.84504C21.7903 2.51224 23.3905 3.39675 24.8627 4.47731Z" fill="#1D1C19"/>
<path fill-rule="evenodd" clip-rule="evenodd" d="M33.5007 27.0594C32.6444 27.0594 33.6359 28.3371 32.1337 31.1695L27.732 29.3992C27.3264 29.2453 27.5517 29.1991 22.7895 32.4009C22.3313 30.9904 21.7946 29.6078 21.1821 28.2601C20.5662 27.3981 18.4329 28.1216 15.4133 28.6911C17.5766 25.4277 17.9522 24.9505 17.3212 24.3502C16.6903 23.7499 13.3853 21.6563 13.0398 21.1176C13.4153 20.9329 14.0763 20.6404 14.7373 20.3633C16.6001 19.609 16.8255 19.7937 16.9607 19.2396C17.0959 18.6854 16.6302 16.1609 16.7353 15.2373C16.9156 15.2373 16.5701 15.1295 19.1089 15.6991C19.2404 15.7154 19.3729 15.6776 19.4771 15.5939C19.5813 15.5101 19.6488 15.3874 19.6648 15.2527C19.6807 15.118 19.6438 14.9823 19.5621 14.8755C19.4804 14.7686 19.3606 14.6995 19.2291 14.6831C18.463 14.5754 16.4048 13.5748 15.864 14.4214C15.6044 15.8118 15.5638 17.2358 15.7438 18.6392C14.608 18.9836 13.4942 19.4 12.4088 19.8861C11.9581 20.117 11.4323 20.194 11.2971 20.7481C11.1619 21.3023 11.7177 21.918 12.1985 22.2875C12.6792 22.6569 14.7974 24.3502 15.7589 25.0891C14.8023 26.3887 13.9147 27.7401 13.0998 29.1375C12.9962 29.3443 12.9711 29.5831 13.0294 29.8077C13.0877 30.0324 13.2252 30.2269 13.4153 30.3536C14.1114 30.6288 14.8825 30.6288 15.5786 30.3536C16.495 30.1843 18.9136 29.6147 20.0854 29.5224C21.2872 31.9853 21.5877 35.064 22.9698 34.1404L27.6869 30.6615L32.1938 32.2778C32.3071 32.3219 32.4317 32.3245 32.5467 32.2853C32.6617 32.246 32.7599 32.1672 32.8247 32.0623C33.6145 30.66 34.0146 29.063 33.9815 27.4443C33.9665 27.3284 33.9077 27.2232 33.8178 27.1512C33.7279 27.0793 33.6141 27.0463 33.5007 27.0594Z" fill="#1D1C19"/>
<path fill-rule="evenodd" clip-rule="evenodd" d="M15.0228 7.83308C15.1522 7.8045 15.2653 7.72438 15.3372 7.61035C15.409 7.49632 15.4337 7.35772 15.4058 7.22504C15.3779 7.09235 15.2998 6.97645 15.1885 6.90284C15.0772 6.82923 14.9419 6.80393 14.8124 6.8325C11.6974 7.41407 8.71336 8.57766 6.0091 10.2652C5.95386 10.2834 5.90266 10.3126 5.85842 10.3511C5.81418 10.3895 5.77777 10.4365 5.75127 10.4894C5.72476 10.5423 5.70868 10.6 5.70395 10.6593C5.69921 10.7186 5.70591 10.7782 5.72367 10.8348C5.74142 10.8914 5.76989 10.9439 5.80743 10.9892C5.84497 11.0345 5.89086 11.0718 5.94248 11.099C5.99409 11.1261 6.05042 11.1426 6.10825 11.1475C6.16608 11.1523 6.22427 11.1455 6.27951 11.1273C11.1168 10.0805 12.7393 8.54117 15.0228 7.83308Z" fill="#1D1C19"/>
<path fill-rule="evenodd" clip-rule="evenodd" d="M9.47936 15.2835C10.6542 15.1838 11.8006 14.8602 12.8595 14.3291C13.568 13.8744 14.3445 13.5416 15.158 13.3439C15.2765 13.3228 15.384 13.2596 15.4615 13.1652C15.539 13.0709 15.5815 12.9515 15.5815 12.8282C15.5815 12.7049 15.539 12.5856 15.4615 12.4913C15.384 12.3969 15.2765 12.3336 15.158 12.3126C14.4915 12.2549 13.8203 12.3175 13.175 12.4973C12.292 12.7042 11.4351 13.014 10.6211 13.4209C10.9967 13.2823 8.20242 14.4676 8.14233 14.5908C7.81183 15.3912 8.66813 15.4374 9.47936 15.2835Z" fill="#1D1C19"/>
</svg>
