<svg width="30" height="36" viewBox="0 0 30 36" fill="none" xmlns="http://www.w3.org/2000/svg">
<path fill-rule="evenodd" clip-rule="evenodd" d="M26.7423 34.39C25.977 34.39 24.4299 34.4896 22.733 34.4896H8.80044L5.47324 34.4066L3.72646 34.1909C2.3124 33.9087 1.78005 33.3444 1.78005 32.5311C2.15882 30.6352 2.71581 28.7792 3.44365 26.9876C3.9484 24.9377 4.28775 22.8508 4.45844 20.7469C4.65808 18.4608 4.65808 16.1616 4.45844 13.8755C4.14236 10.556 3.54347 7.13693 3.02775 3.80083C3.00786 3.71042 2.9604 3.62838 2.89189 3.56597C2.82337 3.50356 2.73717 3.46384 2.64512 3.45228C5.6396 3.07054 8.68398 2.53942 11.745 2.19087C13.8468 1.9258 15.9653 1.81486 18.0833 1.85892C18.5325 1.85892 19.7469 1.75934 20.9114 1.77593C21.4604 1.77593 21.9595 1.77593 22.1591 1.90871C23.49 3.00415 24.9041 4.24896 26.2183 5.56017C27.0519 6.43238 27.8404 7.34643 28.5806 8.29876C28.6804 8.41494 28.5806 8.6971 28.5806 8.96266V10.1411L27.5326 26.1079C27.5546 26.2306 27.6191 26.3416 27.7149 26.4216C27.8107 26.5016 27.9317 26.5455 28.0566 26.5455C28.1815 26.5455 28.3025 26.5016 28.3983 26.4216C28.4941 26.3416 28.5586 26.2306 28.5806 26.1079L29.978 10.1577C30.0073 9.60481 30.0073 9.05079 29.978 8.49793C30.0172 8.0783 29.9303 7.65655 29.7285 7.28631C28.7769 6.03541 27.7432 4.84885 26.6342 3.73444C25.5529 2.58921 24.3717 1.51037 23.2405 0.547718C22.6933 0.199052 22.0597 0.00938686 21.4105 0C20.1961 0 18.599 0.0995851 18.0833 0C16.4109 0.0389804 14.7433 0.194267 13.0925 0.46473C9.26624 0.979253 5.47324 1.94191 1.78005 2.57261C1.67203 2.60977 1.58006 2.68278 1.51951 2.77945C1.45895 2.87611 1.43347 2.99058 1.44733 3.10373C1.46784 3.22562 1.53455 3.33497 1.63365 3.40913C1.73276 3.48328 1.85666 3.51656 1.97968 3.50207H2.3124C2.22516 3.53764 2.15194 3.60066 2.1039 3.68155C2.05585 3.76244 2.0356 3.85678 2.04623 3.95021C2.41222 7.26971 2.86139 10.5892 3.01111 13.9087C3.13251 16.1238 3.06015 18.3452 2.79485 20.5477C2.67839 21.5602 2.52867 22.5726 2.34567 23.5685C2.16268 24.5643 1.8965 25.5602 1.6636 26.556C1.16452 28.6307 0 30.8548 0 32.5311C0 34.2075 0.781892 35.3527 3.3272 35.8506L5.37342 36H8.70062C9.76532 36 20.2875 35.9004 22.6665 35.8008C24.3301 35.8008 25.9937 35.6515 26.7423 35.5519C26.8116 35.5477 26.8793 35.5297 26.9415 35.4988C27.0036 35.4679 27.0588 35.4249 27.1039 35.3722C27.1489 35.3195 27.1829 35.2582 27.2036 35.1922C27.2244 35.1261 27.2316 35.0565 27.2247 34.9876C27.234 34.9165 27.2287 34.8442 27.2092 34.7752C27.1897 34.7062 27.1565 34.6419 27.1114 34.586C27.0663 34.5302 27.0104 34.4841 26.9469 34.4504C26.8835 34.4167 26.8139 34.3962 26.7423 34.39Z" fill="#1D1C19"/>
<path fill-rule="evenodd" clip-rule="evenodd" d="M23.9059 20.0598C24.0332 20.0529 24.1537 20.0006 24.2456 19.9125C24.3375 19.8245 24.3947 19.7064 24.4068 19.5799C24.4189 19.4533 24.385 19.3266 24.3114 19.2228C24.2379 19.119 24.1294 19.045 24.0057 19.0142C23.1074 18.8814 22.209 18.815 21.3107 18.7652H20.9613C20.9484 18.0694 20.8478 17.3779 20.6619 16.7071C20.5716 16.4018 20.4489 16.1069 20.2959 15.8275C20.1541 15.5358 19.9691 15.2673 19.7469 15.0308C19.4591 14.7841 19.147 14.5672 18.8153 14.3835C19.1889 13.9555 19.4739 13.458 19.6537 12.9196C19.8336 12.3812 19.9049 11.8126 19.8634 11.2465C19.8744 10.723 19.7806 10.2026 19.5875 9.71572C19.3943 9.22886 19.1056 8.78537 18.7384 8.41126C18.3712 8.03716 17.9328 7.73997 17.4489 7.53711C16.9651 7.33426 16.4455 7.22983 15.9206 7.22995C14.8049 7.1983 13.7213 7.60492 12.903 8.36232C12.0848 9.11972 11.5972 10.1673 11.5454 11.2797C11.5317 11.9291 11.6927 12.5703 12.0116 13.1366C12.3305 13.7029 12.7957 14.1736 13.3587 14.4997C12.9278 14.7103 12.5207 14.9662 12.1443 15.2631C11.6906 15.6151 11.3069 16.0485 11.013 16.5412C10.4858 17.3814 10.3068 18.3932 10.5139 19.3627C9.64887 19.5287 8.85034 19.7279 7.952 19.9602C7.89255 19.9702 7.83571 19.992 7.78486 20.0243C7.73402 20.0566 7.69022 20.0988 7.65607 20.1483C7.62192 20.1979 7.59811 20.2538 7.58608 20.3127C7.57404 20.3717 7.57402 20.4324 7.58601 20.4914C7.61015 20.6058 7.67665 20.7069 7.77224 20.7746C7.86783 20.8423 7.98548 20.8715 8.10172 20.8565C9.0167 20.7403 9.93168 20.6739 10.8633 20.6075C11.7949 20.5412 13.0093 20.6075 14.0907 20.6075C15.172 20.6075 16.2534 20.508 17.4179 20.4914C18.9318 20.3752 20.4789 20.2092 22.0094 20.1428C22.6398 20.0836 23.2728 20.0559 23.9059 20.0598ZM15.9539 9.00588C16.5837 8.99242 17.1934 9.22697 17.6512 9.65877C18.1089 10.0906 18.3777 10.6848 18.3994 11.3129C18.9484 15.7943 12.7598 14.6324 13.0592 11.3129C13.1547 10.6321 13.5078 10.0136 14.0462 9.58447C14.5846 9.15538 15.2673 8.94834 15.9539 9.00588ZM17.3181 18.6656C16.0704 18.6656 14.806 18.6656 13.5583 18.8648C12.9095 18.8648 12.2607 19.0474 11.6286 19.147C11.6924 18.7111 11.8576 18.2961 12.111 17.9353C12.2607 17.7362 12.4271 17.5536 12.5934 17.3544L13.3587 16.4416C13.8245 15.927 14.2404 15.4125 14.6397 14.981C16.9521 15.4457 16.9687 15.4125 17.7506 15.064C17.9336 15.3295 18.1166 15.5785 18.2663 15.8441C18.416 16.1096 18.4327 16.176 18.5325 16.3254C18.6323 16.4748 18.7987 16.8067 18.9484 17.0391C19.2669 17.5734 19.5503 18.1279 19.7968 18.6988L17.3181 18.6656Z" fill="#1D1C19"/>
<path fill-rule="evenodd" clip-rule="evenodd" d="M21.5495 23.4955C21.5517 23.4266 21.5401 23.3579 21.5151 23.2935C21.4902 23.2292 21.4526 23.1705 21.4045 23.1209C21.3564 23.0714 21.2988 23.032 21.2351 23.0051C21.1714 22.9782 21.1029 22.9644 21.0338 22.9644C20.0356 22.8482 19.0874 22.7154 18.1059 22.6324H13.4252C12.6101 22.6324 11.7616 22.7154 10.9798 22.8316C9.78196 23.0142 8.63408 23.3295 7.43629 23.4789C7.31275 23.4789 7.19427 23.5279 7.10691 23.615C7.01955 23.7022 6.97048 23.8204 6.97048 23.9436C6.97048 24.0669 7.01955 24.1851 7.10691 24.2723C7.19427 24.3594 7.31275 24.4084 7.43629 24.4084C8.6585 24.5189 9.88582 24.5632 11.1128 24.5412C11.9114 24.5412 12.7764 24.4084 13.4918 24.3752L20.9839 24.0764C21.0617 24.0847 21.1403 24.0752 21.2138 24.0487C21.2874 24.0221 21.3539 23.9793 21.4084 23.9233C21.4629 23.8673 21.5039 23.7997 21.5284 23.7256C21.5528 23.6515 21.56 23.5728 21.5495 23.4955Z" fill="#1D1C19"/>
<path fill-rule="evenodd" clip-rule="evenodd" d="M12.5768 26.5495H11.2792C10.8552 26.5747 10.433 26.6245 10.0149 26.6988C9.03334 26.8814 8.11836 27.1636 7.17011 27.3627C7.04807 27.3753 6.93541 27.4338 6.85506 27.5263C6.77471 27.6188 6.7327 27.7384 6.73757 27.8607C6.74179 27.9217 6.75806 27.9814 6.78546 28.0362C6.81286 28.091 6.85083 28.1398 6.89721 28.1799C6.94359 28.22 6.99745 28.2506 7.0557 28.2698C7.11396 28.2891 7.17545 28.2967 7.23665 28.2922C8.33463 28.2922 9.44924 28.425 10.5639 28.3752C11.196 28.3752 11.8448 28.2756 12.477 28.2424C13.4226 28.143 17.7591 28.143 18.7048 28.2424C18.8411 28.268 18.982 28.2411 19.0993 28.1672C19.2166 28.0933 19.3015 27.9779 19.3369 27.8441C19.3541 27.7764 19.3572 27.706 19.3462 27.6371C19.3352 27.5682 19.3103 27.5022 19.273 27.4432C19.2356 27.3842 19.1866 27.3334 19.129 27.2939C19.0714 27.2544 19.0063 27.227 18.9377 27.2134C17.9794 26.8599 13.5948 26.6366 12.5768 26.5495Z" fill="#1D1C19"/>
</svg>
