<svg width="36" height="26" viewBox="0 0 36 26" fill="none" xmlns="http://www.w3.org/2000/svg">
<path d="M7.4565 22.3734C7.4565 23.1432 7.5029 23.8011 7.44499 24.4496C7.37027 25.2865 6.95492 25.7569 6.11777 25.8544C5.11767 25.9806 4.10879 26.0249 3.10137 25.9868C2.24818 25.9453 1.86657 25.4308 1.83451 24.5777C1.80866 23.8955 1.78474 23.2125 1.78578 22.5301C1.78578 22.1401 1.6675 21.8673 1.24931 21.8072C0.327091 21.6748 0.0951767 21.0272 0.0698397 20.2429C0.0450197 19.4752 0.0469546 18.7065 0.0397154 17.9383C0.0267884 16.5728 0.02679 15.2071 0.00093582 13.8418C-0.0249183 12.5623 0.484667 11.5763 1.5633 10.8722C1.77246 10.7357 1.959 10.5652 2.15911 10.408C2.1074 10.354 2.09525 10.3323 2.07716 10.3239C0.694865 9.68604 0.528619 8.59899 1.6737 7.52872C2.48526 6.77013 3.49228 6.47959 4.58229 6.52713C4.99686 6.5452 5.15044 6.40999 5.25709 6.04461C5.51395 5.1644 5.84358 4.30393 6.07899 3.4186C6.56569 1.58756 7.80656 0.837194 9.6435 0.674046C14.8582 0.210745 20.0756 -0.0712196 25.3142 0.0156733C26.2168 0.03054 26.8934 0.286095 27.3612 1.07223C28.2561 2.57658 29.1868 4.06018 30.0693 5.57158C30.2565 5.89198 30.4075 6.00437 30.8032 5.98541C31.5092 5.95497 32.2166 5.99209 32.9155 6.09626C33.2264 6.14432 33.5218 6.26311 33.7787 6.44336C34.0355 6.6236 34.2468 6.86038 34.3959 7.13513C34.8963 7.98368 34.6932 8.87939 33.874 9.43279C33.7345 9.52686 33.5896 9.61223 33.3852 9.74141C33.792 9.99773 34.1318 10.2601 34.511 10.4412C35.4289 10.8792 35.7899 11.6331 35.8772 12.5854C36.0768 14.7632 36.0571 16.931 35.6385 19.0866C35.4501 20.0568 35.0417 20.8564 34.0842 21.3009C33.97 21.3538 33.8705 21.5885 33.8819 21.7297C33.9298 22.324 34.0462 22.9129 34.0938 23.5073C34.2087 24.9427 33.5936 25.6237 32.1604 25.6838C31.2785 25.7207 30.3967 25.7647 29.5145 25.7874C28.116 25.8231 27.6541 25.3857 27.6013 23.9902C27.5739 23.6068 27.5744 23.222 27.6027 22.8387C27.6532 22.3723 27.5406 22.208 27.0201 22.2373C25.5375 22.321 24.0511 22.3734 22.5662 22.3775C17.7427 22.3903 12.9192 22.3768 8.09574 22.3733C7.86228 22.3733 7.62907 22.3734 7.4565 22.3734ZM15.691 20.7696C15.6916 20.7965 15.6921 20.8235 15.6927 20.8505C19.5004 20.7864 23.3102 20.778 27.1148 20.634C28.955 20.5644 30.7928 20.289 32.6171 20.0126C33.6383 19.8578 33.8322 19.5888 33.9044 18.5603C34.0247 16.8407 34.0742 15.1165 34.1708 13.3954C34.2242 12.4434 33.9292 11.798 32.9903 11.3209C31.8548 10.7441 30.7281 10.0649 30.0962 8.85863C29.7197 8.14093 29.3278 7.43016 28.9294 6.72361C28.0809 5.21862 27.2012 3.73028 26.3797 2.21107C26.0048 1.51656 25.4763 1.30907 24.7134 1.3033C19.6995 1.28402 14.6881 1.53289 9.70128 2.04882C8.49906 2.16852 7.67445 2.64452 7.39419 3.8673C7.31986 4.15649 7.22787 4.44093 7.11871 4.71905C6.58056 6.20162 6.05262 7.68802 5.48473 9.15931C5.35697 9.44869 5.15672 9.70089 4.90301 9.89199C4.0612 10.555 3.21939 11.2249 2.32341 11.8109C1.41748 12.4032 1.07725 13.1398 1.19747 14.221C1.40702 16.106 1.52181 18.0017 1.63259 19.8962C1.65845 20.332 1.80724 20.5242 2.21664 20.5455C3.69588 20.6224 5.17474 20.7434 6.65463 20.7598C9.66573 20.7928 12.6788 20.7696 15.691 20.7696ZM30.5278 24.1075C30.9128 24.0777 31.2975 24.0294 31.6829 24.0239C31.9989 24.0194 32.1612 23.9187 32.1525 23.5821C32.1405 23.136 32.1476 22.6892 32.1556 22.2428C32.1608 21.9541 32.066 21.817 31.7405 21.8569C30.9322 21.9561 30.1182 22.0136 29.3132 22.1322C29.1773 22.1524 28.9869 22.3852 28.9705 22.5357C28.8035 24.0646 28.9422 24.2018 30.4637 24.113C30.4849 24.1122 30.5066 24.1103 30.5278 24.1075ZM2.80779 22.3918C2.89828 22.9484 2.98205 23.5775 3.11804 24.1952C3.14864 24.2762 3.19901 24.3483 3.26464 24.4052C3.33027 24.462 3.40911 24.5019 3.49409 24.5211C4.13782 24.5414 4.7822 24.5197 5.42307 24.4563C5.58026 24.4395 5.80273 24.1909 5.83428 24.0197C5.90089 23.5989 5.92303 23.1724 5.90033 22.747C5.89684 22.6264 5.74353 22.4096 5.65472 22.4073C4.71673 22.382 3.77926 22.3918 2.80779 22.3918ZM30.9308 6.922L30.8519 7.07925C31.0396 7.40875 31.2186 7.74338 31.4164 8.06609C31.8806 8.82493 31.9936 8.84698 32.7749 8.36894C33.3049 8.04444 33.3308 7.61278 32.7601 7.38017C32.1839 7.14666 31.5432 7.06849 30.9308 6.922ZM4.61784 7.58843C3.77461 7.71031 3.09723 7.94984 2.57213 8.51772C2.36414 8.74264 2.34617 8.92785 2.71743 9.07318C3.68813 9.45254 3.96218 9.34475 4.33539 8.34433C4.41528 8.12966 4.49491 7.91614 4.61784 7.58843Z" fill="#1D1C19"/>
<path d="M16.2197 11.234C14.3489 11.2885 12.4782 11.3643 10.607 11.3877C9.7722 11.3984 8.93466 11.3216 8.10073 11.2543C7.02184 11.1673 6.31033 9.96823 6.71301 8.92988C7.30455 7.40476 7.74213 5.82057 8.24448 4.26137C8.32595 3.98196 8.48156 3.72936 8.69507 3.5299C8.90858 3.33044 9.17217 3.19144 9.45833 3.1274C10.266 2.90847 11.0891 2.75043 11.9208 2.65462C14.4466 2.42547 16.9753 2.20836 19.5081 2.08019C21.0083 2.00445 22.5175 2.11018 24.0227 2.12556C24.9938 2.13543 25.7378 2.56336 26.1988 3.38436C27.0751 4.9451 27.9652 6.50661 28.2553 8.31188C28.2864 8.4553 28.3437 8.59186 28.4244 8.71483C29.0749 9.80509 28.7419 10.5633 27.492 10.6981C25.9537 10.8641 24.4106 11.0138 22.8655 11.0836C20.6524 11.1837 18.4357 11.2051 16.221 11.2601L16.2197 11.234ZM26.7294 9.21132C26.0855 7.57292 25.526 6.10188 24.9293 4.64597C24.4679 3.52021 24.3971 3.50098 23.1842 3.56212C19.7055 3.7377 16.2259 3.89675 12.7484 4.09258C11.8061 4.14576 10.8695 4.30174 9.93133 4.42003C9.71515 4.43506 9.51004 4.52052 9.34794 4.66312C9.18585 4.80572 9.07585 4.99746 9.0351 5.20848C8.72666 6.36064 8.36444 7.4991 8.07578 8.656C7.75351 9.94735 7.86895 9.80137 8.96116 9.77612C13.0044 9.68244 17.0467 9.55453 21.0891 9.42855C22.9142 9.37139 24.7376 9.28873 26.7294 9.21132Z" fill="#1D1C19"/>
<path d="M17.3659 17.212C15.6241 17.2807 13.8826 17.3518 12.1407 17.4159C11.8616 17.4261 11.5476 17.4816 11.311 17.3782C11.0535 17.2657 10.7562 17.0276 10.6776 16.7809C10.5629 16.4235 10.8776 16.1736 11.2185 16.1197C11.813 16.0258 12.4125 15.9659 13.0139 15.9403C16.2167 15.8035 19.42 15.6771 22.6238 15.561C23.14 15.5624 23.6557 15.5926 24.1685 15.6515C24.5668 15.6823 24.8245 15.9051 24.8358 16.2992C24.8475 16.6977 24.5754 16.9345 24.2015 16.9901C23.692 17.0719 23.1774 17.1183 22.6614 17.1292C20.8967 17.1456 19.1323 17.1355 17.3668 17.1355C17.3661 17.1612 17.3659 17.1866 17.3659 17.212Z" fill="#1D1C19"/>
<path d="M12.9073 15.3716C12.6507 15.3716 12.3714 15.4343 12.1446 15.3531C11.9405 15.2799 11.6749 15.0619 11.6548 14.8837C11.6342 14.6983 11.8292 14.393 12.0119 14.3025C12.3436 14.1513 12.7001 14.0608 13.0643 14.0353C15.4575 13.8094 17.8526 13.6033 20.2472 13.3924C20.3328 13.3828 20.4193 13.3849 20.5043 13.3986C20.9303 13.4801 21.3852 13.5389 21.4442 14.0958C21.4883 14.51 21.1503 14.8648 20.5604 14.93C19.7929 15.0154 19.0181 15.041 18.2457 15.078C16.4658 15.1634 14.6853 15.2403 12.905 15.3205L12.9073 15.3716Z" fill="#1D1C19"/>
<path d="M29.3263 16.6467C28.363 16.637 27.7249 16.1795 27.4965 15.3348C27.2779 14.5273 27.7336 13.3611 28.4402 12.9847C28.6326 12.8918 28.8424 12.8394 29.0563 12.8309C29.8476 12.7783 30.5411 13.0695 31.1505 13.5327C31.7255 13.97 31.8334 14.7734 31.469 15.4492C31.0763 16.1769 30.2197 16.6558 29.3263 16.6467Z" fill="#1D1C19"/>
<path d="M7.8377 15.2283C7.83977 16.4009 6.83586 17.3992 5.66984 17.384C5.4333 17.3825 5.19948 17.3339 4.98217 17.2413C4.76487 17.1486 4.56849 17.0138 4.40461 16.8447C4.24074 16.6755 4.1127 16.4756 4.02805 16.2566C3.9434 16.0376 3.90386 15.8041 3.91175 15.5697C3.92817 14.2943 4.80799 13.4616 6.14556 13.455C7.14223 13.4505 7.83589 14.1776 7.8377 15.2283Z" fill="#1D1C19"/>
</svg>
