<?xml version="1.0" encoding="UTF-8"?>
<svg xmlns="http://www.w3.org/2000/svg" width="32" height="32" viewBox="0 0 32 32" fill="none">
  <g clip-path="url(#clip0_35_19397)">
    <path d="M31.7734 14.0928C31.48 11.5728 31.6534 8.65281 30.9467 6.19948C30.7231 5.2659 30.3078 4.38905 29.727 3.62467C29.1463 2.86029 28.4128 2.2251 27.5734 1.75948C26.8722 1.37343 26.1172 1.09477 25.3334 0.932815C24.1671 0.730405 22.9829 0.649972 21.8 0.692815L17.2534 0.892815L13.84 1.09281C10.9962 1.14617 8.17355 1.59492 5.45336 2.42615C4.46796 2.67383 3.56656 3.1801 2.84227 3.89267C2.11798 4.60523 1.59707 5.49826 1.33335 6.47948C1.31399 6.59086 1.33962 6.70537 1.40462 6.79787C1.46962 6.89037 1.56867 6.95329 1.68002 6.97281C1.73432 6.98877 1.79132 6.99341 1.84749 6.98644C1.90366 6.97947 1.9578 6.96104 2.00655 6.93229C2.0553 6.90354 2.09763 6.86508 2.13091 6.8193C2.16419 6.77352 2.18771 6.72139 2.20002 6.66615C2.98669 2.66615 9.86669 2.37281 13.9067 2.17281L17.3334 1.98615L21.8134 1.85281C23.5958 1.7235 25.3808 2.06853 26.9867 2.85281C27.6634 3.25253 28.2499 3.78835 28.7089 4.42638C29.1679 5.06441 29.4895 5.79076 29.6534 6.55948C30.3067 8.95948 30.0934 11.7995 30.36 14.2528C30.4934 15.5861 30.56 17.8261 30.5334 20.0261C30.5235 21.9555 30.4078 23.8828 30.1867 25.7995C30.0576 26.2457 29.8283 26.6567 29.5164 27.0009C29.2045 27.3452 28.8181 27.6138 28.3867 27.7861C26.0037 28.843 23.4541 29.4748 20.8534 29.6528C16.3196 30.1381 11.7471 30.1381 7.21336 29.6528C6.15583 29.6119 5.11547 29.3722 4.14669 28.9461C2.16002 27.3328 1.33335 24.6128 1.04002 21.6128C0.626688 17.1061 1.45335 11.9728 1.72002 8.83948C1.72381 8.78712 1.71651 8.73454 1.6986 8.68519C1.68069 8.63583 1.65257 8.59081 1.61608 8.55307C1.57959 8.51532 1.53555 8.48569 1.48683 8.46612C1.43812 8.44655 1.38582 8.43747 1.33335 8.43948C1.285 8.43396 1.23603 8.4383 1.1894 8.45225C1.14277 8.46619 1.09945 8.48944 1.06206 8.5206C1.02468 8.55176 0.993993 8.59017 0.971871 8.63352C0.949749 8.67687 0.936646 8.72426 0.933355 8.77281C0.640021 11.9995 -0.266645 17.1195 0.0800214 21.6928C0.333355 25.0261 1.28002 28.0128 3.48002 29.7861C4.59628 30.357 5.8161 30.6971 7.06669 30.7861C11.7009 31.3855 16.3871 31.4705 21.04 31.0395C23.8057 30.8718 26.5172 30.1984 29.04 29.0528C29.6789 28.788 30.2449 28.3737 30.6904 27.8447C31.1358 27.3157 31.4478 26.6874 31.6 26.0128C31.8412 24.017 31.9747 22.0097 32 19.9995C32.034 18.0279 31.9583 16.056 31.7734 14.0928Z" fill="#DA5001"></path>
    <path d="M13.4534 7.83948C13.0629 7.14876 12.5203 6.556 11.8667 6.10615C11.4179 5.74241 10.8577 5.54392 10.28 5.54392C9.70232 5.54392 9.14217 5.74241 8.69335 6.10615C7.70088 7.06995 6.93961 8.24605 6.46669 9.54615C6.28002 10.0128 6.10669 10.4795 5.96002 10.9595C5.81335 11.4395 5.60002 12.2928 5.44002 12.8795C4.98669 12.8795 4.56002 12.8795 4.53335 13.2528C4.50669 13.6261 4.89335 13.6795 5.24002 13.7328C5.09335 14.3595 4.96002 14.9861 4.85335 15.6128C4.70669 16.4639 4.61317 17.3234 4.57335 18.1861C4.56785 18.2363 4.57254 18.287 4.58716 18.3352C4.60178 18.3834 4.62601 18.4282 4.65841 18.4669C4.6908 18.5055 4.73068 18.5371 4.77564 18.5599C4.82061 18.5827 4.86972 18.5962 4.92002 18.5995C5.01828 18.6034 5.11433 18.5697 5.18864 18.5053C5.26295 18.4409 5.30993 18.3506 5.32002 18.2528C5.41252 17.4218 5.55951 16.5978 5.76002 15.7861C5.89335 15.1595 6.08002 14.5328 6.26669 13.9061C6.91119 14.0019 7.56178 14.0509 8.21335 14.0528C8.86669 14.0528 9.54669 13.9728 10.1867 13.9061C11.16 13.7995 12.1067 13.6261 13.08 13.5595C13.1913 13.5566 13.2977 13.5129 13.3788 13.4367C13.46 13.3605 13.5102 13.2571 13.52 13.1461C13.5218 13.089 13.5121 13.0321 13.4915 12.9788C13.4708 12.9255 13.4397 12.8768 13.3999 12.8358C13.3601 12.7948 13.3124 12.7621 13.2598 12.7399C13.2071 12.7176 13.1505 12.7061 13.0934 12.7061C11.3214 12.5021 9.53194 12.5021 7.76002 12.7061L6.66669 12.7995C6.82669 12.3195 6.98669 11.8395 7.16002 11.3595C7.32504 10.9324 7.51196 10.514 7.72002 10.1061C8.11684 9.0253 8.7553 8.04937 9.58669 7.25281C10.4 6.66615 11.24 7.29281 12 8.09281C12.08 8.30615 13.3334 9.42615 13.68 13.4261C13.8476 14.9816 13.8476 16.5507 13.68 18.1061C13.6645 18.219 13.6934 18.3334 13.7605 18.4254C13.8276 18.5174 13.9278 18.5798 14.04 18.5995C14.1529 18.615 14.2673 18.5861 14.3593 18.519C14.4513 18.4519 14.5137 18.3517 14.5334 18.2395C14.7456 16.6396 14.7902 15.022 14.6667 13.4128C14.6571 11.4906 14.2438 9.59175 13.4534 7.83948Z" fill="#DA5001"></path>
    <path d="M25.1334 17.8261C26.1067 17.6395 27.0667 17.3995 28.0134 17.1328C28.0671 17.1203 28.1179 17.0972 28.1626 17.0648C28.2073 17.0324 28.245 16.9914 28.2736 16.9442C28.3022 16.897 28.321 16.8445 28.329 16.7899C28.337 16.7352 28.3339 16.6796 28.32 16.6261C28.3107 16.57 28.2898 16.5164 28.2587 16.4686C28.2277 16.4209 28.1871 16.3801 28.1395 16.3488C28.0919 16.3175 28.0384 16.2964 27.9823 16.2868C27.9262 16.2771 27.8686 16.2792 27.8134 16.2928C27.0934 16.4128 26.3467 16.5061 25.6 16.5728L22.8667 16.7595C22.9805 16.3978 23.0214 16.0171 22.9871 15.6394C22.9528 15.2618 22.8439 14.8947 22.6667 14.5595C22.6772 14.5036 22.6753 14.4461 22.661 14.3911C22.6468 14.3361 22.6206 14.2849 22.5843 14.2411C22.548 14.1974 22.5025 14.1622 22.4511 14.138C22.3997 14.1139 22.3435 14.1013 22.2867 14.1013C22.2299 14.1013 22.1737 14.1139 22.1223 14.138C22.0708 14.1622 22.0254 14.1974 21.9891 14.2411C21.9528 14.2849 21.9266 14.3361 21.9124 14.3911C21.8981 14.4461 21.8962 14.5036 21.9067 14.5595C21.7253 14.9045 21.6218 15.285 21.6033 15.6743C21.5849 16.0636 21.6521 16.4522 21.8 16.8128C19.6934 16.9728 18.36 17.1328 16.7867 17.1461C16.7366 17.1425 16.6862 17.1491 16.6387 17.1654C16.5912 17.1817 16.5474 17.2074 16.5101 17.241C16.4727 17.2746 16.4425 17.3154 16.4213 17.361C16.4001 17.4066 16.3884 17.4559 16.3867 17.5061C16.3831 17.5563 16.3896 17.6066 16.4059 17.6541C16.4222 17.7017 16.4479 17.7454 16.4816 17.7828C16.5152 17.8201 16.556 17.8503 16.6015 17.8715C16.6471 17.8927 16.6965 17.9045 16.7467 17.9061C17.4667 17.9995 18.1867 18.0928 18.92 18.1595V18.7061C18.9091 19.0099 18.9314 19.3139 18.9867 19.6128C19.1427 20.5274 19.4878 21.3993 20 22.1728C20.1945 22.4498 20.4084 22.7127 20.64 22.9595C20.4134 23.1728 20.1867 23.3728 19.9334 23.5728C19.5084 23.9604 19.0634 24.3254 18.6 24.6661C17.7467 25.2661 17.2667 25.1061 17.4 25.6395C17.6534 26.7728 20.6667 24.5728 21.6 23.8795C23.1668 25.1044 25.1199 25.7287 27.1067 25.6395C27.2211 25.6395 27.331 25.595 27.4132 25.5154C27.4953 25.4357 27.5432 25.3272 27.5467 25.2128C27.5467 25.1556 27.5353 25.0991 27.513 25.0464C27.4907 24.9937 27.4581 24.9461 27.417 24.9063C27.376 24.8665 27.3274 24.8354 27.2741 24.8147C27.2207 24.7941 27.1638 24.7844 27.1067 24.7861C25.4794 24.6295 23.9392 23.978 22.6934 22.9195C24.0757 21.5581 24.9387 19.7565 25.1334 17.8261ZM21.6934 21.9461C21.4918 21.7471 21.3004 21.5379 21.12 21.3195C20.5927 20.7356 20.1729 20.063 19.88 19.3328C19.8011 19.1183 19.7518 18.894 19.7334 18.6661V18.1861L20.7067 18.2528H22.4134C22.9734 18.2528 23.56 18.1461 24.1334 18.0528H24.2934C24.012 18.8578 23.6218 19.6205 23.1334 20.3195C22.7044 20.9048 22.2224 21.4494 21.6934 21.9461Z" fill="#DA5001"></path>
    <path d="M12.3067 25.4795C11.8343 25.3123 11.386 25.0837 10.9734 24.7995C9.72694 23.9965 8.82025 22.7623 8.42669 21.3328L12.0934 22.6661C12.1366 22.6912 12.1846 22.7069 12.2343 22.7123C12.284 22.7178 12.3343 22.7128 12.3819 22.6978C12.4296 22.6827 12.4736 22.6579 12.5112 22.6249C12.5487 22.5919 12.579 22.5515 12.6 22.5061C12.6226 22.4616 12.6361 22.413 12.6396 22.3632C12.6431 22.3134 12.6366 22.2634 12.6204 22.2162C12.6043 22.1689 12.5788 22.1254 12.5455 22.0882C12.5122 22.051 12.4718 22.0208 12.4267 21.9995C6.93335 18.9861 7.85336 18.5461 6.17336 22.9861C5.98669 23.4528 5.80002 23.9061 5.58669 24.3195C5.55955 24.3694 5.5425 24.4241 5.53653 24.4806C5.53055 24.5371 5.53576 24.5942 5.55185 24.6487C5.56795 24.7032 5.59462 24.754 5.63033 24.7981C5.66605 24.8423 5.71012 24.879 5.76002 24.9061C5.80992 24.9333 5.86468 24.9503 5.92117 24.9563C5.97766 24.9623 6.03478 24.9571 6.08925 24.941C6.14373 24.9249 6.1945 24.8982 6.23867 24.8625C6.28285 24.8268 6.31955 24.7827 6.34669 24.7328C6.68002 24.1995 7.00002 23.6795 7.30669 23.1328C7.44002 22.8928 7.57335 22.6395 7.69335 22.3861C7.74802 22.5856 7.81481 22.7815 7.89335 22.9728C8.34619 24.1582 9.12792 25.1897 10.1467 25.9461C12.8134 27.8528 16.8134 26.5861 16.2534 25.6928C15.6934 24.7995 15.44 26.6661 12.3067 25.4795Z" fill="#DA5001"></path>
    <path d="M26.12 7.15948C26.0703 7.13154 26.0155 7.11385 25.9588 7.10745C25.9022 7.10106 25.8448 7.10609 25.7901 7.12225C25.7354 7.13841 25.6845 7.16537 25.6404 7.20153C25.5963 7.2377 25.5599 7.28234 25.5334 7.33281C25.0435 8.08833 24.5983 8.87189 24.2 9.67948C23.7996 8.24648 22.9313 6.98863 21.7334 6.10615C21.2065 5.74681 20.6194 5.48488 20 5.33281C19.2979 5.14196 18.5648 5.09318 17.8436 5.18934C17.1224 5.28551 16.4276 5.52467 15.8 5.89281C15.7571 5.91733 15.7195 5.95005 15.6892 5.98911C15.659 6.02818 15.6367 6.07282 15.6237 6.12049C15.5975 6.21675 15.6105 6.31951 15.66 6.40615C15.7095 6.49278 15.7914 6.55621 15.8877 6.58246C15.984 6.60872 16.0867 6.59565 16.1734 6.54615C16.9738 6.29585 17.822 6.23785 18.649 6.37685C19.4761 6.51585 20.2587 6.84794 20.9334 7.34615C22.1439 8.11523 23.0382 9.29335 23.4534 10.6661L19.7867 9.33281C19.742 9.31093 19.6935 9.29805 19.6439 9.29492C19.5943 9.29178 19.5445 9.29845 19.4975 9.31455C19.4504 9.33064 19.407 9.35585 19.3697 9.38872C19.3324 9.4216 19.3019 9.4615 19.28 9.50615C19.2581 9.5508 19.2453 9.59932 19.2421 9.64895C19.239 9.69857 19.2457 9.74833 19.2618 9.79538C19.2778 9.84243 19.3031 9.88585 19.3359 9.92315C19.3688 9.96046 19.4087 9.99093 19.4534 10.0128L22.5734 11.7728C25.08 12.9995 24.2667 12.2395 26.2934 7.62615C26.3169 7.54001 26.3129 7.44864 26.2818 7.36491C26.2507 7.28119 26.1941 7.20934 26.12 7.15948Z" fill="#DA5001"></path>
  </g>
  <defs>
    <clipPath id="clip0_35_19397">
      <rect width="32" height="32" fill="white"></rect>
    </clipPath>
  </defs>
</svg>
