<?xml version="1.0" encoding="UTF-8"?>
<svg xmlns="http://www.w3.org/2000/svg" width="32" height="32" viewBox="0 0 32 32" fill="none">
  <g clip-path="url(#clip0_35_19400)">
    <path fill-rule="evenodd" clip-rule="evenodd" d="M28.2801 7.26732C27.5626 7.4228 26.9243 7.82946 26.4801 8.41398C26.4398 8.44813 26.4067 8.48987 26.3826 8.53683C26.3584 8.58378 26.3438 8.63503 26.3394 8.68765C26.3307 8.79392 26.3645 8.89932 26.4335 8.98065C26.5024 9.06198 26.6009 9.11259 26.7071 9.12134C26.8134 9.1301 26.9188 9.09627 27.0001 9.02732C27.6935 8.54732 27.7868 8.46732 28.4268 8.45398C29.0668 8.44065 30.5868 9.45398 30.6135 10.1607C30.6795 10.9066 30.4603 11.6499 30.0001 12.2407C29.1068 11.5473 26.9068 9.98732 26.3335 9.57398C26.2485 9.48931 26.1334 9.44176 26.0135 9.44176C25.8935 9.44176 25.7784 9.48931 25.6935 9.57398C25.1735 10.1607 26.2001 10.4673 29.2401 13.0673C28.8401 13.7473 28.6801 13.854 24.2401 19.0273C23.9302 18.4245 23.5027 17.8898 22.9829 17.4547C22.4631 17.0196 21.8615 16.693 21.2135 16.494C25.0268 11.1607 25.7068 11.014 25.2135 10.5873C24.7201 10.1607 24.5468 10.7873 24.0801 11.3207C20.7735 15.174 18.9468 17.2807 18.9068 17.9873C18.7601 20.9073 18.6268 22.3207 19.0668 22.734C19.9335 23.5606 23.0668 22.374 23.7868 21.9073C26.6189 18.7476 29.2253 15.3926 31.5868 11.8673C31.9129 11.3528 32.0777 10.7525 32.0599 10.1436C32.0422 9.53475 31.8427 8.94509 31.4871 8.45047C31.1316 7.95585 30.6362 7.57888 30.0647 7.36804C29.4932 7.1572 28.8717 7.12212 28.2801 7.26732ZM22.8535 20.6007C22.0205 21.0369 21.1183 21.3256 20.1868 21.454C20.0001 17.3607 20.0801 18.1207 20.6268 17.3207C21.5104 18.2475 22.4891 19.0788 23.5468 19.8007C23.1735 20.254 22.9201 20.5473 22.8535 20.6007Z" fill="#DA5001"></path>
    <path fill-rule="evenodd" clip-rule="evenodd" d="M22.8935 24.7606C22.5601 26.2006 22.1601 26.6806 20.4001 26.9606C15.5638 27.3902 10.6951 27.2919 5.88012 26.6673C4.97345 26.5073 4.12012 26.4673 3.21345 26.334C2.30679 26.2006 2.48012 26.1606 1.52012 25.9473C1.34679 25.134 2.33345 23.134 2.54679 22.1873C2.54679 22.1873 5.45345 8.36065 5.66679 7.10732C5.94748 5.55216 6.12122 3.97958 6.18679 2.40065C7.82679 2.40065 10.3468 2.72065 11.8668 2.89398C16.6268 3.42732 21.7735 2.06732 25.0135 3.92065C25.2091 4.61373 25.2724 5.33746 25.2001 6.05398C25.2001 6.16007 25.2423 6.26181 25.3173 6.33683C25.3923 6.41184 25.494 6.45398 25.6001 6.45398C25.7062 6.45398 25.8079 6.41184 25.883 6.33683C25.958 6.26181 26.0001 6.16007 26.0001 6.05398C26.1068 5.16065 26.2535 3.68065 25.6268 3.02732C24.1868 1.56065 20.0001 1.33398 17.8135 1.33398C15.8668 1.41398 13.9201 1.65398 12.0001 1.54732C11.1468 1.54732 6.66679 1.36065 5.81345 1.41398C5.18679 1.41398 5.42679 2.30732 5.40012 2.42732C4.94679 6.42732 5.25345 4.44065 1.09345 21.7873C0.800119 23.0673 -0.426548 25.1073 0.146786 26.6673C0.453452 27.4673 1.37345 27.494 1.81345 27.6273C3.07179 27.8896 4.34543 28.0722 5.62678 28.174C9.61016 28.6527 13.6338 28.6974 17.6268 28.3073C19.1601 28.2006 21.2801 28.1873 22.6001 27.2806C23.27 26.6982 23.6941 25.8834 23.7868 25.0007C23.8025 24.942 23.8066 24.8808 23.7987 24.8206C23.7908 24.7604 23.7711 24.7023 23.7408 24.6497C23.7105 24.597 23.6701 24.5509 23.6219 24.5139C23.5738 24.4769 23.5188 24.4497 23.4601 24.434C23.4015 24.4182 23.3403 24.4142 23.2801 24.4221C23.2198 24.43 23.1617 24.4496 23.1091 24.48C23.0565 24.5103 23.0104 24.5507 22.9734 24.5989C22.9364 24.647 22.9092 24.702 22.8935 24.7606Z" fill="#DA5001"></path>
    <path fill-rule="evenodd" clip-rule="evenodd" d="M20.8401 8.00065C19.3601 8.00065 17.2401 7.80065 15.2268 7.72065C11.6535 7.57398 12.6535 8.00065 9.48012 7.61398C9.18679 7.61398 8.05345 7.18732 7.84012 7.82732C7.62679 8.46732 8.54679 8.22732 9.30679 8.56065C10.0668 8.89398 11.2801 9.33398 16.1468 9.24065C17.8935 9.24065 19.6268 9.05398 20.8935 8.92065C20.9539 8.91715 21.013 8.90178 21.0675 8.87543C21.1219 8.84908 21.1707 8.81226 21.2109 8.76706C21.2512 8.72187 21.2821 8.6692 21.302 8.61205C21.3219 8.5549 21.3303 8.49439 21.3268 8.43398C21.3233 8.37358 21.3079 8.31445 21.2816 8.25998C21.2552 8.20551 21.2184 8.15676 21.1732 8.11653C21.128 8.07629 21.0753 8.04534 21.0182 8.02546C20.961 8.00558 20.9005 7.99715 20.8401 8.00065Z" fill="#DA5001"></path>
    <path fill-rule="evenodd" clip-rule="evenodd" d="M17.3335 13.574C9.78679 13.1473 8.56012 13.0273 7.38679 12.414C7.29661 12.3574 7.18766 12.339 7.08389 12.3627C6.98011 12.3865 6.89003 12.4505 6.83345 12.5407C6.77687 12.6308 6.75843 12.7398 6.78219 12.8436C6.80594 12.9473 6.86994 13.0374 6.96012 13.094C8.17784 13.95 9.58885 14.4905 11.0668 14.6673C13.1562 14.8355 15.2578 14.7729 17.3335 14.4807C17.4537 14.4807 17.569 14.4329 17.654 14.3479C17.739 14.2629 17.7868 14.1475 17.7868 14.0273C17.7868 13.9071 17.739 13.7918 17.654 13.7068C17.569 13.6217 17.4537 13.574 17.3335 13.574Z" fill="#DA5001"></path>
    <path fill-rule="evenodd" clip-rule="evenodd" d="M13.1068 19.8273C10.1468 19.6673 7.34679 19.4806 5.84012 18.2673C5.42679 17.934 4.68012 18.614 5.56012 19.3607C6.2074 19.8174 6.90538 20.1977 7.64012 20.494C10.6935 21.574 13.3068 21.2407 16.6801 20.8673C16.8004 20.8673 16.9157 20.8196 17.0007 20.7345C17.0857 20.6495 17.1335 20.5342 17.1335 20.414C17.1335 20.2938 17.0857 20.1784 17.0007 20.0934C16.9157 20.0084 16.8004 19.9607 16.6801 19.9607C15.4935 20.0007 14.3068 19.894 13.1068 19.8273Z" fill="#DA5001"></path>
  </g>
  <defs>
    <clipPath id="clip0_35_19400">
      <rect width="32" height="32" fill="white"></rect>
    </clipPath>
  </defs>
</svg>
