<?xml version="1.0" encoding="UTF-8"?>
<svg xmlns="http://www.w3.org/2000/svg" width="32" height="32" viewBox="0 0 32 32" fill="none">
  <g clip-path="url(#clip0_35_19403)">
    <path fill-rule="evenodd" clip-rule="evenodd" d="M31.8534 21.547C31.1201 20.0937 23.3734 20.627 21.8668 21.107C21.0534 21.3603 20.9734 22.2937 20.7334 23.0537C20.0134 23.627 13.6401 23.5604 12.7334 23.0537C12.5468 22.4537 12.5734 21.8537 12.1201 21.4003C11.4401 20.7203 10.0934 20.9737 5.60011 21.0403C4.33848 20.9262 3.06791 20.9575 1.81344 21.1337C0.813444 21.3337 -0.0798894 22.147 0.000110559 23.0137C0.420119 24.7473 1.28398 26.3417 2.50678 27.6403C5.01344 29.2937 8.78678 28.2537 11.6668 28.4137C23.1734 28.1603 22.9334 27.9203 24.3868 28.1337C24.4393 28.1424 24.493 28.1408 24.5449 28.1287C24.5968 28.1167 24.6458 28.0946 24.6891 28.0637C24.7325 28.0327 24.7693 27.9935 24.7975 27.9483C24.8257 27.9032 24.8447 27.8529 24.8534 27.8003C24.8622 27.7478 24.8605 27.6941 24.8485 27.6422C24.8365 27.5903 24.8144 27.5413 24.7834 27.498C24.7525 27.4546 24.7133 27.4178 24.6681 27.3896C24.6229 27.3615 24.5726 27.3424 24.5201 27.3337C23.1068 27.0937 23.2534 27.3337 11.7468 27.3337C9.08011 27.107 5.24011 27.8803 3.29344 26.5337C2.48841 25.4859 1.88691 24.2964 1.52011 23.027C2.10678 22.227 4.44011 22.627 5.52011 22.627L9.84011 22.4937C10.0668 22.4937 10.7334 22.8137 10.9601 22.6537C11.1068 23.187 11.1468 23.9203 11.7734 24.3337C12.9601 25.1203 20.4401 25.347 21.7068 24.0537C22.1334 23.627 22.0934 22.9737 22.3201 22.4003C23.7601 21.947 29.2801 21.5737 30.8668 22.1603C31.2268 23.0803 29.5334 26.027 28.7868 26.747C28.4134 27.107 26.7201 27.0937 26.1201 27.0937C26.0115 27.1122 25.913 27.1686 25.842 27.2528C25.771 27.337 25.732 27.4435 25.732 27.5537C25.732 27.6638 25.771 27.7704 25.842 27.8546C25.913 27.9388 26.0115 27.9951 26.1201 28.0137C27.1601 28.0137 28.7868 28.0803 29.4001 27.467C30.6668 26.387 32.5601 22.9603 31.8534 21.547Z" fill="#DA5001"></path>
    <path fill-rule="evenodd" clip-rule="evenodd" d="M3.20011 19.9203C3.23017 20.0264 3.30114 20.1162 3.39741 20.17C3.49368 20.2238 3.60736 20.2371 3.71344 20.207C3.81953 20.177 3.90933 20.106 3.96309 20.0097C4.01685 19.9135 4.03017 19.7998 4.00011 19.6937C3.26382 16.1046 2.88862 12.4508 2.88011 8.78702C2.98678 7.13368 3.64011 6.48035 4.54678 6.18702C8.37344 4.85368 22.6668 4.30702 27.2134 5.90702C28.2801 6.26702 28.6401 6.28035 28.9334 7.42702C29.0342 10.9863 28.9184 14.5484 28.5868 18.0937C28.5868 18.3737 28.4134 18.627 28.5068 18.6537C28.4636 18.7503 28.4555 18.859 28.4841 18.9609C28.5126 19.0628 28.5759 19.1515 28.6629 19.2117C28.75 19.2719 28.8554 19.2997 28.9608 19.2903C29.0662 19.2809 29.165 19.2349 29.2401 19.1603C29.7201 18.6937 30.4134 8.28035 30.1468 7.16035C29.7868 5.50702 29.0934 5.18702 27.6668 4.65368C22.4801 2.66702 8.77344 3.22702 4.06678 4.90702C3.30113 5.19279 2.6504 5.7219 2.21445 6.41316C1.7785 7.10441 1.58142 7.91962 1.65344 8.73368C1.79478 12.5048 2.31291 16.2523 3.20011 19.9203Z" fill="#DA5001"></path>
  </g>
  <defs>
    <clipPath id="clip0_35_19403">
      <rect width="32" height="32" fill="white"></rect>
    </clipPath>
  </defs>
</svg>
