<?xml version="1.0" encoding="UTF-8"?>
<svg xmlns="http://www.w3.org/2000/svg" width="32" height="32" viewBox="0 0 32 32" fill="none">
  <g clip-path="url(#clip0_35_19409)">
    <path fill-rule="evenodd" clip-rule="evenodd" d="M31.08 10.0395C30.4019 9.42743 29.5348 9.06585 28.6227 9.01491C27.7107 8.96397 26.8087 9.22674 26.0667 9.75953C25.4465 10.3133 24.9742 11.0129 24.6925 11.7951C24.4108 12.5774 24.3286 13.4175 24.4533 14.2395C24.4024 14.3734 24.3253 14.4957 24.2267 14.5995C23.5867 13.9595 23.4667 13.7062 23.1333 13.5062C22.7688 13.3221 22.3713 13.2119 21.964 13.1822C21.5567 13.1524 21.1475 13.2036 20.76 13.3329C20.3936 13.4615 20.089 13.7233 19.9067 14.0662C19.0874 14.4107 18.4166 15.0342 18.0133 15.8262C17.4133 17.2929 18.3467 18.4929 19.16 19.6929C19.5592 20.2873 20.0051 20.8491 20.4933 21.3729C21.8591 22.553 23.479 23.4017 25.2267 23.8529C25.6325 23.8746 26.0375 23.7974 26.4068 23.6278C26.7761 23.4583 27.0987 23.2015 27.3467 22.8795C28.2 21.9062 29.2933 20.4395 28.9333 19.2529C28.32 17.1729 26.4 17.0929 27.1067 18.1462C27.4665 18.535 27.7513 18.9871 27.9467 19.4795C27.9654 19.6119 27.9562 19.7468 27.9198 19.8754C27.8834 20.0041 27.8204 20.1237 27.7351 20.2267C27.6497 20.3296 27.5438 20.4136 27.4241 20.4732C27.3044 20.5328 27.1736 20.5668 27.04 20.5729C25.92 20.6929 22.7067 18.2795 21.7067 16.3329C21.3736 15.8873 21.1333 15.3795 21 14.8395C21 14.0262 22.3333 13.9995 22.8133 14.2262L23.8 15.1329C23.36 15.5729 22.7733 16.1462 23.1733 16.4662C23.2474 16.5356 23.3452 16.5742 23.4467 16.5742C23.5482 16.5742 23.6459 16.5356 23.72 16.4662C23.92 15.9195 25.1333 15.2795 25.4667 14.4529C25.8 13.6262 25.2 12.8262 26.3733 11.3195C26.8198 10.7897 27.455 10.4544 28.1444 10.3847C28.8338 10.315 29.5232 10.5164 30.0667 10.9462C31.2267 12.1729 30.6267 15.1462 28.7333 15.5595C28.0133 15.7329 27.4 15.5595 26.7333 16.0929C26.4129 16.3937 26.1267 16.7291 25.88 17.0929C25.4933 17.6129 25.0267 18.0662 25.5867 18.3062C26.1467 18.5462 26.2 18.1729 26.6133 17.6795C26.8267 17.39 27.0728 17.126 27.3467 16.8929C27.7733 16.5995 28.36 16.8929 29.2 16.6395C29.8212 16.4005 30.3783 16.0204 30.8273 15.5291C31.2763 15.0378 31.605 14.4489 31.7873 13.8088C31.9696 13.1687 32.0006 12.4949 31.8779 11.8408C31.7551 11.1866 31.482 10.57 31.08 10.0395ZM22.12 19.3729C23.1067 20.3195 25.28 21.8795 26.84 21.8262C26.3733 22.3462 25.84 22.8262 25.1867 22.6129C23.1849 21.9466 21.475 20.6088 20.3467 18.8262C19.884 18.3313 19.4854 17.7804 19.16 17.1862C19.0133 16.8972 18.9665 16.5678 19.0268 16.2494C19.0871 15.931 19.2511 15.6415 19.4933 15.4262L19.7067 15.2529C20.0984 16.8411 20.9357 18.2844 22.12 19.4129V19.3729Z" fill="#DA5001"></path>
    <path fill-rule="evenodd" clip-rule="evenodd" d="M16.8267 28.8129C15.4615 29.3407 14.038 29.7033 12.5867 29.8929C11.0933 30.0529 9.92 30.3995 9.13333 30.3862C9.04 30.3862 8.93333 30.2929 8.89333 30.3195C7.09333 26.5862 0.946667 7.0262 0.733333 6.6662C0.695143 6.59727 0.637446 6.54116 0.567482 6.50491C0.497519 6.46865 0.418406 6.45387 0.340073 6.46242C0.261739 6.47096 0.187674 6.50246 0.127173 6.55294C0.0666724 6.60343 0.0224305 6.67066 0 6.7462C0 6.8662 2.96 17.9062 3.29333 19.0395C4.50009 23.1104 5.99726 27.0895 7.77333 30.9462C8.49333 32.2795 10.5733 31.2929 12.7333 30.9462C14.2307 30.6612 15.6927 30.2141 17.0933 29.6129C17.163 29.5544 17.2135 29.4764 17.2382 29.3889C17.263 29.3014 17.2608 29.2084 17.2321 29.1222C17.2033 29.0359 17.1493 28.9603 17.077 28.9051C17.0047 28.8499 16.9175 28.8178 16.8267 28.8129Z" fill="#DA5001"></path>
    <path fill-rule="evenodd" clip-rule="evenodd" d="M1.18667 5.81286C5.08883 4.36232 9.10191 3.22974 13.1867 2.4262C14.4204 2.15188 15.6727 1.96916 16.9333 1.87953C16.76 3.21286 15.8133 7.01286 17.7467 7.21286C19.5872 7.13891 21.3371 6.39436 22.6667 5.11953C23.12 7.15953 22.88 6.2262 23.7333 9.33286C23.773 9.42137 23.8435 9.49244 23.9317 9.53286C24.0198 9.57327 24.1197 9.58026 24.2126 9.55254C24.3056 9.52482 24.3853 9.46427 24.4369 9.38216C24.4886 9.30005 24.5086 9.20198 24.4933 9.1062C24.1198 7.57275 23.8349 6.01907 23.64 4.45286C23.4933 3.4262 18.6533 0.226196 16.5733 0.452863C10.4 0.986196 5 3.43953 0.826667 4.99953C0.718812 5.04727 0.634339 5.1359 0.591831 5.24592C0.549322 5.35594 0.552261 5.47834 0.6 5.5862C0.647739 5.69405 0.736368 5.77852 0.846389 5.82103C0.95641 5.86354 1.07881 5.8606 1.18667 5.81286ZM22.0667 4.31953C21.5067 5.1062 19.16 5.65286 18.0667 5.65286C17.8871 4.4572 17.8113 3.24826 17.84 2.03953C19.3398 2.61744 20.76 3.38357 22.0667 4.31953Z" fill="#DA5001"></path>
    <path fill-rule="evenodd" clip-rule="evenodd" d="M29.7333 23.8795C28.9733 23.8795 29.8533 24.9862 28.52 27.4395L24.6133 25.9062C24.2533 25.7729 24.4533 25.7329 20.2267 28.5062C19.82 27.2844 19.3437 26.0869 18.8 24.9195C18.2533 24.1729 16.36 24.7995 13.68 25.2929C15.6 22.4662 15.9333 22.0529 15.3733 21.5329C14.8133 21.0129 11.88 19.1995 11.5733 18.7329C11.9067 18.5729 12.4933 18.3195 13.08 18.0795C14.7333 17.4262 14.9333 17.5862 15.0533 17.1062C15.1733 16.6262 14.76 14.4395 14.8533 13.6395C15.0133 13.6395 14.7067 13.5462 16.96 14.0395C17.0767 14.0537 17.1942 14.0209 17.2867 13.9484C17.3793 13.8759 17.4392 13.7696 17.4533 13.6529C17.4675 13.5362 17.4347 13.4186 17.3622 13.3261C17.2897 13.2336 17.1834 13.1737 17.0667 13.1595C16.3867 13.0662 14.56 12.1995 14.08 12.9329C13.8496 14.1371 13.8136 15.3705 13.9733 16.5862C12.9652 16.8844 11.9766 17.2451 11.0133 17.6662C10.6133 17.8662 10.1467 17.9329 10.0267 18.4129C9.90667 18.8929 10.4 19.4262 10.8267 19.7462C11.2533 20.0662 13.1333 21.5329 13.9867 22.1729C13.1377 23.2986 12.3498 24.4691 11.6267 25.6795C11.5347 25.8586 11.5124 26.0655 11.5641 26.26C11.6159 26.4546 11.7379 26.6231 11.9067 26.7329C12.5245 26.9713 13.2089 26.9713 13.8267 26.7329C14.64 26.5862 16.7867 26.0929 17.8267 26.0129C18.8933 28.1462 19.16 30.8129 20.3867 30.0129L24.5733 26.9995L28.5733 28.3995C28.6739 28.4377 28.7846 28.44 28.8866 28.406C28.9886 28.372 29.0758 28.3038 29.1333 28.2129C29.8343 26.9983 30.1894 25.6149 30.16 24.2129C30.1467 24.1125 30.0945 24.0214 30.0147 23.9591C29.935 23.8967 29.8339 23.8682 29.7333 23.8795Z" fill="#DA5001"></path>
    <path fill-rule="evenodd" clip-rule="evenodd" d="M13.3333 7.2262C13.4483 7.20144 13.5486 7.13205 13.6124 7.03328C13.6762 6.93451 13.6981 6.81446 13.6733 6.69953C13.6486 6.5846 13.5792 6.48422 13.4804 6.42045C13.3816 6.35669 13.2616 6.33478 13.1467 6.35953C10.382 6.86326 7.73347 7.87114 5.33333 9.33286C5.28431 9.34862 5.23886 9.37388 5.1996 9.4072C5.16034 9.44052 5.12802 9.48125 5.10449 9.52706C5.08097 9.57287 5.0667 9.62287 5.0625 9.67419C5.05829 9.72552 5.06424 9.77717 5.08 9.8262C5.09576 9.87522 5.12102 9.92067 5.15434 9.95993C5.18766 9.9992 5.22839 10.0315 5.2742 10.055C5.32001 10.0786 5.37001 10.0928 5.42133 10.097C5.47266 10.1012 5.52431 10.0953 5.57333 10.0795C9.86667 9.17286 11.3067 7.83953 13.3333 7.2262Z" fill="#DA5001"></path>
    <path fill-rule="evenodd" clip-rule="evenodd" d="M8.41333 13.6795C9.45609 13.5932 10.4735 13.3129 11.4133 12.8529C12.0422 12.459 12.7313 12.1708 13.4533 11.9995C13.5586 11.9813 13.654 11.9265 13.7227 11.8447C13.7915 11.763 13.8292 11.6597 13.8292 11.5529C13.8292 11.4461 13.7915 11.3427 13.7227 11.261C13.654 11.1793 13.5586 11.1244 13.4533 11.1062C12.8618 11.0563 12.2661 11.1104 11.6933 11.2662C10.9097 11.4454 10.1492 11.7138 9.42667 12.0662C9.76 11.9462 7.28 12.9729 7.22667 13.0795C6.93333 13.7729 7.69333 13.8129 8.41333 13.6795Z" fill="#DA5001"></path>
  </g>
  <defs>
    <clipPath id="clip0_35_19409">
      <rect width="32" height="32" fill="white"></rect>
    </clipPath>
  </defs>
</svg>
