<svg width="192" height="88" viewBox="0 0 192 88" fill="none" xmlns="http://www.w3.org/2000/svg">
<rect y="28" width="32" height="32" rx="16" fill="#DA5001"/>
<path d="M15.1538 35.5791C15.4201 34.807 16.5799 34.807 16.8462 35.5791L18.5969 40.6545C18.716 40.9999 19.0577 41.2337 19.4431 41.2337H25.1085C25.9705 41.2337 26.3288 42.2726 25.6315 42.7498L21.0481 45.8866C20.7363 46.1 20.6058 46.4783 20.7249 46.8237L22.4756 51.8991C22.7419 52.6713 21.8037 53.3134 21.1064 52.8361L16.523 49.6994C16.2111 49.4859 15.7889 49.4859 15.477 49.6994L10.8936 52.8361C10.1963 53.3134 9.25806 52.6713 9.52441 51.8991L11.2751 46.8237C11.3942 46.4783 11.2637 46.1 10.9519 45.8866L6.36848 42.7498C5.67116 42.2726 6.02953 41.2337 6.89146 41.2337H12.5569C12.9423 41.2337 13.284 40.9999 13.4031 40.6545L15.1538 35.5791Z" fill="white"/>
<rect x="40" y="28" width="32" height="32" rx="16" fill="#DA5001"/>
<path d="M55.1538 35.5791C55.4201 34.807 56.5799 34.807 56.8462 35.5791L58.5969 40.6545C58.716 40.9999 59.0577 41.2337 59.4431 41.2337H65.1085C65.9705 41.2337 66.3288 42.2726 65.6315 42.7498L61.0481 45.8866C60.7363 46.1 60.6058 46.4783 60.7249 46.8237L62.4756 51.8991C62.7419 52.6713 61.8037 53.3134 61.1064 52.8361L56.523 49.6994C56.2111 49.4859 55.7889 49.4859 55.477 49.6994L50.8936 52.8361C50.1963 53.3134 49.2581 52.6713 49.5244 51.8991L51.2751 46.8237C51.3942 46.4783 51.2637 46.1 50.9519 45.8866L46.3685 42.7498C45.6712 42.2726 46.0295 41.2337 46.8915 41.2337H52.5569C52.9423 41.2337 53.284 40.9999 53.4031 40.6545L55.1538 35.5791Z" fill="white"/>
<rect x="80" y="28" width="32" height="32" rx="16" fill="#DA5001"/>
<path d="M95.1538 35.5791C95.4201 34.807 96.5799 34.807 96.8462 35.5791L98.5969 40.6545C98.716 40.9999 99.0577 41.2337 99.4431 41.2337H105.109C105.97 41.2337 106.329 42.2726 105.632 42.7498L101.048 45.8866C100.736 46.1 100.606 46.4783 100.725 46.8237L102.476 51.8991C102.742 52.6713 101.804 53.3134 101.106 52.8361L96.523 49.6994C96.2111 49.4859 95.7889 49.4859 95.477 49.6994L90.8936 52.8361C90.1963 53.3134 89.2581 52.6713 89.5244 51.8991L91.2751 46.8237C91.3942 46.4783 91.2637 46.1 90.9519 45.8866L86.3685 42.7498C85.6712 42.2726 86.0295 41.2337 86.8915 41.2337H92.5569C92.9423 41.2337 93.284 40.9999 93.4031 40.6545L95.1538 35.5791Z" fill="white"/>
<rect x="120" y="28" width="32" height="32" rx="16" fill="#DA5001"/>
<path d="M135.154 35.5791C135.42 34.807 136.58 34.807 136.846 35.5791L138.597 40.6545C138.716 40.9999 139.058 41.2337 139.443 41.2337H145.109C145.97 41.2337 146.329 42.2726 145.632 42.7498L141.048 45.8866C140.736 46.1 140.606 46.4783 140.725 46.8237L142.476 51.8991C142.742 52.6713 141.804 53.3134 141.106 52.8361L136.523 49.6994C136.211 49.4859 135.789 49.4859 135.477 49.6994L130.894 52.8361C130.196 53.3134 129.258 52.6713 129.524 51.8991L131.275 46.8237C131.394 46.4783 131.264 46.1 130.952 45.8866L126.368 42.7498C125.671 42.2726 126.03 41.2337 126.891 41.2337H132.557C132.942 41.2337 133.284 40.9999 133.403 40.6545L135.154 35.5791Z" fill="white"/>
<rect x="160" y="28" width="32" height="32" rx="16" fill="#DA5001"/>
<path d="M175.154 35.5791C175.42 34.807 176.58 34.807 176.846 35.5791L178.597 40.6545C178.716 40.9999 179.058 41.2337 179.443 41.2337H185.109C185.97 41.2337 186.329 42.2726 185.632 42.7498L181.048 45.8866C180.736 46.1 180.606 46.4783 180.725 46.8237L182.476 51.8991C182.742 52.6713 181.804 53.3134 181.106 52.8361L176.523 49.6994C176.211 49.4859 175.789 49.4859 175.477 49.6994L170.894 52.8361C170.196 53.3134 169.258 52.6713 169.524 51.8991L171.275 46.8237C171.394 46.4783 171.264 46.1 170.952 45.8866L166.368 42.7498C165.671 42.2726 166.03 41.2337 166.891 41.2337H172.557C172.942 41.2337 173.284 40.9999 173.403 40.6545L175.154 35.5791Z" fill="white"/>
</svg>
