<svg width="24" height="24" viewBox="0 0 24 24" fill="none" xmlns="http://www.w3.org/2000/svg">
<path d="M11.1538 3.57913C11.4201 2.80696 12.5799 2.80696 12.8462 3.57913L14.5969 8.65455C14.716 8.99987 15.0577 9.23367 15.4431 9.23367H21.1085C21.9705 9.23367 22.3288 10.2726 21.6315 10.7498L17.0481 13.8866C16.7363 14.1 16.6058 14.4783 16.7249 14.8237L18.4756 19.8991C18.7419 20.6713 17.8037 21.3134 17.1064 20.8361L12.523 17.6994C12.2111 17.4859 11.7889 17.4859 11.477 17.6994L6.8936 20.8361C6.19628 21.3134 5.25806 20.6713 5.52441 19.8991L7.27511 14.8237C7.39423 14.4783 7.26374 14.1 6.95189 13.8866L2.36848 10.7498C1.67116 10.2726 2.02953 9.23367 2.89146 9.23367H8.55687C8.94234 9.23367 9.28397 8.99987 9.40308 8.65455L11.1538 3.57913Z" fill="#DA5001"/>
</svg>
