<?xml version="1.0" encoding="UTF-8"?>
<svg xmlns="http://www.w3.org/2000/svg" width="64" height="28" viewBox="0 0 64 28" fill="none">
  <path d="M15.783 8.34568C15.783 3.59173 12.5329 1.53058 8.18087 1.53058C3.82887 1.53058 0 4.31203 0 8.71137C0 13.1107 2.48765 15.5819 7.59652 15.5819C12.1711 15.5819 15.783 12.7894 15.783 8.34568ZM4.04035 8.47312C4.04035 5.63072 5.89357 4.37851 7.88591 4.37851C10.4125 4.37851 11.737 5.81357 11.737 8.52853C11.737 11.6203 9.61113 12.7229 7.81913 12.7229C5.20904 12.7229 4.04035 11.0662 4.04035 8.47312Z" fill="#CC0000"></path>
  <path d="M23.7857 0.5H23.5854C20.0793 0.505541 18.521 1.8464 18.521 4.50595V5.35368H16.2337V7.70296H18.521V13.0775C17.7976 13.144 17.0184 13.2326 16.384 13.3323V15.3159H24.3534V13.3323C23.719 13.2326 22.9454 13.1384 22.233 13.0775V7.70296H24.8042V5.34814H22.233V4.45608C22.233 3.39226 22.873 2.949 23.9805 2.949C24.4035 2.949 24.8988 3.02103 25.4442 3.13185L25.6668 0.6496C25.0101 0.549867 24.3812 0.505541 23.7857 0.5Z" fill="#CC0000"></path>
  <path d="M25.8115 13.3323L25.7948 13.3379V15.3215H33.753V13.3379C33.113 13.2381 32.345 13.144 31.6327 13.083V7.7085H34.176V5.35368H31.6327V4.46163C31.6327 3.3978 32.2616 2.95455 33.3913 2.95455C33.8031 2.95455 34.304 3.02658 34.8661 3.13739L35.0776 0.655141C34.343 0.544326 33.6473 0.5 33.0017 0.5C29.4957 0.5 27.9263 1.84086 27.9263 4.50595V5.35368H25.639V7.70296H27.9374V13.0775C27.1917 13.1495 26.457 13.2326 25.8115 13.3323Z" fill="#CC0000"></path>
  <path d="M39.0233 4.31203C40.2755 4.31203 41.2995 3.492 41.2995 2.50575C41.2995 1.5195 40.281 0.699466 39.0233 0.699466C37.7656 0.699466 36.7583 1.49179 36.7583 2.50575C36.7583 3.5197 37.7823 4.31203 39.0233 4.31203Z" fill="#CC0000"></path>
  <path d="M35.0386 13.3323V15.3215H42.8355V13.3379C42.279 13.2381 41.5555 13.144 40.8821 13.083V5.3426C38.823 5.27611 36.8028 5.34814 35.0442 5.51991V7.48687C35.751 7.50903 36.5913 7.59768 37.1534 7.66971V13.0775C36.4299 13.1495 35.6786 13.2326 35.0386 13.3323Z" fill="#CC0000"></path>
  <path d="M48.7513 15.5099L48.7569 15.5209C50.0536 15.5209 51.0609 15.3824 52.1628 15.1275L51.9068 12.4846C51.2 12.745 50.343 12.878 49.5805 12.878C47.4101 12.878 46.5697 11.9859 46.5697 10.2849C46.5697 8.57839 47.4936 7.70296 48.7847 7.70296C49.0184 7.70296 49.2689 7.70295 49.447 7.76944C49.5137 8.10743 49.575 8.4842 49.6696 8.88867H52.057V5.47004C51.1889 5.26503 50.1816 5.14868 49.2744 5.14868C44.6386 5.14868 42.7019 7.63647 42.7019 10.6395C42.713 13.8643 44.8501 15.5099 48.7513 15.5099Z" fill="#CC0000"></path>
  <path d="M64 9.75857C64 7.1378 62.3916 5.10989 58.7297 5.10989C55.0678 5.10989 52.8974 7.38159 52.8974 10.4401C52.8974 13.9307 55.0901 15.5486 59.0859 15.5486C60.5774 15.5486 62.208 15.3159 63.5715 14.856L63.2376 12.5456C62.1078 12.9611 60.8668 13.1717 59.6703 13.1717C57.6668 13.1717 56.704 12.4181 56.665 11.0828H63.8943C63.961 10.6008 64 10.1686 64 9.75857ZM56.6984 9.06044C56.793 8.0354 57.5666 7.34835 58.6351 7.34835C59.7037 7.34835 60.3993 7.95229 60.3548 9.06044H56.6984Z" fill="#CC0000"></path>
  <path d="M8.66504 17.028L8.67061 17.0225C6.72835 17.0225 4.85843 17.0723 3.75652 17.0723H2.09809V18.9119C2.60452 18.9839 3.23339 19.0559 3.84556 19.067V25.3003C3.23339 25.3225 2.60452 25.4056 2.09809 25.5053V27.295H3.84556C4.34087 27.295 6.656 27.3892 8.09183 27.3892C12.4605 27.3892 15.3489 25.4333 15.3489 21.9537C15.3489 18.2525 12.5997 17.028 8.66504 17.028ZM8.39791 24.9346C7.96383 24.9346 7.6967 24.9346 7.54643 24.9014V19.4327C7.81913 19.3884 8.04174 19.3884 8.47026 19.3884C10.9412 19.3884 11.3586 20.563 11.3586 22.1476C11.3586 24.0703 10.0452 24.9346 8.39791 24.9346Z" fill="#CC0000"></path>
  <path d="M22.1162 25.051H20.6859V23.0619H21.888C21.9325 23.2392 21.9437 23.289 22.016 23.4553H24.4591V20.6794H22.016C21.9437 20.8733 21.927 20.901 21.888 21.1005H20.6859V19.2942H22.105C22.1496 19.5047 22.1663 19.61 22.233 19.8649H25.1047V17.0668H15.2543V18.9063C15.7607 18.9784 16.384 19.0504 16.985 19.0615V25.2948C16.384 25.3169 15.7607 25.3945 15.2543 25.4998V27.2895H25.1715V24.4249H22.2497C22.1941 24.7019 22.1718 24.7684 22.1162 25.051Z" fill="#CC0000"></path>
  <path d="M31.9777 17.0058C30.5141 17.0058 28.5384 17.0723 27.8984 17.0723H26.1955V18.9119C26.7242 18.9839 27.3252 19.0559 27.9207 19.067V25.3003C27.3308 25.3225 26.7242 25.4001 26.1955 25.5053V27.295H33.3635V25.5053C32.8348 25.4001 32.2282 25.328 31.6216 25.3003V24.1423C31.8831 24.1534 32.1057 24.1534 32.1948 24.1534C35.8066 24.1534 37.5318 22.3914 37.5318 20.4134C37.5318 18.1805 35.584 17.0058 31.9777 17.0058ZM31.9332 22.131C31.8664 22.131 31.783 22.131 31.6216 22.0978V19.3219C31.7941 19.2997 31.9555 19.2997 32.0056 19.2997C33.3635 19.2997 33.8476 19.9314 33.8476 20.6517C33.8532 21.6157 32.9405 22.131 31.9332 22.131Z" fill="#CC0000"></path>
  <path d="M44.8779 16.8673C41.0991 16.8673 38.0383 19.0504 38.0383 22.336C38.0383 25.6106 40.0974 27.4889 44.288 27.5H44.3603C48.1725 27.4889 51.161 25.3336 51.161 22.0091C51.161 18.3079 48.3729 16.8673 44.8779 16.8673ZM44.5162 24.9291C42.7353 24.9291 41.9896 23.8708 41.9896 22.1255C41.9896 20.1918 43.303 19.4438 44.5885 19.4438C46.3638 19.4438 47.2209 20.358 47.2209 22.1587C47.2209 24.3307 45.6793 24.9291 44.5162 24.9291Z" fill="#CC0000"></path>
  <path d="M51.4783 20.4577H54.311C54.3777 20.1308 54.4723 19.7818 54.4946 19.4161H55.552V25.3114C54.951 25.3336 54.3277 25.4111 53.8101 25.5164V27.3061H60.967V25.5164C60.4494 25.4111 59.8428 25.3391 59.2417 25.3114V19.4105H60.2824C60.3214 19.7818 60.3993 20.1253 60.4661 20.4522H63.3043V17.0668H51.4783V20.4577Z" fill="#CC0000"></path>
  <path d="M62.3416 25.6826H62.336C61.9409 25.6826 61.6125 26.0206 61.6125 26.4362C61.6125 26.8684 61.9464 27.1897 62.336 27.1897C62.759 27.1897 63.0539 26.8739 63.0539 26.4362C63.0539 25.9985 62.7534 25.6826 62.3416 25.6826ZM62.336 27.0734L62.3416 27.0789C62.0243 27.0789 61.7572 26.7797 61.7572 26.4362C61.7572 26.0927 62.0243 25.799 62.336 25.799C62.6699 25.799 62.9259 26.076 62.9259 26.4417C62.9259 26.7852 62.6699 27.0734 62.336 27.0734Z" fill="#CC0000"></path>
  <path d="M62.4863 26.4583V26.4528C62.5753 26.4306 62.6421 26.3752 62.6421 26.2533C62.6421 26.1702 62.6087 26.1093 62.5753 26.0816C62.5196 26.0372 62.4417 26.0095 62.3193 26.0095C62.2191 26.0095 62.1579 26.0206 62.0856 26.0262V26.8684H62.2136V26.5027H62.2915C62.3972 26.5027 62.4584 26.5525 62.4807 26.6578C62.4918 26.7631 62.5029 26.8407 62.5252 26.8684H62.6699C62.6699 26.8684 62.6421 26.7852 62.6143 26.6633C62.5976 26.5359 62.553 26.4583 62.4863 26.4583ZM62.3082 26.4306V26.4251H62.2191V26.137C62.2191 26.137 62.2692 26.137 62.3082 26.137C62.4584 26.137 62.5141 26.2035 62.5141 26.2866C62.5085 26.3808 62.425 26.4306 62.3082 26.4306Z" fill="#CC0000"></path>
</svg>
