<?xml version="1.0" encoding="UTF-8"?>
<svg xmlns="http://www.w3.org/2000/svg" width="116" height="14" viewBox="0 0 116 14" fill="none">
  <path d="M75.1191 6.2771C75.7081 5.53175 75.9528 4.79538 75.9528 3.96921C75.9528 1.96665 74.3034 0.332264 72.2825 0.332264H65.9388V13.56H72.8625C75.1191 13.56 76.9497 11.737 76.9497 9.50994C76.9497 8.11802 76.2881 6.94163 75.1191 6.2771ZM69.3644 3.22386H71.4487C72.0922 3.22386 72.6178 3.73573 72.6178 4.3823C72.6178 5.01988 72.1012 5.54073 71.4487 5.54073H69.3644V3.22386ZM72.1012 10.5876H69.3462V8.10006H72.1012C72.7991 8.10006 73.3519 8.65683 73.3519 9.33932C73.3609 10.0218 72.7991 10.5876 72.1012 10.5876Z" fill="#222222"></path>
  <path d="M85.7947 0C81.9522 0 78.7894 2.97242 78.7894 6.94163C78.7894 10.9108 81.9522 13.8833 85.7947 13.8833C89.6372 13.8833 92.8 10.9108 92.8 6.94163C92.8091 2.97242 89.6372 0 85.7947 0ZM85.7947 10.5876C83.7919 10.5876 82.3691 8.92623 82.3691 6.95061C82.3691 4.966 83.7919 3.31366 85.7947 3.31366C87.7975 3.31366 89.2203 4.97498 89.2203 6.95061C89.2203 8.92623 87.7975 10.5876 85.7947 10.5876Z" fill="#222222"></path>
  <path d="M97.9747 4.13983C97.9747 3.65491 98.6453 3.23284 99.6422 3.23284C100.974 3.23284 101.727 3.89737 101.727 3.89737L103.648 1.32906C103.648 1.32906 101.971 0.00898011 99.3069 0.00898011C96.7966 0.00898011 94.6306 1.83194 94.6306 4.13983C94.6397 8.09108 100.648 8.26171 100.648 9.7524C100.648 10.2463 100.15 10.6594 99.3159 10.6594C97.4762 10.6594 96.3163 9.42014 96.3163 9.42014L94.3134 12.0693C94.3134 12.0693 95.99 13.8922 99.3159 13.8922C101.989 13.8922 104.318 12.2309 104.318 9.76138C104.318 5.80115 97.9747 5.46889 97.9747 4.13983Z" fill="#222222"></path>
  <path d="M109.656 4.13983C109.656 3.65491 110.327 3.23284 111.324 3.23284C112.656 3.23284 113.408 3.89737 113.408 3.89737L115.329 1.32906C115.329 1.32906 113.662 0.00898011 110.998 0.00898011C108.487 0.00898011 106.321 1.83194 106.321 4.13983C106.321 8.09108 112.33 8.26171 112.33 9.7524C112.33 10.2463 111.831 10.6594 110.998 10.6594C109.158 10.6594 107.998 9.42014 107.998 9.42014L105.995 12.0693C105.995 12.0693 107.663 13.8922 110.998 13.8922C113.671 13.8922 116 12.2309 116 9.76138C116 5.80115 109.656 5.46889 109.656 4.13983Z" fill="#222222"></path>
  <path d="M51.33 0.134702C47.4966 0.134702 44.3337 3.10712 44.3337 7.06735C44.3337 11.0276 47.2791 13.7935 50.9313 13.991C51.0581 14 51.1941 14 51.33 14C51.4659 14 51.5928 14 51.7288 13.991C55.3809 13.7935 58.3262 10.8929 58.3262 7.06735C58.3262 3.24182 55.1634 0.134702 51.33 0.134702ZM51.33 10.6953C49.3272 10.6953 47.9225 9.04298 47.9225 7.05837C47.9225 5.07377 49.3362 3.42142 51.33 3.42142C53.3328 3.42142 54.7375 5.07377 54.7375 7.05837C54.7375 9.04298 53.3328 10.6953 51.33 10.6953Z" fill="#222222"></path>
  <path d="M8.32844 5.41501H3.66125V0.457986H0V13.6677H3.67031V8.37845H8.3375V13.6677H12.0078V0.457986H8.32844V5.41501Z" fill="#222222"></path>
  <path d="M23.5081 8.38743C23.5081 10.0398 22.1669 10.6953 21.17 10.6953C20.1731 10.6953 18.8409 10.0398 18.8409 8.38743V0.457986H15.1706V8.05516C15.1706 11.8538 17.9256 13.8294 20.7984 13.982C20.9253 13.991 21.0522 13.991 21.17 13.991C21.2969 13.991 21.4328 13.991 21.5687 13.982C24.4325 13.8204 27.1694 11.8358 27.1694 8.05516V0.457986H23.5081V8.38743Z" fill="#222222"></path>
  <path d="M36.1594 8.37845H38.9959V10.0308C38.9959 10.0308 38.1622 10.6953 36.4947 10.6953C34.4919 10.6953 33.0872 9.04298 33.0872 7.05837C33.0872 5.07377 34.5009 3.3406 36.4947 3.3406C37.99 3.3406 38.7422 4.00513 38.7422 4.00513L40.8266 1.43682C40.8266 1.43682 39.1681 0.116742 36.4947 0.116742C32.6612 0.116742 29.4984 3.08916 29.4984 7.04939C29.4984 11.0096 32.4528 13.7755 36.105 13.9731C36.2319 13.982 36.3678 13.982 36.5037 13.982C36.6578 13.982 36.8028 13.982 36.9478 13.9731C40.4822 13.8024 42.1587 11.6741 42.1587 11.6741V5.47787H36.1594V8.37845Z" fill="#222222"></path>
</svg>
