<?xml version="1.0" encoding="UTF-8"?>
<svg xmlns="http://www.w3.org/2000/svg" width="120" height="22" viewBox="0 0 120 22" fill="none">
  <path d="M37.4625 4.00319H34.2844V18.0064H43.3594V15.1828H37.4625V4.00319Z" fill="#0A1D3D"></path>
  <path d="M11.8594 8.53054C11.0344 10.3396 9.75938 11.3637 8.33438 11.3637C7.6875 11.3637 6.98438 11.1244 6.05625 10.6076L4.95938 9.98541L5.16563 9.8227L7.275 10.7607L7.54688 10.5406L3.44063 8.61668L3.00938 8.96126L1.75312 8.41568L1.7625 8.90383C3.61875 9.74613 4.45312 10.2247 6.83438 11.871C9.30938 13.5843 12.2344 14.8286 15.0188 15.3646L15.6938 14.6946H15.5156C13.5844 14.6946 11.5969 13.8523 10.3781 12.5219C11.6531 11.7274 12.8906 11.3829 14.4563 11.3829C15.0656 11.3829 15.75 11.4211 16.3125 11.4977L16.7344 11.0861C15.9375 10.9617 15.1031 10.9043 14.2219 10.9043C13.6031 10.9043 13.0875 10.9234 12.6188 10.9809C12.6844 10.9139 12.8906 10.6746 12.975 10.5884C13.3313 10.5693 13.725 10.5597 14.0813 10.5597C15.0656 10.5597 16.1625 10.6459 17.0531 10.7799L17.475 10.3683C16.2938 10.1768 15.2063 10.0907 14.0438 10.0907C13.7063 10.0907 13.4625 10.0907 13.3406 10.1003C13.4531 9.96627 13.5656 9.81313 13.6125 9.73655C13.6594 9.73655 13.7063 9.73655 13.9125 9.73655C15.3281 9.73655 16.4344 9.83227 17.7656 10.0716L18.1875 9.65998C16.7062 9.39198 15.375 9.26755 13.9031 9.26755C13.9969 9.1144 14.0625 9.00912 14.1 8.93254C14.1375 8.93254 14.2031 8.92297 14.2781 8.92297C15.4875 8.92297 17.3812 9.1144 18.4969 9.35369L18.9375 8.92297C17.1469 8.5784 15.5625 8.42525 13.9313 8.42525C13.1344 8.41568 12.4781 8.45397 11.8594 8.53054Z" fill="#0A1D3D"></path>
  <path d="M50.4844 13.68C50.4844 15.0201 49.8188 15.6231 48.7406 15.6231C47.55 15.6231 46.9781 15.0201 46.9781 13.68V7.91796H44.0156V13.8236C44.0156 17.1449 45.3281 18.3031 47.8594 18.3031C49.4062 18.3031 50.25 17.6235 50.6625 16.8386V17.9968H53.4469V7.91796H50.4844V13.68Z" fill="#0A1D3D"></path>
  <path d="M10.2844 0.5C4.59375 0.5 0 5.19006 0 11C0 16.8099 4.59375 21.5 10.2844 21.5C15.975 21.5 20.5688 16.8099 20.5688 11C20.5688 5.19006 15.975 0.5 10.2844 0.5ZM10.2844 20.8683C4.95 20.8683 0.61875 16.4462 0.61875 11C0.61875 5.55378 4.95 1.13172 10.2844 1.13172C15.6187 1.13172 19.95 5.55378 19.95 11C19.95 16.4462 15.6281 20.8683 10.2844 20.8683Z" fill="#0A1D3D"></path>
  <path d="M55.7156 7.54467V7.92753H54.225V10.3874H55.7156V18.0064H58.6781V10.3874H60.8531V7.91796H58.6781V7.52552C58.6781 6.64494 59.1656 6.32908 60.0937 6.32908C60.45 6.32908 60.8625 6.36737 60.8625 6.36737V3.91705C60.8625 3.91705 60.375 3.79262 59.6063 3.79262C57.225 3.80219 55.7156 5.10392 55.7156 7.54467Z" fill="#0A1D3D"></path>
  <path d="M84.5813 7.62124C81.6656 7.62124 80.25 8.76026 80.1375 10.9043H83.0156C83.0531 10.3396 83.3719 9.92799 84.5813 9.92799C85.6594 9.92799 86.1656 10.2917 86.1656 10.8277C86.1656 11.3063 85.875 11.4882 85.1438 11.5647L83.2594 11.7657C80.7094 12.0433 79.5563 13.1249 79.5563 15.0871C79.5563 16.9057 80.6531 18.3031 82.9875 18.3031C84.5719 18.3031 85.5187 17.7862 86.3344 16.7429V18.0064H89.0344V11.3829C89.0531 8.59754 87.4594 7.62124 84.5813 7.62124ZM86.2313 14.082C86.2313 15.1828 85.2094 16.0059 83.6438 16.0059C82.875 16.0059 82.425 15.6422 82.425 14.9626C82.425 14.4458 82.7438 14.0055 83.7375 13.8619L85.4437 13.6226C85.7344 13.5843 86.0531 13.5269 86.2313 13.4599V14.082Z" fill="#0A1D3D"></path>
  <path d="M115.528 7.62124C112.613 7.62124 111.197 8.76026 111.084 10.9043H113.963C114 10.3396 114.319 9.92799 115.528 9.92799C116.606 9.92799 117.112 10.2917 117.112 10.8277C117.112 11.3063 116.822 11.4882 116.091 11.5647L114.206 11.7657C111.656 12.0433 110.503 13.1249 110.503 15.0871C110.503 16.9057 111.6 18.3031 113.934 18.3031C115.519 18.3031 116.466 17.7862 117.281 16.7429V18.0064H120V11.3829C120 8.59754 118.416 7.62124 115.528 7.62124ZM117.178 14.082C117.178 15.1828 116.156 16.0059 114.591 16.0059C113.822 16.0059 113.381 15.6422 113.381 14.9626C113.381 14.4458 113.691 14.0055 114.694 13.8619L116.4 13.6226C116.691 13.5843 117.009 13.5269 117.188 13.4599V14.082H117.178Z" fill="#0A1D3D"></path>
  <path d="M106.013 11.6796L104.972 11.536C104.128 11.4116 103.894 11.1723 103.894 10.732C103.894 10.2917 104.269 9.94713 105.244 9.94713C106.219 9.94713 106.556 10.3108 106.65 10.8851H109.528C109.388 8.70283 107.944 7.6021 105.234 7.6021C102.319 7.6021 100.922 9.01869 100.922 10.9426C100.922 12.8665 102.178 13.8045 104.353 14.1012L105.394 14.2448C106.416 14.3883 106.8 14.6276 106.8 15.1445C106.8 15.7092 106.331 15.9868 105.178 15.9868C104.025 15.9868 103.528 15.6231 103.453 14.8861H100.537C100.594 16.9057 101.794 18.284 105.178 18.284C108.291 18.284 109.763 17.0205 109.763 14.9052C109.772 12.7995 108.516 12.0242 106.013 11.6796Z" fill="#0A1D3D"></path>
  <path d="M95.8969 7.62124C94.3125 7.62124 93.4688 8.30082 93.0563 9.08569V7.91796H90.2719V17.9968H93.2344V12.2347C93.2344 10.8947 93.9 10.2917 95.0156 10.2917C96.2531 10.2917 96.8156 10.8947 96.8156 12.2347V17.9968H99.7781V12.0912C99.7687 8.7794 98.4562 7.62124 95.8969 7.62124Z" fill="#0A1D3D"></path>
  <path d="M66.0656 4.97949H63.1031V7.91796H61.6125V10.3778H63.1031V14.6372C63.1031 17.0779 64.5375 18.1787 66.9 18.1787C67.6219 18.1787 68.3063 18.016 68.3063 18.016V15.5943C68.3063 15.5943 67.8187 15.6518 67.4625 15.6518C66.6 15.6518 66.0469 15.3742 66.0469 14.2926V10.3683H68.2969V7.91796H66.0469V4.97949H66.0656Z" fill="#0A1D3D"></path>
  <path d="M74.8687 7.62124C73.4812 7.62124 72.675 8.16682 72.1687 8.90383V4.02233H69.1875V18.0064H72.15V12.2443C72.15 10.9043 72.8156 10.3013 73.9312 10.3013C75.1687 10.3013 75.7312 10.9043 75.7312 12.2443V18.0064H78.6937V12.1007C78.6844 8.7794 77.3719 7.62124 74.8687 7.62124Z" fill="#0A1D3D"></path>
</svg>
