<?xml version="1.0" encoding="UTF-8"?>
<svg xmlns="http://www.w3.org/2000/svg" width="66" height="26" viewBox="0 0 66 26" fill="none">
  <path d="M8.90749 5.66838C4.32071 5.66838 0.5 7.60882 0.5 13.4684C0.5 18.114 3.0663 21.0294 9.0224 21.0294C16.0318 21.0294 16.4819 16.4221 16.4819 16.4221H13.0825C13.0825 16.4221 12.3547 18.9074 8.81173 18.9074C5.92944 18.9074 3.8515 16.9669 3.8515 14.2331H16.8266V12.5221C16.8362 9.82647 15.1221 5.66838 8.90749 5.66838ZM8.783 7.85735C11.5312 7.85735 13.3985 9.53971 13.3985 12.0537H3.92811C3.92811 9.38676 6.3795 7.85735 8.783 7.85735Z" fill="#E53238"></path>
  <path d="M16.8362 0V18.0949C16.8362 19.1176 16.7596 20.561 16.7596 20.561H19.9961C19.9961 20.561 20.1111 19.5287 20.1111 18.5824C20.1111 18.5824 21.7102 21.0772 26.0672 21.0772C30.6539 21.0772 33.766 17.9037 33.766 13.3537C33.766 9.11912 30.9029 5.71618 26.0767 5.71618C21.557 5.71618 20.1494 8.15368 20.1494 8.15368V0H16.8362ZM25.2436 7.95294C28.3558 7.95294 30.3379 10.2566 30.3379 13.3537C30.3379 16.6706 28.0493 18.8404 25.2724 18.8404C21.9496 18.8404 20.1589 16.25 20.1589 13.3824C20.1494 10.7059 21.7581 7.95294 25.2436 7.95294Z" fill="#1D428A"></path>
  <path d="M41.8097 5.66838C34.9151 5.66838 34.4651 9.43456 34.4651 10.0368H37.9028C37.9028 10.0368 38.0847 7.83823 41.5703 7.83823C43.8397 7.83823 45.5921 8.87059 45.5921 10.8684V11.5757H41.5703C36.227 11.5757 33.4022 13.1338 33.4022 16.3074C33.4022 19.4809 36.0163 21.125 39.5498 21.125C44.3568 21.125 45.9081 18.4772 45.9081 18.4772C45.9081 19.5287 45.9847 20.5706 45.9847 20.5706H49.0393C49.0393 20.5706 48.9244 19.2801 48.9244 18.4581V11.3368C48.9148 6.65294 45.142 5.66838 41.8097 5.66838ZM45.6016 13.7074V14.6537C45.6016 15.8868 44.8356 18.9551 40.3541 18.9551C37.8932 18.9551 36.8399 17.7316 36.8399 16.3074C36.8399 13.7265 40.3924 13.7074 45.6016 13.7074Z" fill="#FFC72C"></path>
  <path d="M47.0667 6.26103H50.9257L56.4701 17.3493L62.0049 6.26103H65.5L55.4263 26H51.7588L54.6699 20.4941L47.0667 6.26103Z" fill="#86B817"></path>
</svg>
