<?xml version="1.0" encoding="UTF-8"?>
<svg xmlns="http://www.w3.org/2000/svg" width="36" height="36" viewBox="0 0 36 36" fill="none">
  <path d="M10.2514 25.9333L10.9125 25.9139V23.2014H10.2514V25.9333Z" fill="#1D428A"></path>
  <path d="M10.9028 14.2278H10.2514V15.1708H10.9028V14.2278Z" fill="#1D428A"></path>
  <path d="M10.2417 31.1931C10.4556 31.3194 10.6792 31.4458 10.9028 31.5625V28.1597L12.3028 28.6361C12.3708 29.9972 12.4389 31.2417 12.5069 32.2917C14.2181 32.9431 16.0653 33.3125 18 33.3125C22.3264 33.3125 26.225 31.5139 29.0153 28.6361L10.2417 27.9847V31.1931Z" fill="#1D428A"></path>
  <path d="M10.9028 16.0458H10.2514V16.9889H10.9028V16.0458Z" fill="#1D428A"></path>
  <path d="M10.9028 20.5083H10.2417V22.3264H10.9028V20.5083Z" fill="#1D428A"></path>
  <path d="M10.9028 17.8639H10.2514V19.6333H10.9028V17.8639Z" fill="#1D428A"></path>
  <path d="M7.01389 26.0403L9.02639 18.35C9.06528 16.6097 9.075 14.9764 9.08472 13.625L5.59444 26.0889L7.01389 26.0403Z" fill="#1D428A"></path>
  <path d="M2.95972 20.8389C3.13472 21.7917 3.40694 22.7153 3.75694 23.6L5.26389 18.525C4.32083 19.6625 3.52361 20.3917 2.95972 20.8389Z" fill="#1D428A"></path>
  <path d="M8.77361 25.9819C8.87083 24.1542 8.93889 22.2097 8.9875 20.3139L7.49028 26.0208L8.77361 25.9819Z" fill="#1D428A"></path>
  <path d="M18 0.5C8.33611 0.5 0.5 8.33611 0.5 18C0.5 27.6639 8.33611 35.5 18 35.5C27.6639 35.5 35.5 27.6639 35.5 18C35.5 8.33611 27.6639 0.5 18 0.5ZM18 34.2069C9.05556 34.2069 1.80278 26.9444 1.80278 18C1.80278 9.05556 9.05556 1.80278 18 1.80278C26.9444 1.80278 34.1972 9.05556 34.1972 18.0097C34.2069 26.9444 26.9542 34.2069 18 34.2069Z" fill="#1D428A"></path>
  <path d="M8.50139 29.9972C8.55972 29.3458 8.60833 28.6458 8.65694 27.9167L6.275 27.8292C6.94583 28.6264 7.69444 29.3556 8.50139 29.9972Z" fill="#1D428A"></path>
  <path d="M6.02222 17.5625L4.02917 24.2708C4.31111 24.9125 4.64167 25.525 5.01111 26.1083H5.10833L8.64722 13.4597C7.72361 15.1319 6.82917 16.4833 6.02222 17.5625Z" fill="#1D428A"></path>
  <path d="M10.9028 12.7597H10.2514V13.3528H10.9028V12.7597Z" fill="#1D428A"></path>
  <path d="M12.2639 26.9833L30.1333 27.3333C30.2403 27.1972 30.3472 27.0514 30.4444 26.9153L12.2639 26.8083C12.2639 26.8667 12.2639 26.925 12.2639 26.9833Z" fill="#1D428A"></path>
  <path d="M13.4208 25.8264L11.9819 20.6931C12.0403 22.4139 12.1083 24.1833 12.1764 25.875L13.4208 25.8264Z" fill="#1D428A"></path>
  <path d="M12.1861 13.2944L15.6764 25.7583L17.2611 25.7097L14.3931 15.4431C13.6153 14.7528 12.8764 14.0431 12.1861 13.2944Z" fill="#1D428A"></path>
  <path d="M18 2.69722C9.55139 2.69722 2.69722 9.55139 2.69722 18C2.69722 18.7097 2.74583 19.4 2.84306 20.0806C5.38056 18.2722 8.76389 12.4194 9.075 11.875C9.06528 11.3694 9.06528 10.9514 9.05556 10.6306L9.44445 10.4167L9.43472 10.0278L10.2611 9.83333V10.9125H10.9125V9.89167L11.6806 10.0764C11.6806 10.0764 11.7 10.7472 11.7292 11.875L11.7389 11.8847C11.7486 11.8944 11.7486 11.9042 11.7583 11.9139C16.3861 17.5819 26.0208 22.3944 31.9806 24.2806C32.8458 22.3653 33.3222 20.2458 33.3222 18.0097C33.3125 9.55139 26.4583 2.69722 18 2.69722Z" fill="#1D428A"></path>
  <path d="M15.0153 15.9778L17.7375 25.6903L19.2153 25.6417L16.9306 17.4944C16.2694 16.9986 15.6375 16.4931 15.0153 15.9778Z" fill="#1D428A"></path>
  <path d="M11.9139 18.5542L11.9528 18.7C11.9528 18.7681 11.9625 18.8458 11.9625 18.9139L13.8972 25.8167L15.2194 25.7681L11.7972 13.5569C11.7972 13.5569 11.7972 13.5667 11.7972 13.5764L11.7681 13.4597C11.7972 14.8792 11.8458 16.6486 11.9139 18.5542Z" fill="#1D428A"></path>
  <path d="M29.7931 25.2917L31.3583 25.2431C30.9306 25.0972 30.3278 24.8736 29.5889 24.5722L29.7931 25.2917Z" fill="#1D428A"></path>
  <path d="M17.5139 17.9222L19.6722 25.6222L21.1792 25.5736L19.4 19.2153C18.7681 18.8069 18.1361 18.3694 17.5139 17.9222Z" fill="#1D428A"></path>
  <path d="M29.3264 25.3014L29.0542 24.3389C28.5 24.1056 27.8778 23.8333 27.2069 23.5222L27.7222 25.35L29.3264 25.3014Z" fill="#1D428A"></path>
  <path d="M24.7861 22.3361L25.6514 25.4278L27.2556 25.3792L26.6722 23.2792C26.0694 22.9875 25.4375 22.6764 24.7861 22.3361Z" fill="#1D428A"></path>
  <path d="M19.9736 19.5847L21.6458 25.5639L23.1042 25.5153L21.7528 20.6736C21.1597 20.3236 20.5667 19.9639 19.9736 19.5847Z" fill="#1D428A"></path>
  <path d="M22.3167 20.9944L23.5806 25.4958L25.1944 25.4375L24.2417 22.0444C23.6097 21.7236 22.9681 21.3639 22.3167 20.9944Z" fill="#1D428A"></path>
  <path d="M18 1.79306C9.05556 1.79306 1.80278 9.05556 1.80278 18C1.80278 26.9444 9.05556 34.2069 18.0097 34.2069C26.9542 34.2069 34.2069 26.9542 34.2069 18C34.2069 9.05556 26.9542 1.79306 18 1.79306ZM2.95972 20.8389C3.52361 20.3917 4.32083 19.6528 5.26389 18.525L3.75694 23.6097C3.40694 22.7153 3.14444 21.8014 2.95972 20.8389ZM5.02083 26.1083C4.65139 25.525 4.33056 24.9028 4.03889 24.2708L6.03194 17.5625C6.83889 16.4931 7.72361 15.1417 8.66667 13.45L5.11806 26.0986L5.02083 26.1083ZM8.50139 29.9972C7.68472 29.3556 6.93611 28.6264 6.275 27.8292L8.65694 27.9167C8.61806 28.6556 8.55972 29.3458 8.50139 29.9972ZM8.77361 25.9819L7.49028 26.0208L8.9875 20.3139C8.93889 22.2097 8.86111 24.1542 8.77361 25.9819ZM9.02639 18.35L7.01389 26.0403L5.59444 26.0889L9.075 13.625C9.075 14.9764 9.05556 16.6097 9.02639 18.35ZM18 33.3028C16.0653 33.3028 14.2083 32.9431 12.5069 32.2819C12.4389 31.2417 12.3708 29.9875 12.3028 28.6264L10.9028 28.15V31.5528C10.6792 31.4361 10.4653 31.3097 10.2417 31.1833V27.9653L29.0153 28.6167C26.2347 31.5139 22.3264 33.3028 18 33.3028ZM10.9028 14.2278V15.1708H10.2514V14.2278H10.9028ZM10.2514 13.3528V12.7597H10.9028V13.3528H10.2514ZM10.9028 16.0458V16.9889H10.2514V16.0458H10.9028ZM10.9028 17.8639V19.6333H10.2514V17.8639H10.9028ZM10.9028 20.4986V22.3167H10.2417V20.4986H10.9028ZM10.9028 25.9042L10.2417 25.9236V23.1819H10.9028V25.9042ZM11.7875 13.5569L15.2097 25.7681L13.8875 25.8167L11.9528 18.9139C11.9528 18.8458 11.9431 18.7778 11.9431 18.7L11.9042 18.5542C11.8458 16.6486 11.7875 14.8792 11.7486 13.4597L11.7778 13.5764C11.7972 13.5764 11.7972 13.5667 11.7875 13.5569ZM27.2556 25.3694L25.6514 25.4278L24.7861 22.3361C25.4375 22.6764 26.0694 22.9875 26.6722 23.2694L27.2556 25.3694ZM27.2167 23.5222C27.8778 23.8333 28.5 24.1056 29.0639 24.3389L29.3361 25.3014L27.7417 25.35L27.2167 23.5222ZM25.1847 25.4375L23.5708 25.4958L22.3167 20.9944C22.9681 21.3639 23.6097 21.7139 24.2319 22.0444L25.1847 25.4375ZM23.1042 25.5056L21.6458 25.5542L19.9736 19.575C20.5667 19.9542 21.1597 20.3139 21.7528 20.6542L23.1042 25.5056ZM21.1792 25.5736L19.6722 25.6222L17.5139 17.9222C18.1361 18.3694 18.7583 18.7972 19.3903 19.2153L21.1792 25.5736ZM19.2056 25.6319L17.7278 25.6806L15.0056 15.9681C15.6278 16.4931 16.2694 16.9986 16.9208 17.4847L19.2056 25.6319ZM17.2611 25.7L15.6764 25.7486L12.1861 13.2847C12.8764 14.0236 13.6153 14.7431 14.3833 15.4236L17.2611 25.7ZM13.4208 25.8264L12.1764 25.8653C12.1083 24.1736 12.0403 22.4042 11.9819 20.6833L13.4208 25.8264ZM30.1333 27.3236L12.2639 26.9736C12.2639 26.9153 12.2542 26.8569 12.2542 26.7986L30.4347 26.8958C30.3375 27.0514 30.2403 27.1875 30.1333 27.3236ZM29.7931 25.2819L29.5889 24.5625C30.3278 24.8639 30.9208 25.0875 31.3583 25.2333L29.7931 25.2819ZM11.7486 11.9042C11.7389 11.8944 11.7389 11.8847 11.7292 11.875L11.7194 11.8653C11.6903 10.7375 11.6708 10.0667 11.6708 10.0667L10.9028 9.89167V10.9222H10.2514V9.84306L9.43472 10.0375L9.44445 10.4264L9.05556 10.6403C9.06528 10.9611 9.075 11.3792 9.075 11.8847C8.76389 12.4292 5.38056 18.2722 2.84306 20.0903C2.74583 19.4097 2.69722 18.7097 2.69722 18.0097C2.69722 9.55139 9.55139 2.69722 18.0097 2.69722C26.4583 2.6875 33.3125 9.54167 33.3125 18C33.3125 20.2361 32.8264 22.3556 31.9708 24.2708C26.0111 22.3847 16.3667 17.5722 11.7486 11.9042Z" fill="#FFC72C"></path>
</svg>
