<?xml version="1.0" encoding="UTF-8"?>
<svg xmlns="http://www.w3.org/2000/svg" width="102" height="18" viewBox="0 0 102 18" fill="none">
  <path d="M13.2513 0.5C6.21281 0.5 0.5 4.30199 0.5 9C0.5 13.698 6.21281 17.5 13.2513 17.5C20.2897 17.5 26.0025 13.6899 26.0025 9C26.0025 4.31007 20.2976 0.5 13.2513 0.5ZM13.2513 1.50902C17.3623 1.50902 20.7 2.73599 20.7 4.25356C20.7 5.38367 18.8457 6.35233 16.2023 6.78015C15.7684 3.84188 14.6163 1.73504 13.2591 1.73504C11.8941 1.73504 10.742 3.84188 10.3159 6.78822C7.67258 6.3604 5.81828 5.39174 5.81828 4.26163C5.81039 2.73599 9.14023 1.50902 13.2513 1.50902ZM15.0187 6.91738C14.4506 6.96581 13.8588 6.99003 13.2513 6.99003C12.6437 6.99003 12.0519 6.96581 11.4838 6.91738C11.7678 5.02849 12.4543 3.69658 13.2513 3.69658C14.0482 3.69658 14.7347 5.02849 15.0187 6.91738ZM12.4306 16.6282C6.71781 16.3215 2.22016 12.8827 2.22016 8.68519C2.22016 7.25641 2.74094 5.9245 3.64836 4.76211L3.65625 4.74596C3.72727 6.68329 6.41008 8.32194 10.1266 8.91928C10.1266 9.04843 10.1266 9.17759 10.1266 9.29867C10.1266 12.8101 11.1129 15.7645 12.4543 16.6282H12.4306ZM13.2513 13.9886C12.2334 13.9886 11.397 11.8091 11.3496 9.07265C11.9651 9.12916 12.5963 9.16144 13.2513 9.16144C13.9062 9.16144 14.5374 9.12916 15.1529 9.07265C15.1134 11.8091 14.277 13.9886 13.2513 13.9886ZM14.0798 16.6282L14.0561 16.6201C15.3896 15.7645 16.3838 12.8101 16.3838 9.29867C16.3838 9.16952 16.3838 9.04036 16.3838 8.91928C20.1003 8.32194 22.7831 6.68329 22.8541 4.74596L22.862 4.77018C23.7695 5.93257 24.2902 7.26448 24.2902 8.69326C24.2902 12.8908 19.7926 16.3295 14.0798 16.6282Z" fill="#ED1C24"></path>
  <path d="M71.9181 2.5019C68.4146 2.5019 65.5661 5.41595 65.5661 9C65.5661 12.584 68.4146 15.4981 71.9181 15.4981C75.4215 15.4981 78.27 12.5921 78.27 9C78.27 5.40788 75.4294 2.5019 71.9181 2.5019ZM71.9181 13.1087C69.9612 13.1087 68.3752 11.2683 68.3752 8.99193C68.3752 6.72365 69.9612 4.87512 71.9181 4.87512C73.8749 4.87512 75.4688 6.71558 75.4688 8.99193C75.4688 11.2683 73.8749 13.1087 71.9181 13.1087Z" fill="#ED1C24"></path>
  <path d="M89.2064 2.95394H79.067V5.21415H82.7992V15.1994H85.4741V5.21415H89.2064V2.95394Z" fill="#ED1C24"></path>
  <path d="M96.5605 2.96201L93.2306 2.95394L88.2911 15.1994H91.4158L92.4416 12.4468H97.3495L98.3753 15.2075H101.5L96.5605 2.96201ZM93.2069 10.3803L94.8798 5.90028H94.9034L96.5762 10.3803H93.2069Z" fill="#ED1C24"></path>
  <path d="M29.7584 5.21415H33.4907V15.1994H36.1656V5.21415H39.8979V2.95394H29.7584V5.21415Z" fill="#ED1C24"></path>
  <path d="M46.9284 2.5019C43.425 2.5019 40.5765 5.41595 40.5765 9C40.5765 12.584 43.425 15.4981 46.9284 15.4981C50.4319 15.4981 53.2804 12.5921 53.2804 9C53.2804 5.40788 50.4319 2.5019 46.9284 2.5019ZM46.9284 13.1087C44.9716 13.1087 43.3777 11.2683 43.3777 8.99193C43.3777 6.72365 44.9716 4.87512 46.9284 4.87512C48.8853 4.87512 50.4792 6.71558 50.4792 8.99193C50.4713 11.2683 48.8853 13.1087 46.9284 13.1087Z" fill="#ED1C24"></path>
  <path d="M59.4272 8.09592L56.5234 2.95394H53.3988L58.07 10.5499V15.1994H60.7765V10.5499L65.4477 2.95394H62.3309L59.4272 8.09592Z" fill="#ED1C24"></path>
</svg>
